M48
; DRILL file {KiCad 7.0.5.1-1-g8f565ef7f0-dirty-deb11} date Mon Jun 19 19:43:30 2023
; FORMAT={-:-/ absolute / metric / decimal}
; #@! TF.CreationDate,2023-06-19T19:43:30+00:00
; #@! TF.GenerationSoftware,Kicad,Pcbnew,7.0.5.1-1-g8f565ef7f0-dirty-deb11
; #@! TF.FileFunction,Plated,1,2,PTH
FMAT,2
METRIC
; #@! TA.AperFunction,Plated,PTH,ViaDrill
T1C0.400
; #@! TA.AperFunction,Plated,PTH,ComponentDrill
T2C0.600
; #@! TA.AperFunction,Plated,PTH,ComponentDrill
T3C0.900
%
G90
G05
T1
X131.3Y-90.8
X131.318Y-86.487
X132.2Y-87.8
X139.446Y-89.408
X140.208Y-90.551
X141.018Y-83.018
X142.0Y-81.5
X142.9Y-91.8
X145.0Y-81.3
X147.1Y-81.3
X158.623Y-94.107
T3
X159.16Y-84.31
X159.16Y-86.85
X159.16Y-89.39
X159.16Y-91.93
X161.7Y-85.58
X161.7Y-88.12
X161.7Y-90.66
X161.7Y-93.2
T2
G00X124.665Y-84.58
M15
G01X125.765Y-84.58
M16
G05
G00X124.665Y-93.22
M15
G01X125.765Y-93.22
M16
G05
G00X128.785Y-84.58
M15
G01X129.985Y-84.58
M16
G05
G00X128.785Y-93.22
M15
G01X129.985Y-93.22
M16
G05
T0
M30
