%TF.GenerationSoftware,KiCad,Pcbnew,6.0.9+dfsg-1~bpo11+1*%
%TF.CreationDate,2022-11-22T08:32:21+00:00*%
%TF.ProjectId,USBMOUNT01A,5553424d-4f55-44e5-9430-31412e6b6963,rev?*%
%TF.SameCoordinates,Original*%
%TF.FileFunction,Copper,L2,Bot*%
%TF.FilePolarity,Positive*%
%FSLAX46Y46*%
G04 Gerber Fmt 4.6, Leading zero omitted, Abs format (unit mm)*
G04 Created by KiCad (PCBNEW 6.0.9+dfsg-1~bpo11+1) date 2022-11-22 08:32:21*
%MOMM*%
%LPD*%
G01*
G04 APERTURE LIST*
%ADD10C,0.195000*%
%TA.AperFunction,NonConductor*%
%ADD11C,0.195000*%
%TD*%
%TA.AperFunction,ComponentPad*%
%ADD12O,2.000000X0.900000*%
%TD*%
%TA.AperFunction,ComponentPad*%
%ADD13O,2.100000X0.900000*%
%TD*%
%TA.AperFunction,WasherPad*%
%ADD14C,3.650000*%
%TD*%
%TA.AperFunction,ComponentPad*%
%ADD15R,1.500000X1.500000*%
%TD*%
%TA.AperFunction,ComponentPad*%
%ADD16C,1.500000*%
%TD*%
%TA.AperFunction,ViaPad*%
%ADD17C,0.800000*%
%TD*%
%TA.AperFunction,Conductor*%
%ADD18C,0.350000*%
%TD*%
%TA.AperFunction,Conductor*%
%ADD19C,0.300000*%
%TD*%
G04 APERTURE END LIST*
D10*
D11*
X172007142Y-79428571D02*
X172735714Y-79428571D01*
X172821428Y-79465714D01*
X172864285Y-79502857D01*
X172907142Y-79577142D01*
X172907142Y-79725714D01*
X172864285Y-79800000D01*
X172821428Y-79837142D01*
X172735714Y-79874285D01*
X172007142Y-79874285D01*
X172864285Y-80208571D02*
X172907142Y-80320000D01*
X172907142Y-80505714D01*
X172864285Y-80580000D01*
X172821428Y-80617142D01*
X172735714Y-80654285D01*
X172650000Y-80654285D01*
X172564285Y-80617142D01*
X172521428Y-80580000D01*
X172478571Y-80505714D01*
X172435714Y-80357142D01*
X172392857Y-80282857D01*
X172350000Y-80245714D01*
X172264285Y-80208571D01*
X172178571Y-80208571D01*
X172092857Y-80245714D01*
X172050000Y-80282857D01*
X172007142Y-80357142D01*
X172007142Y-80542857D01*
X172050000Y-80654285D01*
X172435714Y-81248571D02*
X172478571Y-81360000D01*
X172521428Y-81397142D01*
X172607142Y-81434285D01*
X172735714Y-81434285D01*
X172821428Y-81397142D01*
X172864285Y-81360000D01*
X172907142Y-81285714D01*
X172907142Y-80988571D01*
X172007142Y-80988571D01*
X172007142Y-81248571D01*
X172050000Y-81322857D01*
X172092857Y-81360000D01*
X172178571Y-81397142D01*
X172264285Y-81397142D01*
X172350000Y-81360000D01*
X172392857Y-81322857D01*
X172435714Y-81248571D01*
X172435714Y-80988571D01*
X172907142Y-81768571D02*
X172007142Y-81768571D01*
X172650000Y-82028571D01*
X172007142Y-82288571D01*
X172907142Y-82288571D01*
X172007142Y-82808571D02*
X172007142Y-82957142D01*
X172050000Y-83031428D01*
X172135714Y-83105714D01*
X172307142Y-83142857D01*
X172607142Y-83142857D01*
X172778571Y-83105714D01*
X172864285Y-83031428D01*
X172907142Y-82957142D01*
X172907142Y-82808571D01*
X172864285Y-82734285D01*
X172778571Y-82660000D01*
X172607142Y-82622857D01*
X172307142Y-82622857D01*
X172135714Y-82660000D01*
X172050000Y-82734285D01*
X172007142Y-82808571D01*
X172007142Y-83477142D02*
X172735714Y-83477142D01*
X172821428Y-83514285D01*
X172864285Y-83551428D01*
X172907142Y-83625714D01*
X172907142Y-83774285D01*
X172864285Y-83848571D01*
X172821428Y-83885714D01*
X172735714Y-83922857D01*
X172007142Y-83922857D01*
X172907142Y-84294285D02*
X172007142Y-84294285D01*
X172907142Y-84740000D01*
X172007142Y-84740000D01*
X172007142Y-85000000D02*
X172007142Y-85445714D01*
X172907142Y-85222857D02*
X172007142Y-85222857D01*
X172007142Y-85854285D02*
X172007142Y-85928571D01*
X172050000Y-86002857D01*
X172092857Y-86040000D01*
X172178571Y-86077142D01*
X172350000Y-86114285D01*
X172564285Y-86114285D01*
X172735714Y-86077142D01*
X172821428Y-86040000D01*
X172864285Y-86002857D01*
X172907142Y-85928571D01*
X172907142Y-85854285D01*
X172864285Y-85780000D01*
X172821428Y-85742857D01*
X172735714Y-85705714D01*
X172564285Y-85668571D01*
X172350000Y-85668571D01*
X172178571Y-85705714D01*
X172092857Y-85742857D01*
X172050000Y-85780000D01*
X172007142Y-85854285D01*
X172907142Y-86857142D02*
X172907142Y-86411428D01*
X172907142Y-86634285D02*
X172007142Y-86634285D01*
X172135714Y-86560000D01*
X172221428Y-86485714D01*
X172264285Y-86411428D01*
X172650000Y-87154285D02*
X172650000Y-87525714D01*
X172907142Y-87080000D02*
X172007142Y-87340000D01*
X172907142Y-87600000D01*
X172864285Y-87897142D02*
X172907142Y-87897142D01*
X172992857Y-87860000D01*
X173035714Y-87822857D01*
X172650000Y-88788571D02*
X172650000Y-89160000D01*
X172907142Y-88714285D02*
X172007142Y-88974285D01*
X172907142Y-89234285D01*
X172864285Y-89457142D02*
X172907142Y-89568571D01*
X172907142Y-89754285D01*
X172864285Y-89828571D01*
X172821428Y-89865714D01*
X172735714Y-89902857D01*
X172650000Y-89902857D01*
X172564285Y-89865714D01*
X172521428Y-89828571D01*
X172478571Y-89754285D01*
X172435714Y-89605714D01*
X172392857Y-89531428D01*
X172350000Y-89494285D01*
X172264285Y-89457142D01*
X172178571Y-89457142D01*
X172092857Y-89494285D01*
X172050000Y-89531428D01*
X172007142Y-89605714D01*
X172007142Y-89791428D01*
X172050000Y-89902857D01*
X172007142Y-90125714D02*
X172007142Y-90571428D01*
X172907142Y-90348571D02*
X172007142Y-90348571D01*
X172907142Y-91277142D02*
X172478571Y-91017142D01*
X172907142Y-90831428D02*
X172007142Y-90831428D01*
X172007142Y-91128571D01*
X172050000Y-91202857D01*
X172092857Y-91240000D01*
X172178571Y-91277142D01*
X172307142Y-91277142D01*
X172392857Y-91240000D01*
X172435714Y-91202857D01*
X172478571Y-91128571D01*
X172478571Y-90831428D01*
X172007142Y-91760000D02*
X172007142Y-91908571D01*
X172050000Y-91982857D01*
X172135714Y-92057142D01*
X172307142Y-92094285D01*
X172607142Y-92094285D01*
X172778571Y-92057142D01*
X172864285Y-91982857D01*
X172907142Y-91908571D01*
X172907142Y-91760000D01*
X172864285Y-91685714D01*
X172778571Y-91611428D01*
X172607142Y-91574285D01*
X172307142Y-91574285D01*
X172135714Y-91611428D01*
X172050000Y-91685714D01*
X172007142Y-91760000D01*
X172907142Y-92428571D02*
X172007142Y-92428571D01*
X172650000Y-92688571D01*
X172007142Y-92948571D01*
X172907142Y-92948571D01*
X172435714Y-93320000D02*
X172435714Y-93580000D01*
X172907142Y-93691428D02*
X172907142Y-93320000D01*
X172007142Y-93320000D01*
X172007142Y-93691428D01*
X172007142Y-93914285D02*
X172007142Y-94360000D01*
X172907142Y-94137142D02*
X172007142Y-94137142D01*
X172435714Y-94620000D02*
X172435714Y-94880000D01*
X172907142Y-94991428D02*
X172907142Y-94620000D01*
X172007142Y-94620000D01*
X172007142Y-94991428D01*
X172907142Y-95771428D02*
X172478571Y-95511428D01*
X172907142Y-95325714D02*
X172007142Y-95325714D01*
X172007142Y-95622857D01*
X172050000Y-95697142D01*
X172092857Y-95734285D01*
X172178571Y-95771428D01*
X172307142Y-95771428D01*
X172392857Y-95734285D01*
X172435714Y-95697142D01*
X172478571Y-95622857D01*
X172478571Y-95325714D01*
X172864285Y-96068571D02*
X172907142Y-96180000D01*
X172907142Y-96365714D01*
X172864285Y-96440000D01*
X172821428Y-96477142D01*
X172735714Y-96514285D01*
X172650000Y-96514285D01*
X172564285Y-96477142D01*
X172521428Y-96440000D01*
X172478571Y-96365714D01*
X172435714Y-96217142D01*
X172392857Y-96142857D01*
X172350000Y-96105714D01*
X172264285Y-96068571D01*
X172178571Y-96068571D01*
X172092857Y-96105714D01*
X172050000Y-96142857D01*
X172007142Y-96217142D01*
X172007142Y-96402857D01*
X172050000Y-96514285D01*
X172821428Y-96848571D02*
X172864285Y-96885714D01*
X172907142Y-96848571D01*
X172864285Y-96811428D01*
X172821428Y-96848571D01*
X172907142Y-96848571D01*
X172435714Y-97220000D02*
X172435714Y-97480000D01*
X172907142Y-97591428D02*
X172907142Y-97220000D01*
X172007142Y-97220000D01*
X172007142Y-97591428D01*
X172007142Y-97925714D02*
X172735714Y-97925714D01*
X172821428Y-97962857D01*
X172864285Y-98000000D01*
X172907142Y-98074285D01*
X172907142Y-98222857D01*
X172864285Y-98297142D01*
X172821428Y-98334285D01*
X172735714Y-98371428D01*
X172007142Y-98371428D01*
D12*
%TO.P,P1,S1,SHIELD*%
%TO.N,GND*%
X125215000Y-84580000D03*
X125215000Y-93220000D03*
D13*
X129385000Y-84580000D03*
X129385000Y-93220000D03*
%TD*%
D14*
%TO.P,J1,*%
%TO.N,*%
X168050000Y-94470000D03*
X168050000Y-83040000D03*
D15*
%TO.P,J1,1*%
%TO.N,GND*%
X161700000Y-93200000D03*
D16*
%TO.P,J1,2*%
%TO.N,unconnected-(J1-Pad2)*%
X159160000Y-91930000D03*
%TO.P,J1,3*%
%TO.N,unconnected-(J1-Pad3)*%
X161700000Y-90660000D03*
%TO.P,J1,4*%
%TO.N,GND*%
X159160000Y-89390000D03*
%TO.P,J1,5*%
%TO.N,RXD*%
X161700000Y-88120000D03*
%TO.P,J1,6*%
%TO.N,TXD*%
X159160000Y-86850000D03*
%TO.P,J1,7*%
%TO.N,+12V*%
X161700000Y-85580000D03*
%TO.P,J1,8*%
X159160000Y-84310000D03*
%TD*%
D17*
%TO.N,GND*%
X145000000Y-81300000D03*
X139446000Y-89408000D03*
X142900000Y-91800000D03*
X147100000Y-81300000D03*
X132200000Y-87800000D03*
%TO.N,+5V*%
X131318000Y-86487000D03*
X131300000Y-90800000D03*
%TO.N,+3V3*%
X158623000Y-94107000D03*
X140208000Y-90551000D03*
%TO.N,/D+i*%
X142300000Y-81400000D03*
X138300000Y-89408000D03*
%TD*%
D18*
%TO.N,+5V*%
X131318000Y-86487000D02*
X131318000Y-90782000D01*
X131318000Y-90782000D02*
X131300000Y-90800000D01*
%TO.N,+3V3*%
X154378723Y-90551000D02*
X157934723Y-94107000D01*
X158623000Y-94107000D02*
X157934723Y-94107000D01*
X140208000Y-90551000D02*
X154378723Y-90551000D01*
D19*
%TO.N,/D+i*%
X138300000Y-89408000D02*
X138300000Y-88903000D01*
X138300000Y-88903000D02*
X138300000Y-85300000D01*
X138300000Y-85300000D02*
X142100000Y-81500000D01*
%TD*%
%TA.AperFunction,Conductor*%
%TO.N,GND*%
G36*
X171142121Y-79224002D02*
G01*
X171188614Y-79277658D01*
X171200000Y-79330000D01*
X171200000Y-98470000D01*
X171179998Y-98538121D01*
X171126342Y-98584614D01*
X171074000Y-98596000D01*
X124057500Y-98596000D01*
X123989379Y-98575998D01*
X123942886Y-98522342D01*
X123931500Y-98470000D01*
X123931500Y-96955970D01*
X142949500Y-96955970D01*
X142964546Y-97119711D01*
X143024435Y-97332064D01*
X143122020Y-97529947D01*
X143254033Y-97706733D01*
X143416051Y-97856501D01*
X143602650Y-97974236D01*
X143807579Y-98055994D01*
X143813239Y-98057120D01*
X143813243Y-98057121D01*
X144018309Y-98097911D01*
X144018312Y-98097911D01*
X144023976Y-98099038D01*
X144029751Y-98099114D01*
X144029755Y-98099114D01*
X144140496Y-98100563D01*
X144244594Y-98101926D01*
X144250292Y-98100947D01*
X144456346Y-98065541D01*
X144456347Y-98065541D01*
X144462043Y-98064562D01*
X144669043Y-97988196D01*
X144858659Y-97875386D01*
X145024543Y-97729910D01*
X145161137Y-97556640D01*
X145263869Y-97361380D01*
X145329297Y-97150667D01*
X145350500Y-96971524D01*
X145350500Y-96244030D01*
X145335454Y-96080289D01*
X145326958Y-96050162D01*
X145277134Y-95873500D01*
X145275565Y-95867936D01*
X145177980Y-95670053D01*
X145045967Y-95493267D01*
X144898416Y-95356872D01*
X144888189Y-95347418D01*
X144888186Y-95347416D01*
X144883949Y-95343499D01*
X144697350Y-95225764D01*
X144549010Y-95166583D01*
X144493153Y-95122764D01*
X144469852Y-95055700D01*
X144486508Y-94986684D01*
X144537832Y-94937630D01*
X144552091Y-94931342D01*
X144663627Y-94890194D01*
X144663626Y-94890194D01*
X144669043Y-94888196D01*
X144807007Y-94806116D01*
X144853694Y-94778340D01*
X144853695Y-94778339D01*
X144858659Y-94775386D01*
X145024543Y-94629910D01*
X145161137Y-94456640D01*
X145263869Y-94261380D01*
X145329297Y-94050667D01*
X145334898Y-94003343D01*
X145350064Y-93875211D01*
X145350064Y-93875205D01*
X145350500Y-93871524D01*
X145350500Y-93144030D01*
X145335454Y-92980289D01*
X145330003Y-92960959D01*
X145290603Y-92821258D01*
X145275565Y-92767936D01*
X145177980Y-92570053D01*
X145122937Y-92496341D01*
X145049420Y-92397891D01*
X145049420Y-92397890D01*
X145045967Y-92393267D01*
X144919197Y-92276082D01*
X144888189Y-92247418D01*
X144888186Y-92247416D01*
X144883949Y-92243499D01*
X144697350Y-92125764D01*
X144492421Y-92044006D01*
X144486761Y-92042880D01*
X144486757Y-92042879D01*
X144281691Y-92002089D01*
X144281688Y-92002089D01*
X144276024Y-92000962D01*
X144270249Y-92000886D01*
X144270245Y-92000886D01*
X144159504Y-91999437D01*
X144055406Y-91998074D01*
X144049709Y-91999053D01*
X144049708Y-91999053D01*
X143843654Y-92034459D01*
X143843653Y-92034459D01*
X143837957Y-92035438D01*
X143630957Y-92111804D01*
X143625996Y-92114756D01*
X143625995Y-92114756D01*
X143488847Y-92196351D01*
X143441341Y-92224614D01*
X143275457Y-92370090D01*
X143138863Y-92543360D01*
X143036131Y-92738620D01*
X142970703Y-92949333D01*
X142949500Y-93128476D01*
X142949500Y-93855970D01*
X142964546Y-94019711D01*
X142966115Y-94025273D01*
X142966115Y-94025275D01*
X142975037Y-94056911D01*
X143024435Y-94232064D01*
X143122020Y-94429947D01*
X143125474Y-94434573D01*
X143125475Y-94434574D01*
X143234513Y-94580593D01*
X143254033Y-94606733D01*
X143279106Y-94629910D01*
X143390337Y-94732731D01*
X143416051Y-94756501D01*
X143602650Y-94874236D01*
X143750990Y-94933417D01*
X143806847Y-94977236D01*
X143830148Y-95044300D01*
X143813492Y-95113316D01*
X143762168Y-95162370D01*
X143747909Y-95168658D01*
X143653938Y-95203326D01*
X143630957Y-95211804D01*
X143441341Y-95324614D01*
X143275457Y-95470090D01*
X143138863Y-95643360D01*
X143036131Y-95838620D01*
X142970703Y-96049333D01*
X142970024Y-96055070D01*
X142953360Y-96195867D01*
X142949500Y-96228476D01*
X142949500Y-96955970D01*
X123931500Y-96955970D01*
X123931500Y-94117957D01*
X123951502Y-94049836D01*
X124005158Y-94003343D01*
X124075432Y-93993239D01*
X124129770Y-94014743D01*
X124189993Y-94056911D01*
X124201081Y-94063108D01*
X124367980Y-94135332D01*
X124380083Y-94139171D01*
X124559600Y-94176675D01*
X124569152Y-94177915D01*
X124572384Y-94178000D01*
X124942885Y-94178000D01*
X124958124Y-94173525D01*
X124959329Y-94172135D01*
X124961000Y-94164452D01*
X124961000Y-94159885D01*
X125469000Y-94159885D01*
X125473475Y-94175124D01*
X125474865Y-94176329D01*
X125482548Y-94178000D01*
X125810447Y-94178000D01*
X125816822Y-94177677D01*
X125952277Y-94163918D01*
X125964717Y-94161364D01*
X126138244Y-94106984D01*
X126149932Y-94101975D01*
X126308979Y-94013813D01*
X126319412Y-94006562D01*
X126457491Y-93888215D01*
X126466244Y-93879024D01*
X126577711Y-93735320D01*
X126584435Y-93724560D01*
X126664732Y-93561375D01*
X126669155Y-93549481D01*
X126684251Y-93491530D01*
X126684021Y-93484075D01*
X127861363Y-93484075D01*
X127917310Y-93636136D01*
X127922877Y-93647549D01*
X128018708Y-93802108D01*
X128026460Y-93812174D01*
X128151408Y-93944303D01*
X128161026Y-93952605D01*
X128309987Y-94056908D01*
X128321081Y-94063108D01*
X128487980Y-94135332D01*
X128500083Y-94139171D01*
X128679600Y-94176675D01*
X128689152Y-94177915D01*
X128692384Y-94178000D01*
X129112885Y-94178000D01*
X129128124Y-94173525D01*
X129129329Y-94172135D01*
X129131000Y-94164452D01*
X129131000Y-94159885D01*
X129639000Y-94159885D01*
X129643475Y-94175124D01*
X129644865Y-94176329D01*
X129652548Y-94178000D01*
X130030447Y-94178000D01*
X130036822Y-94177677D01*
X130172277Y-94163918D01*
X130184717Y-94161364D01*
X130358244Y-94106984D01*
X130369932Y-94101975D01*
X130528979Y-94013813D01*
X130539412Y-94006562D01*
X130677491Y-93888215D01*
X130686244Y-93879024D01*
X130797711Y-93735320D01*
X130804435Y-93724560D01*
X130884732Y-93561375D01*
X130889155Y-93549481D01*
X130904251Y-93491530D01*
X130903817Y-93477436D01*
X130895636Y-93474000D01*
X129657115Y-93474000D01*
X129641876Y-93478475D01*
X129640671Y-93479865D01*
X129639000Y-93487548D01*
X129639000Y-94159885D01*
X129131000Y-94159885D01*
X129131000Y-93492115D01*
X129126525Y-93476876D01*
X129125135Y-93475671D01*
X129117452Y-93474000D01*
X127875771Y-93474000D01*
X127862240Y-93477973D01*
X127861363Y-93484075D01*
X126684021Y-93484075D01*
X126683817Y-93477436D01*
X126675636Y-93474000D01*
X125487115Y-93474000D01*
X125471876Y-93478475D01*
X125470671Y-93479865D01*
X125469000Y-93487548D01*
X125469000Y-94159885D01*
X124961000Y-94159885D01*
X124961000Y-92947885D01*
X125469000Y-92947885D01*
X125473475Y-92963124D01*
X125474865Y-92964329D01*
X125482548Y-92966000D01*
X126674229Y-92966000D01*
X126687760Y-92962027D01*
X126688637Y-92955925D01*
X126685894Y-92948470D01*
X127865749Y-92948470D01*
X127866183Y-92962564D01*
X127874364Y-92966000D01*
X130894229Y-92966000D01*
X130907760Y-92962027D01*
X130908637Y-92955925D01*
X130852690Y-92803864D01*
X130847123Y-92792451D01*
X130751292Y-92637892D01*
X130743540Y-92627826D01*
X130618592Y-92495697D01*
X130608974Y-92487395D01*
X130460013Y-92383092D01*
X130448919Y-92376892D01*
X130282020Y-92304668D01*
X130269917Y-92300829D01*
X130090400Y-92263325D01*
X130080848Y-92262085D01*
X130077616Y-92262000D01*
X129572730Y-92262000D01*
X129504609Y-92241998D01*
X129458116Y-92188342D01*
X129448012Y-92118068D01*
X129458722Y-92082352D01*
X129501239Y-91991999D01*
X129501240Y-91991996D01*
X129504614Y-91984826D01*
X129512783Y-91942001D01*
X129532742Y-91837374D01*
X129532742Y-91837372D01*
X129534227Y-91829588D01*
X129524304Y-91671862D01*
X129508847Y-91624290D01*
X129477916Y-91529095D01*
X129477915Y-91529092D01*
X129475467Y-91521559D01*
X129390786Y-91388123D01*
X129340684Y-91341073D01*
X129281358Y-91285362D01*
X129275582Y-91279938D01*
X129263206Y-91273134D01*
X129229825Y-91254783D01*
X129137092Y-91203803D01*
X128984019Y-91164500D01*
X128865650Y-91164500D01*
X128861725Y-91164996D01*
X128861722Y-91164996D01*
X128756067Y-91178343D01*
X128756065Y-91178343D01*
X128748208Y-91179336D01*
X128698837Y-91198883D01*
X128608637Y-91234596D01*
X128608634Y-91234597D01*
X128601268Y-91237514D01*
X128594857Y-91242172D01*
X128594855Y-91242173D01*
X128542876Y-91279938D01*
X128473413Y-91330406D01*
X128468360Y-91336514D01*
X128377729Y-91446068D01*
X128377726Y-91446072D01*
X128372676Y-91452177D01*
X128305386Y-91595174D01*
X128303901Y-91602957D01*
X128303901Y-91602958D01*
X128295729Y-91645800D01*
X128275773Y-91750412D01*
X128285696Y-91908138D01*
X128293944Y-91933522D01*
X128329843Y-92044006D01*
X128334533Y-92058441D01*
X128411201Y-92179251D01*
X128430813Y-92247481D01*
X128410422Y-92315487D01*
X128365901Y-92356964D01*
X128241021Y-92426187D01*
X128230588Y-92433438D01*
X128092509Y-92551785D01*
X128083756Y-92560976D01*
X127972289Y-92704680D01*
X127965565Y-92715440D01*
X127885268Y-92878625D01*
X127880845Y-92890519D01*
X127865749Y-92948470D01*
X126685894Y-92948470D01*
X126632690Y-92803864D01*
X126627123Y-92792451D01*
X126531292Y-92637892D01*
X126523540Y-92627826D01*
X126398592Y-92495697D01*
X126388974Y-92487395D01*
X126240013Y-92383092D01*
X126228919Y-92376892D01*
X126062020Y-92304668D01*
X126049917Y-92300829D01*
X125870400Y-92263325D01*
X125860848Y-92262085D01*
X125857616Y-92262000D01*
X125487115Y-92262000D01*
X125471876Y-92266475D01*
X125470671Y-92267865D01*
X125469000Y-92275548D01*
X125469000Y-92947885D01*
X124961000Y-92947885D01*
X124961000Y-92280115D01*
X124956525Y-92264876D01*
X124955135Y-92263671D01*
X124947452Y-92262000D01*
X124619553Y-92262000D01*
X124613178Y-92262323D01*
X124477723Y-92276082D01*
X124465283Y-92278636D01*
X124291756Y-92333016D01*
X124280068Y-92338025D01*
X124118586Y-92427536D01*
X124049309Y-92443067D01*
X123982633Y-92418679D01*
X123939726Y-92362115D01*
X123931500Y-92317334D01*
X123931500Y-90792611D01*
X130594394Y-90792611D01*
X130612999Y-90961135D01*
X130671266Y-91120356D01*
X130675502Y-91126659D01*
X130675502Y-91126660D01*
X130685917Y-91142159D01*
X130765830Y-91261083D01*
X130771442Y-91266190D01*
X130771445Y-91266193D01*
X130885612Y-91370077D01*
X130885616Y-91370080D01*
X130891233Y-91375191D01*
X130897906Y-91378814D01*
X130897910Y-91378817D01*
X131033558Y-91452467D01*
X131033560Y-91452468D01*
X131040235Y-91456092D01*
X131047584Y-91458020D01*
X131196883Y-91497188D01*
X131196885Y-91497188D01*
X131204233Y-91499116D01*
X131290609Y-91500473D01*
X131366161Y-91501660D01*
X131366164Y-91501660D01*
X131373760Y-91501779D01*
X131381165Y-91500083D01*
X131381166Y-91500083D01*
X131441586Y-91486245D01*
X131539029Y-91463928D01*
X131690498Y-91387747D01*
X131819423Y-91277634D01*
X131918361Y-91139947D01*
X131926237Y-91120356D01*
X131978766Y-90989687D01*
X131978767Y-90989685D01*
X131981601Y-90982634D01*
X132005490Y-90814778D01*
X132005645Y-90800000D01*
X132003840Y-90785080D01*
X131997626Y-90733738D01*
X131985276Y-90631680D01*
X131951998Y-90543611D01*
X139502394Y-90543611D01*
X139520999Y-90712135D01*
X139579266Y-90871356D01*
X139673830Y-91012083D01*
X139679442Y-91017190D01*
X139679445Y-91017193D01*
X139793612Y-91121077D01*
X139793616Y-91121080D01*
X139799233Y-91126191D01*
X139805906Y-91129814D01*
X139805910Y-91129817D01*
X139941558Y-91203467D01*
X139941560Y-91203468D01*
X139948235Y-91207092D01*
X139955584Y-91209020D01*
X140104883Y-91248188D01*
X140104885Y-91248188D01*
X140112233Y-91250116D01*
X140198609Y-91251473D01*
X140274161Y-91252660D01*
X140274164Y-91252660D01*
X140281760Y-91252779D01*
X140289165Y-91251083D01*
X140289166Y-91251083D01*
X140352202Y-91236646D01*
X140447029Y-91214928D01*
X140598498Y-91138747D01*
X140694575Y-91056689D01*
X140759365Y-91027658D01*
X140776406Y-91026500D01*
X154129575Y-91026500D01*
X154197696Y-91046502D01*
X154218670Y-91063405D01*
X157550851Y-94395586D01*
X157557823Y-94404312D01*
X157558281Y-94403923D01*
X157564097Y-94410757D01*
X157568888Y-94418350D01*
X157575617Y-94424292D01*
X157575617Y-94424293D01*
X157606430Y-94451506D01*
X157612117Y-94456852D01*
X157622638Y-94467373D01*
X157630210Y-94473048D01*
X157638041Y-94479424D01*
X157670978Y-94508513D01*
X157679105Y-94512329D01*
X157684442Y-94515834D01*
X157691269Y-94519936D01*
X157696848Y-94522991D01*
X157704028Y-94528372D01*
X157712429Y-94531521D01*
X157712432Y-94531523D01*
X157745178Y-94543798D01*
X157754501Y-94547727D01*
X157786146Y-94562585D01*
X157786151Y-94562586D01*
X157794271Y-94566399D01*
X157803139Y-94567780D01*
X157809200Y-94569633D01*
X157816952Y-94571667D01*
X157823159Y-94573032D01*
X157831566Y-94576183D01*
X157875383Y-94579439D01*
X157885432Y-94580593D01*
X157897679Y-94582500D01*
X157911889Y-94582500D01*
X157921227Y-94582846D01*
X157967397Y-94586277D01*
X157976172Y-94584404D01*
X157985132Y-94583793D01*
X157985139Y-94583899D01*
X157998391Y-94582500D01*
X158055927Y-94582500D01*
X158124048Y-94602502D01*
X158140726Y-94615306D01*
X158208612Y-94677077D01*
X158208616Y-94677080D01*
X158214233Y-94682191D01*
X158243643Y-94698159D01*
X158356558Y-94759467D01*
X158356560Y-94759468D01*
X158363235Y-94763092D01*
X158370584Y-94765020D01*
X158519883Y-94804188D01*
X158519885Y-94804188D01*
X158527233Y-94806116D01*
X158612920Y-94807462D01*
X158689161Y-94808660D01*
X158689164Y-94808660D01*
X158696760Y-94808779D01*
X158704165Y-94807083D01*
X158704166Y-94807083D01*
X158764586Y-94793245D01*
X158862029Y-94770928D01*
X159013498Y-94694747D01*
X159116549Y-94606733D01*
X159136651Y-94589564D01*
X159136652Y-94589563D01*
X159142423Y-94584634D01*
X159241361Y-94446947D01*
X159258657Y-94403923D01*
X159301766Y-94296687D01*
X159301767Y-94296685D01*
X159304601Y-94289634D01*
X159320679Y-94176665D01*
X159327909Y-94125862D01*
X159327909Y-94125859D01*
X159328490Y-94121778D01*
X159328645Y-94107000D01*
X159315051Y-93994669D01*
X160442001Y-93994669D01*
X160442371Y-94001490D01*
X160447895Y-94052352D01*
X160451521Y-94067604D01*
X160496676Y-94188054D01*
X160505214Y-94203649D01*
X160581715Y-94305724D01*
X160594276Y-94318285D01*
X160696351Y-94394786D01*
X160711946Y-94403324D01*
X160832394Y-94448478D01*
X160847649Y-94452105D01*
X160898514Y-94457631D01*
X160905328Y-94458000D01*
X161427885Y-94458000D01*
X161443124Y-94453525D01*
X161444329Y-94452135D01*
X161446000Y-94444452D01*
X161446000Y-94439884D01*
X161954000Y-94439884D01*
X161958475Y-94455123D01*
X161959865Y-94456328D01*
X161967548Y-94457999D01*
X162494669Y-94457999D01*
X162501490Y-94457629D01*
X162552352Y-94452105D01*
X162567604Y-94448479D01*
X162569709Y-94447690D01*
X165919650Y-94447690D01*
X165936332Y-94737018D01*
X165937157Y-94741225D01*
X165937158Y-94741230D01*
X165950388Y-94808660D01*
X165992127Y-95021405D01*
X165993514Y-95025456D01*
X165993515Y-95025460D01*
X166084612Y-95291534D01*
X166084616Y-95291543D01*
X166086001Y-95295589D01*
X166100599Y-95324614D01*
X166187749Y-95497891D01*
X166216218Y-95554496D01*
X166380367Y-95793335D01*
X166575412Y-96007686D01*
X166578701Y-96010436D01*
X166794451Y-96190832D01*
X166794456Y-96190836D01*
X166797743Y-96193584D01*
X166920494Y-96270586D01*
X167039606Y-96345305D01*
X167039610Y-96345307D01*
X167043246Y-96347588D01*
X167307379Y-96466848D01*
X167311498Y-96468068D01*
X167581140Y-96547940D01*
X167581144Y-96547941D01*
X167585253Y-96549158D01*
X167589487Y-96549806D01*
X167589492Y-96549807D01*
X167844009Y-96588753D01*
X167871727Y-96592995D01*
X168019278Y-96595313D01*
X168157209Y-96597480D01*
X168157215Y-96597480D01*
X168161500Y-96597547D01*
X168449210Y-96562731D01*
X168729532Y-96489189D01*
X168997281Y-96378284D01*
X169222071Y-96246928D01*
X169243792Y-96234235D01*
X169243794Y-96234233D01*
X169247500Y-96232068D01*
X169475561Y-96053246D01*
X169484700Y-96043816D01*
X169674259Y-95848204D01*
X169677242Y-95845126D01*
X169679775Y-95841678D01*
X169679779Y-95841673D01*
X169846275Y-95615016D01*
X169848813Y-95611561D01*
X169850859Y-95607793D01*
X169985048Y-95360648D01*
X169985049Y-95360646D01*
X169987098Y-95356872D01*
X170075560Y-95122764D01*
X170088020Y-95089791D01*
X170088021Y-95089787D01*
X170089538Y-95085773D01*
X170134331Y-94890194D01*
X170153279Y-94807462D01*
X170153280Y-94807458D01*
X170154237Y-94803278D01*
X170156727Y-94775386D01*
X170179780Y-94517081D01*
X170180000Y-94514617D01*
X170180467Y-94470000D01*
X170180072Y-94464203D01*
X170161048Y-94185139D01*
X170161047Y-94185133D01*
X170160756Y-94180862D01*
X170145457Y-94106984D01*
X170123993Y-94003343D01*
X170101986Y-93897075D01*
X170005246Y-93623890D01*
X169872325Y-93366361D01*
X169792319Y-93252524D01*
X169708147Y-93132758D01*
X169708144Y-93132755D01*
X169705684Y-93129254D01*
X169692875Y-93115469D01*
X169511322Y-92920095D01*
X169511321Y-92920094D01*
X169508405Y-92916956D01*
X169501581Y-92911370D01*
X169394875Y-92824033D01*
X169284139Y-92733397D01*
X169037037Y-92581973D01*
X169009883Y-92570053D01*
X168775602Y-92467211D01*
X168771670Y-92465485D01*
X168751436Y-92459721D01*
X168638449Y-92427536D01*
X168492949Y-92386089D01*
X168488707Y-92385485D01*
X168488701Y-92385484D01*
X168210283Y-92345859D01*
X168206032Y-92345254D01*
X168053988Y-92344458D01*
X167920514Y-92343759D01*
X167920508Y-92343759D01*
X167916227Y-92343737D01*
X167911983Y-92344296D01*
X167911979Y-92344296D01*
X167815759Y-92356964D01*
X167628898Y-92381565D01*
X167349360Y-92458037D01*
X167327852Y-92467211D01*
X167137344Y-92548470D01*
X167082788Y-92571740D01*
X166834114Y-92720569D01*
X166830763Y-92723253D01*
X166830761Y-92723255D01*
X166804695Y-92744138D01*
X166607938Y-92901769D01*
X166408447Y-93111989D01*
X166239332Y-93347338D01*
X166103722Y-93603461D01*
X166102247Y-93607492D01*
X166005625Y-93871524D01*
X166004126Y-93875619D01*
X165942388Y-94158775D01*
X165940980Y-94176665D01*
X165923095Y-94403923D01*
X165919650Y-94447690D01*
X162569709Y-94447690D01*
X162688054Y-94403324D01*
X162703649Y-94394786D01*
X162805724Y-94318285D01*
X162818285Y-94305724D01*
X162894786Y-94203649D01*
X162903324Y-94188054D01*
X162948478Y-94067606D01*
X162952105Y-94052351D01*
X162957631Y-94001486D01*
X162958000Y-93994672D01*
X162958000Y-93472115D01*
X162953525Y-93456876D01*
X162952135Y-93455671D01*
X162944452Y-93454000D01*
X161972115Y-93454000D01*
X161956876Y-93458475D01*
X161955671Y-93459865D01*
X161954000Y-93467548D01*
X161954000Y-94439884D01*
X161446000Y-94439884D01*
X161446000Y-93472115D01*
X161441525Y-93456876D01*
X161440135Y-93455671D01*
X161432452Y-93454000D01*
X160460116Y-93454000D01*
X160444877Y-93458475D01*
X160443672Y-93459865D01*
X160442001Y-93467548D01*
X160442001Y-93994669D01*
X159315051Y-93994669D01*
X159308276Y-93938680D01*
X159248345Y-93780077D01*
X159210189Y-93724560D01*
X159156614Y-93646608D01*
X159156613Y-93646607D01*
X159152312Y-93640349D01*
X159146641Y-93635296D01*
X159031392Y-93532612D01*
X159031388Y-93532610D01*
X159025721Y-93527560D01*
X158875881Y-93448224D01*
X158711441Y-93406919D01*
X158703843Y-93406879D01*
X158703841Y-93406879D01*
X158626668Y-93406475D01*
X158541895Y-93406031D01*
X158534508Y-93407805D01*
X158534504Y-93407805D01*
X158391162Y-93442220D01*
X158377032Y-93445612D01*
X158370288Y-93449093D01*
X158370285Y-93449094D01*
X158286934Y-93492115D01*
X158226369Y-93523375D01*
X158206747Y-93540493D01*
X158142267Y-93570202D01*
X158071959Y-93560334D01*
X158034822Y-93534640D01*
X156415444Y-91915262D01*
X158104520Y-91915262D01*
X158105036Y-91921406D01*
X158120857Y-92109806D01*
X158121759Y-92120553D01*
X158123458Y-92126478D01*
X158167513Y-92280115D01*
X158178544Y-92318586D01*
X158181359Y-92324063D01*
X158181360Y-92324066D01*
X158269566Y-92495697D01*
X158272712Y-92501818D01*
X158400677Y-92663270D01*
X158405370Y-92667264D01*
X158405371Y-92667265D01*
X158552465Y-92792451D01*
X158557564Y-92796791D01*
X158562942Y-92799797D01*
X158562944Y-92799798D01*
X158594563Y-92817469D01*
X158737398Y-92897297D01*
X158797902Y-92916956D01*
X158927471Y-92959056D01*
X158927475Y-92959057D01*
X158933329Y-92960959D01*
X159137894Y-92985351D01*
X159144029Y-92984879D01*
X159144031Y-92984879D01*
X159203681Y-92980289D01*
X159343300Y-92969546D01*
X159349230Y-92967890D01*
X159349232Y-92967890D01*
X159476156Y-92932452D01*
X159492513Y-92927885D01*
X160442000Y-92927885D01*
X160446475Y-92943124D01*
X160447865Y-92944329D01*
X160455548Y-92946000D01*
X162939884Y-92946000D01*
X162955123Y-92941525D01*
X162956328Y-92940135D01*
X162957999Y-92932452D01*
X162957999Y-92405331D01*
X162957629Y-92398510D01*
X162952105Y-92347648D01*
X162948479Y-92332396D01*
X162903324Y-92211946D01*
X162894786Y-92196351D01*
X162818285Y-92094276D01*
X162805724Y-92081715D01*
X162703649Y-92005214D01*
X162688054Y-91996676D01*
X162567606Y-91951522D01*
X162552351Y-91947895D01*
X162501486Y-91942369D01*
X162494672Y-91942000D01*
X161934751Y-91942000D01*
X161866630Y-91921998D01*
X161820137Y-91868342D01*
X161810033Y-91798068D01*
X161839527Y-91733488D01*
X161900866Y-91694641D01*
X162081725Y-91644145D01*
X162087214Y-91641372D01*
X162087220Y-91641370D01*
X162260116Y-91554033D01*
X162265610Y-91551258D01*
X162427951Y-91424424D01*
X162456665Y-91391159D01*
X162558540Y-91273134D01*
X162558540Y-91273133D01*
X162562564Y-91268472D01*
X162570341Y-91254783D01*
X162613764Y-91178343D01*
X162664323Y-91089344D01*
X162729351Y-90893863D01*
X162755171Y-90689474D01*
X162755583Y-90660000D01*
X162735480Y-90454970D01*
X162675935Y-90257749D01*
X162579218Y-90075849D01*
X162491264Y-89968007D01*
X162452906Y-89920975D01*
X162452903Y-89920972D01*
X162449011Y-89916200D01*
X162420029Y-89892224D01*
X162295025Y-89788811D01*
X162295021Y-89788809D01*
X162290275Y-89784882D01*
X162109055Y-89686897D01*
X161912254Y-89625977D01*
X161906129Y-89625333D01*
X161906128Y-89625333D01*
X161713498Y-89605087D01*
X161713496Y-89605087D01*
X161707369Y-89604443D01*
X161620529Y-89612346D01*
X161508342Y-89622555D01*
X161508339Y-89622556D01*
X161502203Y-89623114D01*
X161304572Y-89681280D01*
X161122002Y-89776726D01*
X161117201Y-89780586D01*
X161117198Y-89780588D01*
X160980415Y-89890564D01*
X160961447Y-89905815D01*
X160829024Y-90063630D01*
X160826056Y-90069028D01*
X160826053Y-90069033D01*
X160765832Y-90178576D01*
X160729776Y-90244162D01*
X160667484Y-90440532D01*
X160666798Y-90446649D01*
X160666797Y-90446653D01*
X160647641Y-90617434D01*
X160644520Y-90645262D01*
X160661759Y-90850553D01*
X160663458Y-90856478D01*
X160699633Y-90982634D01*
X160718544Y-91048586D01*
X160721359Y-91054063D01*
X160721360Y-91054066D01*
X160800277Y-91207622D01*
X160812712Y-91231818D01*
X160940677Y-91393270D01*
X160945370Y-91397264D01*
X160945371Y-91397265D01*
X161089626Y-91520035D01*
X161097564Y-91526791D01*
X161277398Y-91627297D01*
X161375364Y-91659128D01*
X161467468Y-91689055D01*
X161467471Y-91689056D01*
X161473329Y-91690959D01*
X161479444Y-91691688D01*
X161485142Y-91692941D01*
X161547377Y-91727106D01*
X161581262Y-91789494D01*
X161576038Y-91860299D01*
X161533364Y-91917039D01*
X161466788Y-91941700D01*
X161458082Y-91942001D01*
X160905331Y-91942001D01*
X160898510Y-91942371D01*
X160847648Y-91947895D01*
X160832396Y-91951521D01*
X160711946Y-91996676D01*
X160696351Y-92005214D01*
X160594276Y-92081715D01*
X160581715Y-92094276D01*
X160505214Y-92196351D01*
X160496676Y-92211946D01*
X160451522Y-92332394D01*
X160447895Y-92347649D01*
X160442369Y-92398514D01*
X160442000Y-92405328D01*
X160442000Y-92927885D01*
X159492513Y-92927885D01*
X159541725Y-92914145D01*
X159547214Y-92911372D01*
X159547220Y-92911370D01*
X159720116Y-92824033D01*
X159725610Y-92821258D01*
X159747874Y-92803864D01*
X159834591Y-92736113D01*
X159887951Y-92694424D01*
X159945437Y-92627826D01*
X160018540Y-92543134D01*
X160018540Y-92543133D01*
X160022564Y-92538472D01*
X160043387Y-92501818D01*
X160064026Y-92465485D01*
X160124323Y-92359344D01*
X160189351Y-92163863D01*
X160215171Y-91959474D01*
X160215583Y-91930000D01*
X160195480Y-91724970D01*
X160135935Y-91527749D01*
X160039218Y-91345849D01*
X159963215Y-91252660D01*
X159912906Y-91190975D01*
X159912903Y-91190972D01*
X159909011Y-91186200D01*
X159883380Y-91164996D01*
X159755025Y-91058811D01*
X159755021Y-91058809D01*
X159750275Y-91054882D01*
X159569055Y-90956897D01*
X159372254Y-90895977D01*
X159366131Y-90895334D01*
X159366129Y-90895333D01*
X159314606Y-90889918D01*
X159248950Y-90862905D01*
X159208320Y-90804683D01*
X159205617Y-90733738D01*
X159241699Y-90672594D01*
X159305110Y-90640664D01*
X159316796Y-90639087D01*
X159373803Y-90634100D01*
X159384599Y-90632196D01*
X159586595Y-90578072D01*
X159596887Y-90574326D01*
X159786416Y-90485947D01*
X159795912Y-90480464D01*
X159837148Y-90451590D01*
X159845523Y-90441112D01*
X159838457Y-90427668D01*
X159172811Y-89762021D01*
X159158868Y-89754408D01*
X159157034Y-89754539D01*
X159150420Y-89758790D01*
X158480820Y-90428391D01*
X158474393Y-90440161D01*
X158483687Y-90452175D01*
X158524088Y-90480464D01*
X158533584Y-90485947D01*
X158723113Y-90574326D01*
X158733405Y-90578072D01*
X158935401Y-90632196D01*
X158946197Y-90634100D01*
X158999023Y-90638721D01*
X159065141Y-90664584D01*
X159106781Y-90722088D01*
X159110722Y-90792975D01*
X159075713Y-90854739D01*
X159012869Y-90887772D01*
X158999463Y-90889723D01*
X158991228Y-90890473D01*
X158962203Y-90893114D01*
X158764572Y-90951280D01*
X158582002Y-91046726D01*
X158577201Y-91050586D01*
X158577198Y-91050588D01*
X158473683Y-91133816D01*
X158421447Y-91175815D01*
X158289024Y-91333630D01*
X158286056Y-91339028D01*
X158286053Y-91339033D01*
X158198048Y-91499116D01*
X158189776Y-91514162D01*
X158127484Y-91710532D01*
X158126798Y-91716649D01*
X158126797Y-91716653D01*
X158122123Y-91758323D01*
X158104520Y-91915262D01*
X156415444Y-91915262D01*
X154762595Y-90262414D01*
X154755623Y-90253688D01*
X154755165Y-90254077D01*
X154749349Y-90247243D01*
X154744558Y-90239650D01*
X154707016Y-90206494D01*
X154701329Y-90201148D01*
X154690808Y-90190627D01*
X154683236Y-90184952D01*
X154675405Y-90178576D01*
X154649197Y-90155430D01*
X154649198Y-90155430D01*
X154642468Y-90149487D01*
X154634341Y-90145671D01*
X154629004Y-90142166D01*
X154622186Y-90138070D01*
X154616603Y-90135013D01*
X154609418Y-90129628D01*
X154601013Y-90126477D01*
X154601011Y-90126476D01*
X154568269Y-90114202D01*
X154558949Y-90110275D01*
X154548114Y-90105188D01*
X154519175Y-90091601D01*
X154510305Y-90090220D01*
X154504225Y-90088361D01*
X154496504Y-90086335D01*
X154490291Y-90084969D01*
X154481880Y-90081816D01*
X154454843Y-90079807D01*
X154438047Y-90078559D01*
X154428000Y-90077405D01*
X154420578Y-90076249D01*
X154420576Y-90076249D01*
X154415767Y-90075500D01*
X154401561Y-90075500D01*
X154392224Y-90075154D01*
X154371619Y-90073623D01*
X154346049Y-90071723D01*
X154337273Y-90073596D01*
X154328316Y-90074207D01*
X154328309Y-90074101D01*
X154315056Y-90075500D01*
X140775369Y-90075500D01*
X140707248Y-90055498D01*
X140691550Y-90043576D01*
X140616392Y-89976613D01*
X140610721Y-89971560D01*
X140460881Y-89892224D01*
X140296441Y-89850919D01*
X140288843Y-89850879D01*
X140288841Y-89850879D01*
X140211668Y-89850475D01*
X140126895Y-89850031D01*
X140119508Y-89851805D01*
X140119504Y-89851805D01*
X139978601Y-89885634D01*
X139962032Y-89889612D01*
X139955288Y-89893093D01*
X139955285Y-89893094D01*
X139901267Y-89920975D01*
X139811369Y-89967375D01*
X139805647Y-89972367D01*
X139805645Y-89972368D01*
X139789082Y-89986817D01*
X139683604Y-90078831D01*
X139661505Y-90110275D01*
X139602805Y-90193797D01*
X139586113Y-90217547D01*
X139524524Y-90375513D01*
X139523532Y-90383046D01*
X139523532Y-90383047D01*
X139510745Y-90480180D01*
X139502394Y-90543611D01*
X131951998Y-90543611D01*
X131925345Y-90473077D01*
X131858291Y-90375513D01*
X131833614Y-90339608D01*
X131833613Y-90339607D01*
X131829312Y-90333349D01*
X131824723Y-90329261D01*
X131794940Y-90265492D01*
X131793500Y-90246496D01*
X131793500Y-89400611D01*
X137594394Y-89400611D01*
X137612999Y-89569135D01*
X137634467Y-89627799D01*
X137654039Y-89681280D01*
X137671266Y-89728356D01*
X137675502Y-89734659D01*
X137675502Y-89734660D01*
X137688574Y-89754113D01*
X137765830Y-89869083D01*
X137771442Y-89874190D01*
X137771445Y-89874193D01*
X137885612Y-89978077D01*
X137885616Y-89978080D01*
X137891233Y-89983191D01*
X137897906Y-89986814D01*
X137897910Y-89986817D01*
X138033558Y-90060467D01*
X138033560Y-90060468D01*
X138040235Y-90064092D01*
X138047584Y-90066020D01*
X138196883Y-90105188D01*
X138196885Y-90105188D01*
X138204233Y-90107116D01*
X138290609Y-90108473D01*
X138366161Y-90109660D01*
X138366164Y-90109660D01*
X138373760Y-90109779D01*
X138381165Y-90108083D01*
X138381166Y-90108083D01*
X138453131Y-90091601D01*
X138539029Y-90071928D01*
X138690498Y-89995747D01*
X138788235Y-89912271D01*
X138813651Y-89890564D01*
X138813652Y-89890563D01*
X138819423Y-89885634D01*
X138918361Y-89747947D01*
X138926237Y-89728356D01*
X138978766Y-89597687D01*
X138978767Y-89597685D01*
X138981601Y-89590634D01*
X139005490Y-89422778D01*
X139005645Y-89408000D01*
X139004130Y-89395475D01*
X157897674Y-89395475D01*
X157915901Y-89603804D01*
X157917804Y-89614599D01*
X157971928Y-89816595D01*
X157975674Y-89826887D01*
X158064054Y-90016417D01*
X158069534Y-90025907D01*
X158098411Y-90067149D01*
X158108887Y-90075523D01*
X158122334Y-90068455D01*
X158787979Y-89402811D01*
X158794356Y-89391132D01*
X159524408Y-89391132D01*
X159524539Y-89392966D01*
X159528790Y-89399580D01*
X160198391Y-90069180D01*
X160210161Y-90075607D01*
X160222176Y-90066311D01*
X160250466Y-90025907D01*
X160255946Y-90016417D01*
X160344326Y-89826887D01*
X160348072Y-89816595D01*
X160402196Y-89614599D01*
X160404099Y-89603804D01*
X160422326Y-89395475D01*
X160422326Y-89384525D01*
X160404099Y-89176196D01*
X160402196Y-89165401D01*
X160348072Y-88963405D01*
X160344326Y-88953113D01*
X160255946Y-88763583D01*
X160250466Y-88754093D01*
X160221589Y-88712851D01*
X160211113Y-88704477D01*
X160197666Y-88711545D01*
X159532021Y-89377189D01*
X159524408Y-89391132D01*
X158794356Y-89391132D01*
X158795592Y-89388868D01*
X158795461Y-89387034D01*
X158791210Y-89380420D01*
X158121609Y-88710820D01*
X158109839Y-88704393D01*
X158097824Y-88713689D01*
X158069534Y-88754093D01*
X158064054Y-88763583D01*
X157975674Y-88953113D01*
X157971928Y-88963405D01*
X157917804Y-89165401D01*
X157915901Y-89176196D01*
X157897674Y-89384525D01*
X157897674Y-89395475D01*
X139004130Y-89395475D01*
X139003840Y-89393080D01*
X138986188Y-89247220D01*
X138985276Y-89239680D01*
X138925345Y-89081077D01*
X138879267Y-89014033D01*
X138833614Y-88947608D01*
X138833613Y-88947607D01*
X138829312Y-88941349D01*
X138792681Y-88908712D01*
X138755125Y-88848462D01*
X138750500Y-88814636D01*
X138750500Y-86835262D01*
X158104520Y-86835262D01*
X158105036Y-86841406D01*
X158117687Y-86992056D01*
X158121759Y-87040553D01*
X158123458Y-87046478D01*
X158152253Y-87146897D01*
X158178544Y-87238586D01*
X158181359Y-87244063D01*
X158181360Y-87244066D01*
X158269897Y-87416341D01*
X158272712Y-87421818D01*
X158400677Y-87583270D01*
X158405370Y-87587264D01*
X158405371Y-87587265D01*
X158549626Y-87710035D01*
X158557564Y-87716791D01*
X158737398Y-87817297D01*
X158832238Y-87848113D01*
X158927471Y-87879056D01*
X158927475Y-87879057D01*
X158933329Y-87880959D01*
X158939441Y-87881688D01*
X158939442Y-87881688D01*
X159009646Y-87890059D01*
X159074919Y-87917986D01*
X159114732Y-87976769D01*
X159116444Y-88047745D01*
X159079512Y-88108380D01*
X159015661Y-88139422D01*
X159005708Y-88140694D01*
X158946197Y-88145900D01*
X158935401Y-88147804D01*
X158733405Y-88201928D01*
X158723113Y-88205674D01*
X158533583Y-88294054D01*
X158524093Y-88299534D01*
X158482851Y-88328411D01*
X158474477Y-88338887D01*
X158481545Y-88352334D01*
X159147189Y-89017979D01*
X159161132Y-89025592D01*
X159162966Y-89025461D01*
X159169580Y-89021210D01*
X159839180Y-88351609D01*
X159845607Y-88339839D01*
X159836313Y-88327825D01*
X159795912Y-88299536D01*
X159786416Y-88294053D01*
X159596887Y-88205674D01*
X159586595Y-88201928D01*
X159384599Y-88147804D01*
X159373803Y-88145900D01*
X159327264Y-88141829D01*
X159261146Y-88115966D01*
X159253395Y-88105262D01*
X160644520Y-88105262D01*
X160645036Y-88111406D01*
X160660834Y-88299534D01*
X160661759Y-88310553D01*
X160718544Y-88508586D01*
X160721359Y-88514063D01*
X160721360Y-88514066D01*
X160742247Y-88554707D01*
X160812712Y-88691818D01*
X160940677Y-88853270D01*
X160945370Y-88857264D01*
X160945371Y-88857265D01*
X161044988Y-88942045D01*
X161097564Y-88986791D01*
X161277398Y-89087297D01*
X161372238Y-89118113D01*
X161467471Y-89149056D01*
X161467475Y-89149057D01*
X161473329Y-89150959D01*
X161677894Y-89175351D01*
X161684029Y-89174879D01*
X161684031Y-89174879D01*
X161740039Y-89170569D01*
X161883300Y-89159546D01*
X161889230Y-89157890D01*
X161889232Y-89157890D01*
X162075797Y-89105800D01*
X162075796Y-89105800D01*
X162081725Y-89104145D01*
X162087214Y-89101372D01*
X162087220Y-89101370D01*
X162219952Y-89034322D01*
X162265610Y-89011258D01*
X162427951Y-88884424D01*
X162458993Y-88848462D01*
X162558540Y-88733134D01*
X162558540Y-88733133D01*
X162562564Y-88728472D01*
X162583387Y-88691818D01*
X162661276Y-88554707D01*
X162664323Y-88549344D01*
X162729351Y-88353863D01*
X162755171Y-88149474D01*
X162755583Y-88120000D01*
X162735480Y-87914970D01*
X162675935Y-87717749D01*
X162579218Y-87535849D01*
X162486216Y-87421818D01*
X162452906Y-87380975D01*
X162452903Y-87380972D01*
X162449011Y-87376200D01*
X162431786Y-87361950D01*
X162295025Y-87248811D01*
X162295021Y-87248809D01*
X162290275Y-87244882D01*
X162109055Y-87146897D01*
X161912254Y-87085977D01*
X161906129Y-87085333D01*
X161906128Y-87085333D01*
X161713498Y-87065087D01*
X161713496Y-87065087D01*
X161707369Y-87064443D01*
X161620529Y-87072346D01*
X161508342Y-87082555D01*
X161508339Y-87082556D01*
X161502203Y-87083114D01*
X161304572Y-87141280D01*
X161122002Y-87236726D01*
X161117201Y-87240586D01*
X161117198Y-87240588D01*
X161062325Y-87284707D01*
X160961447Y-87365815D01*
X160829024Y-87523630D01*
X160826056Y-87529028D01*
X160826053Y-87529033D01*
X160732743Y-87698765D01*
X160729776Y-87704162D01*
X160667484Y-87900532D01*
X160666798Y-87906649D01*
X160666797Y-87906653D01*
X160649769Y-88058462D01*
X160644520Y-88105262D01*
X159253395Y-88105262D01*
X159219506Y-88058462D01*
X159215565Y-87987575D01*
X159250574Y-87925811D01*
X159313418Y-87892778D01*
X159328577Y-87890679D01*
X159337159Y-87890019D01*
X159337164Y-87890018D01*
X159343300Y-87889546D01*
X159349230Y-87887890D01*
X159349232Y-87887890D01*
X159535797Y-87835800D01*
X159535796Y-87835800D01*
X159541725Y-87834145D01*
X159547214Y-87831372D01*
X159547220Y-87831370D01*
X159720116Y-87744033D01*
X159725610Y-87741258D01*
X159887951Y-87614424D01*
X160022564Y-87458472D01*
X160043387Y-87421818D01*
X160072515Y-87370543D01*
X160124323Y-87279344D01*
X160189351Y-87083863D01*
X160215171Y-86879474D01*
X160215583Y-86850000D01*
X160195480Y-86644970D01*
X160135935Y-86447749D01*
X160039218Y-86265849D01*
X159947848Y-86153819D01*
X159912906Y-86110975D01*
X159912903Y-86110972D01*
X159909011Y-86106200D01*
X159840579Y-86049588D01*
X159755025Y-85978811D01*
X159755021Y-85978809D01*
X159750275Y-85974882D01*
X159611583Y-85899892D01*
X159574474Y-85879827D01*
X159569055Y-85876897D01*
X159372254Y-85815977D01*
X159366129Y-85815333D01*
X159366128Y-85815333D01*
X159173498Y-85795087D01*
X159173496Y-85795087D01*
X159167369Y-85794443D01*
X159080529Y-85802346D01*
X158968342Y-85812555D01*
X158968339Y-85812556D01*
X158962203Y-85813114D01*
X158764572Y-85871280D01*
X158759107Y-85874137D01*
X158710059Y-85899779D01*
X158582002Y-85966726D01*
X158577201Y-85970586D01*
X158577198Y-85970588D01*
X158488781Y-86041677D01*
X158421447Y-86095815D01*
X158289024Y-86253630D01*
X158286056Y-86259028D01*
X158286053Y-86259033D01*
X158205708Y-86405181D01*
X158189776Y-86434162D01*
X158127484Y-86630532D01*
X158126798Y-86636649D01*
X158126797Y-86636653D01*
X158123942Y-86662108D01*
X158104520Y-86835262D01*
X138750500Y-86835262D01*
X138750500Y-85565262D01*
X160644520Y-85565262D01*
X160645036Y-85571406D01*
X160658229Y-85728512D01*
X160661759Y-85770553D01*
X160663458Y-85776478D01*
X160692253Y-85876897D01*
X160718544Y-85968586D01*
X160721359Y-85974063D01*
X160721360Y-85974066D01*
X160796473Y-86120221D01*
X160812712Y-86151818D01*
X160940677Y-86313270D01*
X160945370Y-86317264D01*
X160945371Y-86317265D01*
X161089626Y-86440035D01*
X161097564Y-86446791D01*
X161277398Y-86547297D01*
X161372238Y-86578112D01*
X161467471Y-86609056D01*
X161467475Y-86609057D01*
X161473329Y-86610959D01*
X161677894Y-86635351D01*
X161684029Y-86634879D01*
X161684031Y-86634879D01*
X161740523Y-86630532D01*
X161883300Y-86619546D01*
X161889230Y-86617890D01*
X161889232Y-86617890D01*
X162075797Y-86565800D01*
X162075796Y-86565800D01*
X162081725Y-86564145D01*
X162087214Y-86561372D01*
X162087220Y-86561370D01*
X162234446Y-86487000D01*
X162265610Y-86471258D01*
X162427951Y-86344424D01*
X162450173Y-86318680D01*
X162558540Y-86193134D01*
X162558540Y-86193133D01*
X162562564Y-86188472D01*
X162583387Y-86151818D01*
X162612515Y-86100543D01*
X162664323Y-86009344D01*
X162729351Y-85813863D01*
X162755171Y-85609474D01*
X162755583Y-85580000D01*
X162735480Y-85374970D01*
X162675935Y-85177749D01*
X162579218Y-84995849D01*
X162486216Y-84881818D01*
X162452906Y-84840975D01*
X162452903Y-84840972D01*
X162449011Y-84836200D01*
X162407753Y-84802068D01*
X162295025Y-84708811D01*
X162295021Y-84708809D01*
X162290275Y-84704882D01*
X162109055Y-84606897D01*
X161912254Y-84545977D01*
X161906129Y-84545333D01*
X161906128Y-84545333D01*
X161713498Y-84525087D01*
X161713496Y-84525087D01*
X161707369Y-84524443D01*
X161620529Y-84532346D01*
X161508342Y-84542555D01*
X161508339Y-84542556D01*
X161502203Y-84543114D01*
X161304572Y-84601280D01*
X161122002Y-84696726D01*
X161117201Y-84700586D01*
X161117198Y-84700588D01*
X160994278Y-84799418D01*
X160961447Y-84825815D01*
X160829024Y-84983630D01*
X160826056Y-84989028D01*
X160826053Y-84989033D01*
X160776461Y-85079242D01*
X160729776Y-85164162D01*
X160667484Y-85360532D01*
X160666798Y-85366649D01*
X160666797Y-85366653D01*
X160647614Y-85537677D01*
X160644520Y-85565262D01*
X138750500Y-85565262D01*
X138750500Y-85538793D01*
X138770502Y-85470672D01*
X138787405Y-85449698D01*
X139941841Y-84295262D01*
X158104520Y-84295262D01*
X158121759Y-84500553D01*
X158123458Y-84506478D01*
X158156941Y-84623246D01*
X158178544Y-84698586D01*
X158181359Y-84704063D01*
X158181360Y-84704066D01*
X158257146Y-84851530D01*
X158272712Y-84881818D01*
X158400677Y-85043270D01*
X158405370Y-85047264D01*
X158405371Y-85047265D01*
X158549626Y-85170035D01*
X158557564Y-85176791D01*
X158562942Y-85179797D01*
X158562944Y-85179798D01*
X158647481Y-85227044D01*
X158737398Y-85277297D01*
X158820514Y-85304303D01*
X158927471Y-85339056D01*
X158927475Y-85339057D01*
X158933329Y-85340959D01*
X159137894Y-85365351D01*
X159144029Y-85364879D01*
X159144031Y-85364879D01*
X159200523Y-85360532D01*
X159343300Y-85349546D01*
X159349230Y-85347890D01*
X159349232Y-85347890D01*
X159535797Y-85295800D01*
X159535796Y-85295800D01*
X159541725Y-85294145D01*
X159547214Y-85291372D01*
X159547220Y-85291370D01*
X159720116Y-85204033D01*
X159725610Y-85201258D01*
X159887951Y-85074424D01*
X159901102Y-85059189D01*
X160018540Y-84923134D01*
X160018540Y-84923133D01*
X160022564Y-84918472D01*
X160043387Y-84881818D01*
X160072515Y-84830543D01*
X160124323Y-84739344D01*
X160189351Y-84543863D01*
X160215171Y-84339474D01*
X160215583Y-84310000D01*
X160195480Y-84104970D01*
X160135935Y-83907749D01*
X160039218Y-83725849D01*
X159926137Y-83587198D01*
X159912906Y-83570975D01*
X159912903Y-83570972D01*
X159909011Y-83566200D01*
X159891786Y-83551950D01*
X159755025Y-83438811D01*
X159755021Y-83438809D01*
X159750275Y-83434882D01*
X159569055Y-83336897D01*
X159372254Y-83275977D01*
X159366129Y-83275333D01*
X159366128Y-83275333D01*
X159173498Y-83255087D01*
X159173496Y-83255087D01*
X159167369Y-83254443D01*
X159080529Y-83262346D01*
X158968342Y-83272555D01*
X158968339Y-83272556D01*
X158962203Y-83273114D01*
X158764572Y-83331280D01*
X158582002Y-83426726D01*
X158577201Y-83430586D01*
X158577198Y-83430588D01*
X158566971Y-83438811D01*
X158421447Y-83555815D01*
X158289024Y-83713630D01*
X158286056Y-83719028D01*
X158286053Y-83719033D01*
X158215486Y-83847395D01*
X158189776Y-83894162D01*
X158127484Y-84090532D01*
X158126798Y-84096649D01*
X158126797Y-84096653D01*
X158116886Y-84185016D01*
X158104520Y-84295262D01*
X139941841Y-84295262D01*
X141219413Y-83017690D01*
X165919650Y-83017690D01*
X165936332Y-83307018D01*
X165937157Y-83311225D01*
X165937158Y-83311230D01*
X165959257Y-83423869D01*
X165992127Y-83591405D01*
X165993514Y-83595456D01*
X165993515Y-83595460D01*
X166084612Y-83861534D01*
X166084616Y-83861543D01*
X166086001Y-83865589D01*
X166100372Y-83894162D01*
X166186134Y-84064680D01*
X166216218Y-84124496D01*
X166218648Y-84128031D01*
X166363968Y-84339474D01*
X166380367Y-84363335D01*
X166575412Y-84577686D01*
X166578701Y-84580436D01*
X166794451Y-84760832D01*
X166794456Y-84760836D01*
X166797743Y-84763584D01*
X166859092Y-84802068D01*
X167039606Y-84915305D01*
X167039610Y-84915307D01*
X167043246Y-84917588D01*
X167307379Y-85036848D01*
X167342546Y-85047265D01*
X167581140Y-85117940D01*
X167581144Y-85117941D01*
X167585253Y-85119158D01*
X167589487Y-85119806D01*
X167589492Y-85119807D01*
X167844009Y-85158754D01*
X167871727Y-85162995D01*
X168019278Y-85165313D01*
X168157209Y-85167480D01*
X168157215Y-85167480D01*
X168161500Y-85167547D01*
X168449210Y-85132731D01*
X168729532Y-85059189D01*
X168997281Y-84948284D01*
X169040321Y-84923134D01*
X169243792Y-84804235D01*
X169243794Y-84804233D01*
X169247500Y-84802068D01*
X169475561Y-84623246D01*
X169491405Y-84606897D01*
X169674259Y-84418204D01*
X169677242Y-84415126D01*
X169679775Y-84411678D01*
X169679779Y-84411673D01*
X169846275Y-84185016D01*
X169848813Y-84181561D01*
X169858422Y-84163864D01*
X169985048Y-83930648D01*
X169985049Y-83930646D01*
X169987098Y-83926872D01*
X170058886Y-83736892D01*
X170088020Y-83659791D01*
X170088021Y-83659787D01*
X170089538Y-83655773D01*
X170140799Y-83431951D01*
X170153279Y-83377462D01*
X170153280Y-83377458D01*
X170154237Y-83373278D01*
X170157731Y-83334137D01*
X170179780Y-83087081D01*
X170180000Y-83084617D01*
X170180467Y-83040000D01*
X170178655Y-83013419D01*
X170161048Y-82755139D01*
X170161047Y-82755133D01*
X170160756Y-82750862D01*
X170101986Y-82467075D01*
X170005246Y-82193890D01*
X169872325Y-81936361D01*
X169738617Y-81746113D01*
X169708147Y-81702758D01*
X169708144Y-81702755D01*
X169705684Y-81699254D01*
X169692875Y-81685469D01*
X169511322Y-81490095D01*
X169511321Y-81490094D01*
X169508405Y-81486956D01*
X169284139Y-81303397D01*
X169037037Y-81151973D01*
X169018943Y-81144030D01*
X168775602Y-81037211D01*
X168771670Y-81035485D01*
X168751436Y-81029721D01*
X168723248Y-81021691D01*
X168492949Y-80956089D01*
X168488707Y-80955485D01*
X168488701Y-80955484D01*
X168210283Y-80915859D01*
X168206032Y-80915254D01*
X168053988Y-80914458D01*
X167920514Y-80913759D01*
X167920508Y-80913759D01*
X167916227Y-80913737D01*
X167911983Y-80914296D01*
X167911979Y-80914296D01*
X167785247Y-80930981D01*
X167628898Y-80951565D01*
X167624758Y-80952698D01*
X167624756Y-80952698D01*
X167614572Y-80955484D01*
X167349360Y-81028037D01*
X167345412Y-81029721D01*
X167086740Y-81140054D01*
X167086736Y-81140056D01*
X167082788Y-81141740D01*
X166834114Y-81290569D01*
X166830763Y-81293253D01*
X166830761Y-81293255D01*
X166818102Y-81303397D01*
X166607938Y-81471769D01*
X166408447Y-81681989D01*
X166239332Y-81917338D01*
X166103722Y-82173461D01*
X166004126Y-82445619D01*
X165942388Y-82728775D01*
X165942052Y-82733045D01*
X165924506Y-82955994D01*
X165919650Y-83017690D01*
X141219413Y-83017690D01*
X142102551Y-82134552D01*
X142164863Y-82100526D01*
X142203812Y-82099006D01*
X142204233Y-82099116D01*
X142281797Y-82100334D01*
X142366161Y-82101660D01*
X142366164Y-82101660D01*
X142373760Y-82101779D01*
X142381165Y-82100083D01*
X142381166Y-82100083D01*
X142445498Y-82085349D01*
X142539029Y-82063928D01*
X142690498Y-81987747D01*
X142819423Y-81877634D01*
X142834990Y-81855970D01*
X153499500Y-81855970D01*
X153514546Y-82019711D01*
X153574435Y-82232064D01*
X153672020Y-82429947D01*
X153675474Y-82434573D01*
X153675475Y-82434574D01*
X153699745Y-82467075D01*
X153804033Y-82606733D01*
X153829106Y-82629910D01*
X153959951Y-82750862D01*
X153966051Y-82756501D01*
X154152650Y-82874236D01*
X154357579Y-82955994D01*
X154363239Y-82957120D01*
X154363243Y-82957121D01*
X154568309Y-82997911D01*
X154568312Y-82997911D01*
X154573976Y-82999038D01*
X154579751Y-82999114D01*
X154579755Y-82999114D01*
X154690496Y-83000563D01*
X154794594Y-83001926D01*
X154800292Y-83000947D01*
X155006346Y-82965541D01*
X155006347Y-82965541D01*
X155012043Y-82964562D01*
X155219043Y-82888196D01*
X155408659Y-82775386D01*
X155574543Y-82629910D01*
X155711137Y-82456640D01*
X155813869Y-82261380D01*
X155879297Y-82050667D01*
X155893242Y-81932847D01*
X155900064Y-81875211D01*
X155900064Y-81875205D01*
X155900500Y-81871524D01*
X155900500Y-81144030D01*
X155885454Y-80980289D01*
X155878459Y-80955484D01*
X155827134Y-80773500D01*
X155825565Y-80767936D01*
X155727980Y-80570053D01*
X155595967Y-80393267D01*
X155433949Y-80243499D01*
X155247350Y-80125764D01*
X155042421Y-80044006D01*
X155036761Y-80042880D01*
X155036757Y-80042879D01*
X154831691Y-80002089D01*
X154831688Y-80002089D01*
X154826024Y-80000962D01*
X154820249Y-80000886D01*
X154820245Y-80000886D01*
X154709504Y-79999437D01*
X154605406Y-79998074D01*
X154599709Y-79999053D01*
X154599708Y-79999053D01*
X154393654Y-80034459D01*
X154393653Y-80034459D01*
X154387957Y-80035438D01*
X154180957Y-80111804D01*
X153991341Y-80224614D01*
X153825457Y-80370090D01*
X153688863Y-80543360D01*
X153586131Y-80738620D01*
X153520703Y-80949333D01*
X153520024Y-80955070D01*
X153506798Y-81066819D01*
X153499500Y-81128476D01*
X153499500Y-81855970D01*
X142834990Y-81855970D01*
X142918361Y-81739947D01*
X142981601Y-81582634D01*
X143005490Y-81414778D01*
X143005645Y-81400000D01*
X143004117Y-81387369D01*
X142992402Y-81290569D01*
X142985276Y-81231680D01*
X142925345Y-81073077D01*
X142844241Y-80955070D01*
X142833614Y-80939608D01*
X142833613Y-80939607D01*
X142829312Y-80933349D01*
X142808978Y-80915232D01*
X142708392Y-80825612D01*
X142708388Y-80825610D01*
X142702721Y-80820560D01*
X142552881Y-80741224D01*
X142388441Y-80699919D01*
X142380843Y-80699879D01*
X142380841Y-80699879D01*
X142303668Y-80699475D01*
X142218895Y-80699031D01*
X142211508Y-80700805D01*
X142211504Y-80700805D01*
X142075308Y-80733504D01*
X142054032Y-80738612D01*
X142047288Y-80742093D01*
X142047285Y-80742094D01*
X141910117Y-80812892D01*
X141903369Y-80816375D01*
X141775604Y-80927831D01*
X141771237Y-80934045D01*
X141698731Y-81037211D01*
X141678113Y-81066547D01*
X141616524Y-81224513D01*
X141605782Y-81306113D01*
X141603632Y-81322442D01*
X141574910Y-81387369D01*
X141567805Y-81395091D01*
X138005650Y-84957247D01*
X137994561Y-84967101D01*
X137975291Y-84982293D01*
X137975289Y-84982295D01*
X137967890Y-84988128D01*
X137962535Y-84995875D01*
X137962534Y-84995877D01*
X137934545Y-85036375D01*
X137932250Y-85039587D01*
X137897366Y-85086816D01*
X137894973Y-85093632D01*
X137890869Y-85099569D01*
X137888029Y-85108549D01*
X137888028Y-85108551D01*
X137873182Y-85155495D01*
X137871929Y-85159250D01*
X137856203Y-85204033D01*
X137852481Y-85214631D01*
X137852199Y-85221819D01*
X137852188Y-85221878D01*
X137850020Y-85228730D01*
X137849500Y-85235337D01*
X137849500Y-85288016D01*
X137849403Y-85292962D01*
X137847162Y-85349994D01*
X137849046Y-85357100D01*
X137849500Y-85365347D01*
X137849500Y-88814079D01*
X137829498Y-88882200D01*
X137806329Y-88909028D01*
X137775604Y-88935831D01*
X137771237Y-88942045D01*
X137717870Y-89017979D01*
X137678113Y-89074547D01*
X137616524Y-89232513D01*
X137615532Y-89240046D01*
X137615532Y-89240047D01*
X137595642Y-89391132D01*
X137594394Y-89400611D01*
X131793500Y-89400611D01*
X131793500Y-87060177D01*
X131813502Y-86992056D01*
X131826752Y-86974890D01*
X131831646Y-86969568D01*
X131837423Y-86964634D01*
X131845644Y-86953194D01*
X131896099Y-86882978D01*
X131936361Y-86826947D01*
X131944237Y-86807356D01*
X131996766Y-86676687D01*
X131996767Y-86676685D01*
X131999601Y-86669634D01*
X132010596Y-86592378D01*
X132022909Y-86505862D01*
X132022909Y-86505859D01*
X132023490Y-86501778D01*
X132023645Y-86487000D01*
X132021840Y-86472080D01*
X132006850Y-86348213D01*
X132003276Y-86318680D01*
X131943345Y-86160077D01*
X131867408Y-86049588D01*
X131851614Y-86026608D01*
X131851613Y-86026607D01*
X131847312Y-86020349D01*
X131835514Y-86009837D01*
X131726392Y-85912612D01*
X131726388Y-85912610D01*
X131720721Y-85907560D01*
X131706026Y-85899779D01*
X131648914Y-85869540D01*
X131570881Y-85828224D01*
X131406441Y-85786919D01*
X131398843Y-85786879D01*
X131398841Y-85786879D01*
X131321668Y-85786475D01*
X131236895Y-85786031D01*
X131229508Y-85787805D01*
X131229504Y-85787805D01*
X131104575Y-85817799D01*
X131072032Y-85825612D01*
X131065288Y-85829093D01*
X131065285Y-85829094D01*
X130976199Y-85875075D01*
X130921369Y-85903375D01*
X130793604Y-86014831D01*
X130763704Y-86057374D01*
X130713971Y-86128138D01*
X130696113Y-86153547D01*
X130634524Y-86311513D01*
X130633532Y-86319046D01*
X130633532Y-86319047D01*
X130613494Y-86471258D01*
X130612394Y-86479611D01*
X130630999Y-86648135D01*
X130689266Y-86807356D01*
X130693502Y-86813659D01*
X130693502Y-86813660D01*
X130703902Y-86829137D01*
X130783830Y-86948083D01*
X130789443Y-86953190D01*
X130789446Y-86953194D01*
X130801301Y-86963981D01*
X130838223Y-87024622D01*
X130842500Y-87057173D01*
X130842500Y-90212185D01*
X130822498Y-90280306D01*
X130799330Y-90307133D01*
X130784193Y-90320339D01*
X130775604Y-90327831D01*
X130771237Y-90334045D01*
X130688214Y-90452175D01*
X130678113Y-90466547D01*
X130616524Y-90624513D01*
X130615532Y-90632046D01*
X130615532Y-90632047D01*
X130602145Y-90733738D01*
X130594394Y-90792611D01*
X123931500Y-90792611D01*
X123931500Y-85477957D01*
X123951502Y-85409836D01*
X124005158Y-85363343D01*
X124075432Y-85353239D01*
X124129770Y-85374743D01*
X124189993Y-85416911D01*
X124201081Y-85423108D01*
X124367980Y-85495332D01*
X124380083Y-85499171D01*
X124559600Y-85536675D01*
X124569152Y-85537915D01*
X124572384Y-85538000D01*
X124942885Y-85538000D01*
X124958124Y-85533525D01*
X124959329Y-85532135D01*
X124961000Y-85524452D01*
X124961000Y-85519885D01*
X125469000Y-85519885D01*
X125473475Y-85535124D01*
X125474865Y-85536329D01*
X125482548Y-85538000D01*
X125810447Y-85538000D01*
X125816822Y-85537677D01*
X125952277Y-85523918D01*
X125964717Y-85521364D01*
X126138244Y-85466984D01*
X126149932Y-85461975D01*
X126308979Y-85373813D01*
X126319412Y-85366562D01*
X126457491Y-85248215D01*
X126466244Y-85239024D01*
X126577711Y-85095320D01*
X126584435Y-85084560D01*
X126664732Y-84921375D01*
X126669155Y-84909481D01*
X126684251Y-84851530D01*
X126684021Y-84844075D01*
X127861363Y-84844075D01*
X127917310Y-84996136D01*
X127922877Y-85007549D01*
X128018708Y-85162108D01*
X128026460Y-85172174D01*
X128151408Y-85304303D01*
X128161026Y-85312605D01*
X128309987Y-85416908D01*
X128321081Y-85423108D01*
X128356790Y-85438561D01*
X128411364Y-85483972D01*
X128432724Y-85551679D01*
X128414087Y-85620186D01*
X128403834Y-85634513D01*
X128372676Y-85672177D01*
X128305386Y-85815174D01*
X128303901Y-85822957D01*
X128303901Y-85822958D01*
X128287763Y-85907560D01*
X128275773Y-85970412D01*
X128285696Y-86128138D01*
X128288147Y-86135681D01*
X128330442Y-86265849D01*
X128334533Y-86278441D01*
X128419214Y-86411877D01*
X128424993Y-86417304D01*
X128424994Y-86417305D01*
X128494836Y-86482892D01*
X128534418Y-86520062D01*
X128672908Y-86596197D01*
X128825981Y-86635500D01*
X128944350Y-86635500D01*
X128948275Y-86635004D01*
X128948278Y-86635004D01*
X129053933Y-86621657D01*
X129053935Y-86621657D01*
X129061792Y-86620664D01*
X129133234Y-86592378D01*
X129201363Y-86565404D01*
X129201366Y-86565403D01*
X129208732Y-86562486D01*
X129227018Y-86549201D01*
X129330173Y-86474254D01*
X129336587Y-86469594D01*
X129355451Y-86446791D01*
X129432271Y-86353932D01*
X129432274Y-86353928D01*
X129437324Y-86347823D01*
X129504614Y-86204826D01*
X129511795Y-86167180D01*
X129532742Y-86057374D01*
X129532742Y-86057372D01*
X129534227Y-86049588D01*
X129524304Y-85891862D01*
X129502202Y-85823839D01*
X129477916Y-85749095D01*
X129477915Y-85749092D01*
X129475467Y-85741559D01*
X129469093Y-85731514D01*
X129468229Y-85728512D01*
X129467845Y-85727695D01*
X129467977Y-85727633D01*
X129449479Y-85663283D01*
X129469869Y-85595277D01*
X129523788Y-85549090D01*
X129575477Y-85538000D01*
X130030447Y-85538000D01*
X130036822Y-85537677D01*
X130172277Y-85523918D01*
X130184717Y-85521364D01*
X130358244Y-85466984D01*
X130369932Y-85461975D01*
X130528979Y-85373813D01*
X130539412Y-85366562D01*
X130677491Y-85248215D01*
X130686244Y-85239024D01*
X130797711Y-85095320D01*
X130804435Y-85084560D01*
X130884732Y-84921375D01*
X130889155Y-84909481D01*
X130904251Y-84851530D01*
X130903817Y-84837436D01*
X130895636Y-84834000D01*
X127875771Y-84834000D01*
X127862240Y-84837973D01*
X127861363Y-84844075D01*
X126684021Y-84844075D01*
X126683817Y-84837436D01*
X126675636Y-84834000D01*
X125487115Y-84834000D01*
X125471876Y-84838475D01*
X125470671Y-84839865D01*
X125469000Y-84847548D01*
X125469000Y-85519885D01*
X124961000Y-85519885D01*
X124961000Y-84307885D01*
X125469000Y-84307885D01*
X125473475Y-84323124D01*
X125474865Y-84324329D01*
X125482548Y-84326000D01*
X126674229Y-84326000D01*
X126687760Y-84322027D01*
X126688637Y-84315925D01*
X126685894Y-84308470D01*
X127865749Y-84308470D01*
X127866183Y-84322564D01*
X127874364Y-84326000D01*
X129112885Y-84326000D01*
X129128124Y-84321525D01*
X129129329Y-84320135D01*
X129131000Y-84312452D01*
X129131000Y-84307885D01*
X129639000Y-84307885D01*
X129643475Y-84323124D01*
X129644865Y-84324329D01*
X129652548Y-84326000D01*
X130894229Y-84326000D01*
X130907760Y-84322027D01*
X130908637Y-84315925D01*
X130852690Y-84163864D01*
X130847123Y-84152451D01*
X130751292Y-83997892D01*
X130743540Y-83987826D01*
X130618592Y-83855697D01*
X130608974Y-83847395D01*
X130460013Y-83743092D01*
X130448919Y-83736892D01*
X130282020Y-83664668D01*
X130269917Y-83660829D01*
X130090400Y-83623325D01*
X130080848Y-83622085D01*
X130077616Y-83622000D01*
X129657115Y-83622000D01*
X129641876Y-83626475D01*
X129640671Y-83627865D01*
X129639000Y-83635548D01*
X129639000Y-84307885D01*
X129131000Y-84307885D01*
X129131000Y-83640115D01*
X129126525Y-83624876D01*
X129125135Y-83623671D01*
X129117452Y-83622000D01*
X128739553Y-83622000D01*
X128733178Y-83622323D01*
X128597723Y-83636082D01*
X128585283Y-83638636D01*
X128411756Y-83693016D01*
X128400068Y-83698025D01*
X128241021Y-83786187D01*
X128230588Y-83793438D01*
X128092509Y-83911785D01*
X128083756Y-83920976D01*
X127972289Y-84064680D01*
X127965565Y-84075440D01*
X127885268Y-84238625D01*
X127880845Y-84250519D01*
X127865749Y-84308470D01*
X126685894Y-84308470D01*
X126632690Y-84163864D01*
X126627123Y-84152451D01*
X126531292Y-83997892D01*
X126523540Y-83987826D01*
X126398592Y-83855697D01*
X126388974Y-83847395D01*
X126240013Y-83743092D01*
X126228919Y-83736892D01*
X126062020Y-83664668D01*
X126049917Y-83660829D01*
X125870400Y-83623325D01*
X125860848Y-83622085D01*
X125857616Y-83622000D01*
X125487115Y-83622000D01*
X125471876Y-83626475D01*
X125470671Y-83627865D01*
X125469000Y-83635548D01*
X125469000Y-84307885D01*
X124961000Y-84307885D01*
X124961000Y-83640115D01*
X124956525Y-83624876D01*
X124955135Y-83623671D01*
X124947452Y-83622000D01*
X124619553Y-83622000D01*
X124613178Y-83622323D01*
X124477723Y-83636082D01*
X124465283Y-83638636D01*
X124291756Y-83693016D01*
X124280068Y-83698025D01*
X124118586Y-83787536D01*
X124049309Y-83803067D01*
X123982633Y-83778679D01*
X123939726Y-83722115D01*
X123931500Y-83677334D01*
X123931500Y-81855970D01*
X126999500Y-81855970D01*
X127014546Y-82019711D01*
X127074435Y-82232064D01*
X127172020Y-82429947D01*
X127175474Y-82434573D01*
X127175475Y-82434574D01*
X127199745Y-82467075D01*
X127304033Y-82606733D01*
X127329106Y-82629910D01*
X127459951Y-82750862D01*
X127466051Y-82756501D01*
X127652650Y-82874236D01*
X127857579Y-82955994D01*
X127863239Y-82957120D01*
X127863243Y-82957121D01*
X128068309Y-82997911D01*
X128068312Y-82997911D01*
X128073976Y-82999038D01*
X128079751Y-82999114D01*
X128079755Y-82999114D01*
X128190496Y-83000563D01*
X128294594Y-83001926D01*
X128300292Y-83000947D01*
X128506346Y-82965541D01*
X128506347Y-82965541D01*
X128512043Y-82964562D01*
X128719043Y-82888196D01*
X128908659Y-82775386D01*
X129074543Y-82629910D01*
X129211137Y-82456640D01*
X129313869Y-82261380D01*
X129379297Y-82050667D01*
X129393242Y-81932847D01*
X129400064Y-81875211D01*
X129400064Y-81875205D01*
X129400500Y-81871524D01*
X129400500Y-81144030D01*
X129385454Y-80980289D01*
X129378459Y-80955484D01*
X129327134Y-80773500D01*
X129325565Y-80767936D01*
X129227980Y-80570053D01*
X129095967Y-80393267D01*
X128933949Y-80243499D01*
X128747350Y-80125764D01*
X128542421Y-80044006D01*
X128536761Y-80042880D01*
X128536757Y-80042879D01*
X128331691Y-80002089D01*
X128331688Y-80002089D01*
X128326024Y-80000962D01*
X128320249Y-80000886D01*
X128320245Y-80000886D01*
X128209504Y-79999437D01*
X128105406Y-79998074D01*
X128099709Y-79999053D01*
X128099708Y-79999053D01*
X127893654Y-80034459D01*
X127893653Y-80034459D01*
X127887957Y-80035438D01*
X127680957Y-80111804D01*
X127491341Y-80224614D01*
X127325457Y-80370090D01*
X127188863Y-80543360D01*
X127086131Y-80738620D01*
X127020703Y-80949333D01*
X127020024Y-80955070D01*
X127006798Y-81066819D01*
X126999500Y-81128476D01*
X126999500Y-81855970D01*
X123931500Y-81855970D01*
X123931500Y-79330000D01*
X123951502Y-79261879D01*
X124005158Y-79215386D01*
X124057500Y-79204000D01*
X171074000Y-79204000D01*
X171142121Y-79224002D01*
G37*
%TD.AperFunction*%
%TD*%
M02*
