%TF.GenerationSoftware,KiCad,Pcbnew,7.0.5.1-1-g8f565ef7f0-dirty-deb11*%
%TF.CreationDate,2023-06-19T19:43:29+00:00*%
%TF.ProjectId,USBMOUNT01,5553424d-4f55-44e5-9430-312e6b696361,rev?*%
%TF.SameCoordinates,Original*%
%TF.FileFunction,Copper,L2,Bot*%
%TF.FilePolarity,Positive*%
%FSLAX46Y46*%
G04 Gerber Fmt 4.6, Leading zero omitted, Abs format (unit mm)*
G04 Created by KiCad (PCBNEW 7.0.5.1-1-g8f565ef7f0-dirty-deb11) date 2023-06-19 19:43:29*
%MOMM*%
%LPD*%
G01*
G04 APERTURE LIST*
%ADD10C,0.195000*%
%TA.AperFunction,NonConductor*%
%ADD11C,0.195000*%
%TD*%
%TA.AperFunction,ComponentPad*%
%ADD12O,2.100000X0.900000*%
%TD*%
%TA.AperFunction,ComponentPad*%
%ADD13O,2.000000X0.900000*%
%TD*%
%TA.AperFunction,WasherPad*%
%ADD14C,3.650000*%
%TD*%
%TA.AperFunction,ComponentPad*%
%ADD15R,1.500000X1.500000*%
%TD*%
%TA.AperFunction,ComponentPad*%
%ADD16C,1.500000*%
%TD*%
%TA.AperFunction,ViaPad*%
%ADD17C,0.800000*%
%TD*%
%TA.AperFunction,Conductor*%
%ADD18C,0.350000*%
%TD*%
%TA.AperFunction,Conductor*%
%ADD19C,0.200000*%
%TD*%
G04 APERTURE END LIST*
D10*
D11*
X172006217Y-79428571D02*
X172734788Y-79428571D01*
X172734788Y-79428571D02*
X172820502Y-79465714D01*
X172820502Y-79465714D02*
X172863360Y-79502857D01*
X172863360Y-79502857D02*
X172906217Y-79577142D01*
X172906217Y-79577142D02*
X172906217Y-79725714D01*
X172906217Y-79725714D02*
X172863360Y-79799999D01*
X172863360Y-79799999D02*
X172820502Y-79837142D01*
X172820502Y-79837142D02*
X172734788Y-79874285D01*
X172734788Y-79874285D02*
X172006217Y-79874285D01*
X172863360Y-80208571D02*
X172906217Y-80320000D01*
X172906217Y-80320000D02*
X172906217Y-80505714D01*
X172906217Y-80505714D02*
X172863360Y-80580000D01*
X172863360Y-80580000D02*
X172820502Y-80617142D01*
X172820502Y-80617142D02*
X172734788Y-80654285D01*
X172734788Y-80654285D02*
X172649074Y-80654285D01*
X172649074Y-80654285D02*
X172563360Y-80617142D01*
X172563360Y-80617142D02*
X172520502Y-80580000D01*
X172520502Y-80580000D02*
X172477645Y-80505714D01*
X172477645Y-80505714D02*
X172434788Y-80357142D01*
X172434788Y-80357142D02*
X172391931Y-80282857D01*
X172391931Y-80282857D02*
X172349074Y-80245714D01*
X172349074Y-80245714D02*
X172263360Y-80208571D01*
X172263360Y-80208571D02*
X172177645Y-80208571D01*
X172177645Y-80208571D02*
X172091931Y-80245714D01*
X172091931Y-80245714D02*
X172049074Y-80282857D01*
X172049074Y-80282857D02*
X172006217Y-80357142D01*
X172006217Y-80357142D02*
X172006217Y-80542857D01*
X172006217Y-80542857D02*
X172049074Y-80654285D01*
X172434788Y-81248571D02*
X172477645Y-81359999D01*
X172477645Y-81359999D02*
X172520502Y-81397142D01*
X172520502Y-81397142D02*
X172606217Y-81434285D01*
X172606217Y-81434285D02*
X172734788Y-81434285D01*
X172734788Y-81434285D02*
X172820502Y-81397142D01*
X172820502Y-81397142D02*
X172863360Y-81359999D01*
X172863360Y-81359999D02*
X172906217Y-81285714D01*
X172906217Y-81285714D02*
X172906217Y-80988571D01*
X172906217Y-80988571D02*
X172006217Y-80988571D01*
X172006217Y-80988571D02*
X172006217Y-81248571D01*
X172006217Y-81248571D02*
X172049074Y-81322857D01*
X172049074Y-81322857D02*
X172091931Y-81359999D01*
X172091931Y-81359999D02*
X172177645Y-81397142D01*
X172177645Y-81397142D02*
X172263360Y-81397142D01*
X172263360Y-81397142D02*
X172349074Y-81359999D01*
X172349074Y-81359999D02*
X172391931Y-81322857D01*
X172391931Y-81322857D02*
X172434788Y-81248571D01*
X172434788Y-81248571D02*
X172434788Y-80988571D01*
X172906217Y-81768571D02*
X172006217Y-81768571D01*
X172006217Y-81768571D02*
X172649074Y-82028571D01*
X172649074Y-82028571D02*
X172006217Y-82288571D01*
X172006217Y-82288571D02*
X172906217Y-82288571D01*
X172006217Y-82808571D02*
X172006217Y-82957143D01*
X172006217Y-82957143D02*
X172049074Y-83031428D01*
X172049074Y-83031428D02*
X172134788Y-83105714D01*
X172134788Y-83105714D02*
X172306217Y-83142857D01*
X172306217Y-83142857D02*
X172606217Y-83142857D01*
X172606217Y-83142857D02*
X172777645Y-83105714D01*
X172777645Y-83105714D02*
X172863360Y-83031428D01*
X172863360Y-83031428D02*
X172906217Y-82957143D01*
X172906217Y-82957143D02*
X172906217Y-82808571D01*
X172906217Y-82808571D02*
X172863360Y-82734286D01*
X172863360Y-82734286D02*
X172777645Y-82660000D01*
X172777645Y-82660000D02*
X172606217Y-82622857D01*
X172606217Y-82622857D02*
X172306217Y-82622857D01*
X172306217Y-82622857D02*
X172134788Y-82660000D01*
X172134788Y-82660000D02*
X172049074Y-82734286D01*
X172049074Y-82734286D02*
X172006217Y-82808571D01*
X172006217Y-83477143D02*
X172734788Y-83477143D01*
X172734788Y-83477143D02*
X172820502Y-83514286D01*
X172820502Y-83514286D02*
X172863360Y-83551429D01*
X172863360Y-83551429D02*
X172906217Y-83625714D01*
X172906217Y-83625714D02*
X172906217Y-83774286D01*
X172906217Y-83774286D02*
X172863360Y-83848571D01*
X172863360Y-83848571D02*
X172820502Y-83885714D01*
X172820502Y-83885714D02*
X172734788Y-83922857D01*
X172734788Y-83922857D02*
X172006217Y-83922857D01*
X172906217Y-84294286D02*
X172006217Y-84294286D01*
X172006217Y-84294286D02*
X172906217Y-84740000D01*
X172906217Y-84740000D02*
X172006217Y-84740000D01*
X172006217Y-85000000D02*
X172006217Y-85445715D01*
X172906217Y-85222857D02*
X172006217Y-85222857D01*
X172006217Y-85854286D02*
X172006217Y-85928572D01*
X172006217Y-85928572D02*
X172049074Y-86002858D01*
X172049074Y-86002858D02*
X172091931Y-86040001D01*
X172091931Y-86040001D02*
X172177645Y-86077143D01*
X172177645Y-86077143D02*
X172349074Y-86114286D01*
X172349074Y-86114286D02*
X172563360Y-86114286D01*
X172563360Y-86114286D02*
X172734788Y-86077143D01*
X172734788Y-86077143D02*
X172820502Y-86040001D01*
X172820502Y-86040001D02*
X172863360Y-86002858D01*
X172863360Y-86002858D02*
X172906217Y-85928572D01*
X172906217Y-85928572D02*
X172906217Y-85854286D01*
X172906217Y-85854286D02*
X172863360Y-85780001D01*
X172863360Y-85780001D02*
X172820502Y-85742858D01*
X172820502Y-85742858D02*
X172734788Y-85705715D01*
X172734788Y-85705715D02*
X172563360Y-85668572D01*
X172563360Y-85668572D02*
X172349074Y-85668572D01*
X172349074Y-85668572D02*
X172177645Y-85705715D01*
X172177645Y-85705715D02*
X172091931Y-85742858D01*
X172091931Y-85742858D02*
X172049074Y-85780001D01*
X172049074Y-85780001D02*
X172006217Y-85854286D01*
X172906217Y-86857143D02*
X172906217Y-86411429D01*
X172906217Y-86634286D02*
X172006217Y-86634286D01*
X172006217Y-86634286D02*
X172134788Y-86560000D01*
X172134788Y-86560000D02*
X172220502Y-86485715D01*
X172220502Y-86485715D02*
X172263360Y-86411429D01*
X172649074Y-87154286D02*
X172649074Y-87525715D01*
X172906217Y-87080000D02*
X172006217Y-87340000D01*
X172006217Y-87340000D02*
X172906217Y-87600000D01*
X172863360Y-87897143D02*
X172906217Y-87897143D01*
X172906217Y-87897143D02*
X172991931Y-87860000D01*
X172991931Y-87860000D02*
X173034788Y-87822857D01*
X172649074Y-88788572D02*
X172649074Y-89160001D01*
X172906217Y-88714286D02*
X172006217Y-88974286D01*
X172006217Y-88974286D02*
X172906217Y-89234286D01*
X172863360Y-89457143D02*
X172906217Y-89568572D01*
X172906217Y-89568572D02*
X172906217Y-89754286D01*
X172906217Y-89754286D02*
X172863360Y-89828572D01*
X172863360Y-89828572D02*
X172820502Y-89865714D01*
X172820502Y-89865714D02*
X172734788Y-89902857D01*
X172734788Y-89902857D02*
X172649074Y-89902857D01*
X172649074Y-89902857D02*
X172563360Y-89865714D01*
X172563360Y-89865714D02*
X172520502Y-89828572D01*
X172520502Y-89828572D02*
X172477645Y-89754286D01*
X172477645Y-89754286D02*
X172434788Y-89605714D01*
X172434788Y-89605714D02*
X172391931Y-89531429D01*
X172391931Y-89531429D02*
X172349074Y-89494286D01*
X172349074Y-89494286D02*
X172263360Y-89457143D01*
X172263360Y-89457143D02*
X172177645Y-89457143D01*
X172177645Y-89457143D02*
X172091931Y-89494286D01*
X172091931Y-89494286D02*
X172049074Y-89531429D01*
X172049074Y-89531429D02*
X172006217Y-89605714D01*
X172006217Y-89605714D02*
X172006217Y-89791429D01*
X172006217Y-89791429D02*
X172049074Y-89902857D01*
X172006217Y-90125714D02*
X172006217Y-90571429D01*
X172906217Y-90348571D02*
X172006217Y-90348571D01*
X172906217Y-91277143D02*
X172477645Y-91017143D01*
X172906217Y-90831429D02*
X172006217Y-90831429D01*
X172006217Y-90831429D02*
X172006217Y-91128572D01*
X172006217Y-91128572D02*
X172049074Y-91202857D01*
X172049074Y-91202857D02*
X172091931Y-91240000D01*
X172091931Y-91240000D02*
X172177645Y-91277143D01*
X172177645Y-91277143D02*
X172306217Y-91277143D01*
X172306217Y-91277143D02*
X172391931Y-91240000D01*
X172391931Y-91240000D02*
X172434788Y-91202857D01*
X172434788Y-91202857D02*
X172477645Y-91128572D01*
X172477645Y-91128572D02*
X172477645Y-90831429D01*
X172006217Y-91760000D02*
X172006217Y-91908572D01*
X172006217Y-91908572D02*
X172049074Y-91982857D01*
X172049074Y-91982857D02*
X172134788Y-92057143D01*
X172134788Y-92057143D02*
X172306217Y-92094286D01*
X172306217Y-92094286D02*
X172606217Y-92094286D01*
X172606217Y-92094286D02*
X172777645Y-92057143D01*
X172777645Y-92057143D02*
X172863360Y-91982857D01*
X172863360Y-91982857D02*
X172906217Y-91908572D01*
X172906217Y-91908572D02*
X172906217Y-91760000D01*
X172906217Y-91760000D02*
X172863360Y-91685715D01*
X172863360Y-91685715D02*
X172777645Y-91611429D01*
X172777645Y-91611429D02*
X172606217Y-91574286D01*
X172606217Y-91574286D02*
X172306217Y-91574286D01*
X172306217Y-91574286D02*
X172134788Y-91611429D01*
X172134788Y-91611429D02*
X172049074Y-91685715D01*
X172049074Y-91685715D02*
X172006217Y-91760000D01*
X172906217Y-92428572D02*
X172006217Y-92428572D01*
X172006217Y-92428572D02*
X172649074Y-92688572D01*
X172649074Y-92688572D02*
X172006217Y-92948572D01*
X172006217Y-92948572D02*
X172906217Y-92948572D01*
X172434788Y-93320001D02*
X172434788Y-93580001D01*
X172906217Y-93691429D02*
X172906217Y-93320001D01*
X172906217Y-93320001D02*
X172006217Y-93320001D01*
X172006217Y-93320001D02*
X172006217Y-93691429D01*
X172006217Y-93914286D02*
X172006217Y-94360001D01*
X172906217Y-94137143D02*
X172006217Y-94137143D01*
X172434788Y-94620001D02*
X172434788Y-94880001D01*
X172906217Y-94991429D02*
X172906217Y-94620001D01*
X172906217Y-94620001D02*
X172006217Y-94620001D01*
X172006217Y-94620001D02*
X172006217Y-94991429D01*
X172906217Y-95771429D02*
X172477645Y-95511429D01*
X172906217Y-95325715D02*
X172006217Y-95325715D01*
X172006217Y-95325715D02*
X172006217Y-95622858D01*
X172006217Y-95622858D02*
X172049074Y-95697143D01*
X172049074Y-95697143D02*
X172091931Y-95734286D01*
X172091931Y-95734286D02*
X172177645Y-95771429D01*
X172177645Y-95771429D02*
X172306217Y-95771429D01*
X172306217Y-95771429D02*
X172391931Y-95734286D01*
X172391931Y-95734286D02*
X172434788Y-95697143D01*
X172434788Y-95697143D02*
X172477645Y-95622858D01*
X172477645Y-95622858D02*
X172477645Y-95325715D01*
X172863360Y-96068572D02*
X172906217Y-96180001D01*
X172906217Y-96180001D02*
X172906217Y-96365715D01*
X172906217Y-96365715D02*
X172863360Y-96440001D01*
X172863360Y-96440001D02*
X172820502Y-96477143D01*
X172820502Y-96477143D02*
X172734788Y-96514286D01*
X172734788Y-96514286D02*
X172649074Y-96514286D01*
X172649074Y-96514286D02*
X172563360Y-96477143D01*
X172563360Y-96477143D02*
X172520502Y-96440001D01*
X172520502Y-96440001D02*
X172477645Y-96365715D01*
X172477645Y-96365715D02*
X172434788Y-96217143D01*
X172434788Y-96217143D02*
X172391931Y-96142858D01*
X172391931Y-96142858D02*
X172349074Y-96105715D01*
X172349074Y-96105715D02*
X172263360Y-96068572D01*
X172263360Y-96068572D02*
X172177645Y-96068572D01*
X172177645Y-96068572D02*
X172091931Y-96105715D01*
X172091931Y-96105715D02*
X172049074Y-96142858D01*
X172049074Y-96142858D02*
X172006217Y-96217143D01*
X172006217Y-96217143D02*
X172006217Y-96402858D01*
X172006217Y-96402858D02*
X172049074Y-96514286D01*
X172820502Y-96848572D02*
X172863360Y-96885715D01*
X172863360Y-96885715D02*
X172906217Y-96848572D01*
X172906217Y-96848572D02*
X172863360Y-96811429D01*
X172863360Y-96811429D02*
X172820502Y-96848572D01*
X172820502Y-96848572D02*
X172906217Y-96848572D01*
X172434788Y-97220001D02*
X172434788Y-97480001D01*
X172906217Y-97591429D02*
X172906217Y-97220001D01*
X172906217Y-97220001D02*
X172006217Y-97220001D01*
X172006217Y-97220001D02*
X172006217Y-97591429D01*
X172006217Y-97925715D02*
X172734788Y-97925715D01*
X172734788Y-97925715D02*
X172820502Y-97962858D01*
X172820502Y-97962858D02*
X172863360Y-98000001D01*
X172863360Y-98000001D02*
X172906217Y-98074286D01*
X172906217Y-98074286D02*
X172906217Y-98222858D01*
X172906217Y-98222858D02*
X172863360Y-98297143D01*
X172863360Y-98297143D02*
X172820502Y-98334286D01*
X172820502Y-98334286D02*
X172734788Y-98371429D01*
X172734788Y-98371429D02*
X172006217Y-98371429D01*
D12*
%TO.P,P1,S1,SHIELD*%
%TO.N,GND*%
X129385000Y-84580000D03*
D13*
X125215000Y-84580000D03*
D12*
X129385000Y-93220000D03*
D13*
X125215000Y-93220000D03*
%TD*%
D14*
%TO.P,J1,*%
%TO.N,*%
X168050000Y-94470000D03*
X168050000Y-83040000D03*
D15*
%TO.P,J1,1*%
%TO.N,GND*%
X161700000Y-93200000D03*
D16*
%TO.P,J1,2*%
%TO.N,unconnected-(J1-Pad2)*%
X159160000Y-91930000D03*
%TO.P,J1,3*%
%TO.N,unconnected-(J1-Pad3)*%
X161700000Y-90660000D03*
%TO.P,J1,4*%
%TO.N,GND*%
X159160000Y-89390000D03*
%TO.P,J1,5*%
%TO.N,RXD*%
X161700000Y-88120000D03*
%TO.P,J1,6*%
%TO.N,TXD*%
X159160000Y-86850000D03*
%TO.P,J1,7*%
%TO.N,+12V*%
X161700000Y-85580000D03*
%TO.P,J1,8*%
X159160000Y-84310000D03*
%TD*%
D17*
%TO.N,GND*%
X145000000Y-81300000D03*
X139446000Y-89408000D03*
X142900000Y-91800000D03*
X147100000Y-81300000D03*
X132200000Y-87800000D03*
%TO.N,+5V*%
X131318000Y-86487000D03*
X131300000Y-90800000D03*
%TO.N,+3V3*%
X158623000Y-94107000D03*
X140208000Y-90551000D03*
%TO.N,/Di+*%
X141017844Y-83017844D03*
X142000000Y-81500000D03*
%TD*%
D18*
%TO.N,+5V*%
X131318000Y-86487000D02*
X131318000Y-90782000D01*
X131318000Y-90782000D02*
X131300000Y-90800000D01*
%TO.N,+3V3*%
X154378723Y-90551000D02*
X157934723Y-94107000D01*
X158623000Y-94107000D02*
X157934723Y-94107000D01*
X140208000Y-90551000D02*
X154378723Y-90551000D01*
D19*
%TO.N,/Di+*%
X141017844Y-82782156D02*
X142000000Y-81800000D01*
X141017844Y-83017844D02*
X141017844Y-82782156D01*
X142000000Y-81800000D02*
X142000000Y-81500000D01*
%TD*%
%TA.AperFunction,Conductor*%
%TO.N,GND*%
G36*
X171142121Y-79014002D02*
G01*
X171188614Y-79067658D01*
X171200000Y-79120000D01*
X171200000Y-98770000D01*
X171179998Y-98838121D01*
X171126342Y-98884614D01*
X171074000Y-98896000D01*
X151304137Y-98896000D01*
X123848310Y-98826282D01*
X123780240Y-98806107D01*
X123733884Y-98752333D01*
X123722630Y-98700290D01*
X123722478Y-93934392D01*
X123742478Y-93866273D01*
X123796132Y-93819778D01*
X123866406Y-93809672D01*
X123930987Y-93839163D01*
X123939801Y-93847580D01*
X124037768Y-93950640D01*
X124197681Y-94061943D01*
X124376732Y-94138780D01*
X124567582Y-94178000D01*
X124961000Y-94178000D01*
X124961000Y-93520000D01*
X125469000Y-93520000D01*
X125469000Y-94178000D01*
X125813588Y-94178000D01*
X125813590Y-94177999D01*
X125958837Y-94163229D01*
X126144741Y-94104901D01*
X126315101Y-94010345D01*
X126462928Y-93883438D01*
X126462934Y-93883432D01*
X126582194Y-93729359D01*
X126667998Y-93554436D01*
X126667999Y-93554435D01*
X126688826Y-93474000D01*
X127857479Y-93474000D01*
X127920465Y-93644070D01*
X127920466Y-93644072D01*
X128023528Y-93809420D01*
X128023529Y-93809421D01*
X128157771Y-93950642D01*
X128317681Y-94061943D01*
X128496732Y-94138780D01*
X128687582Y-94178000D01*
X129131000Y-94178000D01*
X129131000Y-93520000D01*
X129639000Y-93520000D01*
X129639000Y-94178000D01*
X130033588Y-94178000D01*
X130033590Y-94177999D01*
X130178837Y-94163229D01*
X130364741Y-94104901D01*
X130535101Y-94010345D01*
X130682928Y-93883438D01*
X130682934Y-93883432D01*
X130802194Y-93729359D01*
X130887998Y-93554436D01*
X130887999Y-93554435D01*
X130908826Y-93474000D01*
X130144651Y-93474000D01*
X130190610Y-93445543D01*
X130258201Y-93356038D01*
X130288895Y-93248160D01*
X130278546Y-93136479D01*
X130228552Y-93036078D01*
X130151682Y-92966000D01*
X130912520Y-92966000D01*
X130849534Y-92795929D01*
X130849533Y-92795927D01*
X130746471Y-92630579D01*
X130746470Y-92630578D01*
X130612228Y-92489357D01*
X130452318Y-92378056D01*
X130273267Y-92301219D01*
X130082418Y-92262000D01*
X129639000Y-92262000D01*
X129639000Y-92920000D01*
X129131000Y-92920000D01*
X129131000Y-92262000D01*
X128736409Y-92262000D01*
X128591162Y-92276770D01*
X128405258Y-92335098D01*
X128234898Y-92429654D01*
X128087071Y-92556561D01*
X128087065Y-92556567D01*
X127967805Y-92710640D01*
X127882001Y-92885563D01*
X127882000Y-92885564D01*
X127861174Y-92966000D01*
X128625349Y-92966000D01*
X128579390Y-92994457D01*
X128511799Y-93083962D01*
X128481105Y-93191840D01*
X128491454Y-93303521D01*
X128541448Y-93403922D01*
X128618318Y-93474000D01*
X127857479Y-93474000D01*
X126688826Y-93474000D01*
X125924651Y-93474000D01*
X125970610Y-93445543D01*
X126038201Y-93356038D01*
X126068895Y-93248160D01*
X126058546Y-93136479D01*
X126008552Y-93036078D01*
X125931682Y-92966000D01*
X126692520Y-92966000D01*
X126629534Y-92795929D01*
X126629533Y-92795927D01*
X126526471Y-92630579D01*
X126526470Y-92630578D01*
X126392228Y-92489357D01*
X126232318Y-92378056D01*
X126053267Y-92301219D01*
X125862418Y-92262000D01*
X125469000Y-92262000D01*
X125469000Y-92920000D01*
X124961000Y-92920000D01*
X124961000Y-92262000D01*
X124616409Y-92262000D01*
X124471162Y-92276770D01*
X124285258Y-92335098D01*
X124114898Y-92429654D01*
X123967071Y-92556561D01*
X123967062Y-92556571D01*
X123948067Y-92581110D01*
X123890553Y-92622734D01*
X123819664Y-92626655D01*
X123757909Y-92591629D01*
X123724894Y-92528776D01*
X123722432Y-92504002D01*
X123722377Y-90800002D01*
X130594355Y-90800002D01*
X130614859Y-90968871D01*
X130675179Y-91127925D01*
X130675181Y-91127929D01*
X130760477Y-91251500D01*
X130771817Y-91267929D01*
X130899148Y-91380734D01*
X131049775Y-91459790D01*
X131049776Y-91459790D01*
X131049778Y-91459791D01*
X131206461Y-91498409D01*
X131214944Y-91500500D01*
X131214947Y-91500500D01*
X131385053Y-91500500D01*
X131385056Y-91500500D01*
X131550225Y-91459790D01*
X131700852Y-91380734D01*
X131828183Y-91267929D01*
X131924818Y-91127930D01*
X131985140Y-90968872D01*
X132005645Y-90800000D01*
X132004820Y-90793209D01*
X131985140Y-90631128D01*
X131954753Y-90551002D01*
X139502355Y-90551002D01*
X139522859Y-90719871D01*
X139583179Y-90878925D01*
X139583181Y-90878929D01*
X139679816Y-91018928D01*
X139679818Y-91018930D01*
X139802848Y-91127925D01*
X139807148Y-91131734D01*
X139957775Y-91210790D01*
X139957776Y-91210790D01*
X139957778Y-91210791D01*
X140102443Y-91246447D01*
X140122944Y-91251500D01*
X140122947Y-91251500D01*
X140293053Y-91251500D01*
X140293056Y-91251500D01*
X140458225Y-91210790D01*
X140608852Y-91131734D01*
X140691868Y-91058188D01*
X140756121Y-91027987D01*
X140775422Y-91026500D01*
X154129574Y-91026500D01*
X154197695Y-91046502D01*
X154218669Y-91063405D01*
X157552759Y-94397494D01*
X157569661Y-94418467D01*
X157571666Y-94421587D01*
X157571667Y-94421588D01*
X157571668Y-94421589D01*
X157587065Y-94434930D01*
X157608818Y-94453779D01*
X157612098Y-94456833D01*
X157622543Y-94467278D01*
X157622544Y-94467279D01*
X157634365Y-94476129D01*
X157637863Y-94478948D01*
X157675003Y-94511129D01*
X157675005Y-94511130D01*
X157678368Y-94512666D01*
X157701535Y-94526411D01*
X157704496Y-94528627D01*
X157704498Y-94528629D01*
X157750527Y-94545797D01*
X157754678Y-94547516D01*
X157799381Y-94567931D01*
X157803037Y-94568456D01*
X157829148Y-94575120D01*
X157832608Y-94576411D01*
X157881617Y-94579915D01*
X157886058Y-94580392D01*
X157900712Y-94582500D01*
X157915488Y-94582500D01*
X157919984Y-94582661D01*
X157968991Y-94586166D01*
X157968991Y-94586165D01*
X157968993Y-94586166D01*
X157972606Y-94585379D01*
X157999391Y-94582500D01*
X158055578Y-94582500D01*
X158123699Y-94602502D01*
X158139131Y-94614188D01*
X158222148Y-94687734D01*
X158372775Y-94766790D01*
X158372776Y-94766790D01*
X158372778Y-94766791D01*
X158529461Y-94805409D01*
X158537944Y-94807500D01*
X158537947Y-94807500D01*
X158708053Y-94807500D01*
X158708056Y-94807500D01*
X158873225Y-94766790D01*
X159023852Y-94687734D01*
X159151183Y-94574929D01*
X159223608Y-94470004D01*
X165919533Y-94470004D01*
X165939374Y-94760085D01*
X165939375Y-94760091D01*
X165939376Y-94760099D01*
X165940767Y-94766791D01*
X165998534Y-95044786D01*
X165998536Y-95044794D01*
X166095915Y-95318789D01*
X166229681Y-95576944D01*
X166229684Y-95576949D01*
X166229688Y-95576956D01*
X166397373Y-95814512D01*
X166595843Y-96027022D01*
X166821402Y-96210527D01*
X167069847Y-96361610D01*
X167336550Y-96477456D01*
X167616544Y-96555906D01*
X167904598Y-96595499D01*
X167904612Y-96595500D01*
X168195388Y-96595500D01*
X168195401Y-96595499D01*
X168408871Y-96566157D01*
X168483456Y-96555906D01*
X168763450Y-96477456D01*
X169030153Y-96361610D01*
X169278598Y-96210527D01*
X169504157Y-96027022D01*
X169702627Y-95814512D01*
X169870312Y-95576956D01*
X169903390Y-95513117D01*
X170004084Y-95318789D01*
X170004085Y-95318784D01*
X170004088Y-95318780D01*
X170101464Y-95044793D01*
X170160624Y-94760099D01*
X170165574Y-94687729D01*
X170180467Y-94470004D01*
X170180467Y-94469995D01*
X170160625Y-94179914D01*
X170160624Y-94179908D01*
X170160624Y-94179901D01*
X170101464Y-93895207D01*
X170004088Y-93621220D01*
X170004086Y-93621217D01*
X170004084Y-93621210D01*
X169870318Y-93363055D01*
X169870316Y-93363052D01*
X169870312Y-93363044D01*
X169702627Y-93125488D01*
X169504157Y-92912978D01*
X169278598Y-92729473D01*
X169030153Y-92578390D01*
X169030149Y-92578388D01*
X169030147Y-92578387D01*
X168887553Y-92516450D01*
X168763450Y-92462544D01*
X168534228Y-92398319D01*
X168483453Y-92384093D01*
X168483455Y-92384093D01*
X168195401Y-92344500D01*
X168195388Y-92344500D01*
X167904612Y-92344500D01*
X167904598Y-92344500D01*
X167616545Y-92384093D01*
X167453937Y-92429654D01*
X167336550Y-92462544D01*
X167336547Y-92462545D01*
X167336548Y-92462545D01*
X167069852Y-92578387D01*
X167069847Y-92578389D01*
X167069847Y-92578390D01*
X166852372Y-92710640D01*
X166821399Y-92729475D01*
X166739716Y-92795929D01*
X166595843Y-92912978D01*
X166397373Y-93125488D01*
X166234634Y-93356038D01*
X166229689Y-93363043D01*
X166229681Y-93363055D01*
X166095915Y-93621210D01*
X165998536Y-93895205D01*
X165998534Y-93895213D01*
X165987016Y-93950642D01*
X165939772Y-94177999D01*
X165939375Y-94179908D01*
X165939374Y-94179914D01*
X165919533Y-94469995D01*
X165919533Y-94470004D01*
X159223608Y-94470004D01*
X159247818Y-94434930D01*
X159258382Y-94407076D01*
X159308140Y-94275871D01*
X159328645Y-94107002D01*
X159328645Y-94106997D01*
X159315482Y-93998597D01*
X160442000Y-93998597D01*
X160448505Y-94059093D01*
X160499555Y-94195964D01*
X160499555Y-94195965D01*
X160587095Y-94312904D01*
X160704034Y-94400444D01*
X160840906Y-94451494D01*
X160901402Y-94457999D01*
X160901415Y-94458000D01*
X161446000Y-94458000D01*
X161446000Y-93571462D01*
X161502547Y-93610016D01*
X161632173Y-93650000D01*
X161733724Y-93650000D01*
X161834138Y-93634865D01*
X161954000Y-93577142D01*
X161954000Y-94458000D01*
X162498585Y-94458000D01*
X162498597Y-94457999D01*
X162559093Y-94451494D01*
X162695964Y-94400444D01*
X162695965Y-94400444D01*
X162812904Y-94312904D01*
X162900444Y-94195965D01*
X162900444Y-94195964D01*
X162951494Y-94059093D01*
X162957999Y-93998597D01*
X162958000Y-93998585D01*
X162958000Y-93454000D01*
X162072968Y-93454000D01*
X162123625Y-93366260D01*
X162153810Y-93234008D01*
X162143673Y-93098735D01*
X162094113Y-92972459D01*
X162073013Y-92946000D01*
X162958000Y-92946000D01*
X162958000Y-92401414D01*
X162957999Y-92401402D01*
X162951494Y-92340906D01*
X162900444Y-92204035D01*
X162900444Y-92204034D01*
X162812904Y-92087095D01*
X162695965Y-91999555D01*
X162559093Y-91948505D01*
X162498597Y-91942000D01*
X161942095Y-91942000D01*
X161873974Y-91921998D01*
X161827481Y-91868342D01*
X161817377Y-91798068D01*
X161846871Y-91733488D01*
X161905520Y-91695425D01*
X161905931Y-91695300D01*
X161905934Y-91695300D01*
X162103954Y-91635232D01*
X162286450Y-91537685D01*
X162446410Y-91406410D01*
X162577685Y-91246450D01*
X162675232Y-91063954D01*
X162735300Y-90865934D01*
X162736380Y-90854974D01*
X162755583Y-90660003D01*
X162755583Y-90659996D01*
X162735301Y-90454072D01*
X162735300Y-90454070D01*
X162735300Y-90454066D01*
X162675232Y-90256046D01*
X162577685Y-90073550D01*
X162446410Y-89913590D01*
X162286450Y-89782315D01*
X162286448Y-89782314D01*
X162286447Y-89782313D01*
X162103954Y-89684768D01*
X161905927Y-89624698D01*
X161700003Y-89604417D01*
X161699997Y-89604417D01*
X161494072Y-89624698D01*
X161296045Y-89684768D01*
X161113552Y-89782313D01*
X160953590Y-89913590D01*
X160822313Y-90073552D01*
X160724768Y-90256045D01*
X160664698Y-90454072D01*
X160644417Y-90659996D01*
X160644417Y-90660003D01*
X160664698Y-90865927D01*
X160724768Y-91063954D01*
X160803254Y-91210791D01*
X160822315Y-91246450D01*
X160953590Y-91406410D01*
X161113550Y-91537685D01*
X161296046Y-91635232D01*
X161494066Y-91695300D01*
X161494068Y-91695300D01*
X161494480Y-91695425D01*
X161553862Y-91734340D01*
X161582777Y-91799181D01*
X161572047Y-91869362D01*
X161525078Y-91922601D01*
X161457905Y-91942000D01*
X160901402Y-91942000D01*
X160840906Y-91948505D01*
X160704035Y-91999555D01*
X160704034Y-91999555D01*
X160587095Y-92087095D01*
X160499555Y-92204034D01*
X160499555Y-92204035D01*
X160448505Y-92340906D01*
X160442000Y-92401402D01*
X160442000Y-92946000D01*
X161327032Y-92946000D01*
X161276375Y-93033740D01*
X161246190Y-93165992D01*
X161256327Y-93301265D01*
X161305887Y-93427541D01*
X161326987Y-93454000D01*
X160442000Y-93454000D01*
X160442000Y-93998597D01*
X159315482Y-93998597D01*
X159308140Y-93938128D01*
X159247820Y-93779074D01*
X159247818Y-93779070D01*
X159151183Y-93639071D01*
X159151181Y-93639069D01*
X159023857Y-93526270D01*
X159023851Y-93526265D01*
X158873225Y-93447210D01*
X158873221Y-93447208D01*
X158708059Y-93406500D01*
X158708056Y-93406500D01*
X158537944Y-93406500D01*
X158537940Y-93406500D01*
X158372778Y-93447208D01*
X158372774Y-93447210D01*
X158222147Y-93526266D01*
X158207155Y-93539548D01*
X158142901Y-93569747D01*
X158072521Y-93560413D01*
X158034509Y-93534328D01*
X156430184Y-91930003D01*
X154760684Y-90260502D01*
X154743779Y-90239524D01*
X154741779Y-90236412D01*
X154726381Y-90223070D01*
X154704632Y-90204224D01*
X154701352Y-90201170D01*
X154690903Y-90190721D01*
X154679073Y-90181865D01*
X154675574Y-90179045D01*
X154638444Y-90146871D01*
X154638440Y-90146869D01*
X154635076Y-90145333D01*
X154611913Y-90131590D01*
X154608949Y-90129371D01*
X154608948Y-90129370D01*
X154580580Y-90118790D01*
X154562903Y-90112197D01*
X154558757Y-90110479D01*
X154514070Y-90090070D01*
X154514063Y-90090068D01*
X154510388Y-90089540D01*
X154484313Y-90082884D01*
X154480844Y-90081590D01*
X154480834Y-90081588D01*
X154431821Y-90078081D01*
X154427354Y-90077601D01*
X154418338Y-90076305D01*
X154412734Y-90075500D01*
X154412732Y-90075500D01*
X154397968Y-90075500D01*
X154393472Y-90075339D01*
X154344453Y-90071833D01*
X154344449Y-90071833D01*
X154340833Y-90072620D01*
X154314049Y-90075500D01*
X140775422Y-90075500D01*
X140707301Y-90055498D01*
X140691869Y-90043812D01*
X140608857Y-89970270D01*
X140608851Y-89970265D01*
X140458225Y-89891210D01*
X140458221Y-89891208D01*
X140293059Y-89850500D01*
X140293056Y-89850500D01*
X140122944Y-89850500D01*
X140122940Y-89850500D01*
X139957778Y-89891208D01*
X139957774Y-89891210D01*
X139807148Y-89970265D01*
X139807142Y-89970270D01*
X139679818Y-90083069D01*
X139679816Y-90083071D01*
X139583181Y-90223070D01*
X139583179Y-90223074D01*
X139522859Y-90382128D01*
X139502355Y-90550997D01*
X139502355Y-90551002D01*
X131954753Y-90551002D01*
X131924820Y-90472074D01*
X131924818Y-90472070D01*
X131828183Y-90332071D01*
X131825185Y-90328687D01*
X131794986Y-90264433D01*
X131793500Y-90245136D01*
X131793500Y-89389999D01*
X157897195Y-89389999D01*
X157916380Y-89609287D01*
X157973350Y-89821903D01*
X157973352Y-89821907D01*
X158066378Y-90021402D01*
X158108801Y-90081986D01*
X158715155Y-89475632D01*
X158716327Y-89491265D01*
X158765887Y-89617541D01*
X158850465Y-89723599D01*
X158962547Y-89800016D01*
X159074622Y-89834586D01*
X158468012Y-90441196D01*
X158468012Y-90441197D01*
X158528600Y-90483622D01*
X158728092Y-90576647D01*
X158728096Y-90576649D01*
X158940714Y-90633619D01*
X158940711Y-90633619D01*
X159001720Y-90638956D01*
X159067839Y-90664819D01*
X159109479Y-90722322D01*
X159113420Y-90793209D01*
X159078412Y-90854974D01*
X159015568Y-90888007D01*
X159003092Y-90889870D01*
X158954072Y-90894698D01*
X158756045Y-90954768D01*
X158573552Y-91052313D01*
X158413590Y-91183590D01*
X158282313Y-91343552D01*
X158184768Y-91526045D01*
X158124698Y-91724072D01*
X158104417Y-91929996D01*
X158104417Y-91930003D01*
X158124698Y-92135927D01*
X158124699Y-92135933D01*
X158124700Y-92135934D01*
X158184768Y-92333954D01*
X158282315Y-92516450D01*
X158413590Y-92676410D01*
X158573550Y-92807685D01*
X158756046Y-92905232D01*
X158954066Y-92965300D01*
X158954070Y-92965300D01*
X158954072Y-92965301D01*
X159159997Y-92985583D01*
X159160000Y-92985583D01*
X159160003Y-92985583D01*
X159365927Y-92965301D01*
X159365928Y-92965300D01*
X159365934Y-92965300D01*
X159563954Y-92905232D01*
X159746450Y-92807685D01*
X159906410Y-92676410D01*
X160037685Y-92516450D01*
X160135232Y-92333954D01*
X160195300Y-92135934D01*
X160200111Y-92087095D01*
X160215583Y-91930003D01*
X160215583Y-91929996D01*
X160195301Y-91724072D01*
X160195300Y-91724070D01*
X160195300Y-91724066D01*
X160135232Y-91526046D01*
X160037685Y-91343550D01*
X159906410Y-91183590D01*
X159746450Y-91052315D01*
X159746448Y-91052314D01*
X159746447Y-91052313D01*
X159563954Y-90954768D01*
X159365927Y-90894698D01*
X159316907Y-90889870D01*
X159251075Y-90863286D01*
X159210066Y-90805332D01*
X159206900Y-90734406D01*
X159242582Y-90673027D01*
X159305783Y-90640683D01*
X159318279Y-90638956D01*
X159379287Y-90633619D01*
X159591903Y-90576649D01*
X159591912Y-90576645D01*
X159791405Y-90483619D01*
X159791412Y-90483615D01*
X159851986Y-90441198D01*
X159851986Y-90441197D01*
X159243315Y-89832525D01*
X159294138Y-89824865D01*
X159416357Y-89766007D01*
X159515798Y-89673740D01*
X159583625Y-89556260D01*
X159602550Y-89473339D01*
X160211197Y-90081986D01*
X160211198Y-90081986D01*
X160253615Y-90021412D01*
X160253619Y-90021405D01*
X160346645Y-89821912D01*
X160346649Y-89821903D01*
X160403619Y-89609287D01*
X160422804Y-89390000D01*
X160403619Y-89170712D01*
X160346649Y-88958096D01*
X160346647Y-88958092D01*
X160253621Y-88758598D01*
X160211198Y-88698012D01*
X160211196Y-88698012D01*
X159604844Y-89304364D01*
X159603673Y-89288735D01*
X159554113Y-89162459D01*
X159469535Y-89056401D01*
X159357453Y-88979984D01*
X159245375Y-88945413D01*
X159851986Y-88338801D01*
X159851986Y-88338800D01*
X159791401Y-88296378D01*
X159791402Y-88296378D01*
X159591907Y-88203352D01*
X159591903Y-88203350D01*
X159379287Y-88146380D01*
X159318277Y-88141043D01*
X159264491Y-88120003D01*
X160644417Y-88120003D01*
X160664698Y-88325927D01*
X160724768Y-88523954D01*
X160817804Y-88698012D01*
X160822315Y-88706450D01*
X160953590Y-88866410D01*
X161113550Y-88997685D01*
X161296046Y-89095232D01*
X161494066Y-89155300D01*
X161494070Y-89155300D01*
X161494072Y-89155301D01*
X161699997Y-89175583D01*
X161700000Y-89175583D01*
X161700003Y-89175583D01*
X161905927Y-89155301D01*
X161905928Y-89155300D01*
X161905934Y-89155300D01*
X162103954Y-89095232D01*
X162286450Y-88997685D01*
X162446410Y-88866410D01*
X162577685Y-88706450D01*
X162675232Y-88523954D01*
X162735300Y-88325934D01*
X162747374Y-88203352D01*
X162755583Y-88120003D01*
X162755583Y-88119996D01*
X162735301Y-87914072D01*
X162735300Y-87914070D01*
X162735300Y-87914066D01*
X162675232Y-87716046D01*
X162577685Y-87533550D01*
X162446410Y-87373590D01*
X162286450Y-87242315D01*
X162286448Y-87242314D01*
X162286447Y-87242313D01*
X162103954Y-87144768D01*
X161905927Y-87084698D01*
X161700003Y-87064417D01*
X161699997Y-87064417D01*
X161494072Y-87084698D01*
X161296045Y-87144768D01*
X161113552Y-87242313D01*
X160953590Y-87373590D01*
X160822313Y-87533552D01*
X160724768Y-87716045D01*
X160664698Y-87914072D01*
X160644417Y-88119996D01*
X160644417Y-88120003D01*
X159264491Y-88120003D01*
X159252159Y-88115179D01*
X159210519Y-88057676D01*
X159206579Y-87986788D01*
X159241589Y-87925024D01*
X159304433Y-87891992D01*
X159316909Y-87890129D01*
X159365927Y-87885301D01*
X159365928Y-87885300D01*
X159365934Y-87885300D01*
X159563954Y-87825232D01*
X159746450Y-87727685D01*
X159906410Y-87596410D01*
X160037685Y-87436450D01*
X160135232Y-87253954D01*
X160195300Y-87055934D01*
X160200652Y-87001601D01*
X160215583Y-86850003D01*
X160215583Y-86849996D01*
X160195301Y-86644072D01*
X160195300Y-86644070D01*
X160195300Y-86644066D01*
X160135232Y-86446046D01*
X160037685Y-86263550D01*
X159906410Y-86103590D01*
X159746450Y-85972315D01*
X159746448Y-85972314D01*
X159746447Y-85972313D01*
X159563954Y-85874768D01*
X159365927Y-85814698D01*
X159160003Y-85794417D01*
X159159997Y-85794417D01*
X158954072Y-85814698D01*
X158756045Y-85874768D01*
X158573552Y-85972313D01*
X158413590Y-86103590D01*
X158282313Y-86263552D01*
X158184768Y-86446045D01*
X158124698Y-86644072D01*
X158104417Y-86849996D01*
X158104417Y-86850003D01*
X158124698Y-87055927D01*
X158124699Y-87055933D01*
X158124700Y-87055934D01*
X158184768Y-87253954D01*
X158282315Y-87436450D01*
X158413590Y-87596410D01*
X158573550Y-87727685D01*
X158756046Y-87825232D01*
X158954066Y-87885300D01*
X158954070Y-87885300D01*
X158954072Y-87885301D01*
X159003090Y-87890129D01*
X159068922Y-87916711D01*
X159109932Y-87974666D01*
X159113099Y-88045591D01*
X159077419Y-88106971D01*
X159014218Y-88139315D01*
X159001722Y-88141042D01*
X158940721Y-88146379D01*
X158940714Y-88146380D01*
X158728096Y-88203350D01*
X158728092Y-88203352D01*
X158528598Y-88296378D01*
X158468011Y-88338801D01*
X159076684Y-88947474D01*
X159025862Y-88955135D01*
X158903643Y-89013993D01*
X158804202Y-89106260D01*
X158736375Y-89223740D01*
X158717449Y-89306659D01*
X158108801Y-88698011D01*
X158066378Y-88758598D01*
X157973352Y-88958092D01*
X157973350Y-88958096D01*
X157916380Y-89170712D01*
X157897195Y-89389999D01*
X131793500Y-89389999D01*
X131793500Y-87058309D01*
X131813502Y-86990188D01*
X131835949Y-86963995D01*
X131846183Y-86954929D01*
X131942818Y-86814930D01*
X132003140Y-86655872D01*
X132023645Y-86487000D01*
X132020085Y-86457685D01*
X132003140Y-86318128D01*
X131942820Y-86159074D01*
X131942818Y-86159070D01*
X131846183Y-86019071D01*
X131846181Y-86019069D01*
X131718857Y-85906270D01*
X131718851Y-85906265D01*
X131568225Y-85827210D01*
X131568221Y-85827208D01*
X131403059Y-85786500D01*
X131403056Y-85786500D01*
X131232944Y-85786500D01*
X131232940Y-85786500D01*
X131067778Y-85827208D01*
X131067774Y-85827210D01*
X130917148Y-85906265D01*
X130917142Y-85906270D01*
X130789818Y-86019069D01*
X130789816Y-86019071D01*
X130693181Y-86159070D01*
X130693179Y-86159074D01*
X130632859Y-86318128D01*
X130612355Y-86486997D01*
X130612355Y-86487002D01*
X130632859Y-86655871D01*
X130693179Y-86814925D01*
X130693181Y-86814929D01*
X130789816Y-86954927D01*
X130789817Y-86954929D01*
X130800051Y-86963995D01*
X130837778Y-87024138D01*
X130842500Y-87058309D01*
X130842500Y-90212743D01*
X130822498Y-90280864D01*
X130800055Y-90307054D01*
X130771816Y-90332072D01*
X130675181Y-90472070D01*
X130675179Y-90472074D01*
X130614859Y-90631128D01*
X130594355Y-90799997D01*
X130594355Y-90800002D01*
X123722377Y-90800002D01*
X123722210Y-85580003D01*
X160644417Y-85580003D01*
X160664698Y-85785927D01*
X160724768Y-85983954D01*
X160743537Y-86019069D01*
X160822315Y-86166450D01*
X160953590Y-86326410D01*
X161113550Y-86457685D01*
X161296046Y-86555232D01*
X161494066Y-86615300D01*
X161494070Y-86615300D01*
X161494072Y-86615301D01*
X161699997Y-86635583D01*
X161700000Y-86635583D01*
X161700003Y-86635583D01*
X161905927Y-86615301D01*
X161905928Y-86615300D01*
X161905934Y-86615300D01*
X162103954Y-86555232D01*
X162286450Y-86457685D01*
X162446410Y-86326410D01*
X162577685Y-86166450D01*
X162675232Y-85983954D01*
X162735300Y-85785934D01*
X162755583Y-85580000D01*
X162755583Y-85579996D01*
X162735301Y-85374072D01*
X162735300Y-85374070D01*
X162735300Y-85374066D01*
X162675232Y-85176046D01*
X162577685Y-84993550D01*
X162446410Y-84833590D01*
X162286450Y-84702315D01*
X162286448Y-84702314D01*
X162286447Y-84702313D01*
X162103954Y-84604768D01*
X162078405Y-84597018D01*
X161905934Y-84544700D01*
X161905933Y-84544699D01*
X161905927Y-84544698D01*
X161700003Y-84524417D01*
X161699997Y-84524417D01*
X161494072Y-84544698D01*
X161296045Y-84604768D01*
X161113552Y-84702313D01*
X160953590Y-84833590D01*
X160822313Y-84993552D01*
X160724768Y-85176045D01*
X160664698Y-85374072D01*
X160644417Y-85579996D01*
X160644417Y-85580003D01*
X123722210Y-85580003D01*
X123722201Y-85294099D01*
X123742201Y-85225981D01*
X123795855Y-85179486D01*
X123866129Y-85169380D01*
X123930710Y-85198871D01*
X123939525Y-85207288D01*
X124037771Y-85310642D01*
X124197681Y-85421943D01*
X124376732Y-85498780D01*
X124567582Y-85538000D01*
X124961000Y-85538000D01*
X124961000Y-84880000D01*
X125469000Y-84880000D01*
X125469000Y-85538000D01*
X125813588Y-85538000D01*
X125813590Y-85537999D01*
X125958837Y-85523229D01*
X126144741Y-85464901D01*
X126315101Y-85370345D01*
X126462928Y-85243438D01*
X126462934Y-85243432D01*
X126582194Y-85089359D01*
X126667998Y-84914436D01*
X126667999Y-84914435D01*
X126688826Y-84834000D01*
X127857479Y-84834000D01*
X127920465Y-85004070D01*
X127920466Y-85004072D01*
X128023528Y-85169420D01*
X128023529Y-85169421D01*
X128157771Y-85310642D01*
X128317681Y-85421943D01*
X128496732Y-85498780D01*
X128687582Y-85538000D01*
X129131000Y-85538000D01*
X129131000Y-84880000D01*
X129639000Y-84880000D01*
X129639000Y-85538000D01*
X130033588Y-85538000D01*
X130033590Y-85537999D01*
X130178837Y-85523229D01*
X130364741Y-85464901D01*
X130535101Y-85370345D01*
X130682928Y-85243438D01*
X130682934Y-85243432D01*
X130802194Y-85089359D01*
X130887998Y-84914436D01*
X130887999Y-84914435D01*
X130908826Y-84834000D01*
X130144651Y-84834000D01*
X130190610Y-84805543D01*
X130258201Y-84716038D01*
X130288895Y-84608160D01*
X130278546Y-84496479D01*
X130228552Y-84396078D01*
X130151682Y-84326000D01*
X130912520Y-84326000D01*
X130906595Y-84310003D01*
X158104417Y-84310003D01*
X158124698Y-84515927D01*
X158124699Y-84515933D01*
X158124700Y-84515934D01*
X158181237Y-84702313D01*
X158184768Y-84713954D01*
X158251865Y-84839484D01*
X158282315Y-84896450D01*
X158413590Y-85056410D01*
X158573550Y-85187685D01*
X158756046Y-85285232D01*
X158954066Y-85345300D01*
X158954070Y-85345300D01*
X158954072Y-85345301D01*
X159159997Y-85365583D01*
X159160000Y-85365583D01*
X159160003Y-85365583D01*
X159365927Y-85345301D01*
X159365928Y-85345300D01*
X159365934Y-85345300D01*
X159563954Y-85285232D01*
X159746450Y-85187685D01*
X159906410Y-85056410D01*
X160037685Y-84896450D01*
X160135232Y-84713954D01*
X160195300Y-84515934D01*
X160208245Y-84384511D01*
X160215583Y-84310003D01*
X160215583Y-84309996D01*
X160195301Y-84104072D01*
X160195300Y-84104070D01*
X160195300Y-84104066D01*
X160135232Y-83906046D01*
X160037685Y-83723550D01*
X159906410Y-83563590D01*
X159746450Y-83432315D01*
X159746448Y-83432314D01*
X159746447Y-83432313D01*
X159563954Y-83334768D01*
X159365927Y-83274698D01*
X159160003Y-83254417D01*
X159159997Y-83254417D01*
X158954072Y-83274698D01*
X158756045Y-83334768D01*
X158573552Y-83432313D01*
X158413590Y-83563590D01*
X158282313Y-83723552D01*
X158184768Y-83906045D01*
X158124698Y-84104072D01*
X158104417Y-84309996D01*
X158104417Y-84310003D01*
X130906595Y-84310003D01*
X130849534Y-84155929D01*
X130849533Y-84155927D01*
X130746471Y-83990579D01*
X130746470Y-83990578D01*
X130612228Y-83849357D01*
X130452318Y-83738056D01*
X130273267Y-83661219D01*
X130082418Y-83622000D01*
X129639000Y-83622000D01*
X129639000Y-84280000D01*
X129131000Y-84280000D01*
X129131000Y-83622000D01*
X128736409Y-83622000D01*
X128591162Y-83636770D01*
X128405258Y-83695098D01*
X128234898Y-83789654D01*
X128087071Y-83916561D01*
X128087065Y-83916567D01*
X127967805Y-84070640D01*
X127882001Y-84245563D01*
X127882000Y-84245564D01*
X127861174Y-84326000D01*
X128625349Y-84326000D01*
X128579390Y-84354457D01*
X128511799Y-84443962D01*
X128481105Y-84551840D01*
X128491454Y-84663521D01*
X128541448Y-84763922D01*
X128618318Y-84834000D01*
X127857479Y-84834000D01*
X126688826Y-84834000D01*
X125924651Y-84834000D01*
X125970610Y-84805543D01*
X126038201Y-84716038D01*
X126068895Y-84608160D01*
X126058546Y-84496479D01*
X126008552Y-84396078D01*
X125931682Y-84326000D01*
X126692520Y-84326000D01*
X126629534Y-84155929D01*
X126629533Y-84155927D01*
X126526471Y-83990579D01*
X126526470Y-83990578D01*
X126392228Y-83849357D01*
X126232318Y-83738056D01*
X126053267Y-83661219D01*
X125862418Y-83622000D01*
X125469000Y-83622000D01*
X125469000Y-84280000D01*
X124961000Y-84280000D01*
X124961000Y-83622000D01*
X124616409Y-83622000D01*
X124471162Y-83636770D01*
X124285258Y-83695098D01*
X124114898Y-83789654D01*
X123967071Y-83916561D01*
X123967065Y-83916567D01*
X123947791Y-83941467D01*
X123890276Y-83983090D01*
X123819387Y-83987011D01*
X123757633Y-83951984D01*
X123724618Y-83889131D01*
X123722155Y-83864352D01*
X123722128Y-83017846D01*
X140312199Y-83017846D01*
X140332703Y-83186715D01*
X140393023Y-83345769D01*
X140393025Y-83345773D01*
X140489660Y-83485772D01*
X140489662Y-83485774D01*
X140577498Y-83563590D01*
X140616992Y-83598578D01*
X140767619Y-83677634D01*
X140767620Y-83677634D01*
X140767622Y-83677635D01*
X140838474Y-83695098D01*
X140932788Y-83718344D01*
X140932791Y-83718344D01*
X141102897Y-83718344D01*
X141102900Y-83718344D01*
X141268069Y-83677634D01*
X141418696Y-83598578D01*
X141546027Y-83485773D01*
X141642662Y-83345774D01*
X141702984Y-83186716D01*
X141720799Y-83040004D01*
X165919533Y-83040004D01*
X165939374Y-83330085D01*
X165939375Y-83330091D01*
X165939376Y-83330099D01*
X165960617Y-83432315D01*
X165998534Y-83614786D01*
X165998536Y-83614794D01*
X166095915Y-83888789D01*
X166229681Y-84146944D01*
X166229684Y-84146949D01*
X166229688Y-84146956D01*
X166397373Y-84384512D01*
X166595843Y-84597022D01*
X166821402Y-84780527D01*
X167069847Y-84931610D01*
X167336550Y-85047456D01*
X167616544Y-85125906D01*
X167904598Y-85165499D01*
X167904612Y-85165500D01*
X168195388Y-85165500D01*
X168195401Y-85165499D01*
X168408871Y-85136157D01*
X168483456Y-85125906D01*
X168763450Y-85047456D01*
X169030153Y-84931610D01*
X169278598Y-84780527D01*
X169504157Y-84597022D01*
X169702627Y-84384512D01*
X169870312Y-84146956D01*
X169955221Y-83983090D01*
X170004084Y-83888789D01*
X170004085Y-83888784D01*
X170004088Y-83888780D01*
X170101464Y-83614793D01*
X170160624Y-83330099D01*
X170164413Y-83274700D01*
X170180467Y-83040004D01*
X170180467Y-83039995D01*
X170160625Y-82749914D01*
X170160624Y-82749908D01*
X170160624Y-82749901D01*
X170101464Y-82465207D01*
X170004088Y-82191220D01*
X170004086Y-82191217D01*
X170004084Y-82191210D01*
X169870318Y-81933055D01*
X169870316Y-81933052D01*
X169870312Y-81933044D01*
X169702627Y-81695488D01*
X169504157Y-81482978D01*
X169278598Y-81299473D01*
X169030153Y-81148390D01*
X169030149Y-81148388D01*
X169030147Y-81148387D01*
X168920678Y-81100838D01*
X168763450Y-81032544D01*
X168534228Y-80968319D01*
X168483453Y-80954093D01*
X168483455Y-80954093D01*
X168195401Y-80914500D01*
X168195388Y-80914500D01*
X167904612Y-80914500D01*
X167904598Y-80914500D01*
X167616545Y-80954093D01*
X167442715Y-81002798D01*
X167336550Y-81032544D01*
X167336547Y-81032545D01*
X167336548Y-81032545D01*
X167069852Y-81148387D01*
X166821399Y-81299475D01*
X166595848Y-81482974D01*
X166595840Y-81482981D01*
X166579944Y-81500002D01*
X166397373Y-81695488D01*
X166247618Y-81907644D01*
X166229689Y-81933043D01*
X166229681Y-81933055D01*
X166095915Y-82191210D01*
X165998536Y-82465205D01*
X165998534Y-82465213D01*
X165961642Y-82642749D01*
X165951842Y-82689914D01*
X165939375Y-82749908D01*
X165939374Y-82749914D01*
X165919533Y-83039995D01*
X165919533Y-83040004D01*
X141720799Y-83040004D01*
X141720799Y-83040000D01*
X141723489Y-83017846D01*
X141723489Y-83017841D01*
X141702984Y-82848974D01*
X141702984Y-82848972D01*
X141680846Y-82790600D01*
X141675393Y-82719816D01*
X141709075Y-82657318D01*
X141709345Y-82657046D01*
X142167495Y-82198895D01*
X142226440Y-82165652D01*
X142250217Y-82159792D01*
X142250217Y-82159791D01*
X142250225Y-82159790D01*
X142400852Y-82080734D01*
X142528183Y-81967929D01*
X142624818Y-81827930D01*
X142685140Y-81668872D01*
X142705645Y-81500000D01*
X142703578Y-81482981D01*
X142685140Y-81331128D01*
X142624820Y-81172074D01*
X142624818Y-81172070D01*
X142528183Y-81032071D01*
X142528181Y-81032069D01*
X142400857Y-80919270D01*
X142400851Y-80919265D01*
X142250225Y-80840210D01*
X142250221Y-80840208D01*
X142085059Y-80799500D01*
X142085056Y-80799500D01*
X141914944Y-80799500D01*
X141914940Y-80799500D01*
X141749778Y-80840208D01*
X141749774Y-80840210D01*
X141599148Y-80919265D01*
X141599142Y-80919270D01*
X141471818Y-81032069D01*
X141471816Y-81032071D01*
X141375181Y-81172070D01*
X141375179Y-81172074D01*
X141314859Y-81331128D01*
X141294355Y-81499997D01*
X141294355Y-81500002D01*
X141314859Y-81668871D01*
X141354679Y-81773869D01*
X141360133Y-81844656D01*
X141326450Y-81907154D01*
X141325962Y-81907644D01*
X140935696Y-82297910D01*
X140876755Y-82331154D01*
X140767621Y-82358053D01*
X140767618Y-82358054D01*
X140616992Y-82437109D01*
X140616986Y-82437114D01*
X140489662Y-82549913D01*
X140489660Y-82549915D01*
X140393025Y-82689914D01*
X140393023Y-82689918D01*
X140332703Y-82848972D01*
X140312199Y-83017841D01*
X140312199Y-83017846D01*
X123722128Y-83017846D01*
X123722004Y-79120003D01*
X123742004Y-79051883D01*
X123795658Y-79005388D01*
X123848004Y-78994000D01*
X171074000Y-78994000D01*
X171142121Y-79014002D01*
G37*
%TD.AperFunction*%
%TD*%
M02*
