%TF.GenerationSoftware,KiCad,Pcbnew,7.0.7-7.0.7~ubuntu23.04.1*%
%TF.CreationDate,2023-08-16T01:14:45+00:00*%
%TF.ProjectId,USBMOUNT01,5553424d-4f55-44e5-9430-312e6b696361,rev?*%
%TF.SameCoordinates,Original*%
%TF.FileFunction,Copper,L1,Top*%
%TF.FilePolarity,Positive*%
%FSLAX46Y46*%
G04 Gerber Fmt 4.6, Leading zero omitted, Abs format (unit mm)*
G04 Created by KiCad (PCBNEW 7.0.7-7.0.7~ubuntu23.04.1) date 2023-08-16 01:14:45*
%MOMM*%
%LPD*%
G01*
G04 APERTURE LIST*
G04 Aperture macros list*
%AMRoundRect*
0 Rectangle with rounded corners*
0 $1 Rounding radius*
0 $2 $3 $4 $5 $6 $7 $8 $9 X,Y pos of 4 corners*
0 Add a 4 corners polygon primitive as box body*
4,1,4,$2,$3,$4,$5,$6,$7,$8,$9,$2,$3,0*
0 Add four circle primitives for the rounded corners*
1,1,$1+$1,$2,$3*
1,1,$1+$1,$4,$5*
1,1,$1+$1,$6,$7*
1,1,$1+$1,$8,$9*
0 Add four rect primitives between the rounded corners*
20,1,$1+$1,$2,$3,$4,$5,0*
20,1,$1+$1,$4,$5,$6,$7,0*
20,1,$1+$1,$6,$7,$8,$9,0*
20,1,$1+$1,$8,$9,$2,$3,0*%
%AMFreePoly0*
4,1,19,0.550000,-0.750000,0.000000,-0.750000,0.000000,-0.744911,-0.071157,-0.744911,-0.207708,-0.704816,-0.327430,-0.627875,-0.420627,-0.520320,-0.479746,-0.390866,-0.500000,-0.250000,-0.500000,0.250000,-0.479746,0.390866,-0.420627,0.520320,-0.327430,0.627875,-0.207708,0.704816,-0.071157,0.744911,0.000000,0.744911,0.000000,0.750000,0.550000,0.750000,0.550000,-0.750000,0.550000,-0.750000,
$1*%
%AMFreePoly1*
4,1,19,0.000000,0.744911,0.071157,0.744911,0.207708,0.704816,0.327430,0.627875,0.420627,0.520320,0.479746,0.390866,0.500000,0.250000,0.500000,-0.250000,0.479746,-0.390866,0.420627,-0.520320,0.327430,-0.627875,0.207708,-0.704816,0.071157,-0.744911,0.000000,-0.744911,0.000000,-0.750000,-0.550000,-0.750000,-0.550000,0.750000,0.000000,0.750000,0.000000,0.744911,0.000000,0.744911,
$1*%
G04 Aperture macros list end*
%ADD10C,0.200000*%
%TA.AperFunction,NonConductor*%
%ADD11C,0.200000*%
%TD*%
%TA.AperFunction,SMDPad,CuDef*%
%ADD12RoundRect,0.250000X-0.475000X0.337500X-0.475000X-0.337500X0.475000X-0.337500X0.475000X0.337500X0*%
%TD*%
%TA.AperFunction,SMDPad,CuDef*%
%ADD13RoundRect,0.250000X0.350000X0.450000X-0.350000X0.450000X-0.350000X-0.450000X0.350000X-0.450000X0*%
%TD*%
%TA.AperFunction,SMDPad,CuDef*%
%ADD14R,1.750000X0.450000*%
%TD*%
%TA.AperFunction,SMDPad,CuDef*%
%ADD15RoundRect,0.190000X-0.285000X-0.685000X0.285000X-0.685000X0.285000X0.685000X-0.285000X0.685000X0*%
%TD*%
%TA.AperFunction,SMDPad,CuDef*%
%ADD16RoundRect,0.150000X0.512500X0.150000X-0.512500X0.150000X-0.512500X-0.150000X0.512500X-0.150000X0*%
%TD*%
%TA.AperFunction,SMDPad,CuDef*%
%ADD17RoundRect,0.250000X-0.350000X-0.450000X0.350000X-0.450000X0.350000X0.450000X-0.350000X0.450000X0*%
%TD*%
%TA.AperFunction,SMDPad,CuDef*%
%ADD18R,1.160000X0.600000*%
%TD*%
%TA.AperFunction,SMDPad,CuDef*%
%ADD19R,1.160000X0.300000*%
%TD*%
%TA.AperFunction,ComponentPad*%
%ADD20O,2.100000X0.900000*%
%TD*%
%TA.AperFunction,ComponentPad*%
%ADD21O,2.000000X0.900000*%
%TD*%
%TA.AperFunction,SMDPad,CuDef*%
%ADD22FreePoly0,0.000000*%
%TD*%
%TA.AperFunction,SMDPad,CuDef*%
%ADD23R,1.000000X1.500000*%
%TD*%
%TA.AperFunction,SMDPad,CuDef*%
%ADD24FreePoly1,0.000000*%
%TD*%
%TA.AperFunction,SMDPad,CuDef*%
%ADD25RoundRect,0.250000X0.450000X-0.350000X0.450000X0.350000X-0.450000X0.350000X-0.450000X-0.350000X0*%
%TD*%
%TA.AperFunction,WasherPad*%
%ADD26C,3.650000*%
%TD*%
%TA.AperFunction,ComponentPad*%
%ADD27R,1.500000X1.500000*%
%TD*%
%TA.AperFunction,ComponentPad*%
%ADD28C,1.500000*%
%TD*%
%TA.AperFunction,SMDPad,CuDef*%
%ADD29RoundRect,0.250000X0.337500X0.475000X-0.337500X0.475000X-0.337500X-0.475000X0.337500X-0.475000X0*%
%TD*%
%TA.AperFunction,ViaPad*%
%ADD30C,0.800000*%
%TD*%
%TA.AperFunction,Conductor*%
%ADD31C,0.350000*%
%TD*%
%TA.AperFunction,Conductor*%
%ADD32C,0.300000*%
%TD*%
%TA.AperFunction,Conductor*%
%ADD33C,0.200000*%
%TD*%
G04 APERTURE END LIST*
D10*
D11*
X158535714Y-79535552D02*
X158726190Y-80202219D01*
X158726190Y-80202219D02*
X158916666Y-79726028D01*
X158916666Y-79726028D02*
X159107142Y-80202219D01*
X159107142Y-80202219D02*
X159297618Y-79535552D01*
X159583333Y-79535552D02*
X159773809Y-80202219D01*
X159773809Y-80202219D02*
X159964285Y-79726028D01*
X159964285Y-79726028D02*
X160154761Y-80202219D01*
X160154761Y-80202219D02*
X160345237Y-79535552D01*
X160630952Y-79535552D02*
X160821428Y-80202219D01*
X160821428Y-80202219D02*
X161011904Y-79726028D01*
X161011904Y-79726028D02*
X161202380Y-80202219D01*
X161202380Y-80202219D02*
X161392856Y-79535552D01*
X161773809Y-80106980D02*
X161821428Y-80154600D01*
X161821428Y-80154600D02*
X161773809Y-80202219D01*
X161773809Y-80202219D02*
X161726190Y-80154600D01*
X161726190Y-80154600D02*
X161773809Y-80106980D01*
X161773809Y-80106980D02*
X161773809Y-80202219D01*
X162678570Y-80202219D02*
X162678570Y-79678409D01*
X162678570Y-79678409D02*
X162630951Y-79583171D01*
X162630951Y-79583171D02*
X162535713Y-79535552D01*
X162535713Y-79535552D02*
X162345237Y-79535552D01*
X162345237Y-79535552D02*
X162249999Y-79583171D01*
X162678570Y-80154600D02*
X162583332Y-80202219D01*
X162583332Y-80202219D02*
X162345237Y-80202219D01*
X162345237Y-80202219D02*
X162249999Y-80154600D01*
X162249999Y-80154600D02*
X162202380Y-80059361D01*
X162202380Y-80059361D02*
X162202380Y-79964123D01*
X162202380Y-79964123D02*
X162249999Y-79868885D01*
X162249999Y-79868885D02*
X162345237Y-79821266D01*
X162345237Y-79821266D02*
X162583332Y-79821266D01*
X162583332Y-79821266D02*
X162678570Y-79773647D01*
X163107142Y-80154600D02*
X163202380Y-80202219D01*
X163202380Y-80202219D02*
X163392856Y-80202219D01*
X163392856Y-80202219D02*
X163488094Y-80154600D01*
X163488094Y-80154600D02*
X163535713Y-80059361D01*
X163535713Y-80059361D02*
X163535713Y-80011742D01*
X163535713Y-80011742D02*
X163488094Y-79916504D01*
X163488094Y-79916504D02*
X163392856Y-79868885D01*
X163392856Y-79868885D02*
X163249999Y-79868885D01*
X163249999Y-79868885D02*
X163154761Y-79821266D01*
X163154761Y-79821266D02*
X163107142Y-79726028D01*
X163107142Y-79726028D02*
X163107142Y-79678409D01*
X163107142Y-79678409D02*
X163154761Y-79583171D01*
X163154761Y-79583171D02*
X163249999Y-79535552D01*
X163249999Y-79535552D02*
X163392856Y-79535552D01*
X163392856Y-79535552D02*
X163488094Y-79583171D01*
X163821428Y-79535552D02*
X164202380Y-79535552D01*
X163964285Y-79202219D02*
X163964285Y-80059361D01*
X163964285Y-80059361D02*
X164011904Y-80154600D01*
X164011904Y-80154600D02*
X164107142Y-80202219D01*
X164107142Y-80202219D02*
X164202380Y-80202219D01*
X164535714Y-80202219D02*
X164535714Y-79535552D01*
X164535714Y-79726028D02*
X164583333Y-79630790D01*
X164583333Y-79630790D02*
X164630952Y-79583171D01*
X164630952Y-79583171D02*
X164726190Y-79535552D01*
X164726190Y-79535552D02*
X164821428Y-79535552D01*
X165297619Y-80202219D02*
X165202381Y-80154600D01*
X165202381Y-80154600D02*
X165154762Y-80106980D01*
X165154762Y-80106980D02*
X165107143Y-80011742D01*
X165107143Y-80011742D02*
X165107143Y-79726028D01*
X165107143Y-79726028D02*
X165154762Y-79630790D01*
X165154762Y-79630790D02*
X165202381Y-79583171D01*
X165202381Y-79583171D02*
X165297619Y-79535552D01*
X165297619Y-79535552D02*
X165440476Y-79535552D01*
X165440476Y-79535552D02*
X165535714Y-79583171D01*
X165535714Y-79583171D02*
X165583333Y-79630790D01*
X165583333Y-79630790D02*
X165630952Y-79726028D01*
X165630952Y-79726028D02*
X165630952Y-80011742D01*
X165630952Y-80011742D02*
X165583333Y-80106980D01*
X165583333Y-80106980D02*
X165535714Y-80154600D01*
X165535714Y-80154600D02*
X165440476Y-80202219D01*
X165440476Y-80202219D02*
X165297619Y-80202219D01*
X166059524Y-80202219D02*
X166059524Y-79535552D01*
X166059524Y-79630790D02*
X166107143Y-79583171D01*
X166107143Y-79583171D02*
X166202381Y-79535552D01*
X166202381Y-79535552D02*
X166345238Y-79535552D01*
X166345238Y-79535552D02*
X166440476Y-79583171D01*
X166440476Y-79583171D02*
X166488095Y-79678409D01*
X166488095Y-79678409D02*
X166488095Y-80202219D01*
X166488095Y-79678409D02*
X166535714Y-79583171D01*
X166535714Y-79583171D02*
X166630952Y-79535552D01*
X166630952Y-79535552D02*
X166773809Y-79535552D01*
X166773809Y-79535552D02*
X166869048Y-79583171D01*
X166869048Y-79583171D02*
X166916667Y-79678409D01*
X166916667Y-79678409D02*
X166916667Y-80202219D01*
X167773809Y-80154600D02*
X167678571Y-80202219D01*
X167678571Y-80202219D02*
X167488095Y-80202219D01*
X167488095Y-80202219D02*
X167392857Y-80154600D01*
X167392857Y-80154600D02*
X167345238Y-80059361D01*
X167345238Y-80059361D02*
X167345238Y-79678409D01*
X167345238Y-79678409D02*
X167392857Y-79583171D01*
X167392857Y-79583171D02*
X167488095Y-79535552D01*
X167488095Y-79535552D02*
X167678571Y-79535552D01*
X167678571Y-79535552D02*
X167773809Y-79583171D01*
X167773809Y-79583171D02*
X167821428Y-79678409D01*
X167821428Y-79678409D02*
X167821428Y-79773647D01*
X167821428Y-79773647D02*
X167345238Y-79868885D01*
X168107143Y-79535552D02*
X168488095Y-79535552D01*
X168250000Y-79202219D02*
X168250000Y-80059361D01*
X168250000Y-80059361D02*
X168297619Y-80154600D01*
X168297619Y-80154600D02*
X168392857Y-80202219D01*
X168392857Y-80202219D02*
X168488095Y-80202219D01*
X169202381Y-80154600D02*
X169107143Y-80202219D01*
X169107143Y-80202219D02*
X168916667Y-80202219D01*
X168916667Y-80202219D02*
X168821429Y-80154600D01*
X168821429Y-80154600D02*
X168773810Y-80059361D01*
X168773810Y-80059361D02*
X168773810Y-79678409D01*
X168773810Y-79678409D02*
X168821429Y-79583171D01*
X168821429Y-79583171D02*
X168916667Y-79535552D01*
X168916667Y-79535552D02*
X169107143Y-79535552D01*
X169107143Y-79535552D02*
X169202381Y-79583171D01*
X169202381Y-79583171D02*
X169250000Y-79678409D01*
X169250000Y-79678409D02*
X169250000Y-79773647D01*
X169250000Y-79773647D02*
X168773810Y-79868885D01*
X169678572Y-80202219D02*
X169678572Y-79535552D01*
X169678572Y-79726028D02*
X169726191Y-79630790D01*
X169726191Y-79630790D02*
X169773810Y-79583171D01*
X169773810Y-79583171D02*
X169869048Y-79535552D01*
X169869048Y-79535552D02*
X169964286Y-79535552D01*
X170250001Y-80154600D02*
X170345239Y-80202219D01*
X170345239Y-80202219D02*
X170535715Y-80202219D01*
X170535715Y-80202219D02*
X170630953Y-80154600D01*
X170630953Y-80154600D02*
X170678572Y-80059361D01*
X170678572Y-80059361D02*
X170678572Y-80011742D01*
X170678572Y-80011742D02*
X170630953Y-79916504D01*
X170630953Y-79916504D02*
X170535715Y-79868885D01*
X170535715Y-79868885D02*
X170392858Y-79868885D01*
X170392858Y-79868885D02*
X170297620Y-79821266D01*
X170297620Y-79821266D02*
X170250001Y-79726028D01*
X170250001Y-79726028D02*
X170250001Y-79678409D01*
X170250001Y-79678409D02*
X170297620Y-79583171D01*
X170297620Y-79583171D02*
X170392858Y-79535552D01*
X170392858Y-79535552D02*
X170535715Y-79535552D01*
X170535715Y-79535552D02*
X170630953Y-79583171D01*
X171107144Y-80106980D02*
X171154763Y-80154600D01*
X171154763Y-80154600D02*
X171107144Y-80202219D01*
X171107144Y-80202219D02*
X171059525Y-80154600D01*
X171059525Y-80154600D02*
X171107144Y-80106980D01*
X171107144Y-80106980D02*
X171107144Y-80202219D01*
X171964286Y-80154600D02*
X171869048Y-80202219D01*
X171869048Y-80202219D02*
X171678572Y-80202219D01*
X171678572Y-80202219D02*
X171583334Y-80154600D01*
X171583334Y-80154600D02*
X171535715Y-80059361D01*
X171535715Y-80059361D02*
X171535715Y-79678409D01*
X171535715Y-79678409D02*
X171583334Y-79583171D01*
X171583334Y-79583171D02*
X171678572Y-79535552D01*
X171678572Y-79535552D02*
X171869048Y-79535552D01*
X171869048Y-79535552D02*
X171964286Y-79583171D01*
X171964286Y-79583171D02*
X172011905Y-79678409D01*
X172011905Y-79678409D02*
X172011905Y-79773647D01*
X172011905Y-79773647D02*
X171535715Y-79868885D01*
X172869048Y-79535552D02*
X172869048Y-80202219D01*
X172440477Y-79535552D02*
X172440477Y-80059361D01*
X172440477Y-80059361D02*
X172488096Y-80154600D01*
X172488096Y-80154600D02*
X172583334Y-80202219D01*
X172583334Y-80202219D02*
X172726191Y-80202219D01*
X172726191Y-80202219D02*
X172821429Y-80154600D01*
X172821429Y-80154600D02*
X172869048Y-80106980D01*
D10*
D11*
X162333333Y-97202219D02*
X162333333Y-98011742D01*
X162333333Y-98011742D02*
X162380952Y-98106980D01*
X162380952Y-98106980D02*
X162428571Y-98154600D01*
X162428571Y-98154600D02*
X162523809Y-98202219D01*
X162523809Y-98202219D02*
X162714285Y-98202219D01*
X162714285Y-98202219D02*
X162809523Y-98154600D01*
X162809523Y-98154600D02*
X162857142Y-98106980D01*
X162857142Y-98106980D02*
X162904761Y-98011742D01*
X162904761Y-98011742D02*
X162904761Y-97202219D01*
X163333333Y-98154600D02*
X163476190Y-98202219D01*
X163476190Y-98202219D02*
X163714285Y-98202219D01*
X163714285Y-98202219D02*
X163809523Y-98154600D01*
X163809523Y-98154600D02*
X163857142Y-98106980D01*
X163857142Y-98106980D02*
X163904761Y-98011742D01*
X163904761Y-98011742D02*
X163904761Y-97916504D01*
X163904761Y-97916504D02*
X163857142Y-97821266D01*
X163857142Y-97821266D02*
X163809523Y-97773647D01*
X163809523Y-97773647D02*
X163714285Y-97726028D01*
X163714285Y-97726028D02*
X163523809Y-97678409D01*
X163523809Y-97678409D02*
X163428571Y-97630790D01*
X163428571Y-97630790D02*
X163380952Y-97583171D01*
X163380952Y-97583171D02*
X163333333Y-97487933D01*
X163333333Y-97487933D02*
X163333333Y-97392695D01*
X163333333Y-97392695D02*
X163380952Y-97297457D01*
X163380952Y-97297457D02*
X163428571Y-97249838D01*
X163428571Y-97249838D02*
X163523809Y-97202219D01*
X163523809Y-97202219D02*
X163761904Y-97202219D01*
X163761904Y-97202219D02*
X163904761Y-97249838D01*
X164666666Y-97678409D02*
X164809523Y-97726028D01*
X164809523Y-97726028D02*
X164857142Y-97773647D01*
X164857142Y-97773647D02*
X164904761Y-97868885D01*
X164904761Y-97868885D02*
X164904761Y-98011742D01*
X164904761Y-98011742D02*
X164857142Y-98106980D01*
X164857142Y-98106980D02*
X164809523Y-98154600D01*
X164809523Y-98154600D02*
X164714285Y-98202219D01*
X164714285Y-98202219D02*
X164333333Y-98202219D01*
X164333333Y-98202219D02*
X164333333Y-97202219D01*
X164333333Y-97202219D02*
X164666666Y-97202219D01*
X164666666Y-97202219D02*
X164761904Y-97249838D01*
X164761904Y-97249838D02*
X164809523Y-97297457D01*
X164809523Y-97297457D02*
X164857142Y-97392695D01*
X164857142Y-97392695D02*
X164857142Y-97487933D01*
X164857142Y-97487933D02*
X164809523Y-97583171D01*
X164809523Y-97583171D02*
X164761904Y-97630790D01*
X164761904Y-97630790D02*
X164666666Y-97678409D01*
X164666666Y-97678409D02*
X164333333Y-97678409D01*
X165333333Y-98202219D02*
X165333333Y-97202219D01*
X165333333Y-97202219D02*
X165666666Y-97916504D01*
X165666666Y-97916504D02*
X165999999Y-97202219D01*
X165999999Y-97202219D02*
X165999999Y-98202219D01*
X166666666Y-97202219D02*
X166857142Y-97202219D01*
X166857142Y-97202219D02*
X166952380Y-97249838D01*
X166952380Y-97249838D02*
X167047618Y-97345076D01*
X167047618Y-97345076D02*
X167095237Y-97535552D01*
X167095237Y-97535552D02*
X167095237Y-97868885D01*
X167095237Y-97868885D02*
X167047618Y-98059361D01*
X167047618Y-98059361D02*
X166952380Y-98154600D01*
X166952380Y-98154600D02*
X166857142Y-98202219D01*
X166857142Y-98202219D02*
X166666666Y-98202219D01*
X166666666Y-98202219D02*
X166571428Y-98154600D01*
X166571428Y-98154600D02*
X166476190Y-98059361D01*
X166476190Y-98059361D02*
X166428571Y-97868885D01*
X166428571Y-97868885D02*
X166428571Y-97535552D01*
X166428571Y-97535552D02*
X166476190Y-97345076D01*
X166476190Y-97345076D02*
X166571428Y-97249838D01*
X166571428Y-97249838D02*
X166666666Y-97202219D01*
X167523809Y-97202219D02*
X167523809Y-98011742D01*
X167523809Y-98011742D02*
X167571428Y-98106980D01*
X167571428Y-98106980D02*
X167619047Y-98154600D01*
X167619047Y-98154600D02*
X167714285Y-98202219D01*
X167714285Y-98202219D02*
X167904761Y-98202219D01*
X167904761Y-98202219D02*
X167999999Y-98154600D01*
X167999999Y-98154600D02*
X168047618Y-98106980D01*
X168047618Y-98106980D02*
X168095237Y-98011742D01*
X168095237Y-98011742D02*
X168095237Y-97202219D01*
X168571428Y-98202219D02*
X168571428Y-97202219D01*
X168571428Y-97202219D02*
X169142856Y-98202219D01*
X169142856Y-98202219D02*
X169142856Y-97202219D01*
X169476190Y-97202219D02*
X170047618Y-97202219D01*
X169761904Y-98202219D02*
X169761904Y-97202219D01*
X170571428Y-97202219D02*
X170666666Y-97202219D01*
X170666666Y-97202219D02*
X170761904Y-97249838D01*
X170761904Y-97249838D02*
X170809523Y-97297457D01*
X170809523Y-97297457D02*
X170857142Y-97392695D01*
X170857142Y-97392695D02*
X170904761Y-97583171D01*
X170904761Y-97583171D02*
X170904761Y-97821266D01*
X170904761Y-97821266D02*
X170857142Y-98011742D01*
X170857142Y-98011742D02*
X170809523Y-98106980D01*
X170809523Y-98106980D02*
X170761904Y-98154600D01*
X170761904Y-98154600D02*
X170666666Y-98202219D01*
X170666666Y-98202219D02*
X170571428Y-98202219D01*
X170571428Y-98202219D02*
X170476190Y-98154600D01*
X170476190Y-98154600D02*
X170428571Y-98106980D01*
X170428571Y-98106980D02*
X170380952Y-98011742D01*
X170380952Y-98011742D02*
X170333333Y-97821266D01*
X170333333Y-97821266D02*
X170333333Y-97583171D01*
X170333333Y-97583171D02*
X170380952Y-97392695D01*
X170380952Y-97392695D02*
X170428571Y-97297457D01*
X170428571Y-97297457D02*
X170476190Y-97249838D01*
X170476190Y-97249838D02*
X170571428Y-97202219D01*
X171857142Y-98202219D02*
X171285714Y-98202219D01*
X171571428Y-98202219D02*
X171571428Y-97202219D01*
X171571428Y-97202219D02*
X171476190Y-97345076D01*
X171476190Y-97345076D02*
X171380952Y-97440314D01*
X171380952Y-97440314D02*
X171285714Y-97487933D01*
X172238095Y-97916504D02*
X172714285Y-97916504D01*
X172142857Y-98202219D02*
X172476190Y-97202219D01*
X172476190Y-97202219D02*
X172809523Y-98202219D01*
%TA.AperFunction,EtchedComponent*%
%TO.C,JP1*%
G36*
X153200000Y-96400000D02*
G01*
X152700000Y-96400000D01*
X152700000Y-95800000D01*
X153200000Y-95800000D01*
X153200000Y-96400000D01*
G37*
%TD.AperFunction*%
%TD*%
D12*
%TO.P,C2,1*%
%TO.N,+5V*%
X137414000Y-81364000D03*
%TO.P,C2,2*%
%TO.N,GND*%
X137414000Y-83439000D03*
%TD*%
D13*
%TO.P,R5,1*%
%TO.N,+12V*%
X156100000Y-84450000D03*
%TO.P,R5,2*%
%TO.N,Net-(D4-A)*%
X154100000Y-84450000D03*
%TD*%
D14*
%TO.P,U1,1,TXD*%
%TO.N,TXD*%
X150600000Y-90050000D03*
%TO.P,U1,2,DTR*%
%TO.N,unconnected-(U1-DTR-Pad2)*%
X150600000Y-89400000D03*
%TO.P,U1,3,RTS*%
%TO.N,unconnected-(U1-RTS-Pad3)*%
X150600000Y-88750000D03*
%TO.P,U1,4,VCCIO*%
%TO.N,Net-(JP1-C)*%
X150600000Y-88100000D03*
%TO.P,U1,5,RXD*%
%TO.N,RXD*%
X150600000Y-87450000D03*
%TO.P,U1,6,RI*%
%TO.N,unconnected-(U1-RI-Pad6)*%
X150600000Y-86800000D03*
%TO.P,U1,7,GND*%
%TO.N,GND*%
X150600000Y-86150000D03*
%TO.P,U1,8*%
%TO.N,N/C*%
X150600000Y-85500000D03*
%TO.P,U1,9,DCR*%
%TO.N,unconnected-(U1-DCR-Pad9)*%
X150600000Y-84850000D03*
%TO.P,U1,10,DCD*%
%TO.N,unconnected-(U1-DCD-Pad10)*%
X150600000Y-84200000D03*
%TO.P,U1,11,CTS*%
%TO.N,unconnected-(U1-CTS-Pad11)*%
X150600000Y-83550000D03*
%TO.P,U1,12,CBUS4*%
%TO.N,unconnected-(U1-CBUS4-Pad12)*%
X150600000Y-82900000D03*
%TO.P,U1,13,CBUS2*%
%TO.N,unconnected-(U1-CBUS2-Pad13)*%
X150600000Y-82250000D03*
%TO.P,U1,14,CBUS3*%
%TO.N,unconnected-(U1-CBUS3-Pad14)*%
X150600000Y-81600000D03*
%TO.P,U1,15,USBD+*%
%TO.N,/Di+*%
X143400000Y-81600000D03*
%TO.P,U1,16,USBD-*%
%TO.N,/Di-*%
X143400000Y-82250000D03*
%TO.P,U1,17,3V3OUT*%
%TO.N,+3V3*%
X143400000Y-82900000D03*
%TO.P,U1,18,GND*%
%TO.N,GND*%
X143400000Y-83550000D03*
%TO.P,U1,19,~{RESET}*%
%TO.N,unconnected-(U1-~{RESET}-Pad19)*%
X143400000Y-84200000D03*
%TO.P,U1,20,VCC*%
%TO.N,+5V*%
X143400000Y-84850000D03*
%TO.P,U1,21,GND*%
%TO.N,GND*%
X143400000Y-85500000D03*
%TO.P,U1,22,CBUS1*%
%TO.N,/LED_RX*%
X143400000Y-86150000D03*
%TO.P,U1,23,CBUS0*%
%TO.N,/LED_TX*%
X143400000Y-86800000D03*
%TO.P,U1,24*%
%TO.N,N/C*%
X143400000Y-87450000D03*
%TO.P,U1,25,AGND*%
%TO.N,GND*%
X143400000Y-88100000D03*
%TO.P,U1,26,TEST*%
X143400000Y-88750000D03*
%TO.P,U1,27,OSCI*%
%TO.N,unconnected-(U1-OSCI-Pad27)*%
X143400000Y-89400000D03*
%TO.P,U1,28,OSCO*%
%TO.N,unconnected-(U1-OSCO-Pad28)*%
X143400000Y-90050000D03*
%TD*%
D15*
%TO.P,D1,1,K*%
%TO.N,GND*%
X126650000Y-81500000D03*
%TO.P,D1,2,A*%
%TO.N,Net-(D1-A)*%
X129750000Y-81500000D03*
%TD*%
D16*
%TO.P,U2,1,I/O1*%
%TO.N,/Di+*%
X137075000Y-89535000D03*
%TO.P,U2,2,GND*%
%TO.N,GND*%
X137075000Y-88585000D03*
%TO.P,U2,3,I/O2*%
%TO.N,/Di-*%
X137075000Y-87635000D03*
%TO.P,U2,4,I/O2*%
%TO.N,/D-*%
X134800000Y-87635000D03*
%TO.P,U2,5,VBUS*%
%TO.N,+5V*%
X134800000Y-88585000D03*
%TO.P,U2,6,I/O1*%
%TO.N,/D+*%
X134800000Y-89535000D03*
%TD*%
D15*
%TO.P,D2,1,K*%
%TO.N,/LED_RX*%
X142600000Y-96600000D03*
%TO.P,D2,2,A*%
%TO.N,Net-(D2-A)*%
X145700000Y-96600000D03*
%TD*%
D13*
%TO.P,R4,1*%
%TO.N,+5V*%
X149900000Y-93500000D03*
%TO.P,R4,2*%
%TO.N,Net-(D3-A)*%
X147900000Y-93500000D03*
%TD*%
D12*
%TO.P,C1,1*%
%TO.N,+5V*%
X134795500Y-81364000D03*
%TO.P,C1,2*%
%TO.N,GND*%
X134795500Y-83439000D03*
%TD*%
D17*
%TO.P,R7,1*%
%TO.N,Net-(P1-CC2)*%
X131985000Y-96520000D03*
%TO.P,R7,2*%
%TO.N,GND*%
X133985000Y-96520000D03*
%TD*%
D18*
%TO.P,P1,A1,GND*%
%TO.N,GND*%
X129965000Y-85700000D03*
%TO.P,P1,A4,VBUS*%
%TO.N,+5V*%
X129965000Y-86500000D03*
D19*
%TO.P,P1,A5,CC1*%
%TO.N,Net-(P1-CC1)*%
X129965000Y-87650000D03*
%TO.P,P1,A6,D+*%
%TO.N,/D+*%
X129965000Y-88650000D03*
%TO.P,P1,A7,D-*%
%TO.N,/D-*%
X129965000Y-89150000D03*
%TO.P,P1,A8,SBU1*%
%TO.N,unconnected-(P1-SBU1-PadA8)*%
X129965000Y-90150000D03*
D18*
%TO.P,P1,A9,VBUS*%
%TO.N,+5V*%
X129965000Y-91300000D03*
%TO.P,P1,A12,GND*%
%TO.N,GND*%
X129965000Y-92100000D03*
%TO.P,P1,B1,GND*%
X129965000Y-92100000D03*
%TO.P,P1,B4,VBUS*%
%TO.N,+5V*%
X129965000Y-91300000D03*
D19*
%TO.P,P1,B5,CC2*%
%TO.N,Net-(P1-CC2)*%
X129965000Y-90650000D03*
%TO.P,P1,B6,D+*%
%TO.N,/D+*%
X129965000Y-89650000D03*
%TO.P,P1,B7,D-*%
%TO.N,/D-*%
X129965000Y-88150000D03*
%TO.P,P1,B8,SBU2*%
%TO.N,unconnected-(P1-SBU2-PadB8)*%
X129965000Y-87150000D03*
D18*
%TO.P,P1,B9,VBUS*%
%TO.N,+5V*%
X129965000Y-86500000D03*
%TO.P,P1,B12,GND*%
%TO.N,GND*%
X129965000Y-85700000D03*
D20*
%TO.P,P1,S1,SHIELD*%
X129385000Y-84580000D03*
D21*
X125215000Y-84580000D03*
D20*
X129385000Y-93220000D03*
D21*
X125215000Y-93220000D03*
%TD*%
D13*
%TO.P,R6,1*%
%TO.N,Net-(P1-CC1)*%
X129921000Y-96520000D03*
%TO.P,R6,2*%
%TO.N,GND*%
X127921000Y-96520000D03*
%TD*%
D22*
%TO.P,JP1,1,A*%
%TO.N,+5V*%
X152300000Y-96100000D03*
D23*
%TO.P,JP1,2,C*%
%TO.N,Net-(JP1-C)*%
X153600000Y-96100000D03*
D24*
%TO.P,JP1,3,B*%
%TO.N,+3V3*%
X154900000Y-96100000D03*
%TD*%
D25*
%TO.P,R1,1*%
%TO.N,+5V*%
X132207000Y-83401500D03*
%TO.P,R1,2*%
%TO.N,Net-(D1-A)*%
X132207000Y-81401500D03*
%TD*%
D13*
%TO.P,R3,1*%
%TO.N,+5V*%
X149900000Y-96400000D03*
%TO.P,R3,2*%
%TO.N,Net-(D2-A)*%
X147900000Y-96400000D03*
%TD*%
D15*
%TO.P,D4,1,K*%
%TO.N,GND*%
X153150000Y-81500000D03*
%TO.P,D4,2,A*%
%TO.N,Net-(D4-A)*%
X156250000Y-81500000D03*
%TD*%
D26*
%TO.P,J1,*%
%TO.N,*%
X168050000Y-94470000D03*
X168050000Y-83040000D03*
D27*
%TO.P,J1,1*%
%TO.N,GND*%
X161700000Y-93200000D03*
D28*
%TO.P,J1,2*%
%TO.N,unconnected-(J1-Pad2)*%
X159160000Y-91930000D03*
%TO.P,J1,3*%
%TO.N,unconnected-(J1-Pad3)*%
X161700000Y-90660000D03*
%TO.P,J1,4*%
%TO.N,GND*%
X159160000Y-89390000D03*
%TO.P,J1,5*%
%TO.N,RXD*%
X161700000Y-88120000D03*
%TO.P,J1,6*%
%TO.N,TXD*%
X159160000Y-86850000D03*
%TO.P,J1,7*%
%TO.N,+12V*%
X161700000Y-85580000D03*
%TO.P,J1,8*%
X159160000Y-84310000D03*
%TD*%
D15*
%TO.P,D3,1,K*%
%TO.N,/LED_TX*%
X142600000Y-93500000D03*
%TO.P,D3,2,A*%
%TO.N,Net-(D3-A)*%
X145700000Y-93500000D03*
%TD*%
D29*
%TO.P,C3,1*%
%TO.N,+3V3*%
X136975000Y-92456000D03*
%TO.P,C3,2*%
%TO.N,GND*%
X134900000Y-92456000D03*
%TD*%
D30*
%TO.N,GND*%
X145000000Y-81300000D03*
X139446000Y-89408000D03*
X142900000Y-91800000D03*
X147100000Y-81300000D03*
X132200000Y-87800000D03*
%TO.N,+5V*%
X131318000Y-86487000D03*
X131300000Y-90800000D03*
%TO.N,+3V3*%
X158623000Y-94107000D03*
X140208000Y-90551000D03*
%TO.N,/Di+*%
X141017844Y-83017844D03*
X142000000Y-81500000D03*
%TD*%
D31*
%TO.N,GND*%
X136412500Y-88585000D02*
X135890000Y-88062500D01*
X137075000Y-88585000D02*
X136412500Y-88585000D01*
D32*
%TO.N,Net-(D1-A)*%
X129938000Y-81500000D02*
X131992500Y-81500000D01*
%TO.N,/D+*%
X129965000Y-89650000D02*
X134710000Y-89650000D01*
X129965000Y-89640000D02*
X129975000Y-89650000D01*
X129185000Y-89640000D02*
X129965000Y-89640000D01*
X129185000Y-88640000D02*
X129000000Y-88825000D01*
X129965000Y-88640000D02*
X129185000Y-88640000D01*
X134710000Y-89650000D02*
X134825000Y-89535000D01*
X129000000Y-89455000D02*
X129185000Y-89640000D01*
X129000000Y-88825000D02*
X129000000Y-89455000D01*
%TO.N,/D-*%
X131000000Y-88700000D02*
X131000000Y-88400000D01*
X134034000Y-87635000D02*
X132969000Y-88700000D01*
X134800000Y-87635000D02*
X134034000Y-87635000D01*
X129965000Y-89140000D02*
X130860000Y-89140000D01*
X131000000Y-89000000D02*
X131000000Y-88700000D01*
X130860000Y-89140000D02*
X131000000Y-89000000D01*
X131000000Y-88400000D02*
X130740000Y-88140000D01*
X132969000Y-88700000D02*
X131000000Y-88700000D01*
X130740000Y-88140000D02*
X129965000Y-88140000D01*
%TO.N,Net-(D2-A)*%
X147700000Y-96400000D02*
X145750000Y-96400000D01*
%TO.N,Net-(D3-A)*%
X145700000Y-93500000D02*
X147700000Y-93500000D01*
%TO.N,Net-(D4-A)*%
X154100000Y-84450000D02*
X156250000Y-82300000D01*
X156250000Y-82300000D02*
X156250000Y-81500000D01*
%TO.N,Net-(JP1-C)*%
X153600000Y-95100000D02*
X153600000Y-96100000D01*
X149100000Y-90600000D02*
X153600000Y-95100000D01*
X150600000Y-88100000D02*
X149565880Y-88100000D01*
X149565880Y-88100000D02*
X149100000Y-88565880D01*
X149100000Y-88565880D02*
X149100000Y-90600000D01*
%TO.N,Net-(P1-CC1)*%
X129965000Y-87640000D02*
X129110000Y-87640000D01*
X128400000Y-90200000D02*
X127100000Y-91500000D01*
X129110000Y-87640000D02*
X128400000Y-88350000D01*
X127100000Y-91500000D02*
X127100000Y-93800000D01*
X129820000Y-96520000D02*
X129921000Y-96520000D01*
X128400000Y-88350000D02*
X128400000Y-90200000D01*
X127100000Y-93800000D02*
X129820000Y-96520000D01*
D31*
%TO.N,+12V*%
X160457500Y-84337500D02*
X156237500Y-84337500D01*
X161663000Y-85543000D02*
X160457500Y-84337500D01*
D32*
%TO.N,RXD*%
X158397011Y-85802989D02*
X158600000Y-85600000D01*
X159800000Y-85600000D02*
X161700000Y-87500000D01*
X156750000Y-87450000D02*
X158397011Y-85802989D01*
X158600000Y-85600000D02*
X159800000Y-85600000D01*
X150600000Y-87450000D02*
X156750000Y-87450000D01*
X161700000Y-87500000D02*
X161700000Y-88120000D01*
%TO.N,TXD*%
X157860000Y-88150000D02*
X153450000Y-88150000D01*
X159160000Y-86850000D02*
X157860000Y-88150000D01*
X151550000Y-90050000D02*
X150600000Y-90050000D01*
X153450000Y-88150000D02*
X151550000Y-90050000D01*
D31*
%TO.N,+5V*%
X145288000Y-80010000D02*
X146100000Y-80822000D01*
X149900000Y-96400000D02*
X149900000Y-93500000D01*
X138768000Y-80010000D02*
X145288000Y-80010000D01*
X149700000Y-92500000D02*
X146100000Y-88900000D01*
X146100000Y-88900000D02*
X146100000Y-84800000D01*
X131318000Y-84058000D02*
X131953000Y-83423000D01*
X135600000Y-90300000D02*
X136000000Y-89900000D01*
X129965000Y-86490000D02*
X130679000Y-86490000D01*
X130669000Y-86500000D02*
X131499000Y-86500000D01*
X152300000Y-96100000D02*
X150000000Y-96100000D01*
X146100000Y-80822000D02*
X146100000Y-84800000D01*
X135572500Y-88585000D02*
X134800000Y-88585000D01*
X132604000Y-83423000D02*
X134747000Y-81280000D01*
X131300000Y-90800000D02*
X131800000Y-90300000D01*
X130682000Y-86487000D02*
X130669000Y-86500000D01*
X136000000Y-89012500D02*
X135572500Y-88585000D01*
X137160000Y-81153000D02*
X134874000Y-81153000D01*
X131318000Y-86487000D02*
X131318000Y-84058000D01*
X137414000Y-81364000D02*
X138768000Y-80010000D01*
X150000000Y-96100000D02*
X149700000Y-96400000D01*
X131800000Y-90300000D02*
X135600000Y-90300000D01*
X146100000Y-88900000D02*
X146100000Y-85000000D01*
X136000000Y-89900000D02*
X136000000Y-89012500D01*
X134874000Y-81153000D02*
X134747000Y-81280000D01*
X129975000Y-91300000D02*
X129965000Y-91290000D01*
X130800000Y-91300000D02*
X131300000Y-90800000D01*
X130555000Y-86614000D02*
X130669000Y-86500000D01*
X130679000Y-86490000D02*
X130682000Y-86487000D01*
X130800000Y-91300000D02*
X129975000Y-91300000D01*
X143400000Y-84850000D02*
X146050000Y-84850000D01*
X146050000Y-84850000D02*
X146100000Y-84800000D01*
X149700000Y-93500000D02*
X149700000Y-92500000D01*
X131953000Y-83423000D02*
X132604000Y-83423000D01*
%TO.N,+3V3*%
X142365880Y-82900000D02*
X143400000Y-82900000D01*
X158623000Y-94107000D02*
X156893000Y-94107000D01*
X154900000Y-96100000D02*
X156869000Y-94131000D01*
X141900000Y-83365880D02*
X142365880Y-82900000D01*
X140600000Y-90159000D02*
X140600000Y-86900000D01*
X138303000Y-92456000D02*
X136975000Y-92456000D01*
X141900000Y-85600000D02*
X141900000Y-83365880D01*
X140208000Y-90551000D02*
X140600000Y-90159000D01*
X140208000Y-90551000D02*
X138303000Y-92456000D01*
X140600000Y-86900000D02*
X141900000Y-85600000D01*
X156893000Y-94107000D02*
X156869000Y-94131000D01*
D32*
%TO.N,Net-(P1-CC2)*%
X128860000Y-90640000D02*
X127750000Y-91750000D01*
X129965000Y-90640000D02*
X128860000Y-90640000D01*
X127750000Y-91750000D02*
X127750000Y-93414282D01*
X127750000Y-93414282D02*
X129585718Y-95250000D01*
X131985000Y-96235000D02*
X131985000Y-96520000D01*
X129585718Y-95250000D02*
X131000000Y-95250000D01*
X131000000Y-95250000D02*
X131985000Y-96235000D01*
%TO.N,/LED_RX*%
X142350000Y-86150000D02*
X141200000Y-87300000D01*
X141200000Y-87300000D02*
X141200000Y-94950000D01*
X143400000Y-86150000D02*
X142350000Y-86150000D01*
X141200000Y-94950000D02*
X142650000Y-96400000D01*
%TO.N,/LED_TX*%
X141800000Y-87406428D02*
X142406428Y-86800000D01*
X142600000Y-93500000D02*
X142000000Y-93500000D01*
X142000000Y-93500000D02*
X141800000Y-93300000D01*
X142406428Y-86800000D02*
X143400000Y-86800000D01*
X141800000Y-93300000D02*
X141800000Y-87406428D01*
D33*
%TO.N,/Di+*%
X143300000Y-81500000D02*
X143400000Y-81600000D01*
X139325000Y-84393200D02*
X140959100Y-82759100D01*
X139325000Y-86875000D02*
X139325000Y-84393200D01*
X140959100Y-82759100D02*
X141017844Y-82817844D01*
X142000000Y-81500000D02*
X143300000Y-81500000D01*
X138200000Y-88723541D02*
X138200000Y-88000000D01*
X137075000Y-89535000D02*
X137388541Y-89535000D01*
X137388541Y-89535000D02*
X138200000Y-88723541D01*
X138200000Y-88000000D02*
X139325000Y-86875000D01*
X141017844Y-82817844D02*
X141017844Y-83017844D01*
D32*
X143350000Y-81650000D02*
X143400000Y-81600000D01*
D33*
%TO.N,/Di-*%
X138875000Y-84206800D02*
X140831800Y-82250000D01*
X137965000Y-87635000D02*
X138875000Y-86725000D01*
X137075000Y-87635000D02*
X137965000Y-87635000D01*
X140831800Y-82250000D02*
X143400000Y-82250000D01*
X138875000Y-86725000D02*
X138875000Y-84206800D01*
%TD*%
%TA.AperFunction,Conductor*%
%TO.N,GND*%
G36*
X145108224Y-80504407D02*
G01*
X145120036Y-80514496D01*
X145595503Y-80989962D01*
X145623281Y-81044479D01*
X145624500Y-81059966D01*
X145624500Y-84275500D01*
X145605593Y-84333691D01*
X145556093Y-84369655D01*
X145525500Y-84374500D01*
X144674500Y-84374500D01*
X144616309Y-84355593D01*
X144580345Y-84306093D01*
X144575500Y-84275500D01*
X144575499Y-83930139D01*
X144575499Y-83930136D01*
X144572585Y-83905009D01*
X144572584Y-83905007D01*
X144572584Y-83905004D01*
X144571228Y-83900018D01*
X144571229Y-83848038D01*
X144572090Y-83844871D01*
X144574999Y-83819797D01*
X144575000Y-83819795D01*
X144575000Y-83700000D01*
X144417025Y-83700000D01*
X144377038Y-83691565D01*
X144344991Y-83677415D01*
X144344988Y-83677414D01*
X144319869Y-83674500D01*
X143349000Y-83674500D01*
X143290809Y-83655593D01*
X143254845Y-83606093D01*
X143250000Y-83575500D01*
X143250000Y-83524499D01*
X143268907Y-83466308D01*
X143318407Y-83430344D01*
X143349000Y-83425499D01*
X144319861Y-83425499D01*
X144319864Y-83425499D01*
X144344991Y-83422585D01*
X144377038Y-83408434D01*
X144417025Y-83400000D01*
X144574998Y-83400000D01*
X144574999Y-83399999D01*
X144574999Y-83280209D01*
X144574998Y-83280208D01*
X144572089Y-83255122D01*
X144571228Y-83251955D01*
X144571228Y-83199977D01*
X144572582Y-83194997D01*
X144572585Y-83194991D01*
X144575500Y-83169865D01*
X144575499Y-82630136D01*
X144572585Y-82605009D01*
X144571491Y-82600988D01*
X144571492Y-82549007D01*
X144572582Y-82544995D01*
X144572585Y-82544991D01*
X144575500Y-82519865D01*
X144575499Y-81980136D01*
X144572585Y-81955009D01*
X144571492Y-81950992D01*
X144571491Y-81899010D01*
X144572581Y-81894999D01*
X144572585Y-81894991D01*
X144575500Y-81869865D01*
X144575499Y-81330136D01*
X144572585Y-81305009D01*
X144527206Y-81202235D01*
X144447765Y-81122794D01*
X144344991Y-81077415D01*
X144344990Y-81077414D01*
X144344988Y-81077414D01*
X144319869Y-81074500D01*
X144319865Y-81074500D01*
X142609428Y-81074500D01*
X142551237Y-81055593D01*
X142532419Y-81036314D01*
X142532152Y-81036552D01*
X142528181Y-81032069D01*
X142400853Y-80919267D01*
X142400852Y-80919266D01*
X142250225Y-80840210D01*
X142250224Y-80840209D01*
X142250223Y-80840209D01*
X142085058Y-80799500D01*
X142085056Y-80799500D01*
X141914944Y-80799500D01*
X141914941Y-80799500D01*
X141749776Y-80840209D01*
X141599146Y-80919267D01*
X141471818Y-81032069D01*
X141471816Y-81032072D01*
X141455581Y-81055593D01*
X141375182Y-81172070D01*
X141314860Y-81331128D01*
X141294355Y-81500000D01*
X141314860Y-81668872D01*
X141332504Y-81715395D01*
X141335460Y-81776508D01*
X141301929Y-81827688D01*
X141244720Y-81849384D01*
X141239937Y-81849500D01*
X140895233Y-81849500D01*
X140768367Y-81849500D01*
X140768365Y-81849500D01*
X140768362Y-81849501D01*
X140745424Y-81856953D01*
X140730329Y-81860577D01*
X140706501Y-81864352D01*
X140706491Y-81864355D01*
X140685002Y-81875305D01*
X140670653Y-81881248D01*
X140665966Y-81882771D01*
X140647710Y-81888703D01*
X140634044Y-81898632D01*
X140628191Y-81902885D01*
X140614948Y-81911000D01*
X140593457Y-81921949D01*
X140570890Y-81944516D01*
X140570891Y-81944517D01*
X138606378Y-83909028D01*
X138551861Y-83936805D01*
X138491429Y-83927234D01*
X138448164Y-83883969D01*
X138438081Y-83827217D01*
X138438999Y-83819574D01*
X138439000Y-83819558D01*
X138439000Y-83589001D01*
X138438999Y-83589000D01*
X137564001Y-83589000D01*
X137564000Y-83589001D01*
X137564000Y-84326498D01*
X137564001Y-84326500D01*
X137932058Y-84326500D01*
X137932064Y-84326499D01*
X138020443Y-84315886D01*
X138161095Y-84260419D01*
X138281564Y-84169064D01*
X138281567Y-84169061D01*
X138296616Y-84149217D01*
X138346842Y-84114275D01*
X138408015Y-84115528D01*
X138456768Y-84152498D01*
X138474500Y-84209036D01*
X138474500Y-86518098D01*
X138455593Y-86576289D01*
X138445504Y-86588102D01*
X137947514Y-87086091D01*
X137892997Y-87113868D01*
X137832565Y-87104297D01*
X137818723Y-87095743D01*
X137813022Y-87091535D01*
X137800382Y-87082207D01*
X137800380Y-87082206D01*
X137800378Y-87082205D01*
X137672203Y-87037355D01*
X137672194Y-87037353D01*
X137641774Y-87034500D01*
X137641766Y-87034500D01*
X136508234Y-87034500D01*
X136508225Y-87034500D01*
X136477805Y-87037353D01*
X136477796Y-87037355D01*
X136349616Y-87082207D01*
X136240355Y-87162845D01*
X136240345Y-87162855D01*
X136159707Y-87272116D01*
X136114855Y-87400296D01*
X136114853Y-87400305D01*
X136112000Y-87430725D01*
X136112000Y-87839274D01*
X136114853Y-87869694D01*
X136114855Y-87869703D01*
X136159707Y-87997883D01*
X136199376Y-88051633D01*
X136218718Y-88109681D01*
X136200246Y-88168011D01*
X136199376Y-88169209D01*
X136160154Y-88222351D01*
X136140171Y-88279460D01*
X136103105Y-88328140D01*
X136044504Y-88345736D01*
X135986753Y-88325527D01*
X135976723Y-88316765D01*
X135952404Y-88292446D01*
X135939126Y-88275968D01*
X135935555Y-88270411D01*
X135918923Y-88255999D01*
X135898055Y-88237916D01*
X135895469Y-88235509D01*
X135884681Y-88224722D01*
X135879046Y-88220504D01*
X135872457Y-88215571D01*
X135869724Y-88213368D01*
X135832218Y-88180870D01*
X135826204Y-88178123D01*
X135808018Y-88167332D01*
X135806094Y-88165892D01*
X135802726Y-88163371D01*
X135802723Y-88163370D01*
X135802722Y-88163369D01*
X135761429Y-88147968D01*
X135713515Y-88109917D01*
X135697117Y-88050970D01*
X135713270Y-88005208D01*
X135711825Y-88004445D01*
X135715292Y-87997883D01*
X135715291Y-87997883D01*
X135715293Y-87997882D01*
X135760146Y-87869699D01*
X135762999Y-87839273D01*
X135763000Y-87839273D01*
X135763000Y-87430726D01*
X135762999Y-87430725D01*
X135760146Y-87400305D01*
X135760146Y-87400301D01*
X135715293Y-87272118D01*
X135713300Y-87269418D01*
X135634654Y-87162855D01*
X135634652Y-87162853D01*
X135634650Y-87162850D01*
X135634646Y-87162847D01*
X135634644Y-87162845D01*
X135525383Y-87082207D01*
X135397203Y-87037355D01*
X135397194Y-87037353D01*
X135366774Y-87034500D01*
X135366766Y-87034500D01*
X134233234Y-87034500D01*
X134233225Y-87034500D01*
X134202805Y-87037353D01*
X134202796Y-87037355D01*
X134074616Y-87082207D01*
X133965355Y-87162845D01*
X133960106Y-87168095D01*
X133958489Y-87166478D01*
X133917565Y-87195732D01*
X133902463Y-87199237D01*
X133899713Y-87199651D01*
X133892621Y-87201839D01*
X133892492Y-87201420D01*
X133890381Y-87202115D01*
X133890526Y-87202529D01*
X133883523Y-87204978D01*
X133831765Y-87232335D01*
X133830113Y-87233169D01*
X133777360Y-87258573D01*
X133771229Y-87262754D01*
X133770982Y-87262392D01*
X133769169Y-87263678D01*
X133769430Y-87264031D01*
X133763458Y-87268438D01*
X133722078Y-87309817D01*
X133720746Y-87311100D01*
X133677803Y-87350947D01*
X133673181Y-87356743D01*
X133672837Y-87356468D01*
X133664294Y-87367601D01*
X133229942Y-87801955D01*
X132811393Y-88220504D01*
X132756876Y-88248281D01*
X132741389Y-88249500D01*
X131489746Y-88249500D01*
X131431555Y-88230593D01*
X131400550Y-88193455D01*
X131397972Y-88188101D01*
X131376425Y-88143358D01*
X131376421Y-88143353D01*
X131372246Y-88137229D01*
X131372610Y-88136980D01*
X131371324Y-88135169D01*
X131370970Y-88135431D01*
X131366567Y-88129466D01*
X131366566Y-88129463D01*
X131346784Y-88109681D01*
X131325156Y-88088052D01*
X131323872Y-88086719D01*
X131284056Y-88043806D01*
X131278258Y-88039183D01*
X131278532Y-88038839D01*
X131267397Y-88030294D01*
X131078402Y-87841298D01*
X131074700Y-87837155D01*
X131062193Y-87821472D01*
X131049879Y-87806030D01*
X131037035Y-87797273D01*
X131001494Y-87773041D01*
X130999985Y-87771970D01*
X130952881Y-87737206D01*
X130946322Y-87733740D01*
X130946526Y-87733352D01*
X130944544Y-87732352D01*
X130944355Y-87732746D01*
X130937671Y-87729527D01*
X130915316Y-87722631D01*
X130865284Y-87687411D01*
X130845510Y-87629509D01*
X130845499Y-87628030D01*
X130845499Y-87455139D01*
X130845499Y-87455136D01*
X130842585Y-87430009D01*
X130841492Y-87425992D01*
X130841491Y-87374010D01*
X130842581Y-87369999D01*
X130842585Y-87369991D01*
X130845500Y-87344865D01*
X130845499Y-87193895D01*
X130864406Y-87135706D01*
X130913906Y-87099742D01*
X130975091Y-87099741D01*
X130990505Y-87106235D01*
X131067775Y-87146790D01*
X131232944Y-87187500D01*
X131232947Y-87187500D01*
X131403053Y-87187500D01*
X131403056Y-87187500D01*
X131568225Y-87146790D01*
X131718852Y-87067734D01*
X131846183Y-86954929D01*
X131942818Y-86814930D01*
X132003140Y-86655872D01*
X132023645Y-86487000D01*
X132003140Y-86318128D01*
X131942818Y-86159070D01*
X131846183Y-86019071D01*
X131846180Y-86019068D01*
X131826850Y-86001943D01*
X131795832Y-85949202D01*
X131793500Y-85927841D01*
X131793500Y-84401000D01*
X131812407Y-84342809D01*
X131861907Y-84306845D01*
X131892500Y-84302000D01*
X132700100Y-84302000D01*
X132700102Y-84302000D01*
X132788564Y-84291377D01*
X132929342Y-84235861D01*
X133049922Y-84144422D01*
X133141361Y-84023842D01*
X133196877Y-83883064D01*
X133207500Y-83794602D01*
X133207500Y-83589000D01*
X133770500Y-83589000D01*
X133770500Y-83819564D01*
X133781113Y-83907943D01*
X133836580Y-84048595D01*
X133927935Y-84169064D01*
X134048404Y-84260419D01*
X134189056Y-84315886D01*
X134277435Y-84326499D01*
X134277442Y-84326500D01*
X134645499Y-84326500D01*
X134645500Y-84326499D01*
X134645500Y-83589001D01*
X134645499Y-83589000D01*
X134945500Y-83589000D01*
X134945500Y-84326499D01*
X134945501Y-84326500D01*
X135313558Y-84326500D01*
X135313564Y-84326499D01*
X135401943Y-84315886D01*
X135542595Y-84260419D01*
X135663064Y-84169064D01*
X135754419Y-84048595D01*
X135809886Y-83907943D01*
X135820499Y-83819564D01*
X136389000Y-83819564D01*
X136399613Y-83907943D01*
X136455080Y-84048595D01*
X136546435Y-84169064D01*
X136666904Y-84260419D01*
X136807556Y-84315886D01*
X136895935Y-84326499D01*
X136895942Y-84326500D01*
X137263999Y-84326500D01*
X137264000Y-84326498D01*
X137264000Y-83589001D01*
X137263999Y-83589000D01*
X136389001Y-83589000D01*
X136389000Y-83589001D01*
X136389000Y-83819564D01*
X135820499Y-83819564D01*
X135820500Y-83819558D01*
X135820500Y-83589001D01*
X135820499Y-83589000D01*
X134945500Y-83589000D01*
X134645499Y-83589000D01*
X133770500Y-83589000D01*
X133207500Y-83589000D01*
X133207500Y-83532965D01*
X133226407Y-83474775D01*
X133236490Y-83462968D01*
X133601498Y-83097960D01*
X133656013Y-83070185D01*
X133716445Y-83079756D01*
X133759710Y-83123021D01*
X133770500Y-83167966D01*
X133770500Y-83288999D01*
X133770501Y-83289000D01*
X134645499Y-83289000D01*
X134645500Y-83288999D01*
X134945500Y-83288999D01*
X134945501Y-83289000D01*
X135820499Y-83289000D01*
X135820500Y-83288999D01*
X135820500Y-83288998D01*
X136389000Y-83288998D01*
X136389001Y-83289000D01*
X137263999Y-83289000D01*
X137264000Y-83288998D01*
X137564000Y-83288998D01*
X137564001Y-83289000D01*
X138438999Y-83289000D01*
X138439000Y-83288999D01*
X138439000Y-83058441D01*
X138438999Y-83058435D01*
X138428386Y-82970056D01*
X138372919Y-82829404D01*
X138281564Y-82708935D01*
X138161095Y-82617580D01*
X138020443Y-82562113D01*
X137932064Y-82551500D01*
X137564001Y-82551500D01*
X137564000Y-82551501D01*
X137564000Y-83288998D01*
X137264000Y-83288998D01*
X137264000Y-82551501D01*
X137263999Y-82551500D01*
X136895935Y-82551500D01*
X136807556Y-82562113D01*
X136666904Y-82617580D01*
X136546435Y-82708935D01*
X136455080Y-82829404D01*
X136399613Y-82970056D01*
X136389000Y-83058435D01*
X136389000Y-83288998D01*
X135820500Y-83288998D01*
X135820500Y-83058441D01*
X135820499Y-83058435D01*
X135809886Y-82970056D01*
X135754419Y-82829404D01*
X135663064Y-82708935D01*
X135542595Y-82617580D01*
X135401943Y-82562113D01*
X135313564Y-82551500D01*
X134945501Y-82551500D01*
X134945500Y-82551501D01*
X134945500Y-83288999D01*
X134645500Y-83288999D01*
X134645500Y-82551500D01*
X134386966Y-82551500D01*
X134328775Y-82532593D01*
X134292811Y-82483093D01*
X134292811Y-82421907D01*
X134316960Y-82382498D01*
X134418464Y-82280994D01*
X134472979Y-82253219D01*
X134488466Y-82252000D01*
X135313600Y-82252000D01*
X135313602Y-82252000D01*
X135402064Y-82241377D01*
X135542842Y-82185861D01*
X135663422Y-82094422D01*
X135754861Y-81973842D01*
X135810377Y-81833064D01*
X135821000Y-81744602D01*
X135821000Y-81727499D01*
X135839907Y-81669309D01*
X135889407Y-81633345D01*
X135920000Y-81628500D01*
X136289500Y-81628500D01*
X136347691Y-81647407D01*
X136383655Y-81696907D01*
X136388500Y-81727500D01*
X136388500Y-81744606D01*
X136399123Y-81833065D01*
X136454637Y-81973839D01*
X136454638Y-81973841D01*
X136454639Y-81973842D01*
X136546078Y-82094422D01*
X136666658Y-82185861D01*
X136666659Y-82185861D01*
X136666660Y-82185862D01*
X136680242Y-82191218D01*
X136807436Y-82241377D01*
X136895898Y-82252000D01*
X136895900Y-82252000D01*
X137932100Y-82252000D01*
X137932102Y-82252000D01*
X138020564Y-82241377D01*
X138161342Y-82185861D01*
X138281922Y-82094422D01*
X138373361Y-81973842D01*
X138428877Y-81833064D01*
X138439500Y-81744602D01*
X138439500Y-81051967D01*
X138458407Y-80993776D01*
X138468496Y-80981963D01*
X138935963Y-80514496D01*
X138990480Y-80486719D01*
X139005967Y-80485500D01*
X145050033Y-80485500D01*
X145108224Y-80504407D01*
G37*
%TD.AperFunction*%
%TA.AperFunction,Conductor*%
G36*
X157758691Y-79012907D02*
G01*
X157794655Y-79062407D01*
X157799500Y-79092999D01*
X157799500Y-80943357D01*
X167065467Y-80943357D01*
X167123658Y-80962264D01*
X167159622Y-81011764D01*
X167159622Y-81072950D01*
X167123658Y-81122450D01*
X167104913Y-81133158D01*
X167069847Y-81148390D01*
X167069844Y-81148391D01*
X167069841Y-81148393D01*
X167069839Y-81148394D01*
X166821408Y-81299469D01*
X166821402Y-81299473D01*
X166595843Y-81482978D01*
X166439856Y-81650000D01*
X166397372Y-81695489D01*
X166397367Y-81695495D01*
X166229688Y-81933043D01*
X166095912Y-82191218D01*
X165998535Y-82465209D01*
X165939377Y-82749895D01*
X165939375Y-82749904D01*
X165919533Y-83039996D01*
X165919533Y-83040003D01*
X165939375Y-83330095D01*
X165939377Y-83330104D01*
X165996932Y-83607078D01*
X165998536Y-83614793D01*
X166009651Y-83646067D01*
X166095912Y-83888781D01*
X166229688Y-84146956D01*
X166390305Y-84374500D01*
X166397373Y-84384512D01*
X166595843Y-84597022D01*
X166821402Y-84780527D01*
X167069847Y-84931610D01*
X167336550Y-85047456D01*
X167616544Y-85125906D01*
X167904612Y-85165500D01*
X167904618Y-85165500D01*
X168195382Y-85165500D01*
X168195388Y-85165500D01*
X168483456Y-85125906D01*
X168763450Y-85047456D01*
X169030153Y-84931610D01*
X169278598Y-84780527D01*
X169504157Y-84597022D01*
X169702627Y-84384512D01*
X169870312Y-84146956D01*
X170004088Y-83888780D01*
X170101464Y-83614793D01*
X170160624Y-83330099D01*
X170180467Y-83040000D01*
X170178305Y-83008399D01*
X170169128Y-82874229D01*
X170160624Y-82749901D01*
X170101464Y-82465207D01*
X170004088Y-82191220D01*
X169870312Y-81933044D01*
X169730596Y-81735111D01*
X169702632Y-81695495D01*
X169702631Y-81695494D01*
X169702627Y-81695488D01*
X169504157Y-81482978D01*
X169278598Y-81299473D01*
X169030153Y-81148390D01*
X168995089Y-81133159D01*
X168949251Y-81092636D01*
X168935985Y-81032906D01*
X168960362Y-80976786D01*
X169013069Y-80945712D01*
X169034533Y-80943357D01*
X173537500Y-80943357D01*
X173595691Y-80962264D01*
X173631655Y-81011764D01*
X173636500Y-81042357D01*
X173636500Y-96457643D01*
X173617593Y-96515834D01*
X173568093Y-96551798D01*
X173537500Y-96556643D01*
X169057555Y-96556643D01*
X168999364Y-96537736D01*
X168963400Y-96488236D01*
X168963400Y-96427050D01*
X168999364Y-96377550D01*
X169018111Y-96366840D01*
X169030153Y-96361610D01*
X169278598Y-96210527D01*
X169504157Y-96027022D01*
X169702627Y-95814512D01*
X169870312Y-95576956D01*
X170004088Y-95318780D01*
X170101464Y-95044793D01*
X170160624Y-94760099D01*
X170175994Y-94535400D01*
X170180467Y-94470003D01*
X170180467Y-94469996D01*
X170164182Y-94231914D01*
X170160624Y-94179901D01*
X170101464Y-93895207D01*
X170004088Y-93621220D01*
X169870312Y-93363044D01*
X169702627Y-93125488D01*
X169504157Y-92912978D01*
X169278598Y-92729473D01*
X169101927Y-92622037D01*
X169030160Y-92578394D01*
X169030158Y-92578393D01*
X169030157Y-92578392D01*
X169030153Y-92578390D01*
X168763450Y-92462544D01*
X168483456Y-92384094D01*
X168483452Y-92384093D01*
X168483450Y-92384093D01*
X168321977Y-92361899D01*
X168195388Y-92344500D01*
X167904612Y-92344500D01*
X167616549Y-92384093D01*
X167616540Y-92384095D01*
X167541183Y-92405209D01*
X167336550Y-92462544D01*
X167336548Y-92462544D01*
X167336547Y-92462545D01*
X167251469Y-92499500D01*
X167069847Y-92578390D01*
X167069844Y-92578391D01*
X167069841Y-92578393D01*
X167069839Y-92578394D01*
X166821408Y-92729469D01*
X166821402Y-92729473D01*
X166595843Y-92912978D01*
X166415007Y-93106607D01*
X166397372Y-93125489D01*
X166397367Y-93125495D01*
X166229688Y-93363043D01*
X166095912Y-93621218D01*
X165998535Y-93895209D01*
X165939377Y-94179895D01*
X165939375Y-94179904D01*
X165919533Y-94469996D01*
X165919533Y-94470003D01*
X165939375Y-94760095D01*
X165939377Y-94760104D01*
X165998432Y-95044295D01*
X165998536Y-95044793D01*
X165998823Y-95045600D01*
X166095912Y-95318781D01*
X166229688Y-95576956D01*
X166393951Y-95809665D01*
X166397373Y-95814512D01*
X166595843Y-96027022D01*
X166821402Y-96210527D01*
X167069847Y-96361610D01*
X167081886Y-96366839D01*
X167127727Y-96407364D01*
X167140993Y-96467094D01*
X167116617Y-96523214D01*
X167063910Y-96554288D01*
X167042445Y-96556643D01*
X161501881Y-96556643D01*
X161501881Y-96556644D01*
X161501881Y-98711000D01*
X161482974Y-98769191D01*
X161433474Y-98805155D01*
X161402881Y-98810000D01*
X123821000Y-98810000D01*
X123762809Y-98791093D01*
X123726845Y-98741593D01*
X123722000Y-98711000D01*
X123722000Y-97013064D01*
X127021000Y-97013064D01*
X127031613Y-97101443D01*
X127087080Y-97242095D01*
X127178435Y-97362564D01*
X127298904Y-97453919D01*
X127439556Y-97509386D01*
X127527935Y-97519999D01*
X127527942Y-97520000D01*
X127770999Y-97520000D01*
X127771000Y-97519999D01*
X128071000Y-97519999D01*
X128071001Y-97520000D01*
X128314058Y-97520000D01*
X128314064Y-97519999D01*
X128402443Y-97509386D01*
X128543095Y-97453919D01*
X128663564Y-97362564D01*
X128754919Y-97242095D01*
X128810386Y-97101443D01*
X128820999Y-97013064D01*
X128821000Y-97013058D01*
X128821000Y-96670001D01*
X128820999Y-96670000D01*
X128071001Y-96670000D01*
X128071000Y-96670001D01*
X128071000Y-97519999D01*
X127771000Y-97519999D01*
X127771000Y-96670001D01*
X127770999Y-96670000D01*
X127021001Y-96670000D01*
X127021000Y-96670001D01*
X127021000Y-97013064D01*
X123722000Y-97013064D01*
X123722000Y-96369998D01*
X127021000Y-96369998D01*
X127021001Y-96370000D01*
X127770999Y-96370000D01*
X127771000Y-96369998D01*
X127771000Y-95520001D01*
X127770999Y-95520000D01*
X127527935Y-95520000D01*
X127439556Y-95530613D01*
X127298904Y-95586080D01*
X127178435Y-95677435D01*
X127087080Y-95797904D01*
X127031613Y-95938556D01*
X127021000Y-96026935D01*
X127021000Y-96369998D01*
X123722000Y-96369998D01*
X123722000Y-93093379D01*
X123723613Y-93088413D01*
X123722000Y-93078940D01*
X123722000Y-93069999D01*
X123927016Y-93069999D01*
X123927017Y-93070000D01*
X124402343Y-93070000D01*
X124391799Y-93083962D01*
X124361105Y-93191840D01*
X124371454Y-93303521D01*
X124404557Y-93370000D01*
X123929879Y-93370000D01*
X123941614Y-93436562D01*
X123941616Y-93436568D01*
X124011056Y-93597547D01*
X124011061Y-93597556D01*
X124115755Y-93738184D01*
X124115757Y-93738186D01*
X124250059Y-93850880D01*
X124406737Y-93929567D01*
X124577340Y-93970000D01*
X125064999Y-93970000D01*
X125065000Y-93969999D01*
X125065000Y-93520000D01*
X125365000Y-93520000D01*
X125365000Y-93969999D01*
X125365001Y-93970000D01*
X125808681Y-93970000D01*
X125939141Y-93954751D01*
X125939146Y-93954749D01*
X126103889Y-93894787D01*
X126103899Y-93894782D01*
X126250367Y-93798449D01*
X126250372Y-93798444D01*
X126370686Y-93670919D01*
X126370687Y-93670919D01*
X126458348Y-93519083D01*
X126459592Y-93516201D01*
X126460817Y-93514807D01*
X126461233Y-93514088D01*
X126461377Y-93514171D01*
X126499998Y-93470254D01*
X126559693Y-93456833D01*
X126615876Y-93481062D01*
X126647088Y-93533688D01*
X126649499Y-93555405D01*
X126649499Y-93771916D01*
X126649188Y-93777461D01*
X126644730Y-93817033D01*
X126644730Y-93817039D01*
X126655616Y-93874573D01*
X126655926Y-93876397D01*
X126664652Y-93934287D01*
X126666840Y-93941381D01*
X126666417Y-93941511D01*
X126667109Y-93943613D01*
X126667526Y-93943468D01*
X126669975Y-93950468D01*
X126669976Y-93950471D01*
X126669977Y-93950472D01*
X126676991Y-93963743D01*
X126697338Y-94002242D01*
X126698172Y-94003894D01*
X126723574Y-94056641D01*
X126727753Y-94062770D01*
X126727389Y-94063017D01*
X126728677Y-94064831D01*
X126729030Y-94064571D01*
X126733434Y-94070538D01*
X126774854Y-94111959D01*
X126776138Y-94113292D01*
X126815944Y-94156194D01*
X126821743Y-94160818D01*
X126821467Y-94161163D01*
X126832600Y-94169704D01*
X128056944Y-95394048D01*
X128084721Y-95448565D01*
X128075150Y-95508997D01*
X128071000Y-95514709D01*
X128071000Y-96369999D01*
X128071001Y-96370000D01*
X128820999Y-96370000D01*
X128834048Y-96356950D01*
X128839907Y-96338920D01*
X128889407Y-96302956D01*
X128950593Y-96302956D01*
X128990004Y-96327107D01*
X128991504Y-96328607D01*
X129019281Y-96383124D01*
X129020500Y-96398611D01*
X129020500Y-97013106D01*
X129031123Y-97101565D01*
X129086637Y-97242339D01*
X129086638Y-97242341D01*
X129086639Y-97242342D01*
X129178078Y-97362922D01*
X129298658Y-97454361D01*
X129298659Y-97454361D01*
X129298660Y-97454362D01*
X129369047Y-97482119D01*
X129439436Y-97509877D01*
X129527898Y-97520500D01*
X129527900Y-97520500D01*
X130314100Y-97520500D01*
X130314102Y-97520500D01*
X130402564Y-97509877D01*
X130543342Y-97454361D01*
X130663922Y-97362922D01*
X130755361Y-97242342D01*
X130810877Y-97101564D01*
X130821500Y-97013102D01*
X130821500Y-96026898D01*
X130812193Y-95949400D01*
X130824027Y-95889374D01*
X130868885Y-95847764D01*
X130929634Y-95840468D01*
X130980491Y-95867595D01*
X131056400Y-95943504D01*
X131084177Y-95998021D01*
X131084664Y-96023937D01*
X131084677Y-96023938D01*
X131084667Y-96024099D01*
X131084690Y-96025306D01*
X131084501Y-96026878D01*
X131084500Y-96026899D01*
X131084500Y-97013106D01*
X131095123Y-97101565D01*
X131150637Y-97242339D01*
X131150638Y-97242341D01*
X131150639Y-97242342D01*
X131242078Y-97362922D01*
X131362658Y-97454361D01*
X131362659Y-97454361D01*
X131362660Y-97454362D01*
X131433047Y-97482119D01*
X131503436Y-97509877D01*
X131591898Y-97520500D01*
X131591900Y-97520500D01*
X132378100Y-97520500D01*
X132378102Y-97520500D01*
X132466564Y-97509877D01*
X132607342Y-97454361D01*
X132727922Y-97362922D01*
X132819361Y-97242342D01*
X132874877Y-97101564D01*
X132885500Y-97013102D01*
X132885500Y-96670000D01*
X133085000Y-96670000D01*
X133085000Y-97013064D01*
X133095613Y-97101443D01*
X133151080Y-97242095D01*
X133242435Y-97362564D01*
X133362904Y-97453919D01*
X133503556Y-97509386D01*
X133591935Y-97519999D01*
X133591942Y-97520000D01*
X133834999Y-97520000D01*
X133835000Y-97519999D01*
X134135000Y-97519999D01*
X134135001Y-97520000D01*
X134378058Y-97520000D01*
X134378064Y-97519999D01*
X134466443Y-97509386D01*
X134607095Y-97453919D01*
X134727564Y-97362564D01*
X134818919Y-97242095D01*
X134874386Y-97101443D01*
X134884999Y-97013064D01*
X134885000Y-97013058D01*
X134885000Y-96670001D01*
X134884999Y-96670000D01*
X134135001Y-96670000D01*
X134135000Y-96670001D01*
X134135000Y-97519999D01*
X133835000Y-97519999D01*
X133835000Y-96670001D01*
X133834999Y-96670000D01*
X133085000Y-96670000D01*
X132885500Y-96670000D01*
X132885500Y-96369999D01*
X133085000Y-96369999D01*
X133085001Y-96370000D01*
X133834999Y-96370000D01*
X133835000Y-96369998D01*
X134135000Y-96369998D01*
X134135001Y-96370000D01*
X134884999Y-96370000D01*
X134885000Y-96369998D01*
X134885000Y-96026941D01*
X134884999Y-96026935D01*
X134874386Y-95938556D01*
X134818919Y-95797904D01*
X134727564Y-95677435D01*
X134607095Y-95586080D01*
X134466443Y-95530613D01*
X134378064Y-95520000D01*
X134135001Y-95520000D01*
X134135000Y-95520001D01*
X134135000Y-96369998D01*
X133835000Y-96369998D01*
X133835000Y-95520001D01*
X133834999Y-95520000D01*
X133591935Y-95520000D01*
X133503556Y-95530613D01*
X133362904Y-95586080D01*
X133242435Y-95677435D01*
X133151080Y-95797904D01*
X133095613Y-95938556D01*
X133085000Y-96026935D01*
X133085000Y-96369999D01*
X132885500Y-96369999D01*
X132885500Y-96026898D01*
X132874877Y-95938436D01*
X132827554Y-95818434D01*
X132819362Y-95797660D01*
X132819361Y-95797659D01*
X132819361Y-95797658D01*
X132727922Y-95677078D01*
X132607342Y-95585639D01*
X132607341Y-95585638D01*
X132607339Y-95585637D01*
X132466565Y-95530123D01*
X132378106Y-95519500D01*
X132378102Y-95519500D01*
X131947611Y-95519500D01*
X131889420Y-95500593D01*
X131877607Y-95490504D01*
X131338402Y-94951298D01*
X131334700Y-94947155D01*
X131320866Y-94929808D01*
X131309879Y-94916030D01*
X131283063Y-94897747D01*
X131261494Y-94883041D01*
X131259985Y-94881970D01*
X131212881Y-94847206D01*
X131206322Y-94843740D01*
X131206526Y-94843352D01*
X131204544Y-94842352D01*
X131204355Y-94842746D01*
X131197670Y-94839526D01*
X131141713Y-94822266D01*
X131139955Y-94821688D01*
X131084702Y-94802355D01*
X131084701Y-94802354D01*
X131084699Y-94802354D01*
X131084696Y-94802353D01*
X131077414Y-94800976D01*
X131077495Y-94800544D01*
X131075302Y-94800171D01*
X131075237Y-94800605D01*
X131067903Y-94799500D01*
X131067902Y-94799500D01*
X131009358Y-94799500D01*
X131007508Y-94799465D01*
X130952174Y-94797395D01*
X130948990Y-94797276D01*
X130948989Y-94797276D01*
X130941615Y-94798107D01*
X130941565Y-94797668D01*
X130927656Y-94799500D01*
X129813329Y-94799500D01*
X129755138Y-94780593D01*
X129743325Y-94770504D01*
X129111825Y-94139004D01*
X129084048Y-94084487D01*
X129093619Y-94024055D01*
X129136884Y-93980790D01*
X129181829Y-93970000D01*
X129234999Y-93970000D01*
X129235000Y-93969999D01*
X129235000Y-93520000D01*
X129534999Y-93520000D01*
X129534999Y-93969999D01*
X129535001Y-93970000D01*
X130028681Y-93970000D01*
X130159141Y-93954751D01*
X130159146Y-93954749D01*
X130323889Y-93894787D01*
X130323899Y-93894782D01*
X130470367Y-93798449D01*
X130470372Y-93798444D01*
X130590686Y-93670919D01*
X130590687Y-93670919D01*
X130678349Y-93519081D01*
X130722983Y-93370000D01*
X130247657Y-93370000D01*
X130258201Y-93356038D01*
X130288895Y-93248160D01*
X130278546Y-93136479D01*
X130245443Y-93070000D01*
X130720121Y-93070000D01*
X130720121Y-93069999D01*
X130708385Y-93003437D01*
X130708383Y-93003431D01*
X130695715Y-92974064D01*
X134012500Y-92974064D01*
X134023113Y-93062443D01*
X134078580Y-93203095D01*
X134169935Y-93323564D01*
X134290404Y-93414919D01*
X134431056Y-93470386D01*
X134519435Y-93480999D01*
X134519442Y-93481000D01*
X134749999Y-93481000D01*
X134750000Y-93480999D01*
X134750000Y-92606001D01*
X134749999Y-92606000D01*
X135050000Y-92606000D01*
X135050000Y-93480999D01*
X135050001Y-93481000D01*
X135280558Y-93481000D01*
X135280564Y-93480999D01*
X135368943Y-93470386D01*
X135509595Y-93414919D01*
X135630064Y-93323564D01*
X135721419Y-93203095D01*
X135776886Y-93062443D01*
X135787499Y-92974064D01*
X135787500Y-92974058D01*
X135787500Y-92606001D01*
X135787499Y-92606000D01*
X135050000Y-92606000D01*
X134749999Y-92606000D01*
X134012501Y-92606000D01*
X134012500Y-92606001D01*
X134012500Y-92974064D01*
X130695715Y-92974064D01*
X130638943Y-92842452D01*
X130638938Y-92842443D01*
X130625658Y-92824605D01*
X130606075Y-92766638D01*
X130624304Y-92708231D01*
X130665082Y-92674921D01*
X130717475Y-92651788D01*
X130796786Y-92572477D01*
X130842090Y-92469872D01*
X130844999Y-92444797D01*
X130845000Y-92444795D01*
X130845000Y-92305998D01*
X134012500Y-92305998D01*
X134012501Y-92306000D01*
X134749999Y-92306000D01*
X134750000Y-92305999D01*
X134750000Y-91431001D01*
X134749999Y-91431000D01*
X135050000Y-91431000D01*
X135050000Y-92305999D01*
X135050001Y-92306000D01*
X135787499Y-92306000D01*
X135787500Y-92305999D01*
X135787500Y-91937941D01*
X135787499Y-91937935D01*
X135776886Y-91849556D01*
X135721419Y-91708904D01*
X135630064Y-91588435D01*
X135509595Y-91497080D01*
X135368943Y-91441613D01*
X135280564Y-91431000D01*
X135050000Y-91431000D01*
X134749999Y-91431000D01*
X134519435Y-91431000D01*
X134431056Y-91441613D01*
X134290404Y-91497080D01*
X134169935Y-91588435D01*
X134078580Y-91708904D01*
X134023113Y-91849556D01*
X134012500Y-91937935D01*
X134012500Y-92305998D01*
X130845000Y-92305998D01*
X130845000Y-92250001D01*
X130844999Y-92250000D01*
X129085002Y-92250000D01*
X129085000Y-92250001D01*
X129085001Y-92371000D01*
X129066094Y-92429191D01*
X129016594Y-92465155D01*
X128986001Y-92470000D01*
X128741319Y-92470000D01*
X128610858Y-92485248D01*
X128610853Y-92485250D01*
X128446110Y-92545212D01*
X128446106Y-92545214D01*
X128353901Y-92605858D01*
X128294893Y-92622037D01*
X128237645Y-92600442D01*
X128204024Y-92549322D01*
X128200500Y-92523144D01*
X128200500Y-92255966D01*
X128200499Y-91977607D01*
X128219406Y-91919420D01*
X128229489Y-91907613D01*
X128915498Y-91221604D01*
X128970013Y-91193829D01*
X129030445Y-91203400D01*
X129073710Y-91246665D01*
X129084500Y-91291610D01*
X129084500Y-91644860D01*
X129084501Y-91644863D01*
X129087415Y-91669996D01*
X129088772Y-91674983D01*
X129088774Y-91726945D01*
X129087910Y-91730121D01*
X129085000Y-91755202D01*
X129085000Y-91949999D01*
X129085001Y-91950000D01*
X129814999Y-91950000D01*
X129835504Y-91929495D01*
X129890021Y-91901718D01*
X129905501Y-91900499D01*
X130024493Y-91900499D01*
X130082683Y-91919406D01*
X130094496Y-91929495D01*
X130115001Y-91950000D01*
X130844998Y-91950000D01*
X130844999Y-91949999D01*
X130844999Y-91859704D01*
X130863906Y-91801513D01*
X130913406Y-91765549D01*
X130929908Y-91761712D01*
X130935342Y-91760931D01*
X130980478Y-91740317D01*
X130983723Y-91738972D01*
X131030226Y-91721629D01*
X131035510Y-91717672D01*
X131053713Y-91706872D01*
X131059718Y-91704130D01*
X131097224Y-91671629D01*
X131099949Y-91669433D01*
X131112180Y-91660279D01*
X131122992Y-91649465D01*
X131125529Y-91647103D01*
X131163055Y-91614589D01*
X131166624Y-91609034D01*
X131179903Y-91592554D01*
X131242963Y-91529495D01*
X131297481Y-91501719D01*
X131312966Y-91500500D01*
X131385053Y-91500500D01*
X131385056Y-91500500D01*
X131550225Y-91459790D01*
X131700852Y-91380734D01*
X131828183Y-91267929D01*
X131924818Y-91127930D01*
X131985140Y-90968872D01*
X131998047Y-90862567D01*
X132023832Y-90807079D01*
X132077306Y-90777344D01*
X132096326Y-90775500D01*
X135538229Y-90775500D01*
X135559272Y-90777762D01*
X135565729Y-90779167D01*
X135607833Y-90776155D01*
X135615234Y-90775626D01*
X135618767Y-90775500D01*
X135634009Y-90775500D01*
X135634011Y-90775500D01*
X135649119Y-90773327D01*
X135652614Y-90772951D01*
X135702115Y-90769411D01*
X135708295Y-90767105D01*
X135728803Y-90761870D01*
X135735342Y-90760931D01*
X135780478Y-90740317D01*
X135783723Y-90738972D01*
X135830226Y-90721629D01*
X135835510Y-90717672D01*
X135853713Y-90706872D01*
X135859718Y-90704130D01*
X135897224Y-90671629D01*
X135899949Y-90669433D01*
X135912180Y-90660279D01*
X135922966Y-90649491D01*
X135925543Y-90647091D01*
X135963055Y-90614589D01*
X135966623Y-90609034D01*
X135979900Y-90592556D01*
X136292553Y-90279903D01*
X136309035Y-90266624D01*
X136309204Y-90266515D01*
X136314589Y-90263055D01*
X136347102Y-90225530D01*
X136349492Y-90222965D01*
X136360278Y-90212180D01*
X136369430Y-90199953D01*
X136371606Y-90197252D01*
X136398011Y-90166778D01*
X136450404Y-90135186D01*
X136482069Y-90133046D01*
X136499984Y-90134726D01*
X136508230Y-90135500D01*
X136508234Y-90135500D01*
X137641773Y-90135500D01*
X137641773Y-90135499D01*
X137672199Y-90132646D01*
X137800382Y-90087793D01*
X137909650Y-90007150D01*
X137990293Y-89897882D01*
X138035146Y-89769699D01*
X138037999Y-89739273D01*
X138038000Y-89739273D01*
X138038000Y-89492940D01*
X138056907Y-89434749D01*
X138066990Y-89422942D01*
X138505483Y-88984450D01*
X138525547Y-88964386D01*
X138525912Y-88964020D01*
X138528050Y-88961883D01*
X138528050Y-88961881D01*
X138529409Y-88960523D01*
X138531160Y-88955777D01*
X138539003Y-88940382D01*
X138547115Y-88927146D01*
X138561296Y-88907631D01*
X138568751Y-88884685D01*
X138574695Y-88870336D01*
X138585646Y-88848845D01*
X138589419Y-88825014D01*
X138593048Y-88809905D01*
X138597353Y-88796654D01*
X138600499Y-88786974D01*
X138600499Y-88757104D01*
X138600500Y-88757079D01*
X138600500Y-88206899D01*
X138619407Y-88148708D01*
X138629490Y-88136901D01*
X139630483Y-87135909D01*
X139650447Y-87115945D01*
X139650835Y-87115556D01*
X139653050Y-87113342D01*
X139653050Y-87113340D01*
X139654409Y-87111982D01*
X139656160Y-87107236D01*
X139664003Y-87091841D01*
X139672115Y-87078605D01*
X139686296Y-87059090D01*
X139693751Y-87036144D01*
X139699695Y-87021795D01*
X139710646Y-87000304D01*
X139714419Y-86976473D01*
X139718048Y-86961364D01*
X139725498Y-86938435D01*
X139725499Y-86938434D01*
X139725499Y-86908563D01*
X139725500Y-86908538D01*
X139725500Y-84600100D01*
X139744407Y-84541909D01*
X139754496Y-84530096D01*
X140175465Y-84109127D01*
X140610749Y-83673842D01*
X140665264Y-83646067D01*
X140725696Y-83655638D01*
X140726602Y-83656106D01*
X140767619Y-83677634D01*
X140767621Y-83677634D01*
X140767622Y-83677635D01*
X140823361Y-83691373D01*
X140932788Y-83718344D01*
X140932791Y-83718344D01*
X141102897Y-83718344D01*
X141102900Y-83718344D01*
X141268069Y-83677634D01*
X141279492Y-83671638D01*
X141339802Y-83661337D01*
X141394651Y-83688452D01*
X141423086Y-83742628D01*
X141424500Y-83759298D01*
X141424500Y-85362032D01*
X141405593Y-85420223D01*
X141395504Y-85432036D01*
X140307443Y-86520096D01*
X140290967Y-86533373D01*
X140285414Y-86536941D01*
X140285413Y-86536942D01*
X140252910Y-86574450D01*
X140250506Y-86577033D01*
X140239721Y-86587819D01*
X140230570Y-86600042D01*
X140228355Y-86602790D01*
X140195869Y-86640282D01*
X140193123Y-86646294D01*
X140182333Y-86664479D01*
X140178371Y-86669772D01*
X140178370Y-86669774D01*
X140161031Y-86716262D01*
X140159679Y-86719526D01*
X140139068Y-86764657D01*
X140138127Y-86771203D01*
X140132899Y-86791688D01*
X140130589Y-86797881D01*
X140130588Y-86797886D01*
X140127046Y-86847380D01*
X140126669Y-86850887D01*
X140124500Y-86865987D01*
X140124500Y-86881233D01*
X140124374Y-86884766D01*
X140120833Y-86934271D01*
X140122237Y-86940727D01*
X140124500Y-86961771D01*
X140124500Y-89772554D01*
X140105593Y-89830745D01*
X140056093Y-89866709D01*
X140049193Y-89868677D01*
X139957776Y-89891209D01*
X139807146Y-89970267D01*
X139679818Y-90083069D01*
X139679816Y-90083072D01*
X139583182Y-90223070D01*
X139522860Y-90382128D01*
X139501886Y-90554857D01*
X139476102Y-90610344D01*
X139473612Y-90612927D01*
X138135037Y-91951504D01*
X138080520Y-91979281D01*
X138065033Y-91980500D01*
X137955939Y-91980500D01*
X137897748Y-91961593D01*
X137861784Y-91912093D01*
X137857645Y-91893304D01*
X137857081Y-91888610D01*
X137852377Y-91849436D01*
X137796861Y-91708658D01*
X137705422Y-91588078D01*
X137584842Y-91496639D01*
X137584841Y-91496638D01*
X137584839Y-91496637D01*
X137444065Y-91441123D01*
X137355606Y-91430500D01*
X137355602Y-91430500D01*
X136594398Y-91430500D01*
X136594393Y-91430500D01*
X136505934Y-91441123D01*
X136365160Y-91496637D01*
X136365156Y-91496640D01*
X136244581Y-91588075D01*
X136244575Y-91588081D01*
X136153140Y-91708656D01*
X136153137Y-91708660D01*
X136097623Y-91849434D01*
X136087000Y-91937893D01*
X136087000Y-92974106D01*
X136097623Y-93062565D01*
X136153137Y-93203339D01*
X136153138Y-93203341D01*
X136153139Y-93203342D01*
X136244578Y-93323922D01*
X136365158Y-93415361D01*
X136365159Y-93415361D01*
X136365160Y-93415362D01*
X136396044Y-93427541D01*
X136505936Y-93470877D01*
X136594398Y-93481500D01*
X136594400Y-93481500D01*
X137355600Y-93481500D01*
X137355602Y-93481500D01*
X137444064Y-93470877D01*
X137584842Y-93415361D01*
X137705422Y-93323922D01*
X137796861Y-93203342D01*
X137852377Y-93062564D01*
X137857644Y-93018696D01*
X137883356Y-92963175D01*
X137936791Y-92933369D01*
X137955939Y-92931500D01*
X138241229Y-92931500D01*
X138262272Y-92933762D01*
X138268729Y-92935167D01*
X138310833Y-92932155D01*
X138318234Y-92931626D01*
X138321767Y-92931500D01*
X138337009Y-92931500D01*
X138337011Y-92931500D01*
X138352119Y-92929327D01*
X138355614Y-92928951D01*
X138405115Y-92925411D01*
X138411295Y-92923105D01*
X138431803Y-92917870D01*
X138438342Y-92916931D01*
X138483478Y-92896317D01*
X138486723Y-92894972D01*
X138533226Y-92877629D01*
X138538510Y-92873672D01*
X138556713Y-92862872D01*
X138562718Y-92860130D01*
X138600224Y-92827629D01*
X138602949Y-92825433D01*
X138615180Y-92816279D01*
X138625992Y-92805465D01*
X138628529Y-92803103D01*
X138666055Y-92770589D01*
X138669624Y-92765034D01*
X138682900Y-92748557D01*
X140150962Y-91280496D01*
X140205480Y-91252719D01*
X140220967Y-91251500D01*
X140293053Y-91251500D01*
X140293056Y-91251500D01*
X140458225Y-91210790D01*
X140604492Y-91134021D01*
X140664804Y-91123721D01*
X140719652Y-91150837D01*
X140748087Y-91205014D01*
X140749500Y-91221682D01*
X140749500Y-94921913D01*
X140749189Y-94927459D01*
X140744730Y-94967034D01*
X140744730Y-94967038D01*
X140755616Y-95024573D01*
X140755926Y-95026397D01*
X140764652Y-95084287D01*
X140766840Y-95091381D01*
X140766417Y-95091511D01*
X140767109Y-95093613D01*
X140767526Y-95093468D01*
X140769975Y-95100468D01*
X140797338Y-95152242D01*
X140798172Y-95153894D01*
X140823574Y-95206641D01*
X140827753Y-95212770D01*
X140827389Y-95213017D01*
X140828677Y-95214831D01*
X140829030Y-95214571D01*
X140833434Y-95220538D01*
X140874854Y-95261959D01*
X140876138Y-95263292D01*
X140915944Y-95306194D01*
X140921743Y-95310818D01*
X140921467Y-95311163D01*
X140932600Y-95319704D01*
X141795504Y-96182607D01*
X141823281Y-96237124D01*
X141824500Y-96252611D01*
X141824500Y-97331908D01*
X141824501Y-97331912D01*
X141830781Y-97390336D01*
X141830781Y-97390339D01*
X141880070Y-97522488D01*
X141880071Y-97522489D01*
X141964597Y-97635403D01*
X142039590Y-97691541D01*
X142077512Y-97719930D01*
X142209659Y-97769217D01*
X142209660Y-97769217D01*
X142209665Y-97769219D01*
X142268085Y-97775500D01*
X142931914Y-97775499D01*
X142990335Y-97769219D01*
X142990338Y-97769218D01*
X142990339Y-97769218D01*
X143065498Y-97741184D01*
X143122489Y-97719929D01*
X143235403Y-97635403D01*
X143319929Y-97522489D01*
X143320858Y-97520000D01*
X143369217Y-97390340D01*
X143369216Y-97390340D01*
X143369219Y-97390335D01*
X143375500Y-97331915D01*
X143375500Y-97331908D01*
X144924500Y-97331908D01*
X144924501Y-97331912D01*
X144930781Y-97390336D01*
X144930781Y-97390339D01*
X144980070Y-97522488D01*
X144980071Y-97522489D01*
X145064597Y-97635403D01*
X145139590Y-97691541D01*
X145177512Y-97719930D01*
X145309659Y-97769217D01*
X145309660Y-97769217D01*
X145309665Y-97769219D01*
X145368085Y-97775500D01*
X146031914Y-97775499D01*
X146090335Y-97769219D01*
X146090338Y-97769218D01*
X146090339Y-97769218D01*
X146165498Y-97741184D01*
X146222489Y-97719929D01*
X146335403Y-97635403D01*
X146419929Y-97522489D01*
X146420858Y-97520000D01*
X146469217Y-97390340D01*
X146469216Y-97390340D01*
X146469219Y-97390335D01*
X146475500Y-97331915D01*
X146475500Y-96949500D01*
X146494407Y-96891309D01*
X146543907Y-96855345D01*
X146574500Y-96850500D01*
X146906561Y-96850500D01*
X146964752Y-96869407D01*
X147000716Y-96918907D01*
X147004855Y-96937696D01*
X147010123Y-96981565D01*
X147065637Y-97122339D01*
X147065638Y-97122341D01*
X147065639Y-97122342D01*
X147157078Y-97242922D01*
X147277658Y-97334361D01*
X147277659Y-97334361D01*
X147277660Y-97334362D01*
X147348046Y-97362119D01*
X147418436Y-97389877D01*
X147506898Y-97400500D01*
X147506900Y-97400500D01*
X148293100Y-97400500D01*
X148293102Y-97400500D01*
X148381564Y-97389877D01*
X148522342Y-97334361D01*
X148642922Y-97242922D01*
X148734361Y-97122342D01*
X148789877Y-96981564D01*
X148800500Y-96893102D01*
X148800500Y-95906898D01*
X148789877Y-95818436D01*
X148734361Y-95677658D01*
X148642922Y-95557078D01*
X148522342Y-95465639D01*
X148522341Y-95465638D01*
X148522339Y-95465637D01*
X148381565Y-95410123D01*
X148293106Y-95399500D01*
X148293102Y-95399500D01*
X147506898Y-95399500D01*
X147506893Y-95399500D01*
X147418434Y-95410123D01*
X147277660Y-95465637D01*
X147277656Y-95465640D01*
X147157081Y-95557075D01*
X147157075Y-95557081D01*
X147065640Y-95677656D01*
X147065637Y-95677660D01*
X147010123Y-95818434D01*
X147004855Y-95862304D01*
X146979144Y-95917825D01*
X146925709Y-95947631D01*
X146906561Y-95949500D01*
X146573179Y-95949500D01*
X146514988Y-95930593D01*
X146479024Y-95881093D01*
X146474746Y-95861081D01*
X146472530Y-95840468D01*
X146469219Y-95809665D01*
X146469218Y-95809662D01*
X146469218Y-95809660D01*
X146419929Y-95677511D01*
X146419603Y-95677075D01*
X146335403Y-95564597D01*
X146298330Y-95536844D01*
X146222487Y-95480069D01*
X146090340Y-95430782D01*
X146090335Y-95430781D01*
X146090333Y-95430780D01*
X146090329Y-95430780D01*
X146059724Y-95427489D01*
X146031915Y-95424500D01*
X146031912Y-95424500D01*
X145368091Y-95424500D01*
X145368087Y-95424500D01*
X145368086Y-95424501D01*
X145348612Y-95426594D01*
X145309663Y-95430781D01*
X145309660Y-95430781D01*
X145177511Y-95480070D01*
X145064599Y-95564595D01*
X145064595Y-95564599D01*
X144980069Y-95677512D01*
X144930782Y-95809659D01*
X144930780Y-95809670D01*
X144924500Y-95868087D01*
X144924500Y-97331908D01*
X143375500Y-97331908D01*
X143375499Y-95868086D01*
X143369219Y-95809665D01*
X143369218Y-95809662D01*
X143369218Y-95809660D01*
X143319929Y-95677511D01*
X143319603Y-95677075D01*
X143235403Y-95564597D01*
X143198330Y-95536844D01*
X143122487Y-95480069D01*
X142990340Y-95430782D01*
X142990335Y-95430781D01*
X142990333Y-95430780D01*
X142990329Y-95430780D01*
X142959724Y-95427489D01*
X142931915Y-95424500D01*
X142931912Y-95424500D01*
X142352611Y-95424500D01*
X142294420Y-95405593D01*
X142282607Y-95395504D01*
X141679496Y-94792393D01*
X141651719Y-94737876D01*
X141650500Y-94722389D01*
X141650500Y-94355705D01*
X141669407Y-94297514D01*
X141718907Y-94261550D01*
X141780093Y-94261550D01*
X141829593Y-94297514D01*
X141842258Y-94321108D01*
X141880070Y-94422488D01*
X141880071Y-94422489D01*
X141964597Y-94535403D01*
X142029140Y-94583719D01*
X142077512Y-94619930D01*
X142209659Y-94669217D01*
X142209660Y-94669217D01*
X142209665Y-94669219D01*
X142268085Y-94675500D01*
X142931914Y-94675499D01*
X142990335Y-94669219D01*
X142990338Y-94669218D01*
X142990339Y-94669218D01*
X143065498Y-94641184D01*
X143122489Y-94619929D01*
X143235403Y-94535403D01*
X143319929Y-94422489D01*
X143369219Y-94290335D01*
X143375500Y-94231915D01*
X143375500Y-94231908D01*
X144924500Y-94231908D01*
X144924501Y-94231912D01*
X144930781Y-94290336D01*
X144930781Y-94290339D01*
X144980070Y-94422488D01*
X144980071Y-94422489D01*
X145064597Y-94535403D01*
X145129140Y-94583719D01*
X145177512Y-94619930D01*
X145309659Y-94669217D01*
X145309660Y-94669217D01*
X145309665Y-94669219D01*
X145368085Y-94675500D01*
X146031914Y-94675499D01*
X146090335Y-94669219D01*
X146090338Y-94669218D01*
X146090339Y-94669218D01*
X146165498Y-94641184D01*
X146222489Y-94619929D01*
X146335403Y-94535403D01*
X146419929Y-94422489D01*
X146469219Y-94290335D01*
X146475500Y-94231915D01*
X146475500Y-94049499D01*
X146494407Y-93991309D01*
X146543907Y-93955345D01*
X146574500Y-93950500D01*
X146906561Y-93950500D01*
X146964752Y-93969407D01*
X147000716Y-94018907D01*
X147004855Y-94037696D01*
X147010123Y-94081565D01*
X147065637Y-94222339D01*
X147065638Y-94222341D01*
X147065639Y-94222342D01*
X147157078Y-94342922D01*
X147277658Y-94434361D01*
X147277659Y-94434361D01*
X147277660Y-94434362D01*
X147348046Y-94462119D01*
X147418436Y-94489877D01*
X147506898Y-94500500D01*
X147506900Y-94500500D01*
X148293100Y-94500500D01*
X148293102Y-94500500D01*
X148381564Y-94489877D01*
X148522342Y-94434361D01*
X148642922Y-94342922D01*
X148734361Y-94222342D01*
X148789877Y-94081564D01*
X148800500Y-93993102D01*
X148800500Y-93006898D01*
X148789877Y-92918436D01*
X148749591Y-92816279D01*
X148734362Y-92777660D01*
X148734361Y-92777659D01*
X148734361Y-92777658D01*
X148642922Y-92657078D01*
X148522342Y-92565639D01*
X148522341Y-92565638D01*
X148522339Y-92565637D01*
X148381565Y-92510123D01*
X148293106Y-92499500D01*
X148293102Y-92499500D01*
X147506898Y-92499500D01*
X147506893Y-92499500D01*
X147418434Y-92510123D01*
X147277660Y-92565637D01*
X147277656Y-92565640D01*
X147157081Y-92657075D01*
X147157075Y-92657081D01*
X147065640Y-92777656D01*
X147065637Y-92777660D01*
X147010123Y-92918434D01*
X147004855Y-92962304D01*
X146979144Y-93017825D01*
X146925709Y-93047631D01*
X146906561Y-93049500D01*
X146574499Y-93049500D01*
X146516308Y-93030593D01*
X146480344Y-92981093D01*
X146475499Y-92950500D01*
X146475499Y-92768091D01*
X146475499Y-92768086D01*
X146469219Y-92709665D01*
X146469218Y-92709662D01*
X146469218Y-92709660D01*
X146419929Y-92577511D01*
X146416161Y-92572477D01*
X146335403Y-92464597D01*
X146256070Y-92405209D01*
X146222487Y-92380069D01*
X146090340Y-92330782D01*
X146090335Y-92330781D01*
X146090333Y-92330780D01*
X146090329Y-92330780D01*
X146059724Y-92327489D01*
X146031915Y-92324500D01*
X146031912Y-92324500D01*
X145368091Y-92324500D01*
X145368087Y-92324500D01*
X145368086Y-92324501D01*
X145350504Y-92326391D01*
X145309663Y-92330781D01*
X145309660Y-92330781D01*
X145177511Y-92380070D01*
X145064599Y-92464595D01*
X145064595Y-92464599D01*
X144980069Y-92577512D01*
X144930782Y-92709659D01*
X144930780Y-92709670D01*
X144924500Y-92768087D01*
X144924500Y-94231908D01*
X143375500Y-94231908D01*
X143375499Y-92768086D01*
X143369219Y-92709665D01*
X143369218Y-92709662D01*
X143369218Y-92709660D01*
X143319929Y-92577511D01*
X143316161Y-92572477D01*
X143235403Y-92464597D01*
X143156070Y-92405209D01*
X143122487Y-92380069D01*
X142990340Y-92330782D01*
X142990335Y-92330781D01*
X142990333Y-92330780D01*
X142990329Y-92330780D01*
X142959724Y-92327489D01*
X142931915Y-92324500D01*
X142931912Y-92324500D01*
X142349500Y-92324500D01*
X142291309Y-92305593D01*
X142255345Y-92256093D01*
X142250500Y-92225500D01*
X142250500Y-90634219D01*
X142269407Y-90576028D01*
X142318907Y-90540064D01*
X142380093Y-90540064D01*
X142389475Y-90543649D01*
X142455009Y-90572585D01*
X142480135Y-90575500D01*
X144319864Y-90575499D01*
X144344991Y-90572585D01*
X144447765Y-90527206D01*
X144527206Y-90447765D01*
X144572585Y-90344991D01*
X144575500Y-90319865D01*
X144575499Y-89780136D01*
X144572585Y-89755009D01*
X144571492Y-89750992D01*
X144571491Y-89699010D01*
X144572581Y-89694999D01*
X144572585Y-89694991D01*
X144575500Y-89669865D01*
X144575499Y-89130136D01*
X144572585Y-89105009D01*
X144572584Y-89105007D01*
X144572584Y-89105004D01*
X144571228Y-89100018D01*
X144571229Y-89048038D01*
X144572090Y-89044871D01*
X144574999Y-89019797D01*
X144575000Y-89019795D01*
X144575000Y-88900001D01*
X144574999Y-88900000D01*
X144417025Y-88900000D01*
X144377038Y-88891565D01*
X144344991Y-88877415D01*
X144344988Y-88877414D01*
X144319869Y-88874500D01*
X143349000Y-88874500D01*
X143290809Y-88855593D01*
X143254845Y-88806093D01*
X143250000Y-88775500D01*
X143250000Y-88250000D01*
X143550000Y-88250000D01*
X143550000Y-88599999D01*
X143550001Y-88600000D01*
X144574998Y-88600000D01*
X144574999Y-88599998D01*
X144574999Y-88480209D01*
X144574998Y-88480208D01*
X144572090Y-88455126D01*
X144570966Y-88450995D01*
X144570965Y-88399006D01*
X144572090Y-88394868D01*
X144574999Y-88369797D01*
X144575000Y-88369795D01*
X144575000Y-88250000D01*
X143550000Y-88250000D01*
X143250000Y-88250000D01*
X143250000Y-88074499D01*
X143268907Y-88016308D01*
X143318407Y-87980344D01*
X143348996Y-87975499D01*
X144319864Y-87975499D01*
X144344991Y-87972585D01*
X144377038Y-87958434D01*
X144417025Y-87950000D01*
X144574998Y-87950000D01*
X144574999Y-87949998D01*
X144574999Y-87830209D01*
X144574998Y-87830208D01*
X144572089Y-87805122D01*
X144571228Y-87801955D01*
X144571228Y-87749977D01*
X144572582Y-87744997D01*
X144572585Y-87744991D01*
X144575500Y-87719865D01*
X144575499Y-87180136D01*
X144572585Y-87155009D01*
X144571492Y-87150992D01*
X144571491Y-87099010D01*
X144572581Y-87094999D01*
X144572585Y-87094991D01*
X144575500Y-87069865D01*
X144575499Y-86530136D01*
X144572585Y-86505009D01*
X144572584Y-86505006D01*
X144571492Y-86500992D01*
X144571491Y-86449010D01*
X144572581Y-86444999D01*
X144572585Y-86444991D01*
X144575500Y-86419865D01*
X144575499Y-85880136D01*
X144572585Y-85855009D01*
X144572584Y-85855007D01*
X144572584Y-85855004D01*
X144571228Y-85850018D01*
X144571229Y-85798038D01*
X144572090Y-85794871D01*
X144574999Y-85769797D01*
X144575000Y-85769795D01*
X144575000Y-85650001D01*
X144574999Y-85650000D01*
X144417025Y-85650000D01*
X144377038Y-85641565D01*
X144344991Y-85627415D01*
X144344988Y-85627414D01*
X144319869Y-85624500D01*
X143349000Y-85624500D01*
X143290809Y-85605593D01*
X143254845Y-85556093D01*
X143250000Y-85525500D01*
X143250000Y-85474499D01*
X143268907Y-85416308D01*
X143318407Y-85380344D01*
X143348996Y-85375499D01*
X144319864Y-85375499D01*
X144344991Y-85372585D01*
X144377038Y-85358434D01*
X144417025Y-85350000D01*
X144579326Y-85350000D01*
X144625019Y-85326719D01*
X144640506Y-85325500D01*
X145525500Y-85325500D01*
X145583691Y-85344407D01*
X145619655Y-85393907D01*
X145624500Y-85424500D01*
X145624500Y-88838226D01*
X145622238Y-88859269D01*
X145620833Y-88865729D01*
X145621651Y-88877158D01*
X145624374Y-88915232D01*
X145624500Y-88918764D01*
X145624500Y-88934019D01*
X145626669Y-88949111D01*
X145627046Y-88952619D01*
X145630588Y-89002115D01*
X145630589Y-89002117D01*
X145632896Y-89008303D01*
X145638127Y-89028796D01*
X145639068Y-89035339D01*
X145639069Y-89035343D01*
X145659681Y-89080477D01*
X145661033Y-89083742D01*
X145678369Y-89130222D01*
X145678370Y-89130223D01*
X145678371Y-89130226D01*
X145681058Y-89133816D01*
X145682332Y-89135518D01*
X145693123Y-89153704D01*
X145695870Y-89159718D01*
X145728368Y-89197224D01*
X145730575Y-89199962D01*
X145739722Y-89212181D01*
X145750509Y-89222969D01*
X145752916Y-89225554D01*
X145785409Y-89263053D01*
X145785411Y-89263055D01*
X145790966Y-89266624D01*
X145807444Y-89279903D01*
X149107915Y-92580374D01*
X149135692Y-92634891D01*
X149126121Y-92695323D01*
X149116795Y-92710196D01*
X149065642Y-92777652D01*
X149065637Y-92777660D01*
X149010123Y-92918434D01*
X148999500Y-93006893D01*
X148999500Y-93993106D01*
X149010123Y-94081565D01*
X149065637Y-94222339D01*
X149065638Y-94222341D01*
X149065639Y-94222342D01*
X149157078Y-94342922D01*
X149277658Y-94434361D01*
X149361821Y-94467551D01*
X149409016Y-94506484D01*
X149424500Y-94559646D01*
X149424500Y-95340352D01*
X149405593Y-95398543D01*
X149361820Y-95432449D01*
X149277658Y-95465639D01*
X149277656Y-95465640D01*
X149157081Y-95557075D01*
X149157075Y-95557081D01*
X149065640Y-95677656D01*
X149065637Y-95677660D01*
X149010123Y-95818434D01*
X148999500Y-95906893D01*
X148999500Y-96893106D01*
X149010123Y-96981565D01*
X149065637Y-97122339D01*
X149065638Y-97122341D01*
X149065639Y-97122342D01*
X149157078Y-97242922D01*
X149277658Y-97334361D01*
X149277659Y-97334361D01*
X149277660Y-97334362D01*
X149348046Y-97362119D01*
X149418436Y-97389877D01*
X149506898Y-97400500D01*
X149506900Y-97400500D01*
X150293100Y-97400500D01*
X150293102Y-97400500D01*
X150381564Y-97389877D01*
X150522342Y-97334361D01*
X150642922Y-97242922D01*
X150734361Y-97122342D01*
X150789877Y-96981564D01*
X150800500Y-96893102D01*
X150800500Y-96674499D01*
X150819407Y-96616309D01*
X150868907Y-96580345D01*
X150899500Y-96575500D01*
X151453611Y-96575500D01*
X151511802Y-96594407D01*
X151543662Y-96633370D01*
X151596969Y-96750095D01*
X151596970Y-96750096D01*
X151596974Y-96750104D01*
X151644004Y-96823285D01*
X151644013Y-96823298D01*
X151738155Y-96931944D01*
X151738164Y-96931954D01*
X151738171Y-96931960D01*
X151738173Y-96931962D01*
X151803921Y-96988933D01*
X151803933Y-96988942D01*
X151924870Y-97066663D01*
X151924875Y-97066666D01*
X151924880Y-97066669D01*
X152004029Y-97102815D01*
X152141984Y-97143322D01*
X152170692Y-97147449D01*
X152228107Y-97155705D01*
X152228111Y-97155705D01*
X152850005Y-97155705D01*
X152864103Y-97155053D01*
X152878207Y-97154401D01*
X152945529Y-97135246D01*
X153006672Y-97137507D01*
X153012607Y-97139902D01*
X153020354Y-97143322D01*
X153030009Y-97147585D01*
X153055135Y-97150500D01*
X154144864Y-97150499D01*
X154169991Y-97147585D01*
X154182565Y-97142032D01*
X154240747Y-97135282D01*
X154350000Y-97155705D01*
X154971893Y-97155705D01*
X155021104Y-97148629D01*
X155058016Y-97143322D01*
X155195971Y-97102815D01*
X155275120Y-97066669D01*
X155396074Y-96988937D01*
X155461836Y-96931954D01*
X155555990Y-96823293D01*
X155603031Y-96750095D01*
X155662759Y-96619310D01*
X155687273Y-96535822D01*
X155698514Y-96457643D01*
X155707735Y-96393511D01*
X155707735Y-96306493D01*
X155706713Y-96299387D01*
X155705705Y-96285294D01*
X155705705Y-96007762D01*
X155724612Y-95949571D01*
X155734701Y-95937758D01*
X157060963Y-94611496D01*
X157115480Y-94583719D01*
X157130967Y-94582500D01*
X158065817Y-94582500D01*
X158124008Y-94601407D01*
X158131465Y-94607396D01*
X158222148Y-94687734D01*
X158372775Y-94766790D01*
X158537944Y-94807500D01*
X158537947Y-94807500D01*
X158708053Y-94807500D01*
X158708056Y-94807500D01*
X158873225Y-94766790D01*
X159023852Y-94687734D01*
X159151183Y-94574929D01*
X159247818Y-94434930D01*
X159308140Y-94275872D01*
X159328645Y-94107000D01*
X159325556Y-94081564D01*
X159320230Y-94037696D01*
X159308140Y-93938128D01*
X159247818Y-93779070D01*
X159151183Y-93639071D01*
X159146435Y-93634865D01*
X159023853Y-93526267D01*
X159023852Y-93526266D01*
X158873225Y-93447210D01*
X158873224Y-93447209D01*
X158873223Y-93447209D01*
X158708058Y-93406500D01*
X158708056Y-93406500D01*
X158537944Y-93406500D01*
X158537941Y-93406500D01*
X158372776Y-93447209D01*
X158222146Y-93526267D01*
X158131466Y-93606603D01*
X158075372Y-93631038D01*
X158065817Y-93631500D01*
X156954771Y-93631500D01*
X156933727Y-93629237D01*
X156927271Y-93627833D01*
X156927270Y-93627833D01*
X156877766Y-93631374D01*
X156874233Y-93631500D01*
X156858988Y-93631500D01*
X156843887Y-93633669D01*
X156840380Y-93634046D01*
X156790886Y-93637588D01*
X156790881Y-93637589D01*
X156784688Y-93639899D01*
X156764203Y-93645127D01*
X156757657Y-93646068D01*
X156712526Y-93666679D01*
X156709262Y-93668031D01*
X156662774Y-93685370D01*
X156662772Y-93685371D01*
X156657479Y-93689333D01*
X156639294Y-93700123D01*
X156633282Y-93702869D01*
X156595790Y-93735355D01*
X156593042Y-93737570D01*
X156580819Y-93746721D01*
X156570033Y-93757506D01*
X156567450Y-93759910D01*
X156529943Y-93792412D01*
X156526375Y-93797965D01*
X156513097Y-93814442D01*
X155264085Y-95063454D01*
X155209568Y-95091231D01*
X155166190Y-95088440D01*
X155058017Y-95056678D01*
X155058013Y-95056677D01*
X154971893Y-95044295D01*
X154971889Y-95044295D01*
X154350000Y-95044295D01*
X154349995Y-95044295D01*
X154321801Y-95045598D01*
X154321793Y-95045598D01*
X154321793Y-95045599D01*
X154321792Y-95045599D01*
X154321786Y-95045600D01*
X154254469Y-95064753D01*
X154193325Y-95062491D01*
X154187392Y-95060097D01*
X154169998Y-95052417D01*
X154169988Y-95052414D01*
X154144869Y-95049500D01*
X154144865Y-95049500D01*
X154133173Y-95049500D01*
X154074982Y-95030593D01*
X154039018Y-94981093D01*
X154035514Y-94966254D01*
X154035348Y-94965718D01*
X154035348Y-94965713D01*
X154035345Y-94965708D01*
X154033160Y-94958622D01*
X154033582Y-94958491D01*
X154032890Y-94956388D01*
X154032474Y-94956534D01*
X154030022Y-94949525D01*
X154002655Y-94897747D01*
X154001848Y-94896150D01*
X153976425Y-94843358D01*
X153976423Y-94843356D01*
X153972247Y-94837230D01*
X153972610Y-94836982D01*
X153971324Y-94835168D01*
X153970970Y-94835430D01*
X153966567Y-94829465D01*
X153966566Y-94829462D01*
X153958792Y-94821688D01*
X153925143Y-94788038D01*
X153923859Y-94786705D01*
X153884059Y-94743810D01*
X153884057Y-94743809D01*
X153884055Y-94743806D01*
X153884051Y-94743803D01*
X153878259Y-94739185D01*
X153878533Y-94738840D01*
X153867400Y-94730296D01*
X152187103Y-93049999D01*
X160650000Y-93049999D01*
X160650001Y-93050000D01*
X161272664Y-93050000D01*
X161246190Y-93165992D01*
X161256327Y-93301265D01*
X161275454Y-93350000D01*
X160650002Y-93350000D01*
X160650001Y-93350001D01*
X160650001Y-93994791D01*
X160652909Y-94019874D01*
X160698213Y-94122477D01*
X160777522Y-94201786D01*
X160880127Y-94247090D01*
X160905203Y-94249999D01*
X161549998Y-94249999D01*
X161550000Y-94249998D01*
X161550000Y-93624653D01*
X161632173Y-93650000D01*
X161733724Y-93650000D01*
X161834138Y-93634865D01*
X161850000Y-93627226D01*
X161850000Y-94249998D01*
X161850001Y-94249999D01*
X162494790Y-94249999D01*
X162494791Y-94249998D01*
X162519874Y-94247090D01*
X162622477Y-94201786D01*
X162701786Y-94122477D01*
X162747090Y-94019872D01*
X162749999Y-93994797D01*
X162750000Y-93994794D01*
X162750000Y-93350001D01*
X162749999Y-93350000D01*
X162127336Y-93350000D01*
X162153810Y-93234008D01*
X162143673Y-93098735D01*
X162124546Y-93050000D01*
X162749998Y-93050000D01*
X162749999Y-93049999D01*
X162749999Y-92405209D01*
X162749998Y-92405208D01*
X162747090Y-92380125D01*
X162701786Y-92277522D01*
X162622477Y-92198213D01*
X162519872Y-92152909D01*
X162494797Y-92150000D01*
X161850001Y-92150000D01*
X161850000Y-92150001D01*
X161850000Y-92775346D01*
X161767827Y-92750000D01*
X161666276Y-92750000D01*
X161565862Y-92765135D01*
X161550000Y-92772773D01*
X161550000Y-92150001D01*
X161549999Y-92150000D01*
X160905210Y-92150000D01*
X160905207Y-92150001D01*
X160880125Y-92152909D01*
X160777522Y-92198213D01*
X160698213Y-92277522D01*
X160652909Y-92380127D01*
X160650000Y-92405202D01*
X160650000Y-93049999D01*
X152187103Y-93049999D01*
X151067107Y-91930003D01*
X158104417Y-91930003D01*
X158124698Y-92135929D01*
X158124699Y-92135934D01*
X158184768Y-92333954D01*
X158282316Y-92516452D01*
X158355806Y-92606000D01*
X158413590Y-92676410D01*
X158413595Y-92676414D01*
X158573547Y-92807683D01*
X158573548Y-92807683D01*
X158573550Y-92807685D01*
X158756046Y-92905232D01*
X158893996Y-92947078D01*
X158954065Y-92965300D01*
X158954070Y-92965301D01*
X159159997Y-92985583D01*
X159160000Y-92985583D01*
X159160003Y-92985583D01*
X159365929Y-92965301D01*
X159365934Y-92965300D01*
X159372939Y-92963175D01*
X159563954Y-92905232D01*
X159746450Y-92807685D01*
X159906410Y-92676410D01*
X160037685Y-92516450D01*
X160135232Y-92333954D01*
X160195300Y-92135934D01*
X160195301Y-92135929D01*
X160215583Y-91930003D01*
X160215583Y-91929996D01*
X160195301Y-91724070D01*
X160195300Y-91724065D01*
X160168353Y-91635232D01*
X160135232Y-91526046D01*
X160037685Y-91343550D01*
X160003854Y-91302327D01*
X159906414Y-91183595D01*
X159906410Y-91183590D01*
X159882000Y-91163557D01*
X159746452Y-91052316D01*
X159563954Y-90954768D01*
X159365934Y-90894699D01*
X159365929Y-90894698D01*
X159160003Y-90874417D01*
X159159997Y-90874417D01*
X158954070Y-90894698D01*
X158954065Y-90894699D01*
X158756045Y-90954768D01*
X158573547Y-91052316D01*
X158413595Y-91183585D01*
X158413585Y-91183595D01*
X158282316Y-91343547D01*
X158184768Y-91526045D01*
X158124699Y-91724065D01*
X158124698Y-91724070D01*
X158104417Y-91929996D01*
X158104417Y-91930003D01*
X151067107Y-91930003D01*
X149881607Y-90744503D01*
X149853830Y-90689986D01*
X149858579Y-90660003D01*
X160644417Y-90660003D01*
X160664698Y-90865929D01*
X160664699Y-90865934D01*
X160724768Y-91063954D01*
X160822316Y-91246452D01*
X160932517Y-91380732D01*
X160953590Y-91406410D01*
X160964424Y-91415301D01*
X161113547Y-91537683D01*
X161113548Y-91537683D01*
X161113550Y-91537685D01*
X161296046Y-91635232D01*
X161427089Y-91674983D01*
X161494065Y-91695300D01*
X161494070Y-91695301D01*
X161699997Y-91715583D01*
X161700000Y-91715583D01*
X161700003Y-91715583D01*
X161905929Y-91695301D01*
X161905934Y-91695300D01*
X161905933Y-91695299D01*
X162103954Y-91635232D01*
X162286450Y-91537685D01*
X162446410Y-91406410D01*
X162577685Y-91246450D01*
X162675232Y-91063954D01*
X162735300Y-90865934D01*
X162735301Y-90865929D01*
X162755583Y-90660003D01*
X162755583Y-90659996D01*
X162735301Y-90454070D01*
X162735300Y-90454065D01*
X162694591Y-90319865D01*
X162675232Y-90256046D01*
X162577685Y-90073550D01*
X162558745Y-90050472D01*
X162446414Y-89913595D01*
X162446410Y-89913590D01*
X162389285Y-89866709D01*
X162286452Y-89782316D01*
X162103954Y-89684768D01*
X161905934Y-89624699D01*
X161905929Y-89624698D01*
X161700003Y-89604417D01*
X161699997Y-89604417D01*
X161494070Y-89624698D01*
X161494065Y-89624699D01*
X161296045Y-89684768D01*
X161113547Y-89782316D01*
X160953595Y-89913585D01*
X160953585Y-89913595D01*
X160822316Y-90073547D01*
X160724768Y-90256045D01*
X160664699Y-90454065D01*
X160664698Y-90454070D01*
X160644417Y-90659996D01*
X160644417Y-90660003D01*
X149858579Y-90660003D01*
X149863401Y-90629554D01*
X149906666Y-90586289D01*
X149951611Y-90575499D01*
X151519861Y-90575499D01*
X151519864Y-90575499D01*
X151544991Y-90572585D01*
X151647765Y-90527206D01*
X151678205Y-90496765D01*
X151701942Y-90479245D01*
X151752253Y-90452655D01*
X151753906Y-90451821D01*
X151774056Y-90442116D01*
X151806642Y-90426425D01*
X151806646Y-90426421D01*
X151812778Y-90422242D01*
X151813028Y-90422609D01*
X151814832Y-90421329D01*
X151814568Y-90420971D01*
X151820530Y-90416569D01*
X151820538Y-90416566D01*
X151861996Y-90375106D01*
X151863248Y-90373901D01*
X151906194Y-90334055D01*
X151906197Y-90334048D01*
X151910820Y-90328253D01*
X151911166Y-90328529D01*
X151919703Y-90317399D01*
X152847099Y-89390004D01*
X158104919Y-89390004D01*
X158125190Y-89595830D01*
X158125191Y-89595836D01*
X158185232Y-89793762D01*
X158185234Y-89793767D01*
X158282724Y-89976160D01*
X158282731Y-89976170D01*
X158318324Y-90019541D01*
X158753044Y-89584820D01*
X158765887Y-89617541D01*
X158850465Y-89723599D01*
X158962290Y-89799840D01*
X158530457Y-90231674D01*
X158573828Y-90267268D01*
X158573834Y-90267272D01*
X158756232Y-90364765D01*
X158756237Y-90364767D01*
X158954163Y-90424808D01*
X158954169Y-90424809D01*
X159159996Y-90445081D01*
X159160004Y-90445081D01*
X159365830Y-90424809D01*
X159365836Y-90424808D01*
X159563762Y-90364767D01*
X159563767Y-90364765D01*
X159746166Y-90267270D01*
X159746177Y-90267263D01*
X159789541Y-90231674D01*
X159353935Y-89796068D01*
X159416357Y-89766007D01*
X159515798Y-89673740D01*
X159567068Y-89584935D01*
X160001674Y-90019541D01*
X160037263Y-89976177D01*
X160037270Y-89976166D01*
X160134765Y-89793767D01*
X160134767Y-89793762D01*
X160194808Y-89595836D01*
X160194809Y-89595830D01*
X160215081Y-89390004D01*
X160215081Y-89389995D01*
X160194809Y-89184169D01*
X160194808Y-89184163D01*
X160134767Y-88986237D01*
X160134765Y-88986232D01*
X160037272Y-88803834D01*
X160037268Y-88803828D01*
X160001674Y-88760457D01*
X159566953Y-89195177D01*
X159554113Y-89162459D01*
X159469535Y-89056401D01*
X159357707Y-88980157D01*
X159789541Y-88548324D01*
X159746170Y-88512731D01*
X159746160Y-88512724D01*
X159563767Y-88415234D01*
X159563762Y-88415232D01*
X159365836Y-88355191D01*
X159365830Y-88355190D01*
X159160004Y-88334919D01*
X159159996Y-88334919D01*
X158954169Y-88355190D01*
X158954163Y-88355191D01*
X158756237Y-88415232D01*
X158756232Y-88415234D01*
X158573834Y-88512728D01*
X158573824Y-88512734D01*
X158530457Y-88548324D01*
X158966064Y-88983931D01*
X158903643Y-89013993D01*
X158804202Y-89106260D01*
X158752931Y-89195064D01*
X158318324Y-88760457D01*
X158282734Y-88803824D01*
X158282728Y-88803834D01*
X158185234Y-88986232D01*
X158185232Y-88986237D01*
X158125191Y-89184163D01*
X158125190Y-89184169D01*
X158104919Y-89389995D01*
X158104919Y-89390004D01*
X152847099Y-89390004D01*
X153607607Y-88629496D01*
X153662124Y-88601719D01*
X153677611Y-88600500D01*
X157831913Y-88600500D01*
X157837459Y-88600811D01*
X157877035Y-88605270D01*
X157934584Y-88594380D01*
X157936400Y-88594072D01*
X157994287Y-88585348D01*
X157994290Y-88585346D01*
X158001381Y-88583159D01*
X158001512Y-88583584D01*
X158003613Y-88582892D01*
X158003467Y-88582473D01*
X158010463Y-88580024D01*
X158010472Y-88580023D01*
X158042109Y-88563301D01*
X158062252Y-88552656D01*
X158063906Y-88551821D01*
X158084056Y-88542116D01*
X158116642Y-88526425D01*
X158116646Y-88526421D01*
X158122778Y-88522242D01*
X158123028Y-88522609D01*
X158124832Y-88521329D01*
X158124568Y-88520971D01*
X158130530Y-88516569D01*
X158130538Y-88516566D01*
X158171996Y-88475106D01*
X158173248Y-88473901D01*
X158216194Y-88434055D01*
X158216197Y-88434048D01*
X158220820Y-88428253D01*
X158221166Y-88428529D01*
X158229703Y-88417399D01*
X158764594Y-87882508D01*
X158819109Y-87854733D01*
X158863334Y-87857777D01*
X158954065Y-87885300D01*
X158954070Y-87885301D01*
X159159997Y-87905583D01*
X159160000Y-87905583D01*
X159160003Y-87905583D01*
X159365929Y-87885301D01*
X159365934Y-87885300D01*
X159365934Y-87885299D01*
X159563954Y-87825232D01*
X159746450Y-87727685D01*
X159906410Y-87596410D01*
X160037685Y-87436450D01*
X160135232Y-87253954D01*
X160195300Y-87055934D01*
X160197249Y-87036154D01*
X160205623Y-86951127D01*
X160212757Y-86878687D01*
X160237276Y-86822631D01*
X160290063Y-86791692D01*
X160350954Y-86797689D01*
X160381284Y-86818388D01*
X160882432Y-87319535D01*
X160910209Y-87374052D01*
X160900638Y-87434484D01*
X160888957Y-87452342D01*
X160822320Y-87533542D01*
X160822316Y-87533547D01*
X160724768Y-87716045D01*
X160664699Y-87914065D01*
X160664698Y-87914070D01*
X160644417Y-88119996D01*
X160644417Y-88120003D01*
X160664698Y-88325929D01*
X160664699Y-88325934D01*
X160724768Y-88523954D01*
X160822316Y-88706452D01*
X160953029Y-88865727D01*
X160953590Y-88866410D01*
X160967000Y-88877415D01*
X161113547Y-88997683D01*
X161113548Y-88997683D01*
X161113550Y-88997685D01*
X161296046Y-89095232D01*
X161416003Y-89131620D01*
X161494065Y-89155300D01*
X161494070Y-89155301D01*
X161699997Y-89175583D01*
X161700000Y-89175583D01*
X161700003Y-89175583D01*
X161905929Y-89155301D01*
X161905934Y-89155300D01*
X161911179Y-89153709D01*
X162103954Y-89095232D01*
X162286450Y-88997685D01*
X162446410Y-88866410D01*
X162577685Y-88706450D01*
X162675232Y-88523954D01*
X162735300Y-88325934D01*
X162735301Y-88325929D01*
X162755583Y-88120003D01*
X162755583Y-88119996D01*
X162735301Y-87914070D01*
X162735300Y-87914065D01*
X162712610Y-87839266D01*
X162675232Y-87716046D01*
X162577685Y-87533550D01*
X162577678Y-87533542D01*
X162446414Y-87373595D01*
X162446410Y-87373590D01*
X162442025Y-87369991D01*
X162286452Y-87242316D01*
X162103954Y-87144768D01*
X161952444Y-87098808D01*
X161911178Y-87074075D01*
X161641077Y-86803974D01*
X161613300Y-86749457D01*
X161622871Y-86689025D01*
X161666136Y-86645760D01*
X161701376Y-86635447D01*
X161783973Y-86627312D01*
X161905928Y-86615301D01*
X161905934Y-86615300D01*
X161947174Y-86602790D01*
X162103954Y-86555232D01*
X162286450Y-86457685D01*
X162446410Y-86326410D01*
X162577685Y-86166450D01*
X162675232Y-85983954D01*
X162735300Y-85785934D01*
X162735301Y-85785929D01*
X162755583Y-85580003D01*
X162755583Y-85579996D01*
X162735301Y-85374070D01*
X162735300Y-85374065D01*
X162712632Y-85299339D01*
X162675232Y-85176046D01*
X162577685Y-84993550D01*
X162555066Y-84965989D01*
X162446414Y-84833595D01*
X162446410Y-84833590D01*
X162433415Y-84822925D01*
X162286452Y-84702316D01*
X162103954Y-84604768D01*
X161905934Y-84544699D01*
X161905929Y-84544698D01*
X161700003Y-84524417D01*
X161699997Y-84524417D01*
X161494071Y-84544698D01*
X161430460Y-84563994D01*
X161369286Y-84562791D01*
X161331719Y-84539260D01*
X160837404Y-84044945D01*
X160824123Y-84028462D01*
X160820556Y-84022912D01*
X160783054Y-83990416D01*
X160780469Y-83988009D01*
X160769681Y-83977222D01*
X160757462Y-83968075D01*
X160754724Y-83965868D01*
X160717218Y-83933370D01*
X160711204Y-83930623D01*
X160693018Y-83919832D01*
X160691316Y-83918558D01*
X160687726Y-83915871D01*
X160687723Y-83915870D01*
X160687722Y-83915869D01*
X160641242Y-83898533D01*
X160637977Y-83897181D01*
X160592843Y-83876569D01*
X160592839Y-83876568D01*
X160586296Y-83875627D01*
X160565803Y-83870396D01*
X160559617Y-83868089D01*
X160559615Y-83868088D01*
X160510119Y-83864546D01*
X160506611Y-83864169D01*
X160491519Y-83862000D01*
X160491511Y-83862000D01*
X160476267Y-83862000D01*
X160472734Y-83861874D01*
X160423229Y-83858333D01*
X160416772Y-83859737D01*
X160395729Y-83862000D01*
X160171027Y-83862000D01*
X160112836Y-83843093D01*
X160083717Y-83809669D01*
X160079743Y-83802235D01*
X160037685Y-83723550D01*
X159906410Y-83563590D01*
X159905494Y-83562838D01*
X159746452Y-83432316D01*
X159563954Y-83334768D01*
X159365934Y-83274699D01*
X159365929Y-83274698D01*
X159160003Y-83254417D01*
X159159997Y-83254417D01*
X158954070Y-83274698D01*
X158954065Y-83274699D01*
X158756045Y-83334768D01*
X158573547Y-83432316D01*
X158413595Y-83563585D01*
X158413585Y-83563595D01*
X158282314Y-83723550D01*
X158244336Y-83794602D01*
X158240257Y-83802235D01*
X158236283Y-83809669D01*
X158192177Y-83852075D01*
X158148973Y-83862000D01*
X157054718Y-83862000D01*
X156996527Y-83843093D01*
X156962621Y-83799319D01*
X156934362Y-83727660D01*
X156934361Y-83727659D01*
X156934361Y-83727658D01*
X156842922Y-83607078D01*
X156722342Y-83515639D01*
X156722341Y-83515638D01*
X156722339Y-83515637D01*
X156581565Y-83460123D01*
X156493106Y-83449500D01*
X156493102Y-83449500D01*
X155976611Y-83449500D01*
X155918420Y-83430593D01*
X155882456Y-83381093D01*
X155882456Y-83319907D01*
X155906607Y-83280496D01*
X156482607Y-82704495D01*
X156537124Y-82676718D01*
X156552611Y-82675499D01*
X156581909Y-82675499D01*
X156581914Y-82675499D01*
X156640335Y-82669219D01*
X156640338Y-82669218D01*
X156640339Y-82669218D01*
X156745125Y-82630135D01*
X156772489Y-82619929D01*
X156885403Y-82535403D01*
X156969929Y-82422489D01*
X157019219Y-82290335D01*
X157025500Y-82231915D01*
X157025499Y-80768086D01*
X157019219Y-80709665D01*
X157019218Y-80709662D01*
X157019218Y-80709660D01*
X156969929Y-80577511D01*
X156958529Y-80562282D01*
X156885403Y-80464597D01*
X156773085Y-80380517D01*
X156772487Y-80380069D01*
X156640340Y-80330782D01*
X156640335Y-80330781D01*
X156640333Y-80330780D01*
X156640329Y-80330780D01*
X156609724Y-80327489D01*
X156581915Y-80324500D01*
X156581912Y-80324500D01*
X155918091Y-80324500D01*
X155918087Y-80324500D01*
X155918086Y-80324501D01*
X155913435Y-80325001D01*
X155859663Y-80330781D01*
X155859660Y-80330781D01*
X155727511Y-80380070D01*
X155614599Y-80464595D01*
X155614595Y-80464599D01*
X155530069Y-80577512D01*
X155480782Y-80709659D01*
X155480780Y-80709670D01*
X155474500Y-80768087D01*
X155474500Y-82231908D01*
X155474500Y-82231911D01*
X155474501Y-82231914D01*
X155475518Y-82241376D01*
X155480781Y-82290336D01*
X155497062Y-82333987D01*
X155499682Y-82395117D01*
X155474308Y-82438588D01*
X154492393Y-83420504D01*
X154437876Y-83448281D01*
X154422389Y-83449500D01*
X153706893Y-83449500D01*
X153618434Y-83460123D01*
X153477660Y-83515637D01*
X153477656Y-83515640D01*
X153357081Y-83607075D01*
X153357075Y-83607081D01*
X153265640Y-83727656D01*
X153265637Y-83727660D01*
X153210123Y-83868434D01*
X153199500Y-83956893D01*
X153199500Y-84943106D01*
X153210123Y-85031565D01*
X153265637Y-85172339D01*
X153265638Y-85172341D01*
X153265639Y-85172342D01*
X153357078Y-85292922D01*
X153477658Y-85384361D01*
X153477659Y-85384361D01*
X153477660Y-85384362D01*
X153513276Y-85398407D01*
X153618436Y-85439877D01*
X153706898Y-85450500D01*
X153706900Y-85450500D01*
X154493100Y-85450500D01*
X154493102Y-85450500D01*
X154581564Y-85439877D01*
X154722342Y-85384361D01*
X154842922Y-85292922D01*
X154934361Y-85172342D01*
X154989877Y-85031564D01*
X155000500Y-84943102D01*
X155000500Y-84227611D01*
X155019407Y-84169420D01*
X155029496Y-84157607D01*
X155030496Y-84156607D01*
X155085013Y-84128830D01*
X155145445Y-84138401D01*
X155188710Y-84181666D01*
X155199500Y-84226611D01*
X155199500Y-84943106D01*
X155210123Y-85031565D01*
X155265637Y-85172339D01*
X155265638Y-85172341D01*
X155265639Y-85172342D01*
X155357078Y-85292922D01*
X155477658Y-85384361D01*
X155477659Y-85384361D01*
X155477660Y-85384362D01*
X155513276Y-85398407D01*
X155618436Y-85439877D01*
X155706898Y-85450500D01*
X155706900Y-85450500D01*
X156493100Y-85450500D01*
X156493102Y-85450500D01*
X156581564Y-85439877D01*
X156722342Y-85384361D01*
X156842922Y-85292922D01*
X156934361Y-85172342D01*
X156989877Y-85031564D01*
X157000500Y-84943102D01*
X157000500Y-84912000D01*
X157019407Y-84853809D01*
X157068907Y-84817845D01*
X157099500Y-84813000D01*
X158178371Y-84813000D01*
X158236562Y-84831907D01*
X158265681Y-84865332D01*
X158282312Y-84896447D01*
X158412125Y-85054625D01*
X158434425Y-85111602D01*
X158418976Y-85170805D01*
X158378552Y-85206625D01*
X158343364Y-85223570D01*
X158337233Y-85227751D01*
X158336987Y-85227391D01*
X158335172Y-85228679D01*
X158335430Y-85229029D01*
X158329463Y-85233433D01*
X158288078Y-85274817D01*
X158286746Y-85276100D01*
X158243803Y-85315947D01*
X158239181Y-85321743D01*
X158238838Y-85321469D01*
X158230294Y-85332600D01*
X158126473Y-85436423D01*
X156592393Y-86970504D01*
X156537876Y-86998281D01*
X156522389Y-86999500D01*
X151874500Y-86999500D01*
X151816309Y-86980593D01*
X151780345Y-86931093D01*
X151775500Y-86900500D01*
X151775499Y-86530139D01*
X151775499Y-86530136D01*
X151772585Y-86505009D01*
X151772584Y-86505006D01*
X151772584Y-86505004D01*
X151771228Y-86500018D01*
X151771229Y-86448038D01*
X151772090Y-86444871D01*
X151774999Y-86419797D01*
X151775000Y-86419795D01*
X151775000Y-86300001D01*
X151774999Y-86300000D01*
X151617025Y-86300000D01*
X151577038Y-86291565D01*
X151544991Y-86277415D01*
X151544988Y-86277414D01*
X151519868Y-86274500D01*
X149680139Y-86274500D01*
X149680136Y-86274501D01*
X149655009Y-86277414D01*
X149631389Y-86287843D01*
X149622961Y-86291565D01*
X149582975Y-86300000D01*
X149425001Y-86300000D01*
X149425001Y-86419791D01*
X149427910Y-86444879D01*
X149428773Y-86448051D01*
X149428774Y-86500010D01*
X149427415Y-86505006D01*
X149424500Y-86530130D01*
X149424500Y-87069860D01*
X149424501Y-87069863D01*
X149427415Y-87094994D01*
X149428509Y-87099015D01*
X149428510Y-87150979D01*
X149427415Y-87155003D01*
X149424500Y-87180130D01*
X149424500Y-87605517D01*
X149405593Y-87663708D01*
X149371757Y-87693046D01*
X149363619Y-87697347D01*
X149361969Y-87698180D01*
X149309236Y-87723575D01*
X149303109Y-87727753D01*
X149302864Y-87727393D01*
X149301048Y-87728681D01*
X149301307Y-87729032D01*
X149295338Y-87733437D01*
X149253946Y-87774829D01*
X149252614Y-87776113D01*
X149209682Y-87815948D01*
X149205059Y-87821746D01*
X149204716Y-87821472D01*
X149196175Y-87832599D01*
X148801306Y-88227469D01*
X148797165Y-88231170D01*
X148766030Y-88255999D01*
X148766029Y-88256000D01*
X148733035Y-88304392D01*
X148731965Y-88305900D01*
X148697207Y-88352996D01*
X148693742Y-88359554D01*
X148693353Y-88359348D01*
X148692350Y-88361335D01*
X148692746Y-88361526D01*
X148689526Y-88368211D01*
X148672264Y-88424174D01*
X148671686Y-88425930D01*
X148652355Y-88481175D01*
X148650976Y-88488467D01*
X148650544Y-88488385D01*
X148650171Y-88490580D01*
X148650605Y-88490646D01*
X148649500Y-88497979D01*
X148649500Y-88556521D01*
X148649465Y-88558371D01*
X148647276Y-88616890D01*
X148648107Y-88624265D01*
X148647668Y-88624314D01*
X148649500Y-88638224D01*
X148649499Y-90538032D01*
X148630592Y-90596223D01*
X148581092Y-90632187D01*
X148519906Y-90632187D01*
X148480495Y-90608036D01*
X146604496Y-88732037D01*
X146576719Y-88677520D01*
X146575500Y-88662033D01*
X146575500Y-85769860D01*
X149424500Y-85769860D01*
X149424501Y-85769863D01*
X149427415Y-85794996D01*
X149428772Y-85799983D01*
X149428774Y-85851945D01*
X149427910Y-85855121D01*
X149425000Y-85880202D01*
X149425000Y-85999998D01*
X149425001Y-86000000D01*
X149582975Y-86000000D01*
X149622962Y-86008435D01*
X149655009Y-86022585D01*
X149680135Y-86025500D01*
X151519864Y-86025499D01*
X151544991Y-86022585D01*
X151577038Y-86008434D01*
X151617025Y-86000000D01*
X151774998Y-86000000D01*
X151774999Y-85999998D01*
X151774999Y-85880209D01*
X151774998Y-85880208D01*
X151772089Y-85855122D01*
X151771228Y-85851955D01*
X151771228Y-85799977D01*
X151772583Y-85794996D01*
X151772585Y-85794991D01*
X151775500Y-85769865D01*
X151775499Y-85230136D01*
X151772585Y-85205009D01*
X151772585Y-85205008D01*
X151771491Y-85200988D01*
X151771493Y-85149005D01*
X151772585Y-85144991D01*
X151774799Y-85125904D01*
X151775500Y-85119865D01*
X151775499Y-84580136D01*
X151772585Y-84555009D01*
X151771492Y-84550992D01*
X151771491Y-84499010D01*
X151772581Y-84494999D01*
X151772585Y-84494991D01*
X151775500Y-84469865D01*
X151775499Y-83930136D01*
X151772585Y-83905009D01*
X151771492Y-83900992D01*
X151771491Y-83849010D01*
X151772581Y-83844999D01*
X151772585Y-83844991D01*
X151775500Y-83819865D01*
X151775499Y-83280136D01*
X151772585Y-83255009D01*
X151771492Y-83250992D01*
X151771491Y-83199010D01*
X151772581Y-83194999D01*
X151772585Y-83194991D01*
X151775500Y-83169865D01*
X151775499Y-82630136D01*
X151772585Y-82605009D01*
X151772585Y-82605008D01*
X151771491Y-82600988D01*
X151771493Y-82549005D01*
X151772585Y-82544991D01*
X151773697Y-82535403D01*
X151775500Y-82519865D01*
X151775499Y-82231866D01*
X152374999Y-82231866D01*
X152381273Y-82290226D01*
X152430517Y-82422250D01*
X152514951Y-82535040D01*
X152514959Y-82535048D01*
X152627749Y-82619482D01*
X152759774Y-82668726D01*
X152759772Y-82668726D01*
X152818134Y-82675000D01*
X152999999Y-82675000D01*
X153000000Y-82674999D01*
X153300000Y-82674999D01*
X153300001Y-82675000D01*
X153481866Y-82675000D01*
X153540226Y-82668726D01*
X153672250Y-82619482D01*
X153785040Y-82535048D01*
X153785048Y-82535040D01*
X153869482Y-82422250D01*
X153918726Y-82290226D01*
X153925000Y-82231866D01*
X153925000Y-81650000D01*
X153300001Y-81650000D01*
X153300000Y-81650001D01*
X153300000Y-82674999D01*
X153000000Y-82674999D01*
X153000000Y-82674998D01*
X153000000Y-81650001D01*
X152999999Y-81650000D01*
X152375001Y-81650000D01*
X152375000Y-81650001D01*
X152375000Y-82231866D01*
X152374999Y-82231866D01*
X151775499Y-82231866D01*
X151775499Y-81980136D01*
X151772585Y-81955009D01*
X151771492Y-81950992D01*
X151771491Y-81899010D01*
X151772581Y-81894999D01*
X151772585Y-81894991D01*
X151775500Y-81869865D01*
X151775499Y-81349999D01*
X152375000Y-81349999D01*
X152375001Y-81350000D01*
X152999999Y-81350000D01*
X153000000Y-81349998D01*
X153000000Y-80325001D01*
X152999999Y-80325000D01*
X153300000Y-80325000D01*
X153300000Y-81349999D01*
X153300001Y-81350000D01*
X153924999Y-81350000D01*
X153925000Y-81349999D01*
X153925000Y-80768133D01*
X153918726Y-80709773D01*
X153869482Y-80577749D01*
X153785048Y-80464959D01*
X153785040Y-80464951D01*
X153672250Y-80380517D01*
X153540225Y-80331273D01*
X153540227Y-80331273D01*
X153481866Y-80325000D01*
X153300000Y-80325000D01*
X152999999Y-80325000D01*
X152818134Y-80325000D01*
X152759773Y-80331273D01*
X152627749Y-80380517D01*
X152514959Y-80464951D01*
X152514951Y-80464959D01*
X152430517Y-80577749D01*
X152381273Y-80709773D01*
X152375000Y-80768133D01*
X152375000Y-81349999D01*
X151775499Y-81349999D01*
X151775499Y-81330136D01*
X151772585Y-81305009D01*
X151727206Y-81202235D01*
X151647765Y-81122794D01*
X151544991Y-81077415D01*
X151544990Y-81077414D01*
X151544988Y-81077414D01*
X151519868Y-81074500D01*
X149680139Y-81074500D01*
X149680136Y-81074501D01*
X149655009Y-81077414D01*
X149552235Y-81122794D01*
X149472794Y-81202235D01*
X149427414Y-81305011D01*
X149424500Y-81330130D01*
X149424500Y-81869860D01*
X149424501Y-81869863D01*
X149427415Y-81894994D01*
X149428509Y-81899015D01*
X149428510Y-81950979D01*
X149427415Y-81955003D01*
X149424500Y-81980130D01*
X149424500Y-82519860D01*
X149424501Y-82519863D01*
X149427415Y-82544996D01*
X149428509Y-82549016D01*
X149428510Y-82600980D01*
X149427415Y-82605004D01*
X149424500Y-82630130D01*
X149424500Y-83169860D01*
X149424501Y-83169863D01*
X149427415Y-83194994D01*
X149428509Y-83199015D01*
X149428510Y-83250979D01*
X149427415Y-83255003D01*
X149424500Y-83280130D01*
X149424500Y-83819860D01*
X149424501Y-83819863D01*
X149427415Y-83844994D01*
X149428509Y-83849015D01*
X149428510Y-83900979D01*
X149427415Y-83905003D01*
X149424500Y-83930130D01*
X149424500Y-84469860D01*
X149424501Y-84469863D01*
X149427415Y-84494994D01*
X149428509Y-84499015D01*
X149428510Y-84550979D01*
X149427415Y-84555003D01*
X149424500Y-84580130D01*
X149424500Y-85119860D01*
X149424501Y-85119863D01*
X149427415Y-85144996D01*
X149428509Y-85149016D01*
X149428510Y-85200980D01*
X149427415Y-85205004D01*
X149424500Y-85230130D01*
X149424500Y-85769860D01*
X146575500Y-85769860D01*
X146575500Y-84818769D01*
X146575626Y-84815236D01*
X146576961Y-84796568D01*
X146579167Y-84765729D01*
X146577762Y-84759269D01*
X146575500Y-84738226D01*
X146575500Y-80883765D01*
X146577762Y-80862721D01*
X146579166Y-80856270D01*
X146575626Y-80806775D01*
X146575500Y-80803242D01*
X146575500Y-80787993D01*
X146575500Y-80787989D01*
X146573326Y-80772877D01*
X146572951Y-80769395D01*
X146569411Y-80719885D01*
X146567104Y-80713702D01*
X146561871Y-80693198D01*
X146560931Y-80686658D01*
X146540313Y-80641511D01*
X146538962Y-80638248D01*
X146537219Y-80633575D01*
X146521628Y-80591774D01*
X146517674Y-80586492D01*
X146506873Y-80568290D01*
X146504130Y-80562282D01*
X146504128Y-80562280D01*
X146504128Y-80562279D01*
X146471631Y-80524775D01*
X146469414Y-80522024D01*
X146463778Y-80514496D01*
X146460278Y-80509820D01*
X146449482Y-80499024D01*
X146447096Y-80496460D01*
X146428311Y-80474781D01*
X146414589Y-80458944D01*
X146409030Y-80455372D01*
X146392551Y-80442093D01*
X146274958Y-80324500D01*
X145667898Y-79717439D01*
X145654623Y-79700963D01*
X145651055Y-79695411D01*
X145651054Y-79695410D01*
X145613554Y-79662916D01*
X145610969Y-79660509D01*
X145600181Y-79649722D01*
X145587962Y-79640575D01*
X145585224Y-79638368D01*
X145547718Y-79605870D01*
X145541704Y-79603123D01*
X145523518Y-79592332D01*
X145521816Y-79591058D01*
X145518226Y-79588371D01*
X145518223Y-79588370D01*
X145518222Y-79588369D01*
X145471742Y-79571033D01*
X145468477Y-79569681D01*
X145423343Y-79549069D01*
X145423339Y-79549068D01*
X145416796Y-79548127D01*
X145396303Y-79542896D01*
X145390117Y-79540589D01*
X145390115Y-79540588D01*
X145340619Y-79537046D01*
X145337111Y-79536669D01*
X145322019Y-79534500D01*
X145322011Y-79534500D01*
X145306767Y-79534500D01*
X145303234Y-79534374D01*
X145253729Y-79530833D01*
X145247272Y-79532237D01*
X145226229Y-79534500D01*
X138829771Y-79534500D01*
X138808727Y-79532237D01*
X138802271Y-79530833D01*
X138802270Y-79530833D01*
X138752766Y-79534374D01*
X138749233Y-79534500D01*
X138733988Y-79534500D01*
X138718887Y-79536669D01*
X138715380Y-79537046D01*
X138665886Y-79540588D01*
X138665881Y-79540589D01*
X138659688Y-79542899D01*
X138639203Y-79548127D01*
X138632657Y-79549068D01*
X138587526Y-79569679D01*
X138584262Y-79571031D01*
X138537774Y-79588370D01*
X138537772Y-79588371D01*
X138532479Y-79592333D01*
X138514294Y-79603123D01*
X138508282Y-79605869D01*
X138470790Y-79638355D01*
X138468042Y-79640570D01*
X138455819Y-79649721D01*
X138445033Y-79660506D01*
X138442450Y-79662910D01*
X138404942Y-79695413D01*
X138404941Y-79695414D01*
X138401373Y-79700967D01*
X138388096Y-79717442D01*
X137658537Y-80447003D01*
X137604020Y-80474781D01*
X137588533Y-80476000D01*
X136895893Y-80476000D01*
X136807434Y-80486623D01*
X136666660Y-80542137D01*
X136666656Y-80542140D01*
X136546081Y-80633575D01*
X136546075Y-80633581D01*
X136542483Y-80638319D01*
X136492257Y-80673261D01*
X136463599Y-80677500D01*
X135745901Y-80677500D01*
X135687710Y-80658593D01*
X135667017Y-80638319D01*
X135663424Y-80633581D01*
X135663422Y-80633578D01*
X135542842Y-80542139D01*
X135542841Y-80542138D01*
X135542839Y-80542137D01*
X135402065Y-80486623D01*
X135313606Y-80476000D01*
X135313602Y-80476000D01*
X134277398Y-80476000D01*
X134277393Y-80476000D01*
X134188934Y-80486623D01*
X134048160Y-80542137D01*
X134048156Y-80542140D01*
X133927581Y-80633575D01*
X133927575Y-80633581D01*
X133836140Y-80754156D01*
X133836137Y-80754160D01*
X133780623Y-80894934D01*
X133770000Y-80983393D01*
X133769999Y-80983399D01*
X133769999Y-81543532D01*
X133751092Y-81601723D01*
X133741003Y-81613535D01*
X133354957Y-81999582D01*
X133300440Y-82027360D01*
X133240008Y-82017789D01*
X133196743Y-81974524D01*
X133187172Y-81914092D01*
X133192857Y-81893258D01*
X133196876Y-81883066D01*
X133196875Y-81883066D01*
X133196877Y-81883064D01*
X133207500Y-81794602D01*
X133207500Y-81008398D01*
X133196877Y-80919936D01*
X133141361Y-80779158D01*
X133049922Y-80658578D01*
X132929342Y-80567139D01*
X132929341Y-80567138D01*
X132929339Y-80567137D01*
X132788565Y-80511623D01*
X132700106Y-80501000D01*
X132700102Y-80501000D01*
X131713898Y-80501000D01*
X131713893Y-80501000D01*
X131625434Y-80511623D01*
X131484660Y-80567137D01*
X131484656Y-80567140D01*
X131364081Y-80658575D01*
X131364075Y-80658581D01*
X131272640Y-80779156D01*
X131272637Y-80779160D01*
X131217123Y-80919933D01*
X131212035Y-80962305D01*
X131186324Y-81017826D01*
X131132889Y-81047631D01*
X131113741Y-81049500D01*
X130624499Y-81049500D01*
X130566308Y-81030593D01*
X130530344Y-80981093D01*
X130525499Y-80950500D01*
X130525499Y-80768091D01*
X130525499Y-80768086D01*
X130519219Y-80709665D01*
X130519218Y-80709662D01*
X130519218Y-80709660D01*
X130469929Y-80577511D01*
X130458529Y-80562282D01*
X130385403Y-80464597D01*
X130273085Y-80380517D01*
X130272487Y-80380069D01*
X130140340Y-80330782D01*
X130140335Y-80330781D01*
X130140333Y-80330780D01*
X130140329Y-80330780D01*
X130109724Y-80327489D01*
X130081915Y-80324500D01*
X130081912Y-80324500D01*
X129418091Y-80324500D01*
X129418087Y-80324500D01*
X129418086Y-80324501D01*
X129413435Y-80325001D01*
X129359663Y-80330781D01*
X129359660Y-80330781D01*
X129227511Y-80380070D01*
X129114599Y-80464595D01*
X129114595Y-80464599D01*
X129030069Y-80577512D01*
X128980782Y-80709659D01*
X128980780Y-80709670D01*
X128974500Y-80768087D01*
X128974500Y-82231908D01*
X128974500Y-82231911D01*
X128974501Y-82231914D01*
X128975518Y-82241376D01*
X128980781Y-82290336D01*
X128980781Y-82290339D01*
X129030070Y-82422488D01*
X129050259Y-82449457D01*
X129114597Y-82535403D01*
X129136102Y-82551501D01*
X129227512Y-82619930D01*
X129359659Y-82669217D01*
X129359660Y-82669217D01*
X129359665Y-82669219D01*
X129418085Y-82675500D01*
X130081914Y-82675499D01*
X130140335Y-82669219D01*
X130140338Y-82669218D01*
X130140339Y-82669218D01*
X130245125Y-82630135D01*
X130272489Y-82619929D01*
X130385403Y-82535403D01*
X130469929Y-82422489D01*
X130519219Y-82290335D01*
X130525500Y-82231915D01*
X130525500Y-82049500D01*
X130544407Y-81991309D01*
X130593907Y-81955345D01*
X130624500Y-81950500D01*
X131176337Y-81950500D01*
X131234528Y-81969407D01*
X131268433Y-82013178D01*
X131272639Y-82023842D01*
X131364078Y-82144422D01*
X131484658Y-82235861D01*
X131484659Y-82235861D01*
X131484660Y-82235862D01*
X131555047Y-82263618D01*
X131625436Y-82291377D01*
X131713898Y-82302000D01*
X131713900Y-82302000D01*
X132700100Y-82302000D01*
X132700102Y-82302000D01*
X132788564Y-82291377D01*
X132798758Y-82287356D01*
X132859824Y-82283596D01*
X132911442Y-82316448D01*
X132933891Y-82373366D01*
X132918597Y-82432610D01*
X132905082Y-82449457D01*
X132871117Y-82483422D01*
X132816600Y-82511199D01*
X132789310Y-82511712D01*
X132700109Y-82501000D01*
X132700102Y-82501000D01*
X131713898Y-82501000D01*
X131713893Y-82501000D01*
X131625434Y-82511623D01*
X131484660Y-82567137D01*
X131484656Y-82567140D01*
X131364081Y-82658575D01*
X131364075Y-82658581D01*
X131272640Y-82779156D01*
X131272637Y-82779160D01*
X131217123Y-82919934D01*
X131206500Y-83008393D01*
X131206499Y-83008399D01*
X131206499Y-83456033D01*
X131187592Y-83514224D01*
X131177503Y-83526037D01*
X131025445Y-83678095D01*
X131008968Y-83691373D01*
X131003412Y-83694943D01*
X130970910Y-83732450D01*
X130968506Y-83735033D01*
X130957721Y-83745819D01*
X130948570Y-83758042D01*
X130946355Y-83760790D01*
X130913869Y-83798282D01*
X130911123Y-83804294D01*
X130900333Y-83822479D01*
X130896371Y-83827772D01*
X130896370Y-83827774D01*
X130879031Y-83874262D01*
X130877679Y-83877526D01*
X130857068Y-83922657D01*
X130856127Y-83929203D01*
X130850899Y-83949688D01*
X130848589Y-83955881D01*
X130848588Y-83955886D01*
X130845046Y-84005380D01*
X130844669Y-84008887D01*
X130842500Y-84023987D01*
X130842500Y-84039233D01*
X130842374Y-84042766D01*
X130838833Y-84092271D01*
X130838833Y-84092274D01*
X130840237Y-84098729D01*
X130842499Y-84119771D01*
X130842499Y-84194892D01*
X130823592Y-84253083D01*
X130774092Y-84289047D01*
X130712906Y-84289047D01*
X130663406Y-84253083D01*
X130652595Y-84234103D01*
X130638940Y-84202447D01*
X130638938Y-84202443D01*
X130534244Y-84061815D01*
X130534242Y-84061813D01*
X130399940Y-83949119D01*
X130243262Y-83870432D01*
X130072660Y-83830000D01*
X129535001Y-83830000D01*
X129535000Y-83830001D01*
X129535000Y-84280000D01*
X129235000Y-84280000D01*
X129235000Y-83830001D01*
X129234999Y-83830000D01*
X128741319Y-83830000D01*
X128610858Y-83845248D01*
X128610853Y-83845250D01*
X128446110Y-83905212D01*
X128446100Y-83905217D01*
X128299632Y-84001550D01*
X128299627Y-84001555D01*
X128179313Y-84129080D01*
X128179312Y-84129080D01*
X128091650Y-84280918D01*
X128047017Y-84430000D01*
X128522343Y-84430000D01*
X128511799Y-84443962D01*
X128481105Y-84551840D01*
X128491454Y-84663521D01*
X128524557Y-84730000D01*
X128049879Y-84730000D01*
X128061614Y-84796562D01*
X128061616Y-84796568D01*
X128131056Y-84957547D01*
X128131061Y-84957556D01*
X128235755Y-85098184D01*
X128235757Y-85098186D01*
X128370059Y-85210880D01*
X128526737Y-85289567D01*
X128697340Y-85330000D01*
X128986000Y-85330000D01*
X129044191Y-85348907D01*
X129080155Y-85398407D01*
X129085000Y-85429000D01*
X129085000Y-85549999D01*
X129085001Y-85550000D01*
X129814999Y-85550000D01*
X129815000Y-85549999D01*
X129815000Y-85159000D01*
X129833907Y-85100809D01*
X129883407Y-85064845D01*
X129914000Y-85060000D01*
X130016000Y-85060000D01*
X130074191Y-85078907D01*
X130110155Y-85128407D01*
X130115000Y-85159000D01*
X130115000Y-85751000D01*
X130096093Y-85809191D01*
X130046593Y-85845155D01*
X130016000Y-85850000D01*
X129085002Y-85850000D01*
X129085001Y-85850001D01*
X129085001Y-86044791D01*
X129087910Y-86069879D01*
X129088773Y-86073051D01*
X129088774Y-86125010D01*
X129087415Y-86130006D01*
X129084500Y-86155130D01*
X129084500Y-86844860D01*
X129084501Y-86844863D01*
X129087415Y-86869994D01*
X129088509Y-86874015D01*
X129088510Y-86925979D01*
X129087415Y-86930003D01*
X129084500Y-86955130D01*
X129084500Y-87103058D01*
X129065593Y-87161249D01*
X129016093Y-87197213D01*
X129000256Y-87200952D01*
X128975714Y-87204651D01*
X128968632Y-87206836D01*
X128968503Y-87206418D01*
X128966386Y-87207114D01*
X128966531Y-87207526D01*
X128959525Y-87209977D01*
X128907733Y-87237350D01*
X128906082Y-87238183D01*
X128853362Y-87263572D01*
X128847233Y-87267751D01*
X128846987Y-87267391D01*
X128845172Y-87268679D01*
X128845430Y-87269029D01*
X128839463Y-87273433D01*
X128798078Y-87314817D01*
X128796746Y-87316100D01*
X128753803Y-87355947D01*
X128749181Y-87361743D01*
X128748837Y-87361469D01*
X128740295Y-87372600D01*
X128101301Y-88011593D01*
X128097160Y-88015294D01*
X128066030Y-88040119D01*
X128066029Y-88040120D01*
X128033035Y-88088512D01*
X128031965Y-88090020D01*
X127997207Y-88137116D01*
X127993742Y-88143674D01*
X127993353Y-88143468D01*
X127992350Y-88145455D01*
X127992746Y-88145646D01*
X127989526Y-88152331D01*
X127972264Y-88208294D01*
X127971686Y-88210050D01*
X127952355Y-88265295D01*
X127950976Y-88272587D01*
X127950544Y-88272505D01*
X127950171Y-88274700D01*
X127950605Y-88274766D01*
X127949500Y-88282099D01*
X127949500Y-88340641D01*
X127949465Y-88342491D01*
X127947276Y-88401010D01*
X127948107Y-88408385D01*
X127947669Y-88408434D01*
X127949499Y-88422344D01*
X127949499Y-89972388D01*
X127930592Y-90030579D01*
X127920503Y-90042392D01*
X126801301Y-91161593D01*
X126797160Y-91165294D01*
X126766030Y-91190119D01*
X126766029Y-91190120D01*
X126733035Y-91238512D01*
X126731965Y-91240020D01*
X126697207Y-91287116D01*
X126693742Y-91293674D01*
X126693353Y-91293468D01*
X126692350Y-91295455D01*
X126692746Y-91295646D01*
X126689526Y-91302331D01*
X126672264Y-91358294D01*
X126671686Y-91360050D01*
X126652355Y-91415295D01*
X126650976Y-91422587D01*
X126650544Y-91422505D01*
X126650171Y-91424700D01*
X126650605Y-91424766D01*
X126649500Y-91432099D01*
X126649500Y-91490641D01*
X126649465Y-91492491D01*
X126647276Y-91551010D01*
X126648107Y-91558385D01*
X126647669Y-91558434D01*
X126649499Y-91572344D01*
X126649499Y-92897484D01*
X126630592Y-92955675D01*
X126581092Y-92991639D01*
X126519906Y-92991639D01*
X126470406Y-92955675D01*
X126459596Y-92936696D01*
X126418943Y-92842452D01*
X126418938Y-92842443D01*
X126314244Y-92701815D01*
X126314242Y-92701813D01*
X126179940Y-92589119D01*
X126023262Y-92510432D01*
X125852660Y-92470000D01*
X125365001Y-92470000D01*
X125365000Y-92470001D01*
X125365000Y-92920000D01*
X125065000Y-92920000D01*
X125065000Y-92470000D01*
X124621319Y-92470000D01*
X124490858Y-92485248D01*
X124490853Y-92485250D01*
X124326110Y-92545212D01*
X124326100Y-92545217D01*
X124179632Y-92641550D01*
X124179627Y-92641555D01*
X124059313Y-92769080D01*
X124059312Y-92769080D01*
X123971650Y-92920917D01*
X123927016Y-93069999D01*
X123722000Y-93069999D01*
X123722000Y-84453378D01*
X123723613Y-84448413D01*
X123722000Y-84438940D01*
X123722000Y-84429999D01*
X123927016Y-84429999D01*
X123927017Y-84430000D01*
X124402343Y-84430000D01*
X124391799Y-84443962D01*
X124361105Y-84551840D01*
X124371454Y-84663521D01*
X124404557Y-84730000D01*
X123929879Y-84730000D01*
X123941614Y-84796562D01*
X123941616Y-84796568D01*
X124011056Y-84957547D01*
X124011061Y-84957556D01*
X124115755Y-85098184D01*
X124115757Y-85098186D01*
X124250059Y-85210880D01*
X124406737Y-85289567D01*
X124577340Y-85330000D01*
X125064999Y-85330000D01*
X125065000Y-85329999D01*
X125065000Y-84880000D01*
X125365000Y-84880000D01*
X125365000Y-85329999D01*
X125365001Y-85330000D01*
X125808681Y-85330000D01*
X125939141Y-85314751D01*
X125939146Y-85314749D01*
X126103889Y-85254787D01*
X126103899Y-85254782D01*
X126250367Y-85158449D01*
X126250372Y-85158444D01*
X126370686Y-85030919D01*
X126370687Y-85030919D01*
X126458349Y-84879081D01*
X126502983Y-84730000D01*
X126027657Y-84730000D01*
X126038201Y-84716038D01*
X126068895Y-84608160D01*
X126058546Y-84496479D01*
X126025443Y-84430000D01*
X126500121Y-84430000D01*
X126500121Y-84429999D01*
X126488385Y-84363437D01*
X126488383Y-84363431D01*
X126418943Y-84202452D01*
X126418938Y-84202443D01*
X126314244Y-84061815D01*
X126314242Y-84061813D01*
X126179940Y-83949119D01*
X126023262Y-83870432D01*
X125852660Y-83830000D01*
X125365000Y-83830000D01*
X125365000Y-84280000D01*
X125065000Y-84280000D01*
X125065000Y-83830000D01*
X124621319Y-83830000D01*
X124490858Y-83845248D01*
X124490853Y-83845250D01*
X124326110Y-83905212D01*
X124326100Y-83905217D01*
X124179632Y-84001550D01*
X124179627Y-84001555D01*
X124059313Y-84129080D01*
X124059312Y-84129080D01*
X123971650Y-84280917D01*
X123927016Y-84429999D01*
X123722000Y-84429999D01*
X123722000Y-82231866D01*
X125874999Y-82231866D01*
X125881273Y-82290226D01*
X125930517Y-82422250D01*
X126014951Y-82535040D01*
X126014959Y-82535048D01*
X126127749Y-82619482D01*
X126259774Y-82668726D01*
X126259772Y-82668726D01*
X126318134Y-82675000D01*
X126499999Y-82675000D01*
X126500000Y-82674999D01*
X126500000Y-81650001D01*
X126499999Y-81650000D01*
X126800000Y-81650000D01*
X126800000Y-82674999D01*
X126800001Y-82675000D01*
X126981866Y-82675000D01*
X127040226Y-82668726D01*
X127172250Y-82619482D01*
X127285040Y-82535048D01*
X127285048Y-82535040D01*
X127369482Y-82422250D01*
X127418726Y-82290226D01*
X127425000Y-82231866D01*
X127425000Y-81650001D01*
X127424999Y-81650000D01*
X126800000Y-81650000D01*
X126499999Y-81650000D01*
X125875001Y-81650000D01*
X125875000Y-81650001D01*
X125875000Y-82231866D01*
X125874999Y-82231866D01*
X123722000Y-82231866D01*
X123722000Y-81349998D01*
X125875000Y-81349998D01*
X125875001Y-81350000D01*
X126499999Y-81350000D01*
X126500000Y-81349999D01*
X126800000Y-81349999D01*
X126800001Y-81350000D01*
X127424999Y-81350000D01*
X127425000Y-81349998D01*
X127425000Y-80768133D01*
X127418726Y-80709773D01*
X127369482Y-80577749D01*
X127285048Y-80464959D01*
X127285040Y-80464951D01*
X127172250Y-80380517D01*
X127040225Y-80331273D01*
X127040227Y-80331273D01*
X126981866Y-80325000D01*
X126800001Y-80325000D01*
X126800000Y-80325001D01*
X126800000Y-81349999D01*
X126500000Y-81349999D01*
X126500000Y-80325000D01*
X126318134Y-80325000D01*
X126259773Y-80331273D01*
X126127749Y-80380517D01*
X126014959Y-80464951D01*
X126014951Y-80464959D01*
X125930517Y-80577749D01*
X125881273Y-80709773D01*
X125875000Y-80768133D01*
X125875000Y-81349998D01*
X123722000Y-81349998D01*
X123721999Y-79093000D01*
X123740907Y-79034809D01*
X123790407Y-78998845D01*
X123821000Y-78994000D01*
X157700500Y-78994000D01*
X157758691Y-79012907D01*
G37*
%TD.AperFunction*%
%TD*%
%TA.AperFunction,NonConductor*%
G36*
X150969504Y-93106607D02*
G01*
X152738188Y-94875291D01*
X152765965Y-94929808D01*
X152756394Y-94990240D01*
X152713129Y-95033505D01*
X152668184Y-95044295D01*
X152228107Y-95044295D01*
X152141986Y-95056677D01*
X152141982Y-95056678D01*
X152004034Y-95097183D01*
X152004030Y-95097184D01*
X152004029Y-95097185D01*
X151980424Y-95107965D01*
X151924877Y-95133332D01*
X151924870Y-95133336D01*
X151803933Y-95211057D01*
X151803921Y-95211066D01*
X151738173Y-95268037D01*
X151738155Y-95268055D01*
X151644013Y-95376701D01*
X151644004Y-95376714D01*
X151596974Y-95449895D01*
X151596970Y-95449903D01*
X151596969Y-95449905D01*
X151543662Y-95566628D01*
X151502293Y-95611704D01*
X151453611Y-95624500D01*
X150743222Y-95624500D01*
X150685031Y-95605593D01*
X150664339Y-95585320D01*
X150642925Y-95557082D01*
X150642924Y-95557081D01*
X150642922Y-95557078D01*
X150522342Y-95465639D01*
X150479046Y-95448565D01*
X150438180Y-95432449D01*
X150390983Y-95393512D01*
X150375500Y-95340352D01*
X150375500Y-94559646D01*
X150394407Y-94501455D01*
X150438177Y-94467551D01*
X150522342Y-94434361D01*
X150642922Y-94342922D01*
X150734361Y-94222342D01*
X150789877Y-94081564D01*
X150800500Y-93993102D01*
X150800500Y-93176610D01*
X150819407Y-93118420D01*
X150868907Y-93082456D01*
X150930093Y-93082456D01*
X150969504Y-93106607D01*
G37*
%TD.AperFunction*%
M02*
