%TF.GenerationSoftware,KiCad,Pcbnew,5.99.0-unknown-4920692bcd~125~ubuntu20.04.1*%
%TF.CreationDate,2021-04-18T13:07:44+02:00*%
%TF.ProjectId,USBMOUNT01A,5553424d-4f55-44e5-9430-31412e6b6963,rev?*%
%TF.SameCoordinates,Original*%
%TF.FileFunction,Legend,Top*%
%TF.FilePolarity,Positive*%
%FSLAX46Y46*%
G04 Gerber Fmt 4.6, Leading zero omitted, Abs format (unit mm)*
G04 Created by KiCad (PCBNEW 5.99.0-unknown-4920692bcd~125~ubuntu20.04.1) date 2021-04-18 13:07:44*
%MOMM*%
%LPD*%
G01*
G04 APERTURE LIST*
G04 Aperture macros list*
%AMRoundRect*
0 Rectangle with rounded corners*
0 $1 Rounding radius*
0 $2 $3 $4 $5 $6 $7 $8 $9 X,Y pos of 4 corners*
0 Add a 4 corners polygon primitive as box body*
4,1,4,$2,$3,$4,$5,$6,$7,$8,$9,$2,$3,0*
0 Add four circle primitives for the rounded corners*
1,1,$1+$1,$2,$3*
1,1,$1+$1,$4,$5*
1,1,$1+$1,$6,$7*
1,1,$1+$1,$8,$9*
0 Add four rect primitives between the rounded corners*
20,1,$1+$1,$2,$3,$4,$5,0*
20,1,$1+$1,$4,$5,$6,$7,0*
20,1,$1+$1,$6,$7,$8,$9,0*
20,1,$1+$1,$8,$9,$2,$3,0*%
%AMFreePoly0*
4,1,22,0.550000,-0.750000,0.000000,-0.750000,0.000000,-0.745033,-0.079941,-0.743568,-0.215256,-0.701293,-0.333266,-0.622738,-0.424486,-0.514219,-0.481581,-0.384460,-0.499164,-0.250000,-0.500000,-0.250000,-0.500000,0.250000,-0.499164,0.250000,-0.499963,0.256109,-0.478152,0.396186,-0.417904,0.524511,-0.324060,0.630769,-0.204165,0.706417,-0.067858,0.745374,0.000000,0.744959,0.000000,0.750000,
0.550000,0.750000,0.550000,-0.750000,0.550000,-0.750000,$1*%
%AMFreePoly1*
4,1,20,0.000000,0.744959,0.073905,0.744508,0.209726,0.703889,0.328688,0.626782,0.421226,0.519385,0.479903,0.390333,0.500000,0.250000,0.500000,-0.250000,0.499851,-0.262216,0.476331,-0.402017,0.414519,-0.529596,0.319384,-0.634700,0.198574,-0.708877,0.061801,-0.746166,0.000000,-0.745033,0.000000,-0.750000,-0.550000,-0.750000,-0.550000,0.750000,0.000000,0.750000,0.000000,0.744959,
0.000000,0.744959,$1*%
G04 Aperture macros list end*
%ADD10C,0.150000*%
%ADD11C,0.120000*%
%ADD12C,3.650000*%
%ADD13RoundRect,0.250000X-0.475000X0.337500X-0.475000X-0.337500X0.475000X-0.337500X0.475000X0.337500X0*%
%ADD14RoundRect,0.250000X0.350000X0.450000X-0.350000X0.450000X-0.350000X-0.450000X0.350000X-0.450000X0*%
%ADD15R,1.750000X0.450000*%
%ADD16O,1.800000X2.400000*%
%ADD17RoundRect,0.190000X-0.285000X-0.685000X0.285000X-0.685000X0.285000X0.685000X-0.285000X0.685000X0*%
%ADD18RoundRect,0.150000X0.512500X0.150000X-0.512500X0.150000X-0.512500X-0.150000X0.512500X-0.150000X0*%
%ADD19RoundRect,0.250000X-0.350000X-0.450000X0.350000X-0.450000X0.350000X0.450000X-0.350000X0.450000X0*%
%ADD20C,0.650000*%
%ADD21R,1.160000X0.600000*%
%ADD22R,1.160000X0.300000*%
%ADD23O,2.000000X0.900000*%
%ADD24O,2.100000X0.900000*%
%ADD25FreePoly0,0.000000*%
%ADD26R,1.000000X1.500000*%
%ADD27FreePoly1,0.000000*%
%ADD28R,1.500000X1.500000*%
%ADD29C,1.500000*%
%ADD30RoundRect,0.250000X0.337500X0.475000X-0.337500X0.475000X-0.337500X-0.475000X0.337500X-0.475000X0*%
G04 APERTURE END LIST*
D10*
X152214285Y-93961904D02*
X151833333Y-93961904D01*
X151795238Y-94342857D01*
X151833333Y-94304761D01*
X151909523Y-94266666D01*
X152100000Y-94266666D01*
X152176190Y-94304761D01*
X152214285Y-94342857D01*
X152252380Y-94419047D01*
X152252380Y-94609523D01*
X152214285Y-94685714D01*
X152176190Y-94723809D01*
X152100000Y-94761904D01*
X151909523Y-94761904D01*
X151833333Y-94723809D01*
X151795238Y-94685714D01*
X152519047Y-94228571D02*
X152709523Y-94761904D01*
X152900000Y-94228571D01*
X153738095Y-93961904D02*
X154233333Y-93961904D01*
X153966666Y-94266666D01*
X154080952Y-94266666D01*
X154157142Y-94304761D01*
X154195238Y-94342857D01*
X154233333Y-94419047D01*
X154233333Y-94609523D01*
X154195238Y-94685714D01*
X154157142Y-94723809D01*
X154080952Y-94761904D01*
X153852380Y-94761904D01*
X153776190Y-94723809D01*
X153738095Y-94685714D01*
X154500000Y-94228571D02*
X154690476Y-94761904D01*
X154880952Y-94228571D01*
X155109523Y-93961904D02*
X155604761Y-93961904D01*
X155338095Y-94266666D01*
X155452380Y-94266666D01*
X155528571Y-94304761D01*
X155566666Y-94342857D01*
X155604761Y-94419047D01*
X155604761Y-94609523D01*
X155566666Y-94685714D01*
X155528571Y-94723809D01*
X155452380Y-94761904D01*
X155223809Y-94761904D01*
X155147619Y-94723809D01*
X155109523Y-94685714D01*
%TO.C,C2*%
X139200000Y-80217285D02*
X139171428Y-80245857D01*
X139085714Y-80274428D01*
X139028571Y-80274428D01*
X138942857Y-80245857D01*
X138885714Y-80188714D01*
X138857142Y-80131571D01*
X138828571Y-80017285D01*
X138828571Y-79931571D01*
X138857142Y-79817285D01*
X138885714Y-79760142D01*
X138942857Y-79703000D01*
X139028571Y-79674428D01*
X139085714Y-79674428D01*
X139171428Y-79703000D01*
X139200000Y-79731571D01*
X139428571Y-79731571D02*
X139457142Y-79703000D01*
X139514285Y-79674428D01*
X139657142Y-79674428D01*
X139714285Y-79703000D01*
X139742857Y-79731571D01*
X139771428Y-79788714D01*
X139771428Y-79845857D01*
X139742857Y-79931571D01*
X139400000Y-80274428D01*
X139771428Y-80274428D01*
%TO.C,R5*%
X155000000Y-86371428D02*
X154800000Y-86085714D01*
X154657142Y-86371428D02*
X154657142Y-85771428D01*
X154885714Y-85771428D01*
X154942857Y-85800000D01*
X154971428Y-85828571D01*
X155000000Y-85885714D01*
X155000000Y-85971428D01*
X154971428Y-86028571D01*
X154942857Y-86057142D01*
X154885714Y-86085714D01*
X154657142Y-86085714D01*
X155542857Y-85771428D02*
X155257142Y-85771428D01*
X155228571Y-86057142D01*
X155257142Y-86028571D01*
X155314285Y-86000000D01*
X155457142Y-86000000D01*
X155514285Y-86028571D01*
X155542857Y-86057142D01*
X155571428Y-86114285D01*
X155571428Y-86257142D01*
X155542857Y-86314285D01*
X155514285Y-86342857D01*
X155457142Y-86371428D01*
X155314285Y-86371428D01*
X155257142Y-86342857D01*
X155228571Y-86314285D01*
%TO.C,U1*%
X148992857Y-79521428D02*
X148992857Y-80007142D01*
X149021428Y-80064285D01*
X149050000Y-80092857D01*
X149107142Y-80121428D01*
X149221428Y-80121428D01*
X149278571Y-80092857D01*
X149307142Y-80064285D01*
X149335714Y-80007142D01*
X149335714Y-79521428D01*
X149935714Y-80121428D02*
X149592857Y-80121428D01*
X149764285Y-80121428D02*
X149764285Y-79521428D01*
X149707142Y-79607142D01*
X149650000Y-79664285D01*
X149592857Y-79692857D01*
%TO.C,D1*%
X125521428Y-80992857D02*
X124921428Y-80992857D01*
X124921428Y-80850000D01*
X124950000Y-80764285D01*
X125007142Y-80707142D01*
X125064285Y-80678571D01*
X125178571Y-80650000D01*
X125264285Y-80650000D01*
X125378571Y-80678571D01*
X125435714Y-80707142D01*
X125492857Y-80764285D01*
X125521428Y-80850000D01*
X125521428Y-80992857D01*
X125521428Y-80078571D02*
X125521428Y-80421428D01*
X125521428Y-80250000D02*
X124921428Y-80250000D01*
X125007142Y-80307142D01*
X125064285Y-80364285D01*
X125092857Y-80421428D01*
%TO.C,U2*%
X136542857Y-86011904D02*
X136542857Y-86659523D01*
X136571428Y-86735714D01*
X136600000Y-86773809D01*
X136657142Y-86811904D01*
X136771428Y-86811904D01*
X136828571Y-86773809D01*
X136857142Y-86735714D01*
X136885714Y-86659523D01*
X136885714Y-86011904D01*
X137142857Y-86088095D02*
X137171428Y-86050000D01*
X137228571Y-86011904D01*
X137371428Y-86011904D01*
X137428571Y-86050000D01*
X137457142Y-86088095D01*
X137485714Y-86164285D01*
X137485714Y-86240476D01*
X137457142Y-86354761D01*
X137114285Y-86811904D01*
X137485714Y-86811904D01*
%TO.C,D2*%
X141421428Y-96842857D02*
X140821428Y-96842857D01*
X140821428Y-96700000D01*
X140850000Y-96614285D01*
X140907142Y-96557142D01*
X140964285Y-96528571D01*
X141078571Y-96500000D01*
X141164285Y-96500000D01*
X141278571Y-96528571D01*
X141335714Y-96557142D01*
X141392857Y-96614285D01*
X141421428Y-96700000D01*
X141421428Y-96842857D01*
X140878571Y-96271428D02*
X140850000Y-96242857D01*
X140821428Y-96185714D01*
X140821428Y-96042857D01*
X140850000Y-95985714D01*
X140878571Y-95957142D01*
X140935714Y-95928571D01*
X140992857Y-95928571D01*
X141078571Y-95957142D01*
X141421428Y-96300000D01*
X141421428Y-95928571D01*
%TO.C,R4*%
X148750000Y-92371428D02*
X148550000Y-92085714D01*
X148407142Y-92371428D02*
X148407142Y-91771428D01*
X148635714Y-91771428D01*
X148692857Y-91800000D01*
X148721428Y-91828571D01*
X148750000Y-91885714D01*
X148750000Y-91971428D01*
X148721428Y-92028571D01*
X148692857Y-92057142D01*
X148635714Y-92085714D01*
X148407142Y-92085714D01*
X149264285Y-91971428D02*
X149264285Y-92371428D01*
X149121428Y-91742857D02*
X148978571Y-92171428D01*
X149350000Y-92171428D01*
%TO.C,C1*%
X136600000Y-80238785D02*
X136571428Y-80267357D01*
X136485714Y-80295928D01*
X136428571Y-80295928D01*
X136342857Y-80267357D01*
X136285714Y-80210214D01*
X136257142Y-80153071D01*
X136228571Y-80038785D01*
X136228571Y-79953071D01*
X136257142Y-79838785D01*
X136285714Y-79781642D01*
X136342857Y-79724500D01*
X136428571Y-79695928D01*
X136485714Y-79695928D01*
X136571428Y-79724500D01*
X136600000Y-79753071D01*
X137171428Y-80295928D02*
X136828571Y-80295928D01*
X137000000Y-80295928D02*
X137000000Y-79695928D01*
X136942857Y-79781642D01*
X136885714Y-79838785D01*
X136828571Y-79867357D01*
%TO.C,R7*%
X132885000Y-95271428D02*
X132685000Y-94985714D01*
X132542142Y-95271428D02*
X132542142Y-94671428D01*
X132770714Y-94671428D01*
X132827857Y-94700000D01*
X132856428Y-94728571D01*
X132885000Y-94785714D01*
X132885000Y-94871428D01*
X132856428Y-94928571D01*
X132827857Y-94957142D01*
X132770714Y-94985714D01*
X132542142Y-94985714D01*
X133085000Y-94671428D02*
X133485000Y-94671428D01*
X133227857Y-95271428D01*
%TO.C,P1*%
X127902380Y-89638095D02*
X126902380Y-89638095D01*
X126902380Y-89257142D01*
X126950000Y-89161904D01*
X126997619Y-89114285D01*
X127092857Y-89066666D01*
X127235714Y-89066666D01*
X127330952Y-89114285D01*
X127378571Y-89161904D01*
X127426190Y-89257142D01*
X127426190Y-89638095D01*
X127902380Y-88114285D02*
X127902380Y-88685714D01*
X127902380Y-88400000D02*
X126902380Y-88400000D01*
X127045238Y-88495238D01*
X127140476Y-88590476D01*
X127188095Y-88685714D01*
%TO.C,R6*%
X128900000Y-95271428D02*
X128700000Y-94985714D01*
X128557142Y-95271428D02*
X128557142Y-94671428D01*
X128785714Y-94671428D01*
X128842857Y-94700000D01*
X128871428Y-94728571D01*
X128900000Y-94785714D01*
X128900000Y-94871428D01*
X128871428Y-94928571D01*
X128842857Y-94957142D01*
X128785714Y-94985714D01*
X128557142Y-94985714D01*
X129414285Y-94671428D02*
X129300000Y-94671428D01*
X129242857Y-94700000D01*
X129214285Y-94728571D01*
X129157142Y-94814285D01*
X129128571Y-94928571D01*
X129128571Y-95157142D01*
X129157142Y-95214285D01*
X129185714Y-95242857D01*
X129242857Y-95271428D01*
X129357142Y-95271428D01*
X129414285Y-95242857D01*
X129442857Y-95214285D01*
X129471428Y-95157142D01*
X129471428Y-95014285D01*
X129442857Y-94957142D01*
X129414285Y-94928571D01*
X129357142Y-94900000D01*
X129242857Y-94900000D01*
X129185714Y-94928571D01*
X129157142Y-94957142D01*
X129128571Y-95014285D01*
%TO.C,JP1*%
X156071428Y-96600000D02*
X156500000Y-96600000D01*
X156585714Y-96628571D01*
X156642857Y-96685714D01*
X156671428Y-96771428D01*
X156671428Y-96828571D01*
X156671428Y-96314285D02*
X156071428Y-96314285D01*
X156071428Y-96085714D01*
X156100000Y-96028571D01*
X156128571Y-96000000D01*
X156185714Y-95971428D01*
X156271428Y-95971428D01*
X156328571Y-96000000D01*
X156357142Y-96028571D01*
X156385714Y-96085714D01*
X156385714Y-96314285D01*
X156671428Y-95400000D02*
X156671428Y-95742857D01*
X156671428Y-95571428D02*
X156071428Y-95571428D01*
X156157142Y-95628571D01*
X156214285Y-95685714D01*
X156242857Y-95742857D01*
%TO.C,R1*%
X132892500Y-80321428D02*
X132692500Y-80035714D01*
X132549642Y-80321428D02*
X132549642Y-79721428D01*
X132778214Y-79721428D01*
X132835357Y-79750000D01*
X132863928Y-79778571D01*
X132892500Y-79835714D01*
X132892500Y-79921428D01*
X132863928Y-79978571D01*
X132835357Y-80007142D01*
X132778214Y-80035714D01*
X132549642Y-80035714D01*
X133463928Y-80321428D02*
X133121071Y-80321428D01*
X133292500Y-80321428D02*
X133292500Y-79721428D01*
X133235357Y-79807142D01*
X133178214Y-79864285D01*
X133121071Y-79892857D01*
%TO.C,R3*%
X148750000Y-95371428D02*
X148550000Y-95085714D01*
X148407142Y-95371428D02*
X148407142Y-94771428D01*
X148635714Y-94771428D01*
X148692857Y-94800000D01*
X148721428Y-94828571D01*
X148750000Y-94885714D01*
X148750000Y-94971428D01*
X148721428Y-95028571D01*
X148692857Y-95057142D01*
X148635714Y-95085714D01*
X148407142Y-95085714D01*
X148950000Y-94771428D02*
X149321428Y-94771428D01*
X149121428Y-95000000D01*
X149207142Y-95000000D01*
X149264285Y-95028571D01*
X149292857Y-95057142D01*
X149321428Y-95114285D01*
X149321428Y-95257142D01*
X149292857Y-95314285D01*
X149264285Y-95342857D01*
X149207142Y-95371428D01*
X149035714Y-95371428D01*
X148978571Y-95342857D01*
X148950000Y-95314285D01*
%TO.C,D4*%
X152121428Y-80892857D02*
X151521428Y-80892857D01*
X151521428Y-80750000D01*
X151550000Y-80664285D01*
X151607142Y-80607142D01*
X151664285Y-80578571D01*
X151778571Y-80550000D01*
X151864285Y-80550000D01*
X151978571Y-80578571D01*
X152035714Y-80607142D01*
X152092857Y-80664285D01*
X152121428Y-80750000D01*
X152121428Y-80892857D01*
X151721428Y-80035714D02*
X152121428Y-80035714D01*
X151492857Y-80178571D02*
X151921428Y-80321428D01*
X151921428Y-79950000D01*
%TO.C,J1*%
X163602380Y-89083333D02*
X164316666Y-89083333D01*
X164459523Y-89130952D01*
X164554761Y-89226190D01*
X164602380Y-89369047D01*
X164602380Y-89464285D01*
X164602380Y-88083333D02*
X164602380Y-88654761D01*
X164602380Y-88369047D02*
X163602380Y-88369047D01*
X163745238Y-88464285D01*
X163840476Y-88559523D01*
X163888095Y-88654761D01*
%TO.C,D3*%
X141471428Y-93942857D02*
X140871428Y-93942857D01*
X140871428Y-93800000D01*
X140900000Y-93714285D01*
X140957142Y-93657142D01*
X141014285Y-93628571D01*
X141128571Y-93600000D01*
X141214285Y-93600000D01*
X141328571Y-93628571D01*
X141385714Y-93657142D01*
X141442857Y-93714285D01*
X141471428Y-93800000D01*
X141471428Y-93942857D01*
X140871428Y-93400000D02*
X140871428Y-93028571D01*
X141100000Y-93228571D01*
X141100000Y-93142857D01*
X141128571Y-93085714D01*
X141157142Y-93057142D01*
X141214285Y-93028571D01*
X141357142Y-93028571D01*
X141414285Y-93057142D01*
X141442857Y-93085714D01*
X141471428Y-93142857D01*
X141471428Y-93314285D01*
X141442857Y-93371428D01*
X141414285Y-93400000D01*
%TO.C,C3*%
X135837500Y-93814285D02*
X135808928Y-93842857D01*
X135723214Y-93871428D01*
X135666071Y-93871428D01*
X135580357Y-93842857D01*
X135523214Y-93785714D01*
X135494642Y-93728571D01*
X135466071Y-93614285D01*
X135466071Y-93528571D01*
X135494642Y-93414285D01*
X135523214Y-93357142D01*
X135580357Y-93300000D01*
X135666071Y-93271428D01*
X135723214Y-93271428D01*
X135808928Y-93300000D01*
X135837500Y-93328571D01*
X136037500Y-93271428D02*
X136408928Y-93271428D01*
X136208928Y-93500000D01*
X136294642Y-93500000D01*
X136351785Y-93528571D01*
X136380357Y-93557142D01*
X136408928Y-93614285D01*
X136408928Y-93757142D01*
X136380357Y-93814285D01*
X136351785Y-93842857D01*
X136294642Y-93871428D01*
X136123214Y-93871428D01*
X136066071Y-93842857D01*
X136037500Y-93814285D01*
D11*
%TO.C,C2*%
X140035000Y-82176248D02*
X140035000Y-82698752D01*
X138565000Y-82176248D02*
X138565000Y-82698752D01*
%TO.C,R5*%
X155327064Y-85185000D02*
X154872936Y-85185000D01*
X155327064Y-83715000D02*
X154872936Y-83715000D01*
D10*
%TO.C,U1*%
X149875000Y-91150000D02*
X149875000Y-90575000D01*
X144125000Y-91150000D02*
X144125000Y-90500000D01*
X149875000Y-90575000D02*
X151475000Y-90575000D01*
X149875000Y-80500000D02*
X149875000Y-81150000D01*
X144125000Y-80500000D02*
X144125000Y-81150000D01*
X149875000Y-91150000D02*
X144125000Y-91150000D01*
X149875000Y-80500000D02*
X144125000Y-80500000D01*
D11*
%TO.C,D1*%
X129800000Y-80040000D02*
X125915000Y-80040000D01*
X125915000Y-82960000D02*
X129800000Y-82960000D01*
X125915000Y-80040000D02*
X125915000Y-82960000D01*
%TO.C,U2*%
X135937500Y-90145000D02*
X135137500Y-90145000D01*
X135937500Y-90145000D02*
X137737500Y-90145000D01*
X135937500Y-87025000D02*
X136737500Y-87025000D01*
X135937500Y-87025000D02*
X135137500Y-87025000D01*
%TO.C,D2*%
X141865000Y-98060000D02*
X145750000Y-98060000D01*
X145750000Y-95140000D02*
X141865000Y-95140000D01*
X141865000Y-95140000D02*
X141865000Y-98060000D01*
%TO.C,R4*%
X149127064Y-92765000D02*
X148672936Y-92765000D01*
X149127064Y-94235000D02*
X148672936Y-94235000D01*
%TO.C,C1*%
X137435000Y-82176248D02*
X137435000Y-82698752D01*
X135965000Y-82176248D02*
X135965000Y-82698752D01*
%TO.C,R7*%
X132757936Y-95785000D02*
X133212064Y-95785000D01*
X132757936Y-97255000D02*
X133212064Y-97255000D01*
%TO.C,P1*%
X128125000Y-93370000D02*
X126325000Y-93370000D01*
X122615000Y-84430000D02*
X124075000Y-84430000D01*
X122615000Y-93370000D02*
X124075000Y-93370000D01*
X128125000Y-84430000D02*
X126325000Y-84430000D01*
X122615000Y-93370000D02*
X122615000Y-84430000D01*
%TO.C,R6*%
X129148064Y-95785000D02*
X128693936Y-95785000D01*
X129148064Y-97255000D02*
X128693936Y-97255000D01*
%TO.C,JP1*%
X152100000Y-97600000D02*
X152700000Y-97600000D01*
X152200000Y-95100000D02*
X155000000Y-95100000D01*
X155000000Y-97100000D02*
X152200000Y-97100000D01*
X155650000Y-95800000D02*
X155650000Y-96400000D01*
X151550000Y-96400000D02*
X151550000Y-95800000D01*
X152400000Y-97300000D02*
X152700000Y-97600000D01*
X152400000Y-97300000D02*
X152100000Y-97600000D01*
X155650000Y-96400000D02*
G75*
G02*
X154950000Y-97100000I-700000J0D01*
G01*
X151550000Y-95800000D02*
G75*
G02*
X152250000Y-95100000I700000J0D01*
G01*
X152250000Y-97100000D02*
G75*
G02*
X151550000Y-96400000I0J700000D01*
G01*
X154950000Y-95100000D02*
G75*
G02*
X155650000Y-95800000I0J-700000D01*
G01*
%TO.C,R1*%
X133219564Y-80765000D02*
X132765436Y-80765000D01*
X133219564Y-82235000D02*
X132765436Y-82235000D01*
%TO.C,R3*%
X149127064Y-95665000D02*
X148672936Y-95665000D01*
X149127064Y-97135000D02*
X148672936Y-97135000D01*
%TO.C,D4*%
X152415000Y-82960000D02*
X156300000Y-82960000D01*
X156300000Y-80040000D02*
X152415000Y-80040000D01*
X152415000Y-80040000D02*
X152415000Y-82960000D01*
%TO.C,J1*%
X174650000Y-80890000D02*
X174650000Y-96620000D01*
X161700000Y-96700000D02*
X161200000Y-97200000D01*
X161200000Y-97200000D02*
X162200000Y-97200000D01*
X162200000Y-97200000D02*
X161700000Y-96700000D01*
X157910000Y-80890000D02*
X174650000Y-80890000D01*
X157910000Y-96620000D02*
X174650000Y-96620000D01*
X157910000Y-80900000D02*
X157910000Y-96620000D01*
%TO.C,D3*%
X141865000Y-92040000D02*
X141865000Y-94960000D01*
X141865000Y-94960000D02*
X145750000Y-94960000D01*
X145750000Y-92040000D02*
X141865000Y-92040000D01*
%TO.C,C3*%
X136198752Y-92935000D02*
X135676248Y-92935000D01*
X136198752Y-91465000D02*
X135676248Y-91465000D01*
%TD*%
D12*
%TO.C,J1*%
X168050000Y-94470000D03*
X168050000Y-83040000D03*
%TD*%
%LPC*%
D13*
%TO.C,C2*%
X139300000Y-81400000D03*
X139300000Y-83475000D03*
%TD*%
D14*
%TO.C,R5*%
X156100000Y-84450000D03*
X154100000Y-84450000D03*
%TD*%
D15*
%TO.C,U1*%
X150600000Y-90050000D03*
X150600000Y-89400000D03*
X150600000Y-88750000D03*
X150600000Y-88100000D03*
X150600000Y-87450000D03*
X150600000Y-86800000D03*
X150600000Y-86150000D03*
X150600000Y-85500000D03*
X150600000Y-84850000D03*
X150600000Y-84200000D03*
X150600000Y-83550000D03*
X150600000Y-82900000D03*
X150600000Y-82250000D03*
X150600000Y-81600000D03*
X143400000Y-81600000D03*
X143400000Y-82250000D03*
X143400000Y-82900000D03*
X143400000Y-83550000D03*
X143400000Y-84200000D03*
X143400000Y-84850000D03*
X143400000Y-85500000D03*
X143400000Y-86150000D03*
X143400000Y-86800000D03*
X143400000Y-87450000D03*
X143400000Y-88100000D03*
X143400000Y-88750000D03*
X143400000Y-89400000D03*
X143400000Y-90050000D03*
%TD*%
D16*
%TO.C,D1*%
X128200000Y-81500000D03*
D17*
X126650000Y-81500000D03*
X129750000Y-81500000D03*
%TD*%
D18*
%TO.C,U2*%
X137075000Y-89535000D03*
X137075000Y-88585000D03*
X137075000Y-87635000D03*
X134800000Y-87635000D03*
X134800000Y-88585000D03*
X134800000Y-89535000D03*
%TD*%
D16*
%TO.C,D2*%
X144150000Y-96600000D03*
D17*
X142600000Y-96600000D03*
X145700000Y-96600000D03*
%TD*%
D14*
%TO.C,R4*%
X149900000Y-93500000D03*
X147900000Y-93500000D03*
%TD*%
D13*
%TO.C,C1*%
X136700000Y-81400000D03*
X136700000Y-83475000D03*
%TD*%
D19*
%TO.C,R7*%
X131985000Y-96520000D03*
X133985000Y-96520000D03*
%TD*%
D20*
%TO.C,P1*%
X128905000Y-86010000D03*
X128905000Y-91790000D03*
D21*
X129965000Y-85700000D03*
X129965000Y-86500000D03*
D22*
X129965000Y-87650000D03*
X129965000Y-88650000D03*
X129965000Y-89150000D03*
X129965000Y-90150000D03*
D21*
X129965000Y-91300000D03*
X129965000Y-92100000D03*
X129965000Y-92100000D03*
X129965000Y-91300000D03*
D22*
X129965000Y-90650000D03*
X129965000Y-89650000D03*
X129965000Y-88150000D03*
X129965000Y-87150000D03*
D21*
X129965000Y-86500000D03*
X129965000Y-85700000D03*
D23*
X125215000Y-84580000D03*
X125215000Y-93220000D03*
D24*
X129385000Y-84580000D03*
X129385000Y-93220000D03*
%TD*%
D14*
%TO.C,R6*%
X129921000Y-96520000D03*
X127921000Y-96520000D03*
%TD*%
D25*
%TO.C,JP1*%
X152300000Y-96100000D03*
D26*
X153600000Y-96100000D03*
D27*
X154900000Y-96100000D03*
%TD*%
D14*
%TO.C,R1*%
X133992500Y-81500000D03*
X131992500Y-81500000D03*
%TD*%
%TO.C,R3*%
X149900000Y-96400000D03*
X147900000Y-96400000D03*
%TD*%
D16*
%TO.C,D4*%
X154700000Y-81500000D03*
D17*
X153150000Y-81500000D03*
X156250000Y-81500000D03*
%TD*%
D12*
%TO.C,J1*%
X168050000Y-94470000D03*
X168050000Y-83040000D03*
D28*
X161700000Y-93200000D03*
D29*
X159160000Y-91930000D03*
X161700000Y-90660000D03*
X159160000Y-89390000D03*
X161700000Y-88120000D03*
X159160000Y-86850000D03*
X161700000Y-85580000D03*
X159160000Y-84310000D03*
%TD*%
D16*
%TO.C,D3*%
X144150000Y-93500000D03*
D17*
X142600000Y-93500000D03*
X145700000Y-93500000D03*
%TD*%
D30*
%TO.C,C3*%
X136975000Y-92200000D03*
X134900000Y-92200000D03*
%TD*%
M02*
