%TF.GenerationSoftware,KiCad,Pcbnew,5.99.0-unknown-4920692bcd~125~ubuntu20.04.1*%
%TF.CreationDate,2021-04-18T13:07:43+02:00*%
%TF.ProjectId,USBMOUNT01A,5553424d-4f55-44e5-9430-31412e6b6963,rev?*%
%TF.SameCoordinates,Original*%
%TF.FileFunction,Copper,L1,Top*%
%TF.FilePolarity,Positive*%
%FSLAX46Y46*%
G04 Gerber Fmt 4.6, Leading zero omitted, Abs format (unit mm)*
G04 Created by KiCad (PCBNEW 5.99.0-unknown-4920692bcd~125~ubuntu20.04.1) date 2021-04-18 13:07:43*
%MOMM*%
%LPD*%
G01*
G04 APERTURE LIST*
G04 Aperture macros list*
%AMRoundRect*
0 Rectangle with rounded corners*
0 $1 Rounding radius*
0 $2 $3 $4 $5 $6 $7 $8 $9 X,Y pos of 4 corners*
0 Add a 4 corners polygon primitive as box body*
4,1,4,$2,$3,$4,$5,$6,$7,$8,$9,$2,$3,0*
0 Add four circle primitives for the rounded corners*
1,1,$1+$1,$2,$3*
1,1,$1+$1,$4,$5*
1,1,$1+$1,$6,$7*
1,1,$1+$1,$8,$9*
0 Add four rect primitives between the rounded corners*
20,1,$1+$1,$2,$3,$4,$5,0*
20,1,$1+$1,$4,$5,$6,$7,0*
20,1,$1+$1,$6,$7,$8,$9,0*
20,1,$1+$1,$8,$9,$2,$3,0*%
%AMFreePoly0*
4,1,22,0.550000,-0.750000,0.000000,-0.750000,0.000000,-0.745033,-0.079941,-0.743568,-0.215256,-0.701293,-0.333266,-0.622738,-0.424486,-0.514219,-0.481581,-0.384460,-0.499164,-0.250000,-0.500000,-0.250000,-0.500000,0.250000,-0.499164,0.250000,-0.499963,0.256109,-0.478152,0.396186,-0.417904,0.524511,-0.324060,0.630769,-0.204165,0.706417,-0.067858,0.745374,0.000000,0.744959,0.000000,0.750000,
0.550000,0.750000,0.550000,-0.750000,0.550000,-0.750000,$1*%
%AMFreePoly1*
4,1,20,0.000000,0.744959,0.073905,0.744508,0.209726,0.703889,0.328688,0.626782,0.421226,0.519385,0.479903,0.390333,0.500000,0.250000,0.500000,-0.250000,0.499851,-0.262216,0.476331,-0.402017,0.414519,-0.529596,0.319384,-0.634700,0.198574,-0.708877,0.061801,-0.746166,0.000000,-0.745033,0.000000,-0.750000,-0.550000,-0.750000,-0.550000,0.750000,0.000000,0.750000,0.000000,0.744959,
0.000000,0.744959,$1*%
G04 Aperture macros list end*
%ADD10C,0.200000*%
%TA.AperFunction,NonConductor*%
%ADD11C,0.200000*%
%TD*%
%TA.AperFunction,SMDPad,CuDef*%
%ADD12RoundRect,0.250000X-0.475000X0.337500X-0.475000X-0.337500X0.475000X-0.337500X0.475000X0.337500X0*%
%TD*%
%TA.AperFunction,SMDPad,CuDef*%
%ADD13RoundRect,0.250000X0.350000X0.450000X-0.350000X0.450000X-0.350000X-0.450000X0.350000X-0.450000X0*%
%TD*%
%TA.AperFunction,SMDPad,CuDef*%
%ADD14R,1.750000X0.450000*%
%TD*%
%TA.AperFunction,SMDPad,CuDef*%
%ADD15RoundRect,0.190000X-0.285000X-0.685000X0.285000X-0.685000X0.285000X0.685000X-0.285000X0.685000X0*%
%TD*%
%TA.AperFunction,SMDPad,CuDef*%
%ADD16RoundRect,0.150000X0.512500X0.150000X-0.512500X0.150000X-0.512500X-0.150000X0.512500X-0.150000X0*%
%TD*%
%TA.AperFunction,SMDPad,CuDef*%
%ADD17RoundRect,0.250000X-0.350000X-0.450000X0.350000X-0.450000X0.350000X0.450000X-0.350000X0.450000X0*%
%TD*%
%TA.AperFunction,SMDPad,CuDef*%
%ADD18R,1.160000X0.600000*%
%TD*%
%TA.AperFunction,SMDPad,CuDef*%
%ADD19R,1.160000X0.300000*%
%TD*%
%TA.AperFunction,ComponentPad*%
%ADD20O,2.000000X0.900000*%
%TD*%
%TA.AperFunction,ComponentPad*%
%ADD21O,2.100000X0.900000*%
%TD*%
%TA.AperFunction,SMDPad,CuDef*%
%ADD22FreePoly0,0.000000*%
%TD*%
%TA.AperFunction,SMDPad,CuDef*%
%ADD23R,1.000000X1.500000*%
%TD*%
%TA.AperFunction,SMDPad,CuDef*%
%ADD24FreePoly1,0.000000*%
%TD*%
%TA.AperFunction,WasherPad*%
%ADD25C,3.650000*%
%TD*%
%TA.AperFunction,ComponentPad*%
%ADD26R,1.500000X1.500000*%
%TD*%
%TA.AperFunction,ComponentPad*%
%ADD27C,1.500000*%
%TD*%
%TA.AperFunction,SMDPad,CuDef*%
%ADD28RoundRect,0.250000X0.337500X0.475000X-0.337500X0.475000X-0.337500X-0.475000X0.337500X-0.475000X0*%
%TD*%
%TA.AperFunction,ViaPad*%
%ADD29C,0.800000*%
%TD*%
%TA.AperFunction,Conductor*%
%ADD30C,0.300000*%
%TD*%
%TA.AperFunction,Conductor*%
%ADD31C,0.350000*%
%TD*%
G04 APERTURE END LIST*
D10*
D11*
X158535714Y-79535714D02*
X158726190Y-80202380D01*
X158916666Y-79726190D01*
X159107142Y-80202380D01*
X159297619Y-79535714D01*
X159583333Y-79535714D02*
X159773809Y-80202380D01*
X159964285Y-79726190D01*
X160154761Y-80202380D01*
X160345238Y-79535714D01*
X160630952Y-79535714D02*
X160821428Y-80202380D01*
X161011904Y-79726190D01*
X161202380Y-80202380D01*
X161392857Y-79535714D01*
X161773809Y-80107142D02*
X161821428Y-80154761D01*
X161773809Y-80202380D01*
X161726190Y-80154761D01*
X161773809Y-80107142D01*
X161773809Y-80202380D01*
X162678571Y-80202380D02*
X162678571Y-79678571D01*
X162630952Y-79583333D01*
X162535714Y-79535714D01*
X162345238Y-79535714D01*
X162250000Y-79583333D01*
X162678571Y-80154761D02*
X162583333Y-80202380D01*
X162345238Y-80202380D01*
X162250000Y-80154761D01*
X162202380Y-80059523D01*
X162202380Y-79964285D01*
X162250000Y-79869047D01*
X162345238Y-79821428D01*
X162583333Y-79821428D01*
X162678571Y-79773809D01*
X163107142Y-80154761D02*
X163202380Y-80202380D01*
X163392857Y-80202380D01*
X163488095Y-80154761D01*
X163535714Y-80059523D01*
X163535714Y-80011904D01*
X163488095Y-79916666D01*
X163392857Y-79869047D01*
X163250000Y-79869047D01*
X163154761Y-79821428D01*
X163107142Y-79726190D01*
X163107142Y-79678571D01*
X163154761Y-79583333D01*
X163250000Y-79535714D01*
X163392857Y-79535714D01*
X163488095Y-79583333D01*
X163821428Y-79535714D02*
X164202380Y-79535714D01*
X163964285Y-79202380D02*
X163964285Y-80059523D01*
X164011904Y-80154761D01*
X164107142Y-80202380D01*
X164202380Y-80202380D01*
X164535714Y-80202380D02*
X164535714Y-79535714D01*
X164535714Y-79726190D02*
X164583333Y-79630952D01*
X164630952Y-79583333D01*
X164726190Y-79535714D01*
X164821428Y-79535714D01*
X165297619Y-80202380D02*
X165202380Y-80154761D01*
X165154761Y-80107142D01*
X165107142Y-80011904D01*
X165107142Y-79726190D01*
X165154761Y-79630952D01*
X165202380Y-79583333D01*
X165297619Y-79535714D01*
X165440476Y-79535714D01*
X165535714Y-79583333D01*
X165583333Y-79630952D01*
X165630952Y-79726190D01*
X165630952Y-80011904D01*
X165583333Y-80107142D01*
X165535714Y-80154761D01*
X165440476Y-80202380D01*
X165297619Y-80202380D01*
X166059523Y-80202380D02*
X166059523Y-79535714D01*
X166059523Y-79630952D02*
X166107142Y-79583333D01*
X166202380Y-79535714D01*
X166345238Y-79535714D01*
X166440476Y-79583333D01*
X166488095Y-79678571D01*
X166488095Y-80202380D01*
X166488095Y-79678571D02*
X166535714Y-79583333D01*
X166630952Y-79535714D01*
X166773809Y-79535714D01*
X166869047Y-79583333D01*
X166916666Y-79678571D01*
X166916666Y-80202380D01*
X167773809Y-80154761D02*
X167678571Y-80202380D01*
X167488095Y-80202380D01*
X167392857Y-80154761D01*
X167345238Y-80059523D01*
X167345238Y-79678571D01*
X167392857Y-79583333D01*
X167488095Y-79535714D01*
X167678571Y-79535714D01*
X167773809Y-79583333D01*
X167821428Y-79678571D01*
X167821428Y-79773809D01*
X167345238Y-79869047D01*
X168107142Y-79535714D02*
X168488095Y-79535714D01*
X168250000Y-79202380D02*
X168250000Y-80059523D01*
X168297619Y-80154761D01*
X168392857Y-80202380D01*
X168488095Y-80202380D01*
X169202380Y-80154761D02*
X169107142Y-80202380D01*
X168916666Y-80202380D01*
X168821428Y-80154761D01*
X168773809Y-80059523D01*
X168773809Y-79678571D01*
X168821428Y-79583333D01*
X168916666Y-79535714D01*
X169107142Y-79535714D01*
X169202380Y-79583333D01*
X169250000Y-79678571D01*
X169250000Y-79773809D01*
X168773809Y-79869047D01*
X169678571Y-80202380D02*
X169678571Y-79535714D01*
X169678571Y-79726190D02*
X169726190Y-79630952D01*
X169773809Y-79583333D01*
X169869047Y-79535714D01*
X169964285Y-79535714D01*
X170250000Y-80154761D02*
X170345238Y-80202380D01*
X170535714Y-80202380D01*
X170630952Y-80154761D01*
X170678571Y-80059523D01*
X170678571Y-80011904D01*
X170630952Y-79916666D01*
X170535714Y-79869047D01*
X170392857Y-79869047D01*
X170297619Y-79821428D01*
X170250000Y-79726190D01*
X170250000Y-79678571D01*
X170297619Y-79583333D01*
X170392857Y-79535714D01*
X170535714Y-79535714D01*
X170630952Y-79583333D01*
X171107142Y-80107142D02*
X171154761Y-80154761D01*
X171107142Y-80202380D01*
X171059523Y-80154761D01*
X171107142Y-80107142D01*
X171107142Y-80202380D01*
X171964285Y-80154761D02*
X171869047Y-80202380D01*
X171678571Y-80202380D01*
X171583333Y-80154761D01*
X171535714Y-80059523D01*
X171535714Y-79678571D01*
X171583333Y-79583333D01*
X171678571Y-79535714D01*
X171869047Y-79535714D01*
X171964285Y-79583333D01*
X172011904Y-79678571D01*
X172011904Y-79773809D01*
X171535714Y-79869047D01*
X172869047Y-79535714D02*
X172869047Y-80202380D01*
X172440476Y-79535714D02*
X172440476Y-80059523D01*
X172488095Y-80154761D01*
X172583333Y-80202380D01*
X172726190Y-80202380D01*
X172821428Y-80154761D01*
X172869047Y-80107142D01*
D10*
D11*
X162333333Y-97202380D02*
X162333333Y-98011904D01*
X162380952Y-98107142D01*
X162428571Y-98154761D01*
X162523809Y-98202380D01*
X162714285Y-98202380D01*
X162809523Y-98154761D01*
X162857142Y-98107142D01*
X162904761Y-98011904D01*
X162904761Y-97202380D01*
X163333333Y-98154761D02*
X163476190Y-98202380D01*
X163714285Y-98202380D01*
X163809523Y-98154761D01*
X163857142Y-98107142D01*
X163904761Y-98011904D01*
X163904761Y-97916666D01*
X163857142Y-97821428D01*
X163809523Y-97773809D01*
X163714285Y-97726190D01*
X163523809Y-97678571D01*
X163428571Y-97630952D01*
X163380952Y-97583333D01*
X163333333Y-97488095D01*
X163333333Y-97392857D01*
X163380952Y-97297619D01*
X163428571Y-97250000D01*
X163523809Y-97202380D01*
X163761904Y-97202380D01*
X163904761Y-97250000D01*
X164666666Y-97678571D02*
X164809523Y-97726190D01*
X164857142Y-97773809D01*
X164904761Y-97869047D01*
X164904761Y-98011904D01*
X164857142Y-98107142D01*
X164809523Y-98154761D01*
X164714285Y-98202380D01*
X164333333Y-98202380D01*
X164333333Y-97202380D01*
X164666666Y-97202380D01*
X164761904Y-97250000D01*
X164809523Y-97297619D01*
X164857142Y-97392857D01*
X164857142Y-97488095D01*
X164809523Y-97583333D01*
X164761904Y-97630952D01*
X164666666Y-97678571D01*
X164333333Y-97678571D01*
X165333333Y-98202380D02*
X165333333Y-97202380D01*
X165666666Y-97916666D01*
X166000000Y-97202380D01*
X166000000Y-98202380D01*
X166666666Y-97202380D02*
X166857142Y-97202380D01*
X166952380Y-97250000D01*
X167047619Y-97345238D01*
X167095238Y-97535714D01*
X167095238Y-97869047D01*
X167047619Y-98059523D01*
X166952380Y-98154761D01*
X166857142Y-98202380D01*
X166666666Y-98202380D01*
X166571428Y-98154761D01*
X166476190Y-98059523D01*
X166428571Y-97869047D01*
X166428571Y-97535714D01*
X166476190Y-97345238D01*
X166571428Y-97250000D01*
X166666666Y-97202380D01*
X167523809Y-97202380D02*
X167523809Y-98011904D01*
X167571428Y-98107142D01*
X167619047Y-98154761D01*
X167714285Y-98202380D01*
X167904761Y-98202380D01*
X168000000Y-98154761D01*
X168047619Y-98107142D01*
X168095238Y-98011904D01*
X168095238Y-97202380D01*
X168571428Y-98202380D02*
X168571428Y-97202380D01*
X169142857Y-98202380D01*
X169142857Y-97202380D01*
X169476190Y-97202380D02*
X170047619Y-97202380D01*
X169761904Y-98202380D02*
X169761904Y-97202380D01*
X170571428Y-97202380D02*
X170666666Y-97202380D01*
X170761904Y-97250000D01*
X170809523Y-97297619D01*
X170857142Y-97392857D01*
X170904761Y-97583333D01*
X170904761Y-97821428D01*
X170857142Y-98011904D01*
X170809523Y-98107142D01*
X170761904Y-98154761D01*
X170666666Y-98202380D01*
X170571428Y-98202380D01*
X170476190Y-98154761D01*
X170428571Y-98107142D01*
X170380952Y-98011904D01*
X170333333Y-97821428D01*
X170333333Y-97583333D01*
X170380952Y-97392857D01*
X170428571Y-97297619D01*
X170476190Y-97250000D01*
X170571428Y-97202380D01*
X171857142Y-98202380D02*
X171285714Y-98202380D01*
X171571428Y-98202380D02*
X171571428Y-97202380D01*
X171476190Y-97345238D01*
X171380952Y-97440476D01*
X171285714Y-97488095D01*
X172238095Y-97916666D02*
X172714285Y-97916666D01*
X172142857Y-98202380D02*
X172476190Y-97202380D01*
X172809523Y-98202380D01*
%TO.C,JP1*%
G36*
X153200000Y-96400000D02*
G01*
X152700000Y-96400000D01*
X152700000Y-95800000D01*
X153200000Y-95800000D01*
X153200000Y-96400000D01*
G37*
%TD*%
D12*
%TO.P,C2,1*%
%TO.N,+5V*%
X139300000Y-81400000D03*
%TO.P,C2,2*%
%TO.N,GND*%
X139300000Y-83475000D03*
%TD*%
D13*
%TO.P,R5,1*%
%TO.N,+12V*%
X156100000Y-84450000D03*
%TO.P,R5,2*%
%TO.N,Net-(D4-Pad2)*%
X154100000Y-84450000D03*
%TD*%
D14*
%TO.P,U1,1,TXD*%
%TO.N,TXD*%
X150600000Y-90050000D03*
%TO.P,U1,2,DTR*%
%TO.N,unconnected-(U1-Pad2)*%
X150600000Y-89400000D03*
%TO.P,U1,3,RTS*%
%TO.N,unconnected-(U1-Pad3)*%
X150600000Y-88750000D03*
%TO.P,U1,4,VCCIO*%
%TO.N,Net-(U1-Pad4)*%
X150600000Y-88100000D03*
%TO.P,U1,5,RXD*%
%TO.N,RXD*%
X150600000Y-87450000D03*
%TO.P,U1,6,RI*%
%TO.N,unconnected-(U1-Pad6)*%
X150600000Y-86800000D03*
%TO.P,U1,7,GND*%
%TO.N,GND*%
X150600000Y-86150000D03*
%TO.P,U1,8*%
%TO.N,N/C*%
X150600000Y-85500000D03*
%TO.P,U1,9,DCR*%
%TO.N,unconnected-(U1-Pad9)*%
X150600000Y-84850000D03*
%TO.P,U1,10,DCD*%
%TO.N,unconnected-(U1-Pad10)*%
X150600000Y-84200000D03*
%TO.P,U1,11,CTS*%
%TO.N,unconnected-(U1-Pad11)*%
X150600000Y-83550000D03*
%TO.P,U1,12,CBUS4*%
%TO.N,unconnected-(U1-Pad12)*%
X150600000Y-82900000D03*
%TO.P,U1,13,CBUS2*%
%TO.N,unconnected-(U1-Pad13)*%
X150600000Y-82250000D03*
%TO.P,U1,14,CBUS3*%
%TO.N,unconnected-(U1-Pad14)*%
X150600000Y-81600000D03*
%TO.P,U1,15,USBD+*%
%TO.N,/D+i*%
X143400000Y-81600000D03*
%TO.P,U1,16,USBD-*%
%TO.N,/D-i*%
X143400000Y-82250000D03*
%TO.P,U1,17,3V3OUT*%
%TO.N,+3V3*%
X143400000Y-82900000D03*
%TO.P,U1,18,GND*%
%TO.N,GND*%
X143400000Y-83550000D03*
%TO.P,U1,19,~RESET~*%
%TO.N,unconnected-(U1-Pad19)*%
X143400000Y-84200000D03*
%TO.P,U1,20,VCC*%
%TO.N,+5V*%
X143400000Y-84850000D03*
%TO.P,U1,21,GND*%
%TO.N,GND*%
X143400000Y-85500000D03*
%TO.P,U1,22,CBUS1*%
%TO.N,/LED_RX*%
X143400000Y-86150000D03*
%TO.P,U1,23,CBUS0*%
%TO.N,/LED_TX*%
X143400000Y-86800000D03*
%TO.P,U1,24*%
%TO.N,N/C*%
X143400000Y-87450000D03*
%TO.P,U1,25,AGND*%
%TO.N,GND*%
X143400000Y-88100000D03*
%TO.P,U1,26,TEST*%
%TO.N,unconnected-(U1-Pad26)*%
X143400000Y-88750000D03*
%TO.P,U1,27,OSCI*%
%TO.N,unconnected-(U1-Pad27)*%
X143400000Y-89400000D03*
%TO.P,U1,28,OSCO*%
%TO.N,unconnected-(U1-Pad28)*%
X143400000Y-90050000D03*
%TD*%
D15*
%TO.P,D1,1,K*%
%TO.N,GND*%
X126650000Y-81500000D03*
%TO.P,D1,2,A*%
%TO.N,Net-(D1-Pad2)*%
X129750000Y-81500000D03*
%TD*%
D16*
%TO.P,U2,1,I/O1*%
%TO.N,/D+i*%
X137075000Y-89535000D03*
%TO.P,U2,2,GND*%
%TO.N,GND*%
X137075000Y-88585000D03*
%TO.P,U2,3,I/O2*%
%TO.N,/D-i*%
X137075000Y-87635000D03*
%TO.P,U2,4,I/O2*%
%TO.N,/D-*%
X134800000Y-87635000D03*
%TO.P,U2,5,VBUS*%
%TO.N,+5V*%
X134800000Y-88585000D03*
%TO.P,U2,6,I/O1*%
%TO.N,/D+*%
X134800000Y-89535000D03*
%TD*%
D15*
%TO.P,D2,1,K*%
%TO.N,/LED_RX*%
X142600000Y-96600000D03*
%TO.P,D2,2,A*%
%TO.N,Net-(D2-Pad2)*%
X145700000Y-96600000D03*
%TD*%
D13*
%TO.P,R4,1*%
%TO.N,+5V*%
X149900000Y-93500000D03*
%TO.P,R4,2*%
%TO.N,Net-(D3-Pad2)*%
X147900000Y-93500000D03*
%TD*%
D12*
%TO.P,C1,1*%
%TO.N,+5V*%
X136700000Y-81400000D03*
%TO.P,C1,2*%
%TO.N,GND*%
X136700000Y-83475000D03*
%TD*%
D17*
%TO.P,R7,1*%
%TO.N,Net-(P1-PadB5)*%
X131985000Y-96520000D03*
%TO.P,R7,2*%
%TO.N,GND*%
X133985000Y-96520000D03*
%TD*%
D18*
%TO.P,P1,A1,GND*%
%TO.N,GND*%
X129965000Y-85700000D03*
%TO.P,P1,A4,VBUS*%
%TO.N,+5V*%
X129965000Y-86500000D03*
D19*
%TO.P,P1,A5,CC1*%
%TO.N,Net-(P1-PadA5)*%
X129965000Y-87650000D03*
%TO.P,P1,A6,D+*%
%TO.N,/D+*%
X129965000Y-88650000D03*
%TO.P,P1,A7,D-*%
%TO.N,/D-*%
X129965000Y-89150000D03*
%TO.P,P1,A8,SBU1*%
%TO.N,unconnected-(P1-PadA8)*%
X129965000Y-90150000D03*
D18*
%TO.P,P1,A9,VBUS*%
%TO.N,+5V*%
X129965000Y-91300000D03*
%TO.P,P1,A12,GND*%
%TO.N,GND*%
X129965000Y-92100000D03*
%TO.P,P1,B1,GND*%
X129965000Y-92100000D03*
%TO.P,P1,B4,VBUS*%
%TO.N,+5V*%
X129965000Y-91300000D03*
D19*
%TO.P,P1,B5,CC2*%
%TO.N,Net-(P1-PadB5)*%
X129965000Y-90650000D03*
%TO.P,P1,B6,D+*%
%TO.N,/D+*%
X129965000Y-89650000D03*
%TO.P,P1,B7,D-*%
%TO.N,/D-*%
X129965000Y-88150000D03*
%TO.P,P1,B8,SBU2*%
%TO.N,unconnected-(P1-PadB8)*%
X129965000Y-87150000D03*
D18*
%TO.P,P1,B9,VBUS*%
%TO.N,+5V*%
X129965000Y-86500000D03*
%TO.P,P1,B12,GND*%
%TO.N,GND*%
X129965000Y-85700000D03*
D20*
%TO.P,P1,S1,SHIELD*%
X125215000Y-84580000D03*
X125215000Y-93220000D03*
D21*
X129385000Y-84580000D03*
X129385000Y-93220000D03*
%TD*%
D13*
%TO.P,R6,1*%
%TO.N,Net-(P1-PadA5)*%
X129921000Y-96520000D03*
%TO.P,R6,2*%
%TO.N,GND*%
X127921000Y-96520000D03*
%TD*%
D22*
%TO.P,JP1,1,A*%
%TO.N,+5V*%
X152300000Y-96100000D03*
D23*
%TO.P,JP1,2,C*%
%TO.N,Net-(U1-Pad4)*%
X153600000Y-96100000D03*
D24*
%TO.P,JP1,3,B*%
%TO.N,+3V3*%
X154900000Y-96100000D03*
%TD*%
D13*
%TO.P,R1,1*%
%TO.N,+5V*%
X133992500Y-81500000D03*
%TO.P,R1,2*%
%TO.N,Net-(D1-Pad2)*%
X131992500Y-81500000D03*
%TD*%
%TO.P,R3,1*%
%TO.N,+5V*%
X149900000Y-96400000D03*
%TO.P,R3,2*%
%TO.N,Net-(D2-Pad2)*%
X147900000Y-96400000D03*
%TD*%
D15*
%TO.P,D4,1,K*%
%TO.N,GND*%
X153150000Y-81500000D03*
%TO.P,D4,2,A*%
%TO.N,Net-(D4-Pad2)*%
X156250000Y-81500000D03*
%TD*%
D25*
%TO.P,J1,*%
%TO.N,*%
X168050000Y-94470000D03*
X168050000Y-83040000D03*
D26*
%TO.P,J1,1*%
%TO.N,GND*%
X161700000Y-93200000D03*
D27*
%TO.P,J1,2*%
%TO.N,unconnected-(J1-Pad2)*%
X159160000Y-91930000D03*
%TO.P,J1,3*%
%TO.N,unconnected-(J1-Pad3)*%
X161700000Y-90660000D03*
%TO.P,J1,4*%
%TO.N,GND*%
X159160000Y-89390000D03*
%TO.P,J1,5*%
%TO.N,RXD*%
X161700000Y-88120000D03*
%TO.P,J1,6*%
%TO.N,TXD*%
X159160000Y-86850000D03*
%TO.P,J1,7*%
%TO.N,+12V*%
X161700000Y-85580000D03*
%TO.P,J1,8*%
X159160000Y-84310000D03*
%TD*%
D15*
%TO.P,D3,1,K*%
%TO.N,/LED_TX*%
X142600000Y-93500000D03*
%TO.P,D3,2,A*%
%TO.N,Net-(D3-Pad2)*%
X145700000Y-93500000D03*
%TD*%
D28*
%TO.P,C3,1*%
%TO.N,+3V3*%
X136975000Y-92200000D03*
%TO.P,C3,2*%
%TO.N,GND*%
X134900000Y-92200000D03*
%TD*%
D29*
%TO.N,GND*%
X145000000Y-81300000D03*
X142900000Y-91800000D03*
X147100000Y-81300000D03*
X132200000Y-87800000D03*
%TO.N,+5V*%
X132223000Y-86487000D03*
X131300000Y-90800000D03*
%TO.N,+3V3*%
X159500000Y-93700000D03*
X138300000Y-90800000D03*
%TO.N,/D+i*%
X142250000Y-81400000D03*
X138300000Y-89100000D03*
%TD*%
D30*
%TO.N,Net-(P1-PadA5)*%
X127300480Y-91563803D02*
X127300480Y-93600480D01*
X127300480Y-93600480D02*
X129921000Y-96221000D01*
X129110000Y-87640000D02*
X128575480Y-88174520D01*
X128575480Y-88174520D02*
X128575480Y-90288802D01*
X129921000Y-96221000D02*
X129921000Y-96520000D01*
X128575480Y-90288802D02*
X127300480Y-91563803D01*
X129921000Y-96121000D02*
X129921000Y-96520000D01*
X129965000Y-87640000D02*
X129110000Y-87640000D01*
%TO.N,/D+*%
X129965000Y-89650000D02*
X134710000Y-89650000D01*
X129965000Y-89640000D02*
X129975000Y-89650000D01*
X129185000Y-89640000D02*
X129965000Y-89640000D01*
X129185000Y-88640000D02*
X129000000Y-88825000D01*
X129965000Y-88640000D02*
X129185000Y-88640000D01*
X134710000Y-89650000D02*
X134825000Y-89535000D01*
X129000000Y-89455000D02*
X129185000Y-89640000D01*
X129000000Y-88825000D02*
X129000000Y-89455000D01*
%TO.N,/D-*%
X131000000Y-88500000D02*
X130640000Y-88140000D01*
X131000000Y-88700000D02*
X131000000Y-88500000D01*
X134034000Y-87635000D02*
X132969000Y-88700000D01*
X134800000Y-87635000D02*
X134034000Y-87635000D01*
X129965000Y-89140000D02*
X130860000Y-89140000D01*
X134034000Y-87635000D02*
X133669000Y-88000000D01*
X131000000Y-89000000D02*
X131000000Y-88700000D01*
X130640000Y-88140000D02*
X129965000Y-88140000D01*
X130860000Y-89140000D02*
X131000000Y-89000000D01*
X132969000Y-88700000D02*
X131000000Y-88700000D01*
%TO.N,Net-(P1-PadB5)*%
X128860000Y-90640000D02*
X127750000Y-91750000D01*
X129965000Y-90640000D02*
X128860000Y-90640000D01*
X127750000Y-91750000D02*
X127750000Y-93414282D01*
X127750000Y-93414282D02*
X129585718Y-95250000D01*
X131985000Y-96235000D02*
X131985000Y-96520000D01*
X129585718Y-95250000D02*
X131000000Y-95250000D01*
X131000000Y-95250000D02*
X131985000Y-96235000D01*
%TO.N,Net-(D3-Pad2)*%
X145700000Y-93500000D02*
X147700000Y-93500000D01*
%TO.N,Net-(D4-Pad2)*%
X154100000Y-84450000D02*
X156250000Y-82300000D01*
X156250000Y-82300000D02*
X156250000Y-81500000D01*
D31*
%TO.N,+12V*%
X160393000Y-85607500D02*
X159123000Y-84337500D01*
X159123000Y-84337500D02*
X156237500Y-84337500D01*
X161663000Y-85607500D02*
X160393000Y-85607500D01*
X156237500Y-84337500D02*
X156000000Y-84100000D01*
D30*
%TO.N,RXD*%
X150650000Y-87500000D02*
X150600000Y-87450000D01*
X161663000Y-87827223D02*
X161663000Y-88147500D01*
X156750000Y-87450000D02*
X158397011Y-85802989D01*
X150600000Y-87450000D02*
X156750000Y-87450000D01*
X158397011Y-85802989D02*
X159638766Y-85802989D01*
X159638766Y-85802989D02*
X161663000Y-87827223D01*
%TO.N,TXD*%
X152100000Y-88900000D02*
X152100000Y-89500000D01*
X152100000Y-89500000D02*
X151550000Y-90050000D01*
X159160000Y-86850000D02*
X157860000Y-88150000D01*
X157860000Y-88150000D02*
X152850000Y-88150000D01*
X151550000Y-90050000D02*
X150600000Y-90050000D01*
X152850000Y-88150000D02*
X152100000Y-88900000D01*
D31*
%TO.N,+5V*%
X149900000Y-96400000D02*
X149900000Y-93500000D01*
X145700000Y-80200000D02*
X145350000Y-79850000D01*
X146100000Y-80600000D02*
X146100000Y-88900000D01*
X135487500Y-88585000D02*
X135812020Y-88909520D01*
X129965000Y-86490000D02*
X130679000Y-86490000D01*
X130669000Y-86500000D02*
X131499000Y-86500000D01*
X146100000Y-84800000D02*
X146100000Y-80600000D01*
X152300000Y-96100000D02*
X150000000Y-96100000D01*
X145350000Y-79850000D02*
X140850000Y-79850000D01*
X133902500Y-81500000D02*
X136750000Y-81500000D01*
X132750000Y-86500000D02*
X132236000Y-86500000D01*
X140850000Y-79850000D02*
X139300000Y-81400000D01*
X133905000Y-81153000D02*
X133905000Y-85345000D01*
X132236000Y-86500000D02*
X132223000Y-86487000D01*
X130682000Y-86487000D02*
X130669000Y-86500000D01*
X135812020Y-89888626D02*
X135400646Y-90300000D01*
X137304250Y-81500000D02*
X139695750Y-81500000D01*
X146100000Y-80600000D02*
X145700000Y-80200000D01*
X149700000Y-92500000D02*
X149700000Y-93500000D01*
X150000000Y-96100000D02*
X149700000Y-96400000D01*
X146100000Y-85000000D02*
X146100000Y-84800000D01*
X146100000Y-88900000D02*
X149700000Y-92500000D01*
X135812020Y-88909520D02*
X135812020Y-89888626D01*
X129975000Y-91300000D02*
X129965000Y-91290000D01*
X130800000Y-91300000D02*
X131300000Y-90800000D01*
X133905000Y-85345000D02*
X132750000Y-86500000D01*
X130555000Y-86614000D02*
X130669000Y-86500000D01*
X135400646Y-90300000D02*
X131800000Y-90300000D01*
X130679000Y-86490000D02*
X130682000Y-86487000D01*
X130800000Y-91300000D02*
X129975000Y-91300000D01*
X143400000Y-84850000D02*
X146050000Y-84850000D01*
X146050000Y-84850000D02*
X146100000Y-84800000D01*
X134825000Y-88585000D02*
X135487500Y-88585000D01*
X131800000Y-90300000D02*
X131300000Y-90800000D01*
X132223000Y-86487000D02*
X130682000Y-86487000D01*
%TO.N,+3V3*%
X140300000Y-88875000D02*
X140300000Y-87000000D01*
X157300000Y-93700000D02*
X159500000Y-93700000D01*
X140300000Y-87000000D02*
X141900000Y-85400000D01*
X142365880Y-82900000D02*
X143400000Y-82900000D01*
X154900000Y-96100000D02*
X157300000Y-93700000D01*
X141900000Y-83365880D02*
X142365880Y-82900000D01*
X141900000Y-85400000D02*
X141900000Y-83365880D01*
X140300000Y-88875000D02*
X140300000Y-88600000D01*
X136975000Y-92200000D02*
X140300000Y-88875000D01*
D30*
%TO.N,Net-(D1-Pad2)*%
X129938000Y-81500000D02*
X131992500Y-81500000D01*
%TO.N,Net-(D2-Pad2)*%
X147700000Y-96400000D02*
X145750000Y-96400000D01*
%TO.N,/D+i*%
X142500000Y-81650000D02*
X143350000Y-81650000D01*
X137765000Y-89535000D02*
X138200000Y-89100000D01*
X137100000Y-89535000D02*
X137765000Y-89535000D01*
X138200000Y-89100000D02*
X138300000Y-89100000D01*
X142250000Y-81400000D02*
X142500000Y-81650000D01*
X143350000Y-81650000D02*
X143400000Y-81600000D01*
%TO.N,/D-i*%
X141200000Y-83200000D02*
X142150000Y-82250000D01*
X142150000Y-82250000D02*
X143400000Y-82250000D01*
X138735000Y-87635000D02*
X141200000Y-85170000D01*
X141200000Y-85170000D02*
X141200000Y-83200000D01*
X137100000Y-87635000D02*
X138735000Y-87635000D01*
X141200000Y-85170000D02*
X141200000Y-84900000D01*
%TO.N,/LED_RX*%
X141000000Y-87500000D02*
X141000000Y-94750000D01*
X142350000Y-86150000D02*
X141000000Y-87500000D01*
X141000000Y-94750000D02*
X141100000Y-94850000D01*
X141000000Y-94750000D02*
X142650000Y-96400000D01*
X143400000Y-86150000D02*
X142350000Y-86150000D01*
%TO.N,/LED_TX*%
X141750000Y-93250000D02*
X141750000Y-87456428D01*
X142600000Y-93500000D02*
X142000000Y-93500000D01*
X142000000Y-93500000D02*
X141750000Y-93250000D01*
X141750000Y-87456428D02*
X142406428Y-86800000D01*
X142406428Y-86800000D02*
X143400000Y-86800000D01*
%TO.N,Net-(U1-Pad4)*%
X153000000Y-94500000D02*
X151500000Y-94500000D01*
X149100000Y-88565880D02*
X149565880Y-88100000D01*
X151500000Y-94500000D02*
X151000000Y-94000000D01*
X149100000Y-90600000D02*
X149100000Y-88565880D01*
X151000000Y-92500000D02*
X149100000Y-90600000D01*
X149565880Y-88100000D02*
X150600000Y-88100000D01*
X153600000Y-96100000D02*
X153600000Y-95100000D01*
X153600000Y-95100000D02*
X153000000Y-94500000D01*
X151000000Y-94000000D02*
X151000000Y-92500000D01*
%TO.N,unconnected-(J1-Pad3)*%
X161663000Y-90687500D02*
X161663000Y-90367223D01*
%TD*%
%TA.AperFunction,Conductor*%
%TO.N,GND*%
G36*
X140609293Y-79223502D02*
G01*
X140655786Y-79277158D01*
X140665890Y-79347432D01*
X140636396Y-79412012D01*
X140605744Y-79434918D01*
X140606853Y-79436651D01*
X140599290Y-79441488D01*
X140591121Y-79445202D01*
X140584323Y-79451059D01*
X140584322Y-79451060D01*
X140557817Y-79473898D01*
X140549905Y-79480180D01*
X140540465Y-79487077D01*
X140530966Y-79496576D01*
X140524118Y-79502934D01*
X140494715Y-79528269D01*
X140494711Y-79528273D01*
X140487913Y-79534131D01*
X140483032Y-79541661D01*
X140477129Y-79548428D01*
X140477091Y-79548395D01*
X140468380Y-79559162D01*
X139552445Y-80475096D01*
X139490133Y-80509121D01*
X139463350Y-80512000D01*
X138788499Y-80512000D01*
X138784253Y-80512582D01*
X138784247Y-80512582D01*
X138736382Y-80519139D01*
X138675615Y-80527463D01*
X138667731Y-80530875D01*
X138667730Y-80530875D01*
X138545120Y-80583933D01*
X138545118Y-80583934D01*
X138537236Y-80587345D01*
X138530558Y-80592753D01*
X138427843Y-80675930D01*
X138420058Y-80682234D01*
X138415082Y-80689236D01*
X138415080Y-80689238D01*
X138359066Y-80768058D01*
X138332714Y-80805139D01*
X138284269Y-80939700D01*
X138283736Y-80941181D01*
X138241841Y-80998499D01*
X138175609Y-81024068D01*
X138165185Y-81024500D01*
X137835211Y-81024500D01*
X137767090Y-81004498D01*
X137720597Y-80950842D01*
X137714449Y-80929636D01*
X137713512Y-80929898D01*
X137711203Y-80921628D01*
X137710037Y-80913115D01*
X137670766Y-80822365D01*
X137653567Y-80782620D01*
X137653566Y-80782618D01*
X137650155Y-80774736D01*
X137580920Y-80689238D01*
X137560674Y-80664236D01*
X137560673Y-80664235D01*
X137555266Y-80657558D01*
X137548264Y-80652582D01*
X137548262Y-80652580D01*
X137439363Y-80575190D01*
X137432361Y-80570214D01*
X137290495Y-80519139D01*
X137222572Y-80512000D01*
X136188499Y-80512000D01*
X136184253Y-80512582D01*
X136184247Y-80512582D01*
X136136382Y-80519139D01*
X136075615Y-80527463D01*
X136067731Y-80530875D01*
X136067730Y-80530875D01*
X135945120Y-80583933D01*
X135945118Y-80583934D01*
X135937236Y-80587345D01*
X135930558Y-80592753D01*
X135827843Y-80675930D01*
X135820058Y-80682234D01*
X135815082Y-80689236D01*
X135815080Y-80689238D01*
X135759066Y-80768058D01*
X135732714Y-80805139D01*
X135684269Y-80939700D01*
X135683736Y-80941181D01*
X135641841Y-80998499D01*
X135575609Y-81024068D01*
X135565185Y-81024500D01*
X135004424Y-81024500D01*
X134936303Y-81004498D01*
X134889810Y-80950842D01*
X134879590Y-80915603D01*
X134878703Y-80909127D01*
X134877537Y-80900615D01*
X134827782Y-80785637D01*
X134821067Y-80770120D01*
X134821066Y-80770118D01*
X134817655Y-80762236D01*
X134742748Y-80669734D01*
X134728174Y-80651736D01*
X134728173Y-80651735D01*
X134722766Y-80645058D01*
X134715764Y-80640082D01*
X134715762Y-80640080D01*
X134606863Y-80562690D01*
X134599861Y-80557714D01*
X134457995Y-80506639D01*
X134390072Y-80499500D01*
X133605999Y-80499500D01*
X133601753Y-80500082D01*
X133601747Y-80500082D01*
X133553882Y-80506639D01*
X133493115Y-80514963D01*
X133485231Y-80518375D01*
X133485230Y-80518375D01*
X133362620Y-80571433D01*
X133362618Y-80571434D01*
X133354736Y-80574845D01*
X133296147Y-80622289D01*
X133259784Y-80651736D01*
X133237558Y-80669734D01*
X133232582Y-80676736D01*
X133232580Y-80676738D01*
X133159135Y-80780086D01*
X133150214Y-80792639D01*
X133141399Y-80817123D01*
X133112714Y-80896798D01*
X133070819Y-80954116D01*
X133004586Y-80979685D01*
X132935044Y-80965387D01*
X132884272Y-80915761D01*
X132877943Y-80900439D01*
X132877537Y-80900615D01*
X132821067Y-80770120D01*
X132821066Y-80770118D01*
X132817655Y-80762236D01*
X132742748Y-80669734D01*
X132728174Y-80651736D01*
X132728173Y-80651735D01*
X132722766Y-80645058D01*
X132715764Y-80640082D01*
X132715762Y-80640080D01*
X132606863Y-80562690D01*
X132599861Y-80557714D01*
X132457995Y-80506639D01*
X132390072Y-80499500D01*
X131605999Y-80499500D01*
X131601753Y-80500082D01*
X131601747Y-80500082D01*
X131553882Y-80506639D01*
X131493115Y-80514963D01*
X131485231Y-80518375D01*
X131485230Y-80518375D01*
X131362620Y-80571433D01*
X131362618Y-80571434D01*
X131354736Y-80574845D01*
X131296147Y-80622289D01*
X131259784Y-80651736D01*
X131237558Y-80669734D01*
X131232582Y-80676736D01*
X131232580Y-80676738D01*
X131159135Y-80780086D01*
X131150214Y-80792639D01*
X131099139Y-80934505D01*
X131098345Y-80942061D01*
X131096649Y-80949465D01*
X131093909Y-80948837D01*
X131071885Y-81002343D01*
X131013657Y-81042963D01*
X130973601Y-81049500D01*
X130651500Y-81049500D01*
X130583379Y-81029498D01*
X130536886Y-80975842D01*
X130525500Y-80923500D01*
X130525500Y-80780086D01*
X130510584Y-80675930D01*
X130470307Y-80587345D01*
X130456150Y-80556209D01*
X130456149Y-80556207D01*
X130452435Y-80548039D01*
X130360729Y-80441609D01*
X130328199Y-80420524D01*
X130250370Y-80370077D01*
X130250368Y-80370076D01*
X130242839Y-80365196D01*
X130108240Y-80324943D01*
X130102279Y-80324500D01*
X129430086Y-80324500D01*
X129325930Y-80339416D01*
X129317760Y-80343131D01*
X129317752Y-80343133D01*
X129208803Y-80392670D01*
X129138512Y-80402658D01*
X129071122Y-80370495D01*
X129062609Y-80362625D01*
X128933862Y-80243613D01*
X128747286Y-80125892D01*
X128542380Y-80044143D01*
X128536720Y-80043017D01*
X128536716Y-80043016D01*
X128331676Y-80002231D01*
X128331673Y-80002231D01*
X128326009Y-80001104D01*
X128320234Y-80001028D01*
X128320230Y-80001028D01*
X128209323Y-79999576D01*
X128105418Y-79998216D01*
X128099721Y-79999195D01*
X128099720Y-79999195D01*
X127893691Y-80034597D01*
X127887994Y-80035576D01*
X127681019Y-80111933D01*
X127676058Y-80114885D01*
X127676057Y-80114885D01*
X127496393Y-80221774D01*
X127496390Y-80221776D01*
X127491425Y-80224730D01*
X127325561Y-80370189D01*
X127188983Y-80543438D01*
X127186294Y-80548549D01*
X127186292Y-80548552D01*
X127165882Y-80587345D01*
X127086263Y-80738675D01*
X127020843Y-80949362D01*
X127020164Y-80955099D01*
X127003115Y-81099149D01*
X126999500Y-81129689D01*
X126999500Y-81854415D01*
X127005280Y-81917321D01*
X127011941Y-81989807D01*
X127014686Y-82019685D01*
X127016254Y-82025244D01*
X127016254Y-82025245D01*
X127072538Y-82224810D01*
X127074569Y-82232013D01*
X127077121Y-82237189D01*
X127077123Y-82237193D01*
X127149639Y-82384241D01*
X127172142Y-82429872D01*
X127175596Y-82434498D01*
X127175597Y-82434499D01*
X127253516Y-82538845D01*
X127304139Y-82606637D01*
X127308373Y-82610551D01*
X127308375Y-82610553D01*
X127460157Y-82750858D01*
X127466138Y-82756387D01*
X127652714Y-82874108D01*
X127857620Y-82955857D01*
X127863280Y-82956983D01*
X127863284Y-82956984D01*
X128068324Y-82997769D01*
X128068327Y-82997769D01*
X128073991Y-82998896D01*
X128079766Y-82998972D01*
X128079770Y-82998972D01*
X128190677Y-83000424D01*
X128294582Y-83001784D01*
X128300279Y-83000805D01*
X128300280Y-83000805D01*
X128506309Y-82965403D01*
X128506310Y-82965403D01*
X128512006Y-82964424D01*
X128718981Y-82888067D01*
X128769877Y-82857787D01*
X128903607Y-82778226D01*
X128903610Y-82778224D01*
X128908575Y-82775270D01*
X129074439Y-82629811D01*
X129075608Y-82631144D01*
X129129967Y-82599584D01*
X129200891Y-82602791D01*
X129228499Y-82616227D01*
X129249628Y-82629922D01*
X129249632Y-82629924D01*
X129257161Y-82634804D01*
X129391760Y-82675057D01*
X129397721Y-82675500D01*
X130069914Y-82675500D01*
X130174070Y-82660584D01*
X130245443Y-82628132D01*
X130293791Y-82606150D01*
X130293793Y-82606149D01*
X130301961Y-82602435D01*
X130408391Y-82510729D01*
X130419134Y-82494155D01*
X130479923Y-82400370D01*
X130479924Y-82400368D01*
X130484804Y-82392839D01*
X130525057Y-82258240D01*
X130525500Y-82252279D01*
X130525500Y-82076500D01*
X130545502Y-82008379D01*
X130599158Y-81961886D01*
X130651500Y-81950500D01*
X130977152Y-81950500D01*
X131045273Y-81970502D01*
X131091766Y-82024158D01*
X131101986Y-82059401D01*
X131107463Y-82099385D01*
X131110875Y-82107269D01*
X131110875Y-82107270D01*
X131163893Y-82229786D01*
X131167345Y-82237764D01*
X131262234Y-82354942D01*
X131269235Y-82359917D01*
X131269238Y-82359920D01*
X131360380Y-82424691D01*
X131385139Y-82442286D01*
X131527005Y-82493361D01*
X131594928Y-82500500D01*
X132379001Y-82500500D01*
X132383247Y-82499918D01*
X132383253Y-82499918D01*
X132459676Y-82489449D01*
X132491885Y-82485037D01*
X132515079Y-82475000D01*
X132622380Y-82428567D01*
X132622382Y-82428566D01*
X132630264Y-82425155D01*
X132688853Y-82377711D01*
X132740764Y-82335674D01*
X132740765Y-82335673D01*
X132747442Y-82330266D01*
X132752418Y-82323264D01*
X132752420Y-82323262D01*
X132829810Y-82214363D01*
X132834786Y-82207361D01*
X132865095Y-82123174D01*
X132872286Y-82103202D01*
X132914181Y-82045884D01*
X132980414Y-82020315D01*
X133049956Y-82034613D01*
X133100728Y-82084239D01*
X133107057Y-82099561D01*
X133107463Y-82099385D01*
X133163893Y-82229786D01*
X133167345Y-82237764D01*
X133262234Y-82354942D01*
X133376491Y-82436140D01*
X133420430Y-82491904D01*
X133429500Y-82538845D01*
X133429500Y-85095851D01*
X133409498Y-85163972D01*
X133392595Y-85184947D01*
X132720359Y-85857182D01*
X132658047Y-85891207D01*
X132587231Y-85886142D01*
X132572311Y-85879443D01*
X132475829Y-85828359D01*
X132311423Y-85787063D01*
X132303825Y-85787023D01*
X132303823Y-85787023D01*
X132230792Y-85786641D01*
X132141912Y-85786176D01*
X132134533Y-85787948D01*
X132134529Y-85787948D01*
X131984461Y-85823976D01*
X131984457Y-85823977D01*
X131977082Y-85825748D01*
X131958461Y-85835359D01*
X131850258Y-85891207D01*
X131826450Y-85903495D01*
X131820728Y-85908487D01*
X131820726Y-85908488D01*
X131738236Y-85980449D01*
X131673754Y-86010157D01*
X131655407Y-86011500D01*
X130837322Y-86011500D01*
X130769201Y-85991498D01*
X130756457Y-85981705D01*
X130750814Y-85974233D01*
X130655359Y-85915130D01*
X130643887Y-85912986D01*
X130643886Y-85912985D01*
X130550725Y-85895570D01*
X130550723Y-85895570D01*
X130545000Y-85894500D01*
X129617673Y-85894500D01*
X129549552Y-85874498D01*
X129500521Y-85814884D01*
X129460429Y-85713623D01*
X129460428Y-85713621D01*
X129457511Y-85706254D01*
X129432664Y-85672054D01*
X129369275Y-85584807D01*
X129364615Y-85578393D01*
X129242839Y-85477651D01*
X129099835Y-85410359D01*
X129092052Y-85408874D01*
X129092048Y-85408873D01*
X128952374Y-85382229D01*
X128952373Y-85382229D01*
X128944589Y-85380744D01*
X128865722Y-85385706D01*
X128794767Y-85390170D01*
X128794765Y-85390170D01*
X128786856Y-85390668D01*
X128779320Y-85393117D01*
X128779318Y-85393117D01*
X128711701Y-85415087D01*
X128636546Y-85439507D01*
X128629859Y-85443750D01*
X128629856Y-85443752D01*
X128551289Y-85493612D01*
X128503104Y-85524191D01*
X128497676Y-85529971D01*
X128497675Y-85529972D01*
X128456950Y-85573340D01*
X128394915Y-85639401D01*
X128391098Y-85646344D01*
X128322594Y-85770951D01*
X128322592Y-85770955D01*
X128318776Y-85777897D01*
X128316805Y-85785574D01*
X128281963Y-85921276D01*
X128279472Y-85930977D01*
X128279472Y-86089023D01*
X128318776Y-86242103D01*
X128322592Y-86249045D01*
X128322594Y-86249049D01*
X128384772Y-86362149D01*
X128394915Y-86380599D01*
X128400340Y-86386376D01*
X128476423Y-86467396D01*
X128503104Y-86495809D01*
X128509799Y-86500057D01*
X128509798Y-86500057D01*
X128629856Y-86576248D01*
X128629859Y-86576250D01*
X128636546Y-86580493D01*
X128652101Y-86585547D01*
X128779318Y-86626883D01*
X128779320Y-86626883D01*
X128786856Y-86629332D01*
X128794765Y-86629830D01*
X128794767Y-86629830D01*
X128936672Y-86638758D01*
X128936673Y-86638758D01*
X128944589Y-86639256D01*
X128947671Y-86638668D01*
X129014833Y-86653884D01*
X129064602Y-86704516D01*
X129079500Y-86763949D01*
X129079500Y-86800000D01*
X129079567Y-86801441D01*
X129079567Y-86801458D01*
X129079574Y-86801605D01*
X129080803Y-86828188D01*
X129082796Y-86835192D01*
X129082796Y-86835193D01*
X129091289Y-86865043D01*
X129093954Y-86922677D01*
X129080570Y-86994273D01*
X129080569Y-86994279D01*
X129079500Y-87000000D01*
X129079500Y-87081215D01*
X129059498Y-87149336D01*
X129005842Y-87195829D01*
X128990549Y-87201645D01*
X128985378Y-87203236D01*
X128976065Y-87204636D01*
X128969557Y-87207761D01*
X128962455Y-87209058D01*
X128916630Y-87232862D01*
X128910406Y-87236095D01*
X128906869Y-87237862D01*
X128862464Y-87259186D01*
X128862461Y-87259188D01*
X128853971Y-87263265D01*
X128848693Y-87268144D01*
X128848632Y-87268185D01*
X128842264Y-87271493D01*
X128836371Y-87276526D01*
X128798351Y-87314546D01*
X128794786Y-87317975D01*
X128754514Y-87355202D01*
X128750931Y-87361371D01*
X128745814Y-87367083D01*
X128280593Y-87832304D01*
X128269511Y-87842153D01*
X128243435Y-87862709D01*
X128214524Y-87904540D01*
X128210077Y-87910974D01*
X128207804Y-87914155D01*
X128172925Y-87961378D01*
X128170534Y-87968188D01*
X128166428Y-87974128D01*
X128163587Y-87983111D01*
X128148736Y-88030067D01*
X128147484Y-88033819D01*
X128131587Y-88079089D01*
X128128048Y-88089168D01*
X128127766Y-88096357D01*
X128127755Y-88096414D01*
X128125588Y-88103264D01*
X128124980Y-88110989D01*
X128124980Y-88164782D01*
X128124883Y-88169728D01*
X128122731Y-88224504D01*
X128124559Y-88231399D01*
X128124980Y-88239047D01*
X128124980Y-90050008D01*
X128104978Y-90118129D01*
X128088075Y-90139103D01*
X127005594Y-91221585D01*
X126994505Y-91231440D01*
X126968435Y-91251992D01*
X126947373Y-91282466D01*
X126935077Y-91300257D01*
X126932804Y-91303438D01*
X126897925Y-91350661D01*
X126895534Y-91357471D01*
X126891428Y-91363411D01*
X126888587Y-91372394D01*
X126873736Y-91419350D01*
X126872484Y-91423102D01*
X126856845Y-91467639D01*
X126853048Y-91478451D01*
X126852766Y-91485640D01*
X126852755Y-91485697D01*
X126850588Y-91492547D01*
X126849980Y-91500272D01*
X126849980Y-91554065D01*
X126849883Y-91559011D01*
X126847731Y-91613787D01*
X126849559Y-91620682D01*
X126849980Y-91628330D01*
X126849980Y-93567010D01*
X126849107Y-93581819D01*
X126845205Y-93614788D01*
X126846897Y-93624053D01*
X126846897Y-93624054D01*
X126855741Y-93672482D01*
X126856391Y-93676384D01*
X126865116Y-93734415D01*
X126868241Y-93740923D01*
X126869538Y-93748025D01*
X126890297Y-93787988D01*
X126896575Y-93800074D01*
X126898342Y-93803611D01*
X126919666Y-93848016D01*
X126919668Y-93848019D01*
X126923745Y-93856509D01*
X126928622Y-93861785D01*
X126928666Y-93861850D01*
X126931973Y-93868216D01*
X126937005Y-93874108D01*
X126975025Y-93912128D01*
X126978454Y-93915693D01*
X127015682Y-93955966D01*
X127021851Y-93959549D01*
X127027563Y-93964666D01*
X128984224Y-95921328D01*
X129018250Y-95983640D01*
X129020956Y-96017016D01*
X129020844Y-96019156D01*
X129020500Y-96022428D01*
X129020500Y-97006501D01*
X129021082Y-97010747D01*
X129021082Y-97010753D01*
X129022464Y-97020841D01*
X129035963Y-97119385D01*
X129039375Y-97127269D01*
X129039375Y-97127270D01*
X129083946Y-97230266D01*
X129095845Y-97257764D01*
X129143290Y-97316353D01*
X129182503Y-97364777D01*
X129190734Y-97374942D01*
X129197736Y-97379918D01*
X129197738Y-97379920D01*
X129289533Y-97445155D01*
X129313639Y-97462286D01*
X129455505Y-97513361D01*
X129523428Y-97520500D01*
X130307501Y-97520500D01*
X130311747Y-97519918D01*
X130311753Y-97519918D01*
X130378408Y-97510787D01*
X130420385Y-97505037D01*
X130468442Y-97484241D01*
X130550880Y-97448567D01*
X130550882Y-97448566D01*
X130558764Y-97445155D01*
X130631564Y-97386203D01*
X130669264Y-97355674D01*
X130669265Y-97355673D01*
X130675942Y-97350266D01*
X130680918Y-97343264D01*
X130680920Y-97343262D01*
X130758310Y-97234363D01*
X130763286Y-97227361D01*
X130814361Y-97085495D01*
X130821500Y-97017572D01*
X130821500Y-96033499D01*
X130820742Y-96027962D01*
X130820803Y-96027560D01*
X130820626Y-96024971D01*
X130821198Y-96024932D01*
X130831318Y-95957757D01*
X130878171Y-95904416D01*
X130946425Y-95884873D01*
X131014410Y-95905333D01*
X131034672Y-95921775D01*
X131047595Y-95934698D01*
X131081621Y-95997010D01*
X131084500Y-96023793D01*
X131084500Y-97006501D01*
X131085082Y-97010747D01*
X131085082Y-97010753D01*
X131086464Y-97020841D01*
X131099963Y-97119385D01*
X131103375Y-97127269D01*
X131103375Y-97127270D01*
X131147946Y-97230266D01*
X131159845Y-97257764D01*
X131207290Y-97316353D01*
X131246503Y-97364777D01*
X131254734Y-97374942D01*
X131261736Y-97379918D01*
X131261738Y-97379920D01*
X131353533Y-97445155D01*
X131377639Y-97462286D01*
X131519505Y-97513361D01*
X131587428Y-97520500D01*
X132371501Y-97520500D01*
X132375747Y-97519918D01*
X132375753Y-97519918D01*
X132442408Y-97510787D01*
X132484385Y-97505037D01*
X132532442Y-97484241D01*
X132614880Y-97448567D01*
X132614882Y-97448566D01*
X132622764Y-97445155D01*
X132695564Y-97386203D01*
X132733264Y-97355674D01*
X132733265Y-97355673D01*
X132739942Y-97350266D01*
X132744918Y-97343264D01*
X132744920Y-97343262D01*
X132822310Y-97234363D01*
X132827286Y-97227361D01*
X132878361Y-97085495D01*
X132885500Y-97017572D01*
X132885500Y-96033499D01*
X132884687Y-96027560D01*
X132871203Y-95929129D01*
X132870037Y-95920615D01*
X132838976Y-95848837D01*
X132813567Y-95790120D01*
X132813566Y-95790118D01*
X132810155Y-95782236D01*
X132744145Y-95700720D01*
X132720674Y-95671736D01*
X132720673Y-95671735D01*
X132715266Y-95665058D01*
X132708264Y-95660082D01*
X132708262Y-95660080D01*
X132599363Y-95582690D01*
X132592361Y-95577714D01*
X132450495Y-95526639D01*
X132382572Y-95519500D01*
X131958794Y-95519500D01*
X131890673Y-95499498D01*
X131869699Y-95482595D01*
X131342218Y-94955114D01*
X131332363Y-94944025D01*
X131324004Y-94933422D01*
X131311811Y-94917955D01*
X131263538Y-94884591D01*
X131260365Y-94882324D01*
X131213142Y-94847445D01*
X131206332Y-94845054D01*
X131200392Y-94840948D01*
X131189174Y-94837400D01*
X131144453Y-94823256D01*
X131140701Y-94822004D01*
X131094246Y-94805691D01*
X131094244Y-94805691D01*
X131085352Y-94802568D01*
X131078163Y-94802286D01*
X131078106Y-94802275D01*
X131071256Y-94800108D01*
X131063531Y-94799500D01*
X131009738Y-94799500D01*
X131004792Y-94799403D01*
X130950016Y-94797251D01*
X130943121Y-94799079D01*
X130935473Y-94799500D01*
X129824512Y-94799500D01*
X129756391Y-94779498D01*
X129735417Y-94762595D01*
X128237405Y-93264583D01*
X128203379Y-93202271D01*
X128200500Y-93175488D01*
X128200500Y-92271808D01*
X128220502Y-92203687D01*
X128274158Y-92157194D01*
X128344432Y-92147090D01*
X128409012Y-92176584D01*
X128418350Y-92185555D01*
X128481182Y-92252464D01*
X128503104Y-92275809D01*
X128509799Y-92280057D01*
X128509798Y-92280057D01*
X128629856Y-92356248D01*
X128629859Y-92356250D01*
X128636546Y-92360493D01*
X128701297Y-92381532D01*
X128779318Y-92406883D01*
X128779320Y-92406883D01*
X128786856Y-92409332D01*
X128794765Y-92409830D01*
X128794767Y-92409830D01*
X128865723Y-92414294D01*
X128944589Y-92419256D01*
X128952374Y-92417771D01*
X129092048Y-92391127D01*
X129092052Y-92391126D01*
X129099835Y-92389641D01*
X129197457Y-92343704D01*
X129235665Y-92325725D01*
X129235666Y-92325724D01*
X129242839Y-92322349D01*
X129364615Y-92221607D01*
X129431919Y-92128971D01*
X129452852Y-92100159D01*
X129452853Y-92100157D01*
X129457511Y-92093746D01*
X129477151Y-92044143D01*
X129500521Y-91985116D01*
X129544196Y-91929142D01*
X129617673Y-91905500D01*
X130545000Y-91905500D01*
X130546441Y-91905433D01*
X130546458Y-91905433D01*
X130560558Y-91904781D01*
X130573188Y-91904197D01*
X130681173Y-91873472D01*
X130770767Y-91805814D01*
X130772063Y-91807530D01*
X130819819Y-91778513D01*
X130834974Y-91775971D01*
X130834907Y-91775501D01*
X130843515Y-91774268D01*
X130853573Y-91773238D01*
X130897439Y-91770516D01*
X130905886Y-91767467D01*
X130912137Y-91766172D01*
X130919864Y-91764245D01*
X130925972Y-91762459D01*
X130934860Y-91761186D01*
X130974876Y-91742991D01*
X130984239Y-91739180D01*
X131006566Y-91731120D01*
X131025580Y-91724256D01*
X131032826Y-91718962D01*
X131038434Y-91715981D01*
X131045358Y-91711935D01*
X131050709Y-91708513D01*
X131058879Y-91704798D01*
X131092188Y-91676098D01*
X131100104Y-91669813D01*
X131105604Y-91665795D01*
X131105605Y-91665794D01*
X131109535Y-91662923D01*
X131119034Y-91653424D01*
X131125882Y-91647066D01*
X131155285Y-91621731D01*
X131155289Y-91621727D01*
X131162087Y-91615869D01*
X131166968Y-91608339D01*
X131172871Y-91601572D01*
X131172909Y-91601605D01*
X131181620Y-91590838D01*
X131234689Y-91537770D01*
X131297002Y-91503745D01*
X131325761Y-91500882D01*
X131366146Y-91501516D01*
X131366149Y-91501516D01*
X131373745Y-91501635D01*
X131387915Y-91498390D01*
X131531577Y-91465487D01*
X131531581Y-91465486D01*
X131538980Y-91463791D01*
X131690418Y-91387626D01*
X131819316Y-91277536D01*
X131918234Y-91139877D01*
X131950795Y-91058880D01*
X131978626Y-90989650D01*
X131978627Y-90989648D01*
X131981461Y-90982597D01*
X131995529Y-90883747D01*
X132024929Y-90819124D01*
X132084601Y-90780655D01*
X132120272Y-90775500D01*
X135332779Y-90775500D01*
X135344365Y-90776794D01*
X135344409Y-90776251D01*
X135353355Y-90776971D01*
X135362111Y-90778952D01*
X135413851Y-90775742D01*
X135421652Y-90775500D01*
X135435558Y-90775500D01*
X135444161Y-90774268D01*
X135454219Y-90773238D01*
X135498085Y-90770516D01*
X135506532Y-90767467D01*
X135512783Y-90766172D01*
X135520510Y-90764245D01*
X135526618Y-90762459D01*
X135535506Y-90761186D01*
X135575522Y-90742991D01*
X135584885Y-90739180D01*
X135601220Y-90733283D01*
X135626226Y-90724256D01*
X135633472Y-90718962D01*
X135639080Y-90715981D01*
X135646004Y-90711935D01*
X135651355Y-90708513D01*
X135659525Y-90704798D01*
X135692834Y-90676098D01*
X135700750Y-90669813D01*
X135706250Y-90665795D01*
X135706251Y-90665794D01*
X135710181Y-90662923D01*
X135719680Y-90653424D01*
X135726528Y-90647066D01*
X135755932Y-90621730D01*
X135755935Y-90621726D01*
X135762733Y-90615869D01*
X135767614Y-90608340D01*
X135773516Y-90601574D01*
X135773554Y-90601607D01*
X135782266Y-90590839D01*
X136100258Y-90272847D01*
X136109368Y-90265567D01*
X136109015Y-90265152D01*
X136115849Y-90259336D01*
X136123442Y-90254545D01*
X136157767Y-90215679D01*
X136163113Y-90209992D01*
X136172936Y-90200169D01*
X136178145Y-90193219D01*
X136184527Y-90185379D01*
X136207682Y-90159160D01*
X136213625Y-90152431D01*
X136217439Y-90144306D01*
X136217971Y-90143497D01*
X136272089Y-90097543D01*
X136342461Y-90088142D01*
X136377796Y-90100623D01*
X136377918Y-90100315D01*
X136386133Y-90103567D01*
X136386571Y-90103722D01*
X136394819Y-90108513D01*
X136511248Y-90135500D01*
X137620758Y-90135500D01*
X137625413Y-90134800D01*
X137625415Y-90134800D01*
X137654266Y-90130463D01*
X137724603Y-90140116D01*
X137778556Y-90186264D01*
X137798994Y-90254255D01*
X137779430Y-90322502D01*
X137775452Y-90327746D01*
X137775711Y-90327928D01*
X137690562Y-90449083D01*
X137678240Y-90466615D01*
X137616665Y-90624549D01*
X137610160Y-90673960D01*
X137596411Y-90778396D01*
X137594539Y-90792612D01*
X137596986Y-90814775D01*
X137599372Y-90836392D01*
X137586966Y-90906297D01*
X137563228Y-90939313D01*
X137364946Y-91137595D01*
X137302634Y-91171621D01*
X137275851Y-91174500D01*
X136600999Y-91174500D01*
X136596753Y-91175082D01*
X136596747Y-91175082D01*
X136533484Y-91183748D01*
X136488115Y-91189963D01*
X136480231Y-91193375D01*
X136480230Y-91193375D01*
X136357620Y-91246433D01*
X136357618Y-91246434D01*
X136349736Y-91249845D01*
X136291147Y-91297289D01*
X136239549Y-91339073D01*
X136232558Y-91344734D01*
X136227582Y-91351736D01*
X136227580Y-91351738D01*
X136173272Y-91428157D01*
X136145214Y-91467639D01*
X136094139Y-91609505D01*
X136087000Y-91677428D01*
X136087000Y-92711501D01*
X136087582Y-92715747D01*
X136087582Y-92715753D01*
X136093035Y-92755558D01*
X136102463Y-92824385D01*
X136105875Y-92832269D01*
X136105875Y-92832270D01*
X136158603Y-92954116D01*
X136162345Y-92962764D01*
X136194464Y-93002428D01*
X136233443Y-93050562D01*
X136257234Y-93079942D01*
X136264236Y-93084918D01*
X136264238Y-93084920D01*
X136356033Y-93150155D01*
X136380139Y-93167286D01*
X136522005Y-93218361D01*
X136589928Y-93225500D01*
X137349001Y-93225500D01*
X137353247Y-93224918D01*
X137353253Y-93224918D01*
X137419908Y-93215787D01*
X137461885Y-93210037D01*
X137469770Y-93206625D01*
X137592380Y-93153567D01*
X137592382Y-93153566D01*
X137600264Y-93150155D01*
X137658853Y-93102711D01*
X137710764Y-93060674D01*
X137710765Y-93060673D01*
X137717442Y-93055266D01*
X137722418Y-93048264D01*
X137722420Y-93048262D01*
X137799810Y-92939363D01*
X137804786Y-92932361D01*
X137855861Y-92790495D01*
X137863000Y-92722572D01*
X137863000Y-92036648D01*
X137883002Y-91968527D01*
X137899905Y-91947553D01*
X138312018Y-91535440D01*
X138373765Y-91501723D01*
X138373745Y-91501635D01*
X138374056Y-91501564D01*
X138374057Y-91501564D01*
X138426180Y-91489626D01*
X138531577Y-91465487D01*
X138531581Y-91465486D01*
X138538980Y-91463791D01*
X138690418Y-91387626D01*
X138819316Y-91277536D01*
X138918234Y-91139877D01*
X138950795Y-91058880D01*
X138978626Y-90989650D01*
X138978627Y-90989648D01*
X138981461Y-90982597D01*
X138994886Y-90888267D01*
X139024287Y-90823644D01*
X139030534Y-90816925D01*
X140334405Y-89513054D01*
X140396717Y-89479028D01*
X140467532Y-89484093D01*
X140524368Y-89526640D01*
X140549179Y-89593160D01*
X140549500Y-89602149D01*
X140549500Y-94716530D01*
X140548627Y-94731339D01*
X140544725Y-94764308D01*
X140546417Y-94773573D01*
X140546417Y-94773574D01*
X140555261Y-94822002D01*
X140555911Y-94825904D01*
X140558160Y-94840862D01*
X140564636Y-94883935D01*
X140567761Y-94890443D01*
X140569058Y-94897545D01*
X140589877Y-94937623D01*
X140596095Y-94949594D01*
X140597862Y-94953131D01*
X140619186Y-94997536D01*
X140619188Y-94997539D01*
X140623265Y-95006029D01*
X140628142Y-95011305D01*
X140628186Y-95011370D01*
X140631493Y-95017736D01*
X140636525Y-95023628D01*
X140674545Y-95061648D01*
X140677974Y-95065213D01*
X140715202Y-95105486D01*
X140721371Y-95109069D01*
X140727083Y-95114186D01*
X141787595Y-96174698D01*
X141821621Y-96237010D01*
X141824500Y-96263793D01*
X141824500Y-97319914D01*
X141839416Y-97424070D01*
X141856792Y-97462286D01*
X141880376Y-97514155D01*
X141897565Y-97551961D01*
X141989271Y-97658391D01*
X141996806Y-97663275D01*
X142099630Y-97729923D01*
X142099632Y-97729924D01*
X142107161Y-97734804D01*
X142241760Y-97775057D01*
X142247721Y-97775500D01*
X142919914Y-97775500D01*
X143024070Y-97760584D01*
X143032240Y-97756869D01*
X143032248Y-97756867D01*
X143141197Y-97707330D01*
X143211488Y-97697342D01*
X143278877Y-97729505D01*
X143416138Y-97856387D01*
X143602714Y-97974108D01*
X143807620Y-98055857D01*
X143813280Y-98056983D01*
X143813284Y-98056984D01*
X144018324Y-98097769D01*
X144018327Y-98097769D01*
X144023991Y-98098896D01*
X144029766Y-98098972D01*
X144029770Y-98098972D01*
X144140677Y-98100424D01*
X144244582Y-98101784D01*
X144250279Y-98100805D01*
X144250280Y-98100805D01*
X144456309Y-98065403D01*
X144456310Y-98065403D01*
X144462006Y-98064424D01*
X144668981Y-97988067D01*
X144697619Y-97971029D01*
X144853607Y-97878226D01*
X144853610Y-97878224D01*
X144858575Y-97875270D01*
X145024439Y-97729811D01*
X145025608Y-97731144D01*
X145079967Y-97699584D01*
X145150891Y-97702791D01*
X145178499Y-97716227D01*
X145199628Y-97729922D01*
X145199632Y-97729924D01*
X145207161Y-97734804D01*
X145341760Y-97775057D01*
X145347721Y-97775500D01*
X146019914Y-97775500D01*
X146124070Y-97760584D01*
X146195443Y-97728132D01*
X146243791Y-97706150D01*
X146243793Y-97706149D01*
X146251961Y-97702435D01*
X146358391Y-97610729D01*
X146396483Y-97551961D01*
X146429923Y-97500370D01*
X146429924Y-97500368D01*
X146434804Y-97492839D01*
X146475057Y-97358240D01*
X146475500Y-97352279D01*
X146475500Y-96976500D01*
X146495502Y-96908379D01*
X146549158Y-96861886D01*
X146601500Y-96850500D01*
X146884652Y-96850500D01*
X146952773Y-96870502D01*
X146999266Y-96924158D01*
X147009486Y-96959401D01*
X147014963Y-96999385D01*
X147018375Y-97007269D01*
X147018375Y-97007270D01*
X147066892Y-97119385D01*
X147074845Y-97137764D01*
X147169734Y-97254942D01*
X147176736Y-97259918D01*
X147176738Y-97259920D01*
X147267405Y-97324353D01*
X147292639Y-97342286D01*
X147434505Y-97393361D01*
X147502428Y-97400500D01*
X148286501Y-97400500D01*
X148290747Y-97399918D01*
X148290753Y-97399918D01*
X148357408Y-97390787D01*
X148399385Y-97385037D01*
X148411210Y-97379920D01*
X148529880Y-97328567D01*
X148529882Y-97328566D01*
X148537764Y-97325155D01*
X148612738Y-97264442D01*
X148648264Y-97235674D01*
X148648265Y-97235673D01*
X148654942Y-97230266D01*
X148659918Y-97223264D01*
X148659920Y-97223262D01*
X148737310Y-97114363D01*
X148742286Y-97107361D01*
X148779786Y-97003202D01*
X148821681Y-96945884D01*
X148887914Y-96920315D01*
X148957456Y-96934613D01*
X149008228Y-96984239D01*
X149014557Y-96999561D01*
X149014963Y-96999385D01*
X149066892Y-97119385D01*
X149074845Y-97137764D01*
X149169734Y-97254942D01*
X149176736Y-97259918D01*
X149176738Y-97259920D01*
X149267405Y-97324353D01*
X149292639Y-97342286D01*
X149434505Y-97393361D01*
X149502428Y-97400500D01*
X150286501Y-97400500D01*
X150290747Y-97399918D01*
X150290753Y-97399918D01*
X150357408Y-97390787D01*
X150399385Y-97385037D01*
X150411210Y-97379920D01*
X150529880Y-97328567D01*
X150529882Y-97328566D01*
X150537764Y-97325155D01*
X150612738Y-97264442D01*
X150648264Y-97235674D01*
X150648265Y-97235673D01*
X150654942Y-97230266D01*
X150659918Y-97223264D01*
X150659920Y-97223262D01*
X150737310Y-97114363D01*
X150742286Y-97107361D01*
X150793361Y-96965495D01*
X150800500Y-96897572D01*
X150800500Y-96701500D01*
X150820502Y-96633379D01*
X150874158Y-96586886D01*
X150926500Y-96575500D01*
X151442495Y-96575500D01*
X151510616Y-96595502D01*
X151557823Y-96650753D01*
X151595886Y-96737258D01*
X151641659Y-96810795D01*
X151732879Y-96919314D01*
X151736214Y-96922296D01*
X151736218Y-96922300D01*
X151794103Y-96974055D01*
X151794108Y-96974059D01*
X151797450Y-96977047D01*
X151915460Y-97055602D01*
X151919500Y-97057529D01*
X151989597Y-97090964D01*
X151989601Y-97090966D01*
X151993642Y-97092893D01*
X151997916Y-97094228D01*
X151997923Y-97094231D01*
X152078438Y-97119385D01*
X152128957Y-97135168D01*
X152133384Y-97135885D01*
X152210038Y-97148301D01*
X152210043Y-97148301D01*
X152214461Y-97149017D01*
X152260342Y-97149858D01*
X152281175Y-97151981D01*
X152300000Y-97155500D01*
X152850000Y-97155500D01*
X152851441Y-97155433D01*
X152851458Y-97155433D01*
X152865558Y-97154781D01*
X152878188Y-97154197D01*
X152934869Y-97138070D01*
X152992503Y-97135405D01*
X153094275Y-97154430D01*
X153094277Y-97154430D01*
X153100000Y-97155500D01*
X154100000Y-97155500D01*
X154101441Y-97155433D01*
X154101458Y-97155433D01*
X154115558Y-97154781D01*
X154128188Y-97154197D01*
X154184869Y-97138070D01*
X154242503Y-97135405D01*
X154344275Y-97154430D01*
X154344277Y-97154430D01*
X154350000Y-97155500D01*
X154900000Y-97155500D01*
X154901441Y-97155433D01*
X154901458Y-97155433D01*
X154918426Y-97154648D01*
X154928188Y-97154197D01*
X154932677Y-97152920D01*
X154947249Y-97151873D01*
X154947244Y-97151770D01*
X154951728Y-97151533D01*
X154956201Y-97151615D01*
X155042158Y-97140908D01*
X155046470Y-97139732D01*
X155046477Y-97139731D01*
X155174611Y-97104797D01*
X155174614Y-97104796D01*
X155178931Y-97103619D01*
X155220971Y-97085427D01*
X155254300Y-97071005D01*
X155254305Y-97071002D01*
X155258424Y-97069220D01*
X155371876Y-96999561D01*
X155375407Y-96997393D01*
X155375409Y-96997391D01*
X155379234Y-96995043D01*
X155445879Y-96939712D01*
X155541014Y-96834608D01*
X155543522Y-96830890D01*
X155586939Y-96766523D01*
X155586940Y-96766521D01*
X155589450Y-96762800D01*
X155651262Y-96635221D01*
X155677597Y-96552702D01*
X155701117Y-96412901D01*
X155705328Y-96365942D01*
X155705477Y-96353726D01*
X155705482Y-96352924D01*
X155705499Y-96350231D01*
X155705499Y-96350134D01*
X155705500Y-96350000D01*
X155705500Y-96019148D01*
X155725502Y-95951027D01*
X155742405Y-95930053D01*
X157460053Y-94212405D01*
X157522365Y-94178379D01*
X157549148Y-94175500D01*
X158933142Y-94175500D01*
X159001263Y-94195502D01*
X159017941Y-94208306D01*
X159041651Y-94229880D01*
X159091317Y-94275073D01*
X159240288Y-94355957D01*
X159404253Y-94398973D01*
X159492481Y-94400359D01*
X159566147Y-94401516D01*
X159566150Y-94401516D01*
X159573745Y-94401635D01*
X159649691Y-94384241D01*
X159731577Y-94365487D01*
X159731581Y-94365486D01*
X159738980Y-94363791D01*
X159890418Y-94287626D01*
X160019316Y-94177536D01*
X160118234Y-94039877D01*
X160126098Y-94020315D01*
X160178626Y-93889650D01*
X160178627Y-93889648D01*
X160181461Y-93882597D01*
X160193196Y-93800140D01*
X160204764Y-93718859D01*
X160204764Y-93718856D01*
X160205345Y-93714775D01*
X160205500Y-93700000D01*
X160194304Y-93607479D01*
X160186048Y-93539258D01*
X160186048Y-93539257D01*
X160185135Y-93531715D01*
X160182450Y-93524609D01*
X160127902Y-93380250D01*
X160127901Y-93380248D01*
X160125217Y-93373145D01*
X160120918Y-93366890D01*
X160120916Y-93366886D01*
X160033505Y-93239703D01*
X160033504Y-93239701D01*
X160029203Y-93233444D01*
X160021705Y-93226763D01*
X159916178Y-93132743D01*
X159902638Y-93120679D01*
X159894736Y-93116495D01*
X159759544Y-93044914D01*
X159759541Y-93044913D01*
X159752829Y-93041359D01*
X159750223Y-93040704D01*
X159695460Y-92998888D01*
X159671285Y-92932135D01*
X159687037Y-92862908D01*
X159725978Y-92821717D01*
X159725565Y-92821188D01*
X159729059Y-92818458D01*
X159730414Y-92817400D01*
X159730418Y-92817397D01*
X159834490Y-92736086D01*
X159887893Y-92694363D01*
X159891919Y-92689699D01*
X159891922Y-92689696D01*
X160018467Y-92543092D01*
X160018468Y-92543090D01*
X160022496Y-92538424D01*
X160124247Y-92359311D01*
X160189270Y-92163844D01*
X160215088Y-91959471D01*
X160215500Y-91930000D01*
X160195398Y-91724986D01*
X160191726Y-91712822D01*
X160137639Y-91533679D01*
X160135858Y-91527780D01*
X160087503Y-91436837D01*
X160042042Y-91351337D01*
X160042040Y-91351334D01*
X160039148Y-91345895D01*
X160035258Y-91341125D01*
X160035255Y-91341121D01*
X159912847Y-91191034D01*
X159912844Y-91191031D01*
X159908952Y-91186259D01*
X159896399Y-91175874D01*
X159754978Y-91058880D01*
X159754974Y-91058878D01*
X159750228Y-91054951D01*
X159569023Y-90956973D01*
X159372238Y-90896058D01*
X159366116Y-90895415D01*
X159366113Y-90895414D01*
X159173498Y-90875170D01*
X159173496Y-90875170D01*
X159167369Y-90874526D01*
X159081346Y-90882355D01*
X158968358Y-90892637D01*
X158968355Y-90892638D01*
X158962219Y-90893196D01*
X158956313Y-90894934D01*
X158956309Y-90894935D01*
X158807368Y-90938771D01*
X158764603Y-90951357D01*
X158582047Y-91046795D01*
X158421505Y-91175874D01*
X158289093Y-91333677D01*
X158286129Y-91339069D01*
X158286126Y-91339073D01*
X158219296Y-91460637D01*
X158189853Y-91514194D01*
X158187992Y-91520061D01*
X158187991Y-91520063D01*
X158178118Y-91551188D01*
X158127565Y-91710549D01*
X158104603Y-91915263D01*
X158121840Y-92120538D01*
X158145683Y-92203687D01*
X158173417Y-92300406D01*
X158178621Y-92318555D01*
X158207825Y-92375380D01*
X158254117Y-92465454D01*
X158272782Y-92501773D01*
X158400737Y-92663212D01*
X158405430Y-92667206D01*
X158405431Y-92667207D01*
X158538064Y-92780086D01*
X158557612Y-92796723D01*
X158562990Y-92799729D01*
X158562992Y-92799730D01*
X158591873Y-92815871D01*
X158737432Y-92897221D01*
X158933347Y-92960878D01*
X158939461Y-92961607D01*
X158939470Y-92961609D01*
X158958261Y-92963850D01*
X159023534Y-92991778D01*
X159063346Y-93050562D01*
X159065056Y-93121538D01*
X159026168Y-93183912D01*
X159015233Y-93193452D01*
X158950751Y-93223158D01*
X158932407Y-93224500D01*
X157367873Y-93224500D01*
X157356284Y-93223205D01*
X157356240Y-93223748D01*
X157347291Y-93223028D01*
X157338536Y-93221047D01*
X157303757Y-93223205D01*
X157286786Y-93224258D01*
X157278983Y-93224500D01*
X157265088Y-93224500D01*
X157260659Y-93225134D01*
X157260651Y-93225135D01*
X157256492Y-93225731D01*
X157246427Y-93226763D01*
X157202561Y-93229484D01*
X157194114Y-93232533D01*
X157187868Y-93233827D01*
X157180128Y-93235757D01*
X157174026Y-93237541D01*
X157165140Y-93238814D01*
X157125139Y-93257002D01*
X157115769Y-93260816D01*
X157074420Y-93275743D01*
X157067173Y-93281038D01*
X157061584Y-93284009D01*
X157054648Y-93288062D01*
X157049294Y-93291486D01*
X157041121Y-93295202D01*
X157034319Y-93301063D01*
X157007832Y-93323886D01*
X156999906Y-93330179D01*
X156990465Y-93337076D01*
X156980959Y-93346582D01*
X156974111Y-93352940D01*
X156944717Y-93378267D01*
X156944712Y-93378272D01*
X156937913Y-93384131D01*
X156933030Y-93391665D01*
X156927131Y-93398427D01*
X156927092Y-93398393D01*
X156918382Y-93409159D01*
X155271101Y-95056440D01*
X155208789Y-95090466D01*
X155145905Y-95088062D01*
X155097598Y-95073615D01*
X155065733Y-95064085D01*
X155065727Y-95064084D01*
X155061438Y-95062801D01*
X154975769Y-95049998D01*
X154939133Y-95049775D01*
X154916750Y-95047631D01*
X154900000Y-95044500D01*
X154350000Y-95044500D01*
X154348559Y-95044567D01*
X154348542Y-95044567D01*
X154334442Y-95045219D01*
X154321812Y-95045803D01*
X154265131Y-95061930D01*
X154207498Y-95064595D01*
X154159876Y-95055693D01*
X154130554Y-95050212D01*
X154067269Y-95018033D01*
X154035845Y-94969266D01*
X154035364Y-94966065D01*
X154032239Y-94959557D01*
X154030942Y-94952455D01*
X154003905Y-94900406D01*
X154002138Y-94896869D01*
X153980814Y-94852464D01*
X153980812Y-94852461D01*
X153976735Y-94843971D01*
X153971856Y-94838693D01*
X153971816Y-94838633D01*
X153968507Y-94832264D01*
X153963475Y-94826371D01*
X153925443Y-94788339D01*
X153922013Y-94784773D01*
X153891188Y-94751426D01*
X153891186Y-94751424D01*
X153884798Y-94744514D01*
X153878633Y-94740933D01*
X153872920Y-94735816D01*
X153342218Y-94205114D01*
X153332363Y-94194025D01*
X153332004Y-94193570D01*
X153311811Y-94167955D01*
X153263538Y-94134591D01*
X153260365Y-94132324D01*
X153213142Y-94097445D01*
X153206332Y-94095054D01*
X153200392Y-94090948D01*
X153179179Y-94084239D01*
X153144453Y-94073256D01*
X153140701Y-94072004D01*
X153094246Y-94055691D01*
X153094244Y-94055691D01*
X153085352Y-94052568D01*
X153078163Y-94052286D01*
X153078106Y-94052275D01*
X153071256Y-94050108D01*
X153063531Y-94049500D01*
X153009738Y-94049500D01*
X153004792Y-94049403D01*
X152950016Y-94047251D01*
X152943121Y-94049079D01*
X152935473Y-94049500D01*
X151738794Y-94049500D01*
X151670673Y-94029498D01*
X151649698Y-94012595D01*
X151487404Y-93850300D01*
X151453379Y-93787988D01*
X151450500Y-93761205D01*
X151450500Y-92533471D01*
X151451373Y-92518662D01*
X151454168Y-92495046D01*
X151455275Y-92485693D01*
X151450219Y-92458006D01*
X151444737Y-92427992D01*
X151444087Y-92424087D01*
X151443110Y-92417587D01*
X151435364Y-92366065D01*
X151432239Y-92359557D01*
X151430942Y-92352455D01*
X151403905Y-92300406D01*
X151402138Y-92296869D01*
X151380814Y-92252464D01*
X151380812Y-92252461D01*
X151376735Y-92243971D01*
X151371858Y-92238695D01*
X151371814Y-92238630D01*
X151368507Y-92232264D01*
X151363475Y-92226372D01*
X151325455Y-92188352D01*
X151322025Y-92184786D01*
X151291193Y-92151432D01*
X151284798Y-92144514D01*
X151278629Y-92140931D01*
X151272917Y-92135814D01*
X149932698Y-90795595D01*
X149898672Y-90733283D01*
X149903737Y-90662468D01*
X149916617Y-90645263D01*
X160644603Y-90645263D01*
X160661840Y-90850538D01*
X160672659Y-90888267D01*
X160697550Y-90975071D01*
X160718621Y-91048555D01*
X160721434Y-91054029D01*
X160721435Y-91054031D01*
X160791845Y-91191034D01*
X160812782Y-91231773D01*
X160940737Y-91393212D01*
X160945430Y-91397206D01*
X160945431Y-91397207D01*
X161092460Y-91522338D01*
X161097612Y-91526723D01*
X161102990Y-91529729D01*
X161102992Y-91529730D01*
X161187522Y-91576972D01*
X161277432Y-91627221D01*
X161473347Y-91690878D01*
X161677895Y-91715269D01*
X161684030Y-91714797D01*
X161684032Y-91714797D01*
X161877144Y-91699938D01*
X161877148Y-91699937D01*
X161883286Y-91699465D01*
X162081695Y-91644068D01*
X162187072Y-91590838D01*
X162260068Y-91553965D01*
X162260070Y-91553964D01*
X162265565Y-91551188D01*
X162282740Y-91537770D01*
X162329543Y-91501203D01*
X162427893Y-91424363D01*
X162431919Y-91419699D01*
X162431922Y-91419696D01*
X162558467Y-91273092D01*
X162558468Y-91273090D01*
X162562496Y-91268424D01*
X162664247Y-91089311D01*
X162729270Y-90893844D01*
X162755088Y-90689471D01*
X162755500Y-90660000D01*
X162735398Y-90454986D01*
X162726216Y-90424572D01*
X162677639Y-90263679D01*
X162675858Y-90257780D01*
X162610513Y-90134884D01*
X162582042Y-90081337D01*
X162582040Y-90081334D01*
X162579148Y-90075895D01*
X162575258Y-90071125D01*
X162575255Y-90071121D01*
X162452847Y-89921034D01*
X162452844Y-89921031D01*
X162448952Y-89916259D01*
X162444203Y-89912330D01*
X162294978Y-89788880D01*
X162294974Y-89788878D01*
X162290228Y-89784951D01*
X162109023Y-89686973D01*
X161912238Y-89626058D01*
X161906116Y-89625415D01*
X161906113Y-89625414D01*
X161713498Y-89605170D01*
X161713496Y-89605170D01*
X161707369Y-89604526D01*
X161621346Y-89612355D01*
X161508358Y-89622637D01*
X161508355Y-89622638D01*
X161502219Y-89623196D01*
X161496313Y-89624934D01*
X161496309Y-89624935D01*
X161347368Y-89668771D01*
X161304603Y-89681357D01*
X161122047Y-89776795D01*
X160961505Y-89905874D01*
X160829093Y-90063677D01*
X160826129Y-90069069D01*
X160826126Y-90069073D01*
X160780300Y-90152431D01*
X160729853Y-90244194D01*
X160727992Y-90250061D01*
X160727991Y-90250063D01*
X160703291Y-90327928D01*
X160667565Y-90440549D01*
X160644603Y-90645263D01*
X149916617Y-90645263D01*
X149946284Y-90605632D01*
X150012804Y-90580821D01*
X150021793Y-90580500D01*
X151475000Y-90580500D01*
X151476441Y-90580433D01*
X151476458Y-90580433D01*
X151490558Y-90579781D01*
X151503188Y-90579197D01*
X151611173Y-90548472D01*
X151698877Y-90482241D01*
X151716722Y-90470980D01*
X151725126Y-90466615D01*
X151749619Y-90453892D01*
X151753158Y-90452124D01*
X151797537Y-90430813D01*
X151806029Y-90426735D01*
X151811305Y-90421858D01*
X151811370Y-90421814D01*
X151817736Y-90418507D01*
X151823628Y-90413475D01*
X151861648Y-90375455D01*
X151865214Y-90372025D01*
X151898568Y-90341193D01*
X151905486Y-90334798D01*
X151909069Y-90328629D01*
X151914186Y-90322917D01*
X152394881Y-89842222D01*
X152405970Y-89832367D01*
X152417164Y-89823542D01*
X152432045Y-89811811D01*
X152437399Y-89804064D01*
X152437403Y-89804060D01*
X152465401Y-89763551D01*
X152467702Y-89760331D01*
X152496957Y-89720723D01*
X152496959Y-89720719D01*
X152502555Y-89713143D01*
X152504947Y-89706331D01*
X152509052Y-89700392D01*
X152526763Y-89644389D01*
X152527993Y-89640705D01*
X152544311Y-89594239D01*
X152544312Y-89594234D01*
X152547431Y-89585352D01*
X152547713Y-89578167D01*
X152547724Y-89578109D01*
X152549892Y-89571256D01*
X152550500Y-89563531D01*
X152550500Y-89509728D01*
X152550597Y-89504781D01*
X152552379Y-89459429D01*
X152552749Y-89450016D01*
X152550921Y-89443121D01*
X152550500Y-89435474D01*
X152550500Y-89138793D01*
X152570502Y-89070672D01*
X152587405Y-89049698D01*
X152999698Y-88637405D01*
X153062010Y-88603379D01*
X153088793Y-88600500D01*
X157826530Y-88600500D01*
X157841339Y-88601373D01*
X157874308Y-88605275D01*
X157883573Y-88603583D01*
X157883574Y-88603583D01*
X157932002Y-88594739D01*
X157935904Y-88594089D01*
X157959913Y-88590479D01*
X157993935Y-88585364D01*
X158000443Y-88582239D01*
X158007545Y-88580942D01*
X158059594Y-88553905D01*
X158063131Y-88552138D01*
X158107536Y-88530814D01*
X158107539Y-88530812D01*
X158116029Y-88526735D01*
X158121305Y-88521858D01*
X158121370Y-88521814D01*
X158127736Y-88518507D01*
X158133628Y-88513475D01*
X158171648Y-88475455D01*
X158175214Y-88472025D01*
X158208568Y-88441193D01*
X158215486Y-88434798D01*
X158219069Y-88428629D01*
X158224186Y-88422917D01*
X158752612Y-87894491D01*
X158814924Y-87860465D01*
X158880642Y-87863753D01*
X158933347Y-87880878D01*
X158939457Y-87881607D01*
X158939459Y-87881607D01*
X159005359Y-87889465D01*
X159137895Y-87905269D01*
X159144030Y-87904797D01*
X159144032Y-87904797D01*
X159337144Y-87889938D01*
X159337148Y-87889937D01*
X159343286Y-87889465D01*
X159541695Y-87834068D01*
X159659528Y-87774546D01*
X159720068Y-87743965D01*
X159720070Y-87743964D01*
X159725565Y-87741188D01*
X159731534Y-87736525D01*
X159814309Y-87671853D01*
X159887893Y-87614363D01*
X159891919Y-87609699D01*
X159891922Y-87609696D01*
X160018467Y-87463092D01*
X160018468Y-87463090D01*
X160022496Y-87458424D01*
X160124247Y-87279311D01*
X160138623Y-87236095D01*
X160148151Y-87207453D01*
X160188632Y-87149129D01*
X160254220Y-87121949D01*
X160324091Y-87134544D01*
X160356804Y-87158130D01*
X160724333Y-87525659D01*
X160758359Y-87587971D01*
X160753294Y-87658786D01*
X160745653Y-87675454D01*
X160729853Y-87704194D01*
X160727989Y-87710069D01*
X160727988Y-87710072D01*
X160717237Y-87743965D01*
X160667565Y-87900549D01*
X160644603Y-88105263D01*
X160661840Y-88310538D01*
X160677597Y-88365488D01*
X160715254Y-88496812D01*
X160718621Y-88508555D01*
X160754632Y-88578625D01*
X160805516Y-88677634D01*
X160812782Y-88691773D01*
X160940737Y-88853212D01*
X160945430Y-88857206D01*
X160945431Y-88857207D01*
X161092695Y-88982538D01*
X161097612Y-88986723D01*
X161102990Y-88989729D01*
X161102992Y-88989730D01*
X161134602Y-89007396D01*
X161277432Y-89087221D01*
X161473347Y-89150878D01*
X161677895Y-89175269D01*
X161684030Y-89174797D01*
X161684032Y-89174797D01*
X161877144Y-89159938D01*
X161877148Y-89159937D01*
X161883286Y-89159465D01*
X162081695Y-89104068D01*
X162236672Y-89025783D01*
X162260068Y-89013965D01*
X162260070Y-89013964D01*
X162265565Y-89011188D01*
X162275805Y-89003188D01*
X162339301Y-88953579D01*
X162427893Y-88884363D01*
X162431919Y-88879699D01*
X162431922Y-88879696D01*
X162558467Y-88733092D01*
X162558468Y-88733090D01*
X162562496Y-88728424D01*
X162664247Y-88549311D01*
X162729270Y-88353844D01*
X162755088Y-88149471D01*
X162755500Y-88120000D01*
X162735398Y-87914986D01*
X162731025Y-87900500D01*
X162677639Y-87723679D01*
X162675858Y-87717780D01*
X162626011Y-87624031D01*
X162582042Y-87541337D01*
X162582040Y-87541334D01*
X162579148Y-87535895D01*
X162575258Y-87531125D01*
X162575255Y-87531121D01*
X162452847Y-87381034D01*
X162452844Y-87381031D01*
X162448952Y-87376259D01*
X162444203Y-87372330D01*
X162294978Y-87248880D01*
X162294974Y-87248878D01*
X162290228Y-87244951D01*
X162109023Y-87146973D01*
X161912238Y-87086058D01*
X161906116Y-87085415D01*
X161906113Y-87085414D01*
X161713498Y-87065170D01*
X161713496Y-87065170D01*
X161707369Y-87064526D01*
X161610363Y-87073354D01*
X161540710Y-87059609D01*
X161509849Y-87036968D01*
X161267356Y-86794475D01*
X161233330Y-86732163D01*
X161238395Y-86661348D01*
X161280942Y-86604512D01*
X161347462Y-86579701D01*
X161395386Y-86585547D01*
X161473347Y-86610878D01*
X161677895Y-86635269D01*
X161684030Y-86634797D01*
X161684032Y-86634797D01*
X161877144Y-86619938D01*
X161877148Y-86619937D01*
X161883286Y-86619465D01*
X162081695Y-86564068D01*
X162188816Y-86509957D01*
X162260068Y-86473965D01*
X162260070Y-86473964D01*
X162265565Y-86471188D01*
X162286650Y-86454715D01*
X162383411Y-86379116D01*
X162427893Y-86344363D01*
X162431919Y-86339699D01*
X162431922Y-86339696D01*
X162558467Y-86193092D01*
X162558468Y-86193090D01*
X162562496Y-86188424D01*
X162664247Y-86009311D01*
X162729270Y-85813844D01*
X162755088Y-85609471D01*
X162755500Y-85580000D01*
X162735398Y-85374986D01*
X162733563Y-85368906D01*
X162677639Y-85183679D01*
X162675858Y-85177780D01*
X162601738Y-85038381D01*
X162582042Y-85001337D01*
X162582040Y-85001334D01*
X162579148Y-84995895D01*
X162575258Y-84991125D01*
X162575255Y-84991121D01*
X162452847Y-84841034D01*
X162452844Y-84841031D01*
X162448952Y-84836259D01*
X162365618Y-84767319D01*
X162294978Y-84708880D01*
X162294974Y-84708878D01*
X162290228Y-84704951D01*
X162109023Y-84606973D01*
X161912238Y-84546058D01*
X161906116Y-84545415D01*
X161906113Y-84545414D01*
X161713498Y-84525170D01*
X161713496Y-84525170D01*
X161707369Y-84524526D01*
X161631254Y-84531453D01*
X161508358Y-84542637D01*
X161508355Y-84542638D01*
X161502219Y-84543196D01*
X161496313Y-84544934D01*
X161496309Y-84544935D01*
X161445269Y-84559957D01*
X161304603Y-84601357D01*
X161122047Y-84696795D01*
X160961505Y-84825874D01*
X160829093Y-84983677D01*
X160826129Y-84989069D01*
X160826126Y-84989073D01*
X160783450Y-85066701D01*
X160733104Y-85116760D01*
X160673035Y-85132000D01*
X160642149Y-85132000D01*
X160574028Y-85111998D01*
X160553053Y-85095095D01*
X160197501Y-84739542D01*
X160163476Y-84677230D01*
X160167038Y-84610676D01*
X160187325Y-84549691D01*
X160189270Y-84543844D01*
X160215088Y-84339471D01*
X160215307Y-84323823D01*
X160215451Y-84313522D01*
X160215451Y-84313518D01*
X160215500Y-84310000D01*
X160195398Y-84104986D01*
X160135858Y-83907780D01*
X160064477Y-83773532D01*
X160042042Y-83731337D01*
X160042040Y-83731334D01*
X160039148Y-83725895D01*
X160035258Y-83721125D01*
X160035255Y-83721121D01*
X159912847Y-83571034D01*
X159912844Y-83571031D01*
X159908952Y-83566259D01*
X159891734Y-83552015D01*
X159754978Y-83438880D01*
X159754974Y-83438878D01*
X159750228Y-83434951D01*
X159569023Y-83336973D01*
X159372238Y-83276058D01*
X159366116Y-83275415D01*
X159366113Y-83275414D01*
X159173498Y-83255170D01*
X159173496Y-83255170D01*
X159167369Y-83254526D01*
X159081346Y-83262355D01*
X158968358Y-83272637D01*
X158968355Y-83272638D01*
X158962219Y-83273196D01*
X158956313Y-83274934D01*
X158956309Y-83274935D01*
X158852227Y-83305568D01*
X158764603Y-83331357D01*
X158582047Y-83426795D01*
X158421505Y-83555874D01*
X158289093Y-83713677D01*
X158286129Y-83719069D01*
X158286126Y-83719073D01*
X158243450Y-83796701D01*
X158193104Y-83846760D01*
X158133035Y-83862000D01*
X157072730Y-83862000D01*
X157004609Y-83841998D01*
X156957093Y-83786040D01*
X156928568Y-83720122D01*
X156928567Y-83720120D01*
X156925155Y-83712236D01*
X156830266Y-83595058D01*
X156823264Y-83590082D01*
X156823262Y-83590080D01*
X156714363Y-83512690D01*
X156707361Y-83507714D01*
X156565495Y-83456639D01*
X156497572Y-83449500D01*
X156041793Y-83449500D01*
X155973672Y-83429498D01*
X155927179Y-83375842D01*
X155917075Y-83305568D01*
X155946569Y-83240988D01*
X155952698Y-83234405D01*
X156474698Y-82712405D01*
X156537010Y-82678379D01*
X156563793Y-82675500D01*
X156569914Y-82675500D01*
X156674070Y-82660584D01*
X156745443Y-82628132D01*
X156793791Y-82606150D01*
X156793793Y-82606149D01*
X156801961Y-82602435D01*
X156908391Y-82510729D01*
X156919134Y-82494155D01*
X156979923Y-82400370D01*
X156979924Y-82400368D01*
X156984804Y-82392839D01*
X157025057Y-82258240D01*
X157025500Y-82252279D01*
X157025500Y-80780086D01*
X157010584Y-80675930D01*
X156970307Y-80587345D01*
X156956150Y-80556209D01*
X156956149Y-80556207D01*
X156952435Y-80548039D01*
X156860729Y-80441609D01*
X156828199Y-80420524D01*
X156750370Y-80370077D01*
X156750368Y-80370076D01*
X156742839Y-80365196D01*
X156608240Y-80324943D01*
X156602279Y-80324500D01*
X155930086Y-80324500D01*
X155825930Y-80339416D01*
X155817760Y-80343131D01*
X155817752Y-80343133D01*
X155708803Y-80392670D01*
X155638512Y-80402658D01*
X155571122Y-80370495D01*
X155562609Y-80362625D01*
X155433862Y-80243613D01*
X155247286Y-80125892D01*
X155042380Y-80044143D01*
X155036720Y-80043017D01*
X155036716Y-80043016D01*
X154831676Y-80002231D01*
X154831673Y-80002231D01*
X154826009Y-80001104D01*
X154820234Y-80001028D01*
X154820230Y-80001028D01*
X154709323Y-79999576D01*
X154605418Y-79998216D01*
X154599721Y-79999195D01*
X154599720Y-79999195D01*
X154393691Y-80034597D01*
X154387994Y-80035576D01*
X154181019Y-80111933D01*
X154176058Y-80114885D01*
X154176057Y-80114885D01*
X153996393Y-80221774D01*
X153996390Y-80221776D01*
X153991425Y-80224730D01*
X153825561Y-80370189D01*
X153688983Y-80543438D01*
X153686294Y-80548549D01*
X153686292Y-80548552D01*
X153665882Y-80587345D01*
X153586263Y-80738675D01*
X153520843Y-80949362D01*
X153520164Y-80955099D01*
X153503115Y-81099149D01*
X153499500Y-81129689D01*
X153499500Y-81854415D01*
X153505280Y-81917321D01*
X153511941Y-81989807D01*
X153514686Y-82019685D01*
X153516254Y-82025244D01*
X153516254Y-82025245D01*
X153572538Y-82224810D01*
X153574569Y-82232013D01*
X153577121Y-82237189D01*
X153577123Y-82237193D01*
X153649639Y-82384241D01*
X153672142Y-82429872D01*
X153675596Y-82434498D01*
X153675597Y-82434499D01*
X153753516Y-82538845D01*
X153804139Y-82606637D01*
X153808373Y-82610551D01*
X153808375Y-82610553D01*
X153960157Y-82750858D01*
X153966138Y-82756387D01*
X154152714Y-82874108D01*
X154357620Y-82955857D01*
X154363280Y-82956983D01*
X154363284Y-82956984D01*
X154568324Y-82997769D01*
X154568327Y-82997769D01*
X154573991Y-82998896D01*
X154579766Y-82998972D01*
X154579770Y-82998972D01*
X154595645Y-82999180D01*
X154610986Y-82999380D01*
X154678839Y-83020271D01*
X154724626Y-83074531D01*
X154733809Y-83144931D01*
X154703474Y-83209120D01*
X154698432Y-83214464D01*
X154500301Y-83412595D01*
X154437989Y-83446621D01*
X154411206Y-83449500D01*
X153713499Y-83449500D01*
X153709253Y-83450082D01*
X153709247Y-83450082D01*
X153661382Y-83456639D01*
X153600615Y-83464963D01*
X153592731Y-83468375D01*
X153592730Y-83468375D01*
X153470120Y-83521433D01*
X153470118Y-83521434D01*
X153462236Y-83524845D01*
X153418091Y-83560593D01*
X153367284Y-83601736D01*
X153345058Y-83619734D01*
X153340082Y-83626736D01*
X153340080Y-83626738D01*
X153295030Y-83690130D01*
X153257714Y-83742639D01*
X153206639Y-83884505D01*
X153199500Y-83952428D01*
X153199500Y-84936501D01*
X153200082Y-84940747D01*
X153200082Y-84940753D01*
X153201464Y-84950841D01*
X153214963Y-85049385D01*
X153218375Y-85057269D01*
X153218375Y-85057270D01*
X153270525Y-85177780D01*
X153274845Y-85187764D01*
X153369734Y-85304942D01*
X153376736Y-85309918D01*
X153376738Y-85309920D01*
X153478487Y-85382229D01*
X153492639Y-85392286D01*
X153634505Y-85443361D01*
X153702428Y-85450500D01*
X154486501Y-85450500D01*
X154490747Y-85449918D01*
X154490753Y-85449918D01*
X154557408Y-85440787D01*
X154599385Y-85435037D01*
X154608358Y-85431154D01*
X154729880Y-85378567D01*
X154729882Y-85378566D01*
X154737764Y-85375155D01*
X154815360Y-85312319D01*
X154848264Y-85285674D01*
X154848265Y-85285673D01*
X154854942Y-85280266D01*
X154859918Y-85273264D01*
X154859920Y-85273262D01*
X154937310Y-85164363D01*
X154942286Y-85157361D01*
X154971938Y-85075000D01*
X154979786Y-85053202D01*
X155021681Y-84995884D01*
X155087914Y-84970315D01*
X155157456Y-84984613D01*
X155208228Y-85034239D01*
X155214557Y-85049561D01*
X155214963Y-85049385D01*
X155270525Y-85177780D01*
X155274845Y-85187764D01*
X155369734Y-85304942D01*
X155376736Y-85309918D01*
X155376738Y-85309920D01*
X155478487Y-85382229D01*
X155492639Y-85392286D01*
X155634505Y-85443361D01*
X155702428Y-85450500D01*
X156486501Y-85450500D01*
X156490747Y-85449918D01*
X156490753Y-85449918D01*
X156557408Y-85440787D01*
X156599385Y-85435037D01*
X156608358Y-85431154D01*
X156729880Y-85378567D01*
X156729882Y-85378566D01*
X156737764Y-85375155D01*
X156815360Y-85312319D01*
X156848264Y-85285674D01*
X156848265Y-85285673D01*
X156854942Y-85280266D01*
X156859918Y-85273264D01*
X156859920Y-85273262D01*
X156937310Y-85164363D01*
X156942286Y-85157361D01*
X156993361Y-85015495D01*
X157000500Y-84947572D01*
X157000500Y-84939000D01*
X157020502Y-84870879D01*
X157074158Y-84824386D01*
X157126500Y-84813000D01*
X158160526Y-84813000D01*
X158228647Y-84833002D01*
X158264512Y-84872472D01*
X158266625Y-84871110D01*
X158269967Y-84876295D01*
X158272782Y-84881773D01*
X158400737Y-85043212D01*
X158405430Y-85047206D01*
X158405431Y-85047207D01*
X158501919Y-85129325D01*
X158540832Y-85188708D01*
X158541463Y-85259702D01*
X158503611Y-85319767D01*
X158439295Y-85349832D01*
X158405448Y-85350406D01*
X158382703Y-85347714D01*
X158373438Y-85349406D01*
X158373437Y-85349406D01*
X158325009Y-85358250D01*
X158321107Y-85358900D01*
X158298789Y-85362256D01*
X158263076Y-85367625D01*
X158256568Y-85370750D01*
X158249466Y-85372047D01*
X158213619Y-85390668D01*
X158197417Y-85399084D01*
X158193880Y-85400851D01*
X158149475Y-85422175D01*
X158149472Y-85422177D01*
X158140982Y-85426254D01*
X158135704Y-85431133D01*
X158135644Y-85431173D01*
X158129275Y-85434482D01*
X158123382Y-85439514D01*
X158085350Y-85477546D01*
X158081784Y-85480976D01*
X158048437Y-85511801D01*
X158048435Y-85511803D01*
X158041525Y-85518191D01*
X158037944Y-85524356D01*
X158032827Y-85530069D01*
X156600301Y-86962595D01*
X156537989Y-86996621D01*
X156511206Y-86999500D01*
X151906500Y-86999500D01*
X151838379Y-86979498D01*
X151791886Y-86925842D01*
X151780500Y-86873500D01*
X151780500Y-86575000D01*
X151780236Y-86569275D01*
X151779533Y-86554084D01*
X151779197Y-86546812D01*
X151748472Y-86438827D01*
X151680814Y-86349233D01*
X151585359Y-86290130D01*
X151573886Y-86287985D01*
X151573885Y-86287985D01*
X151548712Y-86283279D01*
X151506961Y-86275475D01*
X151443676Y-86243296D01*
X151407834Y-86182011D01*
X151410815Y-86111077D01*
X151451672Y-86053015D01*
X151503442Y-86030090D01*
X151503188Y-86029197D01*
X151611173Y-85998472D01*
X151700767Y-85930814D01*
X151759870Y-85835359D01*
X151766470Y-85800056D01*
X151779430Y-85730725D01*
X151779430Y-85730723D01*
X151780500Y-85725000D01*
X151780500Y-85275000D01*
X151780236Y-85269273D01*
X151779533Y-85254084D01*
X151779197Y-85246812D01*
X151777204Y-85239807D01*
X151768711Y-85209957D01*
X151766046Y-85152323D01*
X151779430Y-85080727D01*
X151779431Y-85080721D01*
X151780500Y-85075000D01*
X151780500Y-84625000D01*
X151780236Y-84619273D01*
X151779533Y-84604084D01*
X151779197Y-84596812D01*
X151773762Y-84577710D01*
X151768711Y-84559957D01*
X151766046Y-84502323D01*
X151779430Y-84430727D01*
X151779431Y-84430721D01*
X151780500Y-84425000D01*
X151780500Y-83975000D01*
X151780236Y-83969273D01*
X151779533Y-83954084D01*
X151779197Y-83946812D01*
X151774602Y-83930662D01*
X151768711Y-83909957D01*
X151766046Y-83852323D01*
X151779430Y-83780727D01*
X151779431Y-83780721D01*
X151780500Y-83775000D01*
X151780500Y-83325000D01*
X151780236Y-83319273D01*
X151779533Y-83304084D01*
X151779197Y-83296812D01*
X151773292Y-83276058D01*
X151768711Y-83259957D01*
X151766046Y-83202323D01*
X151779430Y-83130727D01*
X151779431Y-83130721D01*
X151780500Y-83125000D01*
X151780500Y-82675000D01*
X151780413Y-82673102D01*
X151779533Y-82654084D01*
X151779197Y-82646812D01*
X151776512Y-82637375D01*
X151768711Y-82609957D01*
X151766046Y-82552323D01*
X151779430Y-82480727D01*
X151779431Y-82480721D01*
X151780500Y-82475000D01*
X151780500Y-82025000D01*
X151780284Y-82020315D01*
X151779533Y-82004084D01*
X151779197Y-81996812D01*
X151773133Y-81975500D01*
X151768711Y-81959957D01*
X151766046Y-81902323D01*
X151779430Y-81830727D01*
X151779431Y-81830721D01*
X151780500Y-81825000D01*
X151780500Y-81375000D01*
X151780236Y-81369275D01*
X151779533Y-81354084D01*
X151779197Y-81346812D01*
X151748472Y-81238827D01*
X151680814Y-81149233D01*
X151585359Y-81090130D01*
X151573887Y-81087986D01*
X151573886Y-81087985D01*
X151480725Y-81070570D01*
X151480723Y-81070570D01*
X151475000Y-81069500D01*
X149725000Y-81069500D01*
X149723559Y-81069567D01*
X149723542Y-81069567D01*
X149709442Y-81070219D01*
X149696812Y-81070803D01*
X149588827Y-81101528D01*
X149499233Y-81169186D01*
X149440130Y-81264641D01*
X149437986Y-81276113D01*
X149437985Y-81276114D01*
X149432890Y-81303370D01*
X149419500Y-81375000D01*
X149419500Y-81825000D01*
X149419567Y-81826441D01*
X149419567Y-81826458D01*
X149420219Y-81840558D01*
X149420803Y-81853188D01*
X149422796Y-81860192D01*
X149422796Y-81860193D01*
X149431289Y-81890043D01*
X149433954Y-81947677D01*
X149420570Y-82019273D01*
X149420569Y-82019279D01*
X149419500Y-82025000D01*
X149419500Y-82475000D01*
X149419567Y-82476441D01*
X149419567Y-82476458D01*
X149419806Y-82481625D01*
X149420803Y-82503188D01*
X149422796Y-82510192D01*
X149422796Y-82510193D01*
X149431289Y-82540043D01*
X149433954Y-82597677D01*
X149420570Y-82669273D01*
X149420569Y-82669279D01*
X149419500Y-82675000D01*
X149419500Y-83125000D01*
X149419567Y-83126441D01*
X149419567Y-83126458D01*
X149419982Y-83135425D01*
X149420803Y-83153188D01*
X149422796Y-83160192D01*
X149422796Y-83160193D01*
X149431289Y-83190043D01*
X149433954Y-83247677D01*
X149420570Y-83319273D01*
X149420569Y-83319279D01*
X149419500Y-83325000D01*
X149419500Y-83775000D01*
X149419567Y-83776441D01*
X149419567Y-83776458D01*
X149420010Y-83786040D01*
X149420803Y-83803188D01*
X149422796Y-83810192D01*
X149422796Y-83810193D01*
X149431289Y-83840043D01*
X149433954Y-83897677D01*
X149420570Y-83969273D01*
X149420569Y-83969279D01*
X149419500Y-83975000D01*
X149419500Y-84425000D01*
X149419567Y-84426441D01*
X149419567Y-84426458D01*
X149420219Y-84440558D01*
X149420803Y-84453188D01*
X149422796Y-84460192D01*
X149422796Y-84460193D01*
X149431289Y-84490043D01*
X149433954Y-84547677D01*
X149420570Y-84619273D01*
X149420569Y-84619279D01*
X149419500Y-84625000D01*
X149419500Y-85075000D01*
X149419567Y-85076441D01*
X149419567Y-85076458D01*
X149420219Y-85090558D01*
X149420803Y-85103188D01*
X149422796Y-85110192D01*
X149422796Y-85110193D01*
X149431289Y-85140043D01*
X149433954Y-85197677D01*
X149420570Y-85269273D01*
X149420569Y-85269279D01*
X149419500Y-85275000D01*
X149419500Y-85725000D01*
X149419567Y-85726441D01*
X149419567Y-85726458D01*
X149420219Y-85740558D01*
X149420803Y-85753188D01*
X149451528Y-85861173D01*
X149519186Y-85950767D01*
X149614641Y-86009870D01*
X149626114Y-86012015D01*
X149626115Y-86012015D01*
X149651288Y-86016721D01*
X149693039Y-86024525D01*
X149756324Y-86056704D01*
X149792166Y-86117989D01*
X149789185Y-86188923D01*
X149748328Y-86246985D01*
X149696558Y-86269910D01*
X149696812Y-86270803D01*
X149588827Y-86301528D01*
X149499233Y-86369186D01*
X149440130Y-86464641D01*
X149437986Y-86476113D01*
X149437985Y-86476114D01*
X149421234Y-86565725D01*
X149419500Y-86575000D01*
X149419500Y-87025000D01*
X149419567Y-87026441D01*
X149419567Y-87026458D01*
X149419887Y-87033379D01*
X149420803Y-87053188D01*
X149422796Y-87060192D01*
X149422796Y-87060193D01*
X149431289Y-87090043D01*
X149433954Y-87147677D01*
X149420570Y-87219273D01*
X149420569Y-87219279D01*
X149419500Y-87225000D01*
X149419500Y-87591342D01*
X149399498Y-87659463D01*
X149348043Y-87704925D01*
X149309851Y-87723265D01*
X149304575Y-87728142D01*
X149304510Y-87728186D01*
X149298144Y-87731493D01*
X149292252Y-87736525D01*
X149254231Y-87774546D01*
X149250666Y-87777975D01*
X149210394Y-87815202D01*
X149206811Y-87821371D01*
X149201698Y-87827079D01*
X148805110Y-88223666D01*
X148794021Y-88233520D01*
X148767955Y-88254069D01*
X148751273Y-88278206D01*
X148734597Y-88302334D01*
X148732324Y-88305515D01*
X148697445Y-88352738D01*
X148695054Y-88359548D01*
X148690948Y-88365488D01*
X148688107Y-88374471D01*
X148673256Y-88421427D01*
X148672004Y-88425179D01*
X148666017Y-88442229D01*
X148652568Y-88480528D01*
X148652286Y-88487717D01*
X148652275Y-88487774D01*
X148650108Y-88494624D01*
X148649500Y-88502349D01*
X148649500Y-88556142D01*
X148649403Y-88561088D01*
X148647251Y-88615864D01*
X148649079Y-88622759D01*
X148649500Y-88630407D01*
X148649500Y-90472851D01*
X148629498Y-90540972D01*
X148575842Y-90587465D01*
X148505568Y-90597569D01*
X148440988Y-90568075D01*
X148434405Y-90561946D01*
X146612405Y-88739946D01*
X146578379Y-88677634D01*
X146575500Y-88650851D01*
X146575500Y-84824303D01*
X146575847Y-84814965D01*
X146578723Y-84776270D01*
X146578723Y-84776268D01*
X146579388Y-84767319D01*
X146577515Y-84758545D01*
X146576904Y-84749581D01*
X146576954Y-84749578D01*
X146575500Y-84735805D01*
X146575500Y-80667867D01*
X146576794Y-80656281D01*
X146576251Y-80656237D01*
X146576971Y-80647291D01*
X146578952Y-80638535D01*
X146575742Y-80586794D01*
X146575500Y-80578993D01*
X146575500Y-80565088D01*
X146574267Y-80556479D01*
X146573238Y-80546431D01*
X146571072Y-80511522D01*
X146570516Y-80502560D01*
X146567467Y-80494114D01*
X146566179Y-80487895D01*
X146564240Y-80480118D01*
X146562459Y-80474027D01*
X146561186Y-80465140D01*
X146542989Y-80425119D01*
X146539183Y-80415768D01*
X146527305Y-80382865D01*
X146524256Y-80374419D01*
X146518960Y-80367169D01*
X146515987Y-80361578D01*
X146511919Y-80354618D01*
X146508514Y-80349294D01*
X146504798Y-80341121D01*
X146498939Y-80334321D01*
X146498937Y-80334318D01*
X146476104Y-80307818D01*
X146469819Y-80299903D01*
X146465799Y-80294400D01*
X146465795Y-80294396D01*
X146462923Y-80290464D01*
X146453418Y-80280959D01*
X146447060Y-80274111D01*
X146421733Y-80244717D01*
X146421728Y-80244712D01*
X146415869Y-80237913D01*
X146408335Y-80233030D01*
X146401573Y-80227131D01*
X146401607Y-80227092D01*
X146390841Y-80218382D01*
X145734221Y-79561762D01*
X145726941Y-79552652D01*
X145726526Y-79553005D01*
X145720710Y-79546171D01*
X145715919Y-79538578D01*
X145677053Y-79504253D01*
X145671366Y-79498907D01*
X145661543Y-79489084D01*
X145655029Y-79484202D01*
X145654593Y-79483875D01*
X145646753Y-79477493D01*
X145620532Y-79454336D01*
X145613805Y-79448395D01*
X145605680Y-79444580D01*
X145600363Y-79441088D01*
X145585928Y-79432414D01*
X145583142Y-79430326D01*
X145540627Y-79373467D01*
X145535601Y-79302648D01*
X145569661Y-79240355D01*
X145631992Y-79206365D01*
X145658707Y-79203500D01*
X157716857Y-79203500D01*
X157784978Y-79223502D01*
X157831471Y-79277158D01*
X157842857Y-79329500D01*
X157842857Y-81005000D01*
X166855315Y-81005000D01*
X166923436Y-81025002D01*
X166969929Y-81078658D01*
X166980033Y-81148932D01*
X166950539Y-81213512D01*
X166920023Y-81239115D01*
X166834095Y-81290542D01*
X166830744Y-81293226D01*
X166830742Y-81293228D01*
X166763858Y-81346812D01*
X166607916Y-81471745D01*
X166408422Y-81681968D01*
X166239304Y-81917321D01*
X166103691Y-82173448D01*
X166067003Y-82273703D01*
X166007560Y-82436139D01*
X166004094Y-82445609D01*
X165942355Y-82728770D01*
X165942019Y-82733040D01*
X165921508Y-82993668D01*
X165919617Y-83017690D01*
X165936300Y-83307022D01*
X165937125Y-83311227D01*
X165937126Y-83311235D01*
X165967956Y-83468375D01*
X165992095Y-83591414D01*
X165993482Y-83595464D01*
X165993483Y-83595469D01*
X166084582Y-83861546D01*
X166085971Y-83865602D01*
X166216189Y-84124513D01*
X166218615Y-84128042D01*
X166218618Y-84128048D01*
X166255409Y-84181579D01*
X166380341Y-84363355D01*
X166383222Y-84366521D01*
X166549894Y-84549691D01*
X166575389Y-84577710D01*
X166606932Y-84604084D01*
X166794432Y-84760859D01*
X166794437Y-84760863D01*
X166797724Y-84763611D01*
X166894608Y-84824386D01*
X167039591Y-84915334D01*
X167039595Y-84915336D01*
X167043231Y-84917617D01*
X167047141Y-84919382D01*
X167047142Y-84919383D01*
X167303455Y-85035113D01*
X167303459Y-85035115D01*
X167307367Y-85036879D01*
X167362472Y-85053202D01*
X167581133Y-85117973D01*
X167581138Y-85117974D01*
X167585246Y-85119191D01*
X167589480Y-85119839D01*
X167589485Y-85119840D01*
X167867482Y-85162379D01*
X167867484Y-85162379D01*
X167871724Y-85163028D01*
X168019285Y-85165346D01*
X168157211Y-85167513D01*
X168157217Y-85167513D01*
X168161502Y-85167580D01*
X168449216Y-85132763D01*
X168729543Y-85059221D01*
X168997295Y-84948314D01*
X169010235Y-84940753D01*
X169243821Y-84804256D01*
X169243822Y-84804256D01*
X169247519Y-84802095D01*
X169250879Y-84799461D01*
X169250887Y-84799455D01*
X169472211Y-84625914D01*
X169475583Y-84623270D01*
X169479457Y-84619273D01*
X169669142Y-84423532D01*
X169677267Y-84415148D01*
X169848841Y-84181579D01*
X169879825Y-84124513D01*
X169985078Y-83930662D01*
X169985079Y-83930660D01*
X169987128Y-83926886D01*
X170089569Y-83655782D01*
X170137474Y-83446621D01*
X170153313Y-83377464D01*
X170153314Y-83377459D01*
X170154270Y-83373284D01*
X170180033Y-83084618D01*
X170180500Y-83040000D01*
X170178359Y-83008591D01*
X170161080Y-82755135D01*
X170161079Y-82755129D01*
X170160788Y-82750858D01*
X170145779Y-82678379D01*
X170125706Y-82581453D01*
X170102018Y-82467066D01*
X170005276Y-82193876D01*
X169994733Y-82173448D01*
X169874319Y-81940150D01*
X169874319Y-81940149D01*
X169872354Y-81936343D01*
X169868918Y-81931453D01*
X169708176Y-81702743D01*
X169708175Y-81702742D01*
X169705709Y-81699233D01*
X169508428Y-81486932D01*
X169284159Y-81303370D01*
X169178191Y-81238433D01*
X169130560Y-81185785D01*
X169118953Y-81115744D01*
X169147056Y-81050546D01*
X169205946Y-81010892D01*
X169244026Y-81005000D01*
X173211000Y-81005000D01*
X173279121Y-81025002D01*
X173325614Y-81078658D01*
X173337000Y-81131000D01*
X173337000Y-96369000D01*
X173316998Y-96437121D01*
X173263342Y-96483614D01*
X173211000Y-96495000D01*
X169262972Y-96495000D01*
X169194851Y-96474998D01*
X169148358Y-96421342D01*
X169138254Y-96351068D01*
X169167748Y-96286488D01*
X169199402Y-96260212D01*
X169243821Y-96234256D01*
X169243822Y-96234256D01*
X169247519Y-96232095D01*
X169250879Y-96229461D01*
X169250887Y-96229455D01*
X169472211Y-96055914D01*
X169475583Y-96053270D01*
X169494743Y-96033499D01*
X169603010Y-95921775D01*
X169677267Y-95845148D01*
X169848841Y-95611579D01*
X169852686Y-95604498D01*
X169985078Y-95360662D01*
X169985079Y-95360660D01*
X169987128Y-95356886D01*
X170089569Y-95085782D01*
X170135773Y-94884046D01*
X170153313Y-94807464D01*
X170153314Y-94807459D01*
X170154270Y-94803284D01*
X170180033Y-94514618D01*
X170180256Y-94493361D01*
X170180474Y-94472485D01*
X170180500Y-94470000D01*
X170178611Y-94442286D01*
X170161080Y-94185135D01*
X170161079Y-94185129D01*
X170160788Y-94180858D01*
X170159679Y-94175500D01*
X170115128Y-93960374D01*
X170102018Y-93897066D01*
X170005276Y-93623876D01*
X170000586Y-93614788D01*
X169874319Y-93370150D01*
X169874319Y-93370149D01*
X169872354Y-93366343D01*
X169862935Y-93352940D01*
X169708176Y-93132743D01*
X169708175Y-93132742D01*
X169705709Y-93129233D01*
X169508428Y-92916932D01*
X169488278Y-92900439D01*
X169365235Y-92799730D01*
X169284159Y-92733370D01*
X169037052Y-92581943D01*
X169033135Y-92580224D01*
X169033132Y-92580222D01*
X168871367Y-92509213D01*
X168771681Y-92465454D01*
X168767553Y-92464278D01*
X168767550Y-92464277D01*
X168670827Y-92436725D01*
X168492956Y-92386057D01*
X168488714Y-92385453D01*
X168488708Y-92385452D01*
X168210285Y-92345827D01*
X168206034Y-92345222D01*
X168201745Y-92345200D01*
X168201738Y-92345199D01*
X167920511Y-92343726D01*
X167920504Y-92343726D01*
X167916225Y-92343704D01*
X167911981Y-92344263D01*
X167911977Y-92344263D01*
X167820943Y-92356248D01*
X167628891Y-92381532D01*
X167624751Y-92382665D01*
X167624749Y-92382665D01*
X167588177Y-92392670D01*
X167349350Y-92458006D01*
X167345402Y-92459690D01*
X167086725Y-92570025D01*
X167086721Y-92570027D01*
X167082773Y-92571711D01*
X166834095Y-92720542D01*
X166830744Y-92723226D01*
X166830742Y-92723228D01*
X166754178Y-92784567D01*
X166607916Y-92901745D01*
X166501866Y-93013499D01*
X166434090Y-93084920D01*
X166408422Y-93111968D01*
X166239304Y-93347321D01*
X166103691Y-93603448D01*
X166059172Y-93725101D01*
X166006988Y-93867702D01*
X166004094Y-93875609D01*
X165942355Y-94158770D01*
X165942019Y-94163040D01*
X165921391Y-94425155D01*
X165919617Y-94447690D01*
X165936300Y-94737022D01*
X165937125Y-94741227D01*
X165937126Y-94741235D01*
X165959061Y-94853038D01*
X165992095Y-95021414D01*
X165993482Y-95025464D01*
X165993483Y-95025469D01*
X166063158Y-95228971D01*
X166085971Y-95295602D01*
X166137645Y-95398344D01*
X166213664Y-95549492D01*
X166216189Y-95554513D01*
X166218615Y-95558042D01*
X166218618Y-95558048D01*
X166255409Y-95611579D01*
X166380341Y-95793355D01*
X166383222Y-95796521D01*
X166565653Y-95997010D01*
X166575389Y-96007710D01*
X166578677Y-96010459D01*
X166794432Y-96190859D01*
X166794437Y-96190863D01*
X166797724Y-96193611D01*
X166859073Y-96232095D01*
X166907165Y-96262263D01*
X166954243Y-96315406D01*
X166965115Y-96385565D01*
X166936331Y-96450465D01*
X166877029Y-96489500D01*
X166840209Y-96495000D01*
X161545238Y-96495000D01*
X161545238Y-98470500D01*
X161525236Y-98538621D01*
X161471580Y-98585114D01*
X161419238Y-98596500D01*
X124057000Y-98596500D01*
X123988879Y-98576498D01*
X123942386Y-98522842D01*
X123931000Y-98470500D01*
X123931000Y-79329500D01*
X123951002Y-79261379D01*
X124004658Y-79214886D01*
X124057000Y-79203500D01*
X140541172Y-79203500D01*
X140609293Y-79223502D01*
G37*
%TD.AperFunction*%
%TA.AperFunction,Conductor*%
G36*
X145566621Y-85345502D02*
G01*
X145613114Y-85399158D01*
X145624500Y-85451500D01*
X145624500Y-88832133D01*
X145623206Y-88843719D01*
X145623749Y-88843763D01*
X145623029Y-88852709D01*
X145621048Y-88861465D01*
X145622038Y-88877424D01*
X145624258Y-88913204D01*
X145624500Y-88921006D01*
X145624500Y-88934912D01*
X145625136Y-88939352D01*
X145625732Y-88943515D01*
X145626762Y-88953573D01*
X145629484Y-88997439D01*
X145632533Y-89005886D01*
X145633828Y-89012137D01*
X145635755Y-89019864D01*
X145637541Y-89025972D01*
X145638814Y-89034860D01*
X145642530Y-89043032D01*
X145657007Y-89074872D01*
X145660820Y-89084239D01*
X145675744Y-89125580D01*
X145681038Y-89132826D01*
X145684019Y-89138434D01*
X145688065Y-89145358D01*
X145691487Y-89150709D01*
X145695202Y-89158879D01*
X145723902Y-89192188D01*
X145730187Y-89200104D01*
X145737077Y-89209535D01*
X145746576Y-89219034D01*
X145752934Y-89225882D01*
X145778269Y-89255285D01*
X145778273Y-89255289D01*
X145784131Y-89262087D01*
X145791661Y-89266968D01*
X145798428Y-89272871D01*
X145798395Y-89272909D01*
X145809164Y-89281622D01*
X149091459Y-92563918D01*
X149125485Y-92626230D01*
X149120420Y-92697046D01*
X149105070Y-92726002D01*
X149066635Y-92780086D01*
X149057714Y-92792639D01*
X149054805Y-92800720D01*
X149020214Y-92896798D01*
X148978319Y-92954116D01*
X148912086Y-92979685D01*
X148842544Y-92965387D01*
X148791772Y-92915761D01*
X148785443Y-92900439D01*
X148785037Y-92900615D01*
X148728567Y-92770120D01*
X148728566Y-92770118D01*
X148725155Y-92762236D01*
X148672365Y-92697046D01*
X148635674Y-92651736D01*
X148635673Y-92651735D01*
X148630266Y-92645058D01*
X148623264Y-92640082D01*
X148623262Y-92640080D01*
X148514363Y-92562690D01*
X148507361Y-92557714D01*
X148365495Y-92506639D01*
X148297572Y-92499500D01*
X147513499Y-92499500D01*
X147509253Y-92500082D01*
X147509247Y-92500082D01*
X147461382Y-92506639D01*
X147400615Y-92514963D01*
X147392731Y-92518375D01*
X147392730Y-92518375D01*
X147270120Y-92571433D01*
X147270118Y-92571434D01*
X147262236Y-92574845D01*
X147203647Y-92622289D01*
X147159078Y-92658381D01*
X147145058Y-92669734D01*
X147140082Y-92676736D01*
X147140080Y-92676738D01*
X147066635Y-92780086D01*
X147057714Y-92792639D01*
X147006639Y-92934505D01*
X147005845Y-92942061D01*
X147004149Y-92949465D01*
X147001409Y-92948837D01*
X146979385Y-93002343D01*
X146921157Y-93042963D01*
X146881101Y-93049500D01*
X146601500Y-93049500D01*
X146533379Y-93029498D01*
X146486886Y-92975842D01*
X146475500Y-92923500D01*
X146475500Y-92780086D01*
X146460584Y-92675930D01*
X146428132Y-92604557D01*
X146406150Y-92556209D01*
X146406149Y-92556207D01*
X146402435Y-92548039D01*
X146310729Y-92441609D01*
X146276243Y-92419256D01*
X146200370Y-92370077D01*
X146200368Y-92370076D01*
X146192839Y-92365196D01*
X146058240Y-92324943D01*
X146052279Y-92324500D01*
X145380086Y-92324500D01*
X145275930Y-92339416D01*
X145267760Y-92343131D01*
X145267752Y-92343133D01*
X145158803Y-92392670D01*
X145088512Y-92402658D01*
X145021122Y-92370495D01*
X145019936Y-92369398D01*
X144893437Y-92252464D01*
X144888103Y-92247533D01*
X144888101Y-92247531D01*
X144883862Y-92243613D01*
X144730883Y-92147090D01*
X144702166Y-92128971D01*
X144697286Y-92125892D01*
X144492380Y-92044143D01*
X144486720Y-92043017D01*
X144486716Y-92043016D01*
X144281676Y-92002231D01*
X144281673Y-92002231D01*
X144276009Y-92001104D01*
X144270234Y-92001028D01*
X144270230Y-92001028D01*
X144159323Y-91999576D01*
X144055418Y-91998216D01*
X144049721Y-91999195D01*
X144049720Y-91999195D01*
X143843691Y-92034597D01*
X143837994Y-92035576D01*
X143631019Y-92111933D01*
X143626058Y-92114885D01*
X143626057Y-92114885D01*
X143446393Y-92221774D01*
X143446390Y-92221776D01*
X143441425Y-92224730D01*
X143275561Y-92370189D01*
X143274392Y-92368856D01*
X143220033Y-92400416D01*
X143149109Y-92397209D01*
X143121501Y-92383773D01*
X143100372Y-92370078D01*
X143100368Y-92370076D01*
X143092839Y-92365196D01*
X142958240Y-92324943D01*
X142952279Y-92324500D01*
X142326500Y-92324500D01*
X142258379Y-92304498D01*
X142211886Y-92250842D01*
X142200500Y-92198500D01*
X142200500Y-90653492D01*
X142220502Y-90585371D01*
X142274158Y-90538878D01*
X142344432Y-90528774D01*
X142392828Y-90546364D01*
X142414641Y-90559870D01*
X142426113Y-90562014D01*
X142426114Y-90562015D01*
X142519275Y-90579430D01*
X142519277Y-90579430D01*
X142525000Y-90580500D01*
X144275000Y-90580500D01*
X144276441Y-90580433D01*
X144276458Y-90580433D01*
X144290558Y-90579781D01*
X144303188Y-90579197D01*
X144411173Y-90548472D01*
X144500767Y-90480814D01*
X144559870Y-90385359D01*
X144570741Y-90327209D01*
X144579430Y-90280725D01*
X144579430Y-90280723D01*
X144580500Y-90275000D01*
X144580500Y-89825000D01*
X144579197Y-89796812D01*
X144574600Y-89780655D01*
X144568711Y-89759957D01*
X144566046Y-89702323D01*
X144579430Y-89630727D01*
X144579431Y-89630721D01*
X144580500Y-89625000D01*
X144580500Y-89175000D01*
X144579197Y-89146812D01*
X144575940Y-89135364D01*
X144568711Y-89109957D01*
X144566046Y-89052323D01*
X144579430Y-88980727D01*
X144579431Y-88980721D01*
X144580500Y-88975000D01*
X144580500Y-88525000D01*
X144580301Y-88520679D01*
X144579533Y-88504084D01*
X144579197Y-88496812D01*
X144548472Y-88388827D01*
X144480814Y-88299233D01*
X144385359Y-88240130D01*
X144373886Y-88237985D01*
X144373885Y-88237985D01*
X144343280Y-88232264D01*
X144306961Y-88225475D01*
X144243676Y-88193296D01*
X144207834Y-88132011D01*
X144210815Y-88061077D01*
X144251672Y-88003015D01*
X144303442Y-87980090D01*
X144303188Y-87979197D01*
X144411173Y-87948472D01*
X144500767Y-87880814D01*
X144559870Y-87785359D01*
X144562091Y-87773482D01*
X144579430Y-87680725D01*
X144579430Y-87680723D01*
X144580500Y-87675000D01*
X144580500Y-87225000D01*
X144580236Y-87219273D01*
X144579579Y-87205077D01*
X144579197Y-87196812D01*
X144577204Y-87189807D01*
X144568711Y-87159957D01*
X144566046Y-87102323D01*
X144579430Y-87030727D01*
X144579431Y-87030721D01*
X144580500Y-87025000D01*
X144580500Y-86575000D01*
X144580236Y-86569275D01*
X144579533Y-86554084D01*
X144579197Y-86546812D01*
X144577204Y-86539807D01*
X144568711Y-86509957D01*
X144566046Y-86452323D01*
X144579430Y-86380727D01*
X144579431Y-86380721D01*
X144580500Y-86375000D01*
X144580500Y-85925000D01*
X144580422Y-85923299D01*
X144579533Y-85904084D01*
X144579197Y-85896812D01*
X144548472Y-85788827D01*
X144480814Y-85699233D01*
X144385359Y-85640130D01*
X144373886Y-85637985D01*
X144373885Y-85637985D01*
X144335165Y-85630747D01*
X144306961Y-85625475D01*
X144243676Y-85593296D01*
X144207834Y-85532011D01*
X144210815Y-85461077D01*
X144251672Y-85403015D01*
X144303442Y-85380090D01*
X144303188Y-85379197D01*
X144305402Y-85378567D01*
X144411173Y-85348472D01*
X144420488Y-85341438D01*
X144425966Y-85338710D01*
X144482129Y-85325500D01*
X145498500Y-85325500D01*
X145566621Y-85345502D01*
G37*
%TD.AperFunction*%
%TA.AperFunction,Conductor*%
G36*
X145168972Y-80345502D02*
G01*
X145189946Y-80362404D01*
X145292681Y-80465140D01*
X145388456Y-80560915D01*
X145388471Y-80560929D01*
X145587595Y-80760053D01*
X145621621Y-80822365D01*
X145624500Y-80849148D01*
X145624500Y-84248500D01*
X145604498Y-84316621D01*
X145550842Y-84363114D01*
X145498500Y-84374500D01*
X144706500Y-84374500D01*
X144638379Y-84354498D01*
X144591886Y-84300842D01*
X144580500Y-84248500D01*
X144580500Y-83975000D01*
X144580236Y-83969273D01*
X144579533Y-83954084D01*
X144579197Y-83946812D01*
X144548472Y-83838827D01*
X144480814Y-83749233D01*
X144385359Y-83690130D01*
X144373886Y-83687985D01*
X144373885Y-83687985D01*
X144348712Y-83683279D01*
X144306961Y-83675475D01*
X144243676Y-83643296D01*
X144207834Y-83582011D01*
X144210815Y-83511077D01*
X144251672Y-83453015D01*
X144303442Y-83430090D01*
X144303188Y-83429197D01*
X144411173Y-83398472D01*
X144500767Y-83330814D01*
X144559870Y-83235359D01*
X144577895Y-83138939D01*
X144579430Y-83130725D01*
X144579430Y-83130723D01*
X144580500Y-83125000D01*
X144580500Y-82675000D01*
X144580413Y-82673102D01*
X144579533Y-82654084D01*
X144579197Y-82646812D01*
X144576512Y-82637375D01*
X144568711Y-82609957D01*
X144566046Y-82552323D01*
X144579430Y-82480727D01*
X144579431Y-82480721D01*
X144580500Y-82475000D01*
X144580500Y-82025000D01*
X144580284Y-82020315D01*
X144579533Y-82004084D01*
X144579197Y-81996812D01*
X144573133Y-81975500D01*
X144568711Y-81959957D01*
X144566046Y-81902323D01*
X144579430Y-81830727D01*
X144579431Y-81830721D01*
X144580500Y-81825000D01*
X144580500Y-81375000D01*
X144580236Y-81369275D01*
X144579533Y-81354084D01*
X144579197Y-81346812D01*
X144548472Y-81238827D01*
X144480814Y-81149233D01*
X144385359Y-81090130D01*
X144373887Y-81087986D01*
X144373886Y-81087985D01*
X144280725Y-81070570D01*
X144280723Y-81070570D01*
X144275000Y-81069500D01*
X142939004Y-81069500D01*
X142870883Y-81049498D01*
X142835164Y-81014868D01*
X142834223Y-81013499D01*
X142779203Y-80933444D01*
X142652638Y-80820679D01*
X142638551Y-80813220D01*
X142509543Y-80744914D01*
X142509544Y-80744914D01*
X142502829Y-80741359D01*
X142338423Y-80700063D01*
X142330825Y-80700023D01*
X142330823Y-80700023D01*
X142257792Y-80699641D01*
X142168912Y-80699176D01*
X142161533Y-80700948D01*
X142161529Y-80700948D01*
X142011461Y-80736976D01*
X142011457Y-80736977D01*
X142004082Y-80738748D01*
X141853450Y-80816495D01*
X141725711Y-80927928D01*
X141711016Y-80948837D01*
X141640269Y-81049500D01*
X141628240Y-81066615D01*
X141566665Y-81224549D01*
X141565674Y-81232078D01*
X141546091Y-81380827D01*
X141544539Y-81392612D01*
X141563140Y-81561102D01*
X141565750Y-81568233D01*
X141614974Y-81702743D01*
X141621395Y-81720290D01*
X141715940Y-81860988D01*
X141721556Y-81866098D01*
X141726235Y-81871519D01*
X141755606Y-81936155D01*
X141745369Y-82006410D01*
X141719950Y-82042947D01*
X141304639Y-82458257D01*
X140905109Y-82857787D01*
X140894020Y-82867641D01*
X140867955Y-82888189D01*
X140862601Y-82895936D01*
X140834597Y-82936454D01*
X140832324Y-82939635D01*
X140797445Y-82986858D01*
X140795054Y-82993668D01*
X140790948Y-82999608D01*
X140788107Y-83008591D01*
X140773256Y-83055547D01*
X140772004Y-83059299D01*
X140762248Y-83087082D01*
X140752568Y-83114648D01*
X140752286Y-83121837D01*
X140752275Y-83121894D01*
X140750108Y-83128744D01*
X140749500Y-83136469D01*
X140749500Y-83190262D01*
X140749403Y-83195208D01*
X140747251Y-83249984D01*
X140749079Y-83256879D01*
X140749500Y-83264527D01*
X140749500Y-84931206D01*
X140729498Y-84999327D01*
X140712595Y-85020301D01*
X138585301Y-87147595D01*
X138522989Y-87181621D01*
X138496206Y-87184500D01*
X137978239Y-87184500D01*
X137910118Y-87164498D01*
X137885719Y-87144033D01*
X137872298Y-87129514D01*
X137755181Y-87061487D01*
X137638752Y-87034500D01*
X136529242Y-87034500D01*
X136524595Y-87035199D01*
X136524590Y-87035199D01*
X136437876Y-87048236D01*
X136437875Y-87048236D01*
X136428565Y-87049636D01*
X136306471Y-87108265D01*
X136299557Y-87114657D01*
X136299556Y-87114657D01*
X136276004Y-87136428D01*
X136207014Y-87200202D01*
X136202285Y-87208344D01*
X136202284Y-87208345D01*
X136202106Y-87208652D01*
X136138987Y-87317319D01*
X136112000Y-87433748D01*
X136112000Y-87818258D01*
X136112699Y-87822905D01*
X136112699Y-87822910D01*
X136125655Y-87909083D01*
X136127136Y-87918935D01*
X136185765Y-88041029D01*
X136192157Y-88047943D01*
X136192157Y-88047944D01*
X136211698Y-88069083D01*
X136277702Y-88140486D01*
X136285844Y-88145215D01*
X136285845Y-88145216D01*
X136293171Y-88149471D01*
X136394819Y-88208513D01*
X136511248Y-88235500D01*
X137620758Y-88235500D01*
X137625405Y-88234801D01*
X137625410Y-88234801D01*
X137712124Y-88221764D01*
X137712125Y-88221764D01*
X137721435Y-88220364D01*
X137826884Y-88169728D01*
X137835039Y-88165812D01*
X137835040Y-88165812D01*
X137843529Y-88161735D01*
X137850445Y-88155342D01*
X137850448Y-88155340D01*
X137889788Y-88118975D01*
X137953388Y-88087423D01*
X137975316Y-88085500D01*
X138701530Y-88085500D01*
X138716339Y-88086373D01*
X138749308Y-88090275D01*
X138758573Y-88088583D01*
X138758574Y-88088583D01*
X138807002Y-88079739D01*
X138810904Y-88079089D01*
X138833222Y-88075733D01*
X138868935Y-88070364D01*
X138875443Y-88067239D01*
X138882545Y-88065942D01*
X138934594Y-88038905D01*
X138938131Y-88037138D01*
X138982536Y-88015814D01*
X138982539Y-88015812D01*
X138991029Y-88011735D01*
X138996305Y-88006858D01*
X138996370Y-88006814D01*
X139002736Y-88003507D01*
X139008628Y-87998475D01*
X139046648Y-87960455D01*
X139050214Y-87957025D01*
X139083568Y-87926193D01*
X139090486Y-87919798D01*
X139094069Y-87913629D01*
X139099186Y-87907917D01*
X139609405Y-87397698D01*
X139671717Y-87363672D01*
X139742532Y-87368737D01*
X139799368Y-87411284D01*
X139824179Y-87477804D01*
X139824500Y-87486793D01*
X139824500Y-88625852D01*
X139804498Y-88693973D01*
X139787595Y-88714947D01*
X139208939Y-89293603D01*
X139146627Y-89327629D01*
X139075812Y-89322564D01*
X139018976Y-89280017D01*
X138994165Y-89213497D01*
X138995101Y-89186755D01*
X139004764Y-89118859D01*
X139004764Y-89118856D01*
X139005345Y-89114775D01*
X139005500Y-89100000D01*
X138995295Y-89015671D01*
X138986048Y-88939258D01*
X138986048Y-88939257D01*
X138985135Y-88931715D01*
X138982427Y-88924549D01*
X138927902Y-88780250D01*
X138927901Y-88780248D01*
X138925217Y-88773145D01*
X138920918Y-88766890D01*
X138920916Y-88766886D01*
X138833505Y-88639703D01*
X138833504Y-88639701D01*
X138829203Y-88633444D01*
X138702638Y-88520679D01*
X138552829Y-88441359D01*
X138388423Y-88400063D01*
X138380825Y-88400023D01*
X138380823Y-88400023D01*
X138307792Y-88399641D01*
X138218912Y-88399176D01*
X138211533Y-88400948D01*
X138211529Y-88400948D01*
X138061461Y-88436976D01*
X138061457Y-88436977D01*
X138054082Y-88438748D01*
X137903450Y-88516495D01*
X137897728Y-88521487D01*
X137897726Y-88521488D01*
X137826490Y-88583631D01*
X137775711Y-88627928D01*
X137678240Y-88766615D01*
X137646362Y-88848381D01*
X137644066Y-88854269D01*
X137600686Y-88910471D01*
X137526673Y-88934500D01*
X136529242Y-88934500D01*
X136524595Y-88935199D01*
X136524590Y-88935199D01*
X136428565Y-88949636D01*
X136427989Y-88945804D01*
X136375477Y-88946406D01*
X136315315Y-88908710D01*
X136285083Y-88844471D01*
X136283829Y-88832916D01*
X136283092Y-88821045D01*
X136282536Y-88812081D01*
X136279486Y-88803633D01*
X136278191Y-88797379D01*
X136276263Y-88789648D01*
X136274479Y-88783546D01*
X136273206Y-88774660D01*
X136255018Y-88734659D01*
X136251203Y-88725288D01*
X136240847Y-88696601D01*
X136236277Y-88683940D01*
X136230982Y-88676693D01*
X136228011Y-88671104D01*
X136223958Y-88664168D01*
X136220534Y-88658814D01*
X136216818Y-88650641D01*
X136188133Y-88617351D01*
X136181841Y-88609426D01*
X136177823Y-88603926D01*
X136177822Y-88603925D01*
X136174944Y-88599985D01*
X136165438Y-88590479D01*
X136159080Y-88583631D01*
X136133753Y-88554237D01*
X136133748Y-88554232D01*
X136127889Y-88547433D01*
X136120355Y-88542550D01*
X136113593Y-88536651D01*
X136113627Y-88536612D01*
X136102861Y-88527902D01*
X135871721Y-88296762D01*
X135864441Y-88287652D01*
X135864026Y-88288005D01*
X135858210Y-88281171D01*
X135853419Y-88273578D01*
X135814553Y-88239253D01*
X135808866Y-88233907D01*
X135799043Y-88224084D01*
X135793751Y-88220118D01*
X135792093Y-88218875D01*
X135784253Y-88212493D01*
X135758034Y-88189338D01*
X135751305Y-88183395D01*
X135743180Y-88179580D01*
X135742272Y-88178984D01*
X135696318Y-88124866D01*
X135686917Y-88054494D01*
X135702495Y-88010387D01*
X135719854Y-87980500D01*
X135736013Y-87952681D01*
X135763000Y-87836252D01*
X135763000Y-87451742D01*
X135756918Y-87411284D01*
X135749264Y-87360376D01*
X135749264Y-87360375D01*
X135747864Y-87351065D01*
X135695501Y-87242020D01*
X135693312Y-87237461D01*
X135693312Y-87237460D01*
X135689235Y-87228971D01*
X135672970Y-87211375D01*
X135613437Y-87146973D01*
X135597298Y-87129514D01*
X135589152Y-87124782D01*
X135549068Y-87101500D01*
X135480181Y-87061487D01*
X135363752Y-87034500D01*
X134254242Y-87034500D01*
X134249595Y-87035199D01*
X134249590Y-87035199D01*
X134162876Y-87048236D01*
X134162875Y-87048236D01*
X134153565Y-87049636D01*
X134104173Y-87073354D01*
X134039964Y-87104186D01*
X134039960Y-87104188D01*
X134031471Y-87108265D01*
X133967414Y-87167479D01*
X133917188Y-87191573D01*
X133918385Y-87195465D01*
X133909380Y-87198236D01*
X133900065Y-87199636D01*
X133893557Y-87202761D01*
X133886455Y-87204058D01*
X133846140Y-87225000D01*
X133834406Y-87231095D01*
X133830869Y-87232862D01*
X133786464Y-87254186D01*
X133786461Y-87254188D01*
X133777971Y-87258265D01*
X133772695Y-87263142D01*
X133772630Y-87263186D01*
X133766264Y-87266493D01*
X133760372Y-87271525D01*
X133722351Y-87309546D01*
X133718786Y-87312975D01*
X133678514Y-87350202D01*
X133674931Y-87356371D01*
X133669818Y-87362079D01*
X133326931Y-87704965D01*
X132819300Y-88212596D01*
X132756988Y-88246621D01*
X132730205Y-88249500D01*
X131438793Y-88249500D01*
X131370672Y-88229498D01*
X131349698Y-88212595D01*
X131325454Y-88188351D01*
X131322024Y-88184785D01*
X131291192Y-88151431D01*
X131284798Y-88144514D01*
X131278629Y-88140931D01*
X131272921Y-88135818D01*
X130982214Y-87845110D01*
X130972360Y-87834021D01*
X130966887Y-87827079D01*
X130951811Y-87807955D01*
X130944067Y-87802602D01*
X130944065Y-87802601D01*
X130904861Y-87775506D01*
X130860195Y-87720321D01*
X130850500Y-87671853D01*
X130850500Y-87500000D01*
X130850084Y-87490988D01*
X130849533Y-87479084D01*
X130849197Y-87471812D01*
X130844826Y-87456449D01*
X130838711Y-87434957D01*
X130836046Y-87377323D01*
X130849430Y-87305727D01*
X130849431Y-87305721D01*
X130850500Y-87300000D01*
X130850500Y-87101500D01*
X130870502Y-87033379D01*
X130924158Y-86986886D01*
X130976500Y-86975500D01*
X131533912Y-86975500D01*
X131615796Y-86963773D01*
X131633659Y-86962500D01*
X131656142Y-86962500D01*
X131724263Y-86982502D01*
X131740941Y-86995306D01*
X131758137Y-87010953D01*
X131814317Y-87062073D01*
X131861848Y-87087880D01*
X131929814Y-87124782D01*
X131963288Y-87142957D01*
X132127253Y-87185973D01*
X132215481Y-87187359D01*
X132289147Y-87188516D01*
X132289150Y-87188516D01*
X132296745Y-87188635D01*
X132355841Y-87175100D01*
X132454577Y-87152487D01*
X132454581Y-87152486D01*
X132461980Y-87150791D01*
X132613418Y-87074626D01*
X132694133Y-87005689D01*
X132758922Y-86976658D01*
X132775963Y-86975500D01*
X132784912Y-86975500D01*
X132793515Y-86974268D01*
X132803573Y-86973238D01*
X132847439Y-86970516D01*
X132855886Y-86967467D01*
X132862137Y-86966172D01*
X132869864Y-86964245D01*
X132875972Y-86962459D01*
X132884860Y-86961186D01*
X132924876Y-86942991D01*
X132934239Y-86939180D01*
X132953020Y-86932400D01*
X132975580Y-86924256D01*
X132982826Y-86918962D01*
X132988434Y-86915981D01*
X132995358Y-86911935D01*
X133000709Y-86908513D01*
X133008879Y-86904798D01*
X133042188Y-86876098D01*
X133050104Y-86869813D01*
X133055604Y-86865795D01*
X133055605Y-86865794D01*
X133059535Y-86862923D01*
X133069034Y-86853424D01*
X133075882Y-86847066D01*
X133105285Y-86821731D01*
X133105289Y-86821727D01*
X133112087Y-86815869D01*
X133116968Y-86808339D01*
X133122871Y-86801572D01*
X133122909Y-86801605D01*
X133131622Y-86790836D01*
X134193238Y-85729221D01*
X134202348Y-85721941D01*
X134201995Y-85721526D01*
X134208829Y-85715710D01*
X134216422Y-85710919D01*
X134225589Y-85700540D01*
X134250746Y-85672054D01*
X134256093Y-85666366D01*
X134265916Y-85656543D01*
X134271125Y-85649593D01*
X134277507Y-85641753D01*
X134300664Y-85615532D01*
X134306605Y-85608805D01*
X134310419Y-85600681D01*
X134313909Y-85595368D01*
X134318033Y-85588504D01*
X134321085Y-85582930D01*
X134326468Y-85575747D01*
X134341894Y-85534598D01*
X134345821Y-85525278D01*
X134360688Y-85493612D01*
X134364504Y-85485485D01*
X134365885Y-85476614D01*
X134367746Y-85470528D01*
X134369778Y-85462783D01*
X134371141Y-85456582D01*
X134374291Y-85448180D01*
X134377551Y-85404317D01*
X134378702Y-85394297D01*
X134379752Y-85387555D01*
X134380500Y-85382751D01*
X134380500Y-85369303D01*
X134380847Y-85359965D01*
X134383723Y-85321270D01*
X134383723Y-85321268D01*
X134384388Y-85312319D01*
X134382515Y-85303545D01*
X134381904Y-85294581D01*
X134381954Y-85294578D01*
X134380500Y-85280805D01*
X134380500Y-82610211D01*
X134400502Y-82542090D01*
X134454158Y-82495597D01*
X134475364Y-82489449D01*
X134475102Y-82488512D01*
X134483372Y-82486203D01*
X134491885Y-82485037D01*
X134515079Y-82475000D01*
X134622380Y-82428567D01*
X134622382Y-82428566D01*
X134630264Y-82425155D01*
X134688853Y-82377711D01*
X134740764Y-82335674D01*
X134740765Y-82335673D01*
X134747442Y-82330266D01*
X134752418Y-82323264D01*
X134752420Y-82323262D01*
X134829810Y-82214363D01*
X134834786Y-82207361D01*
X134885861Y-82065495D01*
X134887253Y-82065996D01*
X134917826Y-82011435D01*
X134980507Y-81978094D01*
X135005941Y-81975500D01*
X135650073Y-81975500D01*
X135718194Y-81995502D01*
X135748351Y-82026474D01*
X135749845Y-82025264D01*
X135810010Y-82099561D01*
X135844734Y-82142442D01*
X135851736Y-82147418D01*
X135851738Y-82147420D01*
X135936084Y-82207361D01*
X135967639Y-82229786D01*
X136109505Y-82280861D01*
X136177428Y-82288000D01*
X137211501Y-82288000D01*
X137215747Y-82287418D01*
X137215753Y-82287418D01*
X137282408Y-82278287D01*
X137324385Y-82272537D01*
X137332270Y-82269125D01*
X137454880Y-82216067D01*
X137454882Y-82216066D01*
X137462764Y-82212655D01*
X137521353Y-82165210D01*
X137573264Y-82123174D01*
X137573265Y-82123173D01*
X137579942Y-82117766D01*
X137584918Y-82110764D01*
X137584920Y-82110762D01*
X137643372Y-82028511D01*
X137699137Y-81984570D01*
X137746078Y-81975500D01*
X138250073Y-81975500D01*
X138318194Y-81995502D01*
X138348351Y-82026474D01*
X138349845Y-82025264D01*
X138410010Y-82099561D01*
X138444734Y-82142442D01*
X138451736Y-82147418D01*
X138451738Y-82147420D01*
X138536084Y-82207361D01*
X138567639Y-82229786D01*
X138709505Y-82280861D01*
X138777428Y-82288000D01*
X139811501Y-82288000D01*
X139815747Y-82287418D01*
X139815753Y-82287418D01*
X139882408Y-82278287D01*
X139924385Y-82272537D01*
X139932270Y-82269125D01*
X140054880Y-82216067D01*
X140054882Y-82216066D01*
X140062764Y-82212655D01*
X140121353Y-82165210D01*
X140173264Y-82123174D01*
X140173265Y-82123173D01*
X140179942Y-82117766D01*
X140184918Y-82110764D01*
X140184920Y-82110762D01*
X140262310Y-82001863D01*
X140267286Y-81994861D01*
X140318361Y-81852995D01*
X140325500Y-81785072D01*
X140325500Y-81099149D01*
X140345502Y-81031028D01*
X140362405Y-81010053D01*
X141010055Y-80362404D01*
X141072367Y-80328379D01*
X141099150Y-80325500D01*
X145100851Y-80325500D01*
X145168972Y-80345502D01*
G37*
%TD.AperFunction*%
%TA.AperFunction,Conductor*%
G36*
X142392828Y-87946364D02*
G01*
X142414641Y-87959870D01*
X142426114Y-87962015D01*
X142426115Y-87962015D01*
X142427934Y-87962355D01*
X142493039Y-87974525D01*
X142556324Y-88006704D01*
X142592166Y-88067989D01*
X142589185Y-88138923D01*
X142548328Y-88196985D01*
X142496558Y-88219910D01*
X142496812Y-88220803D01*
X142466253Y-88229498D01*
X142400058Y-88248332D01*
X142400056Y-88248333D01*
X142388827Y-88251528D01*
X142381257Y-88257245D01*
X142312768Y-88269452D01*
X142247233Y-88242145D01*
X142206864Y-88183742D01*
X142200500Y-88144203D01*
X142200500Y-88053492D01*
X142220502Y-87985371D01*
X142274158Y-87938878D01*
X142344432Y-87928774D01*
X142392828Y-87946364D01*
G37*
%TD.AperFunction*%
%TD*%
%TA.AperFunction,NonConductor*%
G36*
X146952773Y-93970502D02*
G01*
X146999266Y-94024158D01*
X147009486Y-94059401D01*
X147014963Y-94099385D01*
X147018375Y-94107269D01*
X147018375Y-94107270D01*
X147069042Y-94224353D01*
X147074845Y-94237764D01*
X147169734Y-94354942D01*
X147176736Y-94359918D01*
X147176738Y-94359920D01*
X147260928Y-94419750D01*
X147292639Y-94442286D01*
X147434505Y-94493361D01*
X147502428Y-94500500D01*
X148286501Y-94500500D01*
X148290747Y-94499918D01*
X148290753Y-94499918D01*
X148364913Y-94489759D01*
X148399385Y-94485037D01*
X148428391Y-94472485D01*
X148529880Y-94428567D01*
X148529882Y-94428566D01*
X148537764Y-94425155D01*
X148617757Y-94360378D01*
X148648264Y-94335674D01*
X148648265Y-94335673D01*
X148654942Y-94330266D01*
X148659918Y-94323264D01*
X148659920Y-94323262D01*
X148737310Y-94214363D01*
X148742286Y-94207361D01*
X148779786Y-94103202D01*
X148821681Y-94045884D01*
X148887914Y-94020315D01*
X148957456Y-94034613D01*
X149008228Y-94084239D01*
X149014557Y-94099561D01*
X149014963Y-94099385D01*
X149069042Y-94224353D01*
X149074845Y-94237764D01*
X149169734Y-94354942D01*
X149176736Y-94359918D01*
X149176738Y-94359920D01*
X149260928Y-94419750D01*
X149292639Y-94442286D01*
X149341182Y-94459762D01*
X149398499Y-94501656D01*
X149424068Y-94567889D01*
X149424500Y-94578313D01*
X149424500Y-95321860D01*
X149404498Y-95389981D01*
X149348541Y-95437497D01*
X149270120Y-95471433D01*
X149270118Y-95471434D01*
X149262236Y-95474845D01*
X149227890Y-95502658D01*
X149167284Y-95551736D01*
X149145058Y-95569734D01*
X149140082Y-95576736D01*
X149140080Y-95576738D01*
X149084066Y-95655558D01*
X149057714Y-95692639D01*
X149054805Y-95700720D01*
X149020214Y-95796798D01*
X148978319Y-95854116D01*
X148912086Y-95879685D01*
X148842544Y-95865387D01*
X148791772Y-95815761D01*
X148785443Y-95800439D01*
X148785037Y-95800615D01*
X148728567Y-95670120D01*
X148728566Y-95670118D01*
X148725155Y-95662236D01*
X148637923Y-95554513D01*
X148635674Y-95551736D01*
X148635673Y-95551735D01*
X148630266Y-95545058D01*
X148623264Y-95540082D01*
X148623262Y-95540080D01*
X148514363Y-95462690D01*
X148507361Y-95457714D01*
X148365495Y-95406639D01*
X148297572Y-95399500D01*
X147513499Y-95399500D01*
X147509253Y-95400082D01*
X147509247Y-95400082D01*
X147461382Y-95406639D01*
X147400615Y-95414963D01*
X147392731Y-95418375D01*
X147392730Y-95418375D01*
X147270120Y-95471433D01*
X147270118Y-95471434D01*
X147262236Y-95474845D01*
X147227890Y-95502658D01*
X147167284Y-95551736D01*
X147145058Y-95569734D01*
X147140082Y-95576736D01*
X147140080Y-95576738D01*
X147084066Y-95655558D01*
X147057714Y-95692639D01*
X147006639Y-95834505D01*
X147005845Y-95842061D01*
X147004149Y-95849465D01*
X147001409Y-95848837D01*
X146979385Y-95902343D01*
X146921157Y-95942963D01*
X146881101Y-95949500D01*
X146594681Y-95949500D01*
X146526560Y-95929498D01*
X146480067Y-95875842D01*
X146469955Y-95841369D01*
X146460584Y-95775930D01*
X146419530Y-95685637D01*
X146406150Y-95656209D01*
X146406149Y-95656207D01*
X146402435Y-95648039D01*
X146310729Y-95541609D01*
X146303194Y-95536725D01*
X146200370Y-95470077D01*
X146200368Y-95470076D01*
X146192839Y-95465196D01*
X146058240Y-95424943D01*
X146052279Y-95424500D01*
X145380086Y-95424500D01*
X145275930Y-95439416D01*
X145267760Y-95443131D01*
X145267752Y-95443133D01*
X145158803Y-95492670D01*
X145088512Y-95502658D01*
X145021122Y-95470495D01*
X145012609Y-95462625D01*
X144883862Y-95343613D01*
X144878979Y-95340532D01*
X144702166Y-95228971D01*
X144697286Y-95225892D01*
X144691926Y-95223754D01*
X144691923Y-95223752D01*
X144548615Y-95166578D01*
X144492755Y-95122757D01*
X144469455Y-95055693D01*
X144486111Y-94986678D01*
X144537435Y-94937623D01*
X144551695Y-94931336D01*
X144663562Y-94890067D01*
X144663570Y-94890063D01*
X144668981Y-94888067D01*
X144707071Y-94865406D01*
X144853607Y-94778226D01*
X144853610Y-94778224D01*
X144858575Y-94775270D01*
X145024439Y-94629811D01*
X145025608Y-94631144D01*
X145079967Y-94599584D01*
X145150891Y-94602791D01*
X145178499Y-94616227D01*
X145199628Y-94629922D01*
X145199632Y-94629924D01*
X145207161Y-94634804D01*
X145341760Y-94675057D01*
X145347721Y-94675500D01*
X146019914Y-94675500D01*
X146124070Y-94660584D01*
X146195443Y-94628132D01*
X146243791Y-94606150D01*
X146243793Y-94606149D01*
X146251961Y-94602435D01*
X146358391Y-94510729D01*
X146369134Y-94494155D01*
X146429923Y-94400370D01*
X146429924Y-94400368D01*
X146434804Y-94392839D01*
X146475057Y-94258240D01*
X146475500Y-94252279D01*
X146475500Y-94076500D01*
X146495502Y-94008379D01*
X146549158Y-93961886D01*
X146601500Y-93950500D01*
X146884652Y-93950500D01*
X146952773Y-93970502D01*
G37*
%TD.AperFunction*%
M02*
