%FSLAX45Y45*%
G04 Gerber Fmt 4.5, Leading zero omitted, Abs format (unit mm)*
G04 Created by KiCad (PCBNEW 5.99.0-unknown-4920692bcd~125~ubuntu20.04.1) date 2021-04-18 13:08:12*
%MOMM*%
%LPD*%
G01*
G04 APERTURE LIST*
%TA.AperFunction,Profile*%
%ADD10C,0.100000*%
%TD*%
%ADD11C,0.200000*%
%ADD12C,0.040000*%
%ADD13C,0.060000*%
%ADD14C,0.090000*%
G04 APERTURE END LIST*
D10*
X12363100Y-7890350D02*
X17363700Y-7890350D01*
X17363700Y-7890350D02*
X17363700Y-9889650D01*
X17363700Y-9889650D02*
X12363100Y-9889650D01*
X12363100Y-9889650D02*
X12363100Y-7890350D01*
D11*
D12*
X13110000Y-9060000D02*
X13150000Y-9100000D01*
X13150000Y-9060000D02*
X13110000Y-9100000D01*
X13200000Y-8760000D02*
X13240000Y-8800000D01*
X13240000Y-8760000D02*
X13200000Y-8800000D01*
X13202300Y-8628700D02*
X13242300Y-8668700D01*
X13242300Y-8628700D02*
X13202300Y-8668700D01*
X13810000Y-8890000D02*
X13850000Y-8930000D01*
X13850000Y-8890000D02*
X13810000Y-8930000D01*
X13810000Y-9060000D02*
X13850000Y-9100000D01*
X13850000Y-9060000D02*
X13810000Y-9100000D01*
X14205000Y-8120000D02*
X14245000Y-8160000D01*
X14245000Y-8120000D02*
X14205000Y-8160000D01*
X14270000Y-9160000D02*
X14310000Y-9200000D01*
X14310000Y-9160000D02*
X14270000Y-9200000D01*
X14480000Y-8110000D02*
X14520000Y-8150000D01*
X14520000Y-8110000D02*
X14480000Y-8150000D01*
X14690000Y-8110000D02*
X14730000Y-8150000D01*
X14730000Y-8110000D02*
X14690000Y-8150000D01*
X15930000Y-9350000D02*
X15970000Y-9390000D01*
X15970000Y-9350000D02*
X15930000Y-9390000D01*
D13*
X12551500Y-8458000D02*
G75*
G03*
X12551500Y-8458000I-30000J0D01*
G01*
D11*
X12466500Y-8478000D02*
X12576500Y-8478000D01*
X12466500Y-8438000D02*
X12576500Y-8438000D01*
X12576500Y-8478000D02*
G75*
G03*
X12576500Y-8438000I0J20000D01*
G01*
X12466500Y-8438000D02*
G75*
G03*
X12466500Y-8478000I0J-20000D01*
G01*
D13*
X12551500Y-9322000D02*
G75*
G03*
X12551500Y-9322000I-30000J0D01*
G01*
D11*
X12466500Y-9342000D02*
X12576500Y-9342000D01*
X12466500Y-9302000D02*
X12576500Y-9302000D01*
X12576500Y-9342000D02*
G75*
G03*
X12576500Y-9302000I0J20000D01*
G01*
X12466500Y-9302000D02*
G75*
G03*
X12466500Y-9342000I0J-20000D01*
G01*
D13*
X12968500Y-8458000D02*
G75*
G03*
X12968500Y-8458000I-30000J0D01*
G01*
D11*
X12878500Y-8478000D02*
X12998500Y-8478000D01*
X12878500Y-8438000D02*
X12998500Y-8438000D01*
X12998500Y-8478000D02*
G75*
G03*
X12998500Y-8438000I0J20000D01*
G01*
X12878500Y-8438000D02*
G75*
G03*
X12878500Y-8478000I0J-20000D01*
G01*
D13*
X12968500Y-9322000D02*
G75*
G03*
X12968500Y-9322000I-30000J0D01*
G01*
D11*
X12878500Y-9342000D02*
X12998500Y-9342000D01*
X12878500Y-9302000D02*
X12998500Y-9302000D01*
X12998500Y-9342000D02*
G75*
G03*
X12998500Y-9302000I0J20000D01*
G01*
X12878500Y-9302000D02*
G75*
G03*
X12878500Y-9342000I0J-20000D01*
G01*
D14*
X15916000Y-8386000D02*
X15916000Y-8476000D01*
X15871000Y-8431000D02*
X15961000Y-8431000D01*
X15916000Y-8640000D02*
X15916000Y-8730000D01*
X15871000Y-8685000D02*
X15961000Y-8685000D01*
X15916000Y-8894000D02*
X15916000Y-8984000D01*
X15871000Y-8939000D02*
X15961000Y-8939000D01*
X15916000Y-9148000D02*
X15916000Y-9238000D01*
X15871000Y-9193000D02*
X15961000Y-9193000D01*
X16170000Y-8513000D02*
X16170000Y-8603000D01*
X16125000Y-8558000D02*
X16215000Y-8558000D01*
X16170000Y-8767000D02*
X16170000Y-8857000D01*
X16125000Y-8812000D02*
X16215000Y-8812000D01*
X16170000Y-9021000D02*
X16170000Y-9111000D01*
X16125000Y-9066000D02*
X16215000Y-9066000D01*
X16170000Y-9275000D02*
X16170000Y-9365000D01*
X16125000Y-9320000D02*
X16215000Y-9320000D01*
D11*
X12615719Y-10205126D02*
X12615719Y-10005126D01*
X12663338Y-10005126D01*
X12691909Y-10014650D01*
X12710957Y-10033698D01*
X12720481Y-10052745D01*
X12730005Y-10090840D01*
X12730005Y-10119412D01*
X12720481Y-10157507D01*
X12710957Y-10176555D01*
X12691909Y-10195602D01*
X12663338Y-10205126D01*
X12615719Y-10205126D01*
X12815719Y-10205126D02*
X12815719Y-10071793D01*
X12815719Y-10109888D02*
X12825243Y-10090840D01*
X12834767Y-10081317D01*
X12853814Y-10071793D01*
X12872862Y-10071793D01*
X12939528Y-10205126D02*
X12939528Y-10071793D01*
X12939528Y-10005126D02*
X12930005Y-10014650D01*
X12939528Y-10024174D01*
X12949052Y-10014650D01*
X12939528Y-10005126D01*
X12939528Y-10024174D01*
X13063338Y-10205126D02*
X13044290Y-10195602D01*
X13034767Y-10176555D01*
X13034767Y-10005126D01*
X13168100Y-10205126D02*
X13149052Y-10195602D01*
X13139528Y-10176555D01*
X13139528Y-10005126D01*
X13396671Y-10205126D02*
X13396671Y-10005126D01*
X13463338Y-10147983D01*
X13530005Y-10005126D01*
X13530005Y-10205126D01*
X13710957Y-10205126D02*
X13710957Y-10100364D01*
X13701433Y-10081317D01*
X13682386Y-10071793D01*
X13644290Y-10071793D01*
X13625243Y-10081317D01*
X13710957Y-10195602D02*
X13691909Y-10205126D01*
X13644290Y-10205126D01*
X13625243Y-10195602D01*
X13615719Y-10176555D01*
X13615719Y-10157507D01*
X13625243Y-10138460D01*
X13644290Y-10128936D01*
X13691909Y-10128936D01*
X13710957Y-10119412D01*
X13806195Y-10071793D02*
X13806195Y-10271793D01*
X13806195Y-10081317D02*
X13825243Y-10071793D01*
X13863338Y-10071793D01*
X13882386Y-10081317D01*
X13891909Y-10090840D01*
X13901433Y-10109888D01*
X13901433Y-10167031D01*
X13891909Y-10186079D01*
X13882386Y-10195602D01*
X13863338Y-10205126D01*
X13825243Y-10205126D01*
X13806195Y-10195602D01*
X13987148Y-10186079D02*
X13996671Y-10195602D01*
X13987148Y-10205126D01*
X13977624Y-10195602D01*
X13987148Y-10186079D01*
X13987148Y-10205126D01*
X13987148Y-10081317D02*
X13996671Y-10090840D01*
X13987148Y-10100364D01*
X13977624Y-10090840D01*
X13987148Y-10081317D01*
X13987148Y-10100364D01*
D12*
X12318100Y-10514650D02*
X12358100Y-10554650D01*
X12358100Y-10514650D02*
X12318100Y-10554650D01*
D11*
X12653814Y-10425126D02*
X12672862Y-10425126D01*
X12691909Y-10434650D01*
X12701433Y-10444174D01*
X12710957Y-10463221D01*
X12720481Y-10501317D01*
X12720481Y-10548936D01*
X12710957Y-10587031D01*
X12701433Y-10606079D01*
X12691909Y-10615602D01*
X12672862Y-10625126D01*
X12653814Y-10625126D01*
X12634767Y-10615602D01*
X12625243Y-10606079D01*
X12615719Y-10587031D01*
X12606195Y-10548936D01*
X12606195Y-10501317D01*
X12615719Y-10463221D01*
X12625243Y-10444174D01*
X12634767Y-10434650D01*
X12653814Y-10425126D01*
X12806195Y-10606079D02*
X12815719Y-10615602D01*
X12806195Y-10625126D01*
X12796671Y-10615602D01*
X12806195Y-10606079D01*
X12806195Y-10625126D01*
X12987148Y-10491793D02*
X12987148Y-10625126D01*
X12939528Y-10415602D02*
X12891909Y-10558460D01*
X13015719Y-10558460D01*
X13130005Y-10425126D02*
X13149052Y-10425126D01*
X13168100Y-10434650D01*
X13177624Y-10444174D01*
X13187148Y-10463221D01*
X13196671Y-10501317D01*
X13196671Y-10548936D01*
X13187148Y-10587031D01*
X13177624Y-10606079D01*
X13168100Y-10615602D01*
X13149052Y-10625126D01*
X13130005Y-10625126D01*
X13110957Y-10615602D01*
X13101433Y-10606079D01*
X13091909Y-10587031D01*
X13082386Y-10548936D01*
X13082386Y-10501317D01*
X13091909Y-10463221D01*
X13101433Y-10444174D01*
X13110957Y-10434650D01*
X13130005Y-10425126D01*
X13320481Y-10425126D02*
X13339528Y-10425126D01*
X13358576Y-10434650D01*
X13368100Y-10444174D01*
X13377624Y-10463221D01*
X13387148Y-10501317D01*
X13387148Y-10548936D01*
X13377624Y-10587031D01*
X13368100Y-10606079D01*
X13358576Y-10615602D01*
X13339528Y-10625126D01*
X13320481Y-10625126D01*
X13301433Y-10615602D01*
X13291909Y-10606079D01*
X13282386Y-10587031D01*
X13272862Y-10548936D01*
X13272862Y-10501317D01*
X13282386Y-10463221D01*
X13291909Y-10444174D01*
X13301433Y-10434650D01*
X13320481Y-10425126D01*
X13472862Y-10625126D02*
X13472862Y-10491793D01*
X13472862Y-10510840D02*
X13482386Y-10501317D01*
X13501433Y-10491793D01*
X13530005Y-10491793D01*
X13549052Y-10501317D01*
X13558576Y-10520364D01*
X13558576Y-10625126D01*
X13558576Y-10520364D02*
X13568100Y-10501317D01*
X13587148Y-10491793D01*
X13615719Y-10491793D01*
X13634767Y-10501317D01*
X13644290Y-10520364D01*
X13644290Y-10625126D01*
X13739528Y-10625126D02*
X13739528Y-10491793D01*
X13739528Y-10510840D02*
X13749052Y-10501317D01*
X13768100Y-10491793D01*
X13796671Y-10491793D01*
X13815719Y-10501317D01*
X13825243Y-10520364D01*
X13825243Y-10625126D01*
X13825243Y-10520364D02*
X13834767Y-10501317D01*
X13853814Y-10491793D01*
X13882386Y-10491793D01*
X13901433Y-10501317D01*
X13910957Y-10520364D01*
X13910957Y-10625126D01*
X14301433Y-10415602D02*
X14130005Y-10672745D01*
X14558576Y-10425126D02*
X14577624Y-10425126D01*
X14596671Y-10434650D01*
X14606195Y-10444174D01*
X14615719Y-10463221D01*
X14625243Y-10501317D01*
X14625243Y-10548936D01*
X14615719Y-10587031D01*
X14606195Y-10606079D01*
X14596671Y-10615602D01*
X14577624Y-10625126D01*
X14558576Y-10625126D01*
X14539528Y-10615602D01*
X14530005Y-10606079D01*
X14520481Y-10587031D01*
X14510957Y-10548936D01*
X14510957Y-10501317D01*
X14520481Y-10463221D01*
X14530005Y-10444174D01*
X14539528Y-10434650D01*
X14558576Y-10425126D01*
X14710957Y-10606079D02*
X14720481Y-10615602D01*
X14710957Y-10625126D01*
X14701433Y-10615602D01*
X14710957Y-10606079D01*
X14710957Y-10625126D01*
X14844290Y-10425126D02*
X14863338Y-10425126D01*
X14882386Y-10434650D01*
X14891909Y-10444174D01*
X14901433Y-10463221D01*
X14910957Y-10501317D01*
X14910957Y-10548936D01*
X14901433Y-10587031D01*
X14891909Y-10606079D01*
X14882386Y-10615602D01*
X14863338Y-10625126D01*
X14844290Y-10625126D01*
X14825243Y-10615602D01*
X14815719Y-10606079D01*
X14806195Y-10587031D01*
X14796671Y-10548936D01*
X14796671Y-10501317D01*
X14806195Y-10463221D01*
X14815719Y-10444174D01*
X14825243Y-10434650D01*
X14844290Y-10425126D01*
X15101433Y-10625126D02*
X14987148Y-10625126D01*
X15044290Y-10625126D02*
X15044290Y-10425126D01*
X15025243Y-10453698D01*
X15006195Y-10472745D01*
X14987148Y-10482269D01*
X15282386Y-10425126D02*
X15187148Y-10425126D01*
X15177624Y-10520364D01*
X15187148Y-10510840D01*
X15206195Y-10501317D01*
X15253814Y-10501317D01*
X15272862Y-10510840D01*
X15282386Y-10520364D01*
X15291909Y-10539412D01*
X15291909Y-10587031D01*
X15282386Y-10606079D01*
X15272862Y-10615602D01*
X15253814Y-10625126D01*
X15206195Y-10625126D01*
X15187148Y-10615602D01*
X15177624Y-10606079D01*
X15358576Y-10425126D02*
X15491909Y-10425126D01*
X15406195Y-10625126D01*
X15558576Y-10425126D02*
X15558576Y-10463221D01*
X15634767Y-10425126D02*
X15634767Y-10463221D01*
X15930005Y-10701317D02*
X15920481Y-10691793D01*
X15901433Y-10663221D01*
X15891909Y-10644174D01*
X15882386Y-10615602D01*
X15872862Y-10567983D01*
X15872862Y-10529888D01*
X15882386Y-10482269D01*
X15891909Y-10453698D01*
X15901433Y-10434650D01*
X15920481Y-10406079D01*
X15930005Y-10396555D01*
X16110957Y-10625126D02*
X15996671Y-10625126D01*
X16053814Y-10625126D02*
X16053814Y-10425126D01*
X16034767Y-10453698D01*
X16015719Y-10472745D01*
X15996671Y-10482269D01*
X16234767Y-10425126D02*
X16253814Y-10425126D01*
X16272862Y-10434650D01*
X16282386Y-10444174D01*
X16291909Y-10463221D01*
X16301433Y-10501317D01*
X16301433Y-10548936D01*
X16291909Y-10587031D01*
X16282386Y-10606079D01*
X16272862Y-10615602D01*
X16253814Y-10625126D01*
X16234767Y-10625126D01*
X16215719Y-10615602D01*
X16206195Y-10606079D01*
X16196671Y-10587031D01*
X16187148Y-10548936D01*
X16187148Y-10501317D01*
X16196671Y-10463221D01*
X16206195Y-10444174D01*
X16215719Y-10434650D01*
X16234767Y-10425126D01*
X16539528Y-10625126D02*
X16539528Y-10425126D01*
X16625243Y-10625126D02*
X16625243Y-10520364D01*
X16615719Y-10501317D01*
X16596671Y-10491793D01*
X16568100Y-10491793D01*
X16549052Y-10501317D01*
X16539528Y-10510840D01*
X16749052Y-10625126D02*
X16730005Y-10615602D01*
X16720481Y-10606079D01*
X16710957Y-10587031D01*
X16710957Y-10529888D01*
X16720481Y-10510840D01*
X16730005Y-10501317D01*
X16749052Y-10491793D01*
X16777624Y-10491793D01*
X16796671Y-10501317D01*
X16806195Y-10510840D01*
X16815719Y-10529888D01*
X16815719Y-10587031D01*
X16806195Y-10606079D01*
X16796671Y-10615602D01*
X16777624Y-10625126D01*
X16749052Y-10625126D01*
X16930005Y-10625126D02*
X16910957Y-10615602D01*
X16901433Y-10596555D01*
X16901433Y-10425126D01*
X17082386Y-10615602D02*
X17063338Y-10625126D01*
X17025243Y-10625126D01*
X17006195Y-10615602D01*
X16996671Y-10596555D01*
X16996671Y-10520364D01*
X17006195Y-10501317D01*
X17025243Y-10491793D01*
X17063338Y-10491793D01*
X17082386Y-10501317D01*
X17091910Y-10520364D01*
X17091910Y-10539412D01*
X16996671Y-10558460D01*
X17168100Y-10615602D02*
X17187148Y-10625126D01*
X17225243Y-10625126D01*
X17244290Y-10615602D01*
X17253814Y-10596555D01*
X17253814Y-10587031D01*
X17244290Y-10567983D01*
X17225243Y-10558460D01*
X17196671Y-10558460D01*
X17177624Y-10548936D01*
X17168100Y-10529888D01*
X17168100Y-10520364D01*
X17177624Y-10501317D01*
X17196671Y-10491793D01*
X17225243Y-10491793D01*
X17244290Y-10501317D01*
X17320481Y-10701317D02*
X17330005Y-10691793D01*
X17349052Y-10663221D01*
X17358576Y-10644174D01*
X17368100Y-10615602D01*
X17377624Y-10567983D01*
X17377624Y-10529888D01*
X17368100Y-10482269D01*
X17358576Y-10453698D01*
X17349052Y-10434650D01*
X17330005Y-10406079D01*
X17320481Y-10396555D01*
D13*
X12358100Y-10798650D02*
G75*
G03*
X12358100Y-10798650I-30000J0D01*
G01*
D11*
X12653814Y-10689126D02*
X12672862Y-10689126D01*
X12691909Y-10698650D01*
X12701433Y-10708174D01*
X12710957Y-10727221D01*
X12720481Y-10765317D01*
X12720481Y-10812936D01*
X12710957Y-10851031D01*
X12701433Y-10870079D01*
X12691909Y-10879602D01*
X12672862Y-10889126D01*
X12653814Y-10889126D01*
X12634767Y-10879602D01*
X12625243Y-10870079D01*
X12615719Y-10851031D01*
X12606195Y-10812936D01*
X12606195Y-10765317D01*
X12615719Y-10727221D01*
X12625243Y-10708174D01*
X12634767Y-10698650D01*
X12653814Y-10689126D01*
X12806195Y-10870079D02*
X12815719Y-10879602D01*
X12806195Y-10889126D01*
X12796671Y-10879602D01*
X12806195Y-10870079D01*
X12806195Y-10889126D01*
X12987148Y-10689126D02*
X12949052Y-10689126D01*
X12930005Y-10698650D01*
X12920481Y-10708174D01*
X12901433Y-10736745D01*
X12891909Y-10774840D01*
X12891909Y-10851031D01*
X12901433Y-10870079D01*
X12910957Y-10879602D01*
X12930005Y-10889126D01*
X12968100Y-10889126D01*
X12987148Y-10879602D01*
X12996671Y-10870079D01*
X13006195Y-10851031D01*
X13006195Y-10803412D01*
X12996671Y-10784364D01*
X12987148Y-10774840D01*
X12968100Y-10765317D01*
X12930005Y-10765317D01*
X12910957Y-10774840D01*
X12901433Y-10784364D01*
X12891909Y-10803412D01*
X13130005Y-10689126D02*
X13149052Y-10689126D01*
X13168100Y-10698650D01*
X13177624Y-10708174D01*
X13187148Y-10727221D01*
X13196671Y-10765317D01*
X13196671Y-10812936D01*
X13187148Y-10851031D01*
X13177624Y-10870079D01*
X13168100Y-10879602D01*
X13149052Y-10889126D01*
X13130005Y-10889126D01*
X13110957Y-10879602D01*
X13101433Y-10870079D01*
X13091909Y-10851031D01*
X13082386Y-10812936D01*
X13082386Y-10765317D01*
X13091909Y-10727221D01*
X13101433Y-10708174D01*
X13110957Y-10698650D01*
X13130005Y-10689126D01*
X13320481Y-10689126D02*
X13339528Y-10689126D01*
X13358576Y-10698650D01*
X13368100Y-10708174D01*
X13377624Y-10727221D01*
X13387148Y-10765317D01*
X13387148Y-10812936D01*
X13377624Y-10851031D01*
X13368100Y-10870079D01*
X13358576Y-10879602D01*
X13339528Y-10889126D01*
X13320481Y-10889126D01*
X13301433Y-10879602D01*
X13291909Y-10870079D01*
X13282386Y-10851031D01*
X13272862Y-10812936D01*
X13272862Y-10765317D01*
X13282386Y-10727221D01*
X13291909Y-10708174D01*
X13301433Y-10698650D01*
X13320481Y-10689126D01*
X13472862Y-10889126D02*
X13472862Y-10755793D01*
X13472862Y-10774840D02*
X13482386Y-10765317D01*
X13501433Y-10755793D01*
X13530005Y-10755793D01*
X13549052Y-10765317D01*
X13558576Y-10784364D01*
X13558576Y-10889126D01*
X13558576Y-10784364D02*
X13568100Y-10765317D01*
X13587148Y-10755793D01*
X13615719Y-10755793D01*
X13634767Y-10765317D01*
X13644290Y-10784364D01*
X13644290Y-10889126D01*
X13739528Y-10889126D02*
X13739528Y-10755793D01*
X13739528Y-10774840D02*
X13749052Y-10765317D01*
X13768100Y-10755793D01*
X13796671Y-10755793D01*
X13815719Y-10765317D01*
X13825243Y-10784364D01*
X13825243Y-10889126D01*
X13825243Y-10784364D02*
X13834767Y-10765317D01*
X13853814Y-10755793D01*
X13882386Y-10755793D01*
X13901433Y-10765317D01*
X13910957Y-10784364D01*
X13910957Y-10889126D01*
X14301433Y-10679602D02*
X14130005Y-10936745D01*
X14558576Y-10689126D02*
X14577624Y-10689126D01*
X14596671Y-10698650D01*
X14606195Y-10708174D01*
X14615719Y-10727221D01*
X14625243Y-10765317D01*
X14625243Y-10812936D01*
X14615719Y-10851031D01*
X14606195Y-10870079D01*
X14596671Y-10879602D01*
X14577624Y-10889126D01*
X14558576Y-10889126D01*
X14539528Y-10879602D01*
X14530005Y-10870079D01*
X14520481Y-10851031D01*
X14510957Y-10812936D01*
X14510957Y-10765317D01*
X14520481Y-10727221D01*
X14530005Y-10708174D01*
X14539528Y-10698650D01*
X14558576Y-10689126D01*
X14710957Y-10870079D02*
X14720481Y-10879602D01*
X14710957Y-10889126D01*
X14701433Y-10879602D01*
X14710957Y-10870079D01*
X14710957Y-10889126D01*
X14844290Y-10689126D02*
X14863338Y-10689126D01*
X14882386Y-10698650D01*
X14891909Y-10708174D01*
X14901433Y-10727221D01*
X14910957Y-10765317D01*
X14910957Y-10812936D01*
X14901433Y-10851031D01*
X14891909Y-10870079D01*
X14882386Y-10879602D01*
X14863338Y-10889126D01*
X14844290Y-10889126D01*
X14825243Y-10879602D01*
X14815719Y-10870079D01*
X14806195Y-10851031D01*
X14796671Y-10812936D01*
X14796671Y-10765317D01*
X14806195Y-10727221D01*
X14815719Y-10708174D01*
X14825243Y-10698650D01*
X14844290Y-10689126D01*
X14987148Y-10708174D02*
X14996671Y-10698650D01*
X15015719Y-10689126D01*
X15063338Y-10689126D01*
X15082386Y-10698650D01*
X15091909Y-10708174D01*
X15101433Y-10727221D01*
X15101433Y-10746269D01*
X15091909Y-10774840D01*
X14977624Y-10889126D01*
X15101433Y-10889126D01*
X15168100Y-10689126D02*
X15291909Y-10689126D01*
X15225243Y-10765317D01*
X15253814Y-10765317D01*
X15272862Y-10774840D01*
X15282386Y-10784364D01*
X15291909Y-10803412D01*
X15291909Y-10851031D01*
X15282386Y-10870079D01*
X15272862Y-10879602D01*
X15253814Y-10889126D01*
X15196671Y-10889126D01*
X15177624Y-10879602D01*
X15168100Y-10870079D01*
X15463338Y-10689126D02*
X15425243Y-10689126D01*
X15406195Y-10698650D01*
X15396671Y-10708174D01*
X15377624Y-10736745D01*
X15368100Y-10774840D01*
X15368100Y-10851031D01*
X15377624Y-10870079D01*
X15387148Y-10879602D01*
X15406195Y-10889126D01*
X15444290Y-10889126D01*
X15463338Y-10879602D01*
X15472862Y-10870079D01*
X15482386Y-10851031D01*
X15482386Y-10803412D01*
X15472862Y-10784364D01*
X15463338Y-10774840D01*
X15444290Y-10765317D01*
X15406195Y-10765317D01*
X15387148Y-10774840D01*
X15377624Y-10784364D01*
X15368100Y-10803412D01*
X15558576Y-10689126D02*
X15558576Y-10727221D01*
X15634767Y-10689126D02*
X15634767Y-10727221D01*
X15930005Y-10965317D02*
X15920481Y-10955793D01*
X15901433Y-10927221D01*
X15891909Y-10908174D01*
X15882386Y-10879602D01*
X15872862Y-10831983D01*
X15872862Y-10793888D01*
X15882386Y-10746269D01*
X15891909Y-10717698D01*
X15901433Y-10698650D01*
X15920481Y-10670079D01*
X15930005Y-10660555D01*
X16044290Y-10689126D02*
X16063338Y-10689126D01*
X16082386Y-10698650D01*
X16091909Y-10708174D01*
X16101433Y-10727221D01*
X16110957Y-10765317D01*
X16110957Y-10812936D01*
X16101433Y-10851031D01*
X16091909Y-10870079D01*
X16082386Y-10879602D01*
X16063338Y-10889126D01*
X16044290Y-10889126D01*
X16025243Y-10879602D01*
X16015719Y-10870079D01*
X16006195Y-10851031D01*
X15996671Y-10812936D01*
X15996671Y-10765317D01*
X16006195Y-10727221D01*
X16015719Y-10708174D01*
X16025243Y-10698650D01*
X16044290Y-10689126D01*
X16349052Y-10889126D02*
X16349052Y-10689126D01*
X16434767Y-10889126D02*
X16434767Y-10784364D01*
X16425243Y-10765317D01*
X16406195Y-10755793D01*
X16377624Y-10755793D01*
X16358576Y-10765317D01*
X16349052Y-10774840D01*
X16558576Y-10889126D02*
X16539528Y-10879602D01*
X16530005Y-10870079D01*
X16520481Y-10851031D01*
X16520481Y-10793888D01*
X16530005Y-10774840D01*
X16539528Y-10765317D01*
X16558576Y-10755793D01*
X16587148Y-10755793D01*
X16606195Y-10765317D01*
X16615719Y-10774840D01*
X16625243Y-10793888D01*
X16625243Y-10851031D01*
X16615719Y-10870079D01*
X16606195Y-10879602D01*
X16587148Y-10889126D01*
X16558576Y-10889126D01*
X16739528Y-10889126D02*
X16720481Y-10879602D01*
X16710957Y-10860555D01*
X16710957Y-10689126D01*
X16891910Y-10879602D02*
X16872862Y-10889126D01*
X16834767Y-10889126D01*
X16815719Y-10879602D01*
X16806195Y-10860555D01*
X16806195Y-10784364D01*
X16815719Y-10765317D01*
X16834767Y-10755793D01*
X16872862Y-10755793D01*
X16891910Y-10765317D01*
X16901433Y-10784364D01*
X16901433Y-10803412D01*
X16806195Y-10822460D01*
X16977624Y-10879602D02*
X16996671Y-10889126D01*
X17034767Y-10889126D01*
X17053814Y-10879602D01*
X17063338Y-10860555D01*
X17063338Y-10851031D01*
X17053814Y-10831983D01*
X17034767Y-10822460D01*
X17006195Y-10822460D01*
X16987148Y-10812936D01*
X16977624Y-10793888D01*
X16977624Y-10784364D01*
X16987148Y-10765317D01*
X17006195Y-10755793D01*
X17034767Y-10755793D01*
X17053814Y-10765317D01*
X17301433Y-10812936D02*
X17453814Y-10812936D01*
X17377624Y-10889126D02*
X17377624Y-10736745D01*
X17787148Y-10755793D02*
X17787148Y-10889126D01*
X17739529Y-10679602D02*
X17691910Y-10822460D01*
X17815719Y-10822460D01*
X18034767Y-10879602D02*
X18053814Y-10889126D01*
X18091910Y-10889126D01*
X18110957Y-10879602D01*
X18120481Y-10860555D01*
X18120481Y-10851031D01*
X18110957Y-10831983D01*
X18091910Y-10822460D01*
X18063338Y-10822460D01*
X18044290Y-10812936D01*
X18034767Y-10793888D01*
X18034767Y-10784364D01*
X18044290Y-10765317D01*
X18063338Y-10755793D01*
X18091910Y-10755793D01*
X18110957Y-10765317D01*
X18234767Y-10889126D02*
X18215719Y-10879602D01*
X18206195Y-10860555D01*
X18206195Y-10689126D01*
X18339529Y-10889126D02*
X18320481Y-10879602D01*
X18310957Y-10870079D01*
X18301433Y-10851031D01*
X18301433Y-10793888D01*
X18310957Y-10774840D01*
X18320481Y-10765317D01*
X18339529Y-10755793D01*
X18368100Y-10755793D01*
X18387148Y-10765317D01*
X18396671Y-10774840D01*
X18406195Y-10793888D01*
X18406195Y-10851031D01*
X18396671Y-10870079D01*
X18387148Y-10879602D01*
X18368100Y-10889126D01*
X18339529Y-10889126D01*
X18463338Y-10755793D02*
X18539529Y-10755793D01*
X18491910Y-10689126D02*
X18491910Y-10860555D01*
X18501433Y-10879602D01*
X18520481Y-10889126D01*
X18539529Y-10889126D01*
X18596671Y-10879602D02*
X18615719Y-10889126D01*
X18653814Y-10889126D01*
X18672862Y-10879602D01*
X18682386Y-10860555D01*
X18682386Y-10851031D01*
X18672862Y-10831983D01*
X18653814Y-10822460D01*
X18625243Y-10822460D01*
X18606195Y-10812936D01*
X18596671Y-10793888D01*
X18596671Y-10784364D01*
X18606195Y-10765317D01*
X18625243Y-10755793D01*
X18653814Y-10755793D01*
X18672862Y-10765317D01*
X18749052Y-10965317D02*
X18758576Y-10955793D01*
X18777624Y-10927221D01*
X18787148Y-10908174D01*
X18796671Y-10879602D01*
X18806195Y-10831983D01*
X18806195Y-10793888D01*
X18796671Y-10746269D01*
X18787148Y-10717698D01*
X18777624Y-10698650D01*
X18758576Y-10670079D01*
X18749052Y-10660555D01*
D14*
X12313100Y-11017650D02*
X12313100Y-11107650D01*
X12268100Y-11062650D02*
X12358100Y-11062650D01*
D11*
X12653814Y-10953126D02*
X12672862Y-10953126D01*
X12691909Y-10962650D01*
X12701433Y-10972174D01*
X12710957Y-10991221D01*
X12720481Y-11029317D01*
X12720481Y-11076936D01*
X12710957Y-11115031D01*
X12701433Y-11134079D01*
X12691909Y-11143602D01*
X12672862Y-11153126D01*
X12653814Y-11153126D01*
X12634767Y-11143602D01*
X12625243Y-11134079D01*
X12615719Y-11115031D01*
X12606195Y-11076936D01*
X12606195Y-11029317D01*
X12615719Y-10991221D01*
X12625243Y-10972174D01*
X12634767Y-10962650D01*
X12653814Y-10953126D01*
X12806195Y-11134079D02*
X12815719Y-11143602D01*
X12806195Y-11153126D01*
X12796671Y-11143602D01*
X12806195Y-11134079D01*
X12806195Y-11153126D01*
X12910957Y-11153126D02*
X12949052Y-11153126D01*
X12968100Y-11143602D01*
X12977624Y-11134079D01*
X12996671Y-11105507D01*
X13006195Y-11067412D01*
X13006195Y-10991221D01*
X12996671Y-10972174D01*
X12987148Y-10962650D01*
X12968100Y-10953126D01*
X12930005Y-10953126D01*
X12910957Y-10962650D01*
X12901433Y-10972174D01*
X12891909Y-10991221D01*
X12891909Y-11038840D01*
X12901433Y-11057888D01*
X12910957Y-11067412D01*
X12930005Y-11076936D01*
X12968100Y-11076936D01*
X12987148Y-11067412D01*
X12996671Y-11057888D01*
X13006195Y-11038840D01*
X13130005Y-10953126D02*
X13149052Y-10953126D01*
X13168100Y-10962650D01*
X13177624Y-10972174D01*
X13187148Y-10991221D01*
X13196671Y-11029317D01*
X13196671Y-11076936D01*
X13187148Y-11115031D01*
X13177624Y-11134079D01*
X13168100Y-11143602D01*
X13149052Y-11153126D01*
X13130005Y-11153126D01*
X13110957Y-11143602D01*
X13101433Y-11134079D01*
X13091909Y-11115031D01*
X13082386Y-11076936D01*
X13082386Y-11029317D01*
X13091909Y-10991221D01*
X13101433Y-10972174D01*
X13110957Y-10962650D01*
X13130005Y-10953126D01*
X13320481Y-10953126D02*
X13339528Y-10953126D01*
X13358576Y-10962650D01*
X13368100Y-10972174D01*
X13377624Y-10991221D01*
X13387148Y-11029317D01*
X13387148Y-11076936D01*
X13377624Y-11115031D01*
X13368100Y-11134079D01*
X13358576Y-11143602D01*
X13339528Y-11153126D01*
X13320481Y-11153126D01*
X13301433Y-11143602D01*
X13291909Y-11134079D01*
X13282386Y-11115031D01*
X13272862Y-11076936D01*
X13272862Y-11029317D01*
X13282386Y-10991221D01*
X13291909Y-10972174D01*
X13301433Y-10962650D01*
X13320481Y-10953126D01*
X13472862Y-11153126D02*
X13472862Y-11019793D01*
X13472862Y-11038840D02*
X13482386Y-11029317D01*
X13501433Y-11019793D01*
X13530005Y-11019793D01*
X13549052Y-11029317D01*
X13558576Y-11048364D01*
X13558576Y-11153126D01*
X13558576Y-11048364D02*
X13568100Y-11029317D01*
X13587148Y-11019793D01*
X13615719Y-11019793D01*
X13634767Y-11029317D01*
X13644290Y-11048364D01*
X13644290Y-11153126D01*
X13739528Y-11153126D02*
X13739528Y-11019793D01*
X13739528Y-11038840D02*
X13749052Y-11029317D01*
X13768100Y-11019793D01*
X13796671Y-11019793D01*
X13815719Y-11029317D01*
X13825243Y-11048364D01*
X13825243Y-11153126D01*
X13825243Y-11048364D02*
X13834767Y-11029317D01*
X13853814Y-11019793D01*
X13882386Y-11019793D01*
X13901433Y-11029317D01*
X13910957Y-11048364D01*
X13910957Y-11153126D01*
X14301433Y-10943602D02*
X14130005Y-11200745D01*
X14558576Y-10953126D02*
X14577624Y-10953126D01*
X14596671Y-10962650D01*
X14606195Y-10972174D01*
X14615719Y-10991221D01*
X14625243Y-11029317D01*
X14625243Y-11076936D01*
X14615719Y-11115031D01*
X14606195Y-11134079D01*
X14596671Y-11143602D01*
X14577624Y-11153126D01*
X14558576Y-11153126D01*
X14539528Y-11143602D01*
X14530005Y-11134079D01*
X14520481Y-11115031D01*
X14510957Y-11076936D01*
X14510957Y-11029317D01*
X14520481Y-10991221D01*
X14530005Y-10972174D01*
X14539528Y-10962650D01*
X14558576Y-10953126D01*
X14710957Y-11134079D02*
X14720481Y-11143602D01*
X14710957Y-11153126D01*
X14701433Y-11143602D01*
X14710957Y-11134079D01*
X14710957Y-11153126D01*
X14844290Y-10953126D02*
X14863338Y-10953126D01*
X14882386Y-10962650D01*
X14891909Y-10972174D01*
X14901433Y-10991221D01*
X14910957Y-11029317D01*
X14910957Y-11076936D01*
X14901433Y-11115031D01*
X14891909Y-11134079D01*
X14882386Y-11143602D01*
X14863338Y-11153126D01*
X14844290Y-11153126D01*
X14825243Y-11143602D01*
X14815719Y-11134079D01*
X14806195Y-11115031D01*
X14796671Y-11076936D01*
X14796671Y-11029317D01*
X14806195Y-10991221D01*
X14815719Y-10972174D01*
X14825243Y-10962650D01*
X14844290Y-10953126D01*
X14977624Y-10953126D02*
X15101433Y-10953126D01*
X15034767Y-11029317D01*
X15063338Y-11029317D01*
X15082386Y-11038840D01*
X15091909Y-11048364D01*
X15101433Y-11067412D01*
X15101433Y-11115031D01*
X15091909Y-11134079D01*
X15082386Y-11143602D01*
X15063338Y-11153126D01*
X15006195Y-11153126D01*
X14987148Y-11143602D01*
X14977624Y-11134079D01*
X15282386Y-10953126D02*
X15187148Y-10953126D01*
X15177624Y-11048364D01*
X15187148Y-11038840D01*
X15206195Y-11029317D01*
X15253814Y-11029317D01*
X15272862Y-11038840D01*
X15282386Y-11048364D01*
X15291909Y-11067412D01*
X15291909Y-11115031D01*
X15282386Y-11134079D01*
X15272862Y-11143602D01*
X15253814Y-11153126D01*
X15206195Y-11153126D01*
X15187148Y-11143602D01*
X15177624Y-11134079D01*
X15463338Y-11019793D02*
X15463338Y-11153126D01*
X15415719Y-10943602D02*
X15368100Y-11086460D01*
X15491909Y-11086460D01*
X15558576Y-10953126D02*
X15558576Y-10991221D01*
X15634767Y-10953126D02*
X15634767Y-10991221D01*
X15930005Y-11229317D02*
X15920481Y-11219793D01*
X15901433Y-11191221D01*
X15891909Y-11172174D01*
X15882386Y-11143602D01*
X15872862Y-11095983D01*
X15872862Y-11057888D01*
X15882386Y-11010269D01*
X15891909Y-10981698D01*
X15901433Y-10962650D01*
X15920481Y-10934079D01*
X15930005Y-10924555D01*
X16034767Y-11038840D02*
X16015719Y-11029317D01*
X16006195Y-11019793D01*
X15996671Y-11000745D01*
X15996671Y-10991221D01*
X16006195Y-10972174D01*
X16015719Y-10962650D01*
X16034767Y-10953126D01*
X16072862Y-10953126D01*
X16091909Y-10962650D01*
X16101433Y-10972174D01*
X16110957Y-10991221D01*
X16110957Y-11000745D01*
X16101433Y-11019793D01*
X16091909Y-11029317D01*
X16072862Y-11038840D01*
X16034767Y-11038840D01*
X16015719Y-11048364D01*
X16006195Y-11057888D01*
X15996671Y-11076936D01*
X15996671Y-11115031D01*
X16006195Y-11134079D01*
X16015719Y-11143602D01*
X16034767Y-11153126D01*
X16072862Y-11153126D01*
X16091909Y-11143602D01*
X16101433Y-11134079D01*
X16110957Y-11115031D01*
X16110957Y-11076936D01*
X16101433Y-11057888D01*
X16091909Y-11048364D01*
X16072862Y-11038840D01*
X16349052Y-11153126D02*
X16349052Y-10953126D01*
X16434767Y-11153126D02*
X16434767Y-11048364D01*
X16425243Y-11029317D01*
X16406195Y-11019793D01*
X16377624Y-11019793D01*
X16358576Y-11029317D01*
X16349052Y-11038840D01*
X16558576Y-11153126D02*
X16539528Y-11143602D01*
X16530005Y-11134079D01*
X16520481Y-11115031D01*
X16520481Y-11057888D01*
X16530005Y-11038840D01*
X16539528Y-11029317D01*
X16558576Y-11019793D01*
X16587148Y-11019793D01*
X16606195Y-11029317D01*
X16615719Y-11038840D01*
X16625243Y-11057888D01*
X16625243Y-11115031D01*
X16615719Y-11134079D01*
X16606195Y-11143602D01*
X16587148Y-11153126D01*
X16558576Y-11153126D01*
X16739528Y-11153126D02*
X16720481Y-11143602D01*
X16710957Y-11124555D01*
X16710957Y-10953126D01*
X16891910Y-11143602D02*
X16872862Y-11153126D01*
X16834767Y-11153126D01*
X16815719Y-11143602D01*
X16806195Y-11124555D01*
X16806195Y-11048364D01*
X16815719Y-11029317D01*
X16834767Y-11019793D01*
X16872862Y-11019793D01*
X16891910Y-11029317D01*
X16901433Y-11048364D01*
X16901433Y-11067412D01*
X16806195Y-11086460D01*
X16977624Y-11143602D02*
X16996671Y-11153126D01*
X17034767Y-11153126D01*
X17053814Y-11143602D01*
X17063338Y-11124555D01*
X17063338Y-11115031D01*
X17053814Y-11095983D01*
X17034767Y-11086460D01*
X17006195Y-11086460D01*
X16987148Y-11076936D01*
X16977624Y-11057888D01*
X16977624Y-11048364D01*
X16987148Y-11029317D01*
X17006195Y-11019793D01*
X17034767Y-11019793D01*
X17053814Y-11029317D01*
X17130005Y-11229317D02*
X17139529Y-11219793D01*
X17158576Y-11191221D01*
X17168100Y-11172174D01*
X17177624Y-11143602D01*
X17187148Y-11095983D01*
X17187148Y-11057888D01*
X17177624Y-11010269D01*
X17168100Y-10981698D01*
X17158576Y-10962650D01*
X17139529Y-10934079D01*
X17130005Y-10924555D01*
M02*
