%TF.GenerationSoftware,KiCad,Pcbnew,5.99.0-unknown-4920692bcd~125~ubuntu20.04.1*%
%TF.CreationDate,2021-04-18T13:07:44+02:00*%
%TF.ProjectId,USBMOUNT01A,5553424d-4f55-44e5-9430-31412e6b6963,rev?*%
%TF.SameCoordinates,Original*%
%TF.FileFunction,Soldermask,Top*%
%TF.FilePolarity,Negative*%
%FSLAX46Y46*%
G04 Gerber Fmt 4.6, Leading zero omitted, Abs format (unit mm)*
G04 Created by KiCad (PCBNEW 5.99.0-unknown-4920692bcd~125~ubuntu20.04.1) date 2021-04-18 13:07:44*
%MOMM*%
%LPD*%
G01*
G04 APERTURE LIST*
G04 Aperture macros list*
%AMRoundRect*
0 Rectangle with rounded corners*
0 $1 Rounding radius*
0 $2 $3 $4 $5 $6 $7 $8 $9 X,Y pos of 4 corners*
0 Add a 4 corners polygon primitive as box body*
4,1,4,$2,$3,$4,$5,$6,$7,$8,$9,$2,$3,0*
0 Add four circle primitives for the rounded corners*
1,1,$1+$1,$2,$3*
1,1,$1+$1,$4,$5*
1,1,$1+$1,$6,$7*
1,1,$1+$1,$8,$9*
0 Add four rect primitives between the rounded corners*
20,1,$1+$1,$2,$3,$4,$5,0*
20,1,$1+$1,$4,$5,$6,$7,0*
20,1,$1+$1,$6,$7,$8,$9,0*
20,1,$1+$1,$8,$9,$2,$3,0*%
%AMFreePoly0*
4,1,22,0.550000,-0.750000,0.000000,-0.750000,0.000000,-0.745033,-0.079941,-0.743568,-0.215256,-0.701293,-0.333266,-0.622738,-0.424486,-0.514219,-0.481581,-0.384460,-0.499164,-0.250000,-0.500000,-0.250000,-0.500000,0.250000,-0.499164,0.250000,-0.499963,0.256109,-0.478152,0.396186,-0.417904,0.524511,-0.324060,0.630769,-0.204165,0.706417,-0.067858,0.745374,0.000000,0.744959,0.000000,0.750000,
0.550000,0.750000,0.550000,-0.750000,0.550000,-0.750000,$1*%
%AMFreePoly1*
4,1,20,0.000000,0.744959,0.073905,0.744508,0.209726,0.703889,0.328688,0.626782,0.421226,0.519385,0.479903,0.390333,0.500000,0.250000,0.500000,-0.250000,0.499851,-0.262216,0.476331,-0.402017,0.414519,-0.529596,0.319384,-0.634700,0.198574,-0.708877,0.061801,-0.746166,0.000000,-0.745033,0.000000,-0.750000,-0.550000,-0.750000,-0.550000,0.750000,0.000000,0.750000,0.000000,0.744959,
0.000000,0.744959,$1*%
G04 Aperture macros list end*
%ADD10RoundRect,0.250000X-0.475000X0.337500X-0.475000X-0.337500X0.475000X-0.337500X0.475000X0.337500X0*%
%ADD11RoundRect,0.250000X0.350000X0.450000X-0.350000X0.450000X-0.350000X-0.450000X0.350000X-0.450000X0*%
%ADD12R,1.750000X0.450000*%
%ADD13O,1.800000X2.400000*%
%ADD14RoundRect,0.190000X-0.285000X-0.685000X0.285000X-0.685000X0.285000X0.685000X-0.285000X0.685000X0*%
%ADD15RoundRect,0.150000X0.512500X0.150000X-0.512500X0.150000X-0.512500X-0.150000X0.512500X-0.150000X0*%
%ADD16RoundRect,0.250000X-0.350000X-0.450000X0.350000X-0.450000X0.350000X0.450000X-0.350000X0.450000X0*%
%ADD17C,0.650000*%
%ADD18R,1.160000X0.600000*%
%ADD19R,1.160000X0.300000*%
%ADD20O,2.000000X0.900000*%
%ADD21O,2.100000X0.900000*%
%ADD22FreePoly0,0.000000*%
%ADD23R,1.000000X1.500000*%
%ADD24FreePoly1,0.000000*%
%ADD25C,3.650000*%
%ADD26R,1.500000X1.500000*%
%ADD27C,1.500000*%
%ADD28RoundRect,0.250000X0.337500X0.475000X-0.337500X0.475000X-0.337500X-0.475000X0.337500X-0.475000X0*%
G04 APERTURE END LIST*
D10*
%TO.C,C2*%
X139300000Y-81400000D03*
X139300000Y-83475000D03*
%TD*%
D11*
%TO.C,R5*%
X156100000Y-84450000D03*
X154100000Y-84450000D03*
%TD*%
D12*
%TO.C,U1*%
X150600000Y-90050000D03*
X150600000Y-89400000D03*
X150600000Y-88750000D03*
X150600000Y-88100000D03*
X150600000Y-87450000D03*
X150600000Y-86800000D03*
X150600000Y-86150000D03*
X150600000Y-85500000D03*
X150600000Y-84850000D03*
X150600000Y-84200000D03*
X150600000Y-83550000D03*
X150600000Y-82900000D03*
X150600000Y-82250000D03*
X150600000Y-81600000D03*
X143400000Y-81600000D03*
X143400000Y-82250000D03*
X143400000Y-82900000D03*
X143400000Y-83550000D03*
X143400000Y-84200000D03*
X143400000Y-84850000D03*
X143400000Y-85500000D03*
X143400000Y-86150000D03*
X143400000Y-86800000D03*
X143400000Y-87450000D03*
X143400000Y-88100000D03*
X143400000Y-88750000D03*
X143400000Y-89400000D03*
X143400000Y-90050000D03*
%TD*%
D13*
%TO.C,D1*%
X128200000Y-81500000D03*
D14*
X126650000Y-81500000D03*
X129750000Y-81500000D03*
%TD*%
D15*
%TO.C,U2*%
X137075000Y-89535000D03*
X137075000Y-88585000D03*
X137075000Y-87635000D03*
X134800000Y-87635000D03*
X134800000Y-88585000D03*
X134800000Y-89535000D03*
%TD*%
D13*
%TO.C,D2*%
X144150000Y-96600000D03*
D14*
X142600000Y-96600000D03*
X145700000Y-96600000D03*
%TD*%
D11*
%TO.C,R4*%
X149900000Y-93500000D03*
X147900000Y-93500000D03*
%TD*%
D10*
%TO.C,C1*%
X136700000Y-81400000D03*
X136700000Y-83475000D03*
%TD*%
D16*
%TO.C,R7*%
X131985000Y-96520000D03*
X133985000Y-96520000D03*
%TD*%
D17*
%TO.C,P1*%
X128905000Y-86010000D03*
X128905000Y-91790000D03*
D18*
X129965000Y-85700000D03*
X129965000Y-86500000D03*
D19*
X129965000Y-87650000D03*
X129965000Y-88650000D03*
X129965000Y-89150000D03*
X129965000Y-90150000D03*
D18*
X129965000Y-91300000D03*
X129965000Y-92100000D03*
X129965000Y-92100000D03*
X129965000Y-91300000D03*
D19*
X129965000Y-90650000D03*
X129965000Y-89650000D03*
X129965000Y-88150000D03*
X129965000Y-87150000D03*
D18*
X129965000Y-86500000D03*
X129965000Y-85700000D03*
D20*
X125215000Y-84580000D03*
X125215000Y-93220000D03*
D21*
X129385000Y-84580000D03*
X129385000Y-93220000D03*
%TD*%
D11*
%TO.C,R6*%
X129921000Y-96520000D03*
X127921000Y-96520000D03*
%TD*%
D22*
%TO.C,JP1*%
X152300000Y-96100000D03*
D23*
X153600000Y-96100000D03*
D24*
X154900000Y-96100000D03*
%TD*%
D11*
%TO.C,R1*%
X133992500Y-81500000D03*
X131992500Y-81500000D03*
%TD*%
%TO.C,R3*%
X149900000Y-96400000D03*
X147900000Y-96400000D03*
%TD*%
D13*
%TO.C,D4*%
X154700000Y-81500000D03*
D14*
X153150000Y-81500000D03*
X156250000Y-81500000D03*
%TD*%
D25*
%TO.C,J1*%
X168050000Y-94470000D03*
X168050000Y-83040000D03*
D26*
X161700000Y-93200000D03*
D27*
X159160000Y-91930000D03*
X161700000Y-90660000D03*
X159160000Y-89390000D03*
X161700000Y-88120000D03*
X159160000Y-86850000D03*
X161700000Y-85580000D03*
X159160000Y-84310000D03*
%TD*%
D13*
%TO.C,D3*%
X144150000Y-93500000D03*
D14*
X142600000Y-93500000D03*
X145700000Y-93500000D03*
%TD*%
D28*
%TO.C,C3*%
X136975000Y-92200000D03*
X134900000Y-92200000D03*
%TD*%
M02*
