%TF.GenerationSoftware,KiCad,Pcbnew,5.99.0-unknown-4920692bcd~125~ubuntu20.04.1*%
%TF.CreationDate,2021-04-18T13:07:43+02:00*%
%TF.ProjectId,USBMOUNT01A,5553424d-4f55-44e5-9430-31412e6b6963,rev?*%
%TF.SameCoordinates,Original*%
%TF.FileFunction,Copper,L2,Bot*%
%TF.FilePolarity,Positive*%
%FSLAX46Y46*%
G04 Gerber Fmt 4.6, Leading zero omitted, Abs format (unit mm)*
G04 Created by KiCad (PCBNEW 5.99.0-unknown-4920692bcd~125~ubuntu20.04.1) date 2021-04-18 13:07:43*
%MOMM*%
%LPD*%
G01*
G04 APERTURE LIST*
%ADD10C,0.195000*%
%TA.AperFunction,NonConductor*%
%ADD11C,0.195000*%
%TD*%
%TA.AperFunction,ComponentPad*%
%ADD12O,2.000000X0.900000*%
%TD*%
%TA.AperFunction,ComponentPad*%
%ADD13O,2.100000X0.900000*%
%TD*%
%TA.AperFunction,WasherPad*%
%ADD14C,3.650000*%
%TD*%
%TA.AperFunction,ComponentPad*%
%ADD15R,1.500000X1.500000*%
%TD*%
%TA.AperFunction,ComponentPad*%
%ADD16C,1.500000*%
%TD*%
%TA.AperFunction,ViaPad*%
%ADD17C,0.800000*%
%TD*%
%TA.AperFunction,Conductor*%
%ADD18C,0.350000*%
%TD*%
%TA.AperFunction,Conductor*%
%ADD19C,0.300000*%
%TD*%
G04 APERTURE END LIST*
D10*
D11*
X172007142Y-79428571D02*
X172735714Y-79428571D01*
X172821428Y-79465714D01*
X172864285Y-79502857D01*
X172907142Y-79577142D01*
X172907142Y-79725714D01*
X172864285Y-79800000D01*
X172821428Y-79837142D01*
X172735714Y-79874285D01*
X172007142Y-79874285D01*
X172864285Y-80208571D02*
X172907142Y-80320000D01*
X172907142Y-80505714D01*
X172864285Y-80580000D01*
X172821428Y-80617142D01*
X172735714Y-80654285D01*
X172650000Y-80654285D01*
X172564285Y-80617142D01*
X172521428Y-80580000D01*
X172478571Y-80505714D01*
X172435714Y-80357142D01*
X172392857Y-80282857D01*
X172350000Y-80245714D01*
X172264285Y-80208571D01*
X172178571Y-80208571D01*
X172092857Y-80245714D01*
X172050000Y-80282857D01*
X172007142Y-80357142D01*
X172007142Y-80542857D01*
X172050000Y-80654285D01*
X172435714Y-81248571D02*
X172478571Y-81360000D01*
X172521428Y-81397142D01*
X172607142Y-81434285D01*
X172735714Y-81434285D01*
X172821428Y-81397142D01*
X172864285Y-81360000D01*
X172907142Y-81285714D01*
X172907142Y-80988571D01*
X172007142Y-80988571D01*
X172007142Y-81248571D01*
X172050000Y-81322857D01*
X172092857Y-81360000D01*
X172178571Y-81397142D01*
X172264285Y-81397142D01*
X172350000Y-81360000D01*
X172392857Y-81322857D01*
X172435714Y-81248571D01*
X172435714Y-80988571D01*
X172907142Y-81768571D02*
X172007142Y-81768571D01*
X172650000Y-82028571D01*
X172007142Y-82288571D01*
X172907142Y-82288571D01*
X172007142Y-82808571D02*
X172007142Y-82957142D01*
X172050000Y-83031428D01*
X172135714Y-83105714D01*
X172307142Y-83142857D01*
X172607142Y-83142857D01*
X172778571Y-83105714D01*
X172864285Y-83031428D01*
X172907142Y-82957142D01*
X172907142Y-82808571D01*
X172864285Y-82734285D01*
X172778571Y-82660000D01*
X172607142Y-82622857D01*
X172307142Y-82622857D01*
X172135714Y-82660000D01*
X172050000Y-82734285D01*
X172007142Y-82808571D01*
X172007142Y-83477142D02*
X172735714Y-83477142D01*
X172821428Y-83514285D01*
X172864285Y-83551428D01*
X172907142Y-83625714D01*
X172907142Y-83774285D01*
X172864285Y-83848571D01*
X172821428Y-83885714D01*
X172735714Y-83922857D01*
X172007142Y-83922857D01*
X172907142Y-84294285D02*
X172007142Y-84294285D01*
X172907142Y-84740000D01*
X172007142Y-84740000D01*
X172007142Y-85000000D02*
X172007142Y-85445714D01*
X172907142Y-85222857D02*
X172007142Y-85222857D01*
X172007142Y-85854285D02*
X172007142Y-85928571D01*
X172050000Y-86002857D01*
X172092857Y-86040000D01*
X172178571Y-86077142D01*
X172350000Y-86114285D01*
X172564285Y-86114285D01*
X172735714Y-86077142D01*
X172821428Y-86040000D01*
X172864285Y-86002857D01*
X172907142Y-85928571D01*
X172907142Y-85854285D01*
X172864285Y-85780000D01*
X172821428Y-85742857D01*
X172735714Y-85705714D01*
X172564285Y-85668571D01*
X172350000Y-85668571D01*
X172178571Y-85705714D01*
X172092857Y-85742857D01*
X172050000Y-85780000D01*
X172007142Y-85854285D01*
X172907142Y-86857142D02*
X172907142Y-86411428D01*
X172907142Y-86634285D02*
X172007142Y-86634285D01*
X172135714Y-86560000D01*
X172221428Y-86485714D01*
X172264285Y-86411428D01*
X172650000Y-87154285D02*
X172650000Y-87525714D01*
X172907142Y-87080000D02*
X172007142Y-87340000D01*
X172907142Y-87600000D01*
X172864285Y-87897142D02*
X172907142Y-87897142D01*
X172992857Y-87860000D01*
X173035714Y-87822857D01*
X172650000Y-88788571D02*
X172650000Y-89160000D01*
X172907142Y-88714285D02*
X172007142Y-88974285D01*
X172907142Y-89234285D01*
X172864285Y-89457142D02*
X172907142Y-89568571D01*
X172907142Y-89754285D01*
X172864285Y-89828571D01*
X172821428Y-89865714D01*
X172735714Y-89902857D01*
X172650000Y-89902857D01*
X172564285Y-89865714D01*
X172521428Y-89828571D01*
X172478571Y-89754285D01*
X172435714Y-89605714D01*
X172392857Y-89531428D01*
X172350000Y-89494285D01*
X172264285Y-89457142D01*
X172178571Y-89457142D01*
X172092857Y-89494285D01*
X172050000Y-89531428D01*
X172007142Y-89605714D01*
X172007142Y-89791428D01*
X172050000Y-89902857D01*
X172007142Y-90125714D02*
X172007142Y-90571428D01*
X172907142Y-90348571D02*
X172007142Y-90348571D01*
X172907142Y-91277142D02*
X172478571Y-91017142D01*
X172907142Y-90831428D02*
X172007142Y-90831428D01*
X172007142Y-91128571D01*
X172050000Y-91202857D01*
X172092857Y-91240000D01*
X172178571Y-91277142D01*
X172307142Y-91277142D01*
X172392857Y-91240000D01*
X172435714Y-91202857D01*
X172478571Y-91128571D01*
X172478571Y-90831428D01*
X172007142Y-91760000D02*
X172007142Y-91908571D01*
X172050000Y-91982857D01*
X172135714Y-92057142D01*
X172307142Y-92094285D01*
X172607142Y-92094285D01*
X172778571Y-92057142D01*
X172864285Y-91982857D01*
X172907142Y-91908571D01*
X172907142Y-91760000D01*
X172864285Y-91685714D01*
X172778571Y-91611428D01*
X172607142Y-91574285D01*
X172307142Y-91574285D01*
X172135714Y-91611428D01*
X172050000Y-91685714D01*
X172007142Y-91760000D01*
X172907142Y-92428571D02*
X172007142Y-92428571D01*
X172650000Y-92688571D01*
X172007142Y-92948571D01*
X172907142Y-92948571D01*
X172435714Y-93320000D02*
X172435714Y-93580000D01*
X172907142Y-93691428D02*
X172907142Y-93320000D01*
X172007142Y-93320000D01*
X172007142Y-93691428D01*
X172007142Y-93914285D02*
X172007142Y-94360000D01*
X172907142Y-94137142D02*
X172007142Y-94137142D01*
X172435714Y-94620000D02*
X172435714Y-94880000D01*
X172907142Y-94991428D02*
X172907142Y-94620000D01*
X172007142Y-94620000D01*
X172007142Y-94991428D01*
X172907142Y-95771428D02*
X172478571Y-95511428D01*
X172907142Y-95325714D02*
X172007142Y-95325714D01*
X172007142Y-95622857D01*
X172050000Y-95697142D01*
X172092857Y-95734285D01*
X172178571Y-95771428D01*
X172307142Y-95771428D01*
X172392857Y-95734285D01*
X172435714Y-95697142D01*
X172478571Y-95622857D01*
X172478571Y-95325714D01*
X172864285Y-96068571D02*
X172907142Y-96180000D01*
X172907142Y-96365714D01*
X172864285Y-96440000D01*
X172821428Y-96477142D01*
X172735714Y-96514285D01*
X172650000Y-96514285D01*
X172564285Y-96477142D01*
X172521428Y-96440000D01*
X172478571Y-96365714D01*
X172435714Y-96217142D01*
X172392857Y-96142857D01*
X172350000Y-96105714D01*
X172264285Y-96068571D01*
X172178571Y-96068571D01*
X172092857Y-96105714D01*
X172050000Y-96142857D01*
X172007142Y-96217142D01*
X172007142Y-96402857D01*
X172050000Y-96514285D01*
X172821428Y-96848571D02*
X172864285Y-96885714D01*
X172907142Y-96848571D01*
X172864285Y-96811428D01*
X172821428Y-96848571D01*
X172907142Y-96848571D01*
X172435714Y-97220000D02*
X172435714Y-97480000D01*
X172907142Y-97591428D02*
X172907142Y-97220000D01*
X172007142Y-97220000D01*
X172007142Y-97591428D01*
X172007142Y-97925714D02*
X172735714Y-97925714D01*
X172821428Y-97962857D01*
X172864285Y-98000000D01*
X172907142Y-98074285D01*
X172907142Y-98222857D01*
X172864285Y-98297142D01*
X172821428Y-98334285D01*
X172735714Y-98371428D01*
X172007142Y-98371428D01*
D12*
%TO.P,P1,S1,SHIELD*%
%TO.N,GND*%
X125215000Y-84580000D03*
X125215000Y-93220000D03*
D13*
X129385000Y-84580000D03*
X129385000Y-93220000D03*
%TD*%
D14*
%TO.P,J1,*%
%TO.N,*%
X168050000Y-94470000D03*
X168050000Y-83040000D03*
D15*
%TO.P,J1,1*%
%TO.N,GND*%
X161700000Y-93200000D03*
D16*
%TO.P,J1,2*%
%TO.N,unconnected-(J1-Pad2)*%
X159160000Y-91930000D03*
%TO.P,J1,3*%
%TO.N,unconnected-(J1-Pad3)*%
X161700000Y-90660000D03*
%TO.P,J1,4*%
%TO.N,GND*%
X159160000Y-89390000D03*
%TO.P,J1,5*%
%TO.N,RXD*%
X161700000Y-88120000D03*
%TO.P,J1,6*%
%TO.N,TXD*%
X159160000Y-86850000D03*
%TO.P,J1,7*%
%TO.N,+12V*%
X161700000Y-85580000D03*
%TO.P,J1,8*%
X159160000Y-84310000D03*
%TD*%
D17*
%TO.N,GND*%
X145000000Y-81300000D03*
X142900000Y-91800000D03*
X147100000Y-81300000D03*
X132200000Y-87800000D03*
%TO.N,+5V*%
X132223000Y-86487000D03*
X131300000Y-90800000D03*
%TO.N,+3V3*%
X159500000Y-93700000D03*
X138300000Y-90800000D03*
%TO.N,/D+i*%
X142250000Y-81400000D03*
X138300000Y-89100000D03*
%TD*%
D18*
%TO.N,+5V*%
X131260000Y-90740000D02*
X131260000Y-87450000D01*
X131260000Y-87450000D02*
X132223000Y-86487000D01*
%TO.N,+3V3*%
X138300000Y-90800000D02*
X138524511Y-90575489D01*
X154403212Y-90575489D02*
X157527723Y-93700000D01*
X157527723Y-93700000D02*
X159500000Y-93700000D01*
X138524511Y-90575489D02*
X154403212Y-90575489D01*
D19*
%TO.N,/D+i*%
X138300000Y-89100000D02*
X138300000Y-85300000D01*
X138300000Y-88100000D02*
X138300000Y-89100000D01*
X138300000Y-85300000D02*
X142100000Y-81500000D01*
X142200000Y-81400000D02*
X142250000Y-81400000D01*
X138290932Y-86910500D02*
X138290932Y-88090932D01*
X142100000Y-81500000D02*
X142200000Y-81400000D01*
X138290932Y-88090932D02*
X138300000Y-88100000D01*
%TD*%
%TA.AperFunction,Conductor*%
%TO.N,GND*%
G36*
X171142121Y-79223502D02*
G01*
X171188614Y-79277158D01*
X171200000Y-79329500D01*
X171200000Y-98470500D01*
X171179998Y-98538621D01*
X171126342Y-98585114D01*
X171074000Y-98596500D01*
X124057000Y-98596500D01*
X123988879Y-98576498D01*
X123942386Y-98522842D01*
X123931000Y-98470500D01*
X123931000Y-93129689D01*
X142949500Y-93129689D01*
X142949500Y-93854415D01*
X142951833Y-93879801D01*
X142963927Y-94011422D01*
X142964686Y-94019685D01*
X142966254Y-94025244D01*
X142966254Y-94025245D01*
X143008631Y-94175500D01*
X143024569Y-94232013D01*
X143027121Y-94237189D01*
X143027123Y-94237193D01*
X143106904Y-94398973D01*
X143122142Y-94429872D01*
X143125596Y-94434498D01*
X143125597Y-94434499D01*
X143138643Y-94451970D01*
X143254139Y-94606637D01*
X143258373Y-94610551D01*
X143258375Y-94610553D01*
X143399747Y-94741235D01*
X143416138Y-94756387D01*
X143602714Y-94874108D01*
X143608074Y-94876246D01*
X143608077Y-94876248D01*
X143751385Y-94933422D01*
X143807245Y-94977243D01*
X143830545Y-95044307D01*
X143813889Y-95113322D01*
X143762565Y-95162377D01*
X143748305Y-95168664D01*
X143636438Y-95209933D01*
X143636430Y-95209937D01*
X143631019Y-95211933D01*
X143626058Y-95214885D01*
X143626057Y-95214885D01*
X143446393Y-95321774D01*
X143446390Y-95321776D01*
X143441425Y-95324730D01*
X143275561Y-95470189D01*
X143138983Y-95643438D01*
X143136294Y-95648549D01*
X143136292Y-95648552D01*
X143083950Y-95748038D01*
X143036263Y-95838675D01*
X142970843Y-96049362D01*
X142949500Y-96229689D01*
X142949500Y-96954415D01*
X142964686Y-97119685D01*
X143024569Y-97332013D01*
X143027121Y-97337189D01*
X143027123Y-97337193D01*
X143039024Y-97361325D01*
X143122142Y-97529872D01*
X143125596Y-97534498D01*
X143125597Y-97534499D01*
X143142072Y-97556562D01*
X143254139Y-97706637D01*
X143258373Y-97710551D01*
X143258375Y-97710553D01*
X143279209Y-97729811D01*
X143416138Y-97856387D01*
X143602714Y-97974108D01*
X143807620Y-98055857D01*
X143813280Y-98056983D01*
X143813284Y-98056984D01*
X144018324Y-98097769D01*
X144018327Y-98097769D01*
X144023991Y-98098896D01*
X144029766Y-98098972D01*
X144029770Y-98098972D01*
X144140677Y-98100424D01*
X144244582Y-98101784D01*
X144250279Y-98100805D01*
X144250280Y-98100805D01*
X144456309Y-98065403D01*
X144456310Y-98065403D01*
X144462006Y-98064424D01*
X144668981Y-97988067D01*
X144697619Y-97971029D01*
X144853607Y-97878226D01*
X144853610Y-97878224D01*
X144858575Y-97875270D01*
X145024439Y-97729811D01*
X145161017Y-97556562D01*
X145175060Y-97529872D01*
X145261045Y-97366441D01*
X145263737Y-97361325D01*
X145329157Y-97150638D01*
X145350500Y-96970311D01*
X145350500Y-96245585D01*
X145335314Y-96080315D01*
X145328202Y-96055099D01*
X145276999Y-95873546D01*
X145276998Y-95873544D01*
X145275431Y-95867987D01*
X145264169Y-95845148D01*
X145180413Y-95675309D01*
X145177858Y-95670128D01*
X145161747Y-95648552D01*
X145049314Y-95497987D01*
X145049313Y-95497986D01*
X145045861Y-95493363D01*
X145041625Y-95489447D01*
X144888103Y-95347533D01*
X144888101Y-95347531D01*
X144883862Y-95343613D01*
X144697286Y-95225892D01*
X144691926Y-95223754D01*
X144691923Y-95223752D01*
X144548615Y-95166578D01*
X144492755Y-95122757D01*
X144469455Y-95055693D01*
X144486111Y-94986678D01*
X144537435Y-94937623D01*
X144551695Y-94931336D01*
X144663562Y-94890067D01*
X144663570Y-94890063D01*
X144668981Y-94888067D01*
X144818672Y-94799010D01*
X144853607Y-94778226D01*
X144853610Y-94778224D01*
X144858575Y-94775270D01*
X145024439Y-94629811D01*
X145161017Y-94456562D01*
X145165685Y-94447690D01*
X165919617Y-94447690D01*
X165936300Y-94737022D01*
X165937125Y-94741227D01*
X165937126Y-94741235D01*
X165948461Y-94799010D01*
X165992095Y-95021414D01*
X165993482Y-95025464D01*
X165993483Y-95025469D01*
X166063158Y-95228971D01*
X166085971Y-95295602D01*
X166118693Y-95360662D01*
X166187760Y-95497987D01*
X166216189Y-95554513D01*
X166218615Y-95558042D01*
X166218618Y-95558048D01*
X166280820Y-95648552D01*
X166380341Y-95793355D01*
X166575389Y-96007710D01*
X166578677Y-96010459D01*
X166794432Y-96190859D01*
X166794437Y-96190863D01*
X166797724Y-96193611D01*
X166859073Y-96232095D01*
X167039591Y-96345334D01*
X167039595Y-96345336D01*
X167043231Y-96347617D01*
X167047141Y-96349382D01*
X167047142Y-96349383D01*
X167303455Y-96465113D01*
X167303459Y-96465115D01*
X167307367Y-96466879D01*
X167311486Y-96468099D01*
X167581133Y-96547973D01*
X167581138Y-96547974D01*
X167585246Y-96549191D01*
X167589480Y-96549839D01*
X167589485Y-96549840D01*
X167867482Y-96592379D01*
X167867484Y-96592379D01*
X167871724Y-96593028D01*
X168019285Y-96595346D01*
X168157211Y-96597513D01*
X168157217Y-96597513D01*
X168161502Y-96597580D01*
X168449216Y-96562763D01*
X168729543Y-96489221D01*
X168997295Y-96378314D01*
X169247519Y-96232095D01*
X169250879Y-96229461D01*
X169250887Y-96229455D01*
X169472211Y-96055914D01*
X169475583Y-96053270D01*
X169484717Y-96043845D01*
X169674284Y-95848226D01*
X169677267Y-95845148D01*
X169848841Y-95611579D01*
X169879825Y-95554513D01*
X169985078Y-95360662D01*
X169985079Y-95360660D01*
X169987128Y-95356886D01*
X170089569Y-95085782D01*
X170154270Y-94803284D01*
X170180033Y-94514618D01*
X170180500Y-94470000D01*
X170175658Y-94398973D01*
X170161080Y-94185135D01*
X170161079Y-94185129D01*
X170160788Y-94180858D01*
X170159679Y-94175500D01*
X170127411Y-94019685D01*
X170102018Y-93897066D01*
X170005276Y-93623876D01*
X169994733Y-93603448D01*
X169874319Y-93370150D01*
X169874319Y-93370149D01*
X169872354Y-93366343D01*
X169856533Y-93343831D01*
X169708176Y-93132743D01*
X169708175Y-93132742D01*
X169705709Y-93129233D01*
X169508428Y-92916932D01*
X169284159Y-92733370D01*
X169037052Y-92581943D01*
X169033135Y-92580224D01*
X169033132Y-92580222D01*
X168865417Y-92506601D01*
X168771681Y-92465454D01*
X168767553Y-92464278D01*
X168767550Y-92464277D01*
X168681115Y-92439656D01*
X168492956Y-92386057D01*
X168488714Y-92385453D01*
X168488708Y-92385452D01*
X168210285Y-92345827D01*
X168206034Y-92345222D01*
X168201745Y-92345200D01*
X168201738Y-92345199D01*
X167920511Y-92343726D01*
X167920504Y-92343726D01*
X167916225Y-92343704D01*
X167911981Y-92344263D01*
X167911977Y-92344263D01*
X167820943Y-92356248D01*
X167628891Y-92381532D01*
X167624751Y-92382665D01*
X167624749Y-92382665D01*
X167585644Y-92393363D01*
X167349350Y-92458006D01*
X167345402Y-92459690D01*
X167086725Y-92570025D01*
X167086721Y-92570027D01*
X167082773Y-92571711D01*
X166834095Y-92720542D01*
X166830744Y-92723226D01*
X166830742Y-92723228D01*
X166781339Y-92762807D01*
X166607916Y-92901745D01*
X166408422Y-93111968D01*
X166239304Y-93347321D01*
X166103691Y-93603448D01*
X166004094Y-93875609D01*
X165942355Y-94158770D01*
X165942019Y-94163040D01*
X165923242Y-94401635D01*
X165919617Y-94447690D01*
X145165685Y-94447690D01*
X145175060Y-94429872D01*
X145249899Y-94287626D01*
X145263737Y-94261325D01*
X145329157Y-94050638D01*
X145333502Y-94013931D01*
X145350064Y-93873998D01*
X145350064Y-93873992D01*
X145350500Y-93870311D01*
X145350500Y-93145585D01*
X145337021Y-92998888D01*
X145335843Y-92986069D01*
X145335842Y-92986066D01*
X145335314Y-92980315D01*
X145290435Y-92821188D01*
X145276999Y-92773546D01*
X145276998Y-92773544D01*
X145275431Y-92767987D01*
X145263698Y-92744193D01*
X145180413Y-92575309D01*
X145177858Y-92570128D01*
X145161747Y-92548552D01*
X145049314Y-92397987D01*
X145049313Y-92397986D01*
X145045861Y-92393363D01*
X145039231Y-92387234D01*
X144888103Y-92247533D01*
X144888101Y-92247531D01*
X144883862Y-92243613D01*
X144697286Y-92125892D01*
X144492380Y-92044143D01*
X144486720Y-92043017D01*
X144486716Y-92043016D01*
X144281676Y-92002231D01*
X144281673Y-92002231D01*
X144276009Y-92001104D01*
X144270234Y-92001028D01*
X144270230Y-92001028D01*
X144159323Y-91999576D01*
X144055418Y-91998216D01*
X144049721Y-91999195D01*
X144049720Y-91999195D01*
X143875979Y-92029049D01*
X143837994Y-92035576D01*
X143631019Y-92111933D01*
X143626058Y-92114885D01*
X143626057Y-92114885D01*
X143446393Y-92221774D01*
X143446390Y-92221776D01*
X143441425Y-92224730D01*
X143275561Y-92370189D01*
X143138983Y-92543438D01*
X143136294Y-92548549D01*
X143136292Y-92548552D01*
X143119630Y-92580222D01*
X143036263Y-92738675D01*
X142970843Y-92949362D01*
X142970164Y-92955099D01*
X142950465Y-93121538D01*
X142949500Y-93129689D01*
X123931000Y-93129689D01*
X123931000Y-91710977D01*
X128279472Y-91710977D01*
X128279472Y-91869023D01*
X128281443Y-91876698D01*
X128281443Y-91876701D01*
X128291344Y-91915263D01*
X128318776Y-92022103D01*
X128322592Y-92029045D01*
X128322594Y-92029049D01*
X128376146Y-92126458D01*
X128394915Y-92160599D01*
X128400340Y-92166376D01*
X128458716Y-92228540D01*
X128503104Y-92275809D01*
X128509799Y-92280057D01*
X128509798Y-92280057D01*
X128629856Y-92356248D01*
X128629859Y-92356250D01*
X128636546Y-92360493D01*
X128701297Y-92381532D01*
X128779318Y-92406883D01*
X128779320Y-92406883D01*
X128786856Y-92409332D01*
X128794765Y-92409830D01*
X128794767Y-92409830D01*
X128865723Y-92414294D01*
X128944589Y-92419256D01*
X128952374Y-92417771D01*
X129092048Y-92391127D01*
X129092052Y-92391126D01*
X129099835Y-92389641D01*
X129242839Y-92322349D01*
X129364615Y-92221607D01*
X129402330Y-92169696D01*
X129452852Y-92100159D01*
X129452853Y-92100157D01*
X129457511Y-92093746D01*
X129477151Y-92044143D01*
X129512775Y-91954167D01*
X129512775Y-91954165D01*
X129515692Y-91946799D01*
X129517370Y-91933522D01*
X129534506Y-91797868D01*
X129535500Y-91790000D01*
X129526236Y-91716668D01*
X129516686Y-91641066D01*
X129516685Y-91641063D01*
X129515692Y-91633201D01*
X129512134Y-91624214D01*
X129460429Y-91493623D01*
X129460428Y-91493621D01*
X129457511Y-91486254D01*
X129436899Y-91457883D01*
X129369275Y-91364807D01*
X129364615Y-91358393D01*
X129242839Y-91257651D01*
X129099835Y-91190359D01*
X129092052Y-91188874D01*
X129092048Y-91188873D01*
X128952374Y-91162229D01*
X128952373Y-91162229D01*
X128944589Y-91160744D01*
X128865723Y-91165706D01*
X128794767Y-91170170D01*
X128794765Y-91170170D01*
X128786856Y-91170668D01*
X128779320Y-91173117D01*
X128779318Y-91173117D01*
X128711701Y-91195087D01*
X128636546Y-91219507D01*
X128629859Y-91223750D01*
X128629856Y-91223752D01*
X128545106Y-91277536D01*
X128503104Y-91304191D01*
X128497676Y-91309971D01*
X128497675Y-91309972D01*
X128429384Y-91382695D01*
X128394915Y-91419401D01*
X128391098Y-91426344D01*
X128322594Y-91550951D01*
X128322592Y-91550955D01*
X128318776Y-91557897D01*
X128316805Y-91565574D01*
X128282428Y-91699465D01*
X128279472Y-91710977D01*
X123931000Y-91710977D01*
X123931000Y-90792612D01*
X130594539Y-90792612D01*
X130613140Y-90961102D01*
X130615750Y-90968233D01*
X130659540Y-91087894D01*
X130671395Y-91120290D01*
X130675631Y-91126593D01*
X130675631Y-91126594D01*
X130684557Y-91139877D01*
X130765940Y-91260988D01*
X130891317Y-91375073D01*
X131040288Y-91455957D01*
X131204253Y-91498973D01*
X131292481Y-91500359D01*
X131366147Y-91501516D01*
X131366150Y-91501516D01*
X131373745Y-91501635D01*
X131440902Y-91486254D01*
X131531577Y-91465487D01*
X131531581Y-91465486D01*
X131538980Y-91463791D01*
X131690418Y-91387626D01*
X131819316Y-91277536D01*
X131918234Y-91139877D01*
X131940915Y-91083458D01*
X131978626Y-90989650D01*
X131978627Y-90989648D01*
X131981461Y-90982597D01*
X131996762Y-90875085D01*
X132004764Y-90818859D01*
X132004764Y-90818856D01*
X132005345Y-90814775D01*
X132005500Y-90800000D01*
X132004606Y-90792612D01*
X137594539Y-90792612D01*
X137613140Y-90961102D01*
X137615750Y-90968233D01*
X137659540Y-91087894D01*
X137671395Y-91120290D01*
X137675631Y-91126593D01*
X137675631Y-91126594D01*
X137684557Y-91139877D01*
X137765940Y-91260988D01*
X137891317Y-91375073D01*
X138040288Y-91455957D01*
X138204253Y-91498973D01*
X138292481Y-91500359D01*
X138366147Y-91501516D01*
X138366150Y-91501516D01*
X138373745Y-91501635D01*
X138440902Y-91486254D01*
X138531577Y-91465487D01*
X138531581Y-91465486D01*
X138538980Y-91463791D01*
X138690418Y-91387626D01*
X138819316Y-91277536D01*
X138918234Y-91139877D01*
X138922209Y-91129990D01*
X138923592Y-91128236D01*
X138924726Y-91126174D01*
X138925070Y-91126363D01*
X138966177Y-91074247D01*
X139039115Y-91050989D01*
X154154064Y-91050989D01*
X154222185Y-91070991D01*
X154243159Y-91087894D01*
X155693688Y-92538424D01*
X157143502Y-93988238D01*
X157150782Y-93997348D01*
X157151197Y-93996995D01*
X157157013Y-94003829D01*
X157161804Y-94011422D01*
X157168532Y-94017364D01*
X157168533Y-94017365D01*
X157200669Y-94045746D01*
X157206357Y-94051093D01*
X157216180Y-94060916D01*
X157221472Y-94064882D01*
X157223130Y-94066125D01*
X157230970Y-94072507D01*
X157257191Y-94095664D01*
X157263918Y-94101605D01*
X157272042Y-94105419D01*
X157277355Y-94108909D01*
X157284219Y-94113033D01*
X157289793Y-94116085D01*
X157296976Y-94121468D01*
X157331933Y-94134573D01*
X157338125Y-94136894D01*
X157347445Y-94140821D01*
X157387238Y-94159504D01*
X157396109Y-94160885D01*
X157402195Y-94162746D01*
X157409931Y-94164775D01*
X157416136Y-94166139D01*
X157424543Y-94169291D01*
X157447764Y-94171016D01*
X157468386Y-94172549D01*
X157478431Y-94173703D01*
X157481476Y-94174177D01*
X157489972Y-94175500D01*
X157503416Y-94175500D01*
X157512753Y-94175846D01*
X157560404Y-94179387D01*
X157569180Y-94177514D01*
X157578137Y-94176903D01*
X157578140Y-94176954D01*
X157591913Y-94175500D01*
X158933142Y-94175500D01*
X159001263Y-94195502D01*
X159017941Y-94208306D01*
X159043995Y-94232013D01*
X159091317Y-94275073D01*
X159240288Y-94355957D01*
X159404253Y-94398973D01*
X159492481Y-94400359D01*
X159566147Y-94401516D01*
X159566150Y-94401516D01*
X159573745Y-94401635D01*
X159632841Y-94388100D01*
X159731577Y-94365487D01*
X159731581Y-94365486D01*
X159738980Y-94363791D01*
X159890418Y-94287626D01*
X160019316Y-94177536D01*
X160118234Y-94039877D01*
X160138993Y-93988238D01*
X160178626Y-93889650D01*
X160178627Y-93889648D01*
X160181461Y-93882597D01*
X160205345Y-93714775D01*
X160205500Y-93700000D01*
X160185135Y-93531715D01*
X160125217Y-93373145D01*
X160120918Y-93366890D01*
X160120916Y-93366886D01*
X160033505Y-93239703D01*
X160033504Y-93239701D01*
X160029203Y-93233444D01*
X160019165Y-93224500D01*
X159973612Y-93183914D01*
X159902638Y-93120679D01*
X159894736Y-93116495D01*
X159759544Y-93044914D01*
X159759541Y-93044913D01*
X159752829Y-93041359D01*
X159750223Y-93040704D01*
X159695460Y-92998888D01*
X159671285Y-92932135D01*
X159687037Y-92862908D01*
X159725978Y-92821717D01*
X159725565Y-92821188D01*
X159729059Y-92818458D01*
X159730414Y-92817400D01*
X159730418Y-92817397D01*
X159800289Y-92762807D01*
X159887893Y-92694363D01*
X159891919Y-92689699D01*
X159891922Y-92689696D01*
X160018467Y-92543092D01*
X160018468Y-92543090D01*
X160022496Y-92538424D01*
X160124247Y-92359311D01*
X160189270Y-92163844D01*
X160215088Y-91959471D01*
X160215500Y-91930000D01*
X160195398Y-91724986D01*
X160193563Y-91718906D01*
X160137639Y-91533679D01*
X160135858Y-91527780D01*
X160087503Y-91436837D01*
X160042042Y-91351337D01*
X160042040Y-91351334D01*
X160039148Y-91345895D01*
X160035258Y-91341125D01*
X160035255Y-91341121D01*
X159912847Y-91191034D01*
X159912844Y-91191031D01*
X159908952Y-91186259D01*
X159878110Y-91160744D01*
X159754978Y-91058880D01*
X159754974Y-91058878D01*
X159750228Y-91054951D01*
X159569023Y-90956973D01*
X159372238Y-90896058D01*
X159366116Y-90895415D01*
X159366113Y-90895414D01*
X159173498Y-90875170D01*
X159173496Y-90875170D01*
X159167369Y-90874526D01*
X159081346Y-90882355D01*
X158968358Y-90892637D01*
X158968355Y-90892638D01*
X158962219Y-90893196D01*
X158956313Y-90894934D01*
X158956309Y-90894935D01*
X158807368Y-90938771D01*
X158764603Y-90951357D01*
X158582047Y-91046795D01*
X158421505Y-91175874D01*
X158289093Y-91333677D01*
X158286129Y-91339069D01*
X158286126Y-91339073D01*
X158217562Y-91463791D01*
X158189853Y-91514194D01*
X158187992Y-91520061D01*
X158187991Y-91520063D01*
X158178193Y-91550951D01*
X158127565Y-91710549D01*
X158104603Y-91915263D01*
X158121840Y-92120538D01*
X158134258Y-92163844D01*
X158167582Y-92280057D01*
X158178621Y-92318555D01*
X158181436Y-92324032D01*
X158254117Y-92465454D01*
X158272782Y-92501773D01*
X158400737Y-92663212D01*
X158405430Y-92667206D01*
X158405431Y-92667207D01*
X158483395Y-92733559D01*
X158557612Y-92796723D01*
X158737432Y-92897221D01*
X158933347Y-92960878D01*
X158939461Y-92961607D01*
X158939470Y-92961609D01*
X158958261Y-92963850D01*
X159023534Y-92991778D01*
X159063346Y-93050562D01*
X159065056Y-93121538D01*
X159026168Y-93183912D01*
X159015233Y-93193452D01*
X158950751Y-93223158D01*
X158932407Y-93224500D01*
X157776871Y-93224500D01*
X157708750Y-93204498D01*
X157687776Y-93187595D01*
X155145445Y-90645263D01*
X160644603Y-90645263D01*
X160661840Y-90850538D01*
X160673912Y-90892637D01*
X160697550Y-90975071D01*
X160718621Y-91048555D01*
X160721434Y-91054029D01*
X160721435Y-91054031D01*
X160806478Y-91219507D01*
X160812782Y-91231773D01*
X160940737Y-91393212D01*
X160945430Y-91397206D01*
X160945431Y-91397207D01*
X161092460Y-91522338D01*
X161097612Y-91526723D01*
X161277432Y-91627221D01*
X161473347Y-91690878D01*
X161677895Y-91715269D01*
X161684030Y-91714797D01*
X161684032Y-91714797D01*
X161877144Y-91699938D01*
X161877148Y-91699937D01*
X161883286Y-91699465D01*
X162081695Y-91644068D01*
X162265565Y-91551188D01*
X162287976Y-91533679D01*
X162334865Y-91497045D01*
X162427893Y-91424363D01*
X162431919Y-91419699D01*
X162431922Y-91419696D01*
X162558467Y-91273092D01*
X162558468Y-91273090D01*
X162562496Y-91268424D01*
X162664247Y-91089311D01*
X162729270Y-90893844D01*
X162755088Y-90689471D01*
X162755500Y-90660000D01*
X162735398Y-90454986D01*
X162675858Y-90257780D01*
X162619013Y-90150870D01*
X162582042Y-90081337D01*
X162582040Y-90081334D01*
X162579148Y-90075895D01*
X162575258Y-90071125D01*
X162575255Y-90071121D01*
X162452847Y-89921034D01*
X162452844Y-89921031D01*
X162448952Y-89916259D01*
X162431734Y-89902015D01*
X162294978Y-89788880D01*
X162294974Y-89788878D01*
X162290228Y-89784951D01*
X162109023Y-89686973D01*
X161912238Y-89626058D01*
X161906116Y-89625415D01*
X161906113Y-89625414D01*
X161713498Y-89605170D01*
X161713496Y-89605170D01*
X161707369Y-89604526D01*
X161621346Y-89612355D01*
X161508358Y-89622637D01*
X161508355Y-89622638D01*
X161502219Y-89623196D01*
X161496313Y-89624934D01*
X161496309Y-89624935D01*
X161347368Y-89668771D01*
X161304603Y-89681357D01*
X161122047Y-89776795D01*
X160961505Y-89905874D01*
X160829093Y-90063677D01*
X160826129Y-90069069D01*
X160826126Y-90069073D01*
X160768506Y-90173884D01*
X160729853Y-90244194D01*
X160727992Y-90250061D01*
X160727991Y-90250063D01*
X160698709Y-90342372D01*
X160667565Y-90440549D01*
X160644603Y-90645263D01*
X155145445Y-90645263D01*
X154787433Y-90287251D01*
X154780153Y-90278141D01*
X154779738Y-90278494D01*
X154773922Y-90271660D01*
X154769131Y-90264067D01*
X154753156Y-90249958D01*
X154730266Y-90229743D01*
X154724578Y-90224396D01*
X154714755Y-90214573D01*
X154709463Y-90210607D01*
X154707805Y-90209364D01*
X154699965Y-90202982D01*
X154673744Y-90179825D01*
X154667017Y-90173884D01*
X154658893Y-90170070D01*
X154653580Y-90166580D01*
X154646716Y-90162456D01*
X154641142Y-90159404D01*
X154633959Y-90154021D01*
X154592810Y-90138595D01*
X154583490Y-90134668D01*
X154577885Y-90132037D01*
X154543697Y-90115985D01*
X154534826Y-90114604D01*
X154528740Y-90112743D01*
X154521004Y-90110714D01*
X154514799Y-90109350D01*
X154506392Y-90106198D01*
X154483171Y-90104473D01*
X154462549Y-90102940D01*
X154452504Y-90101786D01*
X154449459Y-90101312D01*
X154440963Y-90099989D01*
X154427519Y-90099989D01*
X154418182Y-90099643D01*
X154412436Y-90099216D01*
X154370531Y-90096102D01*
X154361755Y-90097975D01*
X154352798Y-90098586D01*
X154352795Y-90098535D01*
X154339022Y-90099989D01*
X138592384Y-90099989D01*
X138580795Y-90098694D01*
X138580751Y-90099237D01*
X138571802Y-90098517D01*
X138563047Y-90096536D01*
X138528268Y-90098694D01*
X138511297Y-90099747D01*
X138503494Y-90099989D01*
X138489599Y-90099989D01*
X138485170Y-90100623D01*
X138485162Y-90100624D01*
X138481003Y-90101220D01*
X138470938Y-90102252D01*
X138443487Y-90103955D01*
X138431278Y-90104712D01*
X138403418Y-90102140D01*
X138403326Y-90102866D01*
X138395795Y-90101915D01*
X138388423Y-90100063D01*
X138380823Y-90100023D01*
X138380821Y-90100023D01*
X138308158Y-90099643D01*
X138218912Y-90099176D01*
X138211533Y-90100948D01*
X138211529Y-90100948D01*
X138061461Y-90136976D01*
X138061457Y-90136977D01*
X138054082Y-90138748D01*
X137903450Y-90216495D01*
X137897728Y-90221487D01*
X137897726Y-90221488D01*
X137848917Y-90264067D01*
X137775711Y-90327928D01*
X137761587Y-90348024D01*
X137690562Y-90449083D01*
X137678240Y-90466615D01*
X137616665Y-90624549D01*
X137615674Y-90632078D01*
X137607657Y-90692975D01*
X137594539Y-90792612D01*
X132004606Y-90792612D01*
X131985135Y-90631715D01*
X131982427Y-90624549D01*
X131927902Y-90480250D01*
X131927901Y-90480248D01*
X131925217Y-90473145D01*
X131920918Y-90466890D01*
X131920916Y-90466886D01*
X131833505Y-90339703D01*
X131833504Y-90339701D01*
X131829203Y-90333444D01*
X131777681Y-90287539D01*
X131740126Y-90227290D01*
X131735500Y-90193463D01*
X131735500Y-89092612D01*
X137594539Y-89092612D01*
X137613140Y-89261102D01*
X137671395Y-89420290D01*
X137675631Y-89426593D01*
X137675631Y-89426594D01*
X137684557Y-89439877D01*
X137765940Y-89560988D01*
X137891317Y-89675073D01*
X138040288Y-89755957D01*
X138204253Y-89798973D01*
X138292481Y-89800359D01*
X138366147Y-89801516D01*
X138366150Y-89801516D01*
X138373745Y-89801635D01*
X138446591Y-89784951D01*
X138531577Y-89765487D01*
X138531581Y-89765486D01*
X138538980Y-89763791D01*
X138690418Y-89687626D01*
X138786961Y-89605170D01*
X138813544Y-89582466D01*
X138813545Y-89582465D01*
X138819316Y-89577536D01*
X138918234Y-89439877D01*
X138981461Y-89282597D01*
X138996803Y-89174797D01*
X139004764Y-89118859D01*
X139004764Y-89118856D01*
X139005345Y-89114775D01*
X139005500Y-89100000D01*
X139003590Y-89084214D01*
X138986048Y-88939258D01*
X138986048Y-88939257D01*
X138985135Y-88931715D01*
X138982427Y-88924549D01*
X138927902Y-88780250D01*
X138927901Y-88780248D01*
X138925217Y-88773145D01*
X138920918Y-88766890D01*
X138920916Y-88766886D01*
X138833505Y-88639703D01*
X138833504Y-88639701D01*
X138829203Y-88633444D01*
X138817411Y-88622937D01*
X138792681Y-88600904D01*
X138755125Y-88540654D01*
X138750500Y-88506828D01*
X138750500Y-88133470D01*
X138751373Y-88118661D01*
X138752959Y-88105263D01*
X160644603Y-88105263D01*
X160661840Y-88310538D01*
X160718621Y-88508555D01*
X160812782Y-88691773D01*
X160940737Y-88853212D01*
X160945430Y-88857206D01*
X160945431Y-88857207D01*
X160971856Y-88879696D01*
X161097612Y-88986723D01*
X161277432Y-89087221D01*
X161473347Y-89150878D01*
X161677895Y-89175269D01*
X161684030Y-89174797D01*
X161684032Y-89174797D01*
X161877144Y-89159938D01*
X161877148Y-89159937D01*
X161883286Y-89159465D01*
X162081695Y-89104068D01*
X162265565Y-89011188D01*
X162301990Y-88982730D01*
X162357631Y-88939258D01*
X162427893Y-88884363D01*
X162431919Y-88879699D01*
X162431922Y-88879696D01*
X162558467Y-88733092D01*
X162558468Y-88733090D01*
X162562496Y-88728424D01*
X162664247Y-88549311D01*
X162729270Y-88353844D01*
X162755088Y-88149471D01*
X162755500Y-88120000D01*
X162735398Y-87914986D01*
X162724526Y-87878974D01*
X162677639Y-87723679D01*
X162675858Y-87717780D01*
X162627503Y-87626837D01*
X162582042Y-87541337D01*
X162582040Y-87541334D01*
X162579148Y-87535895D01*
X162575258Y-87531125D01*
X162575255Y-87531121D01*
X162452847Y-87381034D01*
X162452844Y-87381031D01*
X162448952Y-87376259D01*
X162424189Y-87355773D01*
X162294978Y-87248880D01*
X162294974Y-87248878D01*
X162290228Y-87244951D01*
X162109023Y-87146973D01*
X161912238Y-87086058D01*
X161906116Y-87085415D01*
X161906113Y-87085414D01*
X161713498Y-87065170D01*
X161713496Y-87065170D01*
X161707369Y-87064526D01*
X161621346Y-87072355D01*
X161508358Y-87082637D01*
X161508355Y-87082638D01*
X161502219Y-87083196D01*
X161496313Y-87084934D01*
X161496309Y-87084935D01*
X161367159Y-87122946D01*
X161304603Y-87141357D01*
X161122047Y-87236795D01*
X160961505Y-87365874D01*
X160829093Y-87523677D01*
X160826129Y-87529069D01*
X160826126Y-87529073D01*
X160781607Y-87610053D01*
X160729853Y-87704194D01*
X160727992Y-87710061D01*
X160727991Y-87710063D01*
X160718118Y-87741188D01*
X160667565Y-87900549D01*
X160644603Y-88105263D01*
X138752959Y-88105263D01*
X138754168Y-88095045D01*
X138755275Y-88085692D01*
X138752550Y-88070771D01*
X138750500Y-88048134D01*
X138750500Y-86835263D01*
X158104603Y-86835263D01*
X158121840Y-87040538D01*
X158145470Y-87122946D01*
X158175497Y-87227659D01*
X158178621Y-87238555D01*
X158181434Y-87244029D01*
X158181435Y-87244031D01*
X158259383Y-87395701D01*
X158272782Y-87421773D01*
X158400737Y-87583212D01*
X158405430Y-87587206D01*
X158405431Y-87587207D01*
X158552460Y-87712338D01*
X158557612Y-87716723D01*
X158737432Y-87817221D01*
X158933347Y-87880878D01*
X159137895Y-87905269D01*
X159144030Y-87904797D01*
X159144032Y-87904797D01*
X159337144Y-87889938D01*
X159337148Y-87889937D01*
X159343286Y-87889465D01*
X159541695Y-87834068D01*
X159725565Y-87741188D01*
X159747976Y-87723679D01*
X159846173Y-87646958D01*
X159887893Y-87614363D01*
X159891919Y-87609699D01*
X159891922Y-87609696D01*
X160018467Y-87463092D01*
X160018468Y-87463090D01*
X160022496Y-87458424D01*
X160124247Y-87279311D01*
X160189270Y-87083844D01*
X160215088Y-86879471D01*
X160215500Y-86850000D01*
X160195398Y-86644986D01*
X160189933Y-86626883D01*
X160137639Y-86453679D01*
X160135858Y-86447780D01*
X160087503Y-86356837D01*
X160042042Y-86271337D01*
X160042040Y-86271334D01*
X160039148Y-86265895D01*
X160035258Y-86261125D01*
X160035255Y-86261121D01*
X159912847Y-86111034D01*
X159912844Y-86111031D01*
X159908952Y-86106259D01*
X159902103Y-86100593D01*
X159754978Y-85978880D01*
X159754974Y-85978878D01*
X159750228Y-85974951D01*
X159569023Y-85876973D01*
X159372238Y-85816058D01*
X159366116Y-85815415D01*
X159366113Y-85815414D01*
X159173498Y-85795170D01*
X159173496Y-85795170D01*
X159167369Y-85794526D01*
X159081346Y-85802355D01*
X158968358Y-85812637D01*
X158968355Y-85812638D01*
X158962219Y-85813196D01*
X158956313Y-85814934D01*
X158956309Y-85814935D01*
X158851327Y-85845833D01*
X158764603Y-85871357D01*
X158582047Y-85966795D01*
X158421505Y-86095874D01*
X158289093Y-86253677D01*
X158286129Y-86259069D01*
X158286126Y-86259073D01*
X158239238Y-86344363D01*
X158189853Y-86434194D01*
X158187992Y-86440061D01*
X158187991Y-86440063D01*
X158178118Y-86471188D01*
X158127565Y-86630549D01*
X158104603Y-86835263D01*
X138750500Y-86835263D01*
X138750500Y-85565263D01*
X160644603Y-85565263D01*
X160661840Y-85770538D01*
X160687799Y-85861066D01*
X160707846Y-85930977D01*
X160718621Y-85968555D01*
X160721434Y-85974029D01*
X160721435Y-85974031D01*
X160784054Y-86095874D01*
X160812782Y-86151773D01*
X160940737Y-86313212D01*
X160945430Y-86317206D01*
X160945431Y-86317207D01*
X161092460Y-86442338D01*
X161097612Y-86446723D01*
X161102990Y-86449729D01*
X161102992Y-86449730D01*
X161169679Y-86487000D01*
X161277432Y-86547221D01*
X161473347Y-86610878D01*
X161677895Y-86635269D01*
X161684030Y-86634797D01*
X161684032Y-86634797D01*
X161877144Y-86619938D01*
X161877148Y-86619937D01*
X161883286Y-86619465D01*
X162081695Y-86564068D01*
X162196929Y-86505859D01*
X162260068Y-86473965D01*
X162260070Y-86473964D01*
X162265565Y-86471188D01*
X162287976Y-86453679D01*
X162381513Y-86380599D01*
X162427893Y-86344363D01*
X162431919Y-86339699D01*
X162431922Y-86339696D01*
X162558467Y-86193092D01*
X162558468Y-86193090D01*
X162562496Y-86188424D01*
X162664247Y-86009311D01*
X162729270Y-85813844D01*
X162755088Y-85609471D01*
X162755500Y-85580000D01*
X162735398Y-85374986D01*
X162730411Y-85358466D01*
X162677639Y-85183679D01*
X162675858Y-85177780D01*
X162623488Y-85079287D01*
X162582042Y-85001337D01*
X162582040Y-85001334D01*
X162579148Y-84995895D01*
X162575258Y-84991125D01*
X162575255Y-84991121D01*
X162452847Y-84841034D01*
X162452844Y-84841031D01*
X162448952Y-84836259D01*
X162404464Y-84799455D01*
X162294978Y-84708880D01*
X162294974Y-84708878D01*
X162290228Y-84704951D01*
X162109023Y-84606973D01*
X161912238Y-84546058D01*
X161906116Y-84545415D01*
X161906113Y-84545414D01*
X161713498Y-84525170D01*
X161713496Y-84525170D01*
X161707369Y-84524526D01*
X161621346Y-84532355D01*
X161508358Y-84542637D01*
X161508355Y-84542638D01*
X161502219Y-84543196D01*
X161496313Y-84544934D01*
X161496309Y-84544935D01*
X161395713Y-84574542D01*
X161304603Y-84601357D01*
X161122047Y-84696795D01*
X160961505Y-84825874D01*
X160829093Y-84983677D01*
X160826129Y-84989069D01*
X160826126Y-84989073D01*
X160779238Y-85074363D01*
X160729853Y-85164194D01*
X160727992Y-85170061D01*
X160727991Y-85170063D01*
X160711559Y-85221862D01*
X160667565Y-85360549D01*
X160644603Y-85565263D01*
X138750500Y-85565263D01*
X138750500Y-85538793D01*
X138770502Y-85470672D01*
X138787405Y-85449698D01*
X139941840Y-84295263D01*
X158104603Y-84295263D01*
X158121840Y-84500538D01*
X158178621Y-84698555D01*
X158181434Y-84704029D01*
X158181435Y-84704031D01*
X158244054Y-84825874D01*
X158272782Y-84881773D01*
X158400737Y-85043212D01*
X158405430Y-85047206D01*
X158405431Y-85047207D01*
X158552460Y-85172338D01*
X158557612Y-85176723D01*
X158737432Y-85277221D01*
X158933347Y-85340878D01*
X159137895Y-85365269D01*
X159144030Y-85364797D01*
X159144032Y-85364797D01*
X159337144Y-85349938D01*
X159337148Y-85349937D01*
X159343286Y-85349465D01*
X159541695Y-85294068D01*
X159684638Y-85221862D01*
X159720068Y-85203965D01*
X159720070Y-85203964D01*
X159725565Y-85201188D01*
X159747976Y-85183679D01*
X159812484Y-85133279D01*
X159887893Y-85074363D01*
X159891919Y-85069699D01*
X159891922Y-85069696D01*
X160018467Y-84923092D01*
X160018468Y-84923090D01*
X160022496Y-84918424D01*
X160124247Y-84739311D01*
X160189270Y-84543844D01*
X160215088Y-84339471D01*
X160215500Y-84310000D01*
X160195398Y-84104986D01*
X160135858Y-83907780D01*
X160039148Y-83725895D01*
X160035258Y-83721125D01*
X160035255Y-83721121D01*
X159912847Y-83571034D01*
X159912844Y-83571031D01*
X159908952Y-83566259D01*
X159891734Y-83552015D01*
X159754978Y-83438880D01*
X159754974Y-83438878D01*
X159750228Y-83434951D01*
X159569023Y-83336973D01*
X159372238Y-83276058D01*
X159366116Y-83275415D01*
X159366113Y-83275414D01*
X159173498Y-83255170D01*
X159173496Y-83255170D01*
X159167369Y-83254526D01*
X159081346Y-83262355D01*
X158968358Y-83272637D01*
X158968355Y-83272638D01*
X158962219Y-83273196D01*
X158956313Y-83274934D01*
X158956309Y-83274935D01*
X158861853Y-83302735D01*
X158764603Y-83331357D01*
X158582047Y-83426795D01*
X158421505Y-83555874D01*
X158289093Y-83713677D01*
X158286129Y-83719069D01*
X158286126Y-83719073D01*
X158282376Y-83725895D01*
X158189853Y-83894194D01*
X158187992Y-83900061D01*
X158187991Y-83900063D01*
X158158709Y-83992371D01*
X158127565Y-84090549D01*
X158104603Y-84295263D01*
X139941840Y-84295263D01*
X141219413Y-83017690D01*
X165919617Y-83017690D01*
X165936300Y-83307022D01*
X165937125Y-83311227D01*
X165937126Y-83311235D01*
X165960823Y-83432020D01*
X165992095Y-83591414D01*
X165993482Y-83595464D01*
X165993483Y-83595469D01*
X166084582Y-83861546D01*
X166085971Y-83865602D01*
X166216189Y-84124513D01*
X166218615Y-84128042D01*
X166218618Y-84128048D01*
X166255409Y-84181579D01*
X166380341Y-84363355D01*
X166383222Y-84366521D01*
X166543984Y-84543196D01*
X166575389Y-84577710D01*
X166607084Y-84604211D01*
X166794432Y-84760859D01*
X166794437Y-84760863D01*
X166797724Y-84763611D01*
X166859073Y-84802095D01*
X167039591Y-84915334D01*
X167039595Y-84915336D01*
X167043231Y-84917617D01*
X167047141Y-84919382D01*
X167047142Y-84919383D01*
X167303455Y-85035113D01*
X167303459Y-85035115D01*
X167307367Y-85036879D01*
X167311486Y-85038099D01*
X167581133Y-85117973D01*
X167581138Y-85117974D01*
X167585246Y-85119191D01*
X167589480Y-85119839D01*
X167589485Y-85119840D01*
X167867482Y-85162379D01*
X167867484Y-85162379D01*
X167871724Y-85163028D01*
X168019285Y-85165346D01*
X168157211Y-85167513D01*
X168157217Y-85167513D01*
X168161502Y-85167580D01*
X168449216Y-85132763D01*
X168729543Y-85059221D01*
X168997295Y-84948314D01*
X169040458Y-84923092D01*
X169243821Y-84804256D01*
X169243822Y-84804256D01*
X169247519Y-84802095D01*
X169250879Y-84799461D01*
X169250887Y-84799455D01*
X169472211Y-84625914D01*
X169475583Y-84623270D01*
X169494053Y-84604211D01*
X169594518Y-84500538D01*
X169677267Y-84415148D01*
X169848841Y-84181579D01*
X169879825Y-84124513D01*
X169985078Y-83930662D01*
X169985079Y-83930660D01*
X169987128Y-83926886D01*
X170089569Y-83655782D01*
X170121920Y-83514533D01*
X170153313Y-83377464D01*
X170153314Y-83377459D01*
X170154270Y-83373284D01*
X170180033Y-83084618D01*
X170180500Y-83040000D01*
X170177895Y-83001784D01*
X170161080Y-82755135D01*
X170161079Y-82755129D01*
X170160788Y-82750858D01*
X170102018Y-82467066D01*
X170005276Y-82193876D01*
X169994733Y-82173448D01*
X169874319Y-81940150D01*
X169874319Y-81940149D01*
X169872354Y-81936343D01*
X169856533Y-81913831D01*
X169708176Y-81702743D01*
X169708175Y-81702742D01*
X169705709Y-81699233D01*
X169508428Y-81486932D01*
X169456935Y-81444785D01*
X169287477Y-81306086D01*
X169284159Y-81303370D01*
X169037052Y-81151943D01*
X169033135Y-81150224D01*
X169033132Y-81150222D01*
X168873730Y-81080250D01*
X168771681Y-81035454D01*
X168767553Y-81034278D01*
X168767550Y-81034277D01*
X168681115Y-81009656D01*
X168492956Y-80956057D01*
X168488714Y-80955453D01*
X168488708Y-80955452D01*
X168210285Y-80915827D01*
X168206034Y-80915222D01*
X168201745Y-80915200D01*
X168201738Y-80915199D01*
X167920511Y-80913726D01*
X167920504Y-80913726D01*
X167916225Y-80913704D01*
X167911981Y-80914263D01*
X167911977Y-80914263D01*
X167808182Y-80927928D01*
X167628891Y-80951532D01*
X167349350Y-81028006D01*
X167345402Y-81029690D01*
X167086725Y-81140025D01*
X167086721Y-81140027D01*
X167082773Y-81141711D01*
X166834095Y-81290542D01*
X166830744Y-81293226D01*
X166830742Y-81293228D01*
X166818083Y-81303370D01*
X166607916Y-81471745D01*
X166408422Y-81681968D01*
X166239304Y-81917321D01*
X166103691Y-82173448D01*
X166004094Y-82445609D01*
X165942355Y-82728770D01*
X165942019Y-82733040D01*
X165923967Y-82962423D01*
X165919617Y-83017690D01*
X141219413Y-83017690D01*
X142100652Y-82136451D01*
X142162964Y-82102425D01*
X142191725Y-82099562D01*
X142316147Y-82101516D01*
X142316150Y-82101516D01*
X142323745Y-82101635D01*
X142382841Y-82088100D01*
X142481577Y-82065487D01*
X142481581Y-82065486D01*
X142488980Y-82063791D01*
X142640418Y-81987626D01*
X142769316Y-81877536D01*
X142868234Y-81739877D01*
X142891514Y-81681968D01*
X142928626Y-81589650D01*
X142928627Y-81589648D01*
X142931461Y-81582597D01*
X142945462Y-81484216D01*
X142954764Y-81418859D01*
X142954764Y-81418856D01*
X142955345Y-81414775D01*
X142955500Y-81400000D01*
X142935135Y-81231715D01*
X142932427Y-81224549D01*
X142896583Y-81129689D01*
X153499500Y-81129689D01*
X153499500Y-81854415D01*
X153514686Y-82019685D01*
X153516254Y-82025244D01*
X153516254Y-82025245D01*
X153562739Y-82190066D01*
X153574569Y-82232013D01*
X153577121Y-82237189D01*
X153577123Y-82237193D01*
X153589024Y-82261325D01*
X153672142Y-82429872D01*
X153675596Y-82434498D01*
X153675597Y-82434499D01*
X153692072Y-82456562D01*
X153804139Y-82606637D01*
X153808373Y-82610551D01*
X153808375Y-82610553D01*
X153960157Y-82750858D01*
X153966138Y-82756387D01*
X154152714Y-82874108D01*
X154357620Y-82955857D01*
X154363280Y-82956983D01*
X154363284Y-82956984D01*
X154568324Y-82997769D01*
X154568327Y-82997769D01*
X154573991Y-82998896D01*
X154579766Y-82998972D01*
X154579770Y-82998972D01*
X154690677Y-83000424D01*
X154794582Y-83001784D01*
X154800279Y-83000805D01*
X154800280Y-83000805D01*
X155006309Y-82965403D01*
X155006310Y-82965403D01*
X155012006Y-82964424D01*
X155218981Y-82888067D01*
X155247619Y-82871029D01*
X155403607Y-82778226D01*
X155403610Y-82778224D01*
X155408575Y-82775270D01*
X155574439Y-82629811D01*
X155711017Y-82456562D01*
X155714575Y-82449801D01*
X155811045Y-82266441D01*
X155813737Y-82261325D01*
X155879157Y-82050638D01*
X155892685Y-81936343D01*
X155900064Y-81873998D01*
X155900064Y-81873992D01*
X155900500Y-81870311D01*
X155900500Y-81145585D01*
X155885314Y-80980315D01*
X155883746Y-80974755D01*
X155826999Y-80773546D01*
X155826998Y-80773544D01*
X155825431Y-80767987D01*
X155813698Y-80744193D01*
X155730413Y-80575309D01*
X155727858Y-80570128D01*
X155711747Y-80548552D01*
X155599314Y-80397987D01*
X155599313Y-80397986D01*
X155595861Y-80393363D01*
X155591625Y-80389447D01*
X155438103Y-80247533D01*
X155438101Y-80247531D01*
X155433862Y-80243613D01*
X155247286Y-80125892D01*
X155042380Y-80044143D01*
X155036720Y-80043017D01*
X155036716Y-80043016D01*
X154831676Y-80002231D01*
X154831673Y-80002231D01*
X154826009Y-80001104D01*
X154820234Y-80001028D01*
X154820230Y-80001028D01*
X154709323Y-79999576D01*
X154605418Y-79998216D01*
X154599721Y-79999195D01*
X154599720Y-79999195D01*
X154393691Y-80034597D01*
X154387994Y-80035576D01*
X154181019Y-80111933D01*
X154176058Y-80114885D01*
X154176057Y-80114885D01*
X153996393Y-80221774D01*
X153996390Y-80221776D01*
X153991425Y-80224730D01*
X153825561Y-80370189D01*
X153688983Y-80543438D01*
X153686294Y-80548549D01*
X153686292Y-80548552D01*
X153633950Y-80648038D01*
X153586263Y-80738675D01*
X153520843Y-80949362D01*
X153520164Y-80955099D01*
X153511336Y-81029690D01*
X153499500Y-81129689D01*
X142896583Y-81129689D01*
X142877902Y-81080250D01*
X142877901Y-81080248D01*
X142875217Y-81073145D01*
X142870918Y-81066890D01*
X142870916Y-81066886D01*
X142783505Y-80939703D01*
X142783504Y-80939701D01*
X142779203Y-80933444D01*
X142652638Y-80820679D01*
X142502829Y-80741359D01*
X142338423Y-80700063D01*
X142330825Y-80700023D01*
X142330823Y-80700023D01*
X142257792Y-80699641D01*
X142168912Y-80699176D01*
X142161533Y-80700948D01*
X142161529Y-80700948D01*
X142011461Y-80736976D01*
X142011457Y-80736977D01*
X142004082Y-80738748D01*
X141853450Y-80816495D01*
X141725711Y-80927928D01*
X141692800Y-80974755D01*
X141650968Y-81034277D01*
X141628240Y-81066615D01*
X141566665Y-81224549D01*
X141565674Y-81232077D01*
X141546218Y-81379858D01*
X141517495Y-81444785D01*
X141510391Y-81452506D01*
X138005114Y-84957782D01*
X137994025Y-84967637D01*
X137967955Y-84988189D01*
X137962601Y-84995936D01*
X137934597Y-85036454D01*
X137932324Y-85039635D01*
X137897445Y-85086858D01*
X137895054Y-85093668D01*
X137890948Y-85099608D01*
X137888107Y-85108591D01*
X137873256Y-85155547D01*
X137872004Y-85159299D01*
X137855691Y-85205754D01*
X137852568Y-85214648D01*
X137852286Y-85221837D01*
X137852275Y-85221894D01*
X137850108Y-85228744D01*
X137849500Y-85236469D01*
X137849500Y-85290262D01*
X137849403Y-85295208D01*
X137847251Y-85349984D01*
X137849079Y-85356879D01*
X137849500Y-85364527D01*
X137849500Y-86793042D01*
X137844516Y-86825334D01*
X137844579Y-86825346D01*
X137844266Y-86826953D01*
X137843636Y-86831034D01*
X137841040Y-86839244D01*
X137840432Y-86846969D01*
X137840432Y-88057462D01*
X137839559Y-88072271D01*
X137835657Y-88105240D01*
X137837713Y-88116495D01*
X137846193Y-88162929D01*
X137846843Y-88166838D01*
X137848100Y-88175201D01*
X137849500Y-88193929D01*
X137849500Y-88506269D01*
X137829498Y-88574390D01*
X137806332Y-88601216D01*
X137775711Y-88627928D01*
X137678240Y-88766615D01*
X137616665Y-88924549D01*
X137615674Y-88932078D01*
X137595645Y-89084214D01*
X137594539Y-89092612D01*
X131735500Y-89092612D01*
X131735500Y-87699149D01*
X131755502Y-87631028D01*
X131772405Y-87610053D01*
X132157689Y-87224770D01*
X132220001Y-87190745D01*
X132248761Y-87187882D01*
X132289146Y-87188516D01*
X132289149Y-87188516D01*
X132296745Y-87188635D01*
X132336770Y-87179468D01*
X132454577Y-87152487D01*
X132454581Y-87152486D01*
X132461980Y-87150791D01*
X132613418Y-87074626D01*
X132742316Y-86964536D01*
X132841234Y-86826877D01*
X132844067Y-86819830D01*
X132901626Y-86676650D01*
X132901627Y-86676648D01*
X132904461Y-86669597D01*
X132928345Y-86501775D01*
X132928500Y-86487000D01*
X132908135Y-86318715D01*
X132903473Y-86306377D01*
X132850902Y-86167250D01*
X132850901Y-86167248D01*
X132848217Y-86160145D01*
X132843918Y-86153890D01*
X132843916Y-86153886D01*
X132756505Y-86026703D01*
X132756504Y-86026701D01*
X132752203Y-86020444D01*
X132625638Y-85907679D01*
X132475829Y-85828359D01*
X132311423Y-85787063D01*
X132303825Y-85787023D01*
X132303823Y-85787023D01*
X132230792Y-85786641D01*
X132141912Y-85786176D01*
X132134533Y-85787948D01*
X132134529Y-85787948D01*
X131984461Y-85823976D01*
X131984457Y-85823977D01*
X131977082Y-85825748D01*
X131826450Y-85903495D01*
X131820728Y-85908487D01*
X131820726Y-85908488D01*
X131785857Y-85938906D01*
X131698711Y-86014928D01*
X131657200Y-86073992D01*
X131638505Y-86100593D01*
X131601240Y-86153615D01*
X131539665Y-86311549D01*
X131517539Y-86479612D01*
X131515155Y-86479298D01*
X131497853Y-86536006D01*
X131481674Y-86555867D01*
X130971762Y-87065779D01*
X130962652Y-87073059D01*
X130963005Y-87073474D01*
X130956171Y-87079290D01*
X130948578Y-87084081D01*
X130942636Y-87090809D01*
X130942635Y-87090810D01*
X130914254Y-87122946D01*
X130908907Y-87128634D01*
X130899084Y-87138457D01*
X130896391Y-87142051D01*
X130893875Y-87145407D01*
X130887493Y-87153247D01*
X130858395Y-87186195D01*
X130854581Y-87194319D01*
X130851091Y-87199632D01*
X130846967Y-87206496D01*
X130843915Y-87212070D01*
X130838532Y-87219253D01*
X130833026Y-87233941D01*
X130823106Y-87260402D01*
X130819179Y-87269722D01*
X130800496Y-87309515D01*
X130799115Y-87318386D01*
X130797254Y-87324472D01*
X130795225Y-87332208D01*
X130793861Y-87338413D01*
X130790709Y-87346820D01*
X130790044Y-87355773D01*
X130787451Y-87390663D01*
X130786297Y-87400708D01*
X130784500Y-87412249D01*
X130784500Y-87425693D01*
X130784154Y-87435030D01*
X130780613Y-87482681D01*
X130782486Y-87491457D01*
X130783097Y-87500414D01*
X130783046Y-87500417D01*
X130784500Y-87514190D01*
X130784500Y-90275573D01*
X130761587Y-90348024D01*
X130690562Y-90449083D01*
X130678240Y-90466615D01*
X130616665Y-90624549D01*
X130615674Y-90632078D01*
X130607657Y-90692975D01*
X130594539Y-90792612D01*
X123931000Y-90792612D01*
X123931000Y-85930977D01*
X128279472Y-85930977D01*
X128279472Y-86089023D01*
X128281443Y-86096698D01*
X128281443Y-86096701D01*
X128299441Y-86166799D01*
X128318776Y-86242103D01*
X128322592Y-86249045D01*
X128322594Y-86249049D01*
X128372428Y-86339696D01*
X128394915Y-86380599D01*
X128400340Y-86386376D01*
X128476423Y-86467396D01*
X128503104Y-86495809D01*
X128527694Y-86511414D01*
X128629856Y-86576248D01*
X128629859Y-86576250D01*
X128636546Y-86580493D01*
X128711701Y-86604913D01*
X128779318Y-86626883D01*
X128779320Y-86626883D01*
X128786856Y-86629332D01*
X128794765Y-86629830D01*
X128794767Y-86629830D01*
X128865722Y-86634294D01*
X128944589Y-86639256D01*
X128958156Y-86636668D01*
X129092048Y-86611127D01*
X129092052Y-86611126D01*
X129099835Y-86609641D01*
X129193162Y-86565725D01*
X129235665Y-86545725D01*
X129235666Y-86545724D01*
X129242839Y-86542349D01*
X129364615Y-86441607D01*
X129374837Y-86427538D01*
X129452852Y-86320159D01*
X129452853Y-86320157D01*
X129457511Y-86313746D01*
X129461183Y-86304473D01*
X129512775Y-86174167D01*
X129512775Y-86174165D01*
X129515692Y-86166799D01*
X129516981Y-86156601D01*
X129534506Y-86017868D01*
X129535500Y-86010000D01*
X129530042Y-85966795D01*
X129516686Y-85861066D01*
X129516685Y-85861063D01*
X129515692Y-85853201D01*
X129506201Y-85829229D01*
X129460429Y-85713623D01*
X129460428Y-85713621D01*
X129457511Y-85706254D01*
X129404743Y-85633624D01*
X129369275Y-85584807D01*
X129364615Y-85578393D01*
X129242839Y-85477651D01*
X129099835Y-85410359D01*
X129092052Y-85408874D01*
X129092048Y-85408873D01*
X128952374Y-85382229D01*
X128952373Y-85382229D01*
X128944589Y-85380744D01*
X128865722Y-85385706D01*
X128794767Y-85390170D01*
X128794765Y-85390170D01*
X128786856Y-85390668D01*
X128779320Y-85393117D01*
X128779318Y-85393117D01*
X128711701Y-85415087D01*
X128636546Y-85439507D01*
X128629859Y-85443750D01*
X128629856Y-85443752D01*
X128562334Y-85486603D01*
X128503104Y-85524191D01*
X128394915Y-85639401D01*
X128391098Y-85646344D01*
X128322594Y-85770951D01*
X128322592Y-85770955D01*
X128318776Y-85777897D01*
X128314363Y-85795085D01*
X128293806Y-85875151D01*
X128279472Y-85930977D01*
X123931000Y-85930977D01*
X123931000Y-81129689D01*
X126999500Y-81129689D01*
X126999500Y-81854415D01*
X127014686Y-82019685D01*
X127016254Y-82025244D01*
X127016254Y-82025245D01*
X127062739Y-82190066D01*
X127074569Y-82232013D01*
X127077121Y-82237189D01*
X127077123Y-82237193D01*
X127089024Y-82261325D01*
X127172142Y-82429872D01*
X127175596Y-82434498D01*
X127175597Y-82434499D01*
X127192072Y-82456562D01*
X127304139Y-82606637D01*
X127308373Y-82610551D01*
X127308375Y-82610553D01*
X127460157Y-82750858D01*
X127466138Y-82756387D01*
X127652714Y-82874108D01*
X127857620Y-82955857D01*
X127863280Y-82956983D01*
X127863284Y-82956984D01*
X128068324Y-82997769D01*
X128068327Y-82997769D01*
X128073991Y-82998896D01*
X128079766Y-82998972D01*
X128079770Y-82998972D01*
X128190677Y-83000424D01*
X128294582Y-83001784D01*
X128300279Y-83000805D01*
X128300280Y-83000805D01*
X128506309Y-82965403D01*
X128506310Y-82965403D01*
X128512006Y-82964424D01*
X128718981Y-82888067D01*
X128747619Y-82871029D01*
X128903607Y-82778226D01*
X128903610Y-82778224D01*
X128908575Y-82775270D01*
X129074439Y-82629811D01*
X129211017Y-82456562D01*
X129214575Y-82449801D01*
X129311045Y-82266441D01*
X129313737Y-82261325D01*
X129379157Y-82050638D01*
X129392685Y-81936343D01*
X129400064Y-81873998D01*
X129400064Y-81873992D01*
X129400500Y-81870311D01*
X129400500Y-81145585D01*
X129385314Y-80980315D01*
X129383746Y-80974755D01*
X129326999Y-80773546D01*
X129326998Y-80773544D01*
X129325431Y-80767987D01*
X129313698Y-80744193D01*
X129230413Y-80575309D01*
X129227858Y-80570128D01*
X129211747Y-80548552D01*
X129099314Y-80397987D01*
X129099313Y-80397986D01*
X129095861Y-80393363D01*
X129091625Y-80389447D01*
X128938103Y-80247533D01*
X128938101Y-80247531D01*
X128933862Y-80243613D01*
X128747286Y-80125892D01*
X128542380Y-80044143D01*
X128536720Y-80043017D01*
X128536716Y-80043016D01*
X128331676Y-80002231D01*
X128331673Y-80002231D01*
X128326009Y-80001104D01*
X128320234Y-80001028D01*
X128320230Y-80001028D01*
X128209323Y-79999576D01*
X128105418Y-79998216D01*
X128099721Y-79999195D01*
X128099720Y-79999195D01*
X127893691Y-80034597D01*
X127887994Y-80035576D01*
X127681019Y-80111933D01*
X127676058Y-80114885D01*
X127676057Y-80114885D01*
X127496393Y-80221774D01*
X127496390Y-80221776D01*
X127491425Y-80224730D01*
X127325561Y-80370189D01*
X127188983Y-80543438D01*
X127186294Y-80548549D01*
X127186292Y-80548552D01*
X127133950Y-80648038D01*
X127086263Y-80738675D01*
X127020843Y-80949362D01*
X127020164Y-80955099D01*
X127011336Y-81029690D01*
X126999500Y-81129689D01*
X123931000Y-81129689D01*
X123931000Y-79329500D01*
X123951002Y-79261379D01*
X124004658Y-79214886D01*
X124057000Y-79203500D01*
X171074000Y-79203500D01*
X171142121Y-79223502D01*
G37*
%TD.AperFunction*%
%TD*%
M02*
