M48
; DRILL file {KiCad 5.99.0-unknown-4920692bcd~125~ubuntu20.04.1} date Sun Apr 18 13:08:10 2021
; FORMAT={-:-/ absolute / metric / decimal}
; #@! TF.CreationDate,2021-04-18T13:08:10+02:00
; #@! TF.GenerationSoftware,Kicad,Pcbnew,5.99.0-unknown-4920692bcd~125~ubuntu20.04.1
; #@! TF.FileFunction,Plated,1,2,PTH
FMAT,2
METRIC
; #@! TA.AperFunction,Plated,PTH,ViaDrill
T1C0.400
; #@! TA.AperFunction,Plated,PTH,ComponentDrill
T2C0.600
; #@! TA.AperFunction,Plated,PTH,ComponentDrill
T3C0.900
%
G90
G05
T1
X131.3Y-90.8
X132.2Y-87.8
X132.223Y-86.487
X138.3Y-89.1
X138.3Y-90.8
X142.25Y-81.4
X142.9Y-91.8
X145.0Y-81.3
X147.1Y-81.3
X159.5Y-93.7
T3
X159.16Y-84.31
X159.16Y-86.85
X159.16Y-89.39
X159.16Y-91.93
X161.7Y-85.58
X161.7Y-88.12
X161.7Y-90.66
X161.7Y-93.2
T2
X124.665Y-84.58G85X125.765Y-84.58
G05
X124.665Y-93.22G85X125.765Y-93.22
G05
X128.785Y-84.58G85X129.985Y-84.58
G05
X128.785Y-93.22G85X129.985Y-93.22
G05
T0
M30
