%FSLAX45Y45*%
G04 Gerber Fmt 4.5, Leading zero omitted, Abs format (unit mm)*
G04 Created by KiCad (PCBNEW 5.99.0-unknown-4920692bcd~125~ubuntu20.04.1) date 2021-04-18 13:08:12*
%MOMM*%
%LPD*%
G01*
G04 APERTURE LIST*
%TA.AperFunction,Profile*%
%ADD10C,0.100000*%
%TD*%
%ADD11C,0.200000*%
%ADD12C,0.065000*%
%ADD13C,0.180000*%
%ADD14C,0.345000*%
G04 APERTURE END LIST*
D10*
X12363100Y-7890350D02*
X17363700Y-7890350D01*
X17363700Y-7890350D02*
X17363700Y-9889650D01*
X17363700Y-9889650D02*
X12363100Y-9889650D01*
X12363100Y-9889650D02*
X12363100Y-7890350D01*
D11*
D12*
X12858000Y-8568500D02*
X12923000Y-8633500D01*
X12923000Y-8568500D02*
X12858000Y-8633500D01*
X12858000Y-9146500D02*
X12923000Y-9211500D01*
X12923000Y-9146500D02*
X12858000Y-9211500D01*
D13*
X12910000Y-8150000D02*
G75*
G03*
X12910000Y-8150000I-90000J0D01*
G01*
D11*
X12740000Y-8120000D02*
X12740000Y-8180000D01*
X12900000Y-8120000D02*
X12900000Y-8180000D01*
X12740000Y-8180000D02*
G75*
G03*
X12900000Y-8180000I80000J0D01*
G01*
X12900000Y-8120000D02*
G75*
G03*
X12740000Y-8120000I-80000J0D01*
G01*
D13*
X14505000Y-9350000D02*
G75*
G03*
X14505000Y-9350000I-90000J0D01*
G01*
D11*
X14335000Y-9320000D02*
X14335000Y-9380000D01*
X14495000Y-9320000D02*
X14495000Y-9380000D01*
X14335000Y-9380000D02*
G75*
G03*
X14495000Y-9380000I80000J0D01*
G01*
X14495000Y-9320000D02*
G75*
G03*
X14335000Y-9320000I-80000J0D01*
G01*
D13*
X14505000Y-9660000D02*
G75*
G03*
X14505000Y-9660000I-90000J0D01*
G01*
D11*
X14335000Y-9630000D02*
X14335000Y-9690000D01*
X14495000Y-9630000D02*
X14495000Y-9690000D01*
X14335000Y-9690000D02*
G75*
G03*
X14495000Y-9690000I80000J0D01*
G01*
X14495000Y-9630000D02*
G75*
G03*
X14335000Y-9630000I-80000J0D01*
G01*
D13*
X15560000Y-8150000D02*
G75*
G03*
X15560000Y-8150000I-90000J0D01*
G01*
D11*
X15390000Y-8120000D02*
X15390000Y-8180000D01*
X15550000Y-8120000D02*
X15550000Y-8180000D01*
X15390000Y-8180000D02*
G75*
G03*
X15550000Y-8180000I80000J0D01*
G01*
X15550000Y-8120000D02*
G75*
G03*
X15390000Y-8120000I-80000J0D01*
G01*
D14*
X16805000Y-8131500D02*
X16805000Y-8476500D01*
X16632500Y-8304000D02*
X16977500Y-8304000D01*
X16805000Y-9274500D02*
X16805000Y-9619500D01*
X16632500Y-9447000D02*
X16977500Y-9447000D01*
D11*
X12615719Y-10205126D02*
X12615719Y-10005126D01*
X12663338Y-10005126D01*
X12691909Y-10014650D01*
X12710957Y-10033698D01*
X12720481Y-10052745D01*
X12730005Y-10090840D01*
X12730005Y-10119412D01*
X12720481Y-10157507D01*
X12710957Y-10176555D01*
X12691909Y-10195602D01*
X12663338Y-10205126D01*
X12615719Y-10205126D01*
X12815719Y-10205126D02*
X12815719Y-10071793D01*
X12815719Y-10109888D02*
X12825243Y-10090840D01*
X12834767Y-10081317D01*
X12853814Y-10071793D01*
X12872862Y-10071793D01*
X12939528Y-10205126D02*
X12939528Y-10071793D01*
X12939528Y-10005126D02*
X12930005Y-10014650D01*
X12939528Y-10024174D01*
X12949052Y-10014650D01*
X12939528Y-10005126D01*
X12939528Y-10024174D01*
X13063338Y-10205126D02*
X13044290Y-10195602D01*
X13034767Y-10176555D01*
X13034767Y-10005126D01*
X13168100Y-10205126D02*
X13149052Y-10195602D01*
X13139528Y-10176555D01*
X13139528Y-10005126D01*
X13396671Y-10205126D02*
X13396671Y-10005126D01*
X13463338Y-10147983D01*
X13530005Y-10005126D01*
X13530005Y-10205126D01*
X13710957Y-10205126D02*
X13710957Y-10100364D01*
X13701433Y-10081317D01*
X13682386Y-10071793D01*
X13644290Y-10071793D01*
X13625243Y-10081317D01*
X13710957Y-10195602D02*
X13691909Y-10205126D01*
X13644290Y-10205126D01*
X13625243Y-10195602D01*
X13615719Y-10176555D01*
X13615719Y-10157507D01*
X13625243Y-10138460D01*
X13644290Y-10128936D01*
X13691909Y-10128936D01*
X13710957Y-10119412D01*
X13806195Y-10071793D02*
X13806195Y-10271793D01*
X13806195Y-10081317D02*
X13825243Y-10071793D01*
X13863338Y-10071793D01*
X13882386Y-10081317D01*
X13891909Y-10090840D01*
X13901433Y-10109888D01*
X13901433Y-10167031D01*
X13891909Y-10186079D01*
X13882386Y-10195602D01*
X13863338Y-10205126D01*
X13825243Y-10205126D01*
X13806195Y-10195602D01*
X13987148Y-10186079D02*
X13996671Y-10195602D01*
X13987148Y-10205126D01*
X13977624Y-10195602D01*
X13987148Y-10186079D01*
X13987148Y-10205126D01*
X13987148Y-10081317D02*
X13996671Y-10090840D01*
X13987148Y-10100364D01*
X13977624Y-10090840D01*
X13987148Y-10081317D01*
X13987148Y-10100364D01*
D12*
X12293100Y-10502150D02*
X12358100Y-10567150D01*
X12358100Y-10502150D02*
X12293100Y-10567150D01*
D11*
X12653814Y-10425126D02*
X12672862Y-10425126D01*
X12691909Y-10434650D01*
X12701433Y-10444174D01*
X12710957Y-10463221D01*
X12720481Y-10501317D01*
X12720481Y-10548936D01*
X12710957Y-10587031D01*
X12701433Y-10606079D01*
X12691909Y-10615602D01*
X12672862Y-10625126D01*
X12653814Y-10625126D01*
X12634767Y-10615602D01*
X12625243Y-10606079D01*
X12615719Y-10587031D01*
X12606195Y-10548936D01*
X12606195Y-10501317D01*
X12615719Y-10463221D01*
X12625243Y-10444174D01*
X12634767Y-10434650D01*
X12653814Y-10425126D01*
X12806195Y-10606079D02*
X12815719Y-10615602D01*
X12806195Y-10625126D01*
X12796671Y-10615602D01*
X12806195Y-10606079D01*
X12806195Y-10625126D01*
X12987148Y-10425126D02*
X12949052Y-10425126D01*
X12930005Y-10434650D01*
X12920481Y-10444174D01*
X12901433Y-10472745D01*
X12891909Y-10510840D01*
X12891909Y-10587031D01*
X12901433Y-10606079D01*
X12910957Y-10615602D01*
X12930005Y-10625126D01*
X12968100Y-10625126D01*
X12987148Y-10615602D01*
X12996671Y-10606079D01*
X13006195Y-10587031D01*
X13006195Y-10539412D01*
X12996671Y-10520364D01*
X12987148Y-10510840D01*
X12968100Y-10501317D01*
X12930005Y-10501317D01*
X12910957Y-10510840D01*
X12901433Y-10520364D01*
X12891909Y-10539412D01*
X13187148Y-10425126D02*
X13091909Y-10425126D01*
X13082386Y-10520364D01*
X13091909Y-10510840D01*
X13110957Y-10501317D01*
X13158576Y-10501317D01*
X13177624Y-10510840D01*
X13187148Y-10520364D01*
X13196671Y-10539412D01*
X13196671Y-10587031D01*
X13187148Y-10606079D01*
X13177624Y-10615602D01*
X13158576Y-10625126D01*
X13110957Y-10625126D01*
X13091909Y-10615602D01*
X13082386Y-10606079D01*
X13320481Y-10425126D02*
X13339528Y-10425126D01*
X13358576Y-10434650D01*
X13368100Y-10444174D01*
X13377624Y-10463221D01*
X13387148Y-10501317D01*
X13387148Y-10548936D01*
X13377624Y-10587031D01*
X13368100Y-10606079D01*
X13358576Y-10615602D01*
X13339528Y-10625126D01*
X13320481Y-10625126D01*
X13301433Y-10615602D01*
X13291909Y-10606079D01*
X13282386Y-10587031D01*
X13272862Y-10548936D01*
X13272862Y-10501317D01*
X13282386Y-10463221D01*
X13291909Y-10444174D01*
X13301433Y-10434650D01*
X13320481Y-10425126D01*
X13472862Y-10625126D02*
X13472862Y-10491793D01*
X13472862Y-10510840D02*
X13482386Y-10501317D01*
X13501433Y-10491793D01*
X13530005Y-10491793D01*
X13549052Y-10501317D01*
X13558576Y-10520364D01*
X13558576Y-10625126D01*
X13558576Y-10520364D02*
X13568100Y-10501317D01*
X13587148Y-10491793D01*
X13615719Y-10491793D01*
X13634767Y-10501317D01*
X13644290Y-10520364D01*
X13644290Y-10625126D01*
X13739528Y-10625126D02*
X13739528Y-10491793D01*
X13739528Y-10510840D02*
X13749052Y-10501317D01*
X13768100Y-10491793D01*
X13796671Y-10491793D01*
X13815719Y-10501317D01*
X13825243Y-10520364D01*
X13825243Y-10625126D01*
X13825243Y-10520364D02*
X13834767Y-10501317D01*
X13853814Y-10491793D01*
X13882386Y-10491793D01*
X13901433Y-10501317D01*
X13910957Y-10520364D01*
X13910957Y-10625126D01*
X14301433Y-10415602D02*
X14130005Y-10672745D01*
X14558576Y-10425126D02*
X14577624Y-10425126D01*
X14596671Y-10434650D01*
X14606195Y-10444174D01*
X14615719Y-10463221D01*
X14625243Y-10501317D01*
X14625243Y-10548936D01*
X14615719Y-10587031D01*
X14606195Y-10606079D01*
X14596671Y-10615602D01*
X14577624Y-10625126D01*
X14558576Y-10625126D01*
X14539528Y-10615602D01*
X14530005Y-10606079D01*
X14520481Y-10587031D01*
X14510957Y-10548936D01*
X14510957Y-10501317D01*
X14520481Y-10463221D01*
X14530005Y-10444174D01*
X14539528Y-10434650D01*
X14558576Y-10425126D01*
X14710957Y-10606079D02*
X14720481Y-10615602D01*
X14710957Y-10625126D01*
X14701433Y-10615602D01*
X14710957Y-10606079D01*
X14710957Y-10625126D01*
X14844290Y-10425126D02*
X14863338Y-10425126D01*
X14882386Y-10434650D01*
X14891909Y-10444174D01*
X14901433Y-10463221D01*
X14910957Y-10501317D01*
X14910957Y-10548936D01*
X14901433Y-10587031D01*
X14891909Y-10606079D01*
X14882386Y-10615602D01*
X14863338Y-10625126D01*
X14844290Y-10625126D01*
X14825243Y-10615602D01*
X14815719Y-10606079D01*
X14806195Y-10587031D01*
X14796671Y-10548936D01*
X14796671Y-10501317D01*
X14806195Y-10463221D01*
X14815719Y-10444174D01*
X14825243Y-10434650D01*
X14844290Y-10425126D01*
X14987148Y-10444174D02*
X14996671Y-10434650D01*
X15015719Y-10425126D01*
X15063338Y-10425126D01*
X15082386Y-10434650D01*
X15091909Y-10444174D01*
X15101433Y-10463221D01*
X15101433Y-10482269D01*
X15091909Y-10510840D01*
X14977624Y-10625126D01*
X15101433Y-10625126D01*
X15282386Y-10425126D02*
X15187148Y-10425126D01*
X15177624Y-10520364D01*
X15187148Y-10510840D01*
X15206195Y-10501317D01*
X15253814Y-10501317D01*
X15272862Y-10510840D01*
X15282386Y-10520364D01*
X15291909Y-10539412D01*
X15291909Y-10587031D01*
X15282386Y-10606079D01*
X15272862Y-10615602D01*
X15253814Y-10625126D01*
X15206195Y-10625126D01*
X15187148Y-10615602D01*
X15177624Y-10606079D01*
X15463338Y-10425126D02*
X15425243Y-10425126D01*
X15406195Y-10434650D01*
X15396671Y-10444174D01*
X15377624Y-10472745D01*
X15368100Y-10510840D01*
X15368100Y-10587031D01*
X15377624Y-10606079D01*
X15387148Y-10615602D01*
X15406195Y-10625126D01*
X15444290Y-10625126D01*
X15463338Y-10615602D01*
X15472862Y-10606079D01*
X15482386Y-10587031D01*
X15482386Y-10539412D01*
X15472862Y-10520364D01*
X15463338Y-10510840D01*
X15444290Y-10501317D01*
X15406195Y-10501317D01*
X15387148Y-10510840D01*
X15377624Y-10520364D01*
X15368100Y-10539412D01*
X15558576Y-10425126D02*
X15558576Y-10463221D01*
X15634767Y-10425126D02*
X15634767Y-10463221D01*
X15930005Y-10701317D02*
X15920481Y-10691793D01*
X15901433Y-10663221D01*
X15891909Y-10644174D01*
X15882386Y-10615602D01*
X15872862Y-10567983D01*
X15872862Y-10529888D01*
X15882386Y-10482269D01*
X15891909Y-10453698D01*
X15901433Y-10434650D01*
X15920481Y-10406079D01*
X15930005Y-10396555D01*
X15996671Y-10444174D02*
X16006195Y-10434650D01*
X16025243Y-10425126D01*
X16072862Y-10425126D01*
X16091909Y-10434650D01*
X16101433Y-10444174D01*
X16110957Y-10463221D01*
X16110957Y-10482269D01*
X16101433Y-10510840D01*
X15987148Y-10625126D01*
X16110957Y-10625126D01*
X16349052Y-10625126D02*
X16349052Y-10425126D01*
X16434767Y-10625126D02*
X16434767Y-10520364D01*
X16425243Y-10501317D01*
X16406195Y-10491793D01*
X16377624Y-10491793D01*
X16358576Y-10501317D01*
X16349052Y-10510840D01*
X16558576Y-10625126D02*
X16539528Y-10615602D01*
X16530005Y-10606079D01*
X16520481Y-10587031D01*
X16520481Y-10529888D01*
X16530005Y-10510840D01*
X16539528Y-10501317D01*
X16558576Y-10491793D01*
X16587148Y-10491793D01*
X16606195Y-10501317D01*
X16615719Y-10510840D01*
X16625243Y-10529888D01*
X16625243Y-10587031D01*
X16615719Y-10606079D01*
X16606195Y-10615602D01*
X16587148Y-10625126D01*
X16558576Y-10625126D01*
X16739528Y-10625126D02*
X16720481Y-10615602D01*
X16710957Y-10596555D01*
X16710957Y-10425126D01*
X16891910Y-10615602D02*
X16872862Y-10625126D01*
X16834767Y-10625126D01*
X16815719Y-10615602D01*
X16806195Y-10596555D01*
X16806195Y-10520364D01*
X16815719Y-10501317D01*
X16834767Y-10491793D01*
X16872862Y-10491793D01*
X16891910Y-10501317D01*
X16901433Y-10520364D01*
X16901433Y-10539412D01*
X16806195Y-10558460D01*
X16977624Y-10615602D02*
X16996671Y-10625126D01*
X17034767Y-10625126D01*
X17053814Y-10615602D01*
X17063338Y-10596555D01*
X17063338Y-10587031D01*
X17053814Y-10567983D01*
X17034767Y-10558460D01*
X17006195Y-10558460D01*
X16987148Y-10548936D01*
X16977624Y-10529888D01*
X16977624Y-10520364D01*
X16987148Y-10501317D01*
X17006195Y-10491793D01*
X17034767Y-10491793D01*
X17053814Y-10501317D01*
X17130005Y-10701317D02*
X17139529Y-10691793D01*
X17158576Y-10663221D01*
X17168100Y-10644174D01*
X17177624Y-10615602D01*
X17187148Y-10567983D01*
X17187148Y-10529888D01*
X17177624Y-10482269D01*
X17168100Y-10453698D01*
X17158576Y-10434650D01*
X17139529Y-10406079D01*
X17130005Y-10396555D01*
X17491910Y-10701317D02*
X17482386Y-10691793D01*
X17463338Y-10663221D01*
X17453814Y-10644174D01*
X17444290Y-10615602D01*
X17434767Y-10567983D01*
X17434767Y-10529888D01*
X17444290Y-10482269D01*
X17453814Y-10453698D01*
X17463338Y-10434650D01*
X17482386Y-10406079D01*
X17491910Y-10396555D01*
X17568100Y-10491793D02*
X17568100Y-10625126D01*
X17568100Y-10510840D02*
X17577624Y-10501317D01*
X17596671Y-10491793D01*
X17625243Y-10491793D01*
X17644290Y-10501317D01*
X17653814Y-10520364D01*
X17653814Y-10625126D01*
X17777624Y-10625126D02*
X17758576Y-10615602D01*
X17749052Y-10606079D01*
X17739529Y-10587031D01*
X17739529Y-10529888D01*
X17749052Y-10510840D01*
X17758576Y-10501317D01*
X17777624Y-10491793D01*
X17806195Y-10491793D01*
X17825243Y-10501317D01*
X17834767Y-10510840D01*
X17844290Y-10529888D01*
X17844290Y-10587031D01*
X17834767Y-10606079D01*
X17825243Y-10615602D01*
X17806195Y-10625126D01*
X17777624Y-10625126D01*
X17901433Y-10491793D02*
X17977624Y-10491793D01*
X17930005Y-10425126D02*
X17930005Y-10596555D01*
X17939529Y-10615602D01*
X17958576Y-10625126D01*
X17977624Y-10625126D01*
X18196671Y-10491793D02*
X18196671Y-10691793D01*
X18196671Y-10501317D02*
X18215719Y-10491793D01*
X18253814Y-10491793D01*
X18272862Y-10501317D01*
X18282386Y-10510840D01*
X18291910Y-10529888D01*
X18291910Y-10587031D01*
X18282386Y-10606079D01*
X18272862Y-10615602D01*
X18253814Y-10625126D01*
X18215719Y-10625126D01*
X18196671Y-10615602D01*
X18406195Y-10625126D02*
X18387148Y-10615602D01*
X18377624Y-10596555D01*
X18377624Y-10425126D01*
X18568100Y-10625126D02*
X18568100Y-10520364D01*
X18558576Y-10501317D01*
X18539529Y-10491793D01*
X18501433Y-10491793D01*
X18482386Y-10501317D01*
X18568100Y-10615602D02*
X18549052Y-10625126D01*
X18501433Y-10625126D01*
X18482386Y-10615602D01*
X18472862Y-10596555D01*
X18472862Y-10577507D01*
X18482386Y-10558460D01*
X18501433Y-10548936D01*
X18549052Y-10548936D01*
X18568100Y-10539412D01*
X18634767Y-10491793D02*
X18710957Y-10491793D01*
X18663338Y-10425126D02*
X18663338Y-10596555D01*
X18672862Y-10615602D01*
X18691910Y-10625126D01*
X18710957Y-10625126D01*
X18853814Y-10615602D02*
X18834767Y-10625126D01*
X18796671Y-10625126D01*
X18777624Y-10615602D01*
X18768100Y-10596555D01*
X18768100Y-10520364D01*
X18777624Y-10501317D01*
X18796671Y-10491793D01*
X18834767Y-10491793D01*
X18853814Y-10501317D01*
X18863338Y-10520364D01*
X18863338Y-10539412D01*
X18768100Y-10558460D01*
X19034767Y-10625126D02*
X19034767Y-10425126D01*
X19034767Y-10615602D02*
X19015719Y-10625126D01*
X18977624Y-10625126D01*
X18958576Y-10615602D01*
X18949052Y-10606079D01*
X18939529Y-10587031D01*
X18939529Y-10529888D01*
X18949052Y-10510840D01*
X18958576Y-10501317D01*
X18977624Y-10491793D01*
X19015719Y-10491793D01*
X19034767Y-10501317D01*
X19110957Y-10701317D02*
X19120481Y-10691793D01*
X19139529Y-10663221D01*
X19149052Y-10644174D01*
X19158576Y-10615602D01*
X19168100Y-10567983D01*
X19168100Y-10529888D01*
X19158576Y-10482269D01*
X19149052Y-10453698D01*
X19139529Y-10434650D01*
X19120481Y-10406079D01*
X19110957Y-10396555D01*
D13*
X12358100Y-10798650D02*
G75*
G03*
X12358100Y-10798650I-90000J0D01*
G01*
D11*
X12720481Y-10889126D02*
X12606195Y-10889126D01*
X12663338Y-10889126D02*
X12663338Y-10689126D01*
X12644290Y-10717698D01*
X12625243Y-10736745D01*
X12606195Y-10746269D01*
X12806195Y-10870079D02*
X12815719Y-10879602D01*
X12806195Y-10889126D01*
X12796671Y-10879602D01*
X12806195Y-10870079D01*
X12806195Y-10889126D01*
X12930005Y-10774840D02*
X12910957Y-10765317D01*
X12901433Y-10755793D01*
X12891909Y-10736745D01*
X12891909Y-10727221D01*
X12901433Y-10708174D01*
X12910957Y-10698650D01*
X12930005Y-10689126D01*
X12968100Y-10689126D01*
X12987148Y-10698650D01*
X12996671Y-10708174D01*
X13006195Y-10727221D01*
X13006195Y-10736745D01*
X12996671Y-10755793D01*
X12987148Y-10765317D01*
X12968100Y-10774840D01*
X12930005Y-10774840D01*
X12910957Y-10784364D01*
X12901433Y-10793888D01*
X12891909Y-10812936D01*
X12891909Y-10851031D01*
X12901433Y-10870079D01*
X12910957Y-10879602D01*
X12930005Y-10889126D01*
X12968100Y-10889126D01*
X12987148Y-10879602D01*
X12996671Y-10870079D01*
X13006195Y-10851031D01*
X13006195Y-10812936D01*
X12996671Y-10793888D01*
X12987148Y-10784364D01*
X12968100Y-10774840D01*
X13130005Y-10689126D02*
X13149052Y-10689126D01*
X13168100Y-10698650D01*
X13177624Y-10708174D01*
X13187148Y-10727221D01*
X13196671Y-10765317D01*
X13196671Y-10812936D01*
X13187148Y-10851031D01*
X13177624Y-10870079D01*
X13168100Y-10879602D01*
X13149052Y-10889126D01*
X13130005Y-10889126D01*
X13110957Y-10879602D01*
X13101433Y-10870079D01*
X13091909Y-10851031D01*
X13082386Y-10812936D01*
X13082386Y-10765317D01*
X13091909Y-10727221D01*
X13101433Y-10708174D01*
X13110957Y-10698650D01*
X13130005Y-10689126D01*
X13320481Y-10689126D02*
X13339528Y-10689126D01*
X13358576Y-10698650D01*
X13368100Y-10708174D01*
X13377624Y-10727221D01*
X13387148Y-10765317D01*
X13387148Y-10812936D01*
X13377624Y-10851031D01*
X13368100Y-10870079D01*
X13358576Y-10879602D01*
X13339528Y-10889126D01*
X13320481Y-10889126D01*
X13301433Y-10879602D01*
X13291909Y-10870079D01*
X13282386Y-10851031D01*
X13272862Y-10812936D01*
X13272862Y-10765317D01*
X13282386Y-10727221D01*
X13291909Y-10708174D01*
X13301433Y-10698650D01*
X13320481Y-10689126D01*
X13472862Y-10889126D02*
X13472862Y-10755793D01*
X13472862Y-10774840D02*
X13482386Y-10765317D01*
X13501433Y-10755793D01*
X13530005Y-10755793D01*
X13549052Y-10765317D01*
X13558576Y-10784364D01*
X13558576Y-10889126D01*
X13558576Y-10784364D02*
X13568100Y-10765317D01*
X13587148Y-10755793D01*
X13615719Y-10755793D01*
X13634767Y-10765317D01*
X13644290Y-10784364D01*
X13644290Y-10889126D01*
X13739528Y-10889126D02*
X13739528Y-10755793D01*
X13739528Y-10774840D02*
X13749052Y-10765317D01*
X13768100Y-10755793D01*
X13796671Y-10755793D01*
X13815719Y-10765317D01*
X13825243Y-10784364D01*
X13825243Y-10889126D01*
X13825243Y-10784364D02*
X13834767Y-10765317D01*
X13853814Y-10755793D01*
X13882386Y-10755793D01*
X13901433Y-10765317D01*
X13910957Y-10784364D01*
X13910957Y-10889126D01*
X14301433Y-10679602D02*
X14130005Y-10936745D01*
X14558576Y-10689126D02*
X14577624Y-10689126D01*
X14596671Y-10698650D01*
X14606195Y-10708174D01*
X14615719Y-10727221D01*
X14625243Y-10765317D01*
X14625243Y-10812936D01*
X14615719Y-10851031D01*
X14606195Y-10870079D01*
X14596671Y-10879602D01*
X14577624Y-10889126D01*
X14558576Y-10889126D01*
X14539528Y-10879602D01*
X14530005Y-10870079D01*
X14520481Y-10851031D01*
X14510957Y-10812936D01*
X14510957Y-10765317D01*
X14520481Y-10727221D01*
X14530005Y-10708174D01*
X14539528Y-10698650D01*
X14558576Y-10689126D01*
X14710957Y-10870079D02*
X14720481Y-10879602D01*
X14710957Y-10889126D01*
X14701433Y-10879602D01*
X14710957Y-10870079D01*
X14710957Y-10889126D01*
X14844290Y-10689126D02*
X14863338Y-10689126D01*
X14882386Y-10698650D01*
X14891909Y-10708174D01*
X14901433Y-10727221D01*
X14910957Y-10765317D01*
X14910957Y-10812936D01*
X14901433Y-10851031D01*
X14891909Y-10870079D01*
X14882386Y-10879602D01*
X14863338Y-10889126D01*
X14844290Y-10889126D01*
X14825243Y-10879602D01*
X14815719Y-10870079D01*
X14806195Y-10851031D01*
X14796671Y-10812936D01*
X14796671Y-10765317D01*
X14806195Y-10727221D01*
X14815719Y-10708174D01*
X14825243Y-10698650D01*
X14844290Y-10689126D01*
X14977624Y-10689126D02*
X15110957Y-10689126D01*
X15025243Y-10889126D01*
X15225243Y-10689126D02*
X15244290Y-10689126D01*
X15263338Y-10698650D01*
X15272862Y-10708174D01*
X15282386Y-10727221D01*
X15291909Y-10765317D01*
X15291909Y-10812936D01*
X15282386Y-10851031D01*
X15272862Y-10870079D01*
X15263338Y-10879602D01*
X15244290Y-10889126D01*
X15225243Y-10889126D01*
X15206195Y-10879602D01*
X15196671Y-10870079D01*
X15187148Y-10851031D01*
X15177624Y-10812936D01*
X15177624Y-10765317D01*
X15187148Y-10727221D01*
X15196671Y-10708174D01*
X15206195Y-10698650D01*
X15225243Y-10689126D01*
X15387148Y-10889126D02*
X15425243Y-10889126D01*
X15444290Y-10879602D01*
X15453814Y-10870079D01*
X15472862Y-10841507D01*
X15482386Y-10803412D01*
X15482386Y-10727221D01*
X15472862Y-10708174D01*
X15463338Y-10698650D01*
X15444290Y-10689126D01*
X15406195Y-10689126D01*
X15387148Y-10698650D01*
X15377624Y-10708174D01*
X15368100Y-10727221D01*
X15368100Y-10774840D01*
X15377624Y-10793888D01*
X15387148Y-10803412D01*
X15406195Y-10812936D01*
X15444290Y-10812936D01*
X15463338Y-10803412D01*
X15472862Y-10793888D01*
X15482386Y-10774840D01*
X15558576Y-10689126D02*
X15558576Y-10727221D01*
X15634767Y-10689126D02*
X15634767Y-10727221D01*
X15930005Y-10965317D02*
X15920481Y-10955793D01*
X15901433Y-10927221D01*
X15891909Y-10908174D01*
X15882386Y-10879602D01*
X15872862Y-10831983D01*
X15872862Y-10793888D01*
X15882386Y-10746269D01*
X15891909Y-10717698D01*
X15901433Y-10698650D01*
X15920481Y-10670079D01*
X15930005Y-10660555D01*
X16044290Y-10689126D02*
X16063338Y-10689126D01*
X16082386Y-10698650D01*
X16091909Y-10708174D01*
X16101433Y-10727221D01*
X16110957Y-10765317D01*
X16110957Y-10812936D01*
X16101433Y-10851031D01*
X16091909Y-10870079D01*
X16082386Y-10879602D01*
X16063338Y-10889126D01*
X16044290Y-10889126D01*
X16025243Y-10879602D01*
X16015719Y-10870079D01*
X16006195Y-10851031D01*
X15996671Y-10812936D01*
X15996671Y-10765317D01*
X16006195Y-10727221D01*
X16015719Y-10708174D01*
X16025243Y-10698650D01*
X16044290Y-10689126D01*
X16349052Y-10889126D02*
X16349052Y-10689126D01*
X16434767Y-10889126D02*
X16434767Y-10784364D01*
X16425243Y-10765317D01*
X16406195Y-10755793D01*
X16377624Y-10755793D01*
X16358576Y-10765317D01*
X16349052Y-10774840D01*
X16558576Y-10889126D02*
X16539528Y-10879602D01*
X16530005Y-10870079D01*
X16520481Y-10851031D01*
X16520481Y-10793888D01*
X16530005Y-10774840D01*
X16539528Y-10765317D01*
X16558576Y-10755793D01*
X16587148Y-10755793D01*
X16606195Y-10765317D01*
X16615719Y-10774840D01*
X16625243Y-10793888D01*
X16625243Y-10851031D01*
X16615719Y-10870079D01*
X16606195Y-10879602D01*
X16587148Y-10889126D01*
X16558576Y-10889126D01*
X16739528Y-10889126D02*
X16720481Y-10879602D01*
X16710957Y-10860555D01*
X16710957Y-10689126D01*
X16891910Y-10879602D02*
X16872862Y-10889126D01*
X16834767Y-10889126D01*
X16815719Y-10879602D01*
X16806195Y-10860555D01*
X16806195Y-10784364D01*
X16815719Y-10765317D01*
X16834767Y-10755793D01*
X16872862Y-10755793D01*
X16891910Y-10765317D01*
X16901433Y-10784364D01*
X16901433Y-10803412D01*
X16806195Y-10822460D01*
X16977624Y-10879602D02*
X16996671Y-10889126D01*
X17034767Y-10889126D01*
X17053814Y-10879602D01*
X17063338Y-10860555D01*
X17063338Y-10851031D01*
X17053814Y-10831983D01*
X17034767Y-10822460D01*
X17006195Y-10822460D01*
X16987148Y-10812936D01*
X16977624Y-10793888D01*
X16977624Y-10784364D01*
X16987148Y-10765317D01*
X17006195Y-10755793D01*
X17034767Y-10755793D01*
X17053814Y-10765317D01*
X17301433Y-10812936D02*
X17453814Y-10812936D01*
X17377624Y-10889126D02*
X17377624Y-10736745D01*
X17787148Y-10755793D02*
X17787148Y-10889126D01*
X17739529Y-10679602D02*
X17691910Y-10822460D01*
X17815719Y-10822460D01*
X18034767Y-10879602D02*
X18053814Y-10889126D01*
X18091910Y-10889126D01*
X18110957Y-10879602D01*
X18120481Y-10860555D01*
X18120481Y-10851031D01*
X18110957Y-10831983D01*
X18091910Y-10822460D01*
X18063338Y-10822460D01*
X18044290Y-10812936D01*
X18034767Y-10793888D01*
X18034767Y-10784364D01*
X18044290Y-10765317D01*
X18063338Y-10755793D01*
X18091910Y-10755793D01*
X18110957Y-10765317D01*
X18234767Y-10889126D02*
X18215719Y-10879602D01*
X18206195Y-10860555D01*
X18206195Y-10689126D01*
X18339529Y-10889126D02*
X18320481Y-10879602D01*
X18310957Y-10870079D01*
X18301433Y-10851031D01*
X18301433Y-10793888D01*
X18310957Y-10774840D01*
X18320481Y-10765317D01*
X18339529Y-10755793D01*
X18368100Y-10755793D01*
X18387148Y-10765317D01*
X18396671Y-10774840D01*
X18406195Y-10793888D01*
X18406195Y-10851031D01*
X18396671Y-10870079D01*
X18387148Y-10879602D01*
X18368100Y-10889126D01*
X18339529Y-10889126D01*
X18463338Y-10755793D02*
X18539529Y-10755793D01*
X18491910Y-10689126D02*
X18491910Y-10860555D01*
X18501433Y-10879602D01*
X18520481Y-10889126D01*
X18539529Y-10889126D01*
X18596671Y-10879602D02*
X18615719Y-10889126D01*
X18653814Y-10889126D01*
X18672862Y-10879602D01*
X18682386Y-10860555D01*
X18682386Y-10851031D01*
X18672862Y-10831983D01*
X18653814Y-10822460D01*
X18625243Y-10822460D01*
X18606195Y-10812936D01*
X18596671Y-10793888D01*
X18596671Y-10784364D01*
X18606195Y-10765317D01*
X18625243Y-10755793D01*
X18653814Y-10755793D01*
X18672862Y-10765317D01*
X18749052Y-10965317D02*
X18758576Y-10955793D01*
X18777624Y-10927221D01*
X18787148Y-10908174D01*
X18796671Y-10879602D01*
X18806195Y-10831983D01*
X18806195Y-10793888D01*
X18796671Y-10746269D01*
X18787148Y-10717698D01*
X18777624Y-10698650D01*
X18758576Y-10670079D01*
X18749052Y-10660555D01*
X19110957Y-10965317D02*
X19101433Y-10955793D01*
X19082386Y-10927221D01*
X19072862Y-10908174D01*
X19063338Y-10879602D01*
X19053814Y-10831983D01*
X19053814Y-10793888D01*
X19063338Y-10746269D01*
X19072862Y-10717698D01*
X19082386Y-10698650D01*
X19101433Y-10670079D01*
X19110957Y-10660555D01*
X19187148Y-10755793D02*
X19187148Y-10889126D01*
X19187148Y-10774840D02*
X19196671Y-10765317D01*
X19215719Y-10755793D01*
X19244290Y-10755793D01*
X19263338Y-10765317D01*
X19272862Y-10784364D01*
X19272862Y-10889126D01*
X19396671Y-10889126D02*
X19377624Y-10879602D01*
X19368100Y-10870079D01*
X19358576Y-10851031D01*
X19358576Y-10793888D01*
X19368100Y-10774840D01*
X19377624Y-10765317D01*
X19396671Y-10755793D01*
X19425243Y-10755793D01*
X19444290Y-10765317D01*
X19453814Y-10774840D01*
X19463338Y-10793888D01*
X19463338Y-10851031D01*
X19453814Y-10870079D01*
X19444290Y-10879602D01*
X19425243Y-10889126D01*
X19396671Y-10889126D01*
X19520481Y-10755793D02*
X19596671Y-10755793D01*
X19549052Y-10689126D02*
X19549052Y-10860555D01*
X19558576Y-10879602D01*
X19577624Y-10889126D01*
X19596671Y-10889126D01*
X19815719Y-10755793D02*
X19815719Y-10955793D01*
X19815719Y-10765317D02*
X19834767Y-10755793D01*
X19872862Y-10755793D01*
X19891910Y-10765317D01*
X19901433Y-10774840D01*
X19910957Y-10793888D01*
X19910957Y-10851031D01*
X19901433Y-10870079D01*
X19891910Y-10879602D01*
X19872862Y-10889126D01*
X19834767Y-10889126D01*
X19815719Y-10879602D01*
X20025243Y-10889126D02*
X20006195Y-10879602D01*
X19996671Y-10860555D01*
X19996671Y-10689126D01*
X20187148Y-10889126D02*
X20187148Y-10784364D01*
X20177624Y-10765317D01*
X20158576Y-10755793D01*
X20120481Y-10755793D01*
X20101433Y-10765317D01*
X20187148Y-10879602D02*
X20168100Y-10889126D01*
X20120481Y-10889126D01*
X20101433Y-10879602D01*
X20091910Y-10860555D01*
X20091910Y-10841507D01*
X20101433Y-10822460D01*
X20120481Y-10812936D01*
X20168100Y-10812936D01*
X20187148Y-10803412D01*
X20253814Y-10755793D02*
X20330005Y-10755793D01*
X20282386Y-10689126D02*
X20282386Y-10860555D01*
X20291910Y-10879602D01*
X20310957Y-10889126D01*
X20330005Y-10889126D01*
X20472862Y-10879602D02*
X20453814Y-10889126D01*
X20415719Y-10889126D01*
X20396671Y-10879602D01*
X20387148Y-10860555D01*
X20387148Y-10784364D01*
X20396671Y-10765317D01*
X20415719Y-10755793D01*
X20453814Y-10755793D01*
X20472862Y-10765317D01*
X20482386Y-10784364D01*
X20482386Y-10803412D01*
X20387148Y-10822460D01*
X20653814Y-10889126D02*
X20653814Y-10689126D01*
X20653814Y-10879602D02*
X20634767Y-10889126D01*
X20596671Y-10889126D01*
X20577624Y-10879602D01*
X20568100Y-10870079D01*
X20558576Y-10851031D01*
X20558576Y-10793888D01*
X20568100Y-10774840D01*
X20577624Y-10765317D01*
X20596671Y-10755793D01*
X20634767Y-10755793D01*
X20653814Y-10765317D01*
X20730005Y-10965317D02*
X20739529Y-10955793D01*
X20758576Y-10927221D01*
X20768100Y-10908174D01*
X20777624Y-10879602D01*
X20787148Y-10831983D01*
X20787148Y-10793888D01*
X20777624Y-10746269D01*
X20768100Y-10717698D01*
X20758576Y-10698650D01*
X20739529Y-10670079D01*
X20730005Y-10660555D01*
X12258100Y-10998650D02*
X12258100Y-11198650D01*
X12158100Y-11098650D02*
X12358100Y-11098650D01*
X12596671Y-10989126D02*
X12720481Y-10989126D01*
X12653814Y-11065317D01*
X12682386Y-11065317D01*
X12701433Y-11074840D01*
X12710957Y-11084364D01*
X12720481Y-11103412D01*
X12720481Y-11151031D01*
X12710957Y-11170079D01*
X12701433Y-11179602D01*
X12682386Y-11189126D01*
X12625243Y-11189126D01*
X12606195Y-11179602D01*
X12596671Y-11170079D01*
X12806195Y-11170079D02*
X12815719Y-11179602D01*
X12806195Y-11189126D01*
X12796671Y-11179602D01*
X12806195Y-11170079D01*
X12806195Y-11189126D01*
X12987148Y-11055793D02*
X12987148Y-11189126D01*
X12939528Y-10979602D02*
X12891909Y-11122460D01*
X13015719Y-11122460D01*
X13187148Y-10989126D02*
X13091909Y-10989126D01*
X13082386Y-11084364D01*
X13091909Y-11074840D01*
X13110957Y-11065317D01*
X13158576Y-11065317D01*
X13177624Y-11074840D01*
X13187148Y-11084364D01*
X13196671Y-11103412D01*
X13196671Y-11151031D01*
X13187148Y-11170079D01*
X13177624Y-11179602D01*
X13158576Y-11189126D01*
X13110957Y-11189126D01*
X13091909Y-11179602D01*
X13082386Y-11170079D01*
X13320481Y-10989126D02*
X13339528Y-10989126D01*
X13358576Y-10998650D01*
X13368100Y-11008174D01*
X13377624Y-11027221D01*
X13387148Y-11065317D01*
X13387148Y-11112936D01*
X13377624Y-11151031D01*
X13368100Y-11170079D01*
X13358576Y-11179602D01*
X13339528Y-11189126D01*
X13320481Y-11189126D01*
X13301433Y-11179602D01*
X13291909Y-11170079D01*
X13282386Y-11151031D01*
X13272862Y-11112936D01*
X13272862Y-11065317D01*
X13282386Y-11027221D01*
X13291909Y-11008174D01*
X13301433Y-10998650D01*
X13320481Y-10989126D01*
X13472862Y-11189126D02*
X13472862Y-11055793D01*
X13472862Y-11074840D02*
X13482386Y-11065317D01*
X13501433Y-11055793D01*
X13530005Y-11055793D01*
X13549052Y-11065317D01*
X13558576Y-11084364D01*
X13558576Y-11189126D01*
X13558576Y-11084364D02*
X13568100Y-11065317D01*
X13587148Y-11055793D01*
X13615719Y-11055793D01*
X13634767Y-11065317D01*
X13644290Y-11084364D01*
X13644290Y-11189126D01*
X13739528Y-11189126D02*
X13739528Y-11055793D01*
X13739528Y-11074840D02*
X13749052Y-11065317D01*
X13768100Y-11055793D01*
X13796671Y-11055793D01*
X13815719Y-11065317D01*
X13825243Y-11084364D01*
X13825243Y-11189126D01*
X13825243Y-11084364D02*
X13834767Y-11065317D01*
X13853814Y-11055793D01*
X13882386Y-11055793D01*
X13901433Y-11065317D01*
X13910957Y-11084364D01*
X13910957Y-11189126D01*
X14301433Y-10979602D02*
X14130005Y-11236745D01*
X14558576Y-10989126D02*
X14577624Y-10989126D01*
X14596671Y-10998650D01*
X14606195Y-11008174D01*
X14615719Y-11027221D01*
X14625243Y-11065317D01*
X14625243Y-11112936D01*
X14615719Y-11151031D01*
X14606195Y-11170079D01*
X14596671Y-11179602D01*
X14577624Y-11189126D01*
X14558576Y-11189126D01*
X14539528Y-11179602D01*
X14530005Y-11170079D01*
X14520481Y-11151031D01*
X14510957Y-11112936D01*
X14510957Y-11065317D01*
X14520481Y-11027221D01*
X14530005Y-11008174D01*
X14539528Y-10998650D01*
X14558576Y-10989126D01*
X14710957Y-11170079D02*
X14720481Y-11179602D01*
X14710957Y-11189126D01*
X14701433Y-11179602D01*
X14710957Y-11170079D01*
X14710957Y-11189126D01*
X14910957Y-11189126D02*
X14796671Y-11189126D01*
X14853814Y-11189126D02*
X14853814Y-10989126D01*
X14834767Y-11017698D01*
X14815719Y-11036745D01*
X14796671Y-11046269D01*
X14977624Y-10989126D02*
X15101433Y-10989126D01*
X15034767Y-11065317D01*
X15063338Y-11065317D01*
X15082386Y-11074840D01*
X15091909Y-11084364D01*
X15101433Y-11103412D01*
X15101433Y-11151031D01*
X15091909Y-11170079D01*
X15082386Y-11179602D01*
X15063338Y-11189126D01*
X15006195Y-11189126D01*
X14987148Y-11179602D01*
X14977624Y-11170079D01*
X15282386Y-10989126D02*
X15187148Y-10989126D01*
X15177624Y-11084364D01*
X15187148Y-11074840D01*
X15206195Y-11065317D01*
X15253814Y-11065317D01*
X15272862Y-11074840D01*
X15282386Y-11084364D01*
X15291909Y-11103412D01*
X15291909Y-11151031D01*
X15282386Y-11170079D01*
X15272862Y-11179602D01*
X15253814Y-11189126D01*
X15206195Y-11189126D01*
X15187148Y-11179602D01*
X15177624Y-11170079D01*
X15406195Y-11074840D02*
X15387148Y-11065317D01*
X15377624Y-11055793D01*
X15368100Y-11036745D01*
X15368100Y-11027221D01*
X15377624Y-11008174D01*
X15387148Y-10998650D01*
X15406195Y-10989126D01*
X15444290Y-10989126D01*
X15463338Y-10998650D01*
X15472862Y-11008174D01*
X15482386Y-11027221D01*
X15482386Y-11036745D01*
X15472862Y-11055793D01*
X15463338Y-11065317D01*
X15444290Y-11074840D01*
X15406195Y-11074840D01*
X15387148Y-11084364D01*
X15377624Y-11093888D01*
X15368100Y-11112936D01*
X15368100Y-11151031D01*
X15377624Y-11170079D01*
X15387148Y-11179602D01*
X15406195Y-11189126D01*
X15444290Y-11189126D01*
X15463338Y-11179602D01*
X15472862Y-11170079D01*
X15482386Y-11151031D01*
X15482386Y-11112936D01*
X15472862Y-11093888D01*
X15463338Y-11084364D01*
X15444290Y-11074840D01*
X15558576Y-10989126D02*
X15558576Y-11027221D01*
X15634767Y-10989126D02*
X15634767Y-11027221D01*
X15930005Y-11265317D02*
X15920481Y-11255793D01*
X15901433Y-11227221D01*
X15891909Y-11208174D01*
X15882386Y-11179602D01*
X15872862Y-11131983D01*
X15872862Y-11093888D01*
X15882386Y-11046269D01*
X15891909Y-11017698D01*
X15901433Y-10998650D01*
X15920481Y-10970079D01*
X15930005Y-10960555D01*
X15996671Y-11008174D02*
X16006195Y-10998650D01*
X16025243Y-10989126D01*
X16072862Y-10989126D01*
X16091909Y-10998650D01*
X16101433Y-11008174D01*
X16110957Y-11027221D01*
X16110957Y-11046269D01*
X16101433Y-11074840D01*
X15987148Y-11189126D01*
X16110957Y-11189126D01*
X16349052Y-11189126D02*
X16349052Y-10989126D01*
X16434767Y-11189126D02*
X16434767Y-11084364D01*
X16425243Y-11065317D01*
X16406195Y-11055793D01*
X16377624Y-11055793D01*
X16358576Y-11065317D01*
X16349052Y-11074840D01*
X16558576Y-11189126D02*
X16539528Y-11179602D01*
X16530005Y-11170079D01*
X16520481Y-11151031D01*
X16520481Y-11093888D01*
X16530005Y-11074840D01*
X16539528Y-11065317D01*
X16558576Y-11055793D01*
X16587148Y-11055793D01*
X16606195Y-11065317D01*
X16615719Y-11074840D01*
X16625243Y-11093888D01*
X16625243Y-11151031D01*
X16615719Y-11170079D01*
X16606195Y-11179602D01*
X16587148Y-11189126D01*
X16558576Y-11189126D01*
X16739528Y-11189126D02*
X16720481Y-11179602D01*
X16710957Y-11160555D01*
X16710957Y-10989126D01*
X16891910Y-11179602D02*
X16872862Y-11189126D01*
X16834767Y-11189126D01*
X16815719Y-11179602D01*
X16806195Y-11160555D01*
X16806195Y-11084364D01*
X16815719Y-11065317D01*
X16834767Y-11055793D01*
X16872862Y-11055793D01*
X16891910Y-11065317D01*
X16901433Y-11084364D01*
X16901433Y-11103412D01*
X16806195Y-11122460D01*
X16977624Y-11179602D02*
X16996671Y-11189126D01*
X17034767Y-11189126D01*
X17053814Y-11179602D01*
X17063338Y-11160555D01*
X17063338Y-11151031D01*
X17053814Y-11131983D01*
X17034767Y-11122460D01*
X17006195Y-11122460D01*
X16987148Y-11112936D01*
X16977624Y-11093888D01*
X16977624Y-11084364D01*
X16987148Y-11065317D01*
X17006195Y-11055793D01*
X17034767Y-11055793D01*
X17053814Y-11065317D01*
X17130005Y-11265317D02*
X17139529Y-11255793D01*
X17158576Y-11227221D01*
X17168100Y-11208174D01*
X17177624Y-11179602D01*
X17187148Y-11131983D01*
X17187148Y-11093888D01*
X17177624Y-11046269D01*
X17168100Y-11017698D01*
X17158576Y-10998650D01*
X17139529Y-10970079D01*
X17130005Y-10960555D01*
X17491910Y-11265317D02*
X17482386Y-11255793D01*
X17463338Y-11227221D01*
X17453814Y-11208174D01*
X17444290Y-11179602D01*
X17434767Y-11131983D01*
X17434767Y-11093888D01*
X17444290Y-11046269D01*
X17453814Y-11017698D01*
X17463338Y-10998650D01*
X17482386Y-10970079D01*
X17491910Y-10960555D01*
X17568100Y-11055793D02*
X17568100Y-11189126D01*
X17568100Y-11074840D02*
X17577624Y-11065317D01*
X17596671Y-11055793D01*
X17625243Y-11055793D01*
X17644290Y-11065317D01*
X17653814Y-11084364D01*
X17653814Y-11189126D01*
X17777624Y-11189126D02*
X17758576Y-11179602D01*
X17749052Y-11170079D01*
X17739529Y-11151031D01*
X17739529Y-11093888D01*
X17749052Y-11074840D01*
X17758576Y-11065317D01*
X17777624Y-11055793D01*
X17806195Y-11055793D01*
X17825243Y-11065317D01*
X17834767Y-11074840D01*
X17844290Y-11093888D01*
X17844290Y-11151031D01*
X17834767Y-11170079D01*
X17825243Y-11179602D01*
X17806195Y-11189126D01*
X17777624Y-11189126D01*
X17901433Y-11055793D02*
X17977624Y-11055793D01*
X17930005Y-10989126D02*
X17930005Y-11160555D01*
X17939529Y-11179602D01*
X17958576Y-11189126D01*
X17977624Y-11189126D01*
X18196671Y-11055793D02*
X18196671Y-11255793D01*
X18196671Y-11065317D02*
X18215719Y-11055793D01*
X18253814Y-11055793D01*
X18272862Y-11065317D01*
X18282386Y-11074840D01*
X18291910Y-11093888D01*
X18291910Y-11151031D01*
X18282386Y-11170079D01*
X18272862Y-11179602D01*
X18253814Y-11189126D01*
X18215719Y-11189126D01*
X18196671Y-11179602D01*
X18406195Y-11189126D02*
X18387148Y-11179602D01*
X18377624Y-11160555D01*
X18377624Y-10989126D01*
X18568100Y-11189126D02*
X18568100Y-11084364D01*
X18558576Y-11065317D01*
X18539529Y-11055793D01*
X18501433Y-11055793D01*
X18482386Y-11065317D01*
X18568100Y-11179602D02*
X18549052Y-11189126D01*
X18501433Y-11189126D01*
X18482386Y-11179602D01*
X18472862Y-11160555D01*
X18472862Y-11141507D01*
X18482386Y-11122460D01*
X18501433Y-11112936D01*
X18549052Y-11112936D01*
X18568100Y-11103412D01*
X18634767Y-11055793D02*
X18710957Y-11055793D01*
X18663338Y-10989126D02*
X18663338Y-11160555D01*
X18672862Y-11179602D01*
X18691910Y-11189126D01*
X18710957Y-11189126D01*
X18853814Y-11179602D02*
X18834767Y-11189126D01*
X18796671Y-11189126D01*
X18777624Y-11179602D01*
X18768100Y-11160555D01*
X18768100Y-11084364D01*
X18777624Y-11065317D01*
X18796671Y-11055793D01*
X18834767Y-11055793D01*
X18853814Y-11065317D01*
X18863338Y-11084364D01*
X18863338Y-11103412D01*
X18768100Y-11122460D01*
X19034767Y-11189126D02*
X19034767Y-10989126D01*
X19034767Y-11179602D02*
X19015719Y-11189126D01*
X18977624Y-11189126D01*
X18958576Y-11179602D01*
X18949052Y-11170079D01*
X18939529Y-11151031D01*
X18939529Y-11093888D01*
X18949052Y-11074840D01*
X18958576Y-11065317D01*
X18977624Y-11055793D01*
X19015719Y-11055793D01*
X19034767Y-11065317D01*
X19110957Y-11265317D02*
X19120481Y-11255793D01*
X19139529Y-11227221D01*
X19149052Y-11208174D01*
X19158576Y-11179602D01*
X19168100Y-11131983D01*
X19168100Y-11093888D01*
X19158576Y-11046269D01*
X19149052Y-11017698D01*
X19139529Y-10998650D01*
X19120481Y-10970079D01*
X19110957Y-10960555D01*
M02*
