  0
SECTION
  2
HEADER
  9
$ANGBASE
  50
0.0
  9
$ANGDIR
  70
1
  9
$MEASUREMENT
  70
0
  0
ENDSEC
  0
SECTION
  2
TABLES
  0
TABLE
  2
LTYPE
  70
4
  0
LTYPE
  5
40F
  2
CONTINUOUS
  70
0
  3
Solid line
  72
65
  73
0
  40
0.0
  0
LTYPE
  5
410
  2
DASHDOT
 70
0
  3
Dash Dot ____ _ ____ _
 72
65
 73
4
 40
2.0
 49
1.25
 49
-0.25
 49
0.25
 49
-0.25
  0
LTYPE
  5
411
  2
DASHED
 70
0
  3
Dashed __ __ __ __ __
 72
65
 73
2
 40
0.75
 49
0.5
 49
-0.25
  0
LTYPE
  5
43B
  2
DOTTED
 70
0
  3
Dotted .  .  .  .
 72
65
 73
2
 40
0.2
 49
0.0
 49
-0.2
  0
ENDTAB
  0
TABLE
  2
STYLE
  70
4
  0
STYLE
  2
KICAD
  70
0
  40
0
  41
1
  42
1
  50
0
  71
0
  3
isocp.shx
  0
STYLE
  2
KICADB
  70
0
  40
0
  41
1
  42
1
  50
0
  71
0
  3
isocp.shx
  0
STYLE
  2
KICADI
  70
0
  40
0
  41
1
  42
1
  50
15
  71
0
  3
isocp.shx
  0
STYLE
  2
KICADBI
  70
0
  40
0
  41
1
  42
1
  50
15
  71
0
  3
isocp.shx
  0
ENDTAB
  0
TABLE
  2
LAYER
  70
1
  0
LAYER
  2
BLACK
  70
0
  62
7
  6
CONTINUOUS
  0
ENDTAB
  0
ENDSEC
  0
SECTION
  2
ENTITIES
0
LINE
8
BLACK
6
CONTINUOUS
10
4.84844
20
-3.32262
11
4.84902
21
-3.32402
0
LINE
8
BLACK
6
CONTINUOUS
10
4.84902
20
-3.32402
11
4.84902
21
-3.67598
0
LINE
8
BLACK
6
CONTINUOUS
10
4.84902
20
-3.67598
11
4.84844
21
-3.67738
0
LINE
8
BLACK
6
CONTINUOUS
10
4.84844
20
-3.67738
11
4.84705
21
-3.67795
0
LINE
8
BLACK
6
CONTINUOUS
10
4.84705
20
-3.67795
11
4.84566
21
-3.67738
0
LINE
8
BLACK
6
CONTINUOUS
10
4.84566
20
-3.67738
11
4.84508
21
-3.67598
0
LINE
8
BLACK
6
CONTINUOUS
10
4.84508
20
-3.67598
11
4.84508
21
-3.32402
0
LINE
8
BLACK
6
CONTINUOUS
10
4.84508
20
-3.32402
11
4.84566
21
-3.32262
0
LINE
8
BLACK
6
CONTINUOUS
10
4.84566
20
-3.32262
11
4.84705
21
-3.32205
0
LINE
8
BLACK
6
CONTINUOUS
10
4.84705
20
-3.32205
11
4.84844
21
-3.32262
0
LINE
8
BLACK
6
CONTINUOUS
10
4.87545
20
-3.60971
11
4.87558
21
-3.60982
0
LINE
8
BLACK
6
CONTINUOUS
10
4.87558
20
-3.60982
11
4.87576
21
-3.60984
0
LINE
8
BLACK
6
CONTINUOUS
10
4.87576
20
-3.60984
11
4.87951
21
-3.61172
0
LINE
8
BLACK
6
CONTINUOUS
10
4.87951
20
-3.61172
11
4.88022
21
-3.61225
0
LINE
8
BLACK
6
CONTINUOUS
10
4.88022
20
-3.61225
11
4.88028
21
-3.61227
0
LINE
8
BLACK
6
CONTINUOUS
10
4.88028
20
-3.61227
11
4.88215
21
-3.61415
0
LINE
8
BLACK
6
CONTINUOUS
10
4.88215
20
-3.61415
11
4.88266
21
-3.61487
0
LINE
8
BLACK
6
CONTINUOUS
10
4.88266
20
-3.61487
11
4.8827
21
-3.61491
0
LINE
8
BLACK
6
CONTINUOUS
10
4.8827
20
-3.61491
11
4.88458
21
-3.61866
0
LINE
8
BLACK
6
CONTINUOUS
10
4.88458
20
-3.61866
11
4.88487
21
-3.61965
0
LINE
8
BLACK
6
CONTINUOUS
10
4.88487
20
-3.61965
11
4.88483
21
-3.61982
0
LINE
8
BLACK
6
CONTINUOUS
10
4.88483
20
-3.61982
11
4.88489
21
-3.61998
0
LINE
8
BLACK
6
CONTINUOUS
10
4.88489
20
-3.61998
11
4.88489
21
-3.63203
0
LINE
8
BLACK
6
CONTINUOUS
10
4.88489
20
-3.63203
11
4.90068
21
-3.63203
0
LINE
8
BLACK
6
CONTINUOUS
10
4.90068
20
-3.63203
11
4.90169
21
-3.63221
0
LINE
8
BLACK
6
CONTINUOUS
10
4.90169
20
-3.63221
11
4.90324
21
-3.63351
0
LINE
8
BLACK
6
CONTINUOUS
10
4.90324
20
-3.63351
11
4.90359
21
-3.6355
0
LINE
8
BLACK
6
CONTINUOUS
10
4.90359
20
-3.6355
11
4.90258
21
-3.63725
0
LINE
8
BLACK
6
CONTINUOUS
10
4.90258
20
-3.63725
11
4.90068
21
-3.63794
0
LINE
8
BLACK
6
CONTINUOUS
10
4.90068
20
-3.63794
11
4.86131
21
-3.63794
0
LINE
8
BLACK
6
CONTINUOUS
10
4.86131
20
-3.63794
11
4.86093
21
-3.63787
0
LINE
8
BLACK
6
CONTINUOUS
10
4.86093
20
-3.63787
11
4.8608
21
-3.63789
0
LINE
8
BLACK
6
CONTINUOUS
10
4.8608
20
-3.63789
11
4.86069
21
-3.63783
0
LINE
8
BLACK
6
CONTINUOUS
10
4.86069
20
-3.63783
11
4.8603
21
-3.63776
0
LINE
8
BLACK
6
CONTINUOUS
10
4.8603
20
-3.63776
11
4.85972
21
-3.63726
0
LINE
8
BLACK
6
CONTINUOUS
10
4.85972
20
-3.63726
11
4.85905
21
-3.63688
0
LINE
8
BLACK
6
CONTINUOUS
10
4.85905
20
-3.63688
11
4.85896
21
-3.63663
0
LINE
8
BLACK
6
CONTINUOUS
10
4.85896
20
-3.63663
11
4.85876
21
-3.63646
0
LINE
8
BLACK
6
CONTINUOUS
10
4.85876
20
-3.63646
11
4.85862
21
-3.6357
0
LINE
8
BLACK
6
CONTINUOUS
10
4.85862
20
-3.6357
11
4.85836
21
-3.63498
0
LINE
8
BLACK
6
CONTINUOUS
10
4.85836
20
-3.63498
11
4.85836
21
-3.61998
0
LINE
8
BLACK
6
CONTINUOUS
10
4.85836
20
-3.61998
11
4.85854
21
-3.61898
0
LINE
8
BLACK
6
CONTINUOUS
10
4.85854
20
-3.61898
11
4.85865
21
-3.61884
0
LINE
8
BLACK
6
CONTINUOUS
10
4.85865
20
-3.61884
11
4.85867
21
-3.61866
0
LINE
8
BLACK
6
CONTINUOUS
10
4.85867
20
-3.61866
11
4.86055
21
-3.61491
0
LINE
8
BLACK
6
CONTINUOUS
10
4.86055
20
-3.61491
11
4.86107
21
-3.61421
0
LINE
8
BLACK
6
CONTINUOUS
10
4.86107
20
-3.61421
11
4.8611
21
-3.61415
0
LINE
8
BLACK
6
CONTINUOUS
10
4.8611
20
-3.61415
11
4.86298
21
-3.61227
0
LINE
8
BLACK
6
CONTINUOUS
10
4.86298
20
-3.61227
11
4.8637
21
-3.61177
0
LINE
8
BLACK
6
CONTINUOUS
10
4.8637
20
-3.61177
11
4.86374
21
-3.61172
0
LINE
8
BLACK
6
CONTINUOUS
10
4.86374
20
-3.61172
11
4.86749
21
-3.60984
0
LINE
8
BLACK
6
CONTINUOUS
10
4.86749
20
-3.60984
11
4.86848
21
-3.60955
0
LINE
8
BLACK
6
CONTINUOUS
10
4.86848
20
-3.60955
11
4.86865
21
-3.60959
0
LINE
8
BLACK
6
CONTINUOUS
10
4.86865
20
-3.60959
11
4.86881
21
-3.60953
0
LINE
8
BLACK
6
CONTINUOUS
10
4.86881
20
-3.60953
11
4.87444
21
-3.60953
0
LINE
8
BLACK
6
CONTINUOUS
10
4.87444
20
-3.60953
11
4.87545
21
-3.60971
0
LINE
8
BLACK
6
CONTINUOUS
10
4.86951
20
-3.61544
11
4.86681
21
-3.61679
0
LINE
8
BLACK
6
CONTINUOUS
10
4.86681
20
-3.61679
11
4.86562
21
-3.61798
0
LINE
8
BLACK
6
CONTINUOUS
10
4.86562
20
-3.61798
11
4.86427
21
-3.62068
0
LINE
8
BLACK
6
CONTINUOUS
10
4.86427
20
-3.62068
11
4.86427
21
-3.63203
0
LINE
8
BLACK
6
CONTINUOUS
10
4.86427
20
-3.63203
11
4.87898
21
-3.63203
0
LINE
8
BLACK
6
CONTINUOUS
10
4.87898
20
-3.63203
11
4.87898
21
-3.62068
0
LINE
8
BLACK
6
CONTINUOUS
10
4.87898
20
-3.62068
11
4.87764
21
-3.61798
0
LINE
8
BLACK
6
CONTINUOUS
10
4.87764
20
-3.61798
11
4.87644
21
-3.61679
0
LINE
8
BLACK
6
CONTINUOUS
10
4.87644
20
-3.61679
11
4.87374
21
-3.61544
0
LINE
8
BLACK
6
CONTINUOUS
10
4.87374
20
-3.61544
11
4.86951
21
-3.61544
0
LINE
8
BLACK
6
CONTINUOUS
10
4.89902
20
-3.57103
11
4.9009
21
-3.5729
0
LINE
8
BLACK
6
CONTINUOUS
10
4.9009
20
-3.5729
11
4.90149
21
-3.57374
0
LINE
8
BLACK
6
CONTINUOUS
10
4.90149
20
-3.57374
11
4.9015
21
-3.57392
0
LINE
8
BLACK
6
CONTINUOUS
10
4.9015
20
-3.57392
11
4.90161
21
-3.57406
0
LINE
8
BLACK
6
CONTINUOUS
10
4.90161
20
-3.57406
11
4.90349
21
-3.57968
0
LINE
8
BLACK
6
CONTINUOUS
10
4.90349
20
-3.57968
11
4.90361
21
-3.58055
0
LINE
8
BLACK
6
CONTINUOUS
10
4.90361
20
-3.58055
11
4.90364
21
-3.58061
0
LINE
8
BLACK
6
CONTINUOUS
10
4.90364
20
-3.58061
11
4.90364
21
-3.58436
0
LINE
8
BLACK
6
CONTINUOUS
10
4.90364
20
-3.58436
11
4.90348
21
-3.58523
0
LINE
8
BLACK
6
CONTINUOUS
10
4.90348
20
-3.58523
11
4.90349
21
-3.5853
0
LINE
8
BLACK
6
CONTINUOUS
10
4.90349
20
-3.5853
11
4.90161
21
-3.59092
0
LINE
8
BLACK
6
CONTINUOUS
10
4.90161
20
-3.59092
11
4.90112
21
-3.59182
0
LINE
8
BLACK
6
CONTINUOUS
10
4.90112
20
-3.59182
11
4.90097
21
-3.59192
0
LINE
8
BLACK
6
CONTINUOUS
10
4.90097
20
-3.59192
11
4.9009
21
-3.59208
0
LINE
8
BLACK
6
CONTINUOUS
10
4.9009
20
-3.59208
11
4.89715
21
-3.59583
0
LINE
8
BLACK
6
CONTINUOUS
10
4.89715
20
-3.59583
11
4.89642
21
-3.59633
0
LINE
8
BLACK
6
CONTINUOUS
10
4.89642
20
-3.59633
11
4.89638
21
-3.59638
0
LINE
8
BLACK
6
CONTINUOUS
10
4.89638
20
-3.59638
11
4.89263
21
-3.59825
0
LINE
8
BLACK
6
CONTINUOUS
10
4.89263
20
-3.59825
11
4.89214
21
-3.5984
0
LINE
8
BLACK
6
CONTINUOUS
10
4.89214
20
-3.5984
11
4.89203
21
-3.59848
0
LINE
8
BLACK
6
CONTINUOUS
10
4.89203
20
-3.59848
11
4.88453
21
-3.60035
0
LINE
8
BLACK
6
CONTINUOUS
10
4.88453
20
-3.60035
11
4.88394
21
-3.60039
0
LINE
8
BLACK
6
CONTINUOUS
10
4.88394
20
-3.60039
11
4.88381
21
-3.60044
0
LINE
8
BLACK
6
CONTINUOUS
10
4.88381
20
-3.60044
11
4.87819
21
-3.60044
0
LINE
8
BLACK
6
CONTINUOUS
10
4.87819
20
-3.60044
11
4.87761
21
-3.60034
0
LINE
8
BLACK
6
CONTINUOUS
10
4.87761
20
-3.60034
11
4.87747
21
-3.60035
0
LINE
8
BLACK
6
CONTINUOUS
10
4.87747
20
-3.60035
11
4.86997
21
-3.59848
0
LINE
8
BLACK
6
CONTINUOUS
10
4.86997
20
-3.59848
11
4.86951
21
-3.59827
0
LINE
8
BLACK
6
CONTINUOUS
10
4.86951
20
-3.59827
11
4.86937
21
-3.59825
0
LINE
8
BLACK
6
CONTINUOUS
10
4.86937
20
-3.59825
11
4.86562
21
-3.59638
0
LINE
8
BLACK
6
CONTINUOUS
10
4.86562
20
-3.59638
11
4.86491
21
-3.59585
0
LINE
8
BLACK
6
CONTINUOUS
10
4.86491
20
-3.59585
11
4.86485
21
-3.59583
0
LINE
8
BLACK
6
CONTINUOUS
10
4.86485
20
-3.59583
11
4.8611
21
-3.59208
0
LINE
8
BLACK
6
CONTINUOUS
10
4.8611
20
-3.59208
11
4.86051
21
-3.59124
0
LINE
8
BLACK
6
CONTINUOUS
10
4.86051
20
-3.59124
11
4.8605
21
-3.59106
0
LINE
8
BLACK
6
CONTINUOUS
10
4.8605
20
-3.59106
11
4.86039
21
-3.59092
0
LINE
8
BLACK
6
CONTINUOUS
10
4.86039
20
-3.59092
11
4.85851
21
-3.5853
0
LINE
8
BLACK
6
CONTINUOUS
10
4.85851
20
-3.5853
11
4.85838
21
-3.58442
0
LINE
8
BLACK
6
CONTINUOUS
10
4.85838
20
-3.58442
11
4.85836
21
-3.58436
0
LINE
8
BLACK
6
CONTINUOUS
10
4.85836
20
-3.58436
11
4.85836
21
-3.58061
0
LINE
8
BLACK
6
CONTINUOUS
10
4.85836
20
-3.58061
11
4.85851
21
-3.57975
0
LINE
8
BLACK
6
CONTINUOUS
10
4.85851
20
-3.57975
11
4.85851
21
-3.57968
0
LINE
8
BLACK
6
CONTINUOUS
10
4.85851
20
-3.57968
11
4.86039
21
-3.57406
0
LINE
8
BLACK
6
CONTINUOUS
10
4.86039
20
-3.57406
11
4.86088
21
-3.57316
0
LINE
8
BLACK
6
CONTINUOUS
10
4.86088
20
-3.57316
11
4.86103
21
-3.57306
0
LINE
8
BLACK
6
CONTINUOUS
10
4.86103
20
-3.57306
11
4.8611
21
-3.5729
0
LINE
8
BLACK
6
CONTINUOUS
10
4.8611
20
-3.5729
11
4.86298
21
-3.57103
0
LINE
8
BLACK
6
CONTINUOUS
10
4.86298
20
-3.57103
11
4.86382
21
-3.57044
0
LINE
8
BLACK
6
CONTINUOUS
10
4.86382
20
-3.57044
11
4.86583
21
-3.57026
0
LINE
8
BLACK
6
CONTINUOUS
10
4.86583
20
-3.57026
11
4.86748
21
-3.57142
0
LINE
8
BLACK
6
CONTINUOUS
10
4.86748
20
-3.57142
11
4.86801
21
-3.57337
0
LINE
8
BLACK
6
CONTINUOUS
10
4.86801
20
-3.57337
11
4.86715
21
-3.5752
0
LINE
8
BLACK
6
CONTINUOUS
10
4.86715
20
-3.5752
11
4.86577
21
-3.57659
0
LINE
8
BLACK
6
CONTINUOUS
10
4.86577
20
-3.57659
11
4.86427
21
-3.58109
0
LINE
8
BLACK
6
CONTINUOUS
10
4.86427
20
-3.58109
11
4.86427
21
-3.58389
0
LINE
8
BLACK
6
CONTINUOUS
10
4.86427
20
-3.58389
11
4.86577
21
-3.58839
0
LINE
8
BLACK
6
CONTINUOUS
10
4.86577
20
-3.58839
11
4.86869
21
-3.59131
0
LINE
8
BLACK
6
CONTINUOUS
10
4.86869
20
-3.59131
11
4.87172
21
-3.59283
0
LINE
8
BLACK
6
CONTINUOUS
10
4.87172
20
-3.59283
11
4.87855
21
-3.59454
0
LINE
8
BLACK
6
CONTINUOUS
10
4.87855
20
-3.59454
11
4.88345
21
-3.59454
0
LINE
8
BLACK
6
CONTINUOUS
10
4.88345
20
-3.59454
11
4.89028
21
-3.59283
0
LINE
8
BLACK
6
CONTINUOUS
10
4.89028
20
-3.59283
11
4.89331
21
-3.59131
0
LINE
8
BLACK
6
CONTINUOUS
10
4.89331
20
-3.59131
11
4.89623
21
-3.58839
0
LINE
8
BLACK
6
CONTINUOUS
10
4.89623
20
-3.58839
11
4.89773
21
-3.58389
0
LINE
8
BLACK
6
CONTINUOUS
10
4.89773
20
-3.58389
11
4.89773
21
-3.58109
0
LINE
8
BLACK
6
CONTINUOUS
10
4.89773
20
-3.58109
11
4.89623
21
-3.57659
0
LINE
8
BLACK
6
CONTINUOUS
10
4.89623
20
-3.57659
11
4.89485
21
-3.5752
0
LINE
8
BLACK
6
CONTINUOUS
10
4.89485
20
-3.5752
11
4.89426
21
-3.57436
0
LINE
8
BLACK
6
CONTINUOUS
10
4.89426
20
-3.57436
11
4.89408
21
-3.57235
0
LINE
8
BLACK
6
CONTINUOUS
10
4.89408
20
-3.57235
11
4.89524
21
-3.5707
0
LINE
8
BLACK
6
CONTINUOUS
10
4.89524
20
-3.5707
11
4.89719
21
-3.57017
0
LINE
8
BLACK
6
CONTINUOUS
10
4.89719
20
-3.57017
11
4.89902
21
-3.57103
0
LINE
8
BLACK
6
CONTINUOUS
10
4.8942
20
-3.53097
11
4.89433
21
-3.53108
0
LINE
8
BLACK
6
CONTINUOUS
10
4.89433
20
-3.53108
11
4.89451
21
-3.5311
0
LINE
8
BLACK
6
CONTINUOUS
10
4.89451
20
-3.5311
11
4.89826
21
-3.53298
0
LINE
8
BLACK
6
CONTINUOUS
10
4.89826
20
-3.53298
11
4.89896
21
-3.53351
0
LINE
8
BLACK
6
CONTINUOUS
10
4.89896
20
-3.53351
11
4.89902
21
-3.53353
0
LINE
8
BLACK
6
CONTINUOUS
10
4.89902
20
-3.53353
11
4.9009
21
-3.53541
0
LINE
8
BLACK
6
CONTINUOUS
10
4.9009
20
-3.53541
11
4.9014
21
-3.53613
0
LINE
8
BLACK
6
CONTINUOUS
10
4.9014
20
-3.53613
11
4.90145
21
-3.53617
0
LINE
8
BLACK
6
CONTINUOUS
10
4.90145
20
-3.53617
11
4.90333
21
-3.53992
0
LINE
8
BLACK
6
CONTINUOUS
10
4.90333
20
-3.53992
11
4.90362
21
-3.54091
0
LINE
8
BLACK
6
CONTINUOUS
10
4.90362
20
-3.54091
11
4.90358
21
-3.54108
0
LINE
8
BLACK
6
CONTINUOUS
10
4.90358
20
-3.54108
11
4.90364
21
-3.54124
0
LINE
8
BLACK
6
CONTINUOUS
10
4.90364
20
-3.54124
11
4.90364
21
-3.55624
0
LINE
8
BLACK
6
CONTINUOUS
10
4.90364
20
-3.55624
11
4.90357
21
-3.55663
0
LINE
8
BLACK
6
CONTINUOUS
10
4.90357
20
-3.55663
11
4.90359
21
-3.55676
0
LINE
8
BLACK
6
CONTINUOUS
10
4.90359
20
-3.55676
11
4.90353
21
-3.55687
0
LINE
8
BLACK
6
CONTINUOUS
10
4.90353
20
-3.55687
11
4.90346
21
-3.55725
0
LINE
8
BLACK
6
CONTINUOUS
10
4.90346
20
-3.55725
11
4.90297
21
-3.55784
0
LINE
8
BLACK
6
CONTINUOUS
10
4.90297
20
-3.55784
11
4.90258
21
-3.5585
0
LINE
8
BLACK
6
CONTINUOUS
10
4.90258
20
-3.5585
11
4.90233
21
-3.5586
0
LINE
8
BLACK
6
CONTINUOUS
10
4.90233
20
-3.5586
11
4.90216
21
-3.5588
0
LINE
8
BLACK
6
CONTINUOUS
10
4.90216
20
-3.5588
11
4.90141
21
-3.55893
0
LINE
8
BLACK
6
CONTINUOUS
10
4.90141
20
-3.55893
11
4.90068
21
-3.5592
0
LINE
8
BLACK
6
CONTINUOUS
10
4.90068
20
-3.5592
11
4.86131
21
-3.5592
0
LINE
8
BLACK
6
CONTINUOUS
10
4.86131
20
-3.5592
11
4.86093
21
-3.55913
0
LINE
8
BLACK
6
CONTINUOUS
10
4.86093
20
-3.55913
11
4.8608
21
-3.55915
0
LINE
8
BLACK
6
CONTINUOUS
10
4.8608
20
-3.55915
11
4.86069
21
-3.55909
0
LINE
8
BLACK
6
CONTINUOUS
10
4.86069
20
-3.55909
11
4.8603
21
-3.55902
0
LINE
8
BLACK
6
CONTINUOUS
10
4.8603
20
-3.55902
11
4.85972
21
-3.55852
0
LINE
8
BLACK
6
CONTINUOUS
10
4.85972
20
-3.55852
11
4.85905
21
-3.55814
0
LINE
8
BLACK
6
CONTINUOUS
10
4.85905
20
-3.55814
11
4.85896
21
-3.55789
0
LINE
8
BLACK
6
CONTINUOUS
10
4.85896
20
-3.55789
11
4.85876
21
-3.55772
0
LINE
8
BLACK
6
CONTINUOUS
10
4.85876
20
-3.55772
11
4.85862
21
-3.55696
0
LINE
8
BLACK
6
CONTINUOUS
10
4.85862
20
-3.55696
11
4.85836
21
-3.55624
0
LINE
8
BLACK
6
CONTINUOUS
10
4.85836
20
-3.55624
11
4.85836
21
-3.54312
0
LINE
8
BLACK
6
CONTINUOUS
10
4.85836
20
-3.54312
11
4.85854
21
-3.54211
0
LINE
8
BLACK
6
CONTINUOUS
10
4.85854
20
-3.54211
11
4.85865
21
-3.54197
0
LINE
8
BLACK
6
CONTINUOUS
10
4.85865
20
-3.54197
11
4.85867
21
-3.5418
0
LINE
8
BLACK
6
CONTINUOUS
10
4.85867
20
-3.5418
11
4.86055
21
-3.53805
0
LINE
8
BLACK
6
CONTINUOUS
10
4.86055
20
-3.53805
11
4.86107
21
-3.53734
0
LINE
8
BLACK
6
CONTINUOUS
10
4.86107
20
-3.53734
11
4.8611
21
-3.53728
0
LINE
8
BLACK
6
CONTINUOUS
10
4.8611
20
-3.53728
11
4.86298
21
-3.53541
0
LINE
8
BLACK
6
CONTINUOUS
10
4.86298
20
-3.53541
11
4.8637
21
-3.5349
0
LINE
8
BLACK
6
CONTINUOUS
10
4.8637
20
-3.5349
11
4.86374
21
-3.53485
0
LINE
8
BLACK
6
CONTINUOUS
10
4.86374
20
-3.53485
11
4.86749
21
-3.53298
0
LINE
8
BLACK
6
CONTINUOUS
10
4.86749
20
-3.53298
11
4.86848
21
-3.53269
0
LINE
8
BLACK
6
CONTINUOUS
10
4.86848
20
-3.53269
11
4.86865
21
-3.53273
0
LINE
8
BLACK
6
CONTINUOUS
10
4.86865
20
-3.53273
11
4.86881
21
-3.53267
0
LINE
8
BLACK
6
CONTINUOUS
10
4.86881
20
-3.53267
11
4.87256
21
-3.53267
0
LINE
8
BLACK
6
CONTINUOUS
10
4.87256
20
-3.53267
11
4.87357
21
-3.53285
0
LINE
8
BLACK
6
CONTINUOUS
10
4.87357
20
-3.53285
11
4.87371
21
-3.53296
0
LINE
8
BLACK
6
CONTINUOUS
10
4.87371
20
-3.53296
11
4.87388
21
-3.53298
0
LINE
8
BLACK
6
CONTINUOUS
10
4.87388
20
-3.53298
11
4.87763
21
-3.53485
0
LINE
8
BLACK
6
CONTINUOUS
10
4.87763
20
-3.53485
11
4.87834
21
-3.53538
0
LINE
8
BLACK
6
CONTINUOUS
10
4.87834
20
-3.53538
11
4.8784
21
-3.53541
0
LINE
8
BLACK
6
CONTINUOUS
10
4.8784
20
-3.53541
11
4.87928
21
-3.53629
0
LINE
8
BLACK
6
CONTINUOUS
10
4.87928
20
-3.53629
11
4.87962
21
-3.53566
0
LINE
8
BLACK
6
CONTINUOUS
10
4.87962
20
-3.53566
11
4.87977
21
-3.53557
0
LINE
8
BLACK
6
CONTINUOUS
10
4.87977
20
-3.53557
11
4.87985
21
-3.53541
0
LINE
8
BLACK
6
CONTINUOUS
10
4.87985
20
-3.53541
11
4.88172
21
-3.53353
0
LINE
8
BLACK
6
CONTINUOUS
10
4.88172
20
-3.53353
11
4.88245
21
-3.53303
0
LINE
8
BLACK
6
CONTINUOUS
10
4.88245
20
-3.53303
11
4.88249
21
-3.53298
0
LINE
8
BLACK
6
CONTINUOUS
10
4.88249
20
-3.53298
11
4.88624
21
-3.5311
0
LINE
8
BLACK
6
CONTINUOUS
10
4.88624
20
-3.5311
11
4.88722
21
-3.53081
0
LINE
8
BLACK
6
CONTINUOUS
10
4.88722
20
-3.53081
11
4.88739
21
-3.53085
0
LINE
8
BLACK
6
CONTINUOUS
10
4.88739
20
-3.53085
11
4.88756
21
-3.53079
0
LINE
8
BLACK
6
CONTINUOUS
10
4.88756
20
-3.53079
11
4.89319
21
-3.53079
0
LINE
8
BLACK
6
CONTINUOUS
10
4.89319
20
-3.53079
11
4.8942
21
-3.53097
0
LINE
8
BLACK
6
CONTINUOUS
10
4.86951
20
-3.53857
11
4.86681
21
-3.53992
0
LINE
8
BLACK
6
CONTINUOUS
10
4.86681
20
-3.53992
11
4.86562
21
-3.54112
0
LINE
8
BLACK
6
CONTINUOUS
10
4.86562
20
-3.54112
11
4.86427
21
-3.54382
0
LINE
8
BLACK
6
CONTINUOUS
10
4.86427
20
-3.54382
11
4.86427
21
-3.55329
0
LINE
8
BLACK
6
CONTINUOUS
10
4.86427
20
-3.55329
11
4.87711
21
-3.55329
0
LINE
8
BLACK
6
CONTINUOUS
10
4.87711
20
-3.55329
11
4.87711
21
-3.54382
0
LINE
8
BLACK
6
CONTINUOUS
10
4.87711
20
-3.54382
11
4.87576
21
-3.54112
0
LINE
8
BLACK
6
CONTINUOUS
10
4.87576
20
-3.54112
11
4.87456
21
-3.53992
0
LINE
8
BLACK
6
CONTINUOUS
10
4.87456
20
-3.53992
11
4.87187
21
-3.53857
0
LINE
8
BLACK
6
CONTINUOUS
10
4.87187
20
-3.53857
11
4.86951
21
-3.53857
0
LINE
8
BLACK
6
CONTINUOUS
10
4.88826
20
-3.5367
11
4.88556
21
-3.53805
0
LINE
8
BLACK
6
CONTINUOUS
10
4.88556
20
-3.53805
11
4.88452
21
-3.53909
0
LINE
8
BLACK
6
CONTINUOUS
10
4.88452
20
-3.53909
11
4.88301
21
-3.5436
0
LINE
8
BLACK
6
CONTINUOUS
10
4.88301
20
-3.5436
11
4.88301
21
-3.55329
0
LINE
8
BLACK
6
CONTINUOUS
10
4.88301
20
-3.55329
11
4.89773
21
-3.55329
0
LINE
8
BLACK
6
CONTINUOUS
10
4.89773
20
-3.55329
11
4.89773
21
-3.54194
0
LINE
8
BLACK
6
CONTINUOUS
10
4.89773
20
-3.54194
11
4.89638
21
-3.53924
0
LINE
8
BLACK
6
CONTINUOUS
10
4.89638
20
-3.53924
11
4.89519
21
-3.53805
0
LINE
8
BLACK
6
CONTINUOUS
10
4.89519
20
-3.53805
11
4.89249
21
-3.5367
0
LINE
8
BLACK
6
CONTINUOUS
10
4.89249
20
-3.5367
11
4.88826
21
-3.5367
0
LINE
8
BLACK
6
CONTINUOUS
10
4.90295
20
-3.46623
11
4.90364
21
-3.46813
0
LINE
8
BLACK
6
CONTINUOUS
10
4.90364
20
-3.46813
11
4.90364
21
-3.48688
0
LINE
8
BLACK
6
CONTINUOUS
10
4.90364
20
-3.48688
11
4.90357
21
-3.48726
0
LINE
8
BLACK
6
CONTINUOUS
10
4.90357
20
-3.48726
11
4.90359
21
-3.48739
0
LINE
8
BLACK
6
CONTINUOUS
10
4.90359
20
-3.48739
11
4.90353
21
-3.4875
0
LINE
8
BLACK
6
CONTINUOUS
10
4.90353
20
-3.4875
11
4.90346
21
-3.48789
0
LINE
8
BLACK
6
CONTINUOUS
10
4.90346
20
-3.48789
11
4.90297
21
-3.48847
0
LINE
8
BLACK
6
CONTINUOUS
10
4.90297
20
-3.48847
11
4.90258
21
-3.48914
0
LINE
8
BLACK
6
CONTINUOUS
10
4.90258
20
-3.48914
11
4.90233
21
-3.48923
0
LINE
8
BLACK
6
CONTINUOUS
10
4.90233
20
-3.48923
11
4.90216
21
-3.48943
0
LINE
8
BLACK
6
CONTINUOUS
10
4.90216
20
-3.48943
11
4.90141
21
-3.48957
0
LINE
8
BLACK
6
CONTINUOUS
10
4.90141
20
-3.48957
11
4.90068
21
-3.48983
0
LINE
8
BLACK
6
CONTINUOUS
10
4.90068
20
-3.48983
11
4.86131
21
-3.48983
0
LINE
8
BLACK
6
CONTINUOUS
10
4.86131
20
-3.48983
11
4.86093
21
-3.48976
0
LINE
8
BLACK
6
CONTINUOUS
10
4.86093
20
-3.48976
11
4.8608
21
-3.48978
0
LINE
8
BLACK
6
CONTINUOUS
10
4.8608
20
-3.48978
11
4.86069
21
-3.48972
0
LINE
8
BLACK
6
CONTINUOUS
10
4.86069
20
-3.48972
11
4.8603
21
-3.48965
0
LINE
8
BLACK
6
CONTINUOUS
10
4.8603
20
-3.48965
11
4.85972
21
-3.48916
0
LINE
8
BLACK
6
CONTINUOUS
10
4.85972
20
-3.48916
11
4.85905
21
-3.48877
0
LINE
8
BLACK
6
CONTINUOUS
10
4.85905
20
-3.48877
11
4.85896
21
-3.48852
0
LINE
8
BLACK
6
CONTINUOUS
10
4.85896
20
-3.48852
11
4.85876
21
-3.48835
0
LINE
8
BLACK
6
CONTINUOUS
10
4.85876
20
-3.48835
11
4.85862
21
-3.4876
0
LINE
8
BLACK
6
CONTINUOUS
10
4.85862
20
-3.4876
11
4.85836
21
-3.48688
0
LINE
8
BLACK
6
CONTINUOUS
10
4.85836
20
-3.48688
11
4.85836
21
-3.46813
0
LINE
8
BLACK
6
CONTINUOUS
10
4.85836
20
-3.46813
11
4.85854
21
-3.46712
0
LINE
8
BLACK
6
CONTINUOUS
10
4.85854
20
-3.46712
11
4.85984
21
-3.46557
0
LINE
8
BLACK
6
CONTINUOUS
10
4.85984
20
-3.46557
11
4.86183
21
-3.46522
0
LINE
8
BLACK
6
CONTINUOUS
10
4.86183
20
-3.46522
11
4.86358
21
-3.46623
0
LINE
8
BLACK
6
CONTINUOUS
10
4.86358
20
-3.46623
11
4.86427
21
-3.46813
0
LINE
8
BLACK
6
CONTINUOUS
10
4.86427
20
-3.46813
11
4.86427
21
-3.48392
0
LINE
8
BLACK
6
CONTINUOUS
10
4.86427
20
-3.48392
11
4.87711
21
-3.48392
0
LINE
8
BLACK
6
CONTINUOUS
10
4.87711
20
-3.48392
11
4.87711
21
-3.47375
0
LINE
8
BLACK
6
CONTINUOUS
10
4.87711
20
-3.47375
11
4.87729
21
-3.47274
0
LINE
8
BLACK
6
CONTINUOUS
10
4.87729
20
-3.47274
11
4.87859
21
-3.4712
0
LINE
8
BLACK
6
CONTINUOUS
10
4.87859
20
-3.4712
11
4.88057
21
-3.47085
0
LINE
8
BLACK
6
CONTINUOUS
10
4.88057
20
-3.47085
11
4.88232
21
-3.47186
0
LINE
8
BLACK
6
CONTINUOUS
10
4.88232
20
-3.47186
11
4.88301
21
-3.47375
0
LINE
8
BLACK
6
CONTINUOUS
10
4.88301
20
-3.47375
11
4.88301
21
-3.48392
0
LINE
8
BLACK
6
CONTINUOUS
10
4.88301
20
-3.48392
11
4.89773
21
-3.48392
0
LINE
8
BLACK
6
CONTINUOUS
10
4.89773
20
-3.48392
11
4.89773
21
-3.46813
0
LINE
8
BLACK
6
CONTINUOUS
10
4.89773
20
-3.46813
11
4.89791
21
-3.46712
0
LINE
8
BLACK
6
CONTINUOUS
10
4.89791
20
-3.46712
11
4.89921
21
-3.46557
0
LINE
8
BLACK
6
CONTINUOUS
10
4.89921
20
-3.46557
11
4.9012
21
-3.46522
0
LINE
8
BLACK
6
CONTINUOUS
10
4.9012
20
-3.46522
11
4.90295
21
-3.46623
0
LINE
8
BLACK
6
CONTINUOUS
10
4.90169
20
-3.43161
11
4.90324
21
-3.43291
0
LINE
8
BLACK
6
CONTINUOUS
10
4.90324
20
-3.43291
11
4.90359
21
-3.4349
0
LINE
8
BLACK
6
CONTINUOUS
10
4.90359
20
-3.4349
11
4.90294
21
-3.43603
0
LINE
8
BLACK
6
CONTINUOUS
10
4.90294
20
-3.43603
11
4.90333
21
-3.43681
0
LINE
8
BLACK
6
CONTINUOUS
10
4.90333
20
-3.43681
11
4.90362
21
-3.4378
0
LINE
8
BLACK
6
CONTINUOUS
10
4.90362
20
-3.4378
11
4.90358
21
-3.43797
0
LINE
8
BLACK
6
CONTINUOUS
10
4.90358
20
-3.43797
11
4.90364
21
-3.43813
0
LINE
8
BLACK
6
CONTINUOUS
10
4.90364
20
-3.43813
11
4.90364
21
-3.44563
0
LINE
8
BLACK
6
CONTINUOUS
10
4.90364
20
-3.44563
11
4.90346
21
-3.44664
0
LINE
8
BLACK
6
CONTINUOUS
10
4.90346
20
-3.44664
11
4.90335
21
-3.44678
0
LINE
8
BLACK
6
CONTINUOUS
10
4.90335
20
-3.44678
11
4.90333
21
-3.44695
0
LINE
8
BLACK
6
CONTINUOUS
10
4.90333
20
-3.44695
11
4.90145
21
-3.4507
0
LINE
8
BLACK
6
CONTINUOUS
10
4.90145
20
-3.4507
11
4.90092
21
-3.45141
0
LINE
8
BLACK
6
CONTINUOUS
10
4.90092
20
-3.45141
11
4.9009
21
-3.45147
0
LINE
8
BLACK
6
CONTINUOUS
10
4.9009
20
-3.45147
11
4.89902
21
-3.45334
0
LINE
8
BLACK
6
CONTINUOUS
10
4.89902
20
-3.45334
11
4.8983
21
-3.45385
0
LINE
8
BLACK
6
CONTINUOUS
10
4.8983
20
-3.45385
11
4.89826
21
-3.4539
0
LINE
8
BLACK
6
CONTINUOUS
10
4.89826
20
-3.4539
11
4.89451
21
-3.45577
0
LINE
8
BLACK
6
CONTINUOUS
10
4.89451
20
-3.45577
11
4.89352
21
-3.45606
0
LINE
8
BLACK
6
CONTINUOUS
10
4.89352
20
-3.45606
11
4.89335
21
-3.45602
0
LINE
8
BLACK
6
CONTINUOUS
10
4.89335
20
-3.45602
11
4.89319
21
-3.45608
0
LINE
8
BLACK
6
CONTINUOUS
10
4.89319
20
-3.45608
11
4.88194
21
-3.45608
0
LINE
8
BLACK
6
CONTINUOUS
10
4.88194
20
-3.45608
11
4.88093
21
-3.45591
0
LINE
8
BLACK
6
CONTINUOUS
10
4.88093
20
-3.45591
11
4.88079
21
-3.45579
0
LINE
8
BLACK
6
CONTINUOUS
10
4.88079
20
-3.45579
11
4.88062
21
-3.45577
0
LINE
8
BLACK
6
CONTINUOUS
10
4.88062
20
-3.45577
11
4.87687
21
-3.4539
0
LINE
8
BLACK
6
CONTINUOUS
10
4.87687
20
-3.4539
11
4.87616
21
-3.45337
0
LINE
8
BLACK
6
CONTINUOUS
10
4.87616
20
-3.45337
11
4.8761
21
-3.45334
0
LINE
8
BLACK
6
CONTINUOUS
10
4.8761
20
-3.45334
11
4.87422
21
-3.45147
0
LINE
8
BLACK
6
CONTINUOUS
10
4.87422
20
-3.45147
11
4.87372
21
-3.45075
0
LINE
8
BLACK
6
CONTINUOUS
10
4.87372
20
-3.45075
11
4.87367
21
-3.4507
0
LINE
8
BLACK
6
CONTINUOUS
10
4.87367
20
-3.4507
11
4.8718
21
-3.44695
0
LINE
8
BLACK
6
CONTINUOUS
10
4.8718
20
-3.44695
11
4.8715
21
-3.44597
0
LINE
8
BLACK
6
CONTINUOUS
10
4.8715
20
-3.44597
11
4.87155
21
-3.4458
0
LINE
8
BLACK
6
CONTINUOUS
10
4.87155
20
-3.4458
11
4.87148
21
-3.44563
0
LINE
8
BLACK
6
CONTINUOUS
10
4.87148
20
-3.44563
11
4.87148
21
-3.43813
0
LINE
8
BLACK
6
CONTINUOUS
10
4.87148
20
-3.43813
11
4.87163
21
-3.43734
0
LINE
8
BLACK
6
CONTINUOUS
10
4.87163
20
-3.43734
11
4.86131
21
-3.43734
0
LINE
8
BLACK
6
CONTINUOUS
10
4.86131
20
-3.43734
11
4.8603
21
-3.43716
0
LINE
8
BLACK
6
CONTINUOUS
10
4.8603
20
-3.43716
11
4.85876
21
-3.43586
0
LINE
8
BLACK
6
CONTINUOUS
10
4.85876
20
-3.43586
11
4.85841
21
-3.43387
0
LINE
8
BLACK
6
CONTINUOUS
10
4.85841
20
-3.43387
11
4.85942
21
-3.43212
0
LINE
8
BLACK
6
CONTINUOUS
10
4.85942
20
-3.43212
11
4.86131
21
-3.43143
0
LINE
8
BLACK
6
CONTINUOUS
10
4.86131
20
-3.43143
11
4.90068
21
-3.43143
0
LINE
8
BLACK
6
CONTINUOUS
10
4.90068
20
-3.43143
11
4.90169
21
-3.43161
0
LINE
8
BLACK
6
CONTINUOUS
10
4.87814
20
-3.43734
11
4.87739
21
-3.43883
0
LINE
8
BLACK
6
CONTINUOUS
10
4.87739
20
-3.43883
11
4.87739
21
-3.44493
0
LINE
8
BLACK
6
CONTINUOUS
10
4.87739
20
-3.44493
11
4.87874
21
-3.44763
0
LINE
8
BLACK
6
CONTINUOUS
10
4.87874
20
-3.44763
11
4.87994
21
-3.44883
0
LINE
8
BLACK
6
CONTINUOUS
10
4.87994
20
-3.44883
11
4.88263
21
-3.45018
0
LINE
8
BLACK
6
CONTINUOUS
10
4.88263
20
-3.45018
11
4.89249
21
-3.45018
0
LINE
8
BLACK
6
CONTINUOUS
10
4.89249
20
-3.45018
11
4.89519
21
-3.44883
0
LINE
8
BLACK
6
CONTINUOUS
10
4.89519
20
-3.44883
11
4.89638
21
-3.44763
0
LINE
8
BLACK
6
CONTINUOUS
10
4.89638
20
-3.44763
11
4.89773
21
-3.44493
0
LINE
8
BLACK
6
CONTINUOUS
10
4.89773
20
-3.44493
11
4.89773
21
-3.43883
0
LINE
8
BLACK
6
CONTINUOUS
10
4.89773
20
-3.43883
11
4.89698
21
-3.43734
0
LINE
8
BLACK
6
CONTINUOUS
10
4.89698
20
-3.43734
11
4.87814
21
-3.43734
0
LINE
8
BLACK
6
CONTINUOUS
10
4.90732
20
-3.39599
11
4.90745
21
-3.3961
0
LINE
8
BLACK
6
CONTINUOUS
10
4.90745
20
-3.3961
11
4.90763
21
-3.39612
0
LINE
8
BLACK
6
CONTINUOUS
10
4.90763
20
-3.39612
11
4.91138
21
-3.398
0
LINE
8
BLACK
6
CONTINUOUS
10
4.91138
20
-3.398
11
4.91209
21
-3.39852
0
LINE
8
BLACK
6
CONTINUOUS
10
4.91209
20
-3.39852
11
4.91215
21
-3.39855
0
LINE
8
BLACK
6
CONTINUOUS
10
4.91215
20
-3.39855
11
4.91402
21
-3.40042
0
LINE
8
BLACK
6
CONTINUOUS
10
4.91402
20
-3.40042
11
4.91453
21
-3.40115
0
LINE
8
BLACK
6
CONTINUOUS
10
4.91453
20
-3.40115
11
4.91457
21
-3.40119
0
LINE
8
BLACK
6
CONTINUOUS
10
4.91457
20
-3.40119
11
4.91645
21
-3.40494
0
LINE
8
BLACK
6
CONTINUOUS
10
4.91645
20
-3.40494
11
4.91674
21
-3.40592
0
LINE
8
BLACK
6
CONTINUOUS
10
4.91674
20
-3.40592
11
4.9167
21
-3.4061
0
LINE
8
BLACK
6
CONTINUOUS
10
4.9167
20
-3.4061
11
4.91676
21
-3.40626
0
LINE
8
BLACK
6
CONTINUOUS
10
4.91676
20
-3.40626
11
4.91676
21
-3.41189
0
LINE
8
BLACK
6
CONTINUOUS
10
4.91676
20
-3.41189
11
4.91658
21
-3.4129
0
LINE
8
BLACK
6
CONTINUOUS
10
4.91658
20
-3.4129
11
4.91647
21
-3.41303
0
LINE
8
BLACK
6
CONTINUOUS
10
4.91647
20
-3.41303
11
4.91645
21
-3.41321
0
LINE
8
BLACK
6
CONTINUOUS
10
4.91645
20
-3.41321
11
4.91457
21
-3.41696
0
LINE
8
BLACK
6
CONTINUOUS
10
4.91457
20
-3.41696
11
4.91396
21
-3.41778
0
LINE
8
BLACK
6
CONTINUOUS
10
4.91396
20
-3.41778
11
4.91211
21
-3.41858
0
LINE
8
BLACK
6
CONTINUOUS
10
4.91211
20
-3.41858
11
4.91017
21
-3.41801
0
LINE
8
BLACK
6
CONTINUOUS
10
4.91017
20
-3.41801
11
4.90906
21
-3.41632
0
LINE
8
BLACK
6
CONTINUOUS
10
4.90906
20
-3.41632
11
4.90929
21
-3.41431
0
LINE
8
BLACK
6
CONTINUOUS
10
4.90929
20
-3.41431
11
4.91085
21
-3.41119
0
LINE
8
BLACK
6
CONTINUOUS
10
4.91085
20
-3.41119
11
4.91085
21
-3.40696
0
LINE
8
BLACK
6
CONTINUOUS
10
4.91085
20
-3.40696
11
4.90951
21
-3.40426
0
LINE
8
BLACK
6
CONTINUOUS
10
4.90951
20
-3.40426
11
4.90831
21
-3.40306
0
LINE
8
BLACK
6
CONTINUOUS
10
4.90831
20
-3.40306
11
4.90561
21
-3.40172
0
LINE
8
BLACK
6
CONTINUOUS
10
4.90561
20
-3.40172
11
4.90348
21
-3.40172
0
LINE
8
BLACK
6
CONTINUOUS
10
4.90348
20
-3.40172
11
4.90362
21
-3.40217
0
LINE
8
BLACK
6
CONTINUOUS
10
4.90362
20
-3.40217
11
4.90358
21
-3.40235
0
LINE
8
BLACK
6
CONTINUOUS
10
4.90358
20
-3.40235
11
4.90364
21
-3.40251
0
LINE
8
BLACK
6
CONTINUOUS
10
4.90364
20
-3.40251
11
4.90364
21
-3.41001
0
LINE
8
BLACK
6
CONTINUOUS
10
4.90364
20
-3.41001
11
4.90346
21
-3.41102
0
LINE
8
BLACK
6
CONTINUOUS
10
4.90346
20
-3.41102
11
4.90335
21
-3.41116
0
LINE
8
BLACK
6
CONTINUOUS
10
4.90335
20
-3.41116
11
4.90333
21
-3.41133
0
LINE
8
BLACK
6
CONTINUOUS
10
4.90333
20
-3.41133
11
4.90145
21
-3.41508
0
LINE
8
BLACK
6
CONTINUOUS
10
4.90145
20
-3.41508
11
4.90092
21
-3.41579
0
LINE
8
BLACK
6
CONTINUOUS
10
4.90092
20
-3.41579
11
4.9009
21
-3.41585
0
LINE
8
BLACK
6
CONTINUOUS
10
4.9009
20
-3.41585
11
4.89902
21
-3.41772
0
LINE
8
BLACK
6
CONTINUOUS
10
4.89902
20
-3.41772
11
4.8983
21
-3.41823
0
LINE
8
BLACK
6
CONTINUOUS
10
4.8983
20
-3.41823
11
4.89826
21
-3.41828
0
LINE
8
BLACK
6
CONTINUOUS
10
4.89826
20
-3.41828
11
4.89451
21
-3.42015
0
LINE
8
BLACK
6
CONTINUOUS
10
4.89451
20
-3.42015
11
4.89352
21
-3.42044
0
LINE
8
BLACK
6
CONTINUOUS
10
4.89352
20
-3.42044
11
4.89335
21
-3.4204
0
LINE
8
BLACK
6
CONTINUOUS
10
4.89335
20
-3.4204
11
4.89319
21
-3.42046
0
LINE
8
BLACK
6
CONTINUOUS
10
4.89319
20
-3.42046
11
4.88194
21
-3.42046
0
LINE
8
BLACK
6
CONTINUOUS
10
4.88194
20
-3.42046
11
4.88093
21
-3.42028
0
LINE
8
BLACK
6
CONTINUOUS
10
4.88093
20
-3.42028
11
4.88079
21
-3.42017
0
LINE
8
BLACK
6
CONTINUOUS
10
4.88079
20
-3.42017
11
4.88062
21
-3.42015
0
LINE
8
BLACK
6
CONTINUOUS
10
4.88062
20
-3.42015
11
4.87687
21
-3.41828
0
LINE
8
BLACK
6
CONTINUOUS
10
4.87687
20
-3.41828
11
4.87616
21
-3.41775
0
LINE
8
BLACK
6
CONTINUOUS
10
4.87616
20
-3.41775
11
4.8761
21
-3.41772
0
LINE
8
BLACK
6
CONTINUOUS
10
4.8761
20
-3.41772
11
4.87422
21
-3.41585
0
LINE
8
BLACK
6
CONTINUOUS
10
4.87422
20
-3.41585
11
4.87372
21
-3.41513
0
LINE
8
BLACK
6
CONTINUOUS
10
4.87372
20
-3.41513
11
4.87367
21
-3.41508
0
LINE
8
BLACK
6
CONTINUOUS
10
4.87367
20
-3.41508
11
4.8718
21
-3.41133
0
LINE
8
BLACK
6
CONTINUOUS
10
4.8718
20
-3.41133
11
4.8715
21
-3.41035
0
LINE
8
BLACK
6
CONTINUOUS
10
4.8715
20
-3.41035
11
4.87155
21
-3.41018
0
LINE
8
BLACK
6
CONTINUOUS
10
4.87155
20
-3.41018
11
4.87148
21
-3.41001
0
LINE
8
BLACK
6
CONTINUOUS
10
4.87148
20
-3.41001
11
4.87148
21
-3.40251
0
LINE
8
BLACK
6
CONTINUOUS
10
4.87148
20
-3.40251
11
4.87166
21
-3.4015
0
LINE
8
BLACK
6
CONTINUOUS
10
4.87166
20
-3.4015
11
4.87178
21
-3.40137
0
LINE
8
BLACK
6
CONTINUOUS
10
4.87178
20
-3.40137
11
4.8718
21
-3.40119
0
LINE
8
BLACK
6
CONTINUOUS
10
4.8718
20
-3.40119
11
4.87216
21
-3.40047
0
LINE
8
BLACK
6
CONTINUOUS
10
4.87216
20
-3.40047
11
4.87188
21
-3.40024
0
LINE
8
BLACK
6
CONTINUOUS
10
4.87188
20
-3.40024
11
4.87153
21
-3.39825
0
LINE
8
BLACK
6
CONTINUOUS
10
4.87153
20
-3.39825
11
4.87254
21
-3.3965
0
LINE
8
BLACK
6
CONTINUOUS
10
4.87254
20
-3.3965
11
4.87444
21
-3.39581
0
LINE
8
BLACK
6
CONTINUOUS
10
4.87444
20
-3.39581
11
4.90631
21
-3.39581
0
LINE
8
BLACK
6
CONTINUOUS
10
4.90631
20
-3.39581
11
4.90732
21
-3.39599
0
LINE
8
BLACK
6
CONTINUOUS
10
4.87814
20
-3.40172
11
4.87739
21
-3.40321
0
LINE
8
BLACK
6
CONTINUOUS
10
4.87739
20
-3.40321
11
4.87739
21
-3.40931
0
LINE
8
BLACK
6
CONTINUOUS
10
4.87739
20
-3.40931
11
4.87874
21
-3.41201
0
LINE
8
BLACK
6
CONTINUOUS
10
4.87874
20
-3.41201
11
4.87994
21
-3.41321
0
LINE
8
BLACK
6
CONTINUOUS
10
4.87994
20
-3.41321
11
4.88263
21
-3.41456
0
LINE
8
BLACK
6
CONTINUOUS
10
4.88263
20
-3.41456
11
4.89249
21
-3.41456
0
LINE
8
BLACK
6
CONTINUOUS
10
4.89249
20
-3.41456
11
4.89519
21
-3.41321
0
LINE
8
BLACK
6
CONTINUOUS
10
4.89519
20
-3.41321
11
4.89638
21
-3.41201
0
LINE
8
BLACK
6
CONTINUOUS
10
4.89638
20
-3.41201
11
4.89773
21
-3.40931
0
LINE
8
BLACK
6
CONTINUOUS
10
4.89773
20
-3.40931
11
4.89773
21
-3.40321
0
LINE
8
BLACK
6
CONTINUOUS
10
4.89773
20
-3.40321
11
4.89698
21
-3.40172
0
LINE
8
BLACK
6
CONTINUOUS
10
4.89698
20
-3.40172
11
4.87814
21
-3.40172
0
LINE
8
BLACK
6
CONTINUOUS
10
4.88482
20
-3.36037
11
4.8852
21
-3.36068
0
LINE
8
BLACK
6
CONTINUOUS
10
4.8852
20
-3.36068
11
4.88566
21
-3.36084
0
LINE
8
BLACK
6
CONTINUOUS
10
4.88566
20
-3.36084
11
4.88594
21
-3.36131
0
LINE
8
BLACK
6
CONTINUOUS
10
4.88594
20
-3.36131
11
4.88637
21
-3.36167
0
LINE
8
BLACK
6
CONTINUOUS
10
4.88637
20
-3.36167
11
4.88645
21
-3.36215
0
LINE
8
BLACK
6
CONTINUOUS
10
4.88645
20
-3.36215
11
4.88671
21
-3.36256
0
LINE
8
BLACK
6
CONTINUOUS
10
4.88671
20
-3.36256
11
4.88998
21
-3.37894
0
LINE
8
BLACK
6
CONTINUOUS
10
4.88998
20
-3.37894
11
4.89436
21
-3.37894
0
LINE
8
BLACK
6
CONTINUOUS
10
4.89436
20
-3.37894
11
4.89661
21
-3.37781
0
LINE
8
BLACK
6
CONTINUOUS
10
4.89661
20
-3.37781
11
4.89773
21
-3.37557
0
LINE
8
BLACK
6
CONTINUOUS
10
4.89773
20
-3.37557
11
4.89773
21
-3.36946
0
LINE
8
BLACK
6
CONTINUOUS
10
4.89773
20
-3.36946
11
4.89617
21
-3.36634
0
LINE
8
BLACK
6
CONTINUOUS
10
4.89617
20
-3.36634
11
4.89588
21
-3.36535
0
LINE
8
BLACK
6
CONTINUOUS
10
4.89588
20
-3.36535
11
4.89635
21
-3.36339
0
LINE
8
BLACK
6
CONTINUOUS
10
4.89635
20
-3.36339
11
4.89797
21
-3.36219
0
LINE
8
BLACK
6
CONTINUOUS
10
4.89797
20
-3.36219
11
4.89998
21
-3.36231
0
LINE
8
BLACK
6
CONTINUOUS
10
4.89998
20
-3.36231
11
4.90145
21
-3.3637
0
LINE
8
BLACK
6
CONTINUOUS
10
4.90145
20
-3.3637
11
4.90333
21
-3.36745
0
LINE
8
BLACK
6
CONTINUOUS
10
4.90333
20
-3.36745
11
4.90362
21
-3.36843
0
LINE
8
BLACK
6
CONTINUOUS
10
4.90362
20
-3.36843
11
4.90358
21
-3.3686
0
LINE
8
BLACK
6
CONTINUOUS
10
4.90358
20
-3.3686
11
4.90364
21
-3.36877
0
LINE
8
BLACK
6
CONTINUOUS
10
4.90364
20
-3.36877
11
4.90364
21
-3.37627
0
LINE
8
BLACK
6
CONTINUOUS
10
4.90364
20
-3.37627
11
4.90346
21
-3.37728
0
LINE
8
BLACK
6
CONTINUOUS
10
4.90346
20
-3.37728
11
4.90335
21
-3.37741
0
LINE
8
BLACK
6
CONTINUOUS
10
4.90335
20
-3.37741
11
4.90333
21
-3.37759
0
LINE
8
BLACK
6
CONTINUOUS
10
4.90333
20
-3.37759
11
4.90145
21
-3.38134
0
LINE
8
BLACK
6
CONTINUOUS
10
4.90145
20
-3.38134
11
4.90084
21
-3.38216
0
LINE
8
BLACK
6
CONTINUOUS
10
4.90084
20
-3.38216
11
4.90043
21
-3.38233
0
LINE
8
BLACK
6
CONTINUOUS
10
4.90043
20
-3.38233
11
4.90013
21
-3.38266
0
LINE
8
BLACK
6
CONTINUOUS
10
4.90013
20
-3.38266
11
4.89638
21
-3.38453
0
LINE
8
BLACK
6
CONTINUOUS
10
4.89638
20
-3.38453
11
4.8954
21
-3.38482
0
LINE
8
BLACK
6
CONTINUOUS
10
4.8954
20
-3.38482
11
4.89523
21
-3.38478
0
LINE
8
BLACK
6
CONTINUOUS
10
4.89523
20
-3.38478
11
4.89506
21
-3.38484
0
LINE
8
BLACK
6
CONTINUOUS
10
4.89506
20
-3.38484
11
4.88006
21
-3.38484
0
LINE
8
BLACK
6
CONTINUOUS
10
4.88006
20
-3.38484
11
4.87905
21
-3.38466
0
LINE
8
BLACK
6
CONTINUOUS
10
4.87905
20
-3.38466
11
4.87892
21
-3.38455
0
LINE
8
BLACK
6
CONTINUOUS
10
4.87892
20
-3.38455
11
4.87874
21
-3.38453
0
LINE
8
BLACK
6
CONTINUOUS
10
4.87874
20
-3.38453
11
4.87499
21
-3.38266
0
LINE
8
BLACK
6
CONTINUOUS
10
4.87499
20
-3.38266
11
4.87417
21
-3.38205
0
LINE
8
BLACK
6
CONTINUOUS
10
4.87417
20
-3.38205
11
4.87399
21
-3.38164
0
LINE
8
BLACK
6
CONTINUOUS
10
4.87399
20
-3.38164
11
4.87367
21
-3.38134
0
LINE
8
BLACK
6
CONTINUOUS
10
4.87367
20
-3.38134
11
4.8718
21
-3.37759
0
LINE
8
BLACK
6
CONTINUOUS
10
4.8718
20
-3.37759
11
4.8715
21
-3.3766
0
LINE
8
BLACK
6
CONTINUOUS
10
4.8715
20
-3.3766
11
4.87155
21
-3.37643
0
LINE
8
BLACK
6
CONTINUOUS
10
4.87155
20
-3.37643
11
4.87148
21
-3.37627
0
LINE
8
BLACK
6
CONTINUOUS
10
4.87148
20
-3.37627
11
4.87148
21
-3.36877
0
LINE
8
BLACK
6
CONTINUOUS
10
4.87148
20
-3.36877
11
4.87166
21
-3.36776
0
LINE
8
BLACK
6
CONTINUOUS
10
4.87166
20
-3.36776
11
4.87178
21
-3.36762
0
LINE
8
BLACK
6
CONTINUOUS
10
4.87178
20
-3.36762
11
4.8718
21
-3.36745
0
LINE
8
BLACK
6
CONTINUOUS
10
4.8718
20
-3.36745
11
4.87367
21
-3.3637
0
LINE
8
BLACK
6
CONTINUOUS
10
4.87367
20
-3.3637
11
4.87428
21
-3.36287
0
LINE
8
BLACK
6
CONTINUOUS
10
4.87428
20
-3.36287
11
4.87469
21
-3.3627
0
LINE
8
BLACK
6
CONTINUOUS
10
4.87469
20
-3.3627
11
4.87499
21
-3.36238
0
LINE
8
BLACK
6
CONTINUOUS
10
4.87499
20
-3.36238
11
4.87874
21
-3.3605
0
LINE
8
BLACK
6
CONTINUOUS
10
4.87874
20
-3.3605
11
4.87972
21
-3.36021
0
LINE
8
BLACK
6
CONTINUOUS
10
4.87972
20
-3.36021
11
4.8799
21
-3.36025
0
LINE
8
BLACK
6
CONTINUOUS
10
4.8799
20
-3.36025
11
4.88006
21
-3.36019
0
LINE
8
BLACK
6
CONTINUOUS
10
4.88006
20
-3.36019
11
4.88381
21
-3.36019
0
LINE
8
BLACK
6
CONTINUOUS
10
4.88381
20
-3.36019
11
4.88482
21
-3.36037
0
LINE
8
BLACK
6
CONTINUOUS
10
4.88076
20
-3.36609
11
4.87851
21
-3.36722
0
LINE
8
BLACK
6
CONTINUOUS
10
4.87851
20
-3.36722
11
4.87739
21
-3.36946
0
LINE
8
BLACK
6
CONTINUOUS
10
4.87739
20
-3.36946
11
4.87739
21
-3.37557
0
LINE
8
BLACK
6
CONTINUOUS
10
4.87739
20
-3.37557
11
4.87851
21
-3.37781
0
LINE
8
BLACK
6
CONTINUOUS
10
4.87851
20
-3.37781
11
4.88076
21
-3.37894
0
LINE
8
BLACK
6
CONTINUOUS
10
4.88076
20
-3.37894
11
4.88396
21
-3.37894
0
LINE
8
BLACK
6
CONTINUOUS
10
4.88396
20
-3.37894
11
4.88139
21
-3.36609
0
LINE
8
BLACK
6
CONTINUOUS
10
4.88139
20
-3.36609
11
4.88076
21
-3.36609
  0
ENDSEC
  0
EOF
