  0
SECTION
  2
HEADER
  9
$ANGBASE
  50
0.0
  9
$ANGDIR
  70
1
  9
$MEASUREMENT
  70
0
  0
ENDSEC
  0
SECTION
  2
TABLES
  0
TABLE
  2
LTYPE
  70
4
  0
LTYPE
  5
40F
  2
CONTINUOUS
  70
0
  3
Solid line
  72
65
  73
0
  40
0.0
  0
LTYPE
  5
410
  2
DASHDOT
 70
0
  3
Dash Dot ____ _ ____ _
 72
65
 73
4
 40
2.0
 49
1.25
 49
-0.25
 49
0.25
 49
-0.25
  0
LTYPE
  5
411
  2
DASHED
 70
0
  3
Dashed __ __ __ __ __
 72
65
 73
2
 40
0.75
 49
0.5
 49
-0.25
  0
LTYPE
  5
43B
  2
DOTTED
 70
0
  3
Dotted .  .  .  .
 72
65
 73
2
 40
0.2
 49
0.0
 49
-0.2
  0
ENDTAB
  0
TABLE
  2
STYLE
  70
4
  0
STYLE
  2
KICAD
  70
0
  40
0
  41
1
  42
1
  50
0
  71
0
  3
isocp.shx
  0
STYLE
  2
KICADB
  70
0
  40
0
  41
1
  42
1
  50
0
  71
0
  3
isocp.shx
  0
STYLE
  2
KICADI
  70
0
  40
0
  41
1
  42
1
  50
15
  71
0
  3
isocp.shx
  0
STYLE
  2
KICADBI
  70
0
  40
0
  41
1
  42
1
  50
15
  71
0
  3
isocp.shx
  0
ENDTAB
  0
TABLE
  2
LAYER
  70
1
  0
LAYER
  2
BLACK
  70
0
  62
7
  6
CONTINUOUS
  0
ENDTAB
  0
ENDSEC
  0
SECTION
  2
ENTITIES
0
LINE
8
BLACK
6
CONTINUOUS
10
5.68615
20
-3.75764
11
5.69291
21
-3.76065
0
LINE
8
BLACK
6
CONTINUOUS
10
5.69291
20
-3.76065
11
5.69891
21
-3.76501
0
LINE
8
BLACK
6
CONTINUOUS
10
5.69891
20
-3.76501
11
5.70386
21
-3.77051
0
LINE
8
BLACK
6
CONTINUOUS
10
5.70386
20
-3.77051
11
5.70757
21
-3.77693
0
LINE
8
BLACK
6
CONTINUOUS
10
5.70757
20
-3.77693
11
5.70986
21
-3.78397
0
LINE
8
BLACK
6
CONTINUOUS
10
5.70986
20
-3.78397
11
5.71063
21
-3.79134
0
LINE
8
BLACK
6
CONTINUOUS
10
5.71063
20
-3.79134
11
5.71063
21
-3.81496
0
LINE
8
BLACK
6
CONTINUOUS
10
5.71063
20
-3.81496
11
5.70986
21
-3.82233
0
LINE
8
BLACK
6
CONTINUOUS
10
5.70986
20
-3.82233
11
5.70757
21
-3.82937
0
LINE
8
BLACK
6
CONTINUOUS
10
5.70757
20
-3.82937
11
5.70386
21
-3.83579
0
LINE
8
BLACK
6
CONTINUOUS
10
5.70386
20
-3.83579
11
5.69891
21
-3.84129
0
LINE
8
BLACK
6
CONTINUOUS
10
5.69891
20
-3.84129
11
5.69291
21
-3.84565
0
LINE
8
BLACK
6
CONTINUOUS
10
5.69291
20
-3.84565
11
5.68615
21
-3.84866
0
LINE
8
BLACK
6
CONTINUOUS
10
5.68615
20
-3.84866
11
5.6789
21
-3.8502
0
LINE
8
BLACK
6
CONTINUOUS
10
5.6789
20
-3.8502
11
5.67149
21
-3.8502
0
LINE
8
BLACK
6
CONTINUOUS
10
5.67149
20
-3.8502
11
5.66425
21
-3.84866
0
LINE
8
BLACK
6
CONTINUOUS
10
5.66425
20
-3.84866
11
5.65748
21
-3.84565
0
LINE
8
BLACK
6
CONTINUOUS
10
5.65748
20
-3.84565
11
5.65149
21
-3.84129
0
LINE
8
BLACK
6
CONTINUOUS
10
5.65149
20
-3.84129
11
5.64653
21
-3.83579
0
LINE
8
BLACK
6
CONTINUOUS
10
5.64653
20
-3.83579
11
5.64283
21
-3.82937
0
LINE
8
BLACK
6
CONTINUOUS
10
5.64283
20
-3.82937
11
5.64054
21
-3.82233
0
LINE
8
BLACK
6
CONTINUOUS
10
5.64054
20
-3.82233
11
5.63976
21
-3.81496
0
LINE
8
BLACK
6
CONTINUOUS
10
5.63976
20
-3.81496
11
5.63976
21
-3.79134
0
LINE
8
BLACK
6
CONTINUOUS
10
5.63976
20
-3.79134
11
5.64054
21
-3.78397
0
LINE
8
BLACK
6
CONTINUOUS
10
5.64054
20
-3.78397
11
5.64283
21
-3.77693
0
LINE
8
BLACK
6
CONTINUOUS
10
5.64283
20
-3.77693
11
5.64653
21
-3.77051
0
LINE
8
BLACK
6
CONTINUOUS
10
5.64653
20
-3.77051
11
5.65149
21
-3.76501
0
LINE
8
BLACK
6
CONTINUOUS
10
5.65149
20
-3.76501
11
5.65748
21
-3.76065
0
LINE
8
BLACK
6
CONTINUOUS
10
5.65748
20
-3.76065
11
5.66425
21
-3.75764
0
LINE
8
BLACK
6
CONTINUOUS
10
5.66425
20
-3.75764
11
5.67149
21
-3.7561
0
LINE
8
BLACK
6
CONTINUOUS
10
5.67149
20
-3.7561
11
5.6789
21
-3.7561
0
LINE
8
BLACK
6
CONTINUOUS
10
5.6789
20
-3.7561
11
5.68615
21
-3.75764
0
LINE
8
BLACK
6
CONTINUOUS
10
5.7503
20
-3.76927
11
5.75273
21
-3.77089
0
LINE
8
BLACK
6
CONTINUOUS
10
5.75273
20
-3.77089
11
5.75435
21
-3.77332
0
LINE
8
BLACK
6
CONTINUOUS
10
5.75435
20
-3.77332
11
5.75492
21
-3.77618
0
LINE
8
BLACK
6
CONTINUOUS
10
5.75492
20
-3.77618
11
5.75492
21
-3.83012
0
LINE
8
BLACK
6
CONTINUOUS
10
5.75492
20
-3.83012
11
5.75435
21
-3.83298
0
LINE
8
BLACK
6
CONTINUOUS
10
5.75435
20
-3.83298
11
5.75273
21
-3.83541
0
LINE
8
BLACK
6
CONTINUOUS
10
5.75273
20
-3.83541
11
5.7503
21
-3.83703
0
LINE
8
BLACK
6
CONTINUOUS
10
5.7503
20
-3.83703
11
5.74744
21
-3.8376
0
LINE
8
BLACK
6
CONTINUOUS
10
5.74744
20
-3.8376
11
5.725
21
-3.8376
0
LINE
8
BLACK
6
CONTINUOUS
10
5.725
20
-3.8376
11
5.72214
21
-3.83703
0
LINE
8
BLACK
6
CONTINUOUS
10
5.72214
20
-3.83703
11
5.71971
21
-3.83541
0
LINE
8
BLACK
6
CONTINUOUS
10
5.71971
20
-3.83541
11
5.71809
21
-3.83298
0
LINE
8
BLACK
6
CONTINUOUS
10
5.71809
20
-3.83298
11
5.71752
21
-3.83012
0
LINE
8
BLACK
6
CONTINUOUS
10
5.71752
20
-3.83012
11
5.71752
21
-3.77618
0
LINE
8
BLACK
6
CONTINUOUS
10
5.71752
20
-3.77618
11
5.71809
21
-3.77332
0
LINE
8
BLACK
6
CONTINUOUS
10
5.71809
20
-3.77332
11
5.71971
21
-3.77089
0
LINE
8
BLACK
6
CONTINUOUS
10
5.71971
20
-3.77089
11
5.72214
21
-3.76927
0
LINE
8
BLACK
6
CONTINUOUS
10
5.72214
20
-3.76927
11
5.725
21
-3.7687
0
LINE
8
BLACK
6
CONTINUOUS
10
5.725
20
-3.7687
11
5.74744
21
-3.7687
0
LINE
8
BLACK
6
CONTINUOUS
10
5.74744
20
-3.7687
11
5.7503
21
-3.76927
0
LINE
8
BLACK
6
CONTINUOUS
10
5.62826
20
-3.76927
11
5.63068
21
-3.77089
0
LINE
8
BLACK
6
CONTINUOUS
10
5.63068
20
-3.77089
11
5.6323
21
-3.77332
0
LINE
8
BLACK
6
CONTINUOUS
10
5.6323
20
-3.77332
11
5.63287
21
-3.77618
0
LINE
8
BLACK
6
CONTINUOUS
10
5.63287
20
-3.77618
11
5.63287
21
-3.83012
0
LINE
8
BLACK
6
CONTINUOUS
10
5.63287
20
-3.83012
11
5.6323
21
-3.83298
0
LINE
8
BLACK
6
CONTINUOUS
10
5.6323
20
-3.83298
11
5.63068
21
-3.83541
0
LINE
8
BLACK
6
CONTINUOUS
10
5.63068
20
-3.83541
11
5.62826
21
-3.83703
0
LINE
8
BLACK
6
CONTINUOUS
10
5.62826
20
-3.83703
11
5.62539
21
-3.8376
0
LINE
8
BLACK
6
CONTINUOUS
10
5.62539
20
-3.8376
11
5.60295
21
-3.8376
0
LINE
8
BLACK
6
CONTINUOUS
10
5.60295
20
-3.8376
11
5.60009
21
-3.83703
0
LINE
8
BLACK
6
CONTINUOUS
10
5.60009
20
-3.83703
11
5.59766
21
-3.83541
0
LINE
8
BLACK
6
CONTINUOUS
10
5.59766
20
-3.83541
11
5.59604
21
-3.83298
0
LINE
8
BLACK
6
CONTINUOUS
10
5.59604
20
-3.83298
11
5.59547
21
-3.83012
0
LINE
8
BLACK
6
CONTINUOUS
10
5.59547
20
-3.83012
11
5.59547
21
-3.77618
0
LINE
8
BLACK
6
CONTINUOUS
10
5.59547
20
-3.77618
11
5.59604
21
-3.77332
0
LINE
8
BLACK
6
CONTINUOUS
10
5.59604
20
-3.77332
11
5.59766
21
-3.77089
0
LINE
8
BLACK
6
CONTINUOUS
10
5.59766
20
-3.77089
11
5.60009
21
-3.76927
0
LINE
8
BLACK
6
CONTINUOUS
10
5.60009
20
-3.76927
11
5.60295
21
-3.7687
0
LINE
8
BLACK
6
CONTINUOUS
10
5.60295
20
-3.7687
11
5.62539
21
-3.7687
0
LINE
8
BLACK
6
CONTINUOUS
10
5.62539
20
-3.7687
11
5.62826
21
-3.76927
0
LINE
8
BLACK
6
CONTINUOUS
10
5.29255
20
-3.77319
11
5.29574
21
-3.77532
0
LINE
8
BLACK
6
CONTINUOUS
10
5.29574
20
-3.77532
11
5.29787
21
-3.77852
0
LINE
8
BLACK
6
CONTINUOUS
10
5.29787
20
-3.77852
11
5.29862
21
-3.78228
0
LINE
8
BLACK
6
CONTINUOUS
10
5.29862
20
-3.78228
11
5.29862
21
-3.81772
0
LINE
8
BLACK
6
CONTINUOUS
10
5.29862
20
-3.81772
11
5.29787
21
-3.82148
0
LINE
8
BLACK
6
CONTINUOUS
10
5.29787
20
-3.82148
11
5.29574
21
-3.82468
0
LINE
8
BLACK
6
CONTINUOUS
10
5.29574
20
-3.82468
11
5.29255
21
-3.82681
0
LINE
8
BLACK
6
CONTINUOUS
10
5.29255
20
-3.82681
11
5.28878
21
-3.82756
0
LINE
8
BLACK
6
CONTINUOUS
10
5.28878
20
-3.82756
11
5.26122
21
-3.82756
0
LINE
8
BLACK
6
CONTINUOUS
10
5.26122
20
-3.82756
11
5.25745
21
-3.82681
0
LINE
8
BLACK
6
CONTINUOUS
10
5.25745
20
-3.82681
11
5.25426
21
-3.82468
0
LINE
8
BLACK
6
CONTINUOUS
10
5.25426
20
-3.82468
11
5.25213
21
-3.82148
0
LINE
8
BLACK
6
CONTINUOUS
10
5.25213
20
-3.82148
11
5.25138
21
-3.81772
0
LINE
8
BLACK
6
CONTINUOUS
10
5.25138
20
-3.81772
11
5.25138
21
-3.78228
0
LINE
8
BLACK
6
CONTINUOUS
10
5.25138
20
-3.78228
11
5.25213
21
-3.77852
0
LINE
8
BLACK
6
CONTINUOUS
10
5.25213
20
-3.77852
11
5.25426
21
-3.77532
0
LINE
8
BLACK
6
CONTINUOUS
10
5.25426
20
-3.77532
11
5.25745
21
-3.77319
0
LINE
8
BLACK
6
CONTINUOUS
10
5.25745
20
-3.77319
11
5.26122
21
-3.77244
0
LINE
8
BLACK
6
CONTINUOUS
10
5.26122
20
-3.77244
11
5.28878
21
-3.77244
0
LINE
8
BLACK
6
CONTINUOUS
10
5.28878
20
-3.77244
11
5.29255
21
-3.77319
0
LINE
8
BLACK
6
CONTINUOUS
10
5.21381
20
-3.77319
11
5.217
21
-3.77532
0
LINE
8
BLACK
6
CONTINUOUS
10
5.217
20
-3.77532
11
5.21913
21
-3.77852
0
LINE
8
BLACK
6
CONTINUOUS
10
5.21913
20
-3.77852
11
5.21988
21
-3.78228
0
LINE
8
BLACK
6
CONTINUOUS
10
5.21988
20
-3.78228
11
5.21988
21
-3.81772
0
LINE
8
BLACK
6
CONTINUOUS
10
5.21988
20
-3.81772
11
5.21913
21
-3.82148
0
LINE
8
BLACK
6
CONTINUOUS
10
5.21913
20
-3.82148
11
5.217
21
-3.82468
0
LINE
8
BLACK
6
CONTINUOUS
10
5.217
20
-3.82468
11
5.21381
21
-3.82681
0
LINE
8
BLACK
6
CONTINUOUS
10
5.21381
20
-3.82681
11
5.21004
21
-3.82756
0
LINE
8
BLACK
6
CONTINUOUS
10
5.21004
20
-3.82756
11
5.18248
21
-3.82756
0
LINE
8
BLACK
6
CONTINUOUS
10
5.18248
20
-3.82756
11
5.17871
21
-3.82681
0
LINE
8
BLACK
6
CONTINUOUS
10
5.17871
20
-3.82681
11
5.17552
21
-3.82468
0
LINE
8
BLACK
6
CONTINUOUS
10
5.17552
20
-3.82468
11
5.17339
21
-3.82148
0
LINE
8
BLACK
6
CONTINUOUS
10
5.17339
20
-3.82148
11
5.17264
21
-3.81772
0
LINE
8
BLACK
6
CONTINUOUS
10
5.17264
20
-3.81772
11
5.17264
21
-3.78228
0
LINE
8
BLACK
6
CONTINUOUS
10
5.17264
20
-3.78228
11
5.17339
21
-3.77852
0
LINE
8
BLACK
6
CONTINUOUS
10
5.17339
20
-3.77852
11
5.17552
21
-3.77532
0
LINE
8
BLACK
6
CONTINUOUS
10
5.17552
20
-3.77532
11
5.17871
21
-3.77319
0
LINE
8
BLACK
6
CONTINUOUS
10
5.17871
20
-3.77319
11
5.18248
21
-3.77244
0
LINE
8
BLACK
6
CONTINUOUS
10
5.18248
20
-3.77244
11
5.21004
21
-3.77244
0
LINE
8
BLACK
6
CONTINUOUS
10
5.21004
20
-3.77244
11
5.21381
21
-3.77319
0
LINE
8
BLACK
6
CONTINUOUS
10
5.13255
20
-3.77319
11
5.13574
21
-3.77532
0
LINE
8
BLACK
6
CONTINUOUS
10
5.13574
20
-3.77532
11
5.13787
21
-3.77852
0
LINE
8
BLACK
6
CONTINUOUS
10
5.13787
20
-3.77852
11
5.13862
21
-3.78228
0
LINE
8
BLACK
6
CONTINUOUS
10
5.13862
20
-3.78228
11
5.13862
21
-3.81772
0
LINE
8
BLACK
6
CONTINUOUS
10
5.13862
20
-3.81772
11
5.13787
21
-3.82148
0
LINE
8
BLACK
6
CONTINUOUS
10
5.13787
20
-3.82148
11
5.13574
21
-3.82468
0
LINE
8
BLACK
6
CONTINUOUS
10
5.13574
20
-3.82468
11
5.13255
21
-3.82681
0
LINE
8
BLACK
6
CONTINUOUS
10
5.13255
20
-3.82681
11
5.12878
21
-3.82756
0
LINE
8
BLACK
6
CONTINUOUS
10
5.12878
20
-3.82756
11
5.10122
21
-3.82756
0
LINE
8
BLACK
6
CONTINUOUS
10
5.10122
20
-3.82756
11
5.09745
21
-3.82681
0
LINE
8
BLACK
6
CONTINUOUS
10
5.09745
20
-3.82681
11
5.09426
21
-3.82468
0
LINE
8
BLACK
6
CONTINUOUS
10
5.09426
20
-3.82468
11
5.09213
21
-3.82148
0
LINE
8
BLACK
6
CONTINUOUS
10
5.09213
20
-3.82148
11
5.09138
21
-3.81772
0
LINE
8
BLACK
6
CONTINUOUS
10
5.09138
20
-3.81772
11
5.09138
21
-3.78228
0
LINE
8
BLACK
6
CONTINUOUS
10
5.09138
20
-3.78228
11
5.09213
21
-3.77852
0
LINE
8
BLACK
6
CONTINUOUS
10
5.09213
20
-3.77852
11
5.09426
21
-3.77532
0
LINE
8
BLACK
6
CONTINUOUS
10
5.09426
20
-3.77532
11
5.09745
21
-3.77319
0
LINE
8
BLACK
6
CONTINUOUS
10
5.09745
20
-3.77319
11
5.10122
21
-3.77244
0
LINE
8
BLACK
6
CONTINUOUS
10
5.10122
20
-3.77244
11
5.12878
21
-3.77244
0
LINE
8
BLACK
6
CONTINUOUS
10
5.12878
20
-3.77244
11
5.13255
21
-3.77319
0
LINE
8
BLACK
6
CONTINUOUS
10
5.05381
20
-3.77319
11
5.057
21
-3.77532
0
LINE
8
BLACK
6
CONTINUOUS
10
5.057
20
-3.77532
11
5.05913
21
-3.77852
0
LINE
8
BLACK
6
CONTINUOUS
10
5.05913
20
-3.77852
11
5.05988
21
-3.78228
0
LINE
8
BLACK
6
CONTINUOUS
10
5.05988
20
-3.78228
11
5.05988
21
-3.81772
0
LINE
8
BLACK
6
CONTINUOUS
10
5.05988
20
-3.81772
11
5.05913
21
-3.82148
0
LINE
8
BLACK
6
CONTINUOUS
10
5.05913
20
-3.82148
11
5.057
21
-3.82468
0
LINE
8
BLACK
6
CONTINUOUS
10
5.057
20
-3.82468
11
5.05381
21
-3.82681
0
LINE
8
BLACK
6
CONTINUOUS
10
5.05381
20
-3.82681
11
5.05004
21
-3.82756
0
LINE
8
BLACK
6
CONTINUOUS
10
5.05004
20
-3.82756
11
5.02248
21
-3.82756
0
LINE
8
BLACK
6
CONTINUOUS
10
5.02248
20
-3.82756
11
5.01871
21
-3.82681
0
LINE
8
BLACK
6
CONTINUOUS
10
5.01871
20
-3.82681
11
5.01552
21
-3.82468
0
LINE
8
BLACK
6
CONTINUOUS
10
5.01552
20
-3.82468
11
5.01339
21
-3.82148
0
LINE
8
BLACK
6
CONTINUOUS
10
5.01339
20
-3.82148
11
5.01264
21
-3.81772
0
LINE
8
BLACK
6
CONTINUOUS
10
5.01264
20
-3.81772
11
5.01264
21
-3.78228
0
LINE
8
BLACK
6
CONTINUOUS
10
5.01264
20
-3.78228
11
5.01339
21
-3.77852
0
LINE
8
BLACK
6
CONTINUOUS
10
5.01339
20
-3.77852
11
5.01552
21
-3.77532
0
LINE
8
BLACK
6
CONTINUOUS
10
5.01552
20
-3.77532
11
5.01871
21
-3.77319
0
LINE
8
BLACK
6
CONTINUOUS
10
5.01871
20
-3.77319
11
5.02248
21
-3.77244
0
LINE
8
BLACK
6
CONTINUOUS
10
5.02248
20
-3.77244
11
5.05004
21
-3.77244
0
LINE
8
BLACK
6
CONTINUOUS
10
5.05004
20
-3.77244
11
5.05381
21
-3.77319
0
LINE
8
BLACK
6
CONTINUOUS
10
5.91912
20
-3.76847
11
5.92231
21
-3.7706
0
LINE
8
BLACK
6
CONTINUOUS
10
5.92231
20
-3.7706
11
5.92445
21
-3.77379
0
LINE
8
BLACK
6
CONTINUOUS
10
5.92445
20
-3.77379
11
5.9252
21
-3.77756
0
LINE
8
BLACK
6
CONTINUOUS
10
5.9252
20
-3.77756
11
5.9252
21
-3.81299
0
LINE
8
BLACK
6
CONTINUOUS
10
5.9252
20
-3.81299
11
5.92445
21
-3.81676
0
LINE
8
BLACK
6
CONTINUOUS
10
5.92445
20
-3.81676
11
5.92231
21
-3.81995
0
LINE
8
BLACK
6
CONTINUOUS
10
5.92231
20
-3.81995
11
5.91912
21
-3.82209
0
LINE
8
BLACK
6
CONTINUOUS
10
5.91912
20
-3.82209
11
5.91535
21
-3.82283
0
LINE
8
BLACK
6
CONTINUOUS
10
5.91535
20
-3.82283
11
5.8878
21
-3.82283
0
LINE
8
BLACK
6
CONTINUOUS
10
5.8878
20
-3.82283
11
5.88403
21
-3.82209
0
LINE
8
BLACK
6
CONTINUOUS
10
5.88403
20
-3.82209
11
5.88084
21
-3.81995
0
LINE
8
BLACK
6
CONTINUOUS
10
5.88084
20
-3.81995
11
5.8787
21
-3.81676
0
LINE
8
BLACK
6
CONTINUOUS
10
5.8787
20
-3.81676
11
5.87795
21
-3.81299
0
LINE
8
BLACK
6
CONTINUOUS
10
5.87795
20
-3.81299
11
5.87795
21
-3.77756
0
LINE
8
BLACK
6
CONTINUOUS
10
5.87795
20
-3.77756
11
5.8787
21
-3.77379
0
LINE
8
BLACK
6
CONTINUOUS
10
5.8787
20
-3.77379
11
5.88084
21
-3.7706
0
LINE
8
BLACK
6
CONTINUOUS
10
5.88084
20
-3.7706
11
5.88403
21
-3.76847
0
LINE
8
BLACK
6
CONTINUOUS
10
5.88403
20
-3.76847
11
5.8878
21
-3.76772
0
LINE
8
BLACK
6
CONTINUOUS
10
5.8878
20
-3.76772
11
5.91535
21
-3.76772
0
LINE
8
BLACK
6
CONTINUOUS
10
5.91535
20
-3.76772
11
5.91912
21
-3.76847
0
LINE
8
BLACK
6
CONTINUOUS
10
5.84038
20
-3.76847
11
5.84357
21
-3.7706
0
LINE
8
BLACK
6
CONTINUOUS
10
5.84357
20
-3.7706
11
5.84571
21
-3.77379
0
LINE
8
BLACK
6
CONTINUOUS
10
5.84571
20
-3.77379
11
5.84646
21
-3.77756
0
LINE
8
BLACK
6
CONTINUOUS
10
5.84646
20
-3.77756
11
5.84646
21
-3.81299
0
LINE
8
BLACK
6
CONTINUOUS
10
5.84646
20
-3.81299
11
5.84571
21
-3.81676
0
LINE
8
BLACK
6
CONTINUOUS
10
5.84571
20
-3.81676
11
5.84357
21
-3.81995
0
LINE
8
BLACK
6
CONTINUOUS
10
5.84357
20
-3.81995
11
5.84038
21
-3.82209
0
LINE
8
BLACK
6
CONTINUOUS
10
5.84038
20
-3.82209
11
5.83661
21
-3.82283
0
LINE
8
BLACK
6
CONTINUOUS
10
5.83661
20
-3.82283
11
5.80906
21
-3.82283
0
LINE
8
BLACK
6
CONTINUOUS
10
5.80906
20
-3.82283
11
5.80529
21
-3.82209
0
LINE
8
BLACK
6
CONTINUOUS
10
5.80529
20
-3.82209
11
5.8021
21
-3.81995
0
LINE
8
BLACK
6
CONTINUOUS
10
5.8021
20
-3.81995
11
5.79996
21
-3.81676
0
LINE
8
BLACK
6
CONTINUOUS
10
5.79996
20
-3.81676
11
5.79921
21
-3.81299
0
LINE
8
BLACK
6
CONTINUOUS
10
5.79921
20
-3.81299
11
5.79921
21
-3.77756
0
LINE
8
BLACK
6
CONTINUOUS
10
5.79921
20
-3.77756
11
5.79996
21
-3.77379
0
LINE
8
BLACK
6
CONTINUOUS
10
5.79996
20
-3.77379
11
5.8021
21
-3.7706
0
LINE
8
BLACK
6
CONTINUOUS
10
5.8021
20
-3.7706
11
5.80529
21
-3.76847
0
LINE
8
BLACK
6
CONTINUOUS
10
5.80529
20
-3.76847
11
5.80906
21
-3.76772
0
LINE
8
BLACK
6
CONTINUOUS
10
5.80906
20
-3.76772
11
5.83661
21
-3.76772
0
LINE
8
BLACK
6
CONTINUOUS
10
5.83661
20
-3.76772
11
5.84038
21
-3.76847
0
LINE
8
BLACK
6
CONTINUOUS
10
6.09843
20
-3.75414
11
6.10133
21
-3.75415
0
LINE
8
BLACK
6
CONTINUOUS
10
6.10133
20
-3.75415
11
6.10668
21
-3.75575
0
LINE
8
BLACK
6
CONTINUOUS
10
6.10668
20
-3.75575
11
6.11137
21
-3.75879
0
LINE
8
BLACK
6
CONTINUOUS
10
6.11137
20
-3.75879
11
6.11501
21
-3.76302
0
LINE
8
BLACK
6
CONTINUOUS
10
6.11501
20
-3.76302
11
6.11732
21
-3.7681
0
LINE
8
BLACK
6
CONTINUOUS
10
6.11732
20
-3.7681
11
6.11811
21
-3.77362
0
LINE
8
BLACK
6
CONTINUOUS
10
6.11811
20
-3.77362
11
6.11811
21
-3.79331
0
LINE
8
BLACK
6
CONTINUOUS
10
6.11811
20
-3.79331
11
6.1181
21
-3.79379
0
LINE
8
BLACK
6
CONTINUOUS
10
6.1181
20
-3.79379
11
6.11718
21
-3.79929
0
LINE
8
BLACK
6
CONTINUOUS
10
6.11718
20
-3.79929
11
6.11474
21
-3.80431
0
LINE
8
BLACK
6
CONTINUOUS
10
6.11474
20
-3.80431
11
6.111
21
-3.80845
0
LINE
8
BLACK
6
CONTINUOUS
10
6.111
20
-3.80845
11
6.10624
21
-3.81137
0
LINE
8
BLACK
6
CONTINUOUS
10
6.10624
20
-3.81137
11
6.10086
21
-3.81284
0
LINE
8
BLACK
6
CONTINUOUS
10
6.10086
20
-3.81284
11
6.09843
21
-3.8128
0
LINE
8
BLACK
6
CONTINUOUS
10
6.09843
20
-3.8128
11
6.09843
21
-3.81299
0
LINE
8
BLACK
6
CONTINUOUS
10
6.09843
20
-3.81299
11
6.07677
21
-3.81299
0
LINE
8
BLACK
6
CONTINUOUS
10
6.07677
20
-3.81299
11
6.07677
21
-3.75394
0
LINE
8
BLACK
6
CONTINUOUS
10
6.07677
20
-3.75394
11
6.09843
21
-3.75394
0
LINE
8
BLACK
6
CONTINUOUS
10
6.09843
20
-3.75394
11
6.09843
21
-3.75414
0
LINE
8
BLACK
6
CONTINUOUS
10
6.06693
20
-3.81299
11
6.02756
21
-3.81299
0
LINE
8
BLACK
6
CONTINUOUS
10
6.02756
20
-3.81299
11
6.02756
21
-3.75394
0
LINE
8
BLACK
6
CONTINUOUS
10
6.02756
20
-3.75394
11
6.06693
21
-3.75394
0
LINE
8
BLACK
6
CONTINUOUS
10
6.06693
20
-3.75394
11
6.06693
21
-3.81299
0
LINE
8
BLACK
6
CONTINUOUS
10
6.01772
20
-3.81299
11
5.99606
21
-3.81299
0
LINE
8
BLACK
6
CONTINUOUS
10
5.99606
20
-3.81299
11
5.99606
21
-3.8128
0
LINE
8
BLACK
6
CONTINUOUS
10
5.99606
20
-3.8128
11
5.99292
21
-3.81274
0
LINE
8
BLACK
6
CONTINUOUS
10
5.99292
20
-3.81274
11
5.98759
21
-3.81107
0
LINE
8
BLACK
6
CONTINUOUS
10
5.98759
20
-3.81107
11
5.98294
21
-3.80798
0
LINE
8
BLACK
6
CONTINUOUS
10
5.98294
20
-3.80798
11
5.97935
21
-3.80371
0
LINE
8
BLACK
6
CONTINUOUS
10
5.97935
20
-3.80371
11
5.9771
21
-3.7986
0
LINE
8
BLACK
6
CONTINUOUS
10
5.9771
20
-3.7986
11
5.97641
21
-3.79331
0
LINE
8
BLACK
6
CONTINUOUS
10
5.97641
20
-3.79331
11
5.97638
21
-3.79331
0
LINE
8
BLACK
6
CONTINUOUS
10
5.97638
20
-3.79331
11
5.97638
21
-3.77362
0
LINE
8
BLACK
6
CONTINUOUS
10
5.97638
20
-3.77362
11
5.97641
21
-3.77362
0
LINE
8
BLACK
6
CONTINUOUS
10
5.97641
20
-3.77362
11
5.97638
21
-3.77338
0
LINE
8
BLACK
6
CONTINUOUS
10
5.97638
20
-3.77338
11
5.97724
21
-3.76787
0
LINE
8
BLACK
6
CONTINUOUS
10
5.97724
20
-3.76787
11
5.97961
21
-3.76281
0
LINE
8
BLACK
6
CONTINUOUS
10
5.97961
20
-3.76281
11
5.9833
21
-3.75863
0
LINE
8
BLACK
6
CONTINUOUS
10
5.9833
20
-3.75863
11
5.98802
21
-3.75565
0
LINE
8
BLACK
6
CONTINUOUS
10
5.98802
20
-3.75565
11
5.99339
21
-3.75412
0
LINE
8
BLACK
6
CONTINUOUS
10
5.99339
20
-3.75412
11
5.99606
21
-3.75414
0
LINE
8
BLACK
6
CONTINUOUS
10
5.99606
20
-3.75414
11
5.99606
21
-3.75394
0
LINE
8
BLACK
6
CONTINUOUS
10
5.99606
20
-3.75394
11
6.01772
21
-3.75394
0
LINE
8
BLACK
6
CONTINUOUS
10
6.01772
20
-3.75394
11
6.01772
21
-3.81299
0
LINE
8
BLACK
6
CONTINUOUS
10
6.6224
20
-3.64771
11
6.63291
21
-3.64943
0
LINE
8
BLACK
6
CONTINUOUS
10
6.63291
20
-3.64943
11
6.64306
21
-3.65267
0
LINE
8
BLACK
6
CONTINUOUS
10
6.64306
20
-3.65267
11
6.65261
21
-3.65738
0
LINE
8
BLACK
6
CONTINUOUS
10
6.65261
20
-3.65738
11
6.66136
21
-3.66345
0
LINE
8
BLACK
6
CONTINUOUS
10
6.66136
20
-3.66345
11
6.66912
21
-3.67075
0
LINE
8
BLACK
6
CONTINUOUS
10
6.66912
20
-3.67075
11
6.67571
21
-3.67911
0
LINE
8
BLACK
6
CONTINUOUS
10
6.67571
20
-3.67911
11
6.68099
21
-3.68836
0
LINE
8
BLACK
6
CONTINUOUS
10
6.68099
20
-3.68836
11
6.68485
21
-3.69828
0
LINE
8
BLACK
6
CONTINUOUS
10
6.68485
20
-3.69828
11
6.6872
21
-3.70867
0
LINE
8
BLACK
6
CONTINUOUS
10
6.6872
20
-3.70867
11
6.68799
21
-3.71929
0
LINE
8
BLACK
6
CONTINUOUS
10
6.68799
20
-3.71929
11
6.68789
21
-3.72305
0
LINE
8
BLACK
6
CONTINUOUS
10
6.68789
20
-3.72305
11
6.68655
21
-3.73362
0
LINE
8
BLACK
6
CONTINUOUS
10
6.68655
20
-3.73362
11
6.68366
21
-3.74387
0
LINE
8
BLACK
6
CONTINUOUS
10
6.68366
20
-3.74387
11
6.67929
21
-3.75358
0
LINE
8
BLACK
6
CONTINUOUS
10
6.67929
20
-3.75358
11
6.67352
21
-3.76253
0
LINE
8
BLACK
6
CONTINUOUS
10
6.67352
20
-3.76253
11
6.6665
21
-3.77054
0
LINE
8
BLACK
6
CONTINUOUS
10
6.6665
20
-3.77054
11
6.65837
21
-3.77742
0
LINE
8
BLACK
6
CONTINUOUS
10
6.65837
20
-3.77742
11
6.64932
21
-3.78302
0
LINE
8
BLACK
6
CONTINUOUS
10
6.64932
20
-3.78302
11
6.63953
21
-3.78723
0
LINE
8
BLACK
6
CONTINUOUS
10
6.63953
20
-3.78723
11
6.62924
21
-3.78994
0
LINE
8
BLACK
6
CONTINUOUS
10
6.62924
20
-3.78994
11
6.61865
21
-3.7911
0
LINE
8
BLACK
6
CONTINUOUS
10
6.61865
20
-3.7911
11
6.60801
21
-3.79068
0
LINE
8
BLACK
6
CONTINUOUS
10
6.60801
20
-3.79068
11
6.59755
21
-3.78869
0
LINE
8
BLACK
6
CONTINUOUS
10
6.59755
20
-3.78869
11
6.58749
21
-3.78518
0
LINE
8
BLACK
6
CONTINUOUS
10
6.58749
20
-3.78518
11
6.57807
21
-3.78022
0
LINE
8
BLACK
6
CONTINUOUS
10
6.57807
20
-3.78022
11
6.56948
21
-3.77393
0
LINE
8
BLACK
6
CONTINUOUS
10
6.56948
20
-3.77393
11
6.56192
21
-3.76643
0
LINE
8
BLACK
6
CONTINUOUS
10
6.56192
20
-3.76643
11
6.55554
21
-3.7579
0
LINE
8
BLACK
6
CONTINUOUS
10
6.55554
20
-3.7579
11
6.5505
21
-3.74852
0
LINE
8
BLACK
6
CONTINUOUS
10
6.5505
20
-3.74852
11
6.5469
21
-3.73849
0
LINE
8
BLACK
6
CONTINUOUS
10
6.5469
20
-3.73849
11
6.54483
21
-3.72805
0
LINE
8
BLACK
6
CONTINUOUS
10
6.54483
20
-3.72805
11
6.54432
21
-3.71741
0
LINE
8
BLACK
6
CONTINUOUS
10
6.54432
20
-3.71741
11
6.54538
21
-3.70681
0
LINE
8
BLACK
6
CONTINUOUS
10
6.54538
20
-3.70681
11
6.548
21
-3.69649
0
LINE
8
BLACK
6
CONTINUOUS
10
6.548
20
-3.69649
11
6.55212
21
-3.68667
0
LINE
8
BLACK
6
CONTINUOUS
10
6.55212
20
-3.68667
11
6.55765
21
-3.67757
0
LINE
8
BLACK
6
CONTINUOUS
10
6.55765
20
-3.67757
11
6.56446
21
-3.66938
0
LINE
8
BLACK
6
CONTINUOUS
10
6.56446
20
-3.66938
11
6.5724
21
-3.66229
0
LINE
8
BLACK
6
CONTINUOUS
10
6.5724
20
-3.66229
11
6.58131
21
-3.65645
0
LINE
8
BLACK
6
CONTINUOUS
10
6.58131
20
-3.65645
11
6.59098
21
-3.65199
0
LINE
8
BLACK
6
CONTINUOUS
10
6.59098
20
-3.65199
11
6.6012
21
-3.64901
0
LINE
8
BLACK
6
CONTINUOUS
10
6.6012
20
-3.64901
11
6.61176
21
-3.64757
0
LINE
8
BLACK
6
CONTINUOUS
10
6.61176
20
-3.64757
11
6.6224
21
-3.64771
0
LINE
8
BLACK
6
CONTINUOUS
10
5.68615
20
-3.63559
11
5.69291
21
-3.63861
0
LINE
8
BLACK
6
CONTINUOUS
10
5.69291
20
-3.63861
11
5.69891
21
-3.64296
0
LINE
8
BLACK
6
CONTINUOUS
10
5.69891
20
-3.64296
11
5.70386
21
-3.64846
0
LINE
8
BLACK
6
CONTINUOUS
10
5.70386
20
-3.64846
11
5.70757
21
-3.65488
0
LINE
8
BLACK
6
CONTINUOUS
10
5.70757
20
-3.65488
11
5.70986
21
-3.66192
0
LINE
8
BLACK
6
CONTINUOUS
10
5.70986
20
-3.66192
11
5.71063
21
-3.66929
0
LINE
8
BLACK
6
CONTINUOUS
10
5.71063
20
-3.66929
11
5.71063
21
-3.69291
0
LINE
8
BLACK
6
CONTINUOUS
10
5.71063
20
-3.69291
11
5.70986
21
-3.70028
0
LINE
8
BLACK
6
CONTINUOUS
10
5.70986
20
-3.70028
11
5.70757
21
-3.70733
0
LINE
8
BLACK
6
CONTINUOUS
10
5.70757
20
-3.70733
11
5.70386
21
-3.71374
0
LINE
8
BLACK
6
CONTINUOUS
10
5.70386
20
-3.71374
11
5.69891
21
-3.71925
0
LINE
8
BLACK
6
CONTINUOUS
10
5.69891
20
-3.71925
11
5.69291
21
-3.7236
0
LINE
8
BLACK
6
CONTINUOUS
10
5.69291
20
-3.7236
11
5.68615
21
-3.72661
0
LINE
8
BLACK
6
CONTINUOUS
10
5.68615
20
-3.72661
11
5.6789
21
-3.72815
0
LINE
8
BLACK
6
CONTINUOUS
10
5.6789
20
-3.72815
11
5.67149
21
-3.72815
0
LINE
8
BLACK
6
CONTINUOUS
10
5.67149
20
-3.72815
11
5.66425
21
-3.72661
0
LINE
8
BLACK
6
CONTINUOUS
10
5.66425
20
-3.72661
11
5.65748
21
-3.7236
0
LINE
8
BLACK
6
CONTINUOUS
10
5.65748
20
-3.7236
11
5.65149
21
-3.71925
0
LINE
8
BLACK
6
CONTINUOUS
10
5.65149
20
-3.71925
11
5.64653
21
-3.71374
0
LINE
8
BLACK
6
CONTINUOUS
10
5.64653
20
-3.71374
11
5.64283
21
-3.70733
0
LINE
8
BLACK
6
CONTINUOUS
10
5.64283
20
-3.70733
11
5.64054
21
-3.70028
0
LINE
8
BLACK
6
CONTINUOUS
10
5.64054
20
-3.70028
11
5.63976
21
-3.69291
0
LINE
8
BLACK
6
CONTINUOUS
10
5.63976
20
-3.69291
11
5.63976
21
-3.66929
0
LINE
8
BLACK
6
CONTINUOUS
10
5.63976
20
-3.66929
11
5.64054
21
-3.66192
0
LINE
8
BLACK
6
CONTINUOUS
10
5.64054
20
-3.66192
11
5.64283
21
-3.65488
0
LINE
8
BLACK
6
CONTINUOUS
10
5.64283
20
-3.65488
11
5.64653
21
-3.64846
0
LINE
8
BLACK
6
CONTINUOUS
10
5.64653
20
-3.64846
11
5.65149
21
-3.64296
0
LINE
8
BLACK
6
CONTINUOUS
10
5.65149
20
-3.64296
11
5.65748
21
-3.63861
0
LINE
8
BLACK
6
CONTINUOUS
10
5.65748
20
-3.63861
11
5.66425
21
-3.63559
0
LINE
8
BLACK
6
CONTINUOUS
10
5.66425
20
-3.63559
11
5.67149
21
-3.63405
0
LINE
8
BLACK
6
CONTINUOUS
10
5.67149
20
-3.63405
11
5.6789
21
-3.63405
0
LINE
8
BLACK
6
CONTINUOUS
10
5.6789
20
-3.63405
11
5.68615
21
-3.63559
0
LINE
8
BLACK
6
CONTINUOUS
10
5.62826
20
-3.64722
11
5.63068
21
-3.64884
0
LINE
8
BLACK
6
CONTINUOUS
10
5.63068
20
-3.64884
11
5.6323
21
-3.65127
0
LINE
8
BLACK
6
CONTINUOUS
10
5.6323
20
-3.65127
11
5.63287
21
-3.65413
0
LINE
8
BLACK
6
CONTINUOUS
10
5.63287
20
-3.65413
11
5.63287
21
-3.70807
0
LINE
8
BLACK
6
CONTINUOUS
10
5.63287
20
-3.70807
11
5.6323
21
-3.71093
0
LINE
8
BLACK
6
CONTINUOUS
10
5.6323
20
-3.71093
11
5.63068
21
-3.71336
0
LINE
8
BLACK
6
CONTINUOUS
10
5.63068
20
-3.71336
11
5.62826
21
-3.71498
0
LINE
8
BLACK
6
CONTINUOUS
10
5.62826
20
-3.71498
11
5.62539
21
-3.71555
0
LINE
8
BLACK
6
CONTINUOUS
10
5.62539
20
-3.71555
11
5.60295
21
-3.71555
0
LINE
8
BLACK
6
CONTINUOUS
10
5.60295
20
-3.71555
11
5.60009
21
-3.71498
0
LINE
8
BLACK
6
CONTINUOUS
10
5.60009
20
-3.71498
11
5.59766
21
-3.71336
0
LINE
8
BLACK
6
CONTINUOUS
10
5.59766
20
-3.71336
11
5.59604
21
-3.71093
0
LINE
8
BLACK
6
CONTINUOUS
10
5.59604
20
-3.71093
11
5.59547
21
-3.70807
0
LINE
8
BLACK
6
CONTINUOUS
10
5.59547
20
-3.70807
11
5.59547
21
-3.65413
0
LINE
8
BLACK
6
CONTINUOUS
10
5.59547
20
-3.65413
11
5.59604
21
-3.65127
0
LINE
8
BLACK
6
CONTINUOUS
10
5.59604
20
-3.65127
11
5.59766
21
-3.64884
0
LINE
8
BLACK
6
CONTINUOUS
10
5.59766
20
-3.64884
11
5.60009
21
-3.64722
0
LINE
8
BLACK
6
CONTINUOUS
10
5.60009
20
-3.64722
11
5.60295
21
-3.64665
0
LINE
8
BLACK
6
CONTINUOUS
10
5.60295
20
-3.64665
11
5.62539
21
-3.64665
0
LINE
8
BLACK
6
CONTINUOUS
10
5.62539
20
-3.64665
11
5.62826
21
-3.64722
0
LINE
8
BLACK
6
CONTINUOUS
10
5.7503
20
-3.64722
11
5.75273
21
-3.64884
0
LINE
8
BLACK
6
CONTINUOUS
10
5.75273
20
-3.64884
11
5.75435
21
-3.65127
0
LINE
8
BLACK
6
CONTINUOUS
10
5.75435
20
-3.65127
11
5.75492
21
-3.65413
0
LINE
8
BLACK
6
CONTINUOUS
10
5.75492
20
-3.65413
11
5.75492
21
-3.70807
0
LINE
8
BLACK
6
CONTINUOUS
10
5.75492
20
-3.70807
11
5.75435
21
-3.71093
0
LINE
8
BLACK
6
CONTINUOUS
10
5.75435
20
-3.71093
11
5.75273
21
-3.71336
0
LINE
8
BLACK
6
CONTINUOUS
10
5.75273
20
-3.71336
11
5.7503
21
-3.71498
0
LINE
8
BLACK
6
CONTINUOUS
10
5.7503
20
-3.71498
11
5.74744
21
-3.71555
0
LINE
8
BLACK
6
CONTINUOUS
10
5.74744
20
-3.71555
11
5.725
21
-3.71555
0
LINE
8
BLACK
6
CONTINUOUS
10
5.725
20
-3.71555
11
5.72214
21
-3.71498
0
LINE
8
BLACK
6
CONTINUOUS
10
5.72214
20
-3.71498
11
5.71971
21
-3.71336
0
LINE
8
BLACK
6
CONTINUOUS
10
5.71971
20
-3.71336
11
5.71809
21
-3.71093
0
LINE
8
BLACK
6
CONTINUOUS
10
5.71809
20
-3.71093
11
5.71752
21
-3.70807
0
LINE
8
BLACK
6
CONTINUOUS
10
5.71752
20
-3.70807
11
5.71752
21
-3.65413
0
LINE
8
BLACK
6
CONTINUOUS
10
5.71752
20
-3.65413
11
5.71809
21
-3.65127
0
LINE
8
BLACK
6
CONTINUOUS
10
5.71809
20
-3.65127
11
5.71971
21
-3.64884
0
LINE
8
BLACK
6
CONTINUOUS
10
5.71971
20
-3.64884
11
5.72214
21
-3.64722
0
LINE
8
BLACK
6
CONTINUOUS
10
5.72214
20
-3.64722
11
5.725
21
-3.64665
0
LINE
8
BLACK
6
CONTINUOUS
10
5.725
20
-3.64665
11
5.74744
21
-3.64665
0
LINE
8
BLACK
6
CONTINUOUS
10
5.74744
20
-3.64665
11
5.7503
21
-3.64722
0
LINE
8
BLACK
6
CONTINUOUS
10
5.91912
20
-3.65429
11
5.92231
21
-3.65643
0
LINE
8
BLACK
6
CONTINUOUS
10
5.92231
20
-3.65643
11
5.92445
21
-3.65962
0
LINE
8
BLACK
6
CONTINUOUS
10
5.92445
20
-3.65962
11
5.9252
21
-3.66339
0
LINE
8
BLACK
6
CONTINUOUS
10
5.9252
20
-3.66339
11
5.9252
21
-3.69882
0
LINE
8
BLACK
6
CONTINUOUS
10
5.9252
20
-3.69882
11
5.92445
21
-3.70259
0
LINE
8
BLACK
6
CONTINUOUS
10
5.92445
20
-3.70259
11
5.92231
21
-3.70578
0
LINE
8
BLACK
6
CONTINUOUS
10
5.92231
20
-3.70578
11
5.91912
21
-3.70791
0
LINE
8
BLACK
6
CONTINUOUS
10
5.91912
20
-3.70791
11
5.91535
21
-3.70866
0
LINE
8
BLACK
6
CONTINUOUS
10
5.91535
20
-3.70866
11
5.8878
21
-3.70866
0
LINE
8
BLACK
6
CONTINUOUS
10
5.8878
20
-3.70866
11
5.88403
21
-3.70791
0
LINE
8
BLACK
6
CONTINUOUS
10
5.88403
20
-3.70791
11
5.88084
21
-3.70578
0
LINE
8
BLACK
6
CONTINUOUS
10
5.88084
20
-3.70578
11
5.8787
21
-3.70259
0
LINE
8
BLACK
6
CONTINUOUS
10
5.8787
20
-3.70259
11
5.87795
21
-3.69882
0
LINE
8
BLACK
6
CONTINUOUS
10
5.87795
20
-3.69882
11
5.87795
21
-3.66339
0
LINE
8
BLACK
6
CONTINUOUS
10
5.87795
20
-3.66339
11
5.8787
21
-3.65962
0
LINE
8
BLACK
6
CONTINUOUS
10
5.8787
20
-3.65962
11
5.88084
21
-3.65643
0
LINE
8
BLACK
6
CONTINUOUS
10
5.88084
20
-3.65643
11
5.88403
21
-3.65429
0
LINE
8
BLACK
6
CONTINUOUS
10
5.88403
20
-3.65429
11
5.8878
21
-3.65354
0
LINE
8
BLACK
6
CONTINUOUS
10
5.8878
20
-3.65354
11
5.91535
21
-3.65354
0
LINE
8
BLACK
6
CONTINUOUS
10
5.91535
20
-3.65354
11
5.91912
21
-3.65429
0
LINE
8
BLACK
6
CONTINUOUS
10
5.84038
20
-3.65429
11
5.84357
21
-3.65643
0
LINE
8
BLACK
6
CONTINUOUS
10
5.84357
20
-3.65643
11
5.84571
21
-3.65962
0
LINE
8
BLACK
6
CONTINUOUS
10
5.84571
20
-3.65962
11
5.84646
21
-3.66339
0
LINE
8
BLACK
6
CONTINUOUS
10
5.84646
20
-3.66339
11
5.84646
21
-3.69882
0
LINE
8
BLACK
6
CONTINUOUS
10
5.84646
20
-3.69882
11
5.84571
21
-3.70259
0
LINE
8
BLACK
6
CONTINUOUS
10
5.84571
20
-3.70259
11
5.84357
21
-3.70578
0
LINE
8
BLACK
6
CONTINUOUS
10
5.84357
20
-3.70578
11
5.84038
21
-3.70791
0
LINE
8
BLACK
6
CONTINUOUS
10
5.84038
20
-3.70791
11
5.83661
21
-3.70866
0
LINE
8
BLACK
6
CONTINUOUS
10
5.83661
20
-3.70866
11
5.80906
21
-3.70866
0
LINE
8
BLACK
6
CONTINUOUS
10
5.80906
20
-3.70866
11
5.80529
21
-3.70791
0
LINE
8
BLACK
6
CONTINUOUS
10
5.80529
20
-3.70791
11
5.8021
21
-3.70578
0
LINE
8
BLACK
6
CONTINUOUS
10
5.8021
20
-3.70578
11
5.79996
21
-3.70259
0
LINE
8
BLACK
6
CONTINUOUS
10
5.79996
20
-3.70259
11
5.79921
21
-3.69882
0
LINE
8
BLACK
6
CONTINUOUS
10
5.79921
20
-3.69882
11
5.79921
21
-3.66339
0
LINE
8
BLACK
6
CONTINUOUS
10
5.79921
20
-3.66339
11
5.79996
21
-3.65962
0
LINE
8
BLACK
6
CONTINUOUS
10
5.79996
20
-3.65962
11
5.8021
21
-3.65643
0
LINE
8
BLACK
6
CONTINUOUS
10
5.8021
20
-3.65643
11
5.80529
21
-3.65429
0
LINE
8
BLACK
6
CONTINUOUS
10
5.80529
20
-3.65429
11
5.80906
21
-3.65354
0
LINE
8
BLACK
6
CONTINUOUS
10
5.80906
20
-3.65354
11
5.83661
21
-3.65354
0
LINE
8
BLACK
6
CONTINUOUS
10
5.83661
20
-3.65354
11
5.84038
21
-3.65429
0
LINE
8
BLACK
6
CONTINUOUS
10
6.39567
20
-3.69882
11
6.33661
21
-3.69882
0
LINE
8
BLACK
6
CONTINUOUS
10
6.33661
20
-3.69882
11
6.33661
21
-3.63976
0
LINE
8
BLACK
6
CONTINUOUS
10
6.33661
20
-3.63976
11
6.39567
21
-3.63976
0
LINE
8
BLACK
6
CONTINUOUS
10
6.39567
20
-3.63976
11
6.39567
21
-3.69882
0
LINE
8
BLACK
6
CONTINUOUS
10
5.12029
20
-3.65258
11
5.12531
21
-3.65417
0
LINE
8
BLACK
6
CONTINUOUS
10
5.12531
20
-3.65417
11
5.12965
21
-3.65716
0
LINE
8
BLACK
6
CONTINUOUS
10
5.12965
20
-3.65716
11
5.13291
21
-3.6613
0
LINE
8
BLACK
6
CONTINUOUS
10
5.13291
20
-3.6613
11
5.13481
21
-3.66621
0
LINE
8
BLACK
6
CONTINUOUS
10
5.13481
20
-3.66621
11
5.13518
21
-3.67147
0
LINE
8
BLACK
6
CONTINUOUS
10
5.13518
20
-3.67147
11
5.13399
21
-3.6766
0
LINE
8
BLACK
6
CONTINUOUS
10
5.13399
20
-3.6766
11
5.13135
21
-3.68116
0
LINE
8
BLACK
6
CONTINUOUS
10
5.13135
20
-3.68116
11
5.12748
21
-3.68473
0
LINE
8
BLACK
6
CONTINUOUS
10
5.12748
20
-3.68473
11
5.12273
21
-3.68701
0
LINE
8
BLACK
6
CONTINUOUS
10
5.12273
20
-3.68701
11
5.11752
21
-3.6878
0
LINE
8
BLACK
6
CONTINUOUS
10
5.11752
20
-3.6878
11
5.07028
21
-3.6878
0
LINE
8
BLACK
6
CONTINUOUS
10
5.07028
20
-3.6878
11
5.0675
21
-3.68758
0
LINE
8
BLACK
6
CONTINUOUS
10
5.0675
20
-3.68758
11
5.06248
21
-3.68599
0
LINE
8
BLACK
6
CONTINUOUS
10
5.06248
20
-3.68599
11
5.05815
21
-3.68299
0
LINE
8
BLACK
6
CONTINUOUS
10
5.05815
20
-3.68299
11
5.05489
21
-3.67886
0
LINE
8
BLACK
6
CONTINUOUS
10
5.05489
20
-3.67886
11
5.05299
21
-3.67394
0
LINE
8
BLACK
6
CONTINUOUS
10
5.05299
20
-3.67394
11
5.05261
21
-3.66869
0
LINE
8
BLACK
6
CONTINUOUS
10
5.05261
20
-3.66869
11
5.0538
21
-3.66356
0
LINE
8
BLACK
6
CONTINUOUS
10
5.0538
20
-3.66356
11
5.05645
21
-3.659
0
LINE
8
BLACK
6
CONTINUOUS
10
5.05645
20
-3.659
11
5.06032
21
-3.65543
0
LINE
8
BLACK
6
CONTINUOUS
10
5.06032
20
-3.65543
11
5.06507
21
-3.65315
0
LINE
8
BLACK
6
CONTINUOUS
10
5.06507
20
-3.65315
11
5.07028
21
-3.65236
0
LINE
8
BLACK
6
CONTINUOUS
10
5.07028
20
-3.65236
11
5.11752
21
-3.65236
0
LINE
8
BLACK
6
CONTINUOUS
10
5.11752
20
-3.65236
11
5.12029
21
-3.65258
0
LINE
8
BLACK
6
CONTINUOUS
10
4.95415
20
-3.65258
11
4.95917
21
-3.65417
0
LINE
8
BLACK
6
CONTINUOUS
10
4.95917
20
-3.65417
11
4.96351
21
-3.65716
0
LINE
8
BLACK
6
CONTINUOUS
10
4.96351
20
-3.65716
11
4.96677
21
-3.6613
0
LINE
8
BLACK
6
CONTINUOUS
10
4.96677
20
-3.6613
11
4.96867
21
-3.66621
0
LINE
8
BLACK
6
CONTINUOUS
10
4.96867
20
-3.66621
11
4.96904
21
-3.67147
0
LINE
8
BLACK
6
CONTINUOUS
10
4.96904
20
-3.67147
11
4.96785
21
-3.6766
0
LINE
8
BLACK
6
CONTINUOUS
10
4.96785
20
-3.6766
11
4.9652
21
-3.68116
0
LINE
8
BLACK
6
CONTINUOUS
10
4.9652
20
-3.68116
11
4.96134
21
-3.68473
0
LINE
8
BLACK
6
CONTINUOUS
10
4.96134
20
-3.68473
11
4.95659
21
-3.68701
0
LINE
8
BLACK
6
CONTINUOUS
10
4.95659
20
-3.68701
11
4.95138
21
-3.6878
0
LINE
8
BLACK
6
CONTINUOUS
10
4.95138
20
-3.6878
11
4.90807
21
-3.6878
0
LINE
8
BLACK
6
CONTINUOUS
10
4.90807
20
-3.6878
11
4.9053
21
-3.68758
0
LINE
8
BLACK
6
CONTINUOUS
10
4.9053
20
-3.68758
11
4.90028
21
-3.68599
0
LINE
8
BLACK
6
CONTINUOUS
10
4.90028
20
-3.68599
11
4.89594
21
-3.68299
0
LINE
8
BLACK
6
CONTINUOUS
10
4.89594
20
-3.68299
11
4.89268
21
-3.67886
0
LINE
8
BLACK
6
CONTINUOUS
10
4.89268
20
-3.67886
11
4.89078
21
-3.67394
0
LINE
8
BLACK
6
CONTINUOUS
10
4.89078
20
-3.67394
11
4.89041
21
-3.66869
0
LINE
8
BLACK
6
CONTINUOUS
10
4.89041
20
-3.66869
11
4.8916
21
-3.66356
0
LINE
8
BLACK
6
CONTINUOUS
10
4.8916
20
-3.66356
11
4.89424
21
-3.659
0
LINE
8
BLACK
6
CONTINUOUS
10
4.89424
20
-3.659
11
4.89811
21
-3.65543
0
LINE
8
BLACK
6
CONTINUOUS
10
4.89811
20
-3.65543
11
4.90286
21
-3.65315
0
LINE
8
BLACK
6
CONTINUOUS
10
4.90286
20
-3.65315
11
4.90807
21
-3.65236
0
LINE
8
BLACK
6
CONTINUOUS
10
4.90807
20
-3.65236
11
4.95138
21
-3.65236
0
LINE
8
BLACK
6
CONTINUOUS
10
4.95138
20
-3.65236
11
4.95415
21
-3.65258
0
LINE
8
BLACK
6
CONTINUOUS
10
5.32808
20
-3.61221
11
5.33127
21
-3.61434
0
LINE
8
BLACK
6
CONTINUOUS
10
5.33127
20
-3.61434
11
5.3334
21
-3.61753
0
LINE
8
BLACK
6
CONTINUOUS
10
5.3334
20
-3.61753
11
5.33415
21
-3.6213
0
LINE
8
BLACK
6
CONTINUOUS
10
5.33415
20
-3.6213
11
5.33415
21
-3.6587
0
LINE
8
BLACK
6
CONTINUOUS
10
5.33415
20
-3.6587
11
5.3334
21
-3.66247
0
LINE
8
BLACK
6
CONTINUOUS
10
5.3334
20
-3.66247
11
5.33127
21
-3.66566
0
LINE
8
BLACK
6
CONTINUOUS
10
5.33127
20
-3.66566
11
5.32808
21
-3.66779
0
LINE
8
BLACK
6
CONTINUOUS
10
5.32808
20
-3.66779
11
5.32431
21
-3.66854
0
LINE
8
BLACK
6
CONTINUOUS
10
5.32431
20
-3.66854
11
5.29774
21
-3.66854
0
LINE
8
BLACK
6
CONTINUOUS
10
5.29774
20
-3.66854
11
5.29397
21
-3.66779
0
LINE
8
BLACK
6
CONTINUOUS
10
5.29397
20
-3.66779
11
5.29078
21
-3.66566
0
LINE
8
BLACK
6
CONTINUOUS
10
5.29078
20
-3.66566
11
5.28864
21
-3.66247
0
LINE
8
BLACK
6
CONTINUOUS
10
5.28864
20
-3.66247
11
5.28789
21
-3.6587
0
LINE
8
BLACK
6
CONTINUOUS
10
5.28789
20
-3.6587
11
5.28789
21
-3.6213
0
LINE
8
BLACK
6
CONTINUOUS
10
5.28789
20
-3.6213
11
5.28864
21
-3.61753
0
LINE
8
BLACK
6
CONTINUOUS
10
5.28864
20
-3.61753
11
5.29078
21
-3.61434
0
LINE
8
BLACK
6
CONTINUOUS
10
5.29078
20
-3.61434
11
5.29397
21
-3.61221
0
LINE
8
BLACK
6
CONTINUOUS
10
5.29397
20
-3.61221
11
5.29774
21
-3.61146
0
LINE
8
BLACK
6
CONTINUOUS
10
5.29774
20
-3.61146
11
5.32431
21
-3.61146
0
LINE
8
BLACK
6
CONTINUOUS
10
5.32431
20
-3.61146
11
5.32808
21
-3.61221
0
LINE
8
BLACK
6
CONTINUOUS
10
5.40977
20
-3.61221
11
5.41296
21
-3.61434
0
LINE
8
BLACK
6
CONTINUOUS
10
5.41296
20
-3.61434
11
5.4151
21
-3.61753
0
LINE
8
BLACK
6
CONTINUOUS
10
5.4151
20
-3.61753
11
5.41585
21
-3.6213
0
LINE
8
BLACK
6
CONTINUOUS
10
5.41585
20
-3.6213
11
5.41585
21
-3.6587
0
LINE
8
BLACK
6
CONTINUOUS
10
5.41585
20
-3.6587
11
5.4151
21
-3.66247
0
LINE
8
BLACK
6
CONTINUOUS
10
5.4151
20
-3.66247
11
5.41296
21
-3.66566
0
LINE
8
BLACK
6
CONTINUOUS
10
5.41296
20
-3.66566
11
5.40977
21
-3.66779
0
LINE
8
BLACK
6
CONTINUOUS
10
5.40977
20
-3.66779
11
5.406
21
-3.66854
0
LINE
8
BLACK
6
CONTINUOUS
10
5.406
20
-3.66854
11
5.37943
21
-3.66854
0
LINE
8
BLACK
6
CONTINUOUS
10
5.37943
20
-3.66854
11
5.37566
21
-3.66779
0
LINE
8
BLACK
6
CONTINUOUS
10
5.37566
20
-3.66779
11
5.37247
21
-3.66566
0
LINE
8
BLACK
6
CONTINUOUS
10
5.37247
20
-3.66566
11
5.37034
21
-3.66247
0
LINE
8
BLACK
6
CONTINUOUS
10
5.37034
20
-3.66247
11
5.36959
21
-3.6587
0
LINE
8
BLACK
6
CONTINUOUS
10
5.36959
20
-3.6587
11
5.36959
21
-3.6213
0
LINE
8
BLACK
6
CONTINUOUS
10
5.36959
20
-3.6213
11
5.37034
21
-3.61753
0
LINE
8
BLACK
6
CONTINUOUS
10
5.37034
20
-3.61753
11
5.37247
21
-3.61434
0
LINE
8
BLACK
6
CONTINUOUS
10
5.37247
20
-3.61434
11
5.37566
21
-3.61221
0
LINE
8
BLACK
6
CONTINUOUS
10
5.37566
20
-3.61221
11
5.37943
21
-3.61146
0
LINE
8
BLACK
6
CONTINUOUS
10
5.37943
20
-3.61146
11
5.406
21
-3.61146
0
LINE
8
BLACK
6
CONTINUOUS
10
5.406
20
-3.61146
11
5.40977
21
-3.61221
0
LINE
8
BLACK
6
CONTINUOUS
10
6.27288
20
-3.59054
11
6.27909
21
-3.59275
0
LINE
8
BLACK
6
CONTINUOUS
10
6.27909
20
-3.59275
11
6.28464
21
-3.59628
0
LINE
8
BLACK
6
CONTINUOUS
10
6.28464
20
-3.59628
11
6.28928
21
-3.60095
0
LINE
8
BLACK
6
CONTINUOUS
10
6.28928
20
-3.60095
11
6.29277
21
-3.60653
0
LINE
8
BLACK
6
CONTINUOUS
10
6.29277
20
-3.60653
11
6.29494
21
-3.61275
0
LINE
8
BLACK
6
CONTINUOUS
10
6.29494
20
-3.61275
11
6.29567
21
-3.61929
0
LINE
8
BLACK
6
CONTINUOUS
10
6.29567
20
-3.61929
11
6.29566
21
-3.62012
0
LINE
8
BLACK
6
CONTINUOUS
10
6.29566
20
-3.62012
11
6.29474
21
-3.62663
0
LINE
8
BLACK
6
CONTINUOUS
10
6.29474
20
-3.62663
11
6.2924
21
-3.63279
0
LINE
8
BLACK
6
CONTINUOUS
10
6.2924
20
-3.63279
11
6.28876
21
-3.63827
0
LINE
8
BLACK
6
CONTINUOUS
10
6.28876
20
-3.63827
11
6.28399
21
-3.64281
0
LINE
8
BLACK
6
CONTINUOUS
10
6.28399
20
-3.64281
11
6.27834
21
-3.64618
0
LINE
8
BLACK
6
CONTINUOUS
10
6.27834
20
-3.64618
11
6.27208
21
-3.64822
0
LINE
8
BLACK
6
CONTINUOUS
10
6.27208
20
-3.64822
11
6.26552
21
-3.64881
0
LINE
8
BLACK
6
CONTINUOUS
10
6.26552
20
-3.64881
11
6.259
21
-3.64794
0
LINE
8
BLACK
6
CONTINUOUS
10
6.259
20
-3.64794
11
6.25283
21
-3.64565
0
LINE
8
BLACK
6
CONTINUOUS
10
6.25283
20
-3.64565
11
6.24732
21
-3.64204
0
LINE
8
BLACK
6
CONTINUOUS
10
6.24732
20
-3.64204
11
6.24275
21
-3.63731
0
LINE
8
BLACK
6
CONTINUOUS
10
6.24275
20
-3.63731
11
6.23934
21
-3.63168
0
LINE
8
BLACK
6
CONTINUOUS
10
6.23934
20
-3.63168
11
6.23726
21
-3.62543
0
LINE
8
BLACK
6
CONTINUOUS
10
6.23726
20
-3.62543
11
6.23662
21
-3.61888
0
LINE
8
BLACK
6
CONTINUOUS
10
6.23662
20
-3.61888
11
6.23744
21
-3.61235
0
LINE
8
BLACK
6
CONTINUOUS
10
6.23744
20
-3.61235
11
6.23969
21
-3.60616
0
LINE
8
BLACK
6
CONTINUOUS
10
6.23969
20
-3.60616
11
6.24326
21
-3.60063
0
LINE
8
BLACK
6
CONTINUOUS
10
6.24326
20
-3.60063
11
6.24796
21
-3.59602
0
LINE
8
BLACK
6
CONTINUOUS
10
6.24796
20
-3.59602
11
6.25357
21
-3.59257
0
LINE
8
BLACK
6
CONTINUOUS
10
6.25357
20
-3.59257
11
6.2598
21
-3.59045
0
LINE
8
BLACK
6
CONTINUOUS
10
6.2598
20
-3.59045
11
6.26635
21
-3.58976
0
LINE
8
BLACK
6
CONTINUOUS
10
6.26635
20
-3.58976
11
6.27288
21
-3.59054
0
LINE
8
BLACK
6
CONTINUOUS
10
5.13957
20
-3.6378
11
5.0939
21
-3.6378
0
LINE
8
BLACK
6
CONTINUOUS
10
5.0939
20
-3.6378
11
5.0939
21
-3.61417
0
LINE
8
BLACK
6
CONTINUOUS
10
5.0939
20
-3.61417
11
5.13957
21
-3.61417
0
LINE
8
BLACK
6
CONTINUOUS
10
5.13957
20
-3.61417
11
5.13957
21
-3.6378
0
LINE
8
BLACK
6
CONTINUOUS
10
5.0814
20
-3.6027
11
5.0848
21
-3.60555
0
LINE
8
BLACK
6
CONTINUOUS
10
5.0848
20
-3.60555
11
5.08702
21
-3.6094
0
LINE
8
BLACK
6
CONTINUOUS
10
5.08702
20
-3.6094
11
5.0878
21
-3.61378
0
LINE
8
BLACK
6
CONTINUOUS
10
5.0878
20
-3.61378
11
5.08702
21
-3.61816
0
LINE
8
BLACK
6
CONTINUOUS
10
5.08702
20
-3.61816
11
5.0848
21
-3.622
0
LINE
8
BLACK
6
CONTINUOUS
10
5.0848
20
-3.622
11
5.0814
21
-3.62486
0
LINE
8
BLACK
6
CONTINUOUS
10
5.0814
20
-3.62486
11
5.07722
21
-3.62638
0
LINE
8
BLACK
6
CONTINUOUS
10
5.07722
20
-3.62638
11
5.07278
21
-3.62638
0
LINE
8
BLACK
6
CONTINUOUS
10
5.07278
20
-3.62638
11
5.0686
21
-3.62486
0
LINE
8
BLACK
6
CONTINUOUS
10
5.0686
20
-3.62486
11
5.0652
21
-3.622
0
LINE
8
BLACK
6
CONTINUOUS
10
5.0652
20
-3.622
11
5.06298
21
-3.61816
0
LINE
8
BLACK
6
CONTINUOUS
10
5.06298
20
-3.61816
11
5.0622
21
-3.61378
0
LINE
8
BLACK
6
CONTINUOUS
10
5.0622
20
-3.61378
11
5.06298
21
-3.6094
0
LINE
8
BLACK
6
CONTINUOUS
10
5.06298
20
-3.6094
11
5.0652
21
-3.60555
0
LINE
8
BLACK
6
CONTINUOUS
10
5.0652
20
-3.60555
11
5.0686
21
-3.6027
0
LINE
8
BLACK
6
CONTINUOUS
10
5.0686
20
-3.6027
11
5.07278
21
-3.60118
0
LINE
8
BLACK
6
CONTINUOUS
10
5.07278
20
-3.60118
11
5.07722
21
-3.60118
0
LINE
8
BLACK
6
CONTINUOUS
10
5.07722
20
-3.60118
11
5.0814
21
-3.6027
0
LINE
8
BLACK
6
CONTINUOUS
10
5.13957
20
-3.6063
11
5.0939
21
-3.6063
0
LINE
8
BLACK
6
CONTINUOUS
10
5.0939
20
-3.6063
11
5.0939
21
-3.58268
0
LINE
8
BLACK
6
CONTINUOUS
10
5.0939
20
-3.58268
11
5.13957
21
-3.58268
0
LINE
8
BLACK
6
CONTINUOUS
10
5.13957
20
-3.58268
11
5.13957
21
-3.6063
0
LINE
8
BLACK
6
CONTINUOUS
10
6.37288
20
-3.54054
11
6.37909
21
-3.54275
0
LINE
8
BLACK
6
CONTINUOUS
10
6.37909
20
-3.54275
11
6.38464
21
-3.54628
0
LINE
8
BLACK
6
CONTINUOUS
10
6.38464
20
-3.54628
11
6.38928
21
-3.55095
0
LINE
8
BLACK
6
CONTINUOUS
10
6.38928
20
-3.55095
11
6.39277
21
-3.55653
0
LINE
8
BLACK
6
CONTINUOUS
10
6.39277
20
-3.55653
11
6.39494
21
-3.56275
0
LINE
8
BLACK
6
CONTINUOUS
10
6.39494
20
-3.56275
11
6.39567
21
-3.56929
0
LINE
8
BLACK
6
CONTINUOUS
10
6.39567
20
-3.56929
11
6.39566
21
-3.57012
0
LINE
8
BLACK
6
CONTINUOUS
10
6.39566
20
-3.57012
11
6.39474
21
-3.57663
0
LINE
8
BLACK
6
CONTINUOUS
10
6.39474
20
-3.57663
11
6.3924
21
-3.58279
0
LINE
8
BLACK
6
CONTINUOUS
10
6.3924
20
-3.58279
11
6.38876
21
-3.58827
0
LINE
8
BLACK
6
CONTINUOUS
10
6.38876
20
-3.58827
11
6.38399
21
-3.59281
0
LINE
8
BLACK
6
CONTINUOUS
10
6.38399
20
-3.59281
11
6.37834
21
-3.59618
0
LINE
8
BLACK
6
CONTINUOUS
10
6.37834
20
-3.59618
11
6.37208
21
-3.59822
0
LINE
8
BLACK
6
CONTINUOUS
10
6.37208
20
-3.59822
11
6.36552
21
-3.59881
0
LINE
8
BLACK
6
CONTINUOUS
10
6.36552
20
-3.59881
11
6.359
21
-3.59794
0
LINE
8
BLACK
6
CONTINUOUS
10
6.359
20
-3.59794
11
6.35283
21
-3.59565
0
LINE
8
BLACK
6
CONTINUOUS
10
6.35283
20
-3.59565
11
6.34732
21
-3.59204
0
LINE
8
BLACK
6
CONTINUOUS
10
6.34732
20
-3.59204
11
6.34275
21
-3.58731
0
LINE
8
BLACK
6
CONTINUOUS
10
6.34275
20
-3.58731
11
6.33934
21
-3.58168
0
LINE
8
BLACK
6
CONTINUOUS
10
6.33934
20
-3.58168
11
6.33726
21
-3.57543
0
LINE
8
BLACK
6
CONTINUOUS
10
6.33726
20
-3.57543
11
6.33662
21
-3.56888
0
LINE
8
BLACK
6
CONTINUOUS
10
6.33662
20
-3.56888
11
6.33744
21
-3.56235
0
LINE
8
BLACK
6
CONTINUOUS
10
6.33744
20
-3.56235
11
6.33969
21
-3.55616
0
LINE
8
BLACK
6
CONTINUOUS
10
6.33969
20
-3.55616
11
6.34326
21
-3.55063
0
LINE
8
BLACK
6
CONTINUOUS
10
6.34326
20
-3.55063
11
6.34796
21
-3.54602
0
LINE
8
BLACK
6
CONTINUOUS
10
6.34796
20
-3.54602
11
6.35357
21
-3.54257
0
LINE
8
BLACK
6
CONTINUOUS
10
6.35357
20
-3.54257
11
6.3598
21
-3.54045
0
LINE
8
BLACK
6
CONTINUOUS
10
6.3598
20
-3.54045
11
6.36635
21
-3.53976
0
LINE
8
BLACK
6
CONTINUOUS
10
6.36635
20
-3.53976
11
6.37288
21
-3.54054
0
LINE
8
BLACK
6
CONTINUOUS
10
5.13957
20
-3.5748
11
5.0939
21
-3.5748
0
LINE
8
BLACK
6
CONTINUOUS
10
5.0939
20
-3.5748
11
5.0939
21
-3.56299
0
LINE
8
BLACK
6
CONTINUOUS
10
5.0939
20
-3.56299
11
5.13957
21
-3.56299
0
LINE
8
BLACK
6
CONTINUOUS
10
5.13957
20
-3.56299
11
5.13957
21
-3.5748
0
LINE
8
BLACK
6
CONTINUOUS
10
5.13957
20
-3.55512
11
5.0939
21
-3.55512
0
LINE
8
BLACK
6
CONTINUOUS
10
5.0939
20
-3.55512
11
5.0939
21
-3.54331
0
LINE
8
BLACK
6
CONTINUOUS
10
5.0939
20
-3.54331
11
5.13957
21
-3.54331
0
LINE
8
BLACK
6
CONTINUOUS
10
5.13957
20
-3.54331
11
5.13957
21
-3.55512
0
LINE
8
BLACK
6
CONTINUOUS
10
5.96358
20
-3.55413
11
5.89469
21
-3.55413
0
LINE
8
BLACK
6
CONTINUOUS
10
5.89469
20
-3.55413
11
5.89469
21
-3.53642
0
LINE
8
BLACK
6
CONTINUOUS
10
5.89469
20
-3.53642
11
5.96358
21
-3.53642
0
LINE
8
BLACK
6
CONTINUOUS
10
5.96358
20
-3.53642
11
5.96358
21
-3.55413
0
LINE
8
BLACK
6
CONTINUOUS
10
5.68012
20
-3.55413
11
5.61122
21
-3.55413
0
LINE
8
BLACK
6
CONTINUOUS
10
5.61122
20
-3.55413
11
5.61122
21
-3.53642
0
LINE
8
BLACK
6
CONTINUOUS
10
5.61122
20
-3.53642
11
5.68012
21
-3.53642
0
LINE
8
BLACK
6
CONTINUOUS
10
5.68012
20
-3.53642
11
5.68012
21
-3.55413
0
LINE
8
BLACK
6
CONTINUOUS
10
6.27288
20
-3.49054
11
6.27909
21
-3.49275
0
LINE
8
BLACK
6
CONTINUOUS
10
6.27909
20
-3.49275
11
6.28464
21
-3.49628
0
LINE
8
BLACK
6
CONTINUOUS
10
6.28464
20
-3.49628
11
6.28928
21
-3.50095
0
LINE
8
BLACK
6
CONTINUOUS
10
6.28928
20
-3.50095
11
6.29277
21
-3.50653
0
LINE
8
BLACK
6
CONTINUOUS
10
6.29277
20
-3.50653
11
6.29494
21
-3.51275
0
LINE
8
BLACK
6
CONTINUOUS
10
6.29494
20
-3.51275
11
6.29567
21
-3.51929
0
LINE
8
BLACK
6
CONTINUOUS
10
6.29567
20
-3.51929
11
6.29566
21
-3.52012
0
LINE
8
BLACK
6
CONTINUOUS
10
6.29566
20
-3.52012
11
6.29474
21
-3.52663
0
LINE
8
BLACK
6
CONTINUOUS
10
6.29474
20
-3.52663
11
6.2924
21
-3.53279
0
LINE
8
BLACK
6
CONTINUOUS
10
6.2924
20
-3.53279
11
6.28876
21
-3.53827
0
LINE
8
BLACK
6
CONTINUOUS
10
6.28876
20
-3.53827
11
6.28399
21
-3.54281
0
LINE
8
BLACK
6
CONTINUOUS
10
6.28399
20
-3.54281
11
6.27834
21
-3.54618
0
LINE
8
BLACK
6
CONTINUOUS
10
6.27834
20
-3.54618
11
6.27208
21
-3.54822
0
LINE
8
BLACK
6
CONTINUOUS
10
6.27208
20
-3.54822
11
6.26552
21
-3.54881
0
LINE
8
BLACK
6
CONTINUOUS
10
6.26552
20
-3.54881
11
6.259
21
-3.54794
0
LINE
8
BLACK
6
CONTINUOUS
10
6.259
20
-3.54794
11
6.25283
21
-3.54565
0
LINE
8
BLACK
6
CONTINUOUS
10
6.25283
20
-3.54565
11
6.24732
21
-3.54204
0
LINE
8
BLACK
6
CONTINUOUS
10
6.24732
20
-3.54204
11
6.24275
21
-3.53731
0
LINE
8
BLACK
6
CONTINUOUS
10
6.24275
20
-3.53731
11
6.23934
21
-3.53168
0
LINE
8
BLACK
6
CONTINUOUS
10
6.23934
20
-3.53168
11
6.23726
21
-3.52543
0
LINE
8
BLACK
6
CONTINUOUS
10
6.23726
20
-3.52543
11
6.23662
21
-3.51888
0
LINE
8
BLACK
6
CONTINUOUS
10
6.23662
20
-3.51888
11
6.23744
21
-3.51235
0
LINE
8
BLACK
6
CONTINUOUS
10
6.23744
20
-3.51235
11
6.23969
21
-3.50616
0
LINE
8
BLACK
6
CONTINUOUS
10
6.23969
20
-3.50616
11
6.24326
21
-3.50063
0
LINE
8
BLACK
6
CONTINUOUS
10
6.24326
20
-3.50063
11
6.24796
21
-3.49602
0
LINE
8
BLACK
6
CONTINUOUS
10
6.24796
20
-3.49602
11
6.25357
21
-3.49257
0
LINE
8
BLACK
6
CONTINUOUS
10
6.25357
20
-3.49257
11
6.2598
21
-3.49045
0
LINE
8
BLACK
6
CONTINUOUS
10
6.2598
20
-3.49045
11
6.26635
21
-3.48976
0
LINE
8
BLACK
6
CONTINUOUS
10
6.26635
20
-3.48976
11
6.27288
21
-3.49054
0
LINE
8
BLACK
6
CONTINUOUS
10
5.41909
20
-3.51364
11
5.42101
21
-3.51492
0
LINE
8
BLACK
6
CONTINUOUS
10
5.42101
20
-3.51492
11
5.42229
21
-3.51683
0
LINE
8
BLACK
6
CONTINUOUS
10
5.42229
20
-3.51683
11
5.42274
21
-3.51909
0
LINE
8
BLACK
6
CONTINUOUS
10
5.42274
20
-3.51909
11
5.42274
21
-3.53091
0
LINE
8
BLACK
6
CONTINUOUS
10
5.42274
20
-3.53091
11
5.42229
21
-3.53317
0
LINE
8
BLACK
6
CONTINUOUS
10
5.42229
20
-3.53317
11
5.42101
21
-3.53508
0
LINE
8
BLACK
6
CONTINUOUS
10
5.42101
20
-3.53508
11
5.41909
21
-3.53636
0
LINE
8
BLACK
6
CONTINUOUS
10
5.41909
20
-3.53636
11
5.41683
21
-3.53681
0
LINE
8
BLACK
6
CONTINUOUS
10
5.41683
20
-3.53681
11
5.37648
21
-3.53681
0
LINE
8
BLACK
6
CONTINUOUS
10
5.37648
20
-3.53681
11
5.37422
21
-3.53636
0
LINE
8
BLACK
6
CONTINUOUS
10
5.37422
20
-3.53636
11
5.3723
21
-3.53508
0
LINE
8
BLACK
6
CONTINUOUS
10
5.3723
20
-3.53508
11
5.37102
21
-3.53317
0
LINE
8
BLACK
6
CONTINUOUS
10
5.37102
20
-3.53317
11
5.37057
21
-3.53091
0
LINE
8
BLACK
6
CONTINUOUS
10
5.37057
20
-3.53091
11
5.37057
21
-3.51909
0
LINE
8
BLACK
6
CONTINUOUS
10
5.37057
20
-3.51909
11
5.37102
21
-3.51683
0
LINE
8
BLACK
6
CONTINUOUS
10
5.37102
20
-3.51683
11
5.3723
21
-3.51492
0
LINE
8
BLACK
6
CONTINUOUS
10
5.3723
20
-3.51492
11
5.37422
21
-3.51364
0
LINE
8
BLACK
6
CONTINUOUS
10
5.37422
20
-3.51364
11
5.37648
21
-3.51319
0
LINE
8
BLACK
6
CONTINUOUS
10
5.37648
20
-3.51319
11
5.41683
21
-3.51319
0
LINE
8
BLACK
6
CONTINUOUS
10
5.41683
20
-3.51319
11
5.41909
21
-3.51364
0
LINE
8
BLACK
6
CONTINUOUS
10
5.32952
20
-3.51364
11
5.33144
21
-3.51492
0
LINE
8
BLACK
6
CONTINUOUS
10
5.33144
20
-3.51492
11
5.33272
21
-3.51683
0
LINE
8
BLACK
6
CONTINUOUS
10
5.33272
20
-3.51683
11
5.33317
21
-3.51909
0
LINE
8
BLACK
6
CONTINUOUS
10
5.33317
20
-3.51909
11
5.33317
21
-3.53091
0
LINE
8
BLACK
6
CONTINUOUS
10
5.33317
20
-3.53091
11
5.33272
21
-3.53317
0
LINE
8
BLACK
6
CONTINUOUS
10
5.33272
20
-3.53317
11
5.33144
21
-3.53508
0
LINE
8
BLACK
6
CONTINUOUS
10
5.33144
20
-3.53508
11
5.32952
21
-3.53636
0
LINE
8
BLACK
6
CONTINUOUS
10
5.32952
20
-3.53636
11
5.32726
21
-3.53681
0
LINE
8
BLACK
6
CONTINUOUS
10
5.32726
20
-3.53681
11
5.28691
21
-3.53681
0
LINE
8
BLACK
6
CONTINUOUS
10
5.28691
20
-3.53681
11
5.28465
21
-3.53636
0
LINE
8
BLACK
6
CONTINUOUS
10
5.28465
20
-3.53636
11
5.28273
21
-3.53508
0
LINE
8
BLACK
6
CONTINUOUS
10
5.28273
20
-3.53508
11
5.28145
21
-3.53317
0
LINE
8
BLACK
6
CONTINUOUS
10
5.28145
20
-3.53317
11
5.281
21
-3.53091
0
LINE
8
BLACK
6
CONTINUOUS
10
5.281
20
-3.53091
11
5.281
21
-3.51909
0
LINE
8
BLACK
6
CONTINUOUS
10
5.281
20
-3.51909
11
5.28145
21
-3.51683
0
LINE
8
BLACK
6
CONTINUOUS
10
5.28145
20
-3.51683
11
5.28273
21
-3.51492
0
LINE
8
BLACK
6
CONTINUOUS
10
5.28273
20
-3.51492
11
5.28465
21
-3.51364
0
LINE
8
BLACK
6
CONTINUOUS
10
5.28465
20
-3.51364
11
5.28691
21
-3.51319
0
LINE
8
BLACK
6
CONTINUOUS
10
5.28691
20
-3.51319
11
5.32726
21
-3.51319
0
LINE
8
BLACK
6
CONTINUOUS
10
5.32726
20
-3.51319
11
5.32952
21
-3.51364
0
LINE
8
BLACK
6
CONTINUOUS
10
5.13957
20
-3.53543
11
5.0939
21
-3.53543
0
LINE
8
BLACK
6
CONTINUOUS
10
5.0939
20
-3.53543
11
5.0939
21
-3.52362
0
LINE
8
BLACK
6
CONTINUOUS
10
5.0939
20
-3.52362
11
5.13957
21
-3.52362
0
LINE
8
BLACK
6
CONTINUOUS
10
5.13957
20
-3.52362
11
5.13957
21
-3.53543
0
LINE
8
BLACK
6
CONTINUOUS
10
5.68012
20
-3.52854
11
5.61122
21
-3.52854
0
LINE
8
BLACK
6
CONTINUOUS
10
5.61122
20
-3.52854
11
5.61122
21
-3.51083
0
LINE
8
BLACK
6
CONTINUOUS
10
5.61122
20
-3.51083
11
5.68012
21
-3.51083
0
LINE
8
BLACK
6
CONTINUOUS
10
5.68012
20
-3.51083
11
5.68012
21
-3.52854
0
LINE
8
BLACK
6
CONTINUOUS
10
5.96358
20
-3.52854
11
5.89469
21
-3.52854
0
LINE
8
BLACK
6
CONTINUOUS
10
5.89469
20
-3.52854
11
5.89469
21
-3.51083
0
LINE
8
BLACK
6
CONTINUOUS
10
5.89469
20
-3.51083
11
5.96358
21
-3.51083
0
LINE
8
BLACK
6
CONTINUOUS
10
5.96358
20
-3.51083
11
5.96358
21
-3.52854
0
LINE
8
BLACK
6
CONTINUOUS
10
5.13957
20
-3.51575
11
5.0939
21
-3.51575
0
LINE
8
BLACK
6
CONTINUOUS
10
5.0939
20
-3.51575
11
5.0939
21
-3.50394
0
LINE
8
BLACK
6
CONTINUOUS
10
5.0939
20
-3.50394
11
5.13957
21
-3.50394
0
LINE
8
BLACK
6
CONTINUOUS
10
5.13957
20
-3.50394
11
5.13957
21
-3.51575
0
LINE
8
BLACK
6
CONTINUOUS
10
5.68012
20
-3.50295
11
5.61122
21
-3.50295
0
LINE
8
BLACK
6
CONTINUOUS
10
5.61122
20
-3.50295
11
5.61122
21
-3.48524
0
LINE
8
BLACK
6
CONTINUOUS
10
5.61122
20
-3.48524
11
5.68012
21
-3.48524
0
LINE
8
BLACK
6
CONTINUOUS
10
5.68012
20
-3.48524
11
5.68012
21
-3.50295
0
LINE
8
BLACK
6
CONTINUOUS
10
5.96358
20
-3.50295
11
5.89469
21
-3.50295
0
LINE
8
BLACK
6
CONTINUOUS
10
5.89469
20
-3.50295
11
5.89469
21
-3.48524
0
LINE
8
BLACK
6
CONTINUOUS
10
5.89469
20
-3.48524
11
5.96358
21
-3.48524
0
LINE
8
BLACK
6
CONTINUOUS
10
5.96358
20
-3.48524
11
5.96358
21
-3.50295
0
LINE
8
BLACK
6
CONTINUOUS
10
5.32952
20
-3.47624
11
5.33144
21
-3.47752
0
LINE
8
BLACK
6
CONTINUOUS
10
5.33144
20
-3.47752
11
5.33272
21
-3.47943
0
LINE
8
BLACK
6
CONTINUOUS
10
5.33272
20
-3.47943
11
5.33317
21
-3.48169
0
LINE
8
BLACK
6
CONTINUOUS
10
5.33317
20
-3.48169
11
5.33317
21
-3.4935
0
LINE
8
BLACK
6
CONTINUOUS
10
5.33317
20
-3.4935
11
5.33272
21
-3.49576
0
LINE
8
BLACK
6
CONTINUOUS
10
5.33272
20
-3.49576
11
5.33144
21
-3.49768
0
LINE
8
BLACK
6
CONTINUOUS
10
5.33144
20
-3.49768
11
5.32952
21
-3.49896
0
LINE
8
BLACK
6
CONTINUOUS
10
5.32952
20
-3.49896
11
5.32726
21
-3.49941
0
LINE
8
BLACK
6
CONTINUOUS
10
5.32726
20
-3.49941
11
5.28691
21
-3.49941
0
LINE
8
BLACK
6
CONTINUOUS
10
5.28691
20
-3.49941
11
5.28465
21
-3.49896
0
LINE
8
BLACK
6
CONTINUOUS
10
5.28465
20
-3.49896
11
5.28273
21
-3.49768
0
LINE
8
BLACK
6
CONTINUOUS
10
5.28273
20
-3.49768
11
5.28145
21
-3.49576
0
LINE
8
BLACK
6
CONTINUOUS
10
5.28145
20
-3.49576
11
5.281
21
-3.4935
0
LINE
8
BLACK
6
CONTINUOUS
10
5.281
20
-3.4935
11
5.281
21
-3.48169
0
LINE
8
BLACK
6
CONTINUOUS
10
5.281
20
-3.48169
11
5.28145
21
-3.47943
0
LINE
8
BLACK
6
CONTINUOUS
10
5.28145
20
-3.47943
11
5.28273
21
-3.47752
0
LINE
8
BLACK
6
CONTINUOUS
10
5.28273
20
-3.47752
11
5.28465
21
-3.47624
0
LINE
8
BLACK
6
CONTINUOUS
10
5.28465
20
-3.47624
11
5.28691
21
-3.47579
0
LINE
8
BLACK
6
CONTINUOUS
10
5.28691
20
-3.47579
11
5.32726
21
-3.47579
0
LINE
8
BLACK
6
CONTINUOUS
10
5.32726
20
-3.47579
11
5.32952
21
-3.47624
0
LINE
8
BLACK
6
CONTINUOUS
10
5.41909
20
-3.47624
11
5.42101
21
-3.47752
0
LINE
8
BLACK
6
CONTINUOUS
10
5.42101
20
-3.47752
11
5.42229
21
-3.47943
0
LINE
8
BLACK
6
CONTINUOUS
10
5.42229
20
-3.47943
11
5.42274
21
-3.48169
0
LINE
8
BLACK
6
CONTINUOUS
10
5.42274
20
-3.48169
11
5.42274
21
-3.4935
0
LINE
8
BLACK
6
CONTINUOUS
10
5.42274
20
-3.4935
11
5.42229
21
-3.49576
0
LINE
8
BLACK
6
CONTINUOUS
10
5.42229
20
-3.49576
11
5.42101
21
-3.49768
0
LINE
8
BLACK
6
CONTINUOUS
10
5.42101
20
-3.49768
11
5.41909
21
-3.49896
0
LINE
8
BLACK
6
CONTINUOUS
10
5.41909
20
-3.49896
11
5.41683
21
-3.49941
0
LINE
8
BLACK
6
CONTINUOUS
10
5.41683
20
-3.49941
11
5.37648
21
-3.49941
0
LINE
8
BLACK
6
CONTINUOUS
10
5.37648
20
-3.49941
11
5.37422
21
-3.49896
0
LINE
8
BLACK
6
CONTINUOUS
10
5.37422
20
-3.49896
11
5.3723
21
-3.49768
0
LINE
8
BLACK
6
CONTINUOUS
10
5.3723
20
-3.49768
11
5.37102
21
-3.49576
0
LINE
8
BLACK
6
CONTINUOUS
10
5.37102
20
-3.49576
11
5.37057
21
-3.4935
0
LINE
8
BLACK
6
CONTINUOUS
10
5.37057
20
-3.4935
11
5.37057
21
-3.48169
0
LINE
8
BLACK
6
CONTINUOUS
10
5.37057
20
-3.48169
11
5.37102
21
-3.47943
0
LINE
8
BLACK
6
CONTINUOUS
10
5.37102
20
-3.47943
11
5.3723
21
-3.47752
0
LINE
8
BLACK
6
CONTINUOUS
10
5.3723
20
-3.47752
11
5.37422
21
-3.47624
0
LINE
8
BLACK
6
CONTINUOUS
10
5.37422
20
-3.47624
11
5.37648
21
-3.47579
0
LINE
8
BLACK
6
CONTINUOUS
10
5.37648
20
-3.47579
11
5.41683
21
-3.47579
0
LINE
8
BLACK
6
CONTINUOUS
10
5.41683
20
-3.47579
11
5.41909
21
-3.47624
0
LINE
8
BLACK
6
CONTINUOUS
10
6.37288
20
-3.44054
11
6.37909
21
-3.44275
0
LINE
8
BLACK
6
CONTINUOUS
10
6.37909
20
-3.44275
11
6.38464
21
-3.44628
0
LINE
8
BLACK
6
CONTINUOUS
10
6.38464
20
-3.44628
11
6.38928
21
-3.45095
0
LINE
8
BLACK
6
CONTINUOUS
10
6.38928
20
-3.45095
11
6.39277
21
-3.45653
0
LINE
8
BLACK
6
CONTINUOUS
10
6.39277
20
-3.45653
11
6.39494
21
-3.46275
0
LINE
8
BLACK
6
CONTINUOUS
10
6.39494
20
-3.46275
11
6.39567
21
-3.46929
0
LINE
8
BLACK
6
CONTINUOUS
10
6.39567
20
-3.46929
11
6.39566
21
-3.47012
0
LINE
8
BLACK
6
CONTINUOUS
10
6.39566
20
-3.47012
11
6.39474
21
-3.47663
0
LINE
8
BLACK
6
CONTINUOUS
10
6.39474
20
-3.47663
11
6.3924
21
-3.48279
0
LINE
8
BLACK
6
CONTINUOUS
10
6.3924
20
-3.48279
11
6.38876
21
-3.48827
0
LINE
8
BLACK
6
CONTINUOUS
10
6.38876
20
-3.48827
11
6.38399
21
-3.49281
0
LINE
8
BLACK
6
CONTINUOUS
10
6.38399
20
-3.49281
11
6.37834
21
-3.49618
0
LINE
8
BLACK
6
CONTINUOUS
10
6.37834
20
-3.49618
11
6.37208
21
-3.49822
0
LINE
8
BLACK
6
CONTINUOUS
10
6.37208
20
-3.49822
11
6.36552
21
-3.49881
0
LINE
8
BLACK
6
CONTINUOUS
10
6.36552
20
-3.49881
11
6.359
21
-3.49794
0
LINE
8
BLACK
6
CONTINUOUS
10
6.359
20
-3.49794
11
6.35283
21
-3.49565
0
LINE
8
BLACK
6
CONTINUOUS
10
6.35283
20
-3.49565
11
6.34732
21
-3.49204
0
LINE
8
BLACK
6
CONTINUOUS
10
6.34732
20
-3.49204
11
6.34275
21
-3.48731
0
LINE
8
BLACK
6
CONTINUOUS
10
6.34275
20
-3.48731
11
6.33934
21
-3.48168
0
LINE
8
BLACK
6
CONTINUOUS
10
6.33934
20
-3.48168
11
6.33726
21
-3.47543
0
LINE
8
BLACK
6
CONTINUOUS
10
6.33726
20
-3.47543
11
6.33662
21
-3.46888
0
LINE
8
BLACK
6
CONTINUOUS
10
6.33662
20
-3.46888
11
6.33744
21
-3.46235
0
LINE
8
BLACK
6
CONTINUOUS
10
6.33744
20
-3.46235
11
6.33969
21
-3.45616
0
LINE
8
BLACK
6
CONTINUOUS
10
6.33969
20
-3.45616
11
6.34326
21
-3.45063
0
LINE
8
BLACK
6
CONTINUOUS
10
6.34326
20
-3.45063
11
6.34796
21
-3.44602
0
LINE
8
BLACK
6
CONTINUOUS
10
6.34796
20
-3.44602
11
6.35357
21
-3.44257
0
LINE
8
BLACK
6
CONTINUOUS
10
6.35357
20
-3.44257
11
6.3598
21
-3.44045
0
LINE
8
BLACK
6
CONTINUOUS
10
6.3598
20
-3.44045
11
6.36635
21
-3.43976
0
LINE
8
BLACK
6
CONTINUOUS
10
6.36635
20
-3.43976
11
6.37288
21
-3.44054
0
LINE
8
BLACK
6
CONTINUOUS
10
5.13957
20
-3.49606
11
5.0939
21
-3.49606
0
LINE
8
BLACK
6
CONTINUOUS
10
5.0939
20
-3.49606
11
5.0939
21
-3.48425
0
LINE
8
BLACK
6
CONTINUOUS
10
5.0939
20
-3.48425
11
5.13957
21
-3.48425
0
LINE
8
BLACK
6
CONTINUOUS
10
5.13957
20
-3.48425
11
5.13957
21
-3.49606
0
LINE
8
BLACK
6
CONTINUOUS
10
5.68012
20
-3.47736
11
5.61122
21
-3.47736
0
LINE
8
BLACK
6
CONTINUOUS
10
5.61122
20
-3.47736
11
5.61122
21
-3.45965
0
LINE
8
BLACK
6
CONTINUOUS
10
5.61122
20
-3.45965
11
5.68012
21
-3.45965
0
LINE
8
BLACK
6
CONTINUOUS
10
5.68012
20
-3.45965
11
5.68012
21
-3.47736
0
LINE
8
BLACK
6
CONTINUOUS
10
5.96358
20
-3.47736
11
5.89469
21
-3.47736
0
LINE
8
BLACK
6
CONTINUOUS
10
5.89469
20
-3.47736
11
5.89469
21
-3.45965
0
LINE
8
BLACK
6
CONTINUOUS
10
5.89469
20
-3.45965
11
5.96358
21
-3.45965
0
LINE
8
BLACK
6
CONTINUOUS
10
5.96358
20
-3.45965
11
5.96358
21
-3.47736
0
LINE
8
BLACK
6
CONTINUOUS
10
5.13957
20
-3.47638
11
5.0939
21
-3.47638
0
LINE
8
BLACK
6
CONTINUOUS
10
5.0939
20
-3.47638
11
5.0939
21
-3.46457
0
LINE
8
BLACK
6
CONTINUOUS
10
5.0939
20
-3.46457
11
5.13957
21
-3.46457
0
LINE
8
BLACK
6
CONTINUOUS
10
5.13957
20
-3.46457
11
5.13957
21
-3.47638
0
LINE
8
BLACK
6
CONTINUOUS
10
5.32952
20
-3.43884
11
5.33144
21
-3.44012
0
LINE
8
BLACK
6
CONTINUOUS
10
5.33144
20
-3.44012
11
5.33272
21
-3.44203
0
LINE
8
BLACK
6
CONTINUOUS
10
5.33272
20
-3.44203
11
5.33317
21
-3.44429
0
LINE
8
BLACK
6
CONTINUOUS
10
5.33317
20
-3.44429
11
5.33317
21
-3.4561
0
LINE
8
BLACK
6
CONTINUOUS
10
5.33317
20
-3.4561
11
5.33272
21
-3.45836
0
LINE
8
BLACK
6
CONTINUOUS
10
5.33272
20
-3.45836
11
5.33144
21
-3.46028
0
LINE
8
BLACK
6
CONTINUOUS
10
5.33144
20
-3.46028
11
5.32952
21
-3.46156
0
LINE
8
BLACK
6
CONTINUOUS
10
5.32952
20
-3.46156
11
5.32726
21
-3.46201
0
LINE
8
BLACK
6
CONTINUOUS
10
5.32726
20
-3.46201
11
5.28691
21
-3.46201
0
LINE
8
BLACK
6
CONTINUOUS
10
5.28691
20
-3.46201
11
5.28465
21
-3.46156
0
LINE
8
BLACK
6
CONTINUOUS
10
5.28465
20
-3.46156
11
5.28273
21
-3.46028
0
LINE
8
BLACK
6
CONTINUOUS
10
5.28273
20
-3.46028
11
5.28145
21
-3.45836
0
LINE
8
BLACK
6
CONTINUOUS
10
5.28145
20
-3.45836
11
5.281
21
-3.4561
0
LINE
8
BLACK
6
CONTINUOUS
10
5.281
20
-3.4561
11
5.281
21
-3.44429
0
LINE
8
BLACK
6
CONTINUOUS
10
5.281
20
-3.44429
11
5.28145
21
-3.44203
0
LINE
8
BLACK
6
CONTINUOUS
10
5.28145
20
-3.44203
11
5.28273
21
-3.44012
0
LINE
8
BLACK
6
CONTINUOUS
10
5.28273
20
-3.44012
11
5.28465
21
-3.43884
0
LINE
8
BLACK
6
CONTINUOUS
10
5.28465
20
-3.43884
11
5.28691
21
-3.43839
0
LINE
8
BLACK
6
CONTINUOUS
10
5.28691
20
-3.43839
11
5.32726
21
-3.43839
0
LINE
8
BLACK
6
CONTINUOUS
10
5.32726
20
-3.43839
11
5.32952
21
-3.43884
0
LINE
8
BLACK
6
CONTINUOUS
10
5.41909
20
-3.43884
11
5.42101
21
-3.44012
0
LINE
8
BLACK
6
CONTINUOUS
10
5.42101
20
-3.44012
11
5.42229
21
-3.44203
0
LINE
8
BLACK
6
CONTINUOUS
10
5.42229
20
-3.44203
11
5.42274
21
-3.44429
0
LINE
8
BLACK
6
CONTINUOUS
10
5.42274
20
-3.44429
11
5.42274
21
-3.4561
0
LINE
8
BLACK
6
CONTINUOUS
10
5.42274
20
-3.4561
11
5.42229
21
-3.45836
0
LINE
8
BLACK
6
CONTINUOUS
10
5.42229
20
-3.45836
11
5.42101
21
-3.46028
0
LINE
8
BLACK
6
CONTINUOUS
10
5.42101
20
-3.46028
11
5.41909
21
-3.46156
0
LINE
8
BLACK
6
CONTINUOUS
10
5.41909
20
-3.46156
11
5.41683
21
-3.46201
0
LINE
8
BLACK
6
CONTINUOUS
10
5.41683
20
-3.46201
11
5.37648
21
-3.46201
0
LINE
8
BLACK
6
CONTINUOUS
10
5.37648
20
-3.46201
11
5.37422
21
-3.46156
0
LINE
8
BLACK
6
CONTINUOUS
10
5.37422
20
-3.46156
11
5.3723
21
-3.46028
0
LINE
8
BLACK
6
CONTINUOUS
10
5.3723
20
-3.46028
11
5.37102
21
-3.45836
0
LINE
8
BLACK
6
CONTINUOUS
10
5.37102
20
-3.45836
11
5.37057
21
-3.4561
0
LINE
8
BLACK
6
CONTINUOUS
10
5.37057
20
-3.4561
11
5.37057
21
-3.44429
0
LINE
8
BLACK
6
CONTINUOUS
10
5.37057
20
-3.44429
11
5.37102
21
-3.44203
0
LINE
8
BLACK
6
CONTINUOUS
10
5.37102
20
-3.44203
11
5.3723
21
-3.44012
0
LINE
8
BLACK
6
CONTINUOUS
10
5.3723
20
-3.44012
11
5.37422
21
-3.43884
0
LINE
8
BLACK
6
CONTINUOUS
10
5.37422
20
-3.43884
11
5.37648
21
-3.43839
0
LINE
8
BLACK
6
CONTINUOUS
10
5.37648
20
-3.43839
11
5.41683
21
-3.43839
0
LINE
8
BLACK
6
CONTINUOUS
10
5.41683
20
-3.43839
11
5.41909
21
-3.43884
0
LINE
8
BLACK
6
CONTINUOUS
10
5.13957
20
-3.45669
11
5.0939
21
-3.45669
0
LINE
8
BLACK
6
CONTINUOUS
10
5.0939
20
-3.45669
11
5.0939
21
-3.44488
0
LINE
8
BLACK
6
CONTINUOUS
10
5.0939
20
-3.44488
11
5.13957
21
-3.44488
0
LINE
8
BLACK
6
CONTINUOUS
10
5.13957
20
-3.44488
11
5.13957
21
-3.45669
0
LINE
8
BLACK
6
CONTINUOUS
10
5.96358
20
-3.45177
11
5.89469
21
-3.45177
0
LINE
8
BLACK
6
CONTINUOUS
10
5.89469
20
-3.45177
11
5.89469
21
-3.43406
0
LINE
8
BLACK
6
CONTINUOUS
10
5.89469
20
-3.43406
11
5.96358
21
-3.43406
0
LINE
8
BLACK
6
CONTINUOUS
10
5.96358
20
-3.43406
11
5.96358
21
-3.45177
0
LINE
8
BLACK
6
CONTINUOUS
10
5.68012
20
-3.45177
11
5.61122
21
-3.45177
0
LINE
8
BLACK
6
CONTINUOUS
10
5.61122
20
-3.45177
11
5.61122
21
-3.43406
0
LINE
8
BLACK
6
CONTINUOUS
10
5.61122
20
-3.43406
11
5.68012
21
-3.43406
0
LINE
8
BLACK
6
CONTINUOUS
10
5.68012
20
-3.43406
11
5.68012
21
-3.45177
0
LINE
8
BLACK
6
CONTINUOUS
10
6.27288
20
-3.39054
11
6.27909
21
-3.39275
0
LINE
8
BLACK
6
CONTINUOUS
10
6.27909
20
-3.39275
11
6.28464
21
-3.39628
0
LINE
8
BLACK
6
CONTINUOUS
10
6.28464
20
-3.39628
11
6.28928
21
-3.40095
0
LINE
8
BLACK
6
CONTINUOUS
10
6.28928
20
-3.40095
11
6.29277
21
-3.40653
0
LINE
8
BLACK
6
CONTINUOUS
10
6.29277
20
-3.40653
11
6.29494
21
-3.41275
0
LINE
8
BLACK
6
CONTINUOUS
10
6.29494
20
-3.41275
11
6.29567
21
-3.41929
0
LINE
8
BLACK
6
CONTINUOUS
10
6.29567
20
-3.41929
11
6.29566
21
-3.42012
0
LINE
8
BLACK
6
CONTINUOUS
10
6.29566
20
-3.42012
11
6.29474
21
-3.42663
0
LINE
8
BLACK
6
CONTINUOUS
10
6.29474
20
-3.42663
11
6.2924
21
-3.43279
0
LINE
8
BLACK
6
CONTINUOUS
10
6.2924
20
-3.43279
11
6.28876
21
-3.43827
0
LINE
8
BLACK
6
CONTINUOUS
10
6.28876
20
-3.43827
11
6.28399
21
-3.44281
0
LINE
8
BLACK
6
CONTINUOUS
10
6.28399
20
-3.44281
11
6.27834
21
-3.44618
0
LINE
8
BLACK
6
CONTINUOUS
10
6.27834
20
-3.44618
11
6.27208
21
-3.44822
0
LINE
8
BLACK
6
CONTINUOUS
10
6.27208
20
-3.44822
11
6.26552
21
-3.44881
0
LINE
8
BLACK
6
CONTINUOUS
10
6.26552
20
-3.44881
11
6.259
21
-3.44794
0
LINE
8
BLACK
6
CONTINUOUS
10
6.259
20
-3.44794
11
6.25283
21
-3.44565
0
LINE
8
BLACK
6
CONTINUOUS
10
6.25283
20
-3.44565
11
6.24732
21
-3.44204
0
LINE
8
BLACK
6
CONTINUOUS
10
6.24732
20
-3.44204
11
6.24275
21
-3.43731
0
LINE
8
BLACK
6
CONTINUOUS
10
6.24275
20
-3.43731
11
6.23934
21
-3.43168
0
LINE
8
BLACK
6
CONTINUOUS
10
6.23934
20
-3.43168
11
6.23726
21
-3.42543
0
LINE
8
BLACK
6
CONTINUOUS
10
6.23726
20
-3.42543
11
6.23662
21
-3.41888
0
LINE
8
BLACK
6
CONTINUOUS
10
6.23662
20
-3.41888
11
6.23744
21
-3.41235
0
LINE
8
BLACK
6
CONTINUOUS
10
6.23744
20
-3.41235
11
6.23969
21
-3.40616
0
LINE
8
BLACK
6
CONTINUOUS
10
6.23969
20
-3.40616
11
6.24326
21
-3.40063
0
LINE
8
BLACK
6
CONTINUOUS
10
6.24326
20
-3.40063
11
6.24796
21
-3.39602
0
LINE
8
BLACK
6
CONTINUOUS
10
6.24796
20
-3.39602
11
6.25357
21
-3.39257
0
LINE
8
BLACK
6
CONTINUOUS
10
6.25357
20
-3.39257
11
6.2598
21
-3.39045
0
LINE
8
BLACK
6
CONTINUOUS
10
6.2598
20
-3.39045
11
6.26635
21
-3.38976
0
LINE
8
BLACK
6
CONTINUOUS
10
6.26635
20
-3.38976
11
6.27288
21
-3.39054
0
LINE
8
BLACK
6
CONTINUOUS
10
5.13957
20
-3.43701
11
5.0939
21
-3.43701
0
LINE
8
BLACK
6
CONTINUOUS
10
5.0939
20
-3.43701
11
5.0939
21
-3.4252
0
LINE
8
BLACK
6
CONTINUOUS
10
5.0939
20
-3.4252
11
5.13957
21
-3.4252
0
LINE
8
BLACK
6
CONTINUOUS
10
5.13957
20
-3.4252
11
5.13957
21
-3.43701
0
LINE
8
BLACK
6
CONTINUOUS
10
5.96358
20
-3.42618
11
5.89469
21
-3.42618
0
LINE
8
BLACK
6
CONTINUOUS
10
5.89469
20
-3.42618
11
5.89469
21
-3.40846
0
LINE
8
BLACK
6
CONTINUOUS
10
5.89469
20
-3.40846
11
5.96358
21
-3.40846
0
LINE
8
BLACK
6
CONTINUOUS
10
5.96358
20
-3.40846
11
5.96358
21
-3.42618
0
LINE
8
BLACK
6
CONTINUOUS
10
5.68012
20
-3.42618
11
5.61122
21
-3.42618
0
LINE
8
BLACK
6
CONTINUOUS
10
5.61122
20
-3.42618
11
5.61122
21
-3.40846
0
LINE
8
BLACK
6
CONTINUOUS
10
5.61122
20
-3.40846
11
5.68012
21
-3.40846
0
LINE
8
BLACK
6
CONTINUOUS
10
5.68012
20
-3.40846
11
5.68012
21
-3.42618
0
LINE
8
BLACK
6
CONTINUOUS
10
5.13957
20
-3.41732
11
5.0939
21
-3.41732
0
LINE
8
BLACK
6
CONTINUOUS
10
5.0939
20
-3.41732
11
5.0939
21
-3.3937
0
LINE
8
BLACK
6
CONTINUOUS
10
5.0939
20
-3.3937
11
5.13957
21
-3.3937
0
LINE
8
BLACK
6
CONTINUOUS
10
5.13957
20
-3.3937
11
5.13957
21
-3.41732
0
LINE
8
BLACK
6
CONTINUOUS
10
5.96358
20
-3.40059
11
5.89469
21
-3.40059
0
LINE
8
BLACK
6
CONTINUOUS
10
5.89469
20
-3.40059
11
5.89469
21
-3.38287
0
LINE
8
BLACK
6
CONTINUOUS
10
5.89469
20
-3.38287
11
5.96358
21
-3.38287
0
LINE
8
BLACK
6
CONTINUOUS
10
5.96358
20
-3.38287
11
5.96358
21
-3.40059
0
LINE
8
BLACK
6
CONTINUOUS
10
5.68012
20
-3.40059
11
5.61122
21
-3.40059
0
LINE
8
BLACK
6
CONTINUOUS
10
5.61122
20
-3.40059
11
5.61122
21
-3.38287
0
LINE
8
BLACK
6
CONTINUOUS
10
5.61122
20
-3.38287
11
5.68012
21
-3.38287
0
LINE
8
BLACK
6
CONTINUOUS
10
5.68012
20
-3.38287
11
5.68012
21
-3.40059
0
LINE
8
BLACK
6
CONTINUOUS
10
5.0814
20
-3.37514
11
5.0848
21
-3.378
0
LINE
8
BLACK
6
CONTINUOUS
10
5.0848
20
-3.378
11
5.08702
21
-3.38184
0
LINE
8
BLACK
6
CONTINUOUS
10
5.08702
20
-3.38184
11
5.0878
21
-3.38622
0
LINE
8
BLACK
6
CONTINUOUS
10
5.0878
20
-3.38622
11
5.08702
21
-3.3906
0
LINE
8
BLACK
6
CONTINUOUS
10
5.08702
20
-3.3906
11
5.0848
21
-3.39445
0
LINE
8
BLACK
6
CONTINUOUS
10
5.0848
20
-3.39445
11
5.0814
21
-3.3973
0
LINE
8
BLACK
6
CONTINUOUS
10
5.0814
20
-3.3973
11
5.07722
21
-3.39882
0
LINE
8
BLACK
6
CONTINUOUS
10
5.07722
20
-3.39882
11
5.07278
21
-3.39882
0
LINE
8
BLACK
6
CONTINUOUS
10
5.07278
20
-3.39882
11
5.0686
21
-3.3973
0
LINE
8
BLACK
6
CONTINUOUS
10
5.0686
20
-3.3973
11
5.0652
21
-3.39445
0
LINE
8
BLACK
6
CONTINUOUS
10
5.0652
20
-3.39445
11
5.06298
21
-3.3906
0
LINE
8
BLACK
6
CONTINUOUS
10
5.06298
20
-3.3906
11
5.0622
21
-3.38622
0
LINE
8
BLACK
6
CONTINUOUS
10
5.0622
20
-3.38622
11
5.06298
21
-3.38184
0
LINE
8
BLACK
6
CONTINUOUS
10
5.06298
20
-3.38184
11
5.0652
21
-3.378
0
LINE
8
BLACK
6
CONTINUOUS
10
5.0652
20
-3.378
11
5.0686
21
-3.37514
0
LINE
8
BLACK
6
CONTINUOUS
10
5.0686
20
-3.37514
11
5.07278
21
-3.37362
0
LINE
8
BLACK
6
CONTINUOUS
10
5.07278
20
-3.37362
11
5.07722
21
-3.37362
0
LINE
8
BLACK
6
CONTINUOUS
10
5.07722
20
-3.37362
11
5.0814
21
-3.37514
0
LINE
8
BLACK
6
CONTINUOUS
10
6.37288
20
-3.34054
11
6.37909
21
-3.34275
0
LINE
8
BLACK
6
CONTINUOUS
10
6.37909
20
-3.34275
11
6.38464
21
-3.34628
0
LINE
8
BLACK
6
CONTINUOUS
10
6.38464
20
-3.34628
11
6.38928
21
-3.35095
0
LINE
8
BLACK
6
CONTINUOUS
10
6.38928
20
-3.35095
11
6.39277
21
-3.35653
0
LINE
8
BLACK
6
CONTINUOUS
10
6.39277
20
-3.35653
11
6.39494
21
-3.36275
0
LINE
8
BLACK
6
CONTINUOUS
10
6.39494
20
-3.36275
11
6.39567
21
-3.36929
0
LINE
8
BLACK
6
CONTINUOUS
10
6.39567
20
-3.36929
11
6.39566
21
-3.37012
0
LINE
8
BLACK
6
CONTINUOUS
10
6.39566
20
-3.37012
11
6.39474
21
-3.37663
0
LINE
8
BLACK
6
CONTINUOUS
10
6.39474
20
-3.37663
11
6.3924
21
-3.38279
0
LINE
8
BLACK
6
CONTINUOUS
10
6.3924
20
-3.38279
11
6.38876
21
-3.38827
0
LINE
8
BLACK
6
CONTINUOUS
10
6.38876
20
-3.38827
11
6.38399
21
-3.39281
0
LINE
8
BLACK
6
CONTINUOUS
10
6.38399
20
-3.39281
11
6.37834
21
-3.39618
0
LINE
8
BLACK
6
CONTINUOUS
10
6.37834
20
-3.39618
11
6.37208
21
-3.39822
0
LINE
8
BLACK
6
CONTINUOUS
10
6.37208
20
-3.39822
11
6.36552
21
-3.39881
0
LINE
8
BLACK
6
CONTINUOUS
10
6.36552
20
-3.39881
11
6.359
21
-3.39794
0
LINE
8
BLACK
6
CONTINUOUS
10
6.359
20
-3.39794
11
6.35283
21
-3.39565
0
LINE
8
BLACK
6
CONTINUOUS
10
6.35283
20
-3.39565
11
6.34732
21
-3.39204
0
LINE
8
BLACK
6
CONTINUOUS
10
6.34732
20
-3.39204
11
6.34275
21
-3.38731
0
LINE
8
BLACK
6
CONTINUOUS
10
6.34275
20
-3.38731
11
6.33934
21
-3.38168
0
LINE
8
BLACK
6
CONTINUOUS
10
6.33934
20
-3.38168
11
6.33726
21
-3.37543
0
LINE
8
BLACK
6
CONTINUOUS
10
6.33726
20
-3.37543
11
6.33662
21
-3.36888
0
LINE
8
BLACK
6
CONTINUOUS
10
6.33662
20
-3.36888
11
6.33744
21
-3.36235
0
LINE
8
BLACK
6
CONTINUOUS
10
6.33744
20
-3.36235
11
6.33969
21
-3.35616
0
LINE
8
BLACK
6
CONTINUOUS
10
6.33969
20
-3.35616
11
6.34326
21
-3.35063
0
LINE
8
BLACK
6
CONTINUOUS
10
6.34326
20
-3.35063
11
6.34796
21
-3.34602
0
LINE
8
BLACK
6
CONTINUOUS
10
6.34796
20
-3.34602
11
6.35357
21
-3.34257
0
LINE
8
BLACK
6
CONTINUOUS
10
6.35357
20
-3.34257
11
6.3598
21
-3.34045
0
LINE
8
BLACK
6
CONTINUOUS
10
6.3598
20
-3.34045
11
6.36635
21
-3.33976
0
LINE
8
BLACK
6
CONTINUOUS
10
6.36635
20
-3.33976
11
6.37288
21
-3.34054
0
LINE
8
BLACK
6
CONTINUOUS
10
5.13957
20
-3.38583
11
5.0939
21
-3.38583
0
LINE
8
BLACK
6
CONTINUOUS
10
5.0939
20
-3.38583
11
5.0939
21
-3.3622
0
LINE
8
BLACK
6
CONTINUOUS
10
5.0939
20
-3.3622
11
5.13957
21
-3.3622
0
LINE
8
BLACK
6
CONTINUOUS
10
5.13957
20
-3.3622
11
5.13957
21
-3.38583
0
LINE
8
BLACK
6
CONTINUOUS
10
5.96358
20
-3.375
11
5.89469
21
-3.375
0
LINE
8
BLACK
6
CONTINUOUS
10
5.89469
20
-3.375
11
5.89469
21
-3.35728
0
LINE
8
BLACK
6
CONTINUOUS
10
5.89469
20
-3.35728
11
5.96358
21
-3.35728
0
LINE
8
BLACK
6
CONTINUOUS
10
5.96358
20
-3.35728
11
5.96358
21
-3.375
0
LINE
8
BLACK
6
CONTINUOUS
10
5.68012
20
-3.375
11
5.61122
21
-3.375
0
LINE
8
BLACK
6
CONTINUOUS
10
5.61122
20
-3.375
11
5.61122
21
-3.35728
0
LINE
8
BLACK
6
CONTINUOUS
10
5.61122
20
-3.35728
11
5.68012
21
-3.35728
0
LINE
8
BLACK
6
CONTINUOUS
10
5.68012
20
-3.35728
11
5.68012
21
-3.375
0
LINE
8
BLACK
6
CONTINUOUS
10
6.16322
20
-3.29799
11
6.16641
21
-3.30013
0
LINE
8
BLACK
6
CONTINUOUS
10
6.16641
20
-3.30013
11
6.16854
21
-3.30332
0
LINE
8
BLACK
6
CONTINUOUS
10
6.16854
20
-3.30332
11
6.16929
21
-3.30709
0
LINE
8
BLACK
6
CONTINUOUS
10
6.16929
20
-3.30709
11
6.16929
21
-3.34252
0
LINE
8
BLACK
6
CONTINUOUS
10
6.16929
20
-3.34252
11
6.16854
21
-3.34629
0
LINE
8
BLACK
6
CONTINUOUS
10
6.16854
20
-3.34629
11
6.16641
21
-3.34948
0
LINE
8
BLACK
6
CONTINUOUS
10
6.16641
20
-3.34948
11
6.16322
21
-3.35161
0
LINE
8
BLACK
6
CONTINUOUS
10
6.16322
20
-3.35161
11
6.15945
21
-3.35236
0
LINE
8
BLACK
6
CONTINUOUS
10
6.15945
20
-3.35236
11
6.13189
21
-3.35236
0
LINE
8
BLACK
6
CONTINUOUS
10
6.13189
20
-3.35236
11
6.12812
21
-3.35161
0
LINE
8
BLACK
6
CONTINUOUS
10
6.12812
20
-3.35161
11
6.12493
21
-3.34948
0
LINE
8
BLACK
6
CONTINUOUS
10
6.12493
20
-3.34948
11
6.1228
21
-3.34629
0
LINE
8
BLACK
6
CONTINUOUS
10
6.1228
20
-3.34629
11
6.12205
21
-3.34252
0
LINE
8
BLACK
6
CONTINUOUS
10
6.12205
20
-3.34252
11
6.12205
21
-3.30709
0
LINE
8
BLACK
6
CONTINUOUS
10
6.12205
20
-3.30709
11
6.1228
21
-3.30332
0
LINE
8
BLACK
6
CONTINUOUS
10
6.1228
20
-3.30332
11
6.12493
21
-3.30013
0
LINE
8
BLACK
6
CONTINUOUS
10
6.12493
20
-3.30013
11
6.12812
21
-3.29799
0
LINE
8
BLACK
6
CONTINUOUS
10
6.12812
20
-3.29799
11
6.13189
21
-3.29724
0
LINE
8
BLACK
6
CONTINUOUS
10
6.13189
20
-3.29724
11
6.15945
21
-3.29724
0
LINE
8
BLACK
6
CONTINUOUS
10
6.15945
20
-3.29724
11
6.16322
21
-3.29799
0
LINE
8
BLACK
6
CONTINUOUS
10
6.08448
20
-3.29799
11
6.08767
21
-3.30013
0
LINE
8
BLACK
6
CONTINUOUS
10
6.08767
20
-3.30013
11
6.0898
21
-3.30332
0
LINE
8
BLACK
6
CONTINUOUS
10
6.0898
20
-3.30332
11
6.09055
21
-3.30709
0
LINE
8
BLACK
6
CONTINUOUS
10
6.09055
20
-3.30709
11
6.09055
21
-3.34252
0
LINE
8
BLACK
6
CONTINUOUS
10
6.09055
20
-3.34252
11
6.0898
21
-3.34629
0
LINE
8
BLACK
6
CONTINUOUS
10
6.0898
20
-3.34629
11
6.08767
21
-3.34948
0
LINE
8
BLACK
6
CONTINUOUS
10
6.08767
20
-3.34948
11
6.08448
21
-3.35161
0
LINE
8
BLACK
6
CONTINUOUS
10
6.08448
20
-3.35161
11
6.08071
21
-3.35236
0
LINE
8
BLACK
6
CONTINUOUS
10
6.08071
20
-3.35236
11
6.05315
21
-3.35236
0
LINE
8
BLACK
6
CONTINUOUS
10
6.05315
20
-3.35236
11
6.04938
21
-3.35161
0
LINE
8
BLACK
6
CONTINUOUS
10
6.04938
20
-3.35161
11
6.04619
21
-3.34948
0
LINE
8
BLACK
6
CONTINUOUS
10
6.04619
20
-3.34948
11
6.04406
21
-3.34629
0
LINE
8
BLACK
6
CONTINUOUS
10
6.04406
20
-3.34629
11
6.04331
21
-3.34252
0
LINE
8
BLACK
6
CONTINUOUS
10
6.04331
20
-3.34252
11
6.04331
21
-3.30709
0
LINE
8
BLACK
6
CONTINUOUS
10
6.04331
20
-3.30709
11
6.04406
21
-3.30332
0
LINE
8
BLACK
6
CONTINUOUS
10
6.04406
20
-3.30332
11
6.04619
21
-3.30013
0
LINE
8
BLACK
6
CONTINUOUS
10
6.04619
20
-3.30013
11
6.04938
21
-3.29799
0
LINE
8
BLACK
6
CONTINUOUS
10
6.04938
20
-3.29799
11
6.05315
21
-3.29724
0
LINE
8
BLACK
6
CONTINUOUS
10
6.05315
20
-3.29724
11
6.08071
21
-3.29724
0
LINE
8
BLACK
6
CONTINUOUS
10
6.08071
20
-3.29724
11
6.08448
21
-3.29799
0
LINE
8
BLACK
6
CONTINUOUS
10
5.96358
20
-3.34941
11
5.89469
21
-3.34941
0
LINE
8
BLACK
6
CONTINUOUS
10
5.89469
20
-3.34941
11
5.89469
21
-3.33169
0
LINE
8
BLACK
6
CONTINUOUS
10
5.89469
20
-3.33169
11
5.96358
21
-3.33169
0
LINE
8
BLACK
6
CONTINUOUS
10
5.96358
20
-3.33169
11
5.96358
21
-3.34941
0
LINE
8
BLACK
6
CONTINUOUS
10
5.68012
20
-3.34941
11
5.61122
21
-3.34941
0
LINE
8
BLACK
6
CONTINUOUS
10
5.61122
20
-3.34941
11
5.61122
21
-3.33169
0
LINE
8
BLACK
6
CONTINUOUS
10
5.61122
20
-3.33169
11
5.68012
21
-3.33169
0
LINE
8
BLACK
6
CONTINUOUS
10
5.68012
20
-3.33169
11
5.68012
21
-3.34941
0
LINE
8
BLACK
6
CONTINUOUS
10
6.27288
20
-3.29054
11
6.27909
21
-3.29275
0
LINE
8
BLACK
6
CONTINUOUS
10
6.27909
20
-3.29275
11
6.28464
21
-3.29628
0
LINE
8
BLACK
6
CONTINUOUS
10
6.28464
20
-3.29628
11
6.28928
21
-3.30095
0
LINE
8
BLACK
6
CONTINUOUS
10
6.28928
20
-3.30095
11
6.29277
21
-3.30653
0
LINE
8
BLACK
6
CONTINUOUS
10
6.29277
20
-3.30653
11
6.29494
21
-3.31275
0
LINE
8
BLACK
6
CONTINUOUS
10
6.29494
20
-3.31275
11
6.29567
21
-3.31929
0
LINE
8
BLACK
6
CONTINUOUS
10
6.29567
20
-3.31929
11
6.29566
21
-3.32012
0
LINE
8
BLACK
6
CONTINUOUS
10
6.29566
20
-3.32012
11
6.29474
21
-3.32663
0
LINE
8
BLACK
6
CONTINUOUS
10
6.29474
20
-3.32663
11
6.2924
21
-3.33279
0
LINE
8
BLACK
6
CONTINUOUS
10
6.2924
20
-3.33279
11
6.28876
21
-3.33827
0
LINE
8
BLACK
6
CONTINUOUS
10
6.28876
20
-3.33827
11
6.28399
21
-3.34281
0
LINE
8
BLACK
6
CONTINUOUS
10
6.28399
20
-3.34281
11
6.27834
21
-3.34618
0
LINE
8
BLACK
6
CONTINUOUS
10
6.27834
20
-3.34618
11
6.27208
21
-3.34822
0
LINE
8
BLACK
6
CONTINUOUS
10
6.27208
20
-3.34822
11
6.26552
21
-3.34881
0
LINE
8
BLACK
6
CONTINUOUS
10
6.26552
20
-3.34881
11
6.259
21
-3.34794
0
LINE
8
BLACK
6
CONTINUOUS
10
6.259
20
-3.34794
11
6.25283
21
-3.34565
0
LINE
8
BLACK
6
CONTINUOUS
10
6.25283
20
-3.34565
11
6.24732
21
-3.34204
0
LINE
8
BLACK
6
CONTINUOUS
10
6.24732
20
-3.34204
11
6.24275
21
-3.33731
0
LINE
8
BLACK
6
CONTINUOUS
10
6.24275
20
-3.33731
11
6.23934
21
-3.33168
0
LINE
8
BLACK
6
CONTINUOUS
10
6.23934
20
-3.33168
11
6.23726
21
-3.32543
0
LINE
8
BLACK
6
CONTINUOUS
10
6.23726
20
-3.32543
11
6.23662
21
-3.31888
0
LINE
8
BLACK
6
CONTINUOUS
10
6.23662
20
-3.31888
11
6.23744
21
-3.31235
0
LINE
8
BLACK
6
CONTINUOUS
10
6.23744
20
-3.31235
11
6.23969
21
-3.30616
0
LINE
8
BLACK
6
CONTINUOUS
10
6.23969
20
-3.30616
11
6.24326
21
-3.30063
0
LINE
8
BLACK
6
CONTINUOUS
10
6.24326
20
-3.30063
11
6.24796
21
-3.29602
0
LINE
8
BLACK
6
CONTINUOUS
10
6.24796
20
-3.29602
11
6.25357
21
-3.29257
0
LINE
8
BLACK
6
CONTINUOUS
10
6.25357
20
-3.29257
11
6.2598
21
-3.29045
0
LINE
8
BLACK
6
CONTINUOUS
10
6.2598
20
-3.29045
11
6.26635
21
-3.28976
0
LINE
8
BLACK
6
CONTINUOUS
10
6.26635
20
-3.28976
11
6.27288
21
-3.29054
0
LINE
8
BLACK
6
CONTINUOUS
10
4.95415
20
-3.31242
11
4.95917
21
-3.31401
0
LINE
8
BLACK
6
CONTINUOUS
10
4.95917
20
-3.31401
11
4.96351
21
-3.31701
0
LINE
8
BLACK
6
CONTINUOUS
10
4.96351
20
-3.31701
11
4.96677
21
-3.32114
0
LINE
8
BLACK
6
CONTINUOUS
10
4.96677
20
-3.32114
11
4.96867
21
-3.32606
0
LINE
8
BLACK
6
CONTINUOUS
10
4.96867
20
-3.32606
11
4.96904
21
-3.33131
0
LINE
8
BLACK
6
CONTINUOUS
10
4.96904
20
-3.33131
11
4.96785
21
-3.33644
0
LINE
8
BLACK
6
CONTINUOUS
10
4.96785
20
-3.33644
11
4.9652
21
-3.341
0
LINE
8
BLACK
6
CONTINUOUS
10
4.9652
20
-3.341
11
4.96134
21
-3.34457
0
LINE
8
BLACK
6
CONTINUOUS
10
4.96134
20
-3.34457
11
4.95659
21
-3.34685
0
LINE
8
BLACK
6
CONTINUOUS
10
4.95659
20
-3.34685
11
4.95138
21
-3.34764
0
LINE
8
BLACK
6
CONTINUOUS
10
4.95138
20
-3.34764
11
4.90807
21
-3.34764
0
LINE
8
BLACK
6
CONTINUOUS
10
4.90807
20
-3.34764
11
4.9053
21
-3.34742
0
LINE
8
BLACK
6
CONTINUOUS
10
4.9053
20
-3.34742
11
4.90028
21
-3.34583
0
LINE
8
BLACK
6
CONTINUOUS
10
4.90028
20
-3.34583
11
4.89594
21
-3.34284
0
LINE
8
BLACK
6
CONTINUOUS
10
4.89594
20
-3.34284
11
4.89268
21
-3.3387
0
LINE
8
BLACK
6
CONTINUOUS
10
4.89268
20
-3.3387
11
4.89078
21
-3.33379
0
LINE
8
BLACK
6
CONTINUOUS
10
4.89078
20
-3.33379
11
4.89041
21
-3.32853
0
LINE
8
BLACK
6
CONTINUOUS
10
4.89041
20
-3.32853
11
4.8916
21
-3.3234
0
LINE
8
BLACK
6
CONTINUOUS
10
4.8916
20
-3.3234
11
4.89424
21
-3.31884
0
LINE
8
BLACK
6
CONTINUOUS
10
4.89424
20
-3.31884
11
4.89811
21
-3.31527
0
LINE
8
BLACK
6
CONTINUOUS
10
4.89811
20
-3.31527
11
4.90286
21
-3.31299
0
LINE
8
BLACK
6
CONTINUOUS
10
4.90286
20
-3.31299
11
4.90807
21
-3.3122
0
LINE
8
BLACK
6
CONTINUOUS
10
4.90807
20
-3.3122
11
4.95138
21
-3.3122
0
LINE
8
BLACK
6
CONTINUOUS
10
4.95138
20
-3.3122
11
4.95415
21
-3.31242
0
LINE
8
BLACK
6
CONTINUOUS
10
5.12029
20
-3.31242
11
5.12531
21
-3.31401
0
LINE
8
BLACK
6
CONTINUOUS
10
5.12531
20
-3.31401
11
5.12965
21
-3.31701
0
LINE
8
BLACK
6
CONTINUOUS
10
5.12965
20
-3.31701
11
5.13291
21
-3.32114
0
LINE
8
BLACK
6
CONTINUOUS
10
5.13291
20
-3.32114
11
5.13481
21
-3.32606
0
LINE
8
BLACK
6
CONTINUOUS
10
5.13481
20
-3.32606
11
5.13518
21
-3.33131
0
LINE
8
BLACK
6
CONTINUOUS
10
5.13518
20
-3.33131
11
5.13399
21
-3.33644
0
LINE
8
BLACK
6
CONTINUOUS
10
5.13399
20
-3.33644
11
5.13135
21
-3.341
0
LINE
8
BLACK
6
CONTINUOUS
10
5.13135
20
-3.341
11
5.12748
21
-3.34457
0
LINE
8
BLACK
6
CONTINUOUS
10
5.12748
20
-3.34457
11
5.12273
21
-3.34685
0
LINE
8
BLACK
6
CONTINUOUS
10
5.12273
20
-3.34685
11
5.11752
21
-3.34764
0
LINE
8
BLACK
6
CONTINUOUS
10
5.11752
20
-3.34764
11
5.07028
21
-3.34764
0
LINE
8
BLACK
6
CONTINUOUS
10
5.07028
20
-3.34764
11
5.0675
21
-3.34742
0
LINE
8
BLACK
6
CONTINUOUS
10
5.0675
20
-3.34742
11
5.06248
21
-3.34583
0
LINE
8
BLACK
6
CONTINUOUS
10
5.06248
20
-3.34583
11
5.05815
21
-3.34284
0
LINE
8
BLACK
6
CONTINUOUS
10
5.05815
20
-3.34284
11
5.05489
21
-3.3387
0
LINE
8
BLACK
6
CONTINUOUS
10
5.05489
20
-3.3387
11
5.05299
21
-3.33379
0
LINE
8
BLACK
6
CONTINUOUS
10
5.05299
20
-3.33379
11
5.05261
21
-3.32853
0
LINE
8
BLACK
6
CONTINUOUS
10
5.05261
20
-3.32853
11
5.0538
21
-3.3234
0
LINE
8
BLACK
6
CONTINUOUS
10
5.0538
20
-3.3234
11
5.05645
21
-3.31884
0
LINE
8
BLACK
6
CONTINUOUS
10
5.05645
20
-3.31884
11
5.06032
21
-3.31527
0
LINE
8
BLACK
6
CONTINUOUS
10
5.06032
20
-3.31527
11
5.06507
21
-3.31299
0
LINE
8
BLACK
6
CONTINUOUS
10
5.06507
20
-3.31299
11
5.07028
21
-3.3122
0
LINE
8
BLACK
6
CONTINUOUS
10
5.07028
20
-3.3122
11
5.11752
21
-3.3122
0
LINE
8
BLACK
6
CONTINUOUS
10
5.11752
20
-3.3122
11
5.12029
21
-3.31242
0
LINE
8
BLACK
6
CONTINUOUS
10
6.6224
20
-3.19771
11
6.63291
21
-3.19943
0
LINE
8
BLACK
6
CONTINUOUS
10
6.63291
20
-3.19943
11
6.64306
21
-3.20267
0
LINE
8
BLACK
6
CONTINUOUS
10
6.64306
20
-3.20267
11
6.65261
21
-3.20738
0
LINE
8
BLACK
6
CONTINUOUS
10
6.65261
20
-3.20738
11
6.66136
21
-3.21345
0
LINE
8
BLACK
6
CONTINUOUS
10
6.66136
20
-3.21345
11
6.66912
21
-3.22075
0
LINE
8
BLACK
6
CONTINUOUS
10
6.66912
20
-3.22075
11
6.67571
21
-3.22911
0
LINE
8
BLACK
6
CONTINUOUS
10
6.67571
20
-3.22911
11
6.68099
21
-3.23836
0
LINE
8
BLACK
6
CONTINUOUS
10
6.68099
20
-3.23836
11
6.68485
21
-3.24828
0
LINE
8
BLACK
6
CONTINUOUS
10
6.68485
20
-3.24828
11
6.6872
21
-3.25867
0
LINE
8
BLACK
6
CONTINUOUS
10
6.6872
20
-3.25867
11
6.68799
21
-3.26929
0
LINE
8
BLACK
6
CONTINUOUS
10
6.68799
20
-3.26929
11
6.68789
21
-3.27305
0
LINE
8
BLACK
6
CONTINUOUS
10
6.68789
20
-3.27305
11
6.68655
21
-3.28362
0
LINE
8
BLACK
6
CONTINUOUS
10
6.68655
20
-3.28362
11
6.68366
21
-3.29387
0
LINE
8
BLACK
6
CONTINUOUS
10
6.68366
20
-3.29387
11
6.67929
21
-3.30358
0
LINE
8
BLACK
6
CONTINUOUS
10
6.67929
20
-3.30358
11
6.67352
21
-3.31253
0
LINE
8
BLACK
6
CONTINUOUS
10
6.67352
20
-3.31253
11
6.6665
21
-3.32054
0
LINE
8
BLACK
6
CONTINUOUS
10
6.6665
20
-3.32054
11
6.65837
21
-3.32742
0
LINE
8
BLACK
6
CONTINUOUS
10
6.65837
20
-3.32742
11
6.64932
21
-3.33302
0
LINE
8
BLACK
6
CONTINUOUS
10
6.64932
20
-3.33302
11
6.63953
21
-3.33723
0
LINE
8
BLACK
6
CONTINUOUS
10
6.63953
20
-3.33723
11
6.62924
21
-3.33994
0
LINE
8
BLACK
6
CONTINUOUS
10
6.62924
20
-3.33994
11
6.61865
21
-3.3411
0
LINE
8
BLACK
6
CONTINUOUS
10
6.61865
20
-3.3411
11
6.60801
21
-3.34068
0
LINE
8
BLACK
6
CONTINUOUS
10
6.60801
20
-3.34068
11
6.59755
21
-3.33869
0
LINE
8
BLACK
6
CONTINUOUS
10
6.59755
20
-3.33869
11
6.58749
21
-3.33518
0
LINE
8
BLACK
6
CONTINUOUS
10
6.58749
20
-3.33518
11
6.57807
21
-3.33022
0
LINE
8
BLACK
6
CONTINUOUS
10
6.57807
20
-3.33022
11
6.56948
21
-3.32393
0
LINE
8
BLACK
6
CONTINUOUS
10
6.56948
20
-3.32393
11
6.56192
21
-3.31643
0
LINE
8
BLACK
6
CONTINUOUS
10
6.56192
20
-3.31643
11
6.55554
21
-3.3079
0
LINE
8
BLACK
6
CONTINUOUS
10
6.55554
20
-3.3079
11
6.5505
21
-3.29852
0
LINE
8
BLACK
6
CONTINUOUS
10
6.5505
20
-3.29852
11
6.5469
21
-3.28849
0
LINE
8
BLACK
6
CONTINUOUS
10
6.5469
20
-3.28849
11
6.54483
21
-3.27805
0
LINE
8
BLACK
6
CONTINUOUS
10
6.54483
20
-3.27805
11
6.54432
21
-3.26741
0
LINE
8
BLACK
6
CONTINUOUS
10
6.54432
20
-3.26741
11
6.54538
21
-3.25681
0
LINE
8
BLACK
6
CONTINUOUS
10
6.54538
20
-3.25681
11
6.548
21
-3.24649
0
LINE
8
BLACK
6
CONTINUOUS
10
6.548
20
-3.24649
11
6.55212
21
-3.23667
0
LINE
8
BLACK
6
CONTINUOUS
10
6.55212
20
-3.23667
11
6.55765
21
-3.22757
0
LINE
8
BLACK
6
CONTINUOUS
10
6.55765
20
-3.22757
11
6.56446
21
-3.21938
0
LINE
8
BLACK
6
CONTINUOUS
10
6.56446
20
-3.21938
11
6.5724
21
-3.21229
0
LINE
8
BLACK
6
CONTINUOUS
10
6.5724
20
-3.21229
11
6.58131
21
-3.20645
0
LINE
8
BLACK
6
CONTINUOUS
10
6.58131
20
-3.20645
11
6.59098
21
-3.20199
0
LINE
8
BLACK
6
CONTINUOUS
10
6.59098
20
-3.20199
11
6.6012
21
-3.19901
0
LINE
8
BLACK
6
CONTINUOUS
10
6.6012
20
-3.19901
11
6.61176
21
-3.19757
0
LINE
8
BLACK
6
CONTINUOUS
10
6.61176
20
-3.19757
11
6.6224
21
-3.19771
0
LINE
8
BLACK
6
CONTINUOUS
10
5.68012
20
-3.32382
11
5.61122
21
-3.32382
0
LINE
8
BLACK
6
CONTINUOUS
10
5.61122
20
-3.32382
11
5.61122
21
-3.3061
0
LINE
8
BLACK
6
CONTINUOUS
10
5.61122
20
-3.3061
11
5.68012
21
-3.3061
0
LINE
8
BLACK
6
CONTINUOUS
10
5.68012
20
-3.3061
11
5.68012
21
-3.32382
0
LINE
8
BLACK
6
CONTINUOUS
10
5.96358
20
-3.32382
11
5.89469
21
-3.32382
0
LINE
8
BLACK
6
CONTINUOUS
10
5.89469
20
-3.32382
11
5.89469
21
-3.3061
0
LINE
8
BLACK
6
CONTINUOUS
10
5.89469
20
-3.3061
11
5.96358
21
-3.3061
0
LINE
8
BLACK
6
CONTINUOUS
10
5.96358
20
-3.3061
11
5.96358
21
-3.32382
0
LINE
8
BLACK
6
CONTINUOUS
10
5.43247
20
-3.26262
11
5.43566
21
-3.26475
0
LINE
8
BLACK
6
CONTINUOUS
10
5.43566
20
-3.26475
11
5.43779
21
-3.26795
0
LINE
8
BLACK
6
CONTINUOUS
10
5.43779
20
-3.26795
11
5.43854
21
-3.27171
0
LINE
8
BLACK
6
CONTINUOUS
10
5.43854
20
-3.27171
11
5.43854
21
-3.29829
0
LINE
8
BLACK
6
CONTINUOUS
10
5.43854
20
-3.29829
11
5.43779
21
-3.30205
0
LINE
8
BLACK
6
CONTINUOUS
10
5.43779
20
-3.30205
11
5.43566
21
-3.30525
0
LINE
8
BLACK
6
CONTINUOUS
10
5.43566
20
-3.30525
11
5.43247
21
-3.30738
0
LINE
8
BLACK
6
CONTINUOUS
10
5.43247
20
-3.30738
11
5.4287
21
-3.30813
0
LINE
8
BLACK
6
CONTINUOUS
10
5.4287
20
-3.30813
11
5.3913
21
-3.30813
0
LINE
8
BLACK
6
CONTINUOUS
10
5.3913
20
-3.30813
11
5.38753
21
-3.30738
0
LINE
8
BLACK
6
CONTINUOUS
10
5.38753
20
-3.30738
11
5.38434
21
-3.30525
0
LINE
8
BLACK
6
CONTINUOUS
10
5.38434
20
-3.30525
11
5.38221
21
-3.30205
0
LINE
8
BLACK
6
CONTINUOUS
10
5.38221
20
-3.30205
11
5.38146
21
-3.29829
0
LINE
8
BLACK
6
CONTINUOUS
10
5.38146
20
-3.29829
11
5.38146
21
-3.27171
0
LINE
8
BLACK
6
CONTINUOUS
10
5.38146
20
-3.27171
11
5.38221
21
-3.26795
0
LINE
8
BLACK
6
CONTINUOUS
10
5.38221
20
-3.26795
11
5.38434
21
-3.26475
0
LINE
8
BLACK
6
CONTINUOUS
10
5.38434
20
-3.26475
11
5.38753
21
-3.26262
0
LINE
8
BLACK
6
CONTINUOUS
10
5.38753
20
-3.26262
11
5.3913
21
-3.26187
0
LINE
8
BLACK
6
CONTINUOUS
10
5.3913
20
-3.26187
11
5.4287
21
-3.26187
0
LINE
8
BLACK
6
CONTINUOUS
10
5.4287
20
-3.26187
11
5.43247
21
-3.26262
0
LINE
8
BLACK
6
CONTINUOUS
10
5.32938
20
-3.26262
11
5.33257
21
-3.26475
0
LINE
8
BLACK
6
CONTINUOUS
10
5.33257
20
-3.26475
11
5.3347
21
-3.26795
0
LINE
8
BLACK
6
CONTINUOUS
10
5.3347
20
-3.26795
11
5.33545
21
-3.27171
0
LINE
8
BLACK
6
CONTINUOUS
10
5.33545
20
-3.27171
11
5.33545
21
-3.29829
0
LINE
8
BLACK
6
CONTINUOUS
10
5.33545
20
-3.29829
11
5.3347
21
-3.30205
0
LINE
8
BLACK
6
CONTINUOUS
10
5.3347
20
-3.30205
11
5.33257
21
-3.30525
0
LINE
8
BLACK
6
CONTINUOUS
10
5.33257
20
-3.30525
11
5.32938
21
-3.30738
0
LINE
8
BLACK
6
CONTINUOUS
10
5.32938
20
-3.30738
11
5.32561
21
-3.30813
0
LINE
8
BLACK
6
CONTINUOUS
10
5.32561
20
-3.30813
11
5.28821
21
-3.30813
0
LINE
8
BLACK
6
CONTINUOUS
10
5.28821
20
-3.30813
11
5.28444
21
-3.30738
0
LINE
8
BLACK
6
CONTINUOUS
10
5.28444
20
-3.30738
11
5.28125
21
-3.30525
0
LINE
8
BLACK
6
CONTINUOUS
10
5.28125
20
-3.30525
11
5.27912
21
-3.30205
0
LINE
8
BLACK
6
CONTINUOUS
10
5.27912
20
-3.30205
11
5.27837
21
-3.29829
0
LINE
8
BLACK
6
CONTINUOUS
10
5.27837
20
-3.29829
11
5.27837
21
-3.27171
0
LINE
8
BLACK
6
CONTINUOUS
10
5.27837
20
-3.27171
11
5.27912
21
-3.26795
0
LINE
8
BLACK
6
CONTINUOUS
10
5.27912
20
-3.26795
11
5.28125
21
-3.26475
0
LINE
8
BLACK
6
CONTINUOUS
10
5.28125
20
-3.26475
11
5.28444
21
-3.26262
0
LINE
8
BLACK
6
CONTINUOUS
10
5.28444
20
-3.26262
11
5.28821
21
-3.26187
0
LINE
8
BLACK
6
CONTINUOUS
10
5.28821
20
-3.26187
11
5.32561
21
-3.26187
0
LINE
8
BLACK
6
CONTINUOUS
10
5.32561
20
-3.26187
11
5.32938
21
-3.26262
0
LINE
8
BLACK
6
CONTINUOUS
10
5.22648
20
-3.26065
11
5.22968
21
-3.26278
0
LINE
8
BLACK
6
CONTINUOUS
10
5.22968
20
-3.26278
11
5.23181
21
-3.26598
0
LINE
8
BLACK
6
CONTINUOUS
10
5.23181
20
-3.26598
11
5.23256
21
-3.26974
0
LINE
8
BLACK
6
CONTINUOUS
10
5.23256
20
-3.26974
11
5.23256
21
-3.2973
0
LINE
8
BLACK
6
CONTINUOUS
10
5.23256
20
-3.2973
11
5.23181
21
-3.30107
0
LINE
8
BLACK
6
CONTINUOUS
10
5.23181
20
-3.30107
11
5.22968
21
-3.30426
0
LINE
8
BLACK
6
CONTINUOUS
10
5.22968
20
-3.30426
11
5.22648
21
-3.3064
0
LINE
8
BLACK
6
CONTINUOUS
10
5.22648
20
-3.3064
11
5.22272
21
-3.30715
0
LINE
8
BLACK
6
CONTINUOUS
10
5.22272
20
-3.30715
11
5.18728
21
-3.30715
0
LINE
8
BLACK
6
CONTINUOUS
10
5.18728
20
-3.30715
11
5.18352
21
-3.3064
0
LINE
8
BLACK
6
CONTINUOUS
10
5.18352
20
-3.3064
11
5.18032
21
-3.30426
0
LINE
8
BLACK
6
CONTINUOUS
10
5.18032
20
-3.30426
11
5.17819
21
-3.30107
0
LINE
8
BLACK
6
CONTINUOUS
10
5.17819
20
-3.30107
11
5.17744
21
-3.2973
0
LINE
8
BLACK
6
CONTINUOUS
10
5.17744
20
-3.2973
11
5.17744
21
-3.26974
0
LINE
8
BLACK
6
CONTINUOUS
10
5.17744
20
-3.26974
11
5.17819
21
-3.26598
0
LINE
8
BLACK
6
CONTINUOUS
10
5.17819
20
-3.26598
11
5.18032
21
-3.26278
0
LINE
8
BLACK
6
CONTINUOUS
10
5.18032
20
-3.26278
11
5.18352
21
-3.26065
0
LINE
8
BLACK
6
CONTINUOUS
10
5.18352
20
-3.26065
11
5.18728
21
-3.2599
0
LINE
8
BLACK
6
CONTINUOUS
10
5.18728
20
-3.2599
11
5.22272
21
-3.2599
0
LINE
8
BLACK
6
CONTINUOUS
10
5.22272
20
-3.2599
11
5.22648
21
-3.26065
0
LINE
8
BLACK
6
CONTINUOUS
10
5.68012
20
-3.29823
11
5.61122
21
-3.29823
0
LINE
8
BLACK
6
CONTINUOUS
10
5.61122
20
-3.29823
11
5.61122
21
-3.28051
0
LINE
8
BLACK
6
CONTINUOUS
10
5.61122
20
-3.28051
11
5.68012
21
-3.28051
0
LINE
8
BLACK
6
CONTINUOUS
10
5.68012
20
-3.28051
11
5.68012
21
-3.29823
0
LINE
8
BLACK
6
CONTINUOUS
10
5.96358
20
-3.29823
11
5.89469
21
-3.29823
0
LINE
8
BLACK
6
CONTINUOUS
10
5.89469
20
-3.29823
11
5.89469
21
-3.28051
0
LINE
8
BLACK
6
CONTINUOUS
10
5.89469
20
-3.28051
11
5.96358
21
-3.28051
0
LINE
8
BLACK
6
CONTINUOUS
10
5.96358
20
-3.28051
11
5.96358
21
-3.29823
0
LINE
8
BLACK
6
CONTINUOUS
10
5.68012
20
-3.27264
11
5.61122
21
-3.27264
0
LINE
8
BLACK
6
CONTINUOUS
10
5.61122
20
-3.27264
11
5.61122
21
-3.25492
0
LINE
8
BLACK
6
CONTINUOUS
10
5.61122
20
-3.25492
11
5.68012
21
-3.25492
0
LINE
8
BLACK
6
CONTINUOUS
10
5.68012
20
-3.25492
11
5.68012
21
-3.27264
0
LINE
8
BLACK
6
CONTINUOUS
10
5.96358
20
-3.27264
11
5.89469
21
-3.27264
0
LINE
8
BLACK
6
CONTINUOUS
10
5.89469
20
-3.27264
11
5.89469
21
-3.25492
0
LINE
8
BLACK
6
CONTINUOUS
10
5.89469
20
-3.25492
11
5.96358
21
-3.25492
0
LINE
8
BLACK
6
CONTINUOUS
10
5.96358
20
-3.25492
11
5.96358
21
-3.27264
0
LINE
8
BLACK
6
CONTINUOUS
10
6.1015
20
-3.16315
11
6.10827
21
-3.16616
0
LINE
8
BLACK
6
CONTINUOUS
10
6.10827
20
-3.16616
11
6.11426
21
-3.17052
0
LINE
8
BLACK
6
CONTINUOUS
10
6.11426
20
-3.17052
11
6.11922
21
-3.17602
0
LINE
8
BLACK
6
CONTINUOUS
10
6.11922
20
-3.17602
11
6.12292
21
-3.18244
0
LINE
8
BLACK
6
CONTINUOUS
10
6.12292
20
-3.18244
11
6.12521
21
-3.18948
0
LINE
8
BLACK
6
CONTINUOUS
10
6.12521
20
-3.18948
11
6.12598
21
-3.19685
0
LINE
8
BLACK
6
CONTINUOUS
10
6.12598
20
-3.19685
11
6.12598
21
-3.22047
0
LINE
8
BLACK
6
CONTINUOUS
10
6.12598
20
-3.22047
11
6.12521
21
-3.22784
0
LINE
8
BLACK
6
CONTINUOUS
10
6.12521
20
-3.22784
11
6.12292
21
-3.23488
0
LINE
8
BLACK
6
CONTINUOUS
10
6.12292
20
-3.23488
11
6.11922
21
-3.2413
0
LINE
8
BLACK
6
CONTINUOUS
10
6.11922
20
-3.2413
11
6.11426
21
-3.2468
0
LINE
8
BLACK
6
CONTINUOUS
10
6.11426
20
-3.2468
11
6.10827
21
-3.25116
0
LINE
8
BLACK
6
CONTINUOUS
10
6.10827
20
-3.25116
11
6.1015
21
-3.25417
0
LINE
8
BLACK
6
CONTINUOUS
10
6.1015
20
-3.25417
11
6.09425
21
-3.25571
0
LINE
8
BLACK
6
CONTINUOUS
10
6.09425
20
-3.25571
11
6.08685
21
-3.25571
0
LINE
8
BLACK
6
CONTINUOUS
10
6.08685
20
-3.25571
11
6.0796
21
-3.25417
0
LINE
8
BLACK
6
CONTINUOUS
10
6.0796
20
-3.25417
11
6.07283
21
-3.25116
0
LINE
8
BLACK
6
CONTINUOUS
10
6.07283
20
-3.25116
11
6.06684
21
-3.2468
0
LINE
8
BLACK
6
CONTINUOUS
10
6.06684
20
-3.2468
11
6.06189
21
-3.2413
0
LINE
8
BLACK
6
CONTINUOUS
10
6.06189
20
-3.2413
11
6.05818
21
-3.23488
0
LINE
8
BLACK
6
CONTINUOUS
10
6.05818
20
-3.23488
11
6.05589
21
-3.22784
0
LINE
8
BLACK
6
CONTINUOUS
10
6.05589
20
-3.22784
11
6.05512
21
-3.22047
0
LINE
8
BLACK
6
CONTINUOUS
10
6.05512
20
-3.22047
11
6.05512
21
-3.19685
0
LINE
8
BLACK
6
CONTINUOUS
10
6.05512
20
-3.19685
11
6.05589
21
-3.18948
0
LINE
8
BLACK
6
CONTINUOUS
10
6.05589
20
-3.18948
11
6.05818
21
-3.18244
0
LINE
8
BLACK
6
CONTINUOUS
10
6.05818
20
-3.18244
11
6.06189
21
-3.17602
0
LINE
8
BLACK
6
CONTINUOUS
10
6.06189
20
-3.17602
11
6.06684
21
-3.17052
0
LINE
8
BLACK
6
CONTINUOUS
10
6.06684
20
-3.17052
11
6.07283
21
-3.16616
0
LINE
8
BLACK
6
CONTINUOUS
10
6.07283
20
-3.16616
11
6.0796
21
-3.16315
0
LINE
8
BLACK
6
CONTINUOUS
10
6.0796
20
-3.16315
11
6.08685
21
-3.16161
0
LINE
8
BLACK
6
CONTINUOUS
10
6.08685
20
-3.16161
11
6.09425
21
-3.16161
0
LINE
8
BLACK
6
CONTINUOUS
10
6.09425
20
-3.16161
11
6.1015
21
-3.16315
0
LINE
8
BLACK
6
CONTINUOUS
10
5.05819
20
-3.16315
11
5.06496
21
-3.16616
0
LINE
8
BLACK
6
CONTINUOUS
10
5.06496
20
-3.16616
11
5.07095
21
-3.17052
0
LINE
8
BLACK
6
CONTINUOUS
10
5.07095
20
-3.17052
11
5.07591
21
-3.17602
0
LINE
8
BLACK
6
CONTINUOUS
10
5.07591
20
-3.17602
11
5.07961
21
-3.18244
0
LINE
8
BLACK
6
CONTINUOUS
10
5.07961
20
-3.18244
11
5.0819
21
-3.18948
0
LINE
8
BLACK
6
CONTINUOUS
10
5.0819
20
-3.18948
11
5.08268
21
-3.19685
0
LINE
8
BLACK
6
CONTINUOUS
10
5.08268
20
-3.19685
11
5.08268
21
-3.22047
0
LINE
8
BLACK
6
CONTINUOUS
10
5.08268
20
-3.22047
11
5.0819
21
-3.22784
0
LINE
8
BLACK
6
CONTINUOUS
10
5.0819
20
-3.22784
11
5.07961
21
-3.23488
0
LINE
8
BLACK
6
CONTINUOUS
10
5.07961
20
-3.23488
11
5.07591
21
-3.2413
0
LINE
8
BLACK
6
CONTINUOUS
10
5.07591
20
-3.2413
11
5.07095
21
-3.2468
0
LINE
8
BLACK
6
CONTINUOUS
10
5.07095
20
-3.2468
11
5.06496
21
-3.25116
0
LINE
8
BLACK
6
CONTINUOUS
10
5.06496
20
-3.25116
11
5.05819
21
-3.25417
0
LINE
8
BLACK
6
CONTINUOUS
10
5.05819
20
-3.25417
11
5.05095
21
-3.25571
0
LINE
8
BLACK
6
CONTINUOUS
10
5.05095
20
-3.25571
11
5.04354
21
-3.25571
0
LINE
8
BLACK
6
CONTINUOUS
10
5.04354
20
-3.25571
11
5.03629
21
-3.25417
0
LINE
8
BLACK
6
CONTINUOUS
10
5.03629
20
-3.25417
11
5.02953
21
-3.25116
0
LINE
8
BLACK
6
CONTINUOUS
10
5.02953
20
-3.25116
11
5.02353
21
-3.2468
0
LINE
8
BLACK
6
CONTINUOUS
10
5.02353
20
-3.2468
11
5.01858
21
-3.2413
0
LINE
8
BLACK
6
CONTINUOUS
10
5.01858
20
-3.2413
11
5.01487
21
-3.23488
0
LINE
8
BLACK
6
CONTINUOUS
10
5.01487
20
-3.23488
11
5.01259
21
-3.22784
0
LINE
8
BLACK
6
CONTINUOUS
10
5.01259
20
-3.22784
11
5.01181
21
-3.22047
0
LINE
8
BLACK
6
CONTINUOUS
10
5.01181
20
-3.22047
11
5.01181
21
-3.19685
0
LINE
8
BLACK
6
CONTINUOUS
10
5.01181
20
-3.19685
11
5.01259
21
-3.18948
0
LINE
8
BLACK
6
CONTINUOUS
10
5.01259
20
-3.18948
11
5.01487
21
-3.18244
0
LINE
8
BLACK
6
CONTINUOUS
10
5.01487
20
-3.18244
11
5.01858
21
-3.17602
0
LINE
8
BLACK
6
CONTINUOUS
10
5.01858
20
-3.17602
11
5.02353
21
-3.17052
0
LINE
8
BLACK
6
CONTINUOUS
10
5.02353
20
-3.17052
11
5.02953
21
-3.16616
0
LINE
8
BLACK
6
CONTINUOUS
10
5.02953
20
-3.16616
11
5.03629
21
-3.16315
0
LINE
8
BLACK
6
CONTINUOUS
10
5.03629
20
-3.16315
11
5.04354
21
-3.16161
0
LINE
8
BLACK
6
CONTINUOUS
10
5.04354
20
-3.16161
11
5.05095
21
-3.16161
0
LINE
8
BLACK
6
CONTINUOUS
10
5.05095
20
-3.16161
11
5.05819
21
-3.16315
0
LINE
8
BLACK
6
CONTINUOUS
10
5.96358
20
-3.24705
11
5.89469
21
-3.24705
0
LINE
8
BLACK
6
CONTINUOUS
10
5.89469
20
-3.24705
11
5.89469
21
-3.22933
0
LINE
8
BLACK
6
CONTINUOUS
10
5.89469
20
-3.22933
11
5.96358
21
-3.22933
0
LINE
8
BLACK
6
CONTINUOUS
10
5.96358
20
-3.22933
11
5.96358
21
-3.24705
0
LINE
8
BLACK
6
CONTINUOUS
10
5.68012
20
-3.24705
11
5.61122
21
-3.24705
0
LINE
8
BLACK
6
CONTINUOUS
10
5.61122
20
-3.24705
11
5.61122
21
-3.22933
0
LINE
8
BLACK
6
CONTINUOUS
10
5.61122
20
-3.22933
11
5.68012
21
-3.22933
0
LINE
8
BLACK
6
CONTINUOUS
10
5.68012
20
-3.22933
11
5.68012
21
-3.24705
0
LINE
8
BLACK
6
CONTINUOUS
10
6.16566
20
-3.17478
11
6.16808
21
-3.1764
0
LINE
8
BLACK
6
CONTINUOUS
10
6.16808
20
-3.1764
11
6.16971
21
-3.17883
0
LINE
8
BLACK
6
CONTINUOUS
10
6.16971
20
-3.17883
11
6.17028
21
-3.18169
0
LINE
8
BLACK
6
CONTINUOUS
10
6.17028
20
-3.18169
11
6.17028
21
-3.23563
0
LINE
8
BLACK
6
CONTINUOUS
10
6.17028
20
-3.23563
11
6.16971
21
-3.23849
0
LINE
8
BLACK
6
CONTINUOUS
10
6.16971
20
-3.23849
11
6.16808
21
-3.24092
0
LINE
8
BLACK
6
CONTINUOUS
10
6.16808
20
-3.24092
11
6.16566
21
-3.24254
0
LINE
8
BLACK
6
CONTINUOUS
10
6.16566
20
-3.24254
11
6.1628
21
-3.24311
0
LINE
8
BLACK
6
CONTINUOUS
10
6.1628
20
-3.24311
11
6.14035
21
-3.24311
0
LINE
8
BLACK
6
CONTINUOUS
10
6.14035
20
-3.24311
11
6.13749
21
-3.24254
0
LINE
8
BLACK
6
CONTINUOUS
10
6.13749
20
-3.24254
11
6.13506
21
-3.24092
0
LINE
8
BLACK
6
CONTINUOUS
10
6.13506
20
-3.24092
11
6.13344
21
-3.23849
0
LINE
8
BLACK
6
CONTINUOUS
10
6.13344
20
-3.23849
11
6.13287
21
-3.23563
0
LINE
8
BLACK
6
CONTINUOUS
10
6.13287
20
-3.23563
11
6.13287
21
-3.18169
0
LINE
8
BLACK
6
CONTINUOUS
10
6.13287
20
-3.18169
11
6.13344
21
-3.17883
0
LINE
8
BLACK
6
CONTINUOUS
10
6.13344
20
-3.17883
11
6.13506
21
-3.1764
0
LINE
8
BLACK
6
CONTINUOUS
10
6.13506
20
-3.1764
11
6.13749
21
-3.17478
0
LINE
8
BLACK
6
CONTINUOUS
10
6.13749
20
-3.17478
11
6.14035
21
-3.17421
0
LINE
8
BLACK
6
CONTINUOUS
10
6.14035
20
-3.17421
11
6.1628
21
-3.17421
0
LINE
8
BLACK
6
CONTINUOUS
10
6.1628
20
-3.17421
11
6.16566
21
-3.17478
0
LINE
8
BLACK
6
CONTINUOUS
10
5.0003
20
-3.17478
11
5.00273
21
-3.1764
0
LINE
8
BLACK
6
CONTINUOUS
10
5.00273
20
-3.1764
11
5.00435
21
-3.17883
0
LINE
8
BLACK
6
CONTINUOUS
10
5.00435
20
-3.17883
11
5.00492
21
-3.18169
0
LINE
8
BLACK
6
CONTINUOUS
10
5.00492
20
-3.18169
11
5.00492
21
-3.23563
0
LINE
8
BLACK
6
CONTINUOUS
10
5.00492
20
-3.23563
11
5.00435
21
-3.23849
0
LINE
8
BLACK
6
CONTINUOUS
10
5.00435
20
-3.23849
11
5.00273
21
-3.24092
0
LINE
8
BLACK
6
CONTINUOUS
10
5.00273
20
-3.24092
11
5.0003
21
-3.24254
0
LINE
8
BLACK
6
CONTINUOUS
10
5.0003
20
-3.24254
11
4.99744
21
-3.24311
0
LINE
8
BLACK
6
CONTINUOUS
10
4.99744
20
-3.24311
11
4.975
21
-3.24311
0
LINE
8
BLACK
6
CONTINUOUS
10
4.975
20
-3.24311
11
4.97214
21
-3.24254
0
LINE
8
BLACK
6
CONTINUOUS
10
4.97214
20
-3.24254
11
4.96971
21
-3.24092
0
LINE
8
BLACK
6
CONTINUOUS
10
4.96971
20
-3.24092
11
4.96809
21
-3.23849
0
LINE
8
BLACK
6
CONTINUOUS
10
4.96809
20
-3.23849
11
4.96752
21
-3.23563
0
LINE
8
BLACK
6
CONTINUOUS
10
4.96752
20
-3.23563
11
4.96752
21
-3.18169
0
LINE
8
BLACK
6
CONTINUOUS
10
4.96752
20
-3.18169
11
4.96809
21
-3.17883
0
LINE
8
BLACK
6
CONTINUOUS
10
4.96809
20
-3.17883
11
4.96971
21
-3.1764
0
LINE
8
BLACK
6
CONTINUOUS
10
4.96971
20
-3.1764
11
4.97214
21
-3.17478
0
LINE
8
BLACK
6
CONTINUOUS
10
4.97214
20
-3.17478
11
4.975
21
-3.17421
0
LINE
8
BLACK
6
CONTINUOUS
10
4.975
20
-3.17421
11
4.99744
21
-3.17421
0
LINE
8
BLACK
6
CONTINUOUS
10
4.99744
20
-3.17421
11
5.0003
21
-3.17478
0
LINE
8
BLACK
6
CONTINUOUS
10
5.12235
20
-3.17478
11
5.12478
21
-3.1764
0
LINE
8
BLACK
6
CONTINUOUS
10
5.12478
20
-3.1764
11
5.1264
21
-3.17883
0
LINE
8
BLACK
6
CONTINUOUS
10
5.1264
20
-3.17883
11
5.12697
21
-3.18169
0
LINE
8
BLACK
6
CONTINUOUS
10
5.12697
20
-3.18169
11
5.12697
21
-3.23563
0
LINE
8
BLACK
6
CONTINUOUS
10
5.12697
20
-3.23563
11
5.1264
21
-3.23849
0
LINE
8
BLACK
6
CONTINUOUS
10
5.1264
20
-3.23849
11
5.12478
21
-3.24092
0
LINE
8
BLACK
6
CONTINUOUS
10
5.12478
20
-3.24092
11
5.12235
21
-3.24254
0
LINE
8
BLACK
6
CONTINUOUS
10
5.12235
20
-3.24254
11
5.11949
21
-3.24311
0
LINE
8
BLACK
6
CONTINUOUS
10
5.11949
20
-3.24311
11
5.09705
21
-3.24311
0
LINE
8
BLACK
6
CONTINUOUS
10
5.09705
20
-3.24311
11
5.09418
21
-3.24254
0
LINE
8
BLACK
6
CONTINUOUS
10
5.09418
20
-3.24254
11
5.09176
21
-3.24092
0
LINE
8
BLACK
6
CONTINUOUS
10
5.09176
20
-3.24092
11
5.09014
21
-3.23849
0
LINE
8
BLACK
6
CONTINUOUS
10
5.09014
20
-3.23849
11
5.08957
21
-3.23563
0
LINE
8
BLACK
6
CONTINUOUS
10
5.08957
20
-3.23563
11
5.08957
21
-3.18169
0
LINE
8
BLACK
6
CONTINUOUS
10
5.08957
20
-3.18169
11
5.09014
21
-3.17883
0
LINE
8
BLACK
6
CONTINUOUS
10
5.09014
20
-3.17883
11
5.09176
21
-3.1764
0
LINE
8
BLACK
6
CONTINUOUS
10
5.09176
20
-3.1764
11
5.09418
21
-3.17478
0
LINE
8
BLACK
6
CONTINUOUS
10
5.09418
20
-3.17478
11
5.09705
21
-3.17421
0
LINE
8
BLACK
6
CONTINUOUS
10
5.09705
20
-3.17421
11
5.11949
21
-3.17421
0
LINE
8
BLACK
6
CONTINUOUS
10
5.11949
20
-3.17421
11
5.12235
21
-3.17478
0
LINE
8
BLACK
6
CONTINUOUS
10
6.04361
20
-3.17478
11
6.04604
21
-3.1764
0
LINE
8
BLACK
6
CONTINUOUS
10
6.04604
20
-3.1764
11
6.04766
21
-3.17883
0
LINE
8
BLACK
6
CONTINUOUS
10
6.04766
20
-3.17883
11
6.04823
21
-3.18169
0
LINE
8
BLACK
6
CONTINUOUS
10
6.04823
20
-3.18169
11
6.04823
21
-3.23563
0
LINE
8
BLACK
6
CONTINUOUS
10
6.04823
20
-3.23563
11
6.04766
21
-3.23849
0
LINE
8
BLACK
6
CONTINUOUS
10
6.04766
20
-3.23849
11
6.04604
21
-3.24092
0
LINE
8
BLACK
6
CONTINUOUS
10
6.04604
20
-3.24092
11
6.04361
21
-3.24254
0
LINE
8
BLACK
6
CONTINUOUS
10
6.04361
20
-3.24254
11
6.04075
21
-3.24311
0
LINE
8
BLACK
6
CONTINUOUS
10
6.04075
20
-3.24311
11
6.01831
21
-3.24311
0
LINE
8
BLACK
6
CONTINUOUS
10
6.01831
20
-3.24311
11
6.01544
21
-3.24254
0
LINE
8
BLACK
6
CONTINUOUS
10
6.01544
20
-3.24254
11
6.01302
21
-3.24092
0
LINE
8
BLACK
6
CONTINUOUS
10
6.01302
20
-3.24092
11
6.0114
21
-3.23849
0
LINE
8
BLACK
6
CONTINUOUS
10
6.0114
20
-3.23849
11
6.01083
21
-3.23563
0
LINE
8
BLACK
6
CONTINUOUS
10
6.01083
20
-3.23563
11
6.01083
21
-3.18169
0
LINE
8
BLACK
6
CONTINUOUS
10
6.01083
20
-3.18169
11
6.0114
21
-3.17883
0
LINE
8
BLACK
6
CONTINUOUS
10
6.0114
20
-3.17883
11
6.01302
21
-3.1764
0
LINE
8
BLACK
6
CONTINUOUS
10
6.01302
20
-3.1764
11
6.01544
21
-3.17478
0
LINE
8
BLACK
6
CONTINUOUS
10
6.01544
20
-3.17478
11
6.01831
21
-3.17421
0
LINE
8
BLACK
6
CONTINUOUS
10
6.01831
20
-3.17421
11
6.04075
21
-3.17421
0
LINE
8
BLACK
6
CONTINUOUS
10
6.04075
20
-3.17421
11
6.04361
21
-3.17478
0
LINE
8
BLACK
6
CONTINUOUS
10
5.22648
20
-3.18191
11
5.22968
21
-3.18404
0
LINE
8
BLACK
6
CONTINUOUS
10
5.22968
20
-3.18404
11
5.23181
21
-3.18724
0
LINE
8
BLACK
6
CONTINUOUS
10
5.23181
20
-3.18724
11
5.23256
21
-3.191
0
LINE
8
BLACK
6
CONTINUOUS
10
5.23256
20
-3.191
11
5.23256
21
-3.21856
0
LINE
8
BLACK
6
CONTINUOUS
10
5.23256
20
-3.21856
11
5.23181
21
-3.22233
0
LINE
8
BLACK
6
CONTINUOUS
10
5.23181
20
-3.22233
11
5.22968
21
-3.22552
0
LINE
8
BLACK
6
CONTINUOUS
10
5.22968
20
-3.22552
11
5.22648
21
-3.22766
0
LINE
8
BLACK
6
CONTINUOUS
10
5.22648
20
-3.22766
11
5.22272
21
-3.22841
0
LINE
8
BLACK
6
CONTINUOUS
10
5.22272
20
-3.22841
11
5.18728
21
-3.22841
0
LINE
8
BLACK
6
CONTINUOUS
10
5.18728
20
-3.22841
11
5.18352
21
-3.22766
0
LINE
8
BLACK
6
CONTINUOUS
10
5.18352
20
-3.22766
11
5.18032
21
-3.22552
0
LINE
8
BLACK
6
CONTINUOUS
10
5.18032
20
-3.22552
11
5.17819
21
-3.22233
0
LINE
8
BLACK
6
CONTINUOUS
10
5.17819
20
-3.22233
11
5.17744
21
-3.21856
0
LINE
8
BLACK
6
CONTINUOUS
10
5.17744
20
-3.21856
11
5.17744
21
-3.191
0
LINE
8
BLACK
6
CONTINUOUS
10
5.17744
20
-3.191
11
5.17819
21
-3.18724
0
LINE
8
BLACK
6
CONTINUOUS
10
5.17819
20
-3.18724
11
5.18032
21
-3.18404
0
LINE
8
BLACK
6
CONTINUOUS
10
5.18032
20
-3.18404
11
5.18352
21
-3.18191
0
LINE
8
BLACK
6
CONTINUOUS
10
5.18352
20
-3.18191
11
5.18728
21
-3.18116
0
LINE
8
BLACK
6
CONTINUOUS
10
5.18728
20
-3.18116
11
5.22272
21
-3.18116
0
LINE
8
BLACK
6
CONTINUOUS
10
5.22272
20
-3.18116
11
5.22648
21
-3.18191
0
LINE
8
BLACK
6
CONTINUOUS
10
5.32938
20
-3.18093
11
5.33257
21
-3.18306
0
LINE
8
BLACK
6
CONTINUOUS
10
5.33257
20
-3.18306
11
5.3347
21
-3.18625
0
LINE
8
BLACK
6
CONTINUOUS
10
5.3347
20
-3.18625
11
5.33545
21
-3.19002
0
LINE
8
BLACK
6
CONTINUOUS
10
5.33545
20
-3.19002
11
5.33545
21
-3.21659
0
LINE
8
BLACK
6
CONTINUOUS
10
5.33545
20
-3.21659
11
5.3347
21
-3.22036
0
LINE
8
BLACK
6
CONTINUOUS
10
5.3347
20
-3.22036
11
5.33257
21
-3.22355
0
LINE
8
BLACK
6
CONTINUOUS
10
5.33257
20
-3.22355
11
5.32938
21
-3.22569
0
LINE
8
BLACK
6
CONTINUOUS
10
5.32938
20
-3.22569
11
5.32561
21
-3.22644
0
LINE
8
BLACK
6
CONTINUOUS
10
5.32561
20
-3.22644
11
5.28821
21
-3.22644
0
LINE
8
BLACK
6
CONTINUOUS
10
5.28821
20
-3.22644
11
5.28444
21
-3.22569
0
LINE
8
BLACK
6
CONTINUOUS
10
5.28444
20
-3.22569
11
5.28125
21
-3.22355
0
LINE
8
BLACK
6
CONTINUOUS
10
5.28125
20
-3.22355
11
5.27912
21
-3.22036
0
LINE
8
BLACK
6
CONTINUOUS
10
5.27912
20
-3.22036
11
5.27837
21
-3.21659
0
LINE
8
BLACK
6
CONTINUOUS
10
5.27837
20
-3.21659
11
5.27837
21
-3.19002
0
LINE
8
BLACK
6
CONTINUOUS
10
5.27837
20
-3.19002
11
5.27912
21
-3.18625
0
LINE
8
BLACK
6
CONTINUOUS
10
5.27912
20
-3.18625
11
5.28125
21
-3.18306
0
LINE
8
BLACK
6
CONTINUOUS
10
5.28125
20
-3.18306
11
5.28444
21
-3.18093
0
LINE
8
BLACK
6
CONTINUOUS
10
5.28444
20
-3.18093
11
5.28821
21
-3.18018
0
LINE
8
BLACK
6
CONTINUOUS
10
5.28821
20
-3.18018
11
5.32561
21
-3.18018
0
LINE
8
BLACK
6
CONTINUOUS
10
5.32561
20
-3.18018
11
5.32938
21
-3.18093
0
LINE
8
BLACK
6
CONTINUOUS
10
5.43247
20
-3.18093
11
5.43566
21
-3.18306
0
LINE
8
BLACK
6
CONTINUOUS
10
5.43566
20
-3.18306
11
5.43779
21
-3.18625
0
LINE
8
BLACK
6
CONTINUOUS
10
5.43779
20
-3.18625
11
5.43854
21
-3.19002
0
LINE
8
BLACK
6
CONTINUOUS
10
5.43854
20
-3.19002
11
5.43854
21
-3.21659
0
LINE
8
BLACK
6
CONTINUOUS
10
5.43854
20
-3.21659
11
5.43779
21
-3.22036
0
LINE
8
BLACK
6
CONTINUOUS
10
5.43779
20
-3.22036
11
5.43566
21
-3.22355
0
LINE
8
BLACK
6
CONTINUOUS
10
5.43566
20
-3.22355
11
5.43247
21
-3.22569
0
LINE
8
BLACK
6
CONTINUOUS
10
5.43247
20
-3.22569
11
5.4287
21
-3.22644
0
LINE
8
BLACK
6
CONTINUOUS
10
5.4287
20
-3.22644
11
5.3913
21
-3.22644
0
LINE
8
BLACK
6
CONTINUOUS
10
5.3913
20
-3.22644
11
5.38753
21
-3.22569
0
LINE
8
BLACK
6
CONTINUOUS
10
5.38753
20
-3.22569
11
5.38434
21
-3.22355
0
LINE
8
BLACK
6
CONTINUOUS
10
5.38434
20
-3.22355
11
5.38221
21
-3.22036
0
LINE
8
BLACK
6
CONTINUOUS
10
5.38221
20
-3.22036
11
5.38146
21
-3.21659
0
LINE
8
BLACK
6
CONTINUOUS
10
5.38146
20
-3.21659
11
5.38146
21
-3.19002
0
LINE
8
BLACK
6
CONTINUOUS
10
5.38146
20
-3.19002
11
5.38221
21
-3.18625
0
LINE
8
BLACK
6
CONTINUOUS
10
5.38221
20
-3.18625
11
5.38434
21
-3.18306
0
LINE
8
BLACK
6
CONTINUOUS
10
5.38434
20
-3.18306
11
5.38753
21
-3.18093
0
LINE
8
BLACK
6
CONTINUOUS
10
5.38753
20
-3.18093
11
5.3913
21
-3.18018
0
LINE
8
BLACK
6
CONTINUOUS
10
5.3913
20
-3.18018
11
5.4287
21
-3.18018
0
LINE
8
BLACK
6
CONTINUOUS
10
5.4287
20
-3.18018
11
5.43247
21
-3.18093
0
LINE
8
BLACK
6
CONTINUOUS
10
5.96358
20
-3.22146
11
5.89469
21
-3.22146
0
LINE
8
BLACK
6
CONTINUOUS
10
5.89469
20
-3.22146
11
5.89469
21
-3.20374
0
LINE
8
BLACK
6
CONTINUOUS
10
5.89469
20
-3.20374
11
5.96358
21
-3.20374
0
LINE
8
BLACK
6
CONTINUOUS
10
5.96358
20
-3.20374
11
5.96358
21
-3.22146
0
LINE
8
BLACK
6
CONTINUOUS
10
5.68012
20
-3.22146
11
5.61122
21
-3.22146
0
LINE
8
BLACK
6
CONTINUOUS
10
5.61122
20
-3.22146
11
5.61122
21
-3.20374
0
LINE
8
BLACK
6
CONTINUOUS
10
5.61122
20
-3.20374
11
5.68012
21
-3.20374
0
LINE
8
BLACK
6
CONTINUOUS
10
5.68012
20
-3.20374
11
5.68012
21
-3.22146
  0
ENDSEC
  0
EOF
