  0
SECTION
  2
HEADER
  9
$ANGBASE
  50
0.0
  9
$ANGDIR
  70
1
  9
$MEASUREMENT
  70
0
  0
ENDSEC
  0
SECTION
  2
TABLES
  0
TABLE
  2
LTYPE
  70
4
  0
LTYPE
  5
40F
  2
CONTINUOUS
  70
0
  3
Solid line
  72
65
  73
0
  40
0.0
  0
LTYPE
  5
410
  2
DASHDOT
 70
0
  3
Dash Dot ____ _ ____ _
 72
65
 73
4
 40
2.0
 49
1.25
 49
-0.25
 49
0.25
 49
-0.25
  0
LTYPE
  5
411
  2
DASHED
 70
0
  3
Dashed __ __ __ __ __
 72
65
 73
2
 40
0.75
 49
0.5
 49
-0.25
  0
LTYPE
  5
43B
  2
DOTTED
 70
0
  3
Dotted .  .  .  .
 72
65
 73
2
 40
0.2
 49
0.0
 49
-0.2
  0
ENDTAB
  0
TABLE
  2
STYLE
  70
4
  0
STYLE
  2
KICAD
  70
0
  40
0
  41
1
  42
1
  50
0
  71
0
  3
isocp.shx
  0
STYLE
  2
KICADB
  70
0
  40
0
  41
1
  42
1
  50
0
  71
0
  3
isocp.shx
  0
STYLE
  2
KICADI
  70
0
  40
0
  41
1
  42
1
  50
15
  71
0
  3
isocp.shx
  0
STYLE
  2
KICADBI
  70
0
  40
0
  41
1
  42
1
  50
15
  71
0
  3
isocp.shx
  0
ENDTAB
  0
TABLE
  2
LAYER
  70
1
  0
LAYER
  2
BLACK
  70
0
  62
7
  6
CONTINUOUS
  0
ENDTAB
  0
ENDSEC
  0
SECTION
  2
ENTITIES
0
LINE
8
BLACK
6
CONTINUOUS
10
4.84844
20
-3.32262
11
4.84902
21
-3.32402
0
LINE
8
BLACK
6
CONTINUOUS
10
4.84902
20
-3.32402
11
4.84902
21
-3.67598
0
LINE
8
BLACK
6
CONTINUOUS
10
4.84902
20
-3.67598
11
4.84844
21
-3.67738
0
LINE
8
BLACK
6
CONTINUOUS
10
4.84844
20
-3.67738
11
4.84705
21
-3.67795
0
LINE
8
BLACK
6
CONTINUOUS
10
4.84705
20
-3.67795
11
4.84566
21
-3.67738
0
LINE
8
BLACK
6
CONTINUOUS
10
4.84566
20
-3.67738
11
4.84508
21
-3.67598
0
LINE
8
BLACK
6
CONTINUOUS
10
4.84508
20
-3.67598
11
4.84508
21
-3.32402
0
LINE
8
BLACK
6
CONTINUOUS
10
4.84508
20
-3.32402
11
4.84566
21
-3.32262
0
LINE
8
BLACK
6
CONTINUOUS
10
4.84566
20
-3.32262
11
4.84705
21
-3.32205
0
LINE
8
BLACK
6
CONTINUOUS
10
4.84705
20
-3.32205
11
4.84844
21
-3.32262
0
LINE
8
BLACK
6
CONTINUOUS
10
4.87554
20
-3.60971
11
4.87568
21
-3.60982
0
LINE
8
BLACK
6
CONTINUOUS
10
4.87568
20
-3.60982
11
4.87585
21
-3.60984
0
LINE
8
BLACK
6
CONTINUOUS
10
4.87585
20
-3.60984
11
4.8796
21
-3.61172
0
LINE
8
BLACK
6
CONTINUOUS
10
4.8796
20
-3.61172
11
4.88031
21
-3.61225
0
LINE
8
BLACK
6
CONTINUOUS
10
4.88031
20
-3.61225
11
4.88037
21
-3.61227
0
LINE
8
BLACK
6
CONTINUOUS
10
4.88037
20
-3.61227
11
4.88225
21
-3.61415
0
LINE
8
BLACK
6
CONTINUOUS
10
4.88225
20
-3.61415
11
4.88275
21
-3.61487
0
LINE
8
BLACK
6
CONTINUOUS
10
4.88275
20
-3.61487
11
4.8828
21
-3.61491
0
LINE
8
BLACK
6
CONTINUOUS
10
4.8828
20
-3.61491
11
4.88467
21
-3.61866
0
LINE
8
BLACK
6
CONTINUOUS
10
4.88467
20
-3.61866
11
4.88497
21
-3.61965
0
LINE
8
BLACK
6
CONTINUOUS
10
4.88497
20
-3.61965
11
4.88492
21
-3.61982
0
LINE
8
BLACK
6
CONTINUOUS
10
4.88492
20
-3.61982
11
4.88499
21
-3.61998
0
LINE
8
BLACK
6
CONTINUOUS
10
4.88499
20
-3.61998
11
4.88499
21
-3.63203
0
LINE
8
BLACK
6
CONTINUOUS
10
4.88499
20
-3.63203
11
4.90078
21
-3.63203
0
LINE
8
BLACK
6
CONTINUOUS
10
4.90078
20
-3.63203
11
4.90179
21
-3.63221
0
LINE
8
BLACK
6
CONTINUOUS
10
4.90179
20
-3.63221
11
4.90334
21
-3.63351
0
LINE
8
BLACK
6
CONTINUOUS
10
4.90334
20
-3.63351
11
4.90369
21
-3.6355
0
LINE
8
BLACK
6
CONTINUOUS
10
4.90369
20
-3.6355
11
4.90268
21
-3.63725
0
LINE
8
BLACK
6
CONTINUOUS
10
4.90268
20
-3.63725
11
4.90078
21
-3.63794
0
LINE
8
BLACK
6
CONTINUOUS
10
4.90078
20
-3.63794
11
4.86141
21
-3.63794
0
LINE
8
BLACK
6
CONTINUOUS
10
4.86141
20
-3.63794
11
4.86103
21
-3.63787
0
LINE
8
BLACK
6
CONTINUOUS
10
4.86103
20
-3.63787
11
4.8609
21
-3.63789
0
LINE
8
BLACK
6
CONTINUOUS
10
4.8609
20
-3.63789
11
4.86078
21
-3.63783
0
LINE
8
BLACK
6
CONTINUOUS
10
4.86078
20
-3.63783
11
4.8604
21
-3.63776
0
LINE
8
BLACK
6
CONTINUOUS
10
4.8604
20
-3.63776
11
4.85981
21
-3.63726
0
LINE
8
BLACK
6
CONTINUOUS
10
4.85981
20
-3.63726
11
4.85915
21
-3.63688
0
LINE
8
BLACK
6
CONTINUOUS
10
4.85915
20
-3.63688
11
4.85906
21
-3.63663
0
LINE
8
BLACK
6
CONTINUOUS
10
4.85906
20
-3.63663
11
4.85885
21
-3.63646
0
LINE
8
BLACK
6
CONTINUOUS
10
4.85885
20
-3.63646
11
4.85872
21
-3.6357
0
LINE
8
BLACK
6
CONTINUOUS
10
4.85872
20
-3.6357
11
4.85846
21
-3.63498
0
LINE
8
BLACK
6
CONTINUOUS
10
4.85846
20
-3.63498
11
4.85846
21
-3.61998
0
LINE
8
BLACK
6
CONTINUOUS
10
4.85846
20
-3.61998
11
4.85864
21
-3.61898
0
LINE
8
BLACK
6
CONTINUOUS
10
4.85864
20
-3.61898
11
4.85875
21
-3.61884
0
LINE
8
BLACK
6
CONTINUOUS
10
4.85875
20
-3.61884
11
4.85877
21
-3.61866
0
LINE
8
BLACK
6
CONTINUOUS
10
4.85877
20
-3.61866
11
4.86064
21
-3.61491
0
LINE
8
BLACK
6
CONTINUOUS
10
4.86064
20
-3.61491
11
4.86117
21
-3.61421
0
LINE
8
BLACK
6
CONTINUOUS
10
4.86117
20
-3.61421
11
4.8612
21
-3.61415
0
LINE
8
BLACK
6
CONTINUOUS
10
4.8612
20
-3.61415
11
4.86307
21
-3.61227
0
LINE
8
BLACK
6
CONTINUOUS
10
4.86307
20
-3.61227
11
4.86379
21
-3.61177
0
LINE
8
BLACK
6
CONTINUOUS
10
4.86379
20
-3.61177
11
4.86384
21
-3.61172
0
LINE
8
BLACK
6
CONTINUOUS
10
4.86384
20
-3.61172
11
4.86759
21
-3.60984
0
LINE
8
BLACK
6
CONTINUOUS
10
4.86759
20
-3.60984
11
4.86857
21
-3.60955
0
LINE
8
BLACK
6
CONTINUOUS
10
4.86857
20
-3.60955
11
4.86874
21
-3.60959
0
LINE
8
BLACK
6
CONTINUOUS
10
4.86874
20
-3.60959
11
4.86891
21
-3.60953
0
LINE
8
BLACK
6
CONTINUOUS
10
4.86891
20
-3.60953
11
4.87453
21
-3.60953
0
LINE
8
BLACK
6
CONTINUOUS
10
4.87453
20
-3.60953
11
4.87554
21
-3.60971
0
LINE
8
BLACK
6
CONTINUOUS
10
4.86691
20
-3.61679
11
4.86571
21
-3.61798
0
LINE
8
BLACK
6
CONTINUOUS
10
4.86571
20
-3.61798
11
4.86436
21
-3.62068
0
LINE
8
BLACK
6
CONTINUOUS
10
4.86436
20
-3.62068
11
4.86436
21
-3.63203
0
LINE
8
BLACK
6
CONTINUOUS
10
4.86436
20
-3.63203
11
4.87908
21
-3.63203
0
LINE
8
BLACK
6
CONTINUOUS
10
4.87908
20
-3.63203
11
4.87908
21
-3.62068
0
LINE
8
BLACK
6
CONTINUOUS
10
4.87908
20
-3.62068
11
4.87773
21
-3.61798
0
LINE
8
BLACK
6
CONTINUOUS
10
4.87773
20
-3.61798
11
4.87653
21
-3.61679
0
LINE
8
BLACK
6
CONTINUOUS
10
4.87653
20
-3.61679
11
4.87384
21
-3.61544
0
LINE
8
BLACK
6
CONTINUOUS
10
4.87384
20
-3.61544
11
4.86961
21
-3.61544
0
LINE
8
BLACK
6
CONTINUOUS
10
4.86961
20
-3.61544
11
4.86691
21
-3.61679
0
LINE
8
BLACK
6
CONTINUOUS
10
4.89912
20
-3.57103
11
4.90099
21
-3.5729
0
LINE
8
BLACK
6
CONTINUOUS
10
4.90099
20
-3.5729
11
4.90158
21
-3.57374
0
LINE
8
BLACK
6
CONTINUOUS
10
4.90158
20
-3.57374
11
4.9016
21
-3.57392
0
LINE
8
BLACK
6
CONTINUOUS
10
4.9016
20
-3.57392
11
4.90171
21
-3.57406
0
LINE
8
BLACK
6
CONTINUOUS
10
4.90171
20
-3.57406
11
4.90358
21
-3.57968
0
LINE
8
BLACK
6
CONTINUOUS
10
4.90358
20
-3.57968
11
4.90371
21
-3.58055
0
LINE
8
BLACK
6
CONTINUOUS
10
4.90371
20
-3.58055
11
4.90373
21
-3.58061
0
LINE
8
BLACK
6
CONTINUOUS
10
4.90373
20
-3.58061
11
4.90373
21
-3.58436
0
LINE
8
BLACK
6
CONTINUOUS
10
4.90373
20
-3.58436
11
4.90358
21
-3.58523
0
LINE
8
BLACK
6
CONTINUOUS
10
4.90358
20
-3.58523
11
4.90358
21
-3.5853
0
LINE
8
BLACK
6
CONTINUOUS
10
4.90358
20
-3.5853
11
4.90171
21
-3.59092
0
LINE
8
BLACK
6
CONTINUOUS
10
4.90171
20
-3.59092
11
4.90122
21
-3.59182
0
LINE
8
BLACK
6
CONTINUOUS
10
4.90122
20
-3.59182
11
4.90107
21
-3.59192
0
LINE
8
BLACK
6
CONTINUOUS
10
4.90107
20
-3.59192
11
4.90099
21
-3.59208
0
LINE
8
BLACK
6
CONTINUOUS
10
4.90099
20
-3.59208
11
4.89724
21
-3.59583
0
LINE
8
BLACK
6
CONTINUOUS
10
4.89724
20
-3.59583
11
4.89652
21
-3.59633
0
LINE
8
BLACK
6
CONTINUOUS
10
4.89652
20
-3.59633
11
4.89648
21
-3.59638
0
LINE
8
BLACK
6
CONTINUOUS
10
4.89648
20
-3.59638
11
4.89273
21
-3.59825
0
LINE
8
BLACK
6
CONTINUOUS
10
4.89273
20
-3.59825
11
4.89224
21
-3.5984
0
LINE
8
BLACK
6
CONTINUOUS
10
4.89224
20
-3.5984
11
4.89212
21
-3.59848
0
LINE
8
BLACK
6
CONTINUOUS
10
4.89212
20
-3.59848
11
4.88462
21
-3.60035
0
LINE
8
BLACK
6
CONTINUOUS
10
4.88462
20
-3.60035
11
4.88404
21
-3.60039
0
LINE
8
BLACK
6
CONTINUOUS
10
4.88404
20
-3.60039
11
4.88391
21
-3.60044
0
LINE
8
BLACK
6
CONTINUOUS
10
4.88391
20
-3.60044
11
4.87828
21
-3.60044
0
LINE
8
BLACK
6
CONTINUOUS
10
4.87828
20
-3.60044
11
4.8777
21
-3.60034
0
LINE
8
BLACK
6
CONTINUOUS
10
4.8777
20
-3.60034
11
4.87757
21
-3.60035
0
LINE
8
BLACK
6
CONTINUOUS
10
4.87757
20
-3.60035
11
4.87007
21
-3.59848
0
LINE
8
BLACK
6
CONTINUOUS
10
4.87007
20
-3.59848
11
4.8696
21
-3.59827
0
LINE
8
BLACK
6
CONTINUOUS
10
4.8696
20
-3.59827
11
4.86946
21
-3.59825
0
LINE
8
BLACK
6
CONTINUOUS
10
4.86946
20
-3.59825
11
4.86571
21
-3.59638
0
LINE
8
BLACK
6
CONTINUOUS
10
4.86571
20
-3.59638
11
4.865
21
-3.59585
0
LINE
8
BLACK
6
CONTINUOUS
10
4.865
20
-3.59585
11
4.86495
21
-3.59583
0
LINE
8
BLACK
6
CONTINUOUS
10
4.86495
20
-3.59583
11
4.8612
21
-3.59208
0
LINE
8
BLACK
6
CONTINUOUS
10
4.8612
20
-3.59208
11
4.86061
21
-3.59124
0
LINE
8
BLACK
6
CONTINUOUS
10
4.86061
20
-3.59124
11
4.86059
21
-3.59106
0
LINE
8
BLACK
6
CONTINUOUS
10
4.86059
20
-3.59106
11
4.86048
21
-3.59092
0
LINE
8
BLACK
6
CONTINUOUS
10
4.86048
20
-3.59092
11
4.85861
21
-3.5853
0
LINE
8
BLACK
6
CONTINUOUS
10
4.85861
20
-3.5853
11
4.85848
21
-3.58442
0
LINE
8
BLACK
6
CONTINUOUS
10
4.85848
20
-3.58442
11
4.85846
21
-3.58436
0
LINE
8
BLACK
6
CONTINUOUS
10
4.85846
20
-3.58436
11
4.85846
21
-3.58061
0
LINE
8
BLACK
6
CONTINUOUS
10
4.85846
20
-3.58061
11
4.85861
21
-3.57975
0
LINE
8
BLACK
6
CONTINUOUS
10
4.85861
20
-3.57975
11
4.85861
21
-3.57968
0
LINE
8
BLACK
6
CONTINUOUS
10
4.85861
20
-3.57968
11
4.86048
21
-3.57406
0
LINE
8
BLACK
6
CONTINUOUS
10
4.86048
20
-3.57406
11
4.86097
21
-3.57316
0
LINE
8
BLACK
6
CONTINUOUS
10
4.86097
20
-3.57316
11
4.86112
21
-3.57306
0
LINE
8
BLACK
6
CONTINUOUS
10
4.86112
20
-3.57306
11
4.8612
21
-3.5729
0
LINE
8
BLACK
6
CONTINUOUS
10
4.8612
20
-3.5729
11
4.86307
21
-3.57103
0
LINE
8
BLACK
6
CONTINUOUS
10
4.86307
20
-3.57103
11
4.86391
21
-3.57044
0
LINE
8
BLACK
6
CONTINUOUS
10
4.86391
20
-3.57044
11
4.86592
21
-3.57026
0
LINE
8
BLACK
6
CONTINUOUS
10
4.86592
20
-3.57026
11
4.86758
21
-3.57142
0
LINE
8
BLACK
6
CONTINUOUS
10
4.86758
20
-3.57142
11
4.8681
21
-3.57337
0
LINE
8
BLACK
6
CONTINUOUS
10
4.8681
20
-3.57337
11
4.86725
21
-3.5752
0
LINE
8
BLACK
6
CONTINUOUS
10
4.86725
20
-3.5752
11
4.86587
21
-3.57659
0
LINE
8
BLACK
6
CONTINUOUS
10
4.86587
20
-3.57659
11
4.86436
21
-3.58109
0
LINE
8
BLACK
6
CONTINUOUS
10
4.86436
20
-3.58109
11
4.86436
21
-3.58389
0
LINE
8
BLACK
6
CONTINUOUS
10
4.86436
20
-3.58389
11
4.86587
21
-3.58839
0
LINE
8
BLACK
6
CONTINUOUS
10
4.86587
20
-3.58839
11
4.86878
21
-3.59131
0
LINE
8
BLACK
6
CONTINUOUS
10
4.86878
20
-3.59131
11
4.87181
21
-3.59283
0
LINE
8
BLACK
6
CONTINUOUS
10
4.87181
20
-3.59283
11
4.87865
21
-3.59454
0
LINE
8
BLACK
6
CONTINUOUS
10
4.87865
20
-3.59454
11
4.88354
21
-3.59454
0
LINE
8
BLACK
6
CONTINUOUS
10
4.88354
20
-3.59454
11
4.89038
21
-3.59283
0
LINE
8
BLACK
6
CONTINUOUS
10
4.89038
20
-3.59283
11
4.89341
21
-3.59131
0
LINE
8
BLACK
6
CONTINUOUS
10
4.89341
20
-3.59131
11
4.89632
21
-3.58839
0
LINE
8
BLACK
6
CONTINUOUS
10
4.89632
20
-3.58839
11
4.89783
21
-3.58389
0
LINE
8
BLACK
6
CONTINUOUS
10
4.89783
20
-3.58389
11
4.89783
21
-3.58109
0
LINE
8
BLACK
6
CONTINUOUS
10
4.89783
20
-3.58109
11
4.89632
21
-3.57659
0
LINE
8
BLACK
6
CONTINUOUS
10
4.89632
20
-3.57659
11
4.89494
21
-3.5752
0
LINE
8
BLACK
6
CONTINUOUS
10
4.89494
20
-3.5752
11
4.89435
21
-3.57436
0
LINE
8
BLACK
6
CONTINUOUS
10
4.89435
20
-3.57436
11
4.89418
21
-3.57235
0
LINE
8
BLACK
6
CONTINUOUS
10
4.89418
20
-3.57235
11
4.89534
21
-3.5707
0
LINE
8
BLACK
6
CONTINUOUS
10
4.89534
20
-3.5707
11
4.89729
21
-3.57017
0
LINE
8
BLACK
6
CONTINUOUS
10
4.89729
20
-3.57017
11
4.89912
21
-3.57103
0
LINE
8
BLACK
6
CONTINUOUS
10
4.89429
20
-3.53097
11
4.89443
21
-3.53108
0
LINE
8
BLACK
6
CONTINUOUS
10
4.89443
20
-3.53108
11
4.8946
21
-3.5311
0
LINE
8
BLACK
6
CONTINUOUS
10
4.8946
20
-3.5311
11
4.89835
21
-3.53298
0
LINE
8
BLACK
6
CONTINUOUS
10
4.89835
20
-3.53298
11
4.89906
21
-3.53351
0
LINE
8
BLACK
6
CONTINUOUS
10
4.89906
20
-3.53351
11
4.89912
21
-3.53353
0
LINE
8
BLACK
6
CONTINUOUS
10
4.89912
20
-3.53353
11
4.90099
21
-3.53541
0
LINE
8
BLACK
6
CONTINUOUS
10
4.90099
20
-3.53541
11
4.9015
21
-3.53613
0
LINE
8
BLACK
6
CONTINUOUS
10
4.9015
20
-3.53613
11
4.90155
21
-3.53617
0
LINE
8
BLACK
6
CONTINUOUS
10
4.90155
20
-3.53617
11
4.90342
21
-3.53992
0
LINE
8
BLACK
6
CONTINUOUS
10
4.90342
20
-3.53992
11
4.90371
21
-3.54091
0
LINE
8
BLACK
6
CONTINUOUS
10
4.90371
20
-3.54091
11
4.90367
21
-3.54108
0
LINE
8
BLACK
6
CONTINUOUS
10
4.90367
20
-3.54108
11
4.90373
21
-3.54124
0
LINE
8
BLACK
6
CONTINUOUS
10
4.90373
20
-3.54124
11
4.90373
21
-3.55624
0
LINE
8
BLACK
6
CONTINUOUS
10
4.90373
20
-3.55624
11
4.90367
21
-3.55663
0
LINE
8
BLACK
6
CONTINUOUS
10
4.90367
20
-3.55663
11
4.90369
21
-3.55676
0
LINE
8
BLACK
6
CONTINUOUS
10
4.90369
20
-3.55676
11
4.90362
21
-3.55687
0
LINE
8
BLACK
6
CONTINUOUS
10
4.90362
20
-3.55687
11
4.90355
21
-3.55725
0
LINE
8
BLACK
6
CONTINUOUS
10
4.90355
20
-3.55725
11
4.90306
21
-3.55784
0
LINE
8
BLACK
6
CONTINUOUS
10
4.90306
20
-3.55784
11
4.90268
21
-3.5585
0
LINE
8
BLACK
6
CONTINUOUS
10
4.90268
20
-3.5585
11
4.90243
21
-3.5586
0
LINE
8
BLACK
6
CONTINUOUS
10
4.90243
20
-3.5586
11
4.90226
21
-3.5588
0
LINE
8
BLACK
6
CONTINUOUS
10
4.90226
20
-3.5588
11
4.9015
21
-3.55893
0
LINE
8
BLACK
6
CONTINUOUS
10
4.9015
20
-3.55893
11
4.90078
21
-3.5592
0
LINE
8
BLACK
6
CONTINUOUS
10
4.90078
20
-3.5592
11
4.86141
21
-3.5592
0
LINE
8
BLACK
6
CONTINUOUS
10
4.86141
20
-3.5592
11
4.86103
21
-3.55913
0
LINE
8
BLACK
6
CONTINUOUS
10
4.86103
20
-3.55913
11
4.8609
21
-3.55915
0
LINE
8
BLACK
6
CONTINUOUS
10
4.8609
20
-3.55915
11
4.86078
21
-3.55909
0
LINE
8
BLACK
6
CONTINUOUS
10
4.86078
20
-3.55909
11
4.8604
21
-3.55902
0
LINE
8
BLACK
6
CONTINUOUS
10
4.8604
20
-3.55902
11
4.85981
21
-3.55852
0
LINE
8
BLACK
6
CONTINUOUS
10
4.85981
20
-3.55852
11
4.85915
21
-3.55814
0
LINE
8
BLACK
6
CONTINUOUS
10
4.85915
20
-3.55814
11
4.85906
21
-3.55789
0
LINE
8
BLACK
6
CONTINUOUS
10
4.85906
20
-3.55789
11
4.85885
21
-3.55772
0
LINE
8
BLACK
6
CONTINUOUS
10
4.85885
20
-3.55772
11
4.85872
21
-3.55696
0
LINE
8
BLACK
6
CONTINUOUS
10
4.85872
20
-3.55696
11
4.85846
21
-3.55624
0
LINE
8
BLACK
6
CONTINUOUS
10
4.85846
20
-3.55624
11
4.85846
21
-3.54312
0
LINE
8
BLACK
6
CONTINUOUS
10
4.85846
20
-3.54312
11
4.85864
21
-3.54211
0
LINE
8
BLACK
6
CONTINUOUS
10
4.85864
20
-3.54211
11
4.85875
21
-3.54197
0
LINE
8
BLACK
6
CONTINUOUS
10
4.85875
20
-3.54197
11
4.85877
21
-3.5418
0
LINE
8
BLACK
6
CONTINUOUS
10
4.85877
20
-3.5418
11
4.86064
21
-3.53805
0
LINE
8
BLACK
6
CONTINUOUS
10
4.86064
20
-3.53805
11
4.86117
21
-3.53734
0
LINE
8
BLACK
6
CONTINUOUS
10
4.86117
20
-3.53734
11
4.8612
21
-3.53728
0
LINE
8
BLACK
6
CONTINUOUS
10
4.8612
20
-3.53728
11
4.86307
21
-3.53541
0
LINE
8
BLACK
6
CONTINUOUS
10
4.86307
20
-3.53541
11
4.86379
21
-3.5349
0
LINE
8
BLACK
6
CONTINUOUS
10
4.86379
20
-3.5349
11
4.86384
21
-3.53485
0
LINE
8
BLACK
6
CONTINUOUS
10
4.86384
20
-3.53485
11
4.86759
21
-3.53298
0
LINE
8
BLACK
6
CONTINUOUS
10
4.86759
20
-3.53298
11
4.86857
21
-3.53269
0
LINE
8
BLACK
6
CONTINUOUS
10
4.86857
20
-3.53269
11
4.86874
21
-3.53273
0
LINE
8
BLACK
6
CONTINUOUS
10
4.86874
20
-3.53273
11
4.86891
21
-3.53267
0
LINE
8
BLACK
6
CONTINUOUS
10
4.86891
20
-3.53267
11
4.87266
21
-3.53267
0
LINE
8
BLACK
6
CONTINUOUS
10
4.87266
20
-3.53267
11
4.87367
21
-3.53285
0
LINE
8
BLACK
6
CONTINUOUS
10
4.87367
20
-3.53285
11
4.8738
21
-3.53296
0
LINE
8
BLACK
6
CONTINUOUS
10
4.8738
20
-3.53296
11
4.87398
21
-3.53298
0
LINE
8
BLACK
6
CONTINUOUS
10
4.87398
20
-3.53298
11
4.87773
21
-3.53485
0
LINE
8
BLACK
6
CONTINUOUS
10
4.87773
20
-3.53485
11
4.87844
21
-3.53538
0
LINE
8
BLACK
6
CONTINUOUS
10
4.87844
20
-3.53538
11
4.8785
21
-3.53541
0
LINE
8
BLACK
6
CONTINUOUS
10
4.8785
20
-3.53541
11
4.87938
21
-3.53629
0
LINE
8
BLACK
6
CONTINUOUS
10
4.87938
20
-3.53629
11
4.87972
21
-3.53566
0
LINE
8
BLACK
6
CONTINUOUS
10
4.87972
20
-3.53566
11
4.87987
21
-3.53557
0
LINE
8
BLACK
6
CONTINUOUS
10
4.87987
20
-3.53557
11
4.87994
21
-3.53541
0
LINE
8
BLACK
6
CONTINUOUS
10
4.87994
20
-3.53541
11
4.88182
21
-3.53353
0
LINE
8
BLACK
6
CONTINUOUS
10
4.88182
20
-3.53353
11
4.88254
21
-3.53303
0
LINE
8
BLACK
6
CONTINUOUS
10
4.88254
20
-3.53303
11
4.88259
21
-3.53298
0
LINE
8
BLACK
6
CONTINUOUS
10
4.88259
20
-3.53298
11
4.88634
21
-3.5311
0
LINE
8
BLACK
6
CONTINUOUS
10
4.88634
20
-3.5311
11
4.88732
21
-3.53081
0
LINE
8
BLACK
6
CONTINUOUS
10
4.88732
20
-3.53081
11
4.88749
21
-3.53085
0
LINE
8
BLACK
6
CONTINUOUS
10
4.88749
20
-3.53085
11
4.88766
21
-3.53079
0
LINE
8
BLACK
6
CONTINUOUS
10
4.88766
20
-3.53079
11
4.89328
21
-3.53079
0
LINE
8
BLACK
6
CONTINUOUS
10
4.89328
20
-3.53079
11
4.89429
21
-3.53097
0
LINE
8
BLACK
6
CONTINUOUS
10
4.86691
20
-3.53992
11
4.86571
21
-3.54112
0
LINE
8
BLACK
6
CONTINUOUS
10
4.86571
20
-3.54112
11
4.86436
21
-3.54382
0
LINE
8
BLACK
6
CONTINUOUS
10
4.86436
20
-3.54382
11
4.86436
21
-3.55329
0
LINE
8
BLACK
6
CONTINUOUS
10
4.86436
20
-3.55329
11
4.87721
21
-3.55329
0
LINE
8
BLACK
6
CONTINUOUS
10
4.87721
20
-3.55329
11
4.87721
21
-3.54382
0
LINE
8
BLACK
6
CONTINUOUS
10
4.87721
20
-3.54382
11
4.87586
21
-3.54112
0
LINE
8
BLACK
6
CONTINUOUS
10
4.87586
20
-3.54112
11
4.87466
21
-3.53992
0
LINE
8
BLACK
6
CONTINUOUS
10
4.87466
20
-3.53992
11
4.87196
21
-3.53857
0
LINE
8
BLACK
6
CONTINUOUS
10
4.87196
20
-3.53857
11
4.86961
21
-3.53857
0
LINE
8
BLACK
6
CONTINUOUS
10
4.86961
20
-3.53857
11
4.86691
21
-3.53992
0
LINE
8
BLACK
6
CONTINUOUS
10
4.88566
20
-3.53805
11
4.88461
21
-3.53909
0
LINE
8
BLACK
6
CONTINUOUS
10
4.88461
20
-3.53909
11
4.88311
21
-3.5436
0
LINE
8
BLACK
6
CONTINUOUS
10
4.88311
20
-3.5436
11
4.88311
21
-3.55329
0
LINE
8
BLACK
6
CONTINUOUS
10
4.88311
20
-3.55329
11
4.89783
21
-3.55329
0
LINE
8
BLACK
6
CONTINUOUS
10
4.89783
20
-3.55329
11
4.89783
21
-3.54194
0
LINE
8
BLACK
6
CONTINUOUS
10
4.89783
20
-3.54194
11
4.89648
21
-3.53924
0
LINE
8
BLACK
6
CONTINUOUS
10
4.89648
20
-3.53924
11
4.89528
21
-3.53805
0
LINE
8
BLACK
6
CONTINUOUS
10
4.89528
20
-3.53805
11
4.89258
21
-3.5367
0
LINE
8
BLACK
6
CONTINUOUS
10
4.89258
20
-3.5367
11
4.88835
21
-3.5367
0
LINE
8
BLACK
6
CONTINUOUS
10
4.88835
20
-3.5367
11
4.88566
21
-3.53805
0
LINE
8
BLACK
6
CONTINUOUS
10
4.90304
20
-3.46623
11
4.90373
21
-3.46813
0
LINE
8
BLACK
6
CONTINUOUS
10
4.90373
20
-3.46813
11
4.90373
21
-3.48688
0
LINE
8
BLACK
6
CONTINUOUS
10
4.90373
20
-3.48688
11
4.90367
21
-3.48726
0
LINE
8
BLACK
6
CONTINUOUS
10
4.90367
20
-3.48726
11
4.90369
21
-3.48739
0
LINE
8
BLACK
6
CONTINUOUS
10
4.90369
20
-3.48739
11
4.90362
21
-3.4875
0
LINE
8
BLACK
6
CONTINUOUS
10
4.90362
20
-3.4875
11
4.90355
21
-3.48789
0
LINE
8
BLACK
6
CONTINUOUS
10
4.90355
20
-3.48789
11
4.90306
21
-3.48847
0
LINE
8
BLACK
6
CONTINUOUS
10
4.90306
20
-3.48847
11
4.90268
21
-3.48914
0
LINE
8
BLACK
6
CONTINUOUS
10
4.90268
20
-3.48914
11
4.90243
21
-3.48923
0
LINE
8
BLACK
6
CONTINUOUS
10
4.90243
20
-3.48923
11
4.90226
21
-3.48943
0
LINE
8
BLACK
6
CONTINUOUS
10
4.90226
20
-3.48943
11
4.9015
21
-3.48957
0
LINE
8
BLACK
6
CONTINUOUS
10
4.9015
20
-3.48957
11
4.90078
21
-3.48983
0
LINE
8
BLACK
6
CONTINUOUS
10
4.90078
20
-3.48983
11
4.86141
21
-3.48983
0
LINE
8
BLACK
6
CONTINUOUS
10
4.86141
20
-3.48983
11
4.86103
21
-3.48976
0
LINE
8
BLACK
6
CONTINUOUS
10
4.86103
20
-3.48976
11
4.8609
21
-3.48978
0
LINE
8
BLACK
6
CONTINUOUS
10
4.8609
20
-3.48978
11
4.86078
21
-3.48972
0
LINE
8
BLACK
6
CONTINUOUS
10
4.86078
20
-3.48972
11
4.8604
21
-3.48965
0
LINE
8
BLACK
6
CONTINUOUS
10
4.8604
20
-3.48965
11
4.85981
21
-3.48916
0
LINE
8
BLACK
6
CONTINUOUS
10
4.85981
20
-3.48916
11
4.85915
21
-3.48877
0
LINE
8
BLACK
6
CONTINUOUS
10
4.85915
20
-3.48877
11
4.85906
21
-3.48852
0
LINE
8
BLACK
6
CONTINUOUS
10
4.85906
20
-3.48852
11
4.85885
21
-3.48835
0
LINE
8
BLACK
6
CONTINUOUS
10
4.85885
20
-3.48835
11
4.85872
21
-3.4876
0
LINE
8
BLACK
6
CONTINUOUS
10
4.85872
20
-3.4876
11
4.85846
21
-3.48688
0
LINE
8
BLACK
6
CONTINUOUS
10
4.85846
20
-3.48688
11
4.85846
21
-3.46813
0
LINE
8
BLACK
6
CONTINUOUS
10
4.85846
20
-3.46813
11
4.85864
21
-3.46712
0
LINE
8
BLACK
6
CONTINUOUS
10
4.85864
20
-3.46712
11
4.85993
21
-3.46557
0
LINE
8
BLACK
6
CONTINUOUS
10
4.85993
20
-3.46557
11
4.86192
21
-3.46522
0
LINE
8
BLACK
6
CONTINUOUS
10
4.86192
20
-3.46522
11
4.86367
21
-3.46623
0
LINE
8
BLACK
6
CONTINUOUS
10
4.86367
20
-3.46623
11
4.86436
21
-3.46813
0
LINE
8
BLACK
6
CONTINUOUS
10
4.86436
20
-3.46813
11
4.86436
21
-3.48392
0
LINE
8
BLACK
6
CONTINUOUS
10
4.86436
20
-3.48392
11
4.87721
21
-3.48392
0
LINE
8
BLACK
6
CONTINUOUS
10
4.87721
20
-3.48392
11
4.87721
21
-3.47375
0
LINE
8
BLACK
6
CONTINUOUS
10
4.87721
20
-3.47375
11
4.87738
21
-3.47274
0
LINE
8
BLACK
6
CONTINUOUS
10
4.87738
20
-3.47274
11
4.87868
21
-3.4712
0
LINE
8
BLACK
6
CONTINUOUS
10
4.87868
20
-3.4712
11
4.88067
21
-3.47085
0
LINE
8
BLACK
6
CONTINUOUS
10
4.88067
20
-3.47085
11
4.88242
21
-3.47186
0
LINE
8
BLACK
6
CONTINUOUS
10
4.88242
20
-3.47186
11
4.88311
21
-3.47375
0
LINE
8
BLACK
6
CONTINUOUS
10
4.88311
20
-3.47375
11
4.88311
21
-3.48392
0
LINE
8
BLACK
6
CONTINUOUS
10
4.88311
20
-3.48392
11
4.89783
21
-3.48392
0
LINE
8
BLACK
6
CONTINUOUS
10
4.89783
20
-3.48392
11
4.89783
21
-3.46813
0
LINE
8
BLACK
6
CONTINUOUS
10
4.89783
20
-3.46813
11
4.89801
21
-3.46712
0
LINE
8
BLACK
6
CONTINUOUS
10
4.89801
20
-3.46712
11
4.8993
21
-3.46557
0
LINE
8
BLACK
6
CONTINUOUS
10
4.8993
20
-3.46557
11
4.90129
21
-3.46522
0
LINE
8
BLACK
6
CONTINUOUS
10
4.90129
20
-3.46522
11
4.90304
21
-3.46623
0
LINE
8
BLACK
6
CONTINUOUS
10
4.90179
20
-3.43161
11
4.90334
21
-3.43291
0
LINE
8
BLACK
6
CONTINUOUS
10
4.90334
20
-3.43291
11
4.90369
21
-3.4349
0
LINE
8
BLACK
6
CONTINUOUS
10
4.90369
20
-3.4349
11
4.90303
21
-3.43603
0
LINE
8
BLACK
6
CONTINUOUS
10
4.90303
20
-3.43603
11
4.90342
21
-3.43681
0
LINE
8
BLACK
6
CONTINUOUS
10
4.90342
20
-3.43681
11
4.90371
21
-3.4378
0
LINE
8
BLACK
6
CONTINUOUS
10
4.90371
20
-3.4378
11
4.90367
21
-3.43797
0
LINE
8
BLACK
6
CONTINUOUS
10
4.90367
20
-3.43797
11
4.90373
21
-3.43813
0
LINE
8
BLACK
6
CONTINUOUS
10
4.90373
20
-3.43813
11
4.90373
21
-3.44563
0
LINE
8
BLACK
6
CONTINUOUS
10
4.90373
20
-3.44563
11
4.90355
21
-3.44664
0
LINE
8
BLACK
6
CONTINUOUS
10
4.90355
20
-3.44664
11
4.90344
21
-3.44678
0
LINE
8
BLACK
6
CONTINUOUS
10
4.90344
20
-3.44678
11
4.90342
21
-3.44695
0
LINE
8
BLACK
6
CONTINUOUS
10
4.90342
20
-3.44695
11
4.90155
21
-3.4507
0
LINE
8
BLACK
6
CONTINUOUS
10
4.90155
20
-3.4507
11
4.90102
21
-3.45141
0
LINE
8
BLACK
6
CONTINUOUS
10
4.90102
20
-3.45141
11
4.90099
21
-3.45147
0
LINE
8
BLACK
6
CONTINUOUS
10
4.90099
20
-3.45147
11
4.89912
21
-3.45334
0
LINE
8
BLACK
6
CONTINUOUS
10
4.89912
20
-3.45334
11
4.8984
21
-3.45385
0
LINE
8
BLACK
6
CONTINUOUS
10
4.8984
20
-3.45385
11
4.89835
21
-3.4539
0
LINE
8
BLACK
6
CONTINUOUS
10
4.89835
20
-3.4539
11
4.8946
21
-3.45577
0
LINE
8
BLACK
6
CONTINUOUS
10
4.8946
20
-3.45577
11
4.89362
21
-3.45606
0
LINE
8
BLACK
6
CONTINUOUS
10
4.89362
20
-3.45606
11
4.89345
21
-3.45602
0
LINE
8
BLACK
6
CONTINUOUS
10
4.89345
20
-3.45602
11
4.89328
21
-3.45608
0
LINE
8
BLACK
6
CONTINUOUS
10
4.89328
20
-3.45608
11
4.88203
21
-3.45608
0
LINE
8
BLACK
6
CONTINUOUS
10
4.88203
20
-3.45608
11
4.88102
21
-3.45591
0
LINE
8
BLACK
6
CONTINUOUS
10
4.88102
20
-3.45591
11
4.88089
21
-3.45579
0
LINE
8
BLACK
6
CONTINUOUS
10
4.88089
20
-3.45579
11
4.88071
21
-3.45577
0
LINE
8
BLACK
6
CONTINUOUS
10
4.88071
20
-3.45577
11
4.87696
21
-3.4539
0
LINE
8
BLACK
6
CONTINUOUS
10
4.87696
20
-3.4539
11
4.87625
21
-3.45337
0
LINE
8
BLACK
6
CONTINUOUS
10
4.87625
20
-3.45337
11
4.8762
21
-3.45334
0
LINE
8
BLACK
6
CONTINUOUS
10
4.8762
20
-3.45334
11
4.87432
21
-3.45147
0
LINE
8
BLACK
6
CONTINUOUS
10
4.87432
20
-3.45147
11
4.87381
21
-3.45075
0
LINE
8
BLACK
6
CONTINUOUS
10
4.87381
20
-3.45075
11
4.87377
21
-3.4507
0
LINE
8
BLACK
6
CONTINUOUS
10
4.87377
20
-3.4507
11
4.87189
21
-3.44695
0
LINE
8
BLACK
6
CONTINUOUS
10
4.87189
20
-3.44695
11
4.8716
21
-3.44597
0
LINE
8
BLACK
6
CONTINUOUS
10
4.8716
20
-3.44597
11
4.87164
21
-3.4458
0
LINE
8
BLACK
6
CONTINUOUS
10
4.87164
20
-3.4458
11
4.87158
21
-3.44563
0
LINE
8
BLACK
6
CONTINUOUS
10
4.87158
20
-3.44563
11
4.87158
21
-3.43813
0
LINE
8
BLACK
6
CONTINUOUS
10
4.87158
20
-3.43813
11
4.87172
21
-3.43734
0
LINE
8
BLACK
6
CONTINUOUS
10
4.87172
20
-3.43734
11
4.86141
21
-3.43734
0
LINE
8
BLACK
6
CONTINUOUS
10
4.86141
20
-3.43734
11
4.8604
21
-3.43716
0
LINE
8
BLACK
6
CONTINUOUS
10
4.8604
20
-3.43716
11
4.85885
21
-3.43586
0
LINE
8
BLACK
6
CONTINUOUS
10
4.85885
20
-3.43586
11
4.8585
21
-3.43387
0
LINE
8
BLACK
6
CONTINUOUS
10
4.8585
20
-3.43387
11
4.85951
21
-3.43212
0
LINE
8
BLACK
6
CONTINUOUS
10
4.85951
20
-3.43212
11
4.86141
21
-3.43143
0
LINE
8
BLACK
6
CONTINUOUS
10
4.86141
20
-3.43143
11
4.90078
21
-3.43143
0
LINE
8
BLACK
6
CONTINUOUS
10
4.90078
20
-3.43143
11
4.90179
21
-3.43161
0
LINE
8
BLACK
6
CONTINUOUS
10
4.87749
20
-3.43883
11
4.87749
21
-3.44493
0
LINE
8
BLACK
6
CONTINUOUS
10
4.87749
20
-3.44493
11
4.87884
21
-3.44763
0
LINE
8
BLACK
6
CONTINUOUS
10
4.87884
20
-3.44763
11
4.88003
21
-3.44883
0
LINE
8
BLACK
6
CONTINUOUS
10
4.88003
20
-3.44883
11
4.88273
21
-3.45018
0
LINE
8
BLACK
6
CONTINUOUS
10
4.88273
20
-3.45018
11
4.89258
21
-3.45018
0
LINE
8
BLACK
6
CONTINUOUS
10
4.89258
20
-3.45018
11
4.89528
21
-3.44883
0
LINE
8
BLACK
6
CONTINUOUS
10
4.89528
20
-3.44883
11
4.89648
21
-3.44763
0
LINE
8
BLACK
6
CONTINUOUS
10
4.89648
20
-3.44763
11
4.89783
21
-3.44493
0
LINE
8
BLACK
6
CONTINUOUS
10
4.89783
20
-3.44493
11
4.89783
21
-3.43883
0
LINE
8
BLACK
6
CONTINUOUS
10
4.89783
20
-3.43883
11
4.89708
21
-3.43734
0
LINE
8
BLACK
6
CONTINUOUS
10
4.89708
20
-3.43734
11
4.87823
21
-3.43734
0
LINE
8
BLACK
6
CONTINUOUS
10
4.87823
20
-3.43734
11
4.87749
21
-3.43883
0
LINE
8
BLACK
6
CONTINUOUS
10
4.90741
20
-3.39599
11
4.90755
21
-3.3961
0
LINE
8
BLACK
6
CONTINUOUS
10
4.90755
20
-3.3961
11
4.90773
21
-3.39612
0
LINE
8
BLACK
6
CONTINUOUS
10
4.90773
20
-3.39612
11
4.91147
21
-3.398
0
LINE
8
BLACK
6
CONTINUOUS
10
4.91147
20
-3.398
11
4.91218
21
-3.39852
0
LINE
8
BLACK
6
CONTINUOUS
10
4.91218
20
-3.39852
11
4.91224
21
-3.39855
0
LINE
8
BLACK
6
CONTINUOUS
10
4.91224
20
-3.39855
11
4.91412
21
-3.40042
0
LINE
8
BLACK
6
CONTINUOUS
10
4.91412
20
-3.40042
11
4.91462
21
-3.40115
0
LINE
8
BLACK
6
CONTINUOUS
10
4.91462
20
-3.40115
11
4.91467
21
-3.40119
0
LINE
8
BLACK
6
CONTINUOUS
10
4.91467
20
-3.40119
11
4.91654
21
-3.40494
0
LINE
8
BLACK
6
CONTINUOUS
10
4.91654
20
-3.40494
11
4.91684
21
-3.40592
0
LINE
8
BLACK
6
CONTINUOUS
10
4.91684
20
-3.40592
11
4.9168
21
-3.4061
0
LINE
8
BLACK
6
CONTINUOUS
10
4.9168
20
-3.4061
11
4.91686
21
-3.40626
0
LINE
8
BLACK
6
CONTINUOUS
10
4.91686
20
-3.40626
11
4.91686
21
-3.41189
0
LINE
8
BLACK
6
CONTINUOUS
10
4.91686
20
-3.41189
11
4.91668
21
-3.4129
0
LINE
8
BLACK
6
CONTINUOUS
10
4.91668
20
-3.4129
11
4.91656
21
-3.41303
0
LINE
8
BLACK
6
CONTINUOUS
10
4.91656
20
-3.41303
11
4.91654
21
-3.41321
0
LINE
8
BLACK
6
CONTINUOUS
10
4.91654
20
-3.41321
11
4.91467
21
-3.41696
0
LINE
8
BLACK
6
CONTINUOUS
10
4.91467
20
-3.41696
11
4.91406
21
-3.41778
0
LINE
8
BLACK
6
CONTINUOUS
10
4.91406
20
-3.41778
11
4.91221
21
-3.41858
0
LINE
8
BLACK
6
CONTINUOUS
10
4.91221
20
-3.41858
11
4.91027
21
-3.41801
0
LINE
8
BLACK
6
CONTINUOUS
10
4.91027
20
-3.41801
11
4.90916
21
-3.41632
0
LINE
8
BLACK
6
CONTINUOUS
10
4.90916
20
-3.41632
11
4.90939
21
-3.41431
0
LINE
8
BLACK
6
CONTINUOUS
10
4.90939
20
-3.41431
11
4.91095
21
-3.41119
0
LINE
8
BLACK
6
CONTINUOUS
10
4.91095
20
-3.41119
11
4.91095
21
-3.40696
0
LINE
8
BLACK
6
CONTINUOUS
10
4.91095
20
-3.40696
11
4.9096
21
-3.40426
0
LINE
8
BLACK
6
CONTINUOUS
10
4.9096
20
-3.40426
11
4.90841
21
-3.40306
0
LINE
8
BLACK
6
CONTINUOUS
10
4.90841
20
-3.40306
11
4.90571
21
-3.40172
0
LINE
8
BLACK
6
CONTINUOUS
10
4.90571
20
-3.40172
11
4.90358
21
-3.40172
0
LINE
8
BLACK
6
CONTINUOUS
10
4.90358
20
-3.40172
11
4.90371
21
-3.40217
0
LINE
8
BLACK
6
CONTINUOUS
10
4.90371
20
-3.40217
11
4.90367
21
-3.40235
0
LINE
8
BLACK
6
CONTINUOUS
10
4.90367
20
-3.40235
11
4.90373
21
-3.40251
0
LINE
8
BLACK
6
CONTINUOUS
10
4.90373
20
-3.40251
11
4.90373
21
-3.41001
0
LINE
8
BLACK
6
CONTINUOUS
10
4.90373
20
-3.41001
11
4.90355
21
-3.41102
0
LINE
8
BLACK
6
CONTINUOUS
10
4.90355
20
-3.41102
11
4.90344
21
-3.41116
0
LINE
8
BLACK
6
CONTINUOUS
10
4.90344
20
-3.41116
11
4.90342
21
-3.41133
0
LINE
8
BLACK
6
CONTINUOUS
10
4.90342
20
-3.41133
11
4.90155
21
-3.41508
0
LINE
8
BLACK
6
CONTINUOUS
10
4.90155
20
-3.41508
11
4.90102
21
-3.41579
0
LINE
8
BLACK
6
CONTINUOUS
10
4.90102
20
-3.41579
11
4.90099
21
-3.41585
0
LINE
8
BLACK
6
CONTINUOUS
10
4.90099
20
-3.41585
11
4.89912
21
-3.41772
0
LINE
8
BLACK
6
CONTINUOUS
10
4.89912
20
-3.41772
11
4.8984
21
-3.41823
0
LINE
8
BLACK
6
CONTINUOUS
10
4.8984
20
-3.41823
11
4.89835
21
-3.41828
0
LINE
8
BLACK
6
CONTINUOUS
10
4.89835
20
-3.41828
11
4.8946
21
-3.42015
0
LINE
8
BLACK
6
CONTINUOUS
10
4.8946
20
-3.42015
11
4.89362
21
-3.42044
0
LINE
8
BLACK
6
CONTINUOUS
10
4.89362
20
-3.42044
11
4.89345
21
-3.4204
0
LINE
8
BLACK
6
CONTINUOUS
10
4.89345
20
-3.4204
11
4.89328
21
-3.42046
0
LINE
8
BLACK
6
CONTINUOUS
10
4.89328
20
-3.42046
11
4.88203
21
-3.42046
0
LINE
8
BLACK
6
CONTINUOUS
10
4.88203
20
-3.42046
11
4.88102
21
-3.42028
0
LINE
8
BLACK
6
CONTINUOUS
10
4.88102
20
-3.42028
11
4.88089
21
-3.42017
0
LINE
8
BLACK
6
CONTINUOUS
10
4.88089
20
-3.42017
11
4.88071
21
-3.42015
0
LINE
8
BLACK
6
CONTINUOUS
10
4.88071
20
-3.42015
11
4.87696
21
-3.41828
0
LINE
8
BLACK
6
CONTINUOUS
10
4.87696
20
-3.41828
11
4.87625
21
-3.41775
0
LINE
8
BLACK
6
CONTINUOUS
10
4.87625
20
-3.41775
11
4.8762
21
-3.41772
0
LINE
8
BLACK
6
CONTINUOUS
10
4.8762
20
-3.41772
11
4.87432
21
-3.41585
0
LINE
8
BLACK
6
CONTINUOUS
10
4.87432
20
-3.41585
11
4.87381
21
-3.41513
0
LINE
8
BLACK
6
CONTINUOUS
10
4.87381
20
-3.41513
11
4.87377
21
-3.41508
0
LINE
8
BLACK
6
CONTINUOUS
10
4.87377
20
-3.41508
11
4.87189
21
-3.41133
0
LINE
8
BLACK
6
CONTINUOUS
10
4.87189
20
-3.41133
11
4.8716
21
-3.41035
0
LINE
8
BLACK
6
CONTINUOUS
10
4.8716
20
-3.41035
11
4.87164
21
-3.41018
0
LINE
8
BLACK
6
CONTINUOUS
10
4.87164
20
-3.41018
11
4.87158
21
-3.41001
0
LINE
8
BLACK
6
CONTINUOUS
10
4.87158
20
-3.41001
11
4.87158
21
-3.40251
0
LINE
8
BLACK
6
CONTINUOUS
10
4.87158
20
-3.40251
11
4.87176
21
-3.4015
0
LINE
8
BLACK
6
CONTINUOUS
10
4.87176
20
-3.4015
11
4.87187
21
-3.40137
0
LINE
8
BLACK
6
CONTINUOUS
10
4.87187
20
-3.40137
11
4.87189
21
-3.40119
0
LINE
8
BLACK
6
CONTINUOUS
10
4.87189
20
-3.40119
11
4.87225
21
-3.40047
0
LINE
8
BLACK
6
CONTINUOUS
10
4.87225
20
-3.40047
11
4.87198
21
-3.40024
0
LINE
8
BLACK
6
CONTINUOUS
10
4.87198
20
-3.40024
11
4.87163
21
-3.39825
0
LINE
8
BLACK
6
CONTINUOUS
10
4.87163
20
-3.39825
11
4.87264
21
-3.3965
0
LINE
8
BLACK
6
CONTINUOUS
10
4.87264
20
-3.3965
11
4.87453
21
-3.39581
0
LINE
8
BLACK
6
CONTINUOUS
10
4.87453
20
-3.39581
11
4.9064
21
-3.39581
0
LINE
8
BLACK
6
CONTINUOUS
10
4.9064
20
-3.39581
11
4.90741
21
-3.39599
0
LINE
8
BLACK
6
CONTINUOUS
10
4.87749
20
-3.40321
11
4.87749
21
-3.40931
0
LINE
8
BLACK
6
CONTINUOUS
10
4.87749
20
-3.40931
11
4.87884
21
-3.41201
0
LINE
8
BLACK
6
CONTINUOUS
10
4.87884
20
-3.41201
11
4.88003
21
-3.41321
0
LINE
8
BLACK
6
CONTINUOUS
10
4.88003
20
-3.41321
11
4.88273
21
-3.41456
0
LINE
8
BLACK
6
CONTINUOUS
10
4.88273
20
-3.41456
11
4.89258
21
-3.41456
0
LINE
8
BLACK
6
CONTINUOUS
10
4.89258
20
-3.41456
11
4.89528
21
-3.41321
0
LINE
8
BLACK
6
CONTINUOUS
10
4.89528
20
-3.41321
11
4.89648
21
-3.41201
0
LINE
8
BLACK
6
CONTINUOUS
10
4.89648
20
-3.41201
11
4.89783
21
-3.40931
0
LINE
8
BLACK
6
CONTINUOUS
10
4.89783
20
-3.40931
11
4.89783
21
-3.40321
0
LINE
8
BLACK
6
CONTINUOUS
10
4.89783
20
-3.40321
11
4.89708
21
-3.40172
0
LINE
8
BLACK
6
CONTINUOUS
10
4.89708
20
-3.40172
11
4.87823
21
-3.40172
0
LINE
8
BLACK
6
CONTINUOUS
10
4.87823
20
-3.40172
11
4.87749
21
-3.40321
0
LINE
8
BLACK
6
CONTINUOUS
10
4.88492
20
-3.36037
11
4.88529
21
-3.36068
0
LINE
8
BLACK
6
CONTINUOUS
10
4.88529
20
-3.36068
11
4.88575
21
-3.36084
0
LINE
8
BLACK
6
CONTINUOUS
10
4.88575
20
-3.36084
11
4.88604
21
-3.36131
0
LINE
8
BLACK
6
CONTINUOUS
10
4.88604
20
-3.36131
11
4.88646
21
-3.36167
0
LINE
8
BLACK
6
CONTINUOUS
10
4.88646
20
-3.36167
11
4.88655
21
-3.36215
0
LINE
8
BLACK
6
CONTINUOUS
10
4.88655
20
-3.36215
11
4.8868
21
-3.36256
0
LINE
8
BLACK
6
CONTINUOUS
10
4.8868
20
-3.36256
11
4.89008
21
-3.37894
0
LINE
8
BLACK
6
CONTINUOUS
10
4.89008
20
-3.37894
11
4.89446
21
-3.37894
0
LINE
8
BLACK
6
CONTINUOUS
10
4.89446
20
-3.37894
11
4.8967
21
-3.37781
0
LINE
8
BLACK
6
CONTINUOUS
10
4.8967
20
-3.37781
11
4.89783
21
-3.37557
0
LINE
8
BLACK
6
CONTINUOUS
10
4.89783
20
-3.37557
11
4.89783
21
-3.36946
0
LINE
8
BLACK
6
CONTINUOUS
10
4.89783
20
-3.36946
11
4.89626
21
-3.36634
0
LINE
8
BLACK
6
CONTINUOUS
10
4.89626
20
-3.36634
11
4.89597
21
-3.36535
0
LINE
8
BLACK
6
CONTINUOUS
10
4.89597
20
-3.36535
11
4.89644
21
-3.36339
0
LINE
8
BLACK
6
CONTINUOUS
10
4.89644
20
-3.36339
11
4.89806
21
-3.36219
0
LINE
8
BLACK
6
CONTINUOUS
10
4.89806
20
-3.36219
11
4.90008
21
-3.36231
0
LINE
8
BLACK
6
CONTINUOUS
10
4.90008
20
-3.36231
11
4.90155
21
-3.3637
0
LINE
8
BLACK
6
CONTINUOUS
10
4.90155
20
-3.3637
11
4.90342
21
-3.36745
0
LINE
8
BLACK
6
CONTINUOUS
10
4.90342
20
-3.36745
11
4.90371
21
-3.36843
0
LINE
8
BLACK
6
CONTINUOUS
10
4.90371
20
-3.36843
11
4.90367
21
-3.3686
0
LINE
8
BLACK
6
CONTINUOUS
10
4.90367
20
-3.3686
11
4.90373
21
-3.36877
0
LINE
8
BLACK
6
CONTINUOUS
10
4.90373
20
-3.36877
11
4.90373
21
-3.37627
0
LINE
8
BLACK
6
CONTINUOUS
10
4.90373
20
-3.37627
11
4.90355
21
-3.37728
0
LINE
8
BLACK
6
CONTINUOUS
10
4.90355
20
-3.37728
11
4.90344
21
-3.37741
0
LINE
8
BLACK
6
CONTINUOUS
10
4.90344
20
-3.37741
11
4.90342
21
-3.37759
0
LINE
8
BLACK
6
CONTINUOUS
10
4.90342
20
-3.37759
11
4.90155
21
-3.38134
0
LINE
8
BLACK
6
CONTINUOUS
10
4.90155
20
-3.38134
11
4.90094
21
-3.38216
0
LINE
8
BLACK
6
CONTINUOUS
10
4.90094
20
-3.38216
11
4.90053
21
-3.38233
0
LINE
8
BLACK
6
CONTINUOUS
10
4.90053
20
-3.38233
11
4.90023
21
-3.38266
0
LINE
8
BLACK
6
CONTINUOUS
10
4.90023
20
-3.38266
11
4.89648
21
-3.38453
0
LINE
8
BLACK
6
CONTINUOUS
10
4.89648
20
-3.38453
11
4.89549
21
-3.38482
0
LINE
8
BLACK
6
CONTINUOUS
10
4.89549
20
-3.38482
11
4.89532
21
-3.38478
0
LINE
8
BLACK
6
CONTINUOUS
10
4.89532
20
-3.38478
11
4.89516
21
-3.38484
0
LINE
8
BLACK
6
CONTINUOUS
10
4.89516
20
-3.38484
11
4.88016
21
-3.38484
0
LINE
8
BLACK
6
CONTINUOUS
10
4.88016
20
-3.38484
11
4.87915
21
-3.38466
0
LINE
8
BLACK
6
CONTINUOUS
10
4.87915
20
-3.38466
11
4.87901
21
-3.38455
0
LINE
8
BLACK
6
CONTINUOUS
10
4.87901
20
-3.38455
11
4.87884
21
-3.38453
0
LINE
8
BLACK
6
CONTINUOUS
10
4.87884
20
-3.38453
11
4.87509
21
-3.38266
0
LINE
8
BLACK
6
CONTINUOUS
10
4.87509
20
-3.38266
11
4.87426
21
-3.38205
0
LINE
8
BLACK
6
CONTINUOUS
10
4.87426
20
-3.38205
11
4.87409
21
-3.38164
0
LINE
8
BLACK
6
CONTINUOUS
10
4.87409
20
-3.38164
11
4.87377
21
-3.38134
0
LINE
8
BLACK
6
CONTINUOUS
10
4.87377
20
-3.38134
11
4.87189
21
-3.37759
0
LINE
8
BLACK
6
CONTINUOUS
10
4.87189
20
-3.37759
11
4.8716
21
-3.3766
0
LINE
8
BLACK
6
CONTINUOUS
10
4.8716
20
-3.3766
11
4.87164
21
-3.37643
0
LINE
8
BLACK
6
CONTINUOUS
10
4.87164
20
-3.37643
11
4.87158
21
-3.37627
0
LINE
8
BLACK
6
CONTINUOUS
10
4.87158
20
-3.37627
11
4.87158
21
-3.36877
0
LINE
8
BLACK
6
CONTINUOUS
10
4.87158
20
-3.36877
11
4.87176
21
-3.36776
0
LINE
8
BLACK
6
CONTINUOUS
10
4.87176
20
-3.36776
11
4.87187
21
-3.36762
0
LINE
8
BLACK
6
CONTINUOUS
10
4.87187
20
-3.36762
11
4.87189
21
-3.36745
0
LINE
8
BLACK
6
CONTINUOUS
10
4.87189
20
-3.36745
11
4.87377
21
-3.3637
0
LINE
8
BLACK
6
CONTINUOUS
10
4.87377
20
-3.3637
11
4.87438
21
-3.36287
0
LINE
8
BLACK
6
CONTINUOUS
10
4.87438
20
-3.36287
11
4.87478
21
-3.3627
0
LINE
8
BLACK
6
CONTINUOUS
10
4.87478
20
-3.3627
11
4.87509
21
-3.36238
0
LINE
8
BLACK
6
CONTINUOUS
10
4.87509
20
-3.36238
11
4.87884
21
-3.3605
0
LINE
8
BLACK
6
CONTINUOUS
10
4.87884
20
-3.3605
11
4.87982
21
-3.36021
0
LINE
8
BLACK
6
CONTINUOUS
10
4.87982
20
-3.36021
11
4.87999
21
-3.36025
0
LINE
8
BLACK
6
CONTINUOUS
10
4.87999
20
-3.36025
11
4.88016
21
-3.36019
0
LINE
8
BLACK
6
CONTINUOUS
10
4.88016
20
-3.36019
11
4.88391
21
-3.36019
0
LINE
8
BLACK
6
CONTINUOUS
10
4.88391
20
-3.36019
11
4.88492
21
-3.36037
0
LINE
8
BLACK
6
CONTINUOUS
10
4.87861
20
-3.36722
11
4.87749
21
-3.36946
0
LINE
8
BLACK
6
CONTINUOUS
10
4.87749
20
-3.36946
11
4.87749
21
-3.37557
0
LINE
8
BLACK
6
CONTINUOUS
10
4.87749
20
-3.37557
11
4.87861
21
-3.37781
0
LINE
8
BLACK
6
CONTINUOUS
10
4.87861
20
-3.37781
11
4.88085
21
-3.37894
0
LINE
8
BLACK
6
CONTINUOUS
10
4.88085
20
-3.37894
11
4.88406
21
-3.37894
0
LINE
8
BLACK
6
CONTINUOUS
10
4.88406
20
-3.37894
11
4.88149
21
-3.36609
0
LINE
8
BLACK
6
CONTINUOUS
10
4.88149
20
-3.36609
11
4.88085
21
-3.36609
0
LINE
8
BLACK
6
CONTINUOUS
10
4.88085
20
-3.36609
11
4.87861
21
-3.36722
  0
ENDSEC
  0
EOF
