  0
SECTION
  2
HEADER
  9
$ANGBASE
  50
0.0
  9
$ANGDIR
  70
1
  9
$MEASUREMENT
  70
0
  0
ENDSEC
  0
SECTION
  2
TABLES
  0
TABLE
  2
LTYPE
  70
4
  0
LTYPE
  5
40F
  2
CONTINUOUS
  70
0
  3
Solid line
  72
65
  73
0
  40
0.0
  0
LTYPE
  5
410
  2
DASHDOT
 70
0
  3
Dash Dot ____ _ ____ _
 72
65
 73
4
 40
2.0
 49
1.25
 49
-0.25
 49
0.25
 49
-0.25
  0
LTYPE
  5
411
  2
DASHED
 70
0
  3
Dashed __ __ __ __ __
 72
65
 73
2
 40
0.75
 49
0.5
 49
-0.25
  0
LTYPE
  5
43B
  2
DOTTED
 70
0
  3
Dotted .  .  .  .
 72
65
 73
2
 40
0.2
 49
0.0
 49
-0.2
  0
ENDTAB
  0
TABLE
  2
STYLE
  70
4
  0
STYLE
  2
KICAD
  70
0
  40
0
  41
1
  42
1
  50
0
  71
0
  3
isocp.shx
  0
STYLE
  2
KICADB
  70
0
  40
0
  41
1
  42
1
  50
0
  71
0
  3
isocp.shx
  0
STYLE
  2
KICADI
  70
0
  40
0
  41
1
  42
1
  50
15
  71
0
  3
isocp.shx
  0
STYLE
  2
KICADBI
  70
0
  40
0
  41
1
  42
1
  50
15
  71
0
  3
isocp.shx
  0
ENDTAB
  0
TABLE
  2
LAYER
  70
1
  0
LAYER
  2
BLACK
  70
0
  62
7
  6
CONTINUOUS
  0
ENDTAB
  0
ENDSEC
  0
SECTION
  2
ENTITIES
0
LINE
8
BLACK
6
CONTINUOUS
10
5.68615
20
-3.75764
11
5.69291
21
-3.76065
0
LINE
8
BLACK
6
CONTINUOUS
10
5.69291
20
-3.76065
11
5.69891
21
-3.76501
0
LINE
8
BLACK
6
CONTINUOUS
10
5.69891
20
-3.76501
11
5.70386
21
-3.77051
0
LINE
8
BLACK
6
CONTINUOUS
10
5.70386
20
-3.77051
11
5.70757
21
-3.77693
0
LINE
8
BLACK
6
CONTINUOUS
10
5.70757
20
-3.77693
11
5.70986
21
-3.78397
0
LINE
8
BLACK
6
CONTINUOUS
10
5.70986
20
-3.78397
11
5.71063
21
-3.79134
0
LINE
8
BLACK
6
CONTINUOUS
10
5.71063
20
-3.79134
11
5.71063
21
-3.81496
0
LINE
8
BLACK
6
CONTINUOUS
10
5.71063
20
-3.81496
11
5.70986
21
-3.82233
0
LINE
8
BLACK
6
CONTINUOUS
10
5.70986
20
-3.82233
11
5.70757
21
-3.82937
0
LINE
8
BLACK
6
CONTINUOUS
10
5.70757
20
-3.82937
11
5.70386
21
-3.83579
0
LINE
8
BLACK
6
CONTINUOUS
10
5.70386
20
-3.83579
11
5.69891
21
-3.84129
0
LINE
8
BLACK
6
CONTINUOUS
10
5.69891
20
-3.84129
11
5.69291
21
-3.84565
0
LINE
8
BLACK
6
CONTINUOUS
10
5.69291
20
-3.84565
11
5.68615
21
-3.84866
0
LINE
8
BLACK
6
CONTINUOUS
10
5.68615
20
-3.84866
11
5.6789
21
-3.8502
0
LINE
8
BLACK
6
CONTINUOUS
10
5.6789
20
-3.8502
11
5.67149
21
-3.8502
0
LINE
8
BLACK
6
CONTINUOUS
10
5.67149
20
-3.8502
11
5.66425
21
-3.84866
0
LINE
8
BLACK
6
CONTINUOUS
10
5.66425
20
-3.84866
11
5.65748
21
-3.84565
0
LINE
8
BLACK
6
CONTINUOUS
10
5.65748
20
-3.84565
11
5.65149
21
-3.84129
0
LINE
8
BLACK
6
CONTINUOUS
10
5.65149
20
-3.84129
11
5.64653
21
-3.83579
0
LINE
8
BLACK
6
CONTINUOUS
10
5.64653
20
-3.83579
11
5.64283
21
-3.82937
0
LINE
8
BLACK
6
CONTINUOUS
10
5.64283
20
-3.82937
11
5.64054
21
-3.82233
0
LINE
8
BLACK
6
CONTINUOUS
10
5.64054
20
-3.82233
11
5.63976
21
-3.81496
0
LINE
8
BLACK
6
CONTINUOUS
10
5.63976
20
-3.81496
11
5.63976
21
-3.79134
0
LINE
8
BLACK
6
CONTINUOUS
10
5.63976
20
-3.79134
11
5.64054
21
-3.78397
0
LINE
8
BLACK
6
CONTINUOUS
10
5.64054
20
-3.78397
11
5.64283
21
-3.77693
0
LINE
8
BLACK
6
CONTINUOUS
10
5.64283
20
-3.77693
11
5.64653
21
-3.77051
0
LINE
8
BLACK
6
CONTINUOUS
10
5.64653
20
-3.77051
11
5.65149
21
-3.76501
0
LINE
8
BLACK
6
CONTINUOUS
10
5.65149
20
-3.76501
11
5.65748
21
-3.76065
0
LINE
8
BLACK
6
CONTINUOUS
10
5.65748
20
-3.76065
11
5.66425
21
-3.75764
0
LINE
8
BLACK
6
CONTINUOUS
10
5.66425
20
-3.75764
11
5.67149
21
-3.7561
0
LINE
8
BLACK
6
CONTINUOUS
10
5.67149
20
-3.7561
11
5.6789
21
-3.7561
0
LINE
8
BLACK
6
CONTINUOUS
10
5.6789
20
-3.7561
11
5.68615
21
-3.75764
0
LINE
8
BLACK
6
CONTINUOUS
10
5.62826
20
-3.76927
11
5.63068
21
-3.77089
0
LINE
8
BLACK
6
CONTINUOUS
10
5.63068
20
-3.77089
11
5.6323
21
-3.77332
0
LINE
8
BLACK
6
CONTINUOUS
10
5.6323
20
-3.77332
11
5.63287
21
-3.77618
0
LINE
8
BLACK
6
CONTINUOUS
10
5.63287
20
-3.77618
11
5.63287
21
-3.83012
0
LINE
8
BLACK
6
CONTINUOUS
10
5.63287
20
-3.83012
11
5.6323
21
-3.83298
0
LINE
8
BLACK
6
CONTINUOUS
10
5.6323
20
-3.83298
11
5.63068
21
-3.83541
0
LINE
8
BLACK
6
CONTINUOUS
10
5.63068
20
-3.83541
11
5.62826
21
-3.83703
0
LINE
8
BLACK
6
CONTINUOUS
10
5.62826
20
-3.83703
11
5.62539
21
-3.8376
0
LINE
8
BLACK
6
CONTINUOUS
10
5.62539
20
-3.8376
11
5.60295
21
-3.8376
0
LINE
8
BLACK
6
CONTINUOUS
10
5.60295
20
-3.8376
11
5.60009
21
-3.83703
0
LINE
8
BLACK
6
CONTINUOUS
10
5.60009
20
-3.83703
11
5.59766
21
-3.83541
0
LINE
8
BLACK
6
CONTINUOUS
10
5.59766
20
-3.83541
11
5.59604
21
-3.83298
0
LINE
8
BLACK
6
CONTINUOUS
10
5.59604
20
-3.83298
11
5.59547
21
-3.83012
0
LINE
8
BLACK
6
CONTINUOUS
10
5.59547
20
-3.83012
11
5.59547
21
-3.77618
0
LINE
8
BLACK
6
CONTINUOUS
10
5.59547
20
-3.77618
11
5.59604
21
-3.77332
0
LINE
8
BLACK
6
CONTINUOUS
10
5.59604
20
-3.77332
11
5.59766
21
-3.77089
0
LINE
8
BLACK
6
CONTINUOUS
10
5.59766
20
-3.77089
11
5.60009
21
-3.76927
0
LINE
8
BLACK
6
CONTINUOUS
10
5.60009
20
-3.76927
11
5.60295
21
-3.7687
0
LINE
8
BLACK
6
CONTINUOUS
10
5.60295
20
-3.7687
11
5.62539
21
-3.7687
0
LINE
8
BLACK
6
CONTINUOUS
10
5.62539
20
-3.7687
11
5.62826
21
-3.76927
0
LINE
8
BLACK
6
CONTINUOUS
10
5.7503
20
-3.76927
11
5.75273
21
-3.77089
0
LINE
8
BLACK
6
CONTINUOUS
10
5.75273
20
-3.77089
11
5.75435
21
-3.77332
0
LINE
8
BLACK
6
CONTINUOUS
10
5.75435
20
-3.77332
11
5.75492
21
-3.77618
0
LINE
8
BLACK
6
CONTINUOUS
10
5.75492
20
-3.77618
11
5.75492
21
-3.83012
0
LINE
8
BLACK
6
CONTINUOUS
10
5.75492
20
-3.83012
11
5.75435
21
-3.83298
0
LINE
8
BLACK
6
CONTINUOUS
10
5.75435
20
-3.83298
11
5.75273
21
-3.83541
0
LINE
8
BLACK
6
CONTINUOUS
10
5.75273
20
-3.83541
11
5.7503
21
-3.83703
0
LINE
8
BLACK
6
CONTINUOUS
10
5.7503
20
-3.83703
11
5.74744
21
-3.8376
0
LINE
8
BLACK
6
CONTINUOUS
10
5.74744
20
-3.8376
11
5.725
21
-3.8376
0
LINE
8
BLACK
6
CONTINUOUS
10
5.725
20
-3.8376
11
5.72214
21
-3.83703
0
LINE
8
BLACK
6
CONTINUOUS
10
5.72214
20
-3.83703
11
5.71971
21
-3.83541
0
LINE
8
BLACK
6
CONTINUOUS
10
5.71971
20
-3.83541
11
5.71809
21
-3.83298
0
LINE
8
BLACK
6
CONTINUOUS
10
5.71809
20
-3.83298
11
5.71752
21
-3.83012
0
LINE
8
BLACK
6
CONTINUOUS
10
5.71752
20
-3.83012
11
5.71752
21
-3.77618
0
LINE
8
BLACK
6
CONTINUOUS
10
5.71752
20
-3.77618
11
5.71809
21
-3.77332
0
LINE
8
BLACK
6
CONTINUOUS
10
5.71809
20
-3.77332
11
5.71971
21
-3.77089
0
LINE
8
BLACK
6
CONTINUOUS
10
5.71971
20
-3.77089
11
5.72214
21
-3.76927
0
LINE
8
BLACK
6
CONTINUOUS
10
5.72214
20
-3.76927
11
5.725
21
-3.7687
0
LINE
8
BLACK
6
CONTINUOUS
10
5.725
20
-3.7687
11
5.74744
21
-3.7687
0
LINE
8
BLACK
6
CONTINUOUS
10
5.74744
20
-3.7687
11
5.7503
21
-3.76927
0
LINE
8
BLACK
6
CONTINUOUS
10
5.05381
20
-3.77319
11
5.057
21
-3.77532
0
LINE
8
BLACK
6
CONTINUOUS
10
5.057
20
-3.77532
11
5.05913
21
-3.77852
0
LINE
8
BLACK
6
CONTINUOUS
10
5.05913
20
-3.77852
11
5.05988
21
-3.78228
0
LINE
8
BLACK
6
CONTINUOUS
10
5.05988
20
-3.78228
11
5.05988
21
-3.81772
0
LINE
8
BLACK
6
CONTINUOUS
10
5.05988
20
-3.81772
11
5.05913
21
-3.82148
0
LINE
8
BLACK
6
CONTINUOUS
10
5.05913
20
-3.82148
11
5.057
21
-3.82468
0
LINE
8
BLACK
6
CONTINUOUS
10
5.057
20
-3.82468
11
5.05381
21
-3.82681
0
LINE
8
BLACK
6
CONTINUOUS
10
5.05381
20
-3.82681
11
5.05004
21
-3.82756
0
LINE
8
BLACK
6
CONTINUOUS
10
5.05004
20
-3.82756
11
5.02248
21
-3.82756
0
LINE
8
BLACK
6
CONTINUOUS
10
5.02248
20
-3.82756
11
5.01871
21
-3.82681
0
LINE
8
BLACK
6
CONTINUOUS
10
5.01871
20
-3.82681
11
5.01552
21
-3.82468
0
LINE
8
BLACK
6
CONTINUOUS
10
5.01552
20
-3.82468
11
5.01339
21
-3.82148
0
LINE
8
BLACK
6
CONTINUOUS
10
5.01339
20
-3.82148
11
5.01264
21
-3.81772
0
LINE
8
BLACK
6
CONTINUOUS
10
5.01264
20
-3.81772
11
5.01264
21
-3.78228
0
LINE
8
BLACK
6
CONTINUOUS
10
5.01264
20
-3.78228
11
5.01339
21
-3.77852
0
LINE
8
BLACK
6
CONTINUOUS
10
5.01339
20
-3.77852
11
5.01552
21
-3.77532
0
LINE
8
BLACK
6
CONTINUOUS
10
5.01552
20
-3.77532
11
5.01871
21
-3.77319
0
LINE
8
BLACK
6
CONTINUOUS
10
5.01871
20
-3.77319
11
5.02248
21
-3.77244
0
LINE
8
BLACK
6
CONTINUOUS
10
5.02248
20
-3.77244
11
5.05004
21
-3.77244
0
LINE
8
BLACK
6
CONTINUOUS
10
5.05004
20
-3.77244
11
5.05381
21
-3.77319
0
LINE
8
BLACK
6
CONTINUOUS
10
5.13255
20
-3.77319
11
5.13574
21
-3.77532
0
LINE
8
BLACK
6
CONTINUOUS
10
5.13574
20
-3.77532
11
5.13787
21
-3.77852
0
LINE
8
BLACK
6
CONTINUOUS
10
5.13787
20
-3.77852
11
5.13862
21
-3.78228
0
LINE
8
BLACK
6
CONTINUOUS
10
5.13862
20
-3.78228
11
5.13862
21
-3.81772
0
LINE
8
BLACK
6
CONTINUOUS
10
5.13862
20
-3.81772
11
5.13787
21
-3.82148
0
LINE
8
BLACK
6
CONTINUOUS
10
5.13787
20
-3.82148
11
5.13574
21
-3.82468
0
LINE
8
BLACK
6
CONTINUOUS
10
5.13574
20
-3.82468
11
5.13255
21
-3.82681
0
LINE
8
BLACK
6
CONTINUOUS
10
5.13255
20
-3.82681
11
5.12878
21
-3.82756
0
LINE
8
BLACK
6
CONTINUOUS
10
5.12878
20
-3.82756
11
5.10122
21
-3.82756
0
LINE
8
BLACK
6
CONTINUOUS
10
5.10122
20
-3.82756
11
5.09745
21
-3.82681
0
LINE
8
BLACK
6
CONTINUOUS
10
5.09745
20
-3.82681
11
5.09426
21
-3.82468
0
LINE
8
BLACK
6
CONTINUOUS
10
5.09426
20
-3.82468
11
5.09213
21
-3.82148
0
LINE
8
BLACK
6
CONTINUOUS
10
5.09213
20
-3.82148
11
5.09138
21
-3.81772
0
LINE
8
BLACK
6
CONTINUOUS
10
5.09138
20
-3.81772
11
5.09138
21
-3.78228
0
LINE
8
BLACK
6
CONTINUOUS
10
5.09138
20
-3.78228
11
5.09213
21
-3.77852
0
LINE
8
BLACK
6
CONTINUOUS
10
5.09213
20
-3.77852
11
5.09426
21
-3.77532
0
LINE
8
BLACK
6
CONTINUOUS
10
5.09426
20
-3.77532
11
5.09745
21
-3.77319
0
LINE
8
BLACK
6
CONTINUOUS
10
5.09745
20
-3.77319
11
5.10122
21
-3.77244
0
LINE
8
BLACK
6
CONTINUOUS
10
5.10122
20
-3.77244
11
5.12878
21
-3.77244
0
LINE
8
BLACK
6
CONTINUOUS
10
5.12878
20
-3.77244
11
5.13255
21
-3.77319
0
LINE
8
BLACK
6
CONTINUOUS
10
5.21381
20
-3.77319
11
5.217
21
-3.77532
0
LINE
8
BLACK
6
CONTINUOUS
10
5.217
20
-3.77532
11
5.21913
21
-3.77852
0
LINE
8
BLACK
6
CONTINUOUS
10
5.21913
20
-3.77852
11
5.21988
21
-3.78228
0
LINE
8
BLACK
6
CONTINUOUS
10
5.21988
20
-3.78228
11
5.21988
21
-3.81772
0
LINE
8
BLACK
6
CONTINUOUS
10
5.21988
20
-3.81772
11
5.21913
21
-3.82148
0
LINE
8
BLACK
6
CONTINUOUS
10
5.21913
20
-3.82148
11
5.217
21
-3.82468
0
LINE
8
BLACK
6
CONTINUOUS
10
5.217
20
-3.82468
11
5.21381
21
-3.82681
0
LINE
8
BLACK
6
CONTINUOUS
10
5.21381
20
-3.82681
11
5.21004
21
-3.82756
0
LINE
8
BLACK
6
CONTINUOUS
10
5.21004
20
-3.82756
11
5.18248
21
-3.82756
0
LINE
8
BLACK
6
CONTINUOUS
10
5.18248
20
-3.82756
11
5.17871
21
-3.82681
0
LINE
8
BLACK
6
CONTINUOUS
10
5.17871
20
-3.82681
11
5.17552
21
-3.82468
0
LINE
8
BLACK
6
CONTINUOUS
10
5.17552
20
-3.82468
11
5.17339
21
-3.82148
0
LINE
8
BLACK
6
CONTINUOUS
10
5.17339
20
-3.82148
11
5.17264
21
-3.81772
0
LINE
8
BLACK
6
CONTINUOUS
10
5.17264
20
-3.81772
11
5.17264
21
-3.78228
0
LINE
8
BLACK
6
CONTINUOUS
10
5.17264
20
-3.78228
11
5.17339
21
-3.77852
0
LINE
8
BLACK
6
CONTINUOUS
10
5.17339
20
-3.77852
11
5.17552
21
-3.77532
0
LINE
8
BLACK
6
CONTINUOUS
10
5.17552
20
-3.77532
11
5.17871
21
-3.77319
0
LINE
8
BLACK
6
CONTINUOUS
10
5.17871
20
-3.77319
11
5.18248
21
-3.77244
0
LINE
8
BLACK
6
CONTINUOUS
10
5.18248
20
-3.77244
11
5.21004
21
-3.77244
0
LINE
8
BLACK
6
CONTINUOUS
10
5.21004
20
-3.77244
11
5.21381
21
-3.77319
0
LINE
8
BLACK
6
CONTINUOUS
10
5.29255
20
-3.77319
11
5.29574
21
-3.77532
0
LINE
8
BLACK
6
CONTINUOUS
10
5.29574
20
-3.77532
11
5.29787
21
-3.77852
0
LINE
8
BLACK
6
CONTINUOUS
10
5.29787
20
-3.77852
11
5.29862
21
-3.78228
0
LINE
8
BLACK
6
CONTINUOUS
10
5.29862
20
-3.78228
11
5.29862
21
-3.81772
0
LINE
8
BLACK
6
CONTINUOUS
10
5.29862
20
-3.81772
11
5.29787
21
-3.82148
0
LINE
8
BLACK
6
CONTINUOUS
10
5.29787
20
-3.82148
11
5.29574
21
-3.82468
0
LINE
8
BLACK
6
CONTINUOUS
10
5.29574
20
-3.82468
11
5.29255
21
-3.82681
0
LINE
8
BLACK
6
CONTINUOUS
10
5.29255
20
-3.82681
11
5.28878
21
-3.82756
0
LINE
8
BLACK
6
CONTINUOUS
10
5.28878
20
-3.82756
11
5.26122
21
-3.82756
0
LINE
8
BLACK
6
CONTINUOUS
10
5.26122
20
-3.82756
11
5.25745
21
-3.82681
0
LINE
8
BLACK
6
CONTINUOUS
10
5.25745
20
-3.82681
11
5.25426
21
-3.82468
0
LINE
8
BLACK
6
CONTINUOUS
10
5.25426
20
-3.82468
11
5.25213
21
-3.82148
0
LINE
8
BLACK
6
CONTINUOUS
10
5.25213
20
-3.82148
11
5.25138
21
-3.81772
0
LINE
8
BLACK
6
CONTINUOUS
10
5.25138
20
-3.81772
11
5.25138
21
-3.78228
0
LINE
8
BLACK
6
CONTINUOUS
10
5.25138
20
-3.78228
11
5.25213
21
-3.77852
0
LINE
8
BLACK
6
CONTINUOUS
10
5.25213
20
-3.77852
11
5.25426
21
-3.77532
0
LINE
8
BLACK
6
CONTINUOUS
10
5.25426
20
-3.77532
11
5.25745
21
-3.77319
0
LINE
8
BLACK
6
CONTINUOUS
10
5.25745
20
-3.77319
11
5.26122
21
-3.77244
0
LINE
8
BLACK
6
CONTINUOUS
10
5.26122
20
-3.77244
11
5.28878
21
-3.77244
0
LINE
8
BLACK
6
CONTINUOUS
10
5.28878
20
-3.77244
11
5.29255
21
-3.77319
0
LINE
8
BLACK
6
CONTINUOUS
10
5.84038
20
-3.76847
11
5.84357
21
-3.7706
0
LINE
8
BLACK
6
CONTINUOUS
10
5.84357
20
-3.7706
11
5.84571
21
-3.77379
0
LINE
8
BLACK
6
CONTINUOUS
10
5.84571
20
-3.77379
11
5.84646
21
-3.77756
0
LINE
8
BLACK
6
CONTINUOUS
10
5.84646
20
-3.77756
11
5.84646
21
-3.81299
0
LINE
8
BLACK
6
CONTINUOUS
10
5.84646
20
-3.81299
11
5.84571
21
-3.81676
0
LINE
8
BLACK
6
CONTINUOUS
10
5.84571
20
-3.81676
11
5.84357
21
-3.81995
0
LINE
8
BLACK
6
CONTINUOUS
10
5.84357
20
-3.81995
11
5.84038
21
-3.82209
0
LINE
8
BLACK
6
CONTINUOUS
10
5.84038
20
-3.82209
11
5.83661
21
-3.82283
0
LINE
8
BLACK
6
CONTINUOUS
10
5.83661
20
-3.82283
11
5.80906
21
-3.82283
0
LINE
8
BLACK
6
CONTINUOUS
10
5.80906
20
-3.82283
11
5.80529
21
-3.82209
0
LINE
8
BLACK
6
CONTINUOUS
10
5.80529
20
-3.82209
11
5.8021
21
-3.81995
0
LINE
8
BLACK
6
CONTINUOUS
10
5.8021
20
-3.81995
11
5.79996
21
-3.81676
0
LINE
8
BLACK
6
CONTINUOUS
10
5.79996
20
-3.81676
11
5.79921
21
-3.81299
0
LINE
8
BLACK
6
CONTINUOUS
10
5.79921
20
-3.81299
11
5.79921
21
-3.77756
0
LINE
8
BLACK
6
CONTINUOUS
10
5.79921
20
-3.77756
11
5.79996
21
-3.77379
0
LINE
8
BLACK
6
CONTINUOUS
10
5.79996
20
-3.77379
11
5.8021
21
-3.7706
0
LINE
8
BLACK
6
CONTINUOUS
10
5.8021
20
-3.7706
11
5.80529
21
-3.76847
0
LINE
8
BLACK
6
CONTINUOUS
10
5.80529
20
-3.76847
11
5.80906
21
-3.76772
0
LINE
8
BLACK
6
CONTINUOUS
10
5.80906
20
-3.76772
11
5.83661
21
-3.76772
0
LINE
8
BLACK
6
CONTINUOUS
10
5.83661
20
-3.76772
11
5.84038
21
-3.76847
0
LINE
8
BLACK
6
CONTINUOUS
10
5.91912
20
-3.76847
11
5.92231
21
-3.7706
0
LINE
8
BLACK
6
CONTINUOUS
10
5.92231
20
-3.7706
11
5.92445
21
-3.77379
0
LINE
8
BLACK
6
CONTINUOUS
10
5.92445
20
-3.77379
11
5.9252
21
-3.77756
0
LINE
8
BLACK
6
CONTINUOUS
10
5.9252
20
-3.77756
11
5.9252
21
-3.81299
0
LINE
8
BLACK
6
CONTINUOUS
10
5.9252
20
-3.81299
11
5.92445
21
-3.81676
0
LINE
8
BLACK
6
CONTINUOUS
10
5.92445
20
-3.81676
11
5.92231
21
-3.81995
0
LINE
8
BLACK
6
CONTINUOUS
10
5.92231
20
-3.81995
11
5.91912
21
-3.82209
0
LINE
8
BLACK
6
CONTINUOUS
10
5.91912
20
-3.82209
11
5.91535
21
-3.82283
0
LINE
8
BLACK
6
CONTINUOUS
10
5.91535
20
-3.82283
11
5.8878
21
-3.82283
0
LINE
8
BLACK
6
CONTINUOUS
10
5.8878
20
-3.82283
11
5.88403
21
-3.82209
0
LINE
8
BLACK
6
CONTINUOUS
10
5.88403
20
-3.82209
11
5.88084
21
-3.81995
0
LINE
8
BLACK
6
CONTINUOUS
10
5.88084
20
-3.81995
11
5.8787
21
-3.81676
0
LINE
8
BLACK
6
CONTINUOUS
10
5.8787
20
-3.81676
11
5.87795
21
-3.81299
0
LINE
8
BLACK
6
CONTINUOUS
10
5.87795
20
-3.81299
11
5.87795
21
-3.77756
0
LINE
8
BLACK
6
CONTINUOUS
10
5.87795
20
-3.77756
11
5.8787
21
-3.77379
0
LINE
8
BLACK
6
CONTINUOUS
10
5.8787
20
-3.77379
11
5.88084
21
-3.7706
0
LINE
8
BLACK
6
CONTINUOUS
10
5.88084
20
-3.7706
11
5.88403
21
-3.76847
0
LINE
8
BLACK
6
CONTINUOUS
10
5.88403
20
-3.76847
11
5.8878
21
-3.76772
0
LINE
8
BLACK
6
CONTINUOUS
10
5.8878
20
-3.76772
11
5.91535
21
-3.76772
0
LINE
8
BLACK
6
CONTINUOUS
10
5.91535
20
-3.76772
11
5.91912
21
-3.76847
0
LINE
8
BLACK
6
CONTINUOUS
10
6.01772
20
-3.81299
11
5.99606
21
-3.81299
0
LINE
8
BLACK
6
CONTINUOUS
10
5.99606
20
-3.81299
11
5.99606
21
-3.81279
0
LINE
8
BLACK
6
CONTINUOUS
10
5.99606
20
-3.81279
11
5.99326
21
-3.81279
0
LINE
8
BLACK
6
CONTINUOUS
10
5.99326
20
-3.81279
11
5.98789
21
-3.81121
0
LINE
8
BLACK
6
CONTINUOUS
10
5.98789
20
-3.81121
11
5.98317
21
-3.80818
0
LINE
8
BLACK
6
CONTINUOUS
10
5.98317
20
-3.80818
11
5.9795
21
-3.80395
0
LINE
8
BLACK
6
CONTINUOUS
10
5.9795
20
-3.80395
11
5.97718
21
-3.79885
0
LINE
8
BLACK
6
CONTINUOUS
10
5.97718
20
-3.79885
11
5.97638
21
-3.79331
0
LINE
8
BLACK
6
CONTINUOUS
10
5.97638
20
-3.79331
11
5.97638
21
-3.77362
0
LINE
8
BLACK
6
CONTINUOUS
10
5.97638
20
-3.77362
11
5.97718
21
-3.76808
0
LINE
8
BLACK
6
CONTINUOUS
10
5.97718
20
-3.76808
11
5.9795
21
-3.76298
0
LINE
8
BLACK
6
CONTINUOUS
10
5.9795
20
-3.76298
11
5.98317
21
-3.75875
0
LINE
8
BLACK
6
CONTINUOUS
10
5.98317
20
-3.75875
11
5.98789
21
-3.75572
0
LINE
8
BLACK
6
CONTINUOUS
10
5.98789
20
-3.75572
11
5.99326
21
-3.75414
0
LINE
8
BLACK
6
CONTINUOUS
10
5.99326
20
-3.75414
11
5.99606
21
-3.75414
0
LINE
8
BLACK
6
CONTINUOUS
10
5.99606
20
-3.75414
11
5.99606
21
-3.75394
0
LINE
8
BLACK
6
CONTINUOUS
10
5.99606
20
-3.75394
11
6.01772
21
-3.75394
0
LINE
8
BLACK
6
CONTINUOUS
10
6.01772
20
-3.75394
11
6.01772
21
-3.81299
0
LINE
8
BLACK
6
CONTINUOUS
10
6.06693
20
-3.81299
11
6.02756
21
-3.81299
0
LINE
8
BLACK
6
CONTINUOUS
10
6.02756
20
-3.81299
11
6.02756
21
-3.75394
0
LINE
8
BLACK
6
CONTINUOUS
10
6.02756
20
-3.75394
11
6.06693
21
-3.75394
0
LINE
8
BLACK
6
CONTINUOUS
10
6.06693
20
-3.75394
11
6.06693
21
-3.81299
0
LINE
8
BLACK
6
CONTINUOUS
10
6.09843
20
-3.75414
11
6.10123
21
-3.75414
0
LINE
8
BLACK
6
CONTINUOUS
10
6.10123
20
-3.75414
11
6.1066
21
-3.75572
0
LINE
8
BLACK
6
CONTINUOUS
10
6.1066
20
-3.75572
11
6.11132
21
-3.75875
0
LINE
8
BLACK
6
CONTINUOUS
10
6.11132
20
-3.75875
11
6.11499
21
-3.76298
0
LINE
8
BLACK
6
CONTINUOUS
10
6.11499
20
-3.76298
11
6.11731
21
-3.76808
0
LINE
8
BLACK
6
CONTINUOUS
10
6.11731
20
-3.76808
11
6.11811
21
-3.77362
0
LINE
8
BLACK
6
CONTINUOUS
10
6.11811
20
-3.77362
11
6.11811
21
-3.79331
0
LINE
8
BLACK
6
CONTINUOUS
10
6.11811
20
-3.79331
11
6.11731
21
-3.79885
0
LINE
8
BLACK
6
CONTINUOUS
10
6.11731
20
-3.79885
11
6.11499
21
-3.80395
0
LINE
8
BLACK
6
CONTINUOUS
10
6.11499
20
-3.80395
11
6.11132
21
-3.80818
0
LINE
8
BLACK
6
CONTINUOUS
10
6.11132
20
-3.80818
11
6.1066
21
-3.81121
0
LINE
8
BLACK
6
CONTINUOUS
10
6.1066
20
-3.81121
11
6.10123
21
-3.81279
0
LINE
8
BLACK
6
CONTINUOUS
10
6.10123
20
-3.81279
11
6.09843
21
-3.81279
0
LINE
8
BLACK
6
CONTINUOUS
10
6.09843
20
-3.81279
11
6.09843
21
-3.81299
0
LINE
8
BLACK
6
CONTINUOUS
10
6.09843
20
-3.81299
11
6.07677
21
-3.81299
0
LINE
8
BLACK
6
CONTINUOUS
10
6.07677
20
-3.81299
11
6.07677
21
-3.75394
0
LINE
8
BLACK
6
CONTINUOUS
10
6.07677
20
-3.75394
11
6.09843
21
-3.75394
0
LINE
8
BLACK
6
CONTINUOUS
10
6.09843
20
-3.75394
11
6.09843
21
-3.75414
0
LINE
8
BLACK
6
CONTINUOUS
10
6.63213
20
-3.64924
11
6.64239
21
-3.65241
0
LINE
8
BLACK
6
CONTINUOUS
10
6.64239
20
-3.65241
11
6.65207
21
-3.65707
0
LINE
8
BLACK
6
CONTINUOUS
10
6.65207
20
-3.65707
11
6.66094
21
-3.66312
0
LINE
8
BLACK
6
CONTINUOUS
10
6.66094
20
-3.66312
11
6.66881
21
-3.67042
0
LINE
8
BLACK
6
CONTINUOUS
10
6.66881
20
-3.67042
11
6.67551
21
-3.67882
0
LINE
8
BLACK
6
CONTINUOUS
10
6.67551
20
-3.67882
11
6.68088
21
-3.68812
0
LINE
8
BLACK
6
CONTINUOUS
10
6.68088
20
-3.68812
11
6.6848
21
-3.69811
0
LINE
8
BLACK
6
CONTINUOUS
10
6.6848
20
-3.69811
11
6.68719
21
-3.70858
0
LINE
8
BLACK
6
CONTINUOUS
10
6.68719
20
-3.70858
11
6.68799
21
-3.71929
0
LINE
8
BLACK
6
CONTINUOUS
10
6.68799
20
-3.71929
11
6.68719
21
-3.73
0
LINE
8
BLACK
6
CONTINUOUS
10
6.68719
20
-3.73
11
6.6848
21
-3.74047
0
LINE
8
BLACK
6
CONTINUOUS
10
6.6848
20
-3.74047
11
6.68088
21
-3.75047
0
LINE
8
BLACK
6
CONTINUOUS
10
6.68088
20
-3.75047
11
6.67551
21
-3.75977
0
LINE
8
BLACK
6
CONTINUOUS
10
6.67551
20
-3.75977
11
6.66881
21
-3.76816
0
LINE
8
BLACK
6
CONTINUOUS
10
6.66881
20
-3.76816
11
6.66094
21
-3.77547
0
LINE
8
BLACK
6
CONTINUOUS
10
6.66094
20
-3.77547
11
6.65207
21
-3.78152
0
LINE
8
BLACK
6
CONTINUOUS
10
6.65207
20
-3.78152
11
6.64239
21
-3.78618
0
LINE
8
BLACK
6
CONTINUOUS
10
6.64239
20
-3.78618
11
6.63213
21
-3.78934
0
LINE
8
BLACK
6
CONTINUOUS
10
6.63213
20
-3.78934
11
6.62151
21
-3.79094
0
LINE
8
BLACK
6
CONTINUOUS
10
6.62151
20
-3.79094
11
6.61077
21
-3.79094
0
LINE
8
BLACK
6
CONTINUOUS
10
6.61077
20
-3.79094
11
6.60015
21
-3.78934
0
LINE
8
BLACK
6
CONTINUOUS
10
6.60015
20
-3.78934
11
6.58989
21
-3.78618
0
LINE
8
BLACK
6
CONTINUOUS
10
6.58989
20
-3.78618
11
6.58022
21
-3.78152
0
LINE
8
BLACK
6
CONTINUOUS
10
6.58022
20
-3.78152
11
6.57134
21
-3.77547
0
LINE
8
BLACK
6
CONTINUOUS
10
6.57134
20
-3.77547
11
6.56347
21
-3.76816
0
LINE
8
BLACK
6
CONTINUOUS
10
6.56347
20
-3.76816
11
6.55678
21
-3.75977
0
LINE
8
BLACK
6
CONTINUOUS
10
6.55678
20
-3.75977
11
6.55141
21
-3.75047
0
LINE
8
BLACK
6
CONTINUOUS
10
6.55141
20
-3.75047
11
6.54748
21
-3.74047
0
LINE
8
BLACK
6
CONTINUOUS
10
6.54748
20
-3.74047
11
6.54509
21
-3.73
0
LINE
8
BLACK
6
CONTINUOUS
10
6.54509
20
-3.73
11
6.54429
21
-3.71929
0
LINE
8
BLACK
6
CONTINUOUS
10
6.54429
20
-3.71929
11
6.54509
21
-3.70858
0
LINE
8
BLACK
6
CONTINUOUS
10
6.54509
20
-3.70858
11
6.54748
21
-3.69811
0
LINE
8
BLACK
6
CONTINUOUS
10
6.54748
20
-3.69811
11
6.55141
21
-3.68812
0
LINE
8
BLACK
6
CONTINUOUS
10
6.55141
20
-3.68812
11
6.55678
21
-3.67882
0
LINE
8
BLACK
6
CONTINUOUS
10
6.55678
20
-3.67882
11
6.56347
21
-3.67042
0
LINE
8
BLACK
6
CONTINUOUS
10
6.56347
20
-3.67042
11
6.57134
21
-3.66312
0
LINE
8
BLACK
6
CONTINUOUS
10
6.57134
20
-3.66312
11
6.58022
21
-3.65707
0
LINE
8
BLACK
6
CONTINUOUS
10
6.58022
20
-3.65707
11
6.58989
21
-3.65241
0
LINE
8
BLACK
6
CONTINUOUS
10
6.58989
20
-3.65241
11
6.60015
21
-3.64924
0
LINE
8
BLACK
6
CONTINUOUS
10
6.60015
20
-3.64924
11
6.61077
21
-3.64764
0
LINE
8
BLACK
6
CONTINUOUS
10
6.61077
20
-3.64764
11
6.62151
21
-3.64764
0
LINE
8
BLACK
6
CONTINUOUS
10
6.62151
20
-3.64764
11
6.63213
21
-3.64924
0
LINE
8
BLACK
6
CONTINUOUS
10
5.68615
20
-3.63559
11
5.69291
21
-3.63861
0
LINE
8
BLACK
6
CONTINUOUS
10
5.69291
20
-3.63861
11
5.69891
21
-3.64296
0
LINE
8
BLACK
6
CONTINUOUS
10
5.69891
20
-3.64296
11
5.70386
21
-3.64846
0
LINE
8
BLACK
6
CONTINUOUS
10
5.70386
20
-3.64846
11
5.70757
21
-3.65488
0
LINE
8
BLACK
6
CONTINUOUS
10
5.70757
20
-3.65488
11
5.70986
21
-3.66192
0
LINE
8
BLACK
6
CONTINUOUS
10
5.70986
20
-3.66192
11
5.71063
21
-3.66929
0
LINE
8
BLACK
6
CONTINUOUS
10
5.71063
20
-3.66929
11
5.71063
21
-3.69291
0
LINE
8
BLACK
6
CONTINUOUS
10
5.71063
20
-3.69291
11
5.70986
21
-3.70028
0
LINE
8
BLACK
6
CONTINUOUS
10
5.70986
20
-3.70028
11
5.70757
21
-3.70733
0
LINE
8
BLACK
6
CONTINUOUS
10
5.70757
20
-3.70733
11
5.70386
21
-3.71374
0
LINE
8
BLACK
6
CONTINUOUS
10
5.70386
20
-3.71374
11
5.69891
21
-3.71925
0
LINE
8
BLACK
6
CONTINUOUS
10
5.69891
20
-3.71925
11
5.69291
21
-3.7236
0
LINE
8
BLACK
6
CONTINUOUS
10
5.69291
20
-3.7236
11
5.68615
21
-3.72661
0
LINE
8
BLACK
6
CONTINUOUS
10
5.68615
20
-3.72661
11
5.6789
21
-3.72815
0
LINE
8
BLACK
6
CONTINUOUS
10
5.6789
20
-3.72815
11
5.67149
21
-3.72815
0
LINE
8
BLACK
6
CONTINUOUS
10
5.67149
20
-3.72815
11
5.66425
21
-3.72661
0
LINE
8
BLACK
6
CONTINUOUS
10
5.66425
20
-3.72661
11
5.65748
21
-3.7236
0
LINE
8
BLACK
6
CONTINUOUS
10
5.65748
20
-3.7236
11
5.65149
21
-3.71925
0
LINE
8
BLACK
6
CONTINUOUS
10
5.65149
20
-3.71925
11
5.64653
21
-3.71374
0
LINE
8
BLACK
6
CONTINUOUS
10
5.64653
20
-3.71374
11
5.64283
21
-3.70733
0
LINE
8
BLACK
6
CONTINUOUS
10
5.64283
20
-3.70733
11
5.64054
21
-3.70028
0
LINE
8
BLACK
6
CONTINUOUS
10
5.64054
20
-3.70028
11
5.63976
21
-3.69291
0
LINE
8
BLACK
6
CONTINUOUS
10
5.63976
20
-3.69291
11
5.63976
21
-3.66929
0
LINE
8
BLACK
6
CONTINUOUS
10
5.63976
20
-3.66929
11
5.64054
21
-3.66192
0
LINE
8
BLACK
6
CONTINUOUS
10
5.64054
20
-3.66192
11
5.64283
21
-3.65488
0
LINE
8
BLACK
6
CONTINUOUS
10
5.64283
20
-3.65488
11
5.64653
21
-3.64846
0
LINE
8
BLACK
6
CONTINUOUS
10
5.64653
20
-3.64846
11
5.65149
21
-3.64296
0
LINE
8
BLACK
6
CONTINUOUS
10
5.65149
20
-3.64296
11
5.65748
21
-3.63861
0
LINE
8
BLACK
6
CONTINUOUS
10
5.65748
20
-3.63861
11
5.66425
21
-3.63559
0
LINE
8
BLACK
6
CONTINUOUS
10
5.66425
20
-3.63559
11
5.67149
21
-3.63405
0
LINE
8
BLACK
6
CONTINUOUS
10
5.67149
20
-3.63405
11
5.6789
21
-3.63405
0
LINE
8
BLACK
6
CONTINUOUS
10
5.6789
20
-3.63405
11
5.68615
21
-3.63559
0
LINE
8
BLACK
6
CONTINUOUS
10
5.62826
20
-3.64722
11
5.63068
21
-3.64884
0
LINE
8
BLACK
6
CONTINUOUS
10
5.63068
20
-3.64884
11
5.6323
21
-3.65127
0
LINE
8
BLACK
6
CONTINUOUS
10
5.6323
20
-3.65127
11
5.63287
21
-3.65413
0
LINE
8
BLACK
6
CONTINUOUS
10
5.63287
20
-3.65413
11
5.63287
21
-3.70807
0
LINE
8
BLACK
6
CONTINUOUS
10
5.63287
20
-3.70807
11
5.6323
21
-3.71093
0
LINE
8
BLACK
6
CONTINUOUS
10
5.6323
20
-3.71093
11
5.63068
21
-3.71336
0
LINE
8
BLACK
6
CONTINUOUS
10
5.63068
20
-3.71336
11
5.62826
21
-3.71498
0
LINE
8
BLACK
6
CONTINUOUS
10
5.62826
20
-3.71498
11
5.62539
21
-3.71555
0
LINE
8
BLACK
6
CONTINUOUS
10
5.62539
20
-3.71555
11
5.60295
21
-3.71555
0
LINE
8
BLACK
6
CONTINUOUS
10
5.60295
20
-3.71555
11
5.60009
21
-3.71498
0
LINE
8
BLACK
6
CONTINUOUS
10
5.60009
20
-3.71498
11
5.59766
21
-3.71336
0
LINE
8
BLACK
6
CONTINUOUS
10
5.59766
20
-3.71336
11
5.59604
21
-3.71093
0
LINE
8
BLACK
6
CONTINUOUS
10
5.59604
20
-3.71093
11
5.59547
21
-3.70807
0
LINE
8
BLACK
6
CONTINUOUS
10
5.59547
20
-3.70807
11
5.59547
21
-3.65413
0
LINE
8
BLACK
6
CONTINUOUS
10
5.59547
20
-3.65413
11
5.59604
21
-3.65127
0
LINE
8
BLACK
6
CONTINUOUS
10
5.59604
20
-3.65127
11
5.59766
21
-3.64884
0
LINE
8
BLACK
6
CONTINUOUS
10
5.59766
20
-3.64884
11
5.60009
21
-3.64722
0
LINE
8
BLACK
6
CONTINUOUS
10
5.60009
20
-3.64722
11
5.60295
21
-3.64665
0
LINE
8
BLACK
6
CONTINUOUS
10
5.60295
20
-3.64665
11
5.62539
21
-3.64665
0
LINE
8
BLACK
6
CONTINUOUS
10
5.62539
20
-3.64665
11
5.62826
21
-3.64722
0
LINE
8
BLACK
6
CONTINUOUS
10
5.7503
20
-3.64722
11
5.75273
21
-3.64884
0
LINE
8
BLACK
6
CONTINUOUS
10
5.75273
20
-3.64884
11
5.75435
21
-3.65127
0
LINE
8
BLACK
6
CONTINUOUS
10
5.75435
20
-3.65127
11
5.75492
21
-3.65413
0
LINE
8
BLACK
6
CONTINUOUS
10
5.75492
20
-3.65413
11
5.75492
21
-3.70807
0
LINE
8
BLACK
6
CONTINUOUS
10
5.75492
20
-3.70807
11
5.75435
21
-3.71093
0
LINE
8
BLACK
6
CONTINUOUS
10
5.75435
20
-3.71093
11
5.75273
21
-3.71336
0
LINE
8
BLACK
6
CONTINUOUS
10
5.75273
20
-3.71336
11
5.7503
21
-3.71498
0
LINE
8
BLACK
6
CONTINUOUS
10
5.7503
20
-3.71498
11
5.74744
21
-3.71555
0
LINE
8
BLACK
6
CONTINUOUS
10
5.74744
20
-3.71555
11
5.725
21
-3.71555
0
LINE
8
BLACK
6
CONTINUOUS
10
5.725
20
-3.71555
11
5.72214
21
-3.71498
0
LINE
8
BLACK
6
CONTINUOUS
10
5.72214
20
-3.71498
11
5.71971
21
-3.71336
0
LINE
8
BLACK
6
CONTINUOUS
10
5.71971
20
-3.71336
11
5.71809
21
-3.71093
0
LINE
8
BLACK
6
CONTINUOUS
10
5.71809
20
-3.71093
11
5.71752
21
-3.70807
0
LINE
8
BLACK
6
CONTINUOUS
10
5.71752
20
-3.70807
11
5.71752
21
-3.65413
0
LINE
8
BLACK
6
CONTINUOUS
10
5.71752
20
-3.65413
11
5.71809
21
-3.65127
0
LINE
8
BLACK
6
CONTINUOUS
10
5.71809
20
-3.65127
11
5.71971
21
-3.64884
0
LINE
8
BLACK
6
CONTINUOUS
10
5.71971
20
-3.64884
11
5.72214
21
-3.64722
0
LINE
8
BLACK
6
CONTINUOUS
10
5.72214
20
-3.64722
11
5.725
21
-3.64665
0
LINE
8
BLACK
6
CONTINUOUS
10
5.725
20
-3.64665
11
5.74744
21
-3.64665
0
LINE
8
BLACK
6
CONTINUOUS
10
5.74744
20
-3.64665
11
5.7503
21
-3.64722
0
LINE
8
BLACK
6
CONTINUOUS
10
5.84038
20
-3.65429
11
5.84357
21
-3.65643
0
LINE
8
BLACK
6
CONTINUOUS
10
5.84357
20
-3.65643
11
5.84571
21
-3.65962
0
LINE
8
BLACK
6
CONTINUOUS
10
5.84571
20
-3.65962
11
5.84646
21
-3.66339
0
LINE
8
BLACK
6
CONTINUOUS
10
5.84646
20
-3.66339
11
5.84646
21
-3.69882
0
LINE
8
BLACK
6
CONTINUOUS
10
5.84646
20
-3.69882
11
5.84571
21
-3.70259
0
LINE
8
BLACK
6
CONTINUOUS
10
5.84571
20
-3.70259
11
5.84357
21
-3.70578
0
LINE
8
BLACK
6
CONTINUOUS
10
5.84357
20
-3.70578
11
5.84038
21
-3.70791
0
LINE
8
BLACK
6
CONTINUOUS
10
5.84038
20
-3.70791
11
5.83661
21
-3.70866
0
LINE
8
BLACK
6
CONTINUOUS
10
5.83661
20
-3.70866
11
5.80906
21
-3.70866
0
LINE
8
BLACK
6
CONTINUOUS
10
5.80906
20
-3.70866
11
5.80529
21
-3.70791
0
LINE
8
BLACK
6
CONTINUOUS
10
5.80529
20
-3.70791
11
5.8021
21
-3.70578
0
LINE
8
BLACK
6
CONTINUOUS
10
5.8021
20
-3.70578
11
5.79996
21
-3.70259
0
LINE
8
BLACK
6
CONTINUOUS
10
5.79996
20
-3.70259
11
5.79921
21
-3.69882
0
LINE
8
BLACK
6
CONTINUOUS
10
5.79921
20
-3.69882
11
5.79921
21
-3.66339
0
LINE
8
BLACK
6
CONTINUOUS
10
5.79921
20
-3.66339
11
5.79996
21
-3.65962
0
LINE
8
BLACK
6
CONTINUOUS
10
5.79996
20
-3.65962
11
5.8021
21
-3.65643
0
LINE
8
BLACK
6
CONTINUOUS
10
5.8021
20
-3.65643
11
5.80529
21
-3.65429
0
LINE
8
BLACK
6
CONTINUOUS
10
5.80529
20
-3.65429
11
5.80906
21
-3.65354
0
LINE
8
BLACK
6
CONTINUOUS
10
5.80906
20
-3.65354
11
5.83661
21
-3.65354
0
LINE
8
BLACK
6
CONTINUOUS
10
5.83661
20
-3.65354
11
5.84038
21
-3.65429
0
LINE
8
BLACK
6
CONTINUOUS
10
5.91912
20
-3.65429
11
5.92231
21
-3.65643
0
LINE
8
BLACK
6
CONTINUOUS
10
5.92231
20
-3.65643
11
5.92445
21
-3.65962
0
LINE
8
BLACK
6
CONTINUOUS
10
5.92445
20
-3.65962
11
5.9252
21
-3.66339
0
LINE
8
BLACK
6
CONTINUOUS
10
5.9252
20
-3.66339
11
5.9252
21
-3.69882
0
LINE
8
BLACK
6
CONTINUOUS
10
5.9252
20
-3.69882
11
5.92445
21
-3.70259
0
LINE
8
BLACK
6
CONTINUOUS
10
5.92445
20
-3.70259
11
5.92231
21
-3.70578
0
LINE
8
BLACK
6
CONTINUOUS
10
5.92231
20
-3.70578
11
5.91912
21
-3.70791
0
LINE
8
BLACK
6
CONTINUOUS
10
5.91912
20
-3.70791
11
5.91535
21
-3.70866
0
LINE
8
BLACK
6
CONTINUOUS
10
5.91535
20
-3.70866
11
5.8878
21
-3.70866
0
LINE
8
BLACK
6
CONTINUOUS
10
5.8878
20
-3.70866
11
5.88403
21
-3.70791
0
LINE
8
BLACK
6
CONTINUOUS
10
5.88403
20
-3.70791
11
5.88084
21
-3.70578
0
LINE
8
BLACK
6
CONTINUOUS
10
5.88084
20
-3.70578
11
5.8787
21
-3.70259
0
LINE
8
BLACK
6
CONTINUOUS
10
5.8787
20
-3.70259
11
5.87795
21
-3.69882
0
LINE
8
BLACK
6
CONTINUOUS
10
5.87795
20
-3.69882
11
5.87795
21
-3.66339
0
LINE
8
BLACK
6
CONTINUOUS
10
5.87795
20
-3.66339
11
5.8787
21
-3.65962
0
LINE
8
BLACK
6
CONTINUOUS
10
5.8787
20
-3.65962
11
5.88084
21
-3.65643
0
LINE
8
BLACK
6
CONTINUOUS
10
5.88084
20
-3.65643
11
5.88403
21
-3.65429
0
LINE
8
BLACK
6
CONTINUOUS
10
5.88403
20
-3.65429
11
5.8878
21
-3.65354
0
LINE
8
BLACK
6
CONTINUOUS
10
5.8878
20
-3.65354
11
5.91535
21
-3.65354
0
LINE
8
BLACK
6
CONTINUOUS
10
5.91535
20
-3.65354
11
5.91912
21
-3.65429
0
LINE
8
BLACK
6
CONTINUOUS
10
6.39567
20
-3.69882
11
6.33661
21
-3.69882
0
LINE
8
BLACK
6
CONTINUOUS
10
6.33661
20
-3.69882
11
6.33661
21
-3.63976
0
LINE
8
BLACK
6
CONTINUOUS
10
6.33661
20
-3.63976
11
6.39567
21
-3.63976
0
LINE
8
BLACK
6
CONTINUOUS
10
6.39567
20
-3.63976
11
6.39567
21
-3.69882
0
LINE
8
BLACK
6
CONTINUOUS
10
4.95402
20
-3.65256
11
4.95906
21
-3.65412
0
LINE
8
BLACK
6
CONTINUOUS
10
4.95906
20
-3.65412
11
4.96343
21
-3.65709
0
LINE
8
BLACK
6
CONTINUOUS
10
4.96343
20
-3.65709
11
4.96672
21
-3.66122
0
LINE
8
BLACK
6
CONTINUOUS
10
4.96672
20
-3.66122
11
4.96865
21
-3.66614
0
LINE
8
BLACK
6
CONTINUOUS
10
4.96865
20
-3.66614
11
4.96904
21
-3.6714
0
LINE
8
BLACK
6
CONTINUOUS
10
4.96904
20
-3.6714
11
4.96787
21
-3.67655
0
LINE
8
BLACK
6
CONTINUOUS
10
4.96787
20
-3.67655
11
4.96523
21
-3.68112
0
LINE
8
BLACK
6
CONTINUOUS
10
4.96523
20
-3.68112
11
4.96136
21
-3.68472
0
LINE
8
BLACK
6
CONTINUOUS
10
4.96136
20
-3.68472
11
4.9566
21
-3.68701
0
LINE
8
BLACK
6
CONTINUOUS
10
4.9566
20
-3.68701
11
4.95138
21
-3.6878
0
LINE
8
BLACK
6
CONTINUOUS
10
4.95138
20
-3.6878
11
4.90807
21
-3.6878
0
LINE
8
BLACK
6
CONTINUOUS
10
4.90807
20
-3.6878
11
4.90543
21
-3.6876
0
LINE
8
BLACK
6
CONTINUOUS
10
4.90543
20
-3.6876
11
4.90038
21
-3.68604
0
LINE
8
BLACK
6
CONTINUOUS
10
4.90038
20
-3.68604
11
4.89602
21
-3.68307
0
LINE
8
BLACK
6
CONTINUOUS
10
4.89602
20
-3.68307
11
4.89273
21
-3.67894
0
LINE
8
BLACK
6
CONTINUOUS
10
4.89273
20
-3.67894
11
4.8908
21
-3.67402
0
LINE
8
BLACK
6
CONTINUOUS
10
4.8908
20
-3.67402
11
4.8904
21
-3.66875
0
LINE
8
BLACK
6
CONTINUOUS
10
4.8904
20
-3.66875
11
4.89158
21
-3.66361
0
LINE
8
BLACK
6
CONTINUOUS
10
4.89158
20
-3.66361
11
4.89422
21
-3.65903
0
LINE
8
BLACK
6
CONTINUOUS
10
4.89422
20
-3.65903
11
4.89809
21
-3.65544
0
LINE
8
BLACK
6
CONTINUOUS
10
4.89809
20
-3.65544
11
4.90285
21
-3.65315
0
LINE
8
BLACK
6
CONTINUOUS
10
4.90285
20
-3.65315
11
4.90807
21
-3.65236
0
LINE
8
BLACK
6
CONTINUOUS
10
4.90807
20
-3.65236
11
4.95138
21
-3.65236
0
LINE
8
BLACK
6
CONTINUOUS
10
4.95138
20
-3.65236
11
4.95402
21
-3.65256
0
LINE
8
BLACK
6
CONTINUOUS
10
5.12016
20
-3.65256
11
5.12521
21
-3.65412
0
LINE
8
BLACK
6
CONTINUOUS
10
5.12521
20
-3.65412
11
5.12957
21
-3.65709
0
LINE
8
BLACK
6
CONTINUOUS
10
5.12957
20
-3.65709
11
5.13286
21
-3.66122
0
LINE
8
BLACK
6
CONTINUOUS
10
5.13286
20
-3.66122
11
5.13479
21
-3.66614
0
LINE
8
BLACK
6
CONTINUOUS
10
5.13479
20
-3.66614
11
5.13519
21
-3.6714
0
LINE
8
BLACK
6
CONTINUOUS
10
5.13519
20
-3.6714
11
5.13401
21
-3.67655
0
LINE
8
BLACK
6
CONTINUOUS
10
5.13401
20
-3.67655
11
5.13137
21
-3.68112
0
LINE
8
BLACK
6
CONTINUOUS
10
5.13137
20
-3.68112
11
5.1275
21
-3.68472
0
LINE
8
BLACK
6
CONTINUOUS
10
5.1275
20
-3.68472
11
5.12274
21
-3.68701
0
LINE
8
BLACK
6
CONTINUOUS
10
5.12274
20
-3.68701
11
5.11752
21
-3.6878
0
LINE
8
BLACK
6
CONTINUOUS
10
5.11752
20
-3.6878
11
5.07028
21
-3.6878
0
LINE
8
BLACK
6
CONTINUOUS
10
5.07028
20
-3.6878
11
5.06764
21
-3.6876
0
LINE
8
BLACK
6
CONTINUOUS
10
5.06764
20
-3.6876
11
5.06259
21
-3.68604
0
LINE
8
BLACK
6
CONTINUOUS
10
5.06259
20
-3.68604
11
5.05823
21
-3.68307
0
LINE
8
BLACK
6
CONTINUOUS
10
5.05823
20
-3.68307
11
5.05493
21
-3.67894
0
LINE
8
BLACK
6
CONTINUOUS
10
5.05493
20
-3.67894
11
5.053
21
-3.67402
0
LINE
8
BLACK
6
CONTINUOUS
10
5.053
20
-3.67402
11
5.05261
21
-3.66875
0
LINE
8
BLACK
6
CONTINUOUS
10
5.05261
20
-3.66875
11
5.05378
21
-3.66361
0
LINE
8
BLACK
6
CONTINUOUS
10
5.05378
20
-3.66361
11
5.05642
21
-3.65903
0
LINE
8
BLACK
6
CONTINUOUS
10
5.05642
20
-3.65903
11
5.0603
21
-3.65544
0
LINE
8
BLACK
6
CONTINUOUS
10
5.0603
20
-3.65544
11
5.06505
21
-3.65315
0
LINE
8
BLACK
6
CONTINUOUS
10
5.06505
20
-3.65315
11
5.07028
21
-3.65236
0
LINE
8
BLACK
6
CONTINUOUS
10
5.07028
20
-3.65236
11
5.11752
21
-3.65236
0
LINE
8
BLACK
6
CONTINUOUS
10
5.11752
20
-3.65236
11
5.12016
21
-3.65256
0
LINE
8
BLACK
6
CONTINUOUS
10
5.32808
20
-3.61221
11
5.33127
21
-3.61434
0
LINE
8
BLACK
6
CONTINUOUS
10
5.33127
20
-3.61434
11
5.3334
21
-3.61753
0
LINE
8
BLACK
6
CONTINUOUS
10
5.3334
20
-3.61753
11
5.33415
21
-3.6213
0
LINE
8
BLACK
6
CONTINUOUS
10
5.33415
20
-3.6213
11
5.33415
21
-3.6587
0
LINE
8
BLACK
6
CONTINUOUS
10
5.33415
20
-3.6587
11
5.3334
21
-3.66247
0
LINE
8
BLACK
6
CONTINUOUS
10
5.3334
20
-3.66247
11
5.33127
21
-3.66566
0
LINE
8
BLACK
6
CONTINUOUS
10
5.33127
20
-3.66566
11
5.32808
21
-3.66779
0
LINE
8
BLACK
6
CONTINUOUS
10
5.32808
20
-3.66779
11
5.32431
21
-3.66854
0
LINE
8
BLACK
6
CONTINUOUS
10
5.32431
20
-3.66854
11
5.29774
21
-3.66854
0
LINE
8
BLACK
6
CONTINUOUS
10
5.29774
20
-3.66854
11
5.29397
21
-3.66779
0
LINE
8
BLACK
6
CONTINUOUS
10
5.29397
20
-3.66779
11
5.29078
21
-3.66566
0
LINE
8
BLACK
6
CONTINUOUS
10
5.29078
20
-3.66566
11
5.28864
21
-3.66247
0
LINE
8
BLACK
6
CONTINUOUS
10
5.28864
20
-3.66247
11
5.28789
21
-3.6587
0
LINE
8
BLACK
6
CONTINUOUS
10
5.28789
20
-3.6587
11
5.28789
21
-3.6213
0
LINE
8
BLACK
6
CONTINUOUS
10
5.28789
20
-3.6213
11
5.28864
21
-3.61753
0
LINE
8
BLACK
6
CONTINUOUS
10
5.28864
20
-3.61753
11
5.29078
21
-3.61434
0
LINE
8
BLACK
6
CONTINUOUS
10
5.29078
20
-3.61434
11
5.29397
21
-3.61221
0
LINE
8
BLACK
6
CONTINUOUS
10
5.29397
20
-3.61221
11
5.29774
21
-3.61146
0
LINE
8
BLACK
6
CONTINUOUS
10
5.29774
20
-3.61146
11
5.32431
21
-3.61146
0
LINE
8
BLACK
6
CONTINUOUS
10
5.32431
20
-3.61146
11
5.32808
21
-3.61221
0
LINE
8
BLACK
6
CONTINUOUS
10
5.40977
20
-3.61221
11
5.41296
21
-3.61434
0
LINE
8
BLACK
6
CONTINUOUS
10
5.41296
20
-3.61434
11
5.4151
21
-3.61753
0
LINE
8
BLACK
6
CONTINUOUS
10
5.4151
20
-3.61753
11
5.41585
21
-3.6213
0
LINE
8
BLACK
6
CONTINUOUS
10
5.41585
20
-3.6213
11
5.41585
21
-3.6587
0
LINE
8
BLACK
6
CONTINUOUS
10
5.41585
20
-3.6587
11
5.4151
21
-3.66247
0
LINE
8
BLACK
6
CONTINUOUS
10
5.4151
20
-3.66247
11
5.41296
21
-3.66566
0
LINE
8
BLACK
6
CONTINUOUS
10
5.41296
20
-3.66566
11
5.40977
21
-3.66779
0
LINE
8
BLACK
6
CONTINUOUS
10
5.40977
20
-3.66779
11
5.406
21
-3.66854
0
LINE
8
BLACK
6
CONTINUOUS
10
5.406
20
-3.66854
11
5.37943
21
-3.66854
0
LINE
8
BLACK
6
CONTINUOUS
10
5.37943
20
-3.66854
11
5.37566
21
-3.66779
0
LINE
8
BLACK
6
CONTINUOUS
10
5.37566
20
-3.66779
11
5.37247
21
-3.66566
0
LINE
8
BLACK
6
CONTINUOUS
10
5.37247
20
-3.66566
11
5.37034
21
-3.66247
0
LINE
8
BLACK
6
CONTINUOUS
10
5.37034
20
-3.66247
11
5.36959
21
-3.6587
0
LINE
8
BLACK
6
CONTINUOUS
10
5.36959
20
-3.6587
11
5.36959
21
-3.6213
0
LINE
8
BLACK
6
CONTINUOUS
10
5.36959
20
-3.6213
11
5.37034
21
-3.61753
0
LINE
8
BLACK
6
CONTINUOUS
10
5.37034
20
-3.61753
11
5.37247
21
-3.61434
0
LINE
8
BLACK
6
CONTINUOUS
10
5.37247
20
-3.61434
11
5.37566
21
-3.61221
0
LINE
8
BLACK
6
CONTINUOUS
10
5.37566
20
-3.61221
11
5.37943
21
-3.61146
0
LINE
8
BLACK
6
CONTINUOUS
10
5.37943
20
-3.61146
11
5.406
21
-3.61146
0
LINE
8
BLACK
6
CONTINUOUS
10
5.406
20
-3.61146
11
5.40977
21
-3.61221
0
LINE
8
BLACK
6
CONTINUOUS
10
6.27271
20
-3.5905
11
6.27895
21
-3.59269
0
LINE
8
BLACK
6
CONTINUOUS
10
6.27895
20
-3.59269
11
6.28455
21
-3.59621
0
LINE
8
BLACK
6
CONTINUOUS
10
6.28455
20
-3.59621
11
6.28923
21
-3.60088
0
LINE
8
BLACK
6
CONTINUOUS
10
6.28923
20
-3.60088
11
6.29275
21
-3.60648
0
LINE
8
BLACK
6
CONTINUOUS
10
6.29275
20
-3.60648
11
6.29493
21
-3.61272
0
LINE
8
BLACK
6
CONTINUOUS
10
6.29493
20
-3.61272
11
6.29567
21
-3.61929
0
LINE
8
BLACK
6
CONTINUOUS
10
6.29567
20
-3.61929
11
6.29493
21
-3.62586
0
LINE
8
BLACK
6
CONTINUOUS
10
6.29493
20
-3.62586
11
6.29275
21
-3.6321
0
LINE
8
BLACK
6
CONTINUOUS
10
6.29275
20
-3.6321
11
6.28923
21
-3.6377
0
LINE
8
BLACK
6
CONTINUOUS
10
6.28923
20
-3.6377
11
6.28455
21
-3.64238
0
LINE
8
BLACK
6
CONTINUOUS
10
6.28455
20
-3.64238
11
6.27895
21
-3.64589
0
LINE
8
BLACK
6
CONTINUOUS
10
6.27895
20
-3.64589
11
6.27271
21
-3.64808
0
LINE
8
BLACK
6
CONTINUOUS
10
6.27271
20
-3.64808
11
6.26614
21
-3.64882
0
LINE
8
BLACK
6
CONTINUOUS
10
6.26614
20
-3.64882
11
6.25957
21
-3.64808
0
LINE
8
BLACK
6
CONTINUOUS
10
6.25957
20
-3.64808
11
6.25333
21
-3.64589
0
LINE
8
BLACK
6
CONTINUOUS
10
6.25333
20
-3.64589
11
6.24773
21
-3.64238
0
LINE
8
BLACK
6
CONTINUOUS
10
6.24773
20
-3.64238
11
6.24306
21
-3.6377
0
LINE
8
BLACK
6
CONTINUOUS
10
6.24306
20
-3.6377
11
6.23954
21
-3.6321
0
LINE
8
BLACK
6
CONTINUOUS
10
6.23954
20
-3.6321
11
6.23735
21
-3.62586
0
LINE
8
BLACK
6
CONTINUOUS
10
6.23735
20
-3.62586
11
6.23661
21
-3.61929
0
LINE
8
BLACK
6
CONTINUOUS
10
6.23661
20
-3.61929
11
6.23735
21
-3.61272
0
LINE
8
BLACK
6
CONTINUOUS
10
6.23735
20
-3.61272
11
6.23954
21
-3.60648
0
LINE
8
BLACK
6
CONTINUOUS
10
6.23954
20
-3.60648
11
6.24306
21
-3.60088
0
LINE
8
BLACK
6
CONTINUOUS
10
6.24306
20
-3.60088
11
6.24773
21
-3.59621
0
LINE
8
BLACK
6
CONTINUOUS
10
6.24773
20
-3.59621
11
6.25333
21
-3.59269
0
LINE
8
BLACK
6
CONTINUOUS
10
6.25333
20
-3.59269
11
6.25957
21
-3.5905
0
LINE
8
BLACK
6
CONTINUOUS
10
6.25957
20
-3.5905
11
6.26614
21
-3.58976
0
LINE
8
BLACK
6
CONTINUOUS
10
6.26614
20
-3.58976
11
6.27271
21
-3.5905
0
LINE
8
BLACK
6
CONTINUOUS
10
5.13957
20
-3.6378
11
5.0939
21
-3.6378
0
LINE
8
BLACK
6
CONTINUOUS
10
5.0939
20
-3.6378
11
5.0939
21
-3.61417
0
LINE
8
BLACK
6
CONTINUOUS
10
5.0939
20
-3.61417
11
5.13957
21
-3.61417
0
LINE
8
BLACK
6
CONTINUOUS
10
5.13957
20
-3.61417
11
5.13957
21
-3.6378
0
LINE
8
BLACK
6
CONTINUOUS
10
5.0814
20
-3.6027
11
5.0848
21
-3.60555
0
LINE
8
BLACK
6
CONTINUOUS
10
5.0848
20
-3.60555
11
5.08702
21
-3.6094
0
LINE
8
BLACK
6
CONTINUOUS
10
5.08702
20
-3.6094
11
5.0878
21
-3.61378
0
LINE
8
BLACK
6
CONTINUOUS
10
5.0878
20
-3.61378
11
5.08702
21
-3.61816
0
LINE
8
BLACK
6
CONTINUOUS
10
5.08702
20
-3.61816
11
5.0848
21
-3.622
0
LINE
8
BLACK
6
CONTINUOUS
10
5.0848
20
-3.622
11
5.0814
21
-3.62486
0
LINE
8
BLACK
6
CONTINUOUS
10
5.0814
20
-3.62486
11
5.07722
21
-3.62638
0
LINE
8
BLACK
6
CONTINUOUS
10
5.07722
20
-3.62638
11
5.07278
21
-3.62638
0
LINE
8
BLACK
6
CONTINUOUS
10
5.07278
20
-3.62638
11
5.0686
21
-3.62486
0
LINE
8
BLACK
6
CONTINUOUS
10
5.0686
20
-3.62486
11
5.0652
21
-3.622
0
LINE
8
BLACK
6
CONTINUOUS
10
5.0652
20
-3.622
11
5.06298
21
-3.61816
0
LINE
8
BLACK
6
CONTINUOUS
10
5.06298
20
-3.61816
11
5.0622
21
-3.61378
0
LINE
8
BLACK
6
CONTINUOUS
10
5.0622
20
-3.61378
11
5.06298
21
-3.6094
0
LINE
8
BLACK
6
CONTINUOUS
10
5.06298
20
-3.6094
11
5.0652
21
-3.60555
0
LINE
8
BLACK
6
CONTINUOUS
10
5.0652
20
-3.60555
11
5.0686
21
-3.6027
0
LINE
8
BLACK
6
CONTINUOUS
10
5.0686
20
-3.6027
11
5.07278
21
-3.60118
0
LINE
8
BLACK
6
CONTINUOUS
10
5.07278
20
-3.60118
11
5.07722
21
-3.60118
0
LINE
8
BLACK
6
CONTINUOUS
10
5.07722
20
-3.60118
11
5.0814
21
-3.6027
0
LINE
8
BLACK
6
CONTINUOUS
10
5.13957
20
-3.6063
11
5.0939
21
-3.6063
0
LINE
8
BLACK
6
CONTINUOUS
10
5.0939
20
-3.6063
11
5.0939
21
-3.58268
0
LINE
8
BLACK
6
CONTINUOUS
10
5.0939
20
-3.58268
11
5.13957
21
-3.58268
0
LINE
8
BLACK
6
CONTINUOUS
10
5.13957
20
-3.58268
11
5.13957
21
-3.6063
0
LINE
8
BLACK
6
CONTINUOUS
10
6.37271
20
-3.5405
11
6.37895
21
-3.54269
0
LINE
8
BLACK
6
CONTINUOUS
10
6.37895
20
-3.54269
11
6.38455
21
-3.54621
0
LINE
8
BLACK
6
CONTINUOUS
10
6.38455
20
-3.54621
11
6.38923
21
-3.55088
0
LINE
8
BLACK
6
CONTINUOUS
10
6.38923
20
-3.55088
11
6.39275
21
-3.55648
0
LINE
8
BLACK
6
CONTINUOUS
10
6.39275
20
-3.55648
11
6.39493
21
-3.56272
0
LINE
8
BLACK
6
CONTINUOUS
10
6.39493
20
-3.56272
11
6.39567
21
-3.56929
0
LINE
8
BLACK
6
CONTINUOUS
10
6.39567
20
-3.56929
11
6.39493
21
-3.57586
0
LINE
8
BLACK
6
CONTINUOUS
10
6.39493
20
-3.57586
11
6.39275
21
-3.5821
0
LINE
8
BLACK
6
CONTINUOUS
10
6.39275
20
-3.5821
11
6.38923
21
-3.5877
0
LINE
8
BLACK
6
CONTINUOUS
10
6.38923
20
-3.5877
11
6.38455
21
-3.59238
0
LINE
8
BLACK
6
CONTINUOUS
10
6.38455
20
-3.59238
11
6.37895
21
-3.59589
0
LINE
8
BLACK
6
CONTINUOUS
10
6.37895
20
-3.59589
11
6.37271
21
-3.59808
0
LINE
8
BLACK
6
CONTINUOUS
10
6.37271
20
-3.59808
11
6.36614
21
-3.59882
0
LINE
8
BLACK
6
CONTINUOUS
10
6.36614
20
-3.59882
11
6.35957
21
-3.59808
0
LINE
8
BLACK
6
CONTINUOUS
10
6.35957
20
-3.59808
11
6.35333
21
-3.59589
0
LINE
8
BLACK
6
CONTINUOUS
10
6.35333
20
-3.59589
11
6.34773
21
-3.59238
0
LINE
8
BLACK
6
CONTINUOUS
10
6.34773
20
-3.59238
11
6.34306
21
-3.5877
0
LINE
8
BLACK
6
CONTINUOUS
10
6.34306
20
-3.5877
11
6.33954
21
-3.5821
0
LINE
8
BLACK
6
CONTINUOUS
10
6.33954
20
-3.5821
11
6.33735
21
-3.57586
0
LINE
8
BLACK
6
CONTINUOUS
10
6.33735
20
-3.57586
11
6.33661
21
-3.56929
0
LINE
8
BLACK
6
CONTINUOUS
10
6.33661
20
-3.56929
11
6.33735
21
-3.56272
0
LINE
8
BLACK
6
CONTINUOUS
10
6.33735
20
-3.56272
11
6.33954
21
-3.55648
0
LINE
8
BLACK
6
CONTINUOUS
10
6.33954
20
-3.55648
11
6.34306
21
-3.55088
0
LINE
8
BLACK
6
CONTINUOUS
10
6.34306
20
-3.55088
11
6.34773
21
-3.54621
0
LINE
8
BLACK
6
CONTINUOUS
10
6.34773
20
-3.54621
11
6.35333
21
-3.54269
0
LINE
8
BLACK
6
CONTINUOUS
10
6.35333
20
-3.54269
11
6.35957
21
-3.5405
0
LINE
8
BLACK
6
CONTINUOUS
10
6.35957
20
-3.5405
11
6.36614
21
-3.53976
0
LINE
8
BLACK
6
CONTINUOUS
10
6.36614
20
-3.53976
11
6.37271
21
-3.5405
0
LINE
8
BLACK
6
CONTINUOUS
10
5.13957
20
-3.5748
11
5.0939
21
-3.5748
0
LINE
8
BLACK
6
CONTINUOUS
10
5.0939
20
-3.5748
11
5.0939
21
-3.56299
0
LINE
8
BLACK
6
CONTINUOUS
10
5.0939
20
-3.56299
11
5.13957
21
-3.56299
0
LINE
8
BLACK
6
CONTINUOUS
10
5.13957
20
-3.56299
11
5.13957
21
-3.5748
0
LINE
8
BLACK
6
CONTINUOUS
10
5.13957
20
-3.55512
11
5.0939
21
-3.55512
0
LINE
8
BLACK
6
CONTINUOUS
10
5.0939
20
-3.55512
11
5.0939
21
-3.54331
0
LINE
8
BLACK
6
CONTINUOUS
10
5.0939
20
-3.54331
11
5.13957
21
-3.54331
0
LINE
8
BLACK
6
CONTINUOUS
10
5.13957
20
-3.54331
11
5.13957
21
-3.55512
0
LINE
8
BLACK
6
CONTINUOUS
10
5.68012
20
-3.55413
11
5.61122
21
-3.55413
0
LINE
8
BLACK
6
CONTINUOUS
10
5.61122
20
-3.55413
11
5.61122
21
-3.53642
0
LINE
8
BLACK
6
CONTINUOUS
10
5.61122
20
-3.53642
11
5.68012
21
-3.53642
0
LINE
8
BLACK
6
CONTINUOUS
10
5.68012
20
-3.53642
11
5.68012
21
-3.55413
0
LINE
8
BLACK
6
CONTINUOUS
10
5.96358
20
-3.55413
11
5.89469
21
-3.55413
0
LINE
8
BLACK
6
CONTINUOUS
10
5.89469
20
-3.55413
11
5.89469
21
-3.53642
0
LINE
8
BLACK
6
CONTINUOUS
10
5.89469
20
-3.53642
11
5.96358
21
-3.53642
0
LINE
8
BLACK
6
CONTINUOUS
10
5.96358
20
-3.53642
11
5.96358
21
-3.55413
0
LINE
8
BLACK
6
CONTINUOUS
10
6.27271
20
-3.4905
11
6.27895
21
-3.49269
0
LINE
8
BLACK
6
CONTINUOUS
10
6.27895
20
-3.49269
11
6.28455
21
-3.49621
0
LINE
8
BLACK
6
CONTINUOUS
10
6.28455
20
-3.49621
11
6.28923
21
-3.50088
0
LINE
8
BLACK
6
CONTINUOUS
10
6.28923
20
-3.50088
11
6.29275
21
-3.50648
0
LINE
8
BLACK
6
CONTINUOUS
10
6.29275
20
-3.50648
11
6.29493
21
-3.51272
0
LINE
8
BLACK
6
CONTINUOUS
10
6.29493
20
-3.51272
11
6.29567
21
-3.51929
0
LINE
8
BLACK
6
CONTINUOUS
10
6.29567
20
-3.51929
11
6.29493
21
-3.52586
0
LINE
8
BLACK
6
CONTINUOUS
10
6.29493
20
-3.52586
11
6.29275
21
-3.5321
0
LINE
8
BLACK
6
CONTINUOUS
10
6.29275
20
-3.5321
11
6.28923
21
-3.5377
0
LINE
8
BLACK
6
CONTINUOUS
10
6.28923
20
-3.5377
11
6.28455
21
-3.54238
0
LINE
8
BLACK
6
CONTINUOUS
10
6.28455
20
-3.54238
11
6.27895
21
-3.54589
0
LINE
8
BLACK
6
CONTINUOUS
10
6.27895
20
-3.54589
11
6.27271
21
-3.54808
0
LINE
8
BLACK
6
CONTINUOUS
10
6.27271
20
-3.54808
11
6.26614
21
-3.54882
0
LINE
8
BLACK
6
CONTINUOUS
10
6.26614
20
-3.54882
11
6.25957
21
-3.54808
0
LINE
8
BLACK
6
CONTINUOUS
10
6.25957
20
-3.54808
11
6.25333
21
-3.54589
0
LINE
8
BLACK
6
CONTINUOUS
10
6.25333
20
-3.54589
11
6.24773
21
-3.54238
0
LINE
8
BLACK
6
CONTINUOUS
10
6.24773
20
-3.54238
11
6.24306
21
-3.5377
0
LINE
8
BLACK
6
CONTINUOUS
10
6.24306
20
-3.5377
11
6.23954
21
-3.5321
0
LINE
8
BLACK
6
CONTINUOUS
10
6.23954
20
-3.5321
11
6.23735
21
-3.52586
0
LINE
8
BLACK
6
CONTINUOUS
10
6.23735
20
-3.52586
11
6.23661
21
-3.51929
0
LINE
8
BLACK
6
CONTINUOUS
10
6.23661
20
-3.51929
11
6.23735
21
-3.51272
0
LINE
8
BLACK
6
CONTINUOUS
10
6.23735
20
-3.51272
11
6.23954
21
-3.50648
0
LINE
8
BLACK
6
CONTINUOUS
10
6.23954
20
-3.50648
11
6.24306
21
-3.50088
0
LINE
8
BLACK
6
CONTINUOUS
10
6.24306
20
-3.50088
11
6.24773
21
-3.49621
0
LINE
8
BLACK
6
CONTINUOUS
10
6.24773
20
-3.49621
11
6.25333
21
-3.49269
0
LINE
8
BLACK
6
CONTINUOUS
10
6.25333
20
-3.49269
11
6.25957
21
-3.4905
0
LINE
8
BLACK
6
CONTINUOUS
10
6.25957
20
-3.4905
11
6.26614
21
-3.48976
0
LINE
8
BLACK
6
CONTINUOUS
10
6.26614
20
-3.48976
11
6.27271
21
-3.4905
0
LINE
8
BLACK
6
CONTINUOUS
10
5.32952
20
-3.51364
11
5.33144
21
-3.51492
0
LINE
8
BLACK
6
CONTINUOUS
10
5.33144
20
-3.51492
11
5.33272
21
-3.51683
0
LINE
8
BLACK
6
CONTINUOUS
10
5.33272
20
-3.51683
11
5.33317
21
-3.51909
0
LINE
8
BLACK
6
CONTINUOUS
10
5.33317
20
-3.51909
11
5.33317
21
-3.53091
0
LINE
8
BLACK
6
CONTINUOUS
10
5.33317
20
-3.53091
11
5.33272
21
-3.53317
0
LINE
8
BLACK
6
CONTINUOUS
10
5.33272
20
-3.53317
11
5.33144
21
-3.53508
0
LINE
8
BLACK
6
CONTINUOUS
10
5.33144
20
-3.53508
11
5.32952
21
-3.53636
0
LINE
8
BLACK
6
CONTINUOUS
10
5.32952
20
-3.53636
11
5.32726
21
-3.53681
0
LINE
8
BLACK
6
CONTINUOUS
10
5.32726
20
-3.53681
11
5.28691
21
-3.53681
0
LINE
8
BLACK
6
CONTINUOUS
10
5.28691
20
-3.53681
11
5.28465
21
-3.53636
0
LINE
8
BLACK
6
CONTINUOUS
10
5.28465
20
-3.53636
11
5.28273
21
-3.53508
0
LINE
8
BLACK
6
CONTINUOUS
10
5.28273
20
-3.53508
11
5.28145
21
-3.53317
0
LINE
8
BLACK
6
CONTINUOUS
10
5.28145
20
-3.53317
11
5.281
21
-3.53091
0
LINE
8
BLACK
6
CONTINUOUS
10
5.281
20
-3.53091
11
5.281
21
-3.51909
0
LINE
8
BLACK
6
CONTINUOUS
10
5.281
20
-3.51909
11
5.28145
21
-3.51683
0
LINE
8
BLACK
6
CONTINUOUS
10
5.28145
20
-3.51683
11
5.28273
21
-3.51492
0
LINE
8
BLACK
6
CONTINUOUS
10
5.28273
20
-3.51492
11
5.28465
21
-3.51364
0
LINE
8
BLACK
6
CONTINUOUS
10
5.28465
20
-3.51364
11
5.28691
21
-3.51319
0
LINE
8
BLACK
6
CONTINUOUS
10
5.28691
20
-3.51319
11
5.32726
21
-3.51319
0
LINE
8
BLACK
6
CONTINUOUS
10
5.32726
20
-3.51319
11
5.32952
21
-3.51364
0
LINE
8
BLACK
6
CONTINUOUS
10
5.41909
20
-3.51364
11
5.42101
21
-3.51492
0
LINE
8
BLACK
6
CONTINUOUS
10
5.42101
20
-3.51492
11
5.42229
21
-3.51683
0
LINE
8
BLACK
6
CONTINUOUS
10
5.42229
20
-3.51683
11
5.42274
21
-3.51909
0
LINE
8
BLACK
6
CONTINUOUS
10
5.42274
20
-3.51909
11
5.42274
21
-3.53091
0
LINE
8
BLACK
6
CONTINUOUS
10
5.42274
20
-3.53091
11
5.42229
21
-3.53317
0
LINE
8
BLACK
6
CONTINUOUS
10
5.42229
20
-3.53317
11
5.42101
21
-3.53508
0
LINE
8
BLACK
6
CONTINUOUS
10
5.42101
20
-3.53508
11
5.41909
21
-3.53636
0
LINE
8
BLACK
6
CONTINUOUS
10
5.41909
20
-3.53636
11
5.41683
21
-3.53681
0
LINE
8
BLACK
6
CONTINUOUS
10
5.41683
20
-3.53681
11
5.37648
21
-3.53681
0
LINE
8
BLACK
6
CONTINUOUS
10
5.37648
20
-3.53681
11
5.37422
21
-3.53636
0
LINE
8
BLACK
6
CONTINUOUS
10
5.37422
20
-3.53636
11
5.3723
21
-3.53508
0
LINE
8
BLACK
6
CONTINUOUS
10
5.3723
20
-3.53508
11
5.37102
21
-3.53317
0
LINE
8
BLACK
6
CONTINUOUS
10
5.37102
20
-3.53317
11
5.37057
21
-3.53091
0
LINE
8
BLACK
6
CONTINUOUS
10
5.37057
20
-3.53091
11
5.37057
21
-3.51909
0
LINE
8
BLACK
6
CONTINUOUS
10
5.37057
20
-3.51909
11
5.37102
21
-3.51683
0
LINE
8
BLACK
6
CONTINUOUS
10
5.37102
20
-3.51683
11
5.3723
21
-3.51492
0
LINE
8
BLACK
6
CONTINUOUS
10
5.3723
20
-3.51492
11
5.37422
21
-3.51364
0
LINE
8
BLACK
6
CONTINUOUS
10
5.37422
20
-3.51364
11
5.37648
21
-3.51319
0
LINE
8
BLACK
6
CONTINUOUS
10
5.37648
20
-3.51319
11
5.41683
21
-3.51319
0
LINE
8
BLACK
6
CONTINUOUS
10
5.41683
20
-3.51319
11
5.41909
21
-3.51364
0
LINE
8
BLACK
6
CONTINUOUS
10
5.13957
20
-3.53543
11
5.0939
21
-3.53543
0
LINE
8
BLACK
6
CONTINUOUS
10
5.0939
20
-3.53543
11
5.0939
21
-3.52362
0
LINE
8
BLACK
6
CONTINUOUS
10
5.0939
20
-3.52362
11
5.13957
21
-3.52362
0
LINE
8
BLACK
6
CONTINUOUS
10
5.13957
20
-3.52362
11
5.13957
21
-3.53543
0
LINE
8
BLACK
6
CONTINUOUS
10
5.68012
20
-3.52854
11
5.61122
21
-3.52854
0
LINE
8
BLACK
6
CONTINUOUS
10
5.61122
20
-3.52854
11
5.61122
21
-3.51083
0
LINE
8
BLACK
6
CONTINUOUS
10
5.61122
20
-3.51083
11
5.68012
21
-3.51083
0
LINE
8
BLACK
6
CONTINUOUS
10
5.68012
20
-3.51083
11
5.68012
21
-3.52854
0
LINE
8
BLACK
6
CONTINUOUS
10
5.96358
20
-3.52854
11
5.89469
21
-3.52854
0
LINE
8
BLACK
6
CONTINUOUS
10
5.89469
20
-3.52854
11
5.89469
21
-3.51083
0
LINE
8
BLACK
6
CONTINUOUS
10
5.89469
20
-3.51083
11
5.96358
21
-3.51083
0
LINE
8
BLACK
6
CONTINUOUS
10
5.96358
20
-3.51083
11
5.96358
21
-3.52854
0
LINE
8
BLACK
6
CONTINUOUS
10
5.13957
20
-3.51575
11
5.0939
21
-3.51575
0
LINE
8
BLACK
6
CONTINUOUS
10
5.0939
20
-3.51575
11
5.0939
21
-3.50394
0
LINE
8
BLACK
6
CONTINUOUS
10
5.0939
20
-3.50394
11
5.13957
21
-3.50394
0
LINE
8
BLACK
6
CONTINUOUS
10
5.13957
20
-3.50394
11
5.13957
21
-3.51575
0
LINE
8
BLACK
6
CONTINUOUS
10
5.68012
20
-3.50295
11
5.61122
21
-3.50295
0
LINE
8
BLACK
6
CONTINUOUS
10
5.61122
20
-3.50295
11
5.61122
21
-3.48524
0
LINE
8
BLACK
6
CONTINUOUS
10
5.61122
20
-3.48524
11
5.68012
21
-3.48524
0
LINE
8
BLACK
6
CONTINUOUS
10
5.68012
20
-3.48524
11
5.68012
21
-3.50295
0
LINE
8
BLACK
6
CONTINUOUS
10
5.96358
20
-3.50295
11
5.89469
21
-3.50295
0
LINE
8
BLACK
6
CONTINUOUS
10
5.89469
20
-3.50295
11
5.89469
21
-3.48524
0
LINE
8
BLACK
6
CONTINUOUS
10
5.89469
20
-3.48524
11
5.96358
21
-3.48524
0
LINE
8
BLACK
6
CONTINUOUS
10
5.96358
20
-3.48524
11
5.96358
21
-3.50295
0
LINE
8
BLACK
6
CONTINUOUS
10
5.32952
20
-3.47624
11
5.33144
21
-3.47752
0
LINE
8
BLACK
6
CONTINUOUS
10
5.33144
20
-3.47752
11
5.33272
21
-3.47943
0
LINE
8
BLACK
6
CONTINUOUS
10
5.33272
20
-3.47943
11
5.33317
21
-3.48169
0
LINE
8
BLACK
6
CONTINUOUS
10
5.33317
20
-3.48169
11
5.33317
21
-3.4935
0
LINE
8
BLACK
6
CONTINUOUS
10
5.33317
20
-3.4935
11
5.33272
21
-3.49576
0
LINE
8
BLACK
6
CONTINUOUS
10
5.33272
20
-3.49576
11
5.33144
21
-3.49768
0
LINE
8
BLACK
6
CONTINUOUS
10
5.33144
20
-3.49768
11
5.32952
21
-3.49896
0
LINE
8
BLACK
6
CONTINUOUS
10
5.32952
20
-3.49896
11
5.32726
21
-3.49941
0
LINE
8
BLACK
6
CONTINUOUS
10
5.32726
20
-3.49941
11
5.28691
21
-3.49941
0
LINE
8
BLACK
6
CONTINUOUS
10
5.28691
20
-3.49941
11
5.28465
21
-3.49896
0
LINE
8
BLACK
6
CONTINUOUS
10
5.28465
20
-3.49896
11
5.28273
21
-3.49768
0
LINE
8
BLACK
6
CONTINUOUS
10
5.28273
20
-3.49768
11
5.28145
21
-3.49576
0
LINE
8
BLACK
6
CONTINUOUS
10
5.28145
20
-3.49576
11
5.281
21
-3.4935
0
LINE
8
BLACK
6
CONTINUOUS
10
5.281
20
-3.4935
11
5.281
21
-3.48169
0
LINE
8
BLACK
6
CONTINUOUS
10
5.281
20
-3.48169
11
5.28145
21
-3.47943
0
LINE
8
BLACK
6
CONTINUOUS
10
5.28145
20
-3.47943
11
5.28273
21
-3.47752
0
LINE
8
BLACK
6
CONTINUOUS
10
5.28273
20
-3.47752
11
5.28465
21
-3.47624
0
LINE
8
BLACK
6
CONTINUOUS
10
5.28465
20
-3.47624
11
5.28691
21
-3.47579
0
LINE
8
BLACK
6
CONTINUOUS
10
5.28691
20
-3.47579
11
5.32726
21
-3.47579
0
LINE
8
BLACK
6
CONTINUOUS
10
5.32726
20
-3.47579
11
5.32952
21
-3.47624
0
LINE
8
BLACK
6
CONTINUOUS
10
5.41909
20
-3.47624
11
5.42101
21
-3.47752
0
LINE
8
BLACK
6
CONTINUOUS
10
5.42101
20
-3.47752
11
5.42229
21
-3.47943
0
LINE
8
BLACK
6
CONTINUOUS
10
5.42229
20
-3.47943
11
5.42274
21
-3.48169
0
LINE
8
BLACK
6
CONTINUOUS
10
5.42274
20
-3.48169
11
5.42274
21
-3.4935
0
LINE
8
BLACK
6
CONTINUOUS
10
5.42274
20
-3.4935
11
5.42229
21
-3.49576
0
LINE
8
BLACK
6
CONTINUOUS
10
5.42229
20
-3.49576
11
5.42101
21
-3.49768
0
LINE
8
BLACK
6
CONTINUOUS
10
5.42101
20
-3.49768
11
5.41909
21
-3.49896
0
LINE
8
BLACK
6
CONTINUOUS
10
5.41909
20
-3.49896
11
5.41683
21
-3.49941
0
LINE
8
BLACK
6
CONTINUOUS
10
5.41683
20
-3.49941
11
5.37648
21
-3.49941
0
LINE
8
BLACK
6
CONTINUOUS
10
5.37648
20
-3.49941
11
5.37422
21
-3.49896
0
LINE
8
BLACK
6
CONTINUOUS
10
5.37422
20
-3.49896
11
5.3723
21
-3.49768
0
LINE
8
BLACK
6
CONTINUOUS
10
5.3723
20
-3.49768
11
5.37102
21
-3.49576
0
LINE
8
BLACK
6
CONTINUOUS
10
5.37102
20
-3.49576
11
5.37057
21
-3.4935
0
LINE
8
BLACK
6
CONTINUOUS
10
5.37057
20
-3.4935
11
5.37057
21
-3.48169
0
LINE
8
BLACK
6
CONTINUOUS
10
5.37057
20
-3.48169
11
5.37102
21
-3.47943
0
LINE
8
BLACK
6
CONTINUOUS
10
5.37102
20
-3.47943
11
5.3723
21
-3.47752
0
LINE
8
BLACK
6
CONTINUOUS
10
5.3723
20
-3.47752
11
5.37422
21
-3.47624
0
LINE
8
BLACK
6
CONTINUOUS
10
5.37422
20
-3.47624
11
5.37648
21
-3.47579
0
LINE
8
BLACK
6
CONTINUOUS
10
5.37648
20
-3.47579
11
5.41683
21
-3.47579
0
LINE
8
BLACK
6
CONTINUOUS
10
5.41683
20
-3.47579
11
5.41909
21
-3.47624
0
LINE
8
BLACK
6
CONTINUOUS
10
6.37271
20
-3.4405
11
6.37895
21
-3.44269
0
LINE
8
BLACK
6
CONTINUOUS
10
6.37895
20
-3.44269
11
6.38455
21
-3.44621
0
LINE
8
BLACK
6
CONTINUOUS
10
6.38455
20
-3.44621
11
6.38923
21
-3.45088
0
LINE
8
BLACK
6
CONTINUOUS
10
6.38923
20
-3.45088
11
6.39275
21
-3.45648
0
LINE
8
BLACK
6
CONTINUOUS
10
6.39275
20
-3.45648
11
6.39493
21
-3.46272
0
LINE
8
BLACK
6
CONTINUOUS
10
6.39493
20
-3.46272
11
6.39567
21
-3.46929
0
LINE
8
BLACK
6
CONTINUOUS
10
6.39567
20
-3.46929
11
6.39493
21
-3.47586
0
LINE
8
BLACK
6
CONTINUOUS
10
6.39493
20
-3.47586
11
6.39275
21
-3.4821
0
LINE
8
BLACK
6
CONTINUOUS
10
6.39275
20
-3.4821
11
6.38923
21
-3.4877
0
LINE
8
BLACK
6
CONTINUOUS
10
6.38923
20
-3.4877
11
6.38455
21
-3.49238
0
LINE
8
BLACK
6
CONTINUOUS
10
6.38455
20
-3.49238
11
6.37895
21
-3.49589
0
LINE
8
BLACK
6
CONTINUOUS
10
6.37895
20
-3.49589
11
6.37271
21
-3.49808
0
LINE
8
BLACK
6
CONTINUOUS
10
6.37271
20
-3.49808
11
6.36614
21
-3.49882
0
LINE
8
BLACK
6
CONTINUOUS
10
6.36614
20
-3.49882
11
6.35957
21
-3.49808
0
LINE
8
BLACK
6
CONTINUOUS
10
6.35957
20
-3.49808
11
6.35333
21
-3.49589
0
LINE
8
BLACK
6
CONTINUOUS
10
6.35333
20
-3.49589
11
6.34773
21
-3.49238
0
LINE
8
BLACK
6
CONTINUOUS
10
6.34773
20
-3.49238
11
6.34306
21
-3.4877
0
LINE
8
BLACK
6
CONTINUOUS
10
6.34306
20
-3.4877
11
6.33954
21
-3.4821
0
LINE
8
BLACK
6
CONTINUOUS
10
6.33954
20
-3.4821
11
6.33735
21
-3.47586
0
LINE
8
BLACK
6
CONTINUOUS
10
6.33735
20
-3.47586
11
6.33661
21
-3.46929
0
LINE
8
BLACK
6
CONTINUOUS
10
6.33661
20
-3.46929
11
6.33735
21
-3.46272
0
LINE
8
BLACK
6
CONTINUOUS
10
6.33735
20
-3.46272
11
6.33954
21
-3.45648
0
LINE
8
BLACK
6
CONTINUOUS
10
6.33954
20
-3.45648
11
6.34306
21
-3.45088
0
LINE
8
BLACK
6
CONTINUOUS
10
6.34306
20
-3.45088
11
6.34773
21
-3.44621
0
LINE
8
BLACK
6
CONTINUOUS
10
6.34773
20
-3.44621
11
6.35333
21
-3.44269
0
LINE
8
BLACK
6
CONTINUOUS
10
6.35333
20
-3.44269
11
6.35957
21
-3.4405
0
LINE
8
BLACK
6
CONTINUOUS
10
6.35957
20
-3.4405
11
6.36614
21
-3.43976
0
LINE
8
BLACK
6
CONTINUOUS
10
6.36614
20
-3.43976
11
6.37271
21
-3.4405
0
LINE
8
BLACK
6
CONTINUOUS
10
5.13957
20
-3.49606
11
5.0939
21
-3.49606
0
LINE
8
BLACK
6
CONTINUOUS
10
5.0939
20
-3.49606
11
5.0939
21
-3.48425
0
LINE
8
BLACK
6
CONTINUOUS
10
5.0939
20
-3.48425
11
5.13957
21
-3.48425
0
LINE
8
BLACK
6
CONTINUOUS
10
5.13957
20
-3.48425
11
5.13957
21
-3.49606
0
LINE
8
BLACK
6
CONTINUOUS
10
5.68012
20
-3.47736
11
5.61122
21
-3.47736
0
LINE
8
BLACK
6
CONTINUOUS
10
5.61122
20
-3.47736
11
5.61122
21
-3.45965
0
LINE
8
BLACK
6
CONTINUOUS
10
5.61122
20
-3.45965
11
5.68012
21
-3.45965
0
LINE
8
BLACK
6
CONTINUOUS
10
5.68012
20
-3.45965
11
5.68012
21
-3.47736
0
LINE
8
BLACK
6
CONTINUOUS
10
5.96358
20
-3.47736
11
5.89469
21
-3.47736
0
LINE
8
BLACK
6
CONTINUOUS
10
5.89469
20
-3.47736
11
5.89469
21
-3.45965
0
LINE
8
BLACK
6
CONTINUOUS
10
5.89469
20
-3.45965
11
5.96358
21
-3.45965
0
LINE
8
BLACK
6
CONTINUOUS
10
5.96358
20
-3.45965
11
5.96358
21
-3.47736
0
LINE
8
BLACK
6
CONTINUOUS
10
5.13957
20
-3.47638
11
5.0939
21
-3.47638
0
LINE
8
BLACK
6
CONTINUOUS
10
5.0939
20
-3.47638
11
5.0939
21
-3.46457
0
LINE
8
BLACK
6
CONTINUOUS
10
5.0939
20
-3.46457
11
5.13957
21
-3.46457
0
LINE
8
BLACK
6
CONTINUOUS
10
5.13957
20
-3.46457
11
5.13957
21
-3.47638
0
LINE
8
BLACK
6
CONTINUOUS
10
5.32952
20
-3.43884
11
5.33144
21
-3.44012
0
LINE
8
BLACK
6
CONTINUOUS
10
5.33144
20
-3.44012
11
5.33272
21
-3.44203
0
LINE
8
BLACK
6
CONTINUOUS
10
5.33272
20
-3.44203
11
5.33317
21
-3.44429
0
LINE
8
BLACK
6
CONTINUOUS
10
5.33317
20
-3.44429
11
5.33317
21
-3.4561
0
LINE
8
BLACK
6
CONTINUOUS
10
5.33317
20
-3.4561
11
5.33272
21
-3.45836
0
LINE
8
BLACK
6
CONTINUOUS
10
5.33272
20
-3.45836
11
5.33144
21
-3.46028
0
LINE
8
BLACK
6
CONTINUOUS
10
5.33144
20
-3.46028
11
5.32952
21
-3.46156
0
LINE
8
BLACK
6
CONTINUOUS
10
5.32952
20
-3.46156
11
5.32726
21
-3.46201
0
LINE
8
BLACK
6
CONTINUOUS
10
5.32726
20
-3.46201
11
5.28691
21
-3.46201
0
LINE
8
BLACK
6
CONTINUOUS
10
5.28691
20
-3.46201
11
5.28465
21
-3.46156
0
LINE
8
BLACK
6
CONTINUOUS
10
5.28465
20
-3.46156
11
5.28273
21
-3.46028
0
LINE
8
BLACK
6
CONTINUOUS
10
5.28273
20
-3.46028
11
5.28145
21
-3.45836
0
LINE
8
BLACK
6
CONTINUOUS
10
5.28145
20
-3.45836
11
5.281
21
-3.4561
0
LINE
8
BLACK
6
CONTINUOUS
10
5.281
20
-3.4561
11
5.281
21
-3.44429
0
LINE
8
BLACK
6
CONTINUOUS
10
5.281
20
-3.44429
11
5.28145
21
-3.44203
0
LINE
8
BLACK
6
CONTINUOUS
10
5.28145
20
-3.44203
11
5.28273
21
-3.44012
0
LINE
8
BLACK
6
CONTINUOUS
10
5.28273
20
-3.44012
11
5.28465
21
-3.43884
0
LINE
8
BLACK
6
CONTINUOUS
10
5.28465
20
-3.43884
11
5.28691
21
-3.43839
0
LINE
8
BLACK
6
CONTINUOUS
10
5.28691
20
-3.43839
11
5.32726
21
-3.43839
0
LINE
8
BLACK
6
CONTINUOUS
10
5.32726
20
-3.43839
11
5.32952
21
-3.43884
0
LINE
8
BLACK
6
CONTINUOUS
10
5.41909
20
-3.43884
11
5.42101
21
-3.44012
0
LINE
8
BLACK
6
CONTINUOUS
10
5.42101
20
-3.44012
11
5.42229
21
-3.44203
0
LINE
8
BLACK
6
CONTINUOUS
10
5.42229
20
-3.44203
11
5.42274
21
-3.44429
0
LINE
8
BLACK
6
CONTINUOUS
10
5.42274
20
-3.44429
11
5.42274
21
-3.4561
0
LINE
8
BLACK
6
CONTINUOUS
10
5.42274
20
-3.4561
11
5.42229
21
-3.45836
0
LINE
8
BLACK
6
CONTINUOUS
10
5.42229
20
-3.45836
11
5.42101
21
-3.46028
0
LINE
8
BLACK
6
CONTINUOUS
10
5.42101
20
-3.46028
11
5.41909
21
-3.46156
0
LINE
8
BLACK
6
CONTINUOUS
10
5.41909
20
-3.46156
11
5.41683
21
-3.46201
0
LINE
8
BLACK
6
CONTINUOUS
10
5.41683
20
-3.46201
11
5.37648
21
-3.46201
0
LINE
8
BLACK
6
CONTINUOUS
10
5.37648
20
-3.46201
11
5.37422
21
-3.46156
0
LINE
8
BLACK
6
CONTINUOUS
10
5.37422
20
-3.46156
11
5.3723
21
-3.46028
0
LINE
8
BLACK
6
CONTINUOUS
10
5.3723
20
-3.46028
11
5.37102
21
-3.45836
0
LINE
8
BLACK
6
CONTINUOUS
10
5.37102
20
-3.45836
11
5.37057
21
-3.4561
0
LINE
8
BLACK
6
CONTINUOUS
10
5.37057
20
-3.4561
11
5.37057
21
-3.44429
0
LINE
8
BLACK
6
CONTINUOUS
10
5.37057
20
-3.44429
11
5.37102
21
-3.44203
0
LINE
8
BLACK
6
CONTINUOUS
10
5.37102
20
-3.44203
11
5.3723
21
-3.44012
0
LINE
8
BLACK
6
CONTINUOUS
10
5.3723
20
-3.44012
11
5.37422
21
-3.43884
0
LINE
8
BLACK
6
CONTINUOUS
10
5.37422
20
-3.43884
11
5.37648
21
-3.43839
0
LINE
8
BLACK
6
CONTINUOUS
10
5.37648
20
-3.43839
11
5.41683
21
-3.43839
0
LINE
8
BLACK
6
CONTINUOUS
10
5.41683
20
-3.43839
11
5.41909
21
-3.43884
0
LINE
8
BLACK
6
CONTINUOUS
10
5.13957
20
-3.45669
11
5.0939
21
-3.45669
0
LINE
8
BLACK
6
CONTINUOUS
10
5.0939
20
-3.45669
11
5.0939
21
-3.44488
0
LINE
8
BLACK
6
CONTINUOUS
10
5.0939
20
-3.44488
11
5.13957
21
-3.44488
0
LINE
8
BLACK
6
CONTINUOUS
10
5.13957
20
-3.44488
11
5.13957
21
-3.45669
0
LINE
8
BLACK
6
CONTINUOUS
10
5.68012
20
-3.45177
11
5.61122
21
-3.45177
0
LINE
8
BLACK
6
CONTINUOUS
10
5.61122
20
-3.45177
11
5.61122
21
-3.43406
0
LINE
8
BLACK
6
CONTINUOUS
10
5.61122
20
-3.43406
11
5.68012
21
-3.43406
0
LINE
8
BLACK
6
CONTINUOUS
10
5.68012
20
-3.43406
11
5.68012
21
-3.45177
0
LINE
8
BLACK
6
CONTINUOUS
10
5.96358
20
-3.45177
11
5.89469
21
-3.45177
0
LINE
8
BLACK
6
CONTINUOUS
10
5.89469
20
-3.45177
11
5.89469
21
-3.43406
0
LINE
8
BLACK
6
CONTINUOUS
10
5.89469
20
-3.43406
11
5.96358
21
-3.43406
0
LINE
8
BLACK
6
CONTINUOUS
10
5.96358
20
-3.43406
11
5.96358
21
-3.45177
0
LINE
8
BLACK
6
CONTINUOUS
10
6.27271
20
-3.3905
11
6.27895
21
-3.39269
0
LINE
8
BLACK
6
CONTINUOUS
10
6.27895
20
-3.39269
11
6.28455
21
-3.39621
0
LINE
8
BLACK
6
CONTINUOUS
10
6.28455
20
-3.39621
11
6.28923
21
-3.40088
0
LINE
8
BLACK
6
CONTINUOUS
10
6.28923
20
-3.40088
11
6.29275
21
-3.40648
0
LINE
8
BLACK
6
CONTINUOUS
10
6.29275
20
-3.40648
11
6.29493
21
-3.41272
0
LINE
8
BLACK
6
CONTINUOUS
10
6.29493
20
-3.41272
11
6.29567
21
-3.41929
0
LINE
8
BLACK
6
CONTINUOUS
10
6.29567
20
-3.41929
11
6.29493
21
-3.42586
0
LINE
8
BLACK
6
CONTINUOUS
10
6.29493
20
-3.42586
11
6.29275
21
-3.4321
0
LINE
8
BLACK
6
CONTINUOUS
10
6.29275
20
-3.4321
11
6.28923
21
-3.4377
0
LINE
8
BLACK
6
CONTINUOUS
10
6.28923
20
-3.4377
11
6.28455
21
-3.44238
0
LINE
8
BLACK
6
CONTINUOUS
10
6.28455
20
-3.44238
11
6.27895
21
-3.44589
0
LINE
8
BLACK
6
CONTINUOUS
10
6.27895
20
-3.44589
11
6.27271
21
-3.44808
0
LINE
8
BLACK
6
CONTINUOUS
10
6.27271
20
-3.44808
11
6.26614
21
-3.44882
0
LINE
8
BLACK
6
CONTINUOUS
10
6.26614
20
-3.44882
11
6.25957
21
-3.44808
0
LINE
8
BLACK
6
CONTINUOUS
10
6.25957
20
-3.44808
11
6.25333
21
-3.44589
0
LINE
8
BLACK
6
CONTINUOUS
10
6.25333
20
-3.44589
11
6.24773
21
-3.44238
0
LINE
8
BLACK
6
CONTINUOUS
10
6.24773
20
-3.44238
11
6.24306
21
-3.4377
0
LINE
8
BLACK
6
CONTINUOUS
10
6.24306
20
-3.4377
11
6.23954
21
-3.4321
0
LINE
8
BLACK
6
CONTINUOUS
10
6.23954
20
-3.4321
11
6.23735
21
-3.42586
0
LINE
8
BLACK
6
CONTINUOUS
10
6.23735
20
-3.42586
11
6.23661
21
-3.41929
0
LINE
8
BLACK
6
CONTINUOUS
10
6.23661
20
-3.41929
11
6.23735
21
-3.41272
0
LINE
8
BLACK
6
CONTINUOUS
10
6.23735
20
-3.41272
11
6.23954
21
-3.40648
0
LINE
8
BLACK
6
CONTINUOUS
10
6.23954
20
-3.40648
11
6.24306
21
-3.40088
0
LINE
8
BLACK
6
CONTINUOUS
10
6.24306
20
-3.40088
11
6.24773
21
-3.39621
0
LINE
8
BLACK
6
CONTINUOUS
10
6.24773
20
-3.39621
11
6.25333
21
-3.39269
0
LINE
8
BLACK
6
CONTINUOUS
10
6.25333
20
-3.39269
11
6.25957
21
-3.3905
0
LINE
8
BLACK
6
CONTINUOUS
10
6.25957
20
-3.3905
11
6.26614
21
-3.38976
0
LINE
8
BLACK
6
CONTINUOUS
10
6.26614
20
-3.38976
11
6.27271
21
-3.3905
0
LINE
8
BLACK
6
CONTINUOUS
10
5.13957
20
-3.43701
11
5.0939
21
-3.43701
0
LINE
8
BLACK
6
CONTINUOUS
10
5.0939
20
-3.43701
11
5.0939
21
-3.4252
0
LINE
8
BLACK
6
CONTINUOUS
10
5.0939
20
-3.4252
11
5.13957
21
-3.4252
0
LINE
8
BLACK
6
CONTINUOUS
10
5.13957
20
-3.4252
11
5.13957
21
-3.43701
0
LINE
8
BLACK
6
CONTINUOUS
10
5.68012
20
-3.42618
11
5.61122
21
-3.42618
0
LINE
8
BLACK
6
CONTINUOUS
10
5.61122
20
-3.42618
11
5.61122
21
-3.40846
0
LINE
8
BLACK
6
CONTINUOUS
10
5.61122
20
-3.40846
11
5.68012
21
-3.40846
0
LINE
8
BLACK
6
CONTINUOUS
10
5.68012
20
-3.40846
11
5.68012
21
-3.42618
0
LINE
8
BLACK
6
CONTINUOUS
10
5.96358
20
-3.42618
11
5.89469
21
-3.42618
0
LINE
8
BLACK
6
CONTINUOUS
10
5.89469
20
-3.42618
11
5.89469
21
-3.40846
0
LINE
8
BLACK
6
CONTINUOUS
10
5.89469
20
-3.40846
11
5.96358
21
-3.40846
0
LINE
8
BLACK
6
CONTINUOUS
10
5.96358
20
-3.40846
11
5.96358
21
-3.42618
0
LINE
8
BLACK
6
CONTINUOUS
10
5.13957
20
-3.41732
11
5.0939
21
-3.41732
0
LINE
8
BLACK
6
CONTINUOUS
10
5.0939
20
-3.41732
11
5.0939
21
-3.3937
0
LINE
8
BLACK
6
CONTINUOUS
10
5.0939
20
-3.3937
11
5.13957
21
-3.3937
0
LINE
8
BLACK
6
CONTINUOUS
10
5.13957
20
-3.3937
11
5.13957
21
-3.41732
0
LINE
8
BLACK
6
CONTINUOUS
10
5.68012
20
-3.40059
11
5.61122
21
-3.40059
0
LINE
8
BLACK
6
CONTINUOUS
10
5.61122
20
-3.40059
11
5.61122
21
-3.38287
0
LINE
8
BLACK
6
CONTINUOUS
10
5.61122
20
-3.38287
11
5.68012
21
-3.38287
0
LINE
8
BLACK
6
CONTINUOUS
10
5.68012
20
-3.38287
11
5.68012
21
-3.40059
0
LINE
8
BLACK
6
CONTINUOUS
10
5.96358
20
-3.40059
11
5.89469
21
-3.40059
0
LINE
8
BLACK
6
CONTINUOUS
10
5.89469
20
-3.40059
11
5.89469
21
-3.38287
0
LINE
8
BLACK
6
CONTINUOUS
10
5.89469
20
-3.38287
11
5.96358
21
-3.38287
0
LINE
8
BLACK
6
CONTINUOUS
10
5.96358
20
-3.38287
11
5.96358
21
-3.40059
0
LINE
8
BLACK
6
CONTINUOUS
10
5.0814
20
-3.37514
11
5.0848
21
-3.378
0
LINE
8
BLACK
6
CONTINUOUS
10
5.0848
20
-3.378
11
5.08702
21
-3.38184
0
LINE
8
BLACK
6
CONTINUOUS
10
5.08702
20
-3.38184
11
5.0878
21
-3.38622
0
LINE
8
BLACK
6
CONTINUOUS
10
5.0878
20
-3.38622
11
5.08702
21
-3.3906
0
LINE
8
BLACK
6
CONTINUOUS
10
5.08702
20
-3.3906
11
5.0848
21
-3.39445
0
LINE
8
BLACK
6
CONTINUOUS
10
5.0848
20
-3.39445
11
5.0814
21
-3.3973
0
LINE
8
BLACK
6
CONTINUOUS
10
5.0814
20
-3.3973
11
5.07722
21
-3.39882
0
LINE
8
BLACK
6
CONTINUOUS
10
5.07722
20
-3.39882
11
5.07278
21
-3.39882
0
LINE
8
BLACK
6
CONTINUOUS
10
5.07278
20
-3.39882
11
5.0686
21
-3.3973
0
LINE
8
BLACK
6
CONTINUOUS
10
5.0686
20
-3.3973
11
5.0652
21
-3.39445
0
LINE
8
BLACK
6
CONTINUOUS
10
5.0652
20
-3.39445
11
5.06298
21
-3.3906
0
LINE
8
BLACK
6
CONTINUOUS
10
5.06298
20
-3.3906
11
5.0622
21
-3.38622
0
LINE
8
BLACK
6
CONTINUOUS
10
5.0622
20
-3.38622
11
5.06298
21
-3.38184
0
LINE
8
BLACK
6
CONTINUOUS
10
5.06298
20
-3.38184
11
5.0652
21
-3.378
0
LINE
8
BLACK
6
CONTINUOUS
10
5.0652
20
-3.378
11
5.0686
21
-3.37514
0
LINE
8
BLACK
6
CONTINUOUS
10
5.0686
20
-3.37514
11
5.07278
21
-3.37362
0
LINE
8
BLACK
6
CONTINUOUS
10
5.07278
20
-3.37362
11
5.07722
21
-3.37362
0
LINE
8
BLACK
6
CONTINUOUS
10
5.07722
20
-3.37362
11
5.0814
21
-3.37514
0
LINE
8
BLACK
6
CONTINUOUS
10
6.37271
20
-3.3405
11
6.37895
21
-3.34269
0
LINE
8
BLACK
6
CONTINUOUS
10
6.37895
20
-3.34269
11
6.38455
21
-3.34621
0
LINE
8
BLACK
6
CONTINUOUS
10
6.38455
20
-3.34621
11
6.38923
21
-3.35088
0
LINE
8
BLACK
6
CONTINUOUS
10
6.38923
20
-3.35088
11
6.39275
21
-3.35648
0
LINE
8
BLACK
6
CONTINUOUS
10
6.39275
20
-3.35648
11
6.39493
21
-3.36272
0
LINE
8
BLACK
6
CONTINUOUS
10
6.39493
20
-3.36272
11
6.39567
21
-3.36929
0
LINE
8
BLACK
6
CONTINUOUS
10
6.39567
20
-3.36929
11
6.39493
21
-3.37586
0
LINE
8
BLACK
6
CONTINUOUS
10
6.39493
20
-3.37586
11
6.39275
21
-3.3821
0
LINE
8
BLACK
6
CONTINUOUS
10
6.39275
20
-3.3821
11
6.38923
21
-3.3877
0
LINE
8
BLACK
6
CONTINUOUS
10
6.38923
20
-3.3877
11
6.38455
21
-3.39238
0
LINE
8
BLACK
6
CONTINUOUS
10
6.38455
20
-3.39238
11
6.37895
21
-3.39589
0
LINE
8
BLACK
6
CONTINUOUS
10
6.37895
20
-3.39589
11
6.37271
21
-3.39808
0
LINE
8
BLACK
6
CONTINUOUS
10
6.37271
20
-3.39808
11
6.36614
21
-3.39882
0
LINE
8
BLACK
6
CONTINUOUS
10
6.36614
20
-3.39882
11
6.35957
21
-3.39808
0
LINE
8
BLACK
6
CONTINUOUS
10
6.35957
20
-3.39808
11
6.35333
21
-3.39589
0
LINE
8
BLACK
6
CONTINUOUS
10
6.35333
20
-3.39589
11
6.34773
21
-3.39238
0
LINE
8
BLACK
6
CONTINUOUS
10
6.34773
20
-3.39238
11
6.34306
21
-3.3877
0
LINE
8
BLACK
6
CONTINUOUS
10
6.34306
20
-3.3877
11
6.33954
21
-3.3821
0
LINE
8
BLACK
6
CONTINUOUS
10
6.33954
20
-3.3821
11
6.33735
21
-3.37586
0
LINE
8
BLACK
6
CONTINUOUS
10
6.33735
20
-3.37586
11
6.33661
21
-3.36929
0
LINE
8
BLACK
6
CONTINUOUS
10
6.33661
20
-3.36929
11
6.33735
21
-3.36272
0
LINE
8
BLACK
6
CONTINUOUS
10
6.33735
20
-3.36272
11
6.33954
21
-3.35648
0
LINE
8
BLACK
6
CONTINUOUS
10
6.33954
20
-3.35648
11
6.34306
21
-3.35088
0
LINE
8
BLACK
6
CONTINUOUS
10
6.34306
20
-3.35088
11
6.34773
21
-3.34621
0
LINE
8
BLACK
6
CONTINUOUS
10
6.34773
20
-3.34621
11
6.35333
21
-3.34269
0
LINE
8
BLACK
6
CONTINUOUS
10
6.35333
20
-3.34269
11
6.35957
21
-3.3405
0
LINE
8
BLACK
6
CONTINUOUS
10
6.35957
20
-3.3405
11
6.36614
21
-3.33976
0
LINE
8
BLACK
6
CONTINUOUS
10
6.36614
20
-3.33976
11
6.37271
21
-3.3405
0
LINE
8
BLACK
6
CONTINUOUS
10
5.13957
20
-3.38583
11
5.0939
21
-3.38583
0
LINE
8
BLACK
6
CONTINUOUS
10
5.0939
20
-3.38583
11
5.0939
21
-3.3622
0
LINE
8
BLACK
6
CONTINUOUS
10
5.0939
20
-3.3622
11
5.13957
21
-3.3622
0
LINE
8
BLACK
6
CONTINUOUS
10
5.13957
20
-3.3622
11
5.13957
21
-3.38583
0
LINE
8
BLACK
6
CONTINUOUS
10
5.68012
20
-3.375
11
5.61122
21
-3.375
0
LINE
8
BLACK
6
CONTINUOUS
10
5.61122
20
-3.375
11
5.61122
21
-3.35728
0
LINE
8
BLACK
6
CONTINUOUS
10
5.61122
20
-3.35728
11
5.68012
21
-3.35728
0
LINE
8
BLACK
6
CONTINUOUS
10
5.68012
20
-3.35728
11
5.68012
21
-3.375
0
LINE
8
BLACK
6
CONTINUOUS
10
5.96358
20
-3.375
11
5.89469
21
-3.375
0
LINE
8
BLACK
6
CONTINUOUS
10
5.89469
20
-3.375
11
5.89469
21
-3.35728
0
LINE
8
BLACK
6
CONTINUOUS
10
5.89469
20
-3.35728
11
5.96358
21
-3.35728
0
LINE
8
BLACK
6
CONTINUOUS
10
5.96358
20
-3.35728
11
5.96358
21
-3.375
0
LINE
8
BLACK
6
CONTINUOUS
10
6.08448
20
-3.29799
11
6.08767
21
-3.30013
0
LINE
8
BLACK
6
CONTINUOUS
10
6.08767
20
-3.30013
11
6.0898
21
-3.30332
0
LINE
8
BLACK
6
CONTINUOUS
10
6.0898
20
-3.30332
11
6.09055
21
-3.30709
0
LINE
8
BLACK
6
CONTINUOUS
10
6.09055
20
-3.30709
11
6.09055
21
-3.34252
0
LINE
8
BLACK
6
CONTINUOUS
10
6.09055
20
-3.34252
11
6.0898
21
-3.34629
0
LINE
8
BLACK
6
CONTINUOUS
10
6.0898
20
-3.34629
11
6.08767
21
-3.34948
0
LINE
8
BLACK
6
CONTINUOUS
10
6.08767
20
-3.34948
11
6.08448
21
-3.35161
0
LINE
8
BLACK
6
CONTINUOUS
10
6.08448
20
-3.35161
11
6.08071
21
-3.35236
0
LINE
8
BLACK
6
CONTINUOUS
10
6.08071
20
-3.35236
11
6.05315
21
-3.35236
0
LINE
8
BLACK
6
CONTINUOUS
10
6.05315
20
-3.35236
11
6.04938
21
-3.35161
0
LINE
8
BLACK
6
CONTINUOUS
10
6.04938
20
-3.35161
11
6.04619
21
-3.34948
0
LINE
8
BLACK
6
CONTINUOUS
10
6.04619
20
-3.34948
11
6.04406
21
-3.34629
0
LINE
8
BLACK
6
CONTINUOUS
10
6.04406
20
-3.34629
11
6.04331
21
-3.34252
0
LINE
8
BLACK
6
CONTINUOUS
10
6.04331
20
-3.34252
11
6.04331
21
-3.30709
0
LINE
8
BLACK
6
CONTINUOUS
10
6.04331
20
-3.30709
11
6.04406
21
-3.30332
0
LINE
8
BLACK
6
CONTINUOUS
10
6.04406
20
-3.30332
11
6.04619
21
-3.30013
0
LINE
8
BLACK
6
CONTINUOUS
10
6.04619
20
-3.30013
11
6.04938
21
-3.29799
0
LINE
8
BLACK
6
CONTINUOUS
10
6.04938
20
-3.29799
11
6.05315
21
-3.29724
0
LINE
8
BLACK
6
CONTINUOUS
10
6.05315
20
-3.29724
11
6.08071
21
-3.29724
0
LINE
8
BLACK
6
CONTINUOUS
10
6.08071
20
-3.29724
11
6.08448
21
-3.29799
0
LINE
8
BLACK
6
CONTINUOUS
10
6.16322
20
-3.29799
11
6.16641
21
-3.30013
0
LINE
8
BLACK
6
CONTINUOUS
10
6.16641
20
-3.30013
11
6.16854
21
-3.30332
0
LINE
8
BLACK
6
CONTINUOUS
10
6.16854
20
-3.30332
11
6.16929
21
-3.30709
0
LINE
8
BLACK
6
CONTINUOUS
10
6.16929
20
-3.30709
11
6.16929
21
-3.34252
0
LINE
8
BLACK
6
CONTINUOUS
10
6.16929
20
-3.34252
11
6.16854
21
-3.34629
0
LINE
8
BLACK
6
CONTINUOUS
10
6.16854
20
-3.34629
11
6.16641
21
-3.34948
0
LINE
8
BLACK
6
CONTINUOUS
10
6.16641
20
-3.34948
11
6.16322
21
-3.35161
0
LINE
8
BLACK
6
CONTINUOUS
10
6.16322
20
-3.35161
11
6.15945
21
-3.35236
0
LINE
8
BLACK
6
CONTINUOUS
10
6.15945
20
-3.35236
11
6.13189
21
-3.35236
0
LINE
8
BLACK
6
CONTINUOUS
10
6.13189
20
-3.35236
11
6.12812
21
-3.35161
0
LINE
8
BLACK
6
CONTINUOUS
10
6.12812
20
-3.35161
11
6.12493
21
-3.34948
0
LINE
8
BLACK
6
CONTINUOUS
10
6.12493
20
-3.34948
11
6.1228
21
-3.34629
0
LINE
8
BLACK
6
CONTINUOUS
10
6.1228
20
-3.34629
11
6.12205
21
-3.34252
0
LINE
8
BLACK
6
CONTINUOUS
10
6.12205
20
-3.34252
11
6.12205
21
-3.30709
0
LINE
8
BLACK
6
CONTINUOUS
10
6.12205
20
-3.30709
11
6.1228
21
-3.30332
0
LINE
8
BLACK
6
CONTINUOUS
10
6.1228
20
-3.30332
11
6.12493
21
-3.30013
0
LINE
8
BLACK
6
CONTINUOUS
10
6.12493
20
-3.30013
11
6.12812
21
-3.29799
0
LINE
8
BLACK
6
CONTINUOUS
10
6.12812
20
-3.29799
11
6.13189
21
-3.29724
0
LINE
8
BLACK
6
CONTINUOUS
10
6.13189
20
-3.29724
11
6.15945
21
-3.29724
0
LINE
8
BLACK
6
CONTINUOUS
10
6.15945
20
-3.29724
11
6.16322
21
-3.29799
0
LINE
8
BLACK
6
CONTINUOUS
10
5.68012
20
-3.34941
11
5.61122
21
-3.34941
0
LINE
8
BLACK
6
CONTINUOUS
10
5.61122
20
-3.34941
11
5.61122
21
-3.33169
0
LINE
8
BLACK
6
CONTINUOUS
10
5.61122
20
-3.33169
11
5.68012
21
-3.33169
0
LINE
8
BLACK
6
CONTINUOUS
10
5.68012
20
-3.33169
11
5.68012
21
-3.34941
0
LINE
8
BLACK
6
CONTINUOUS
10
5.96358
20
-3.34941
11
5.89469
21
-3.34941
0
LINE
8
BLACK
6
CONTINUOUS
10
5.89469
20
-3.34941
11
5.89469
21
-3.33169
0
LINE
8
BLACK
6
CONTINUOUS
10
5.89469
20
-3.33169
11
5.96358
21
-3.33169
0
LINE
8
BLACK
6
CONTINUOUS
10
5.96358
20
-3.33169
11
5.96358
21
-3.34941
0
LINE
8
BLACK
6
CONTINUOUS
10
6.27271
20
-3.2905
11
6.27895
21
-3.29269
0
LINE
8
BLACK
6
CONTINUOUS
10
6.27895
20
-3.29269
11
6.28455
21
-3.29621
0
LINE
8
BLACK
6
CONTINUOUS
10
6.28455
20
-3.29621
11
6.28923
21
-3.30088
0
LINE
8
BLACK
6
CONTINUOUS
10
6.28923
20
-3.30088
11
6.29275
21
-3.30648
0
LINE
8
BLACK
6
CONTINUOUS
10
6.29275
20
-3.30648
11
6.29493
21
-3.31272
0
LINE
8
BLACK
6
CONTINUOUS
10
6.29493
20
-3.31272
11
6.29567
21
-3.31929
0
LINE
8
BLACK
6
CONTINUOUS
10
6.29567
20
-3.31929
11
6.29493
21
-3.32586
0
LINE
8
BLACK
6
CONTINUOUS
10
6.29493
20
-3.32586
11
6.29275
21
-3.3321
0
LINE
8
BLACK
6
CONTINUOUS
10
6.29275
20
-3.3321
11
6.28923
21
-3.3377
0
LINE
8
BLACK
6
CONTINUOUS
10
6.28923
20
-3.3377
11
6.28455
21
-3.34238
0
LINE
8
BLACK
6
CONTINUOUS
10
6.28455
20
-3.34238
11
6.27895
21
-3.34589
0
LINE
8
BLACK
6
CONTINUOUS
10
6.27895
20
-3.34589
11
6.27271
21
-3.34808
0
LINE
8
BLACK
6
CONTINUOUS
10
6.27271
20
-3.34808
11
6.26614
21
-3.34882
0
LINE
8
BLACK
6
CONTINUOUS
10
6.26614
20
-3.34882
11
6.25957
21
-3.34808
0
LINE
8
BLACK
6
CONTINUOUS
10
6.25957
20
-3.34808
11
6.25333
21
-3.34589
0
LINE
8
BLACK
6
CONTINUOUS
10
6.25333
20
-3.34589
11
6.24773
21
-3.34238
0
LINE
8
BLACK
6
CONTINUOUS
10
6.24773
20
-3.34238
11
6.24306
21
-3.3377
0
LINE
8
BLACK
6
CONTINUOUS
10
6.24306
20
-3.3377
11
6.23954
21
-3.3321
0
LINE
8
BLACK
6
CONTINUOUS
10
6.23954
20
-3.3321
11
6.23735
21
-3.32586
0
LINE
8
BLACK
6
CONTINUOUS
10
6.23735
20
-3.32586
11
6.23661
21
-3.31929
0
LINE
8
BLACK
6
CONTINUOUS
10
6.23661
20
-3.31929
11
6.23735
21
-3.31272
0
LINE
8
BLACK
6
CONTINUOUS
10
6.23735
20
-3.31272
11
6.23954
21
-3.30648
0
LINE
8
BLACK
6
CONTINUOUS
10
6.23954
20
-3.30648
11
6.24306
21
-3.30088
0
LINE
8
BLACK
6
CONTINUOUS
10
6.24306
20
-3.30088
11
6.24773
21
-3.29621
0
LINE
8
BLACK
6
CONTINUOUS
10
6.24773
20
-3.29621
11
6.25333
21
-3.29269
0
LINE
8
BLACK
6
CONTINUOUS
10
6.25333
20
-3.29269
11
6.25957
21
-3.2905
0
LINE
8
BLACK
6
CONTINUOUS
10
6.25957
20
-3.2905
11
6.26614
21
-3.28976
0
LINE
8
BLACK
6
CONTINUOUS
10
6.26614
20
-3.28976
11
6.27271
21
-3.2905
0
LINE
8
BLACK
6
CONTINUOUS
10
4.95402
20
-3.3124
11
4.95906
21
-3.31396
0
LINE
8
BLACK
6
CONTINUOUS
10
4.95906
20
-3.31396
11
4.96343
21
-3.31693
0
LINE
8
BLACK
6
CONTINUOUS
10
4.96343
20
-3.31693
11
4.96672
21
-3.32106
0
LINE
8
BLACK
6
CONTINUOUS
10
4.96672
20
-3.32106
11
4.96865
21
-3.32598
0
LINE
8
BLACK
6
CONTINUOUS
10
4.96865
20
-3.32598
11
4.96904
21
-3.33125
0
LINE
8
BLACK
6
CONTINUOUS
10
4.96904
20
-3.33125
11
4.96787
21
-3.33639
0
LINE
8
BLACK
6
CONTINUOUS
10
4.96787
20
-3.33639
11
4.96523
21
-3.34097
0
LINE
8
BLACK
6
CONTINUOUS
10
4.96523
20
-3.34097
11
4.96136
21
-3.34456
0
LINE
8
BLACK
6
CONTINUOUS
10
4.96136
20
-3.34456
11
4.9566
21
-3.34685
0
LINE
8
BLACK
6
CONTINUOUS
10
4.9566
20
-3.34685
11
4.95138
21
-3.34764
0
LINE
8
BLACK
6
CONTINUOUS
10
4.95138
20
-3.34764
11
4.90807
21
-3.34764
0
LINE
8
BLACK
6
CONTINUOUS
10
4.90807
20
-3.34764
11
4.90543
21
-3.34744
0
LINE
8
BLACK
6
CONTINUOUS
10
4.90543
20
-3.34744
11
4.90038
21
-3.34588
0
LINE
8
BLACK
6
CONTINUOUS
10
4.90038
20
-3.34588
11
4.89602
21
-3.34291
0
LINE
8
BLACK
6
CONTINUOUS
10
4.89602
20
-3.34291
11
4.89273
21
-3.33878
0
LINE
8
BLACK
6
CONTINUOUS
10
4.89273
20
-3.33878
11
4.8908
21
-3.33386
0
LINE
8
BLACK
6
CONTINUOUS
10
4.8908
20
-3.33386
11
4.8904
21
-3.3286
0
LINE
8
BLACK
6
CONTINUOUS
10
4.8904
20
-3.3286
11
4.89158
21
-3.32345
0
LINE
8
BLACK
6
CONTINUOUS
10
4.89158
20
-3.32345
11
4.89422
21
-3.31888
0
LINE
8
BLACK
6
CONTINUOUS
10
4.89422
20
-3.31888
11
4.89809
21
-3.31528
0
LINE
8
BLACK
6
CONTINUOUS
10
4.89809
20
-3.31528
11
4.90285
21
-3.31299
0
LINE
8
BLACK
6
CONTINUOUS
10
4.90285
20
-3.31299
11
4.90807
21
-3.3122
0
LINE
8
BLACK
6
CONTINUOUS
10
4.90807
20
-3.3122
11
4.95138
21
-3.3122
0
LINE
8
BLACK
6
CONTINUOUS
10
4.95138
20
-3.3122
11
4.95402
21
-3.3124
0
LINE
8
BLACK
6
CONTINUOUS
10
5.12016
20
-3.3124
11
5.12521
21
-3.31396
0
LINE
8
BLACK
6
CONTINUOUS
10
5.12521
20
-3.31396
11
5.12957
21
-3.31693
0
LINE
8
BLACK
6
CONTINUOUS
10
5.12957
20
-3.31693
11
5.13286
21
-3.32106
0
LINE
8
BLACK
6
CONTINUOUS
10
5.13286
20
-3.32106
11
5.13479
21
-3.32598
0
LINE
8
BLACK
6
CONTINUOUS
10
5.13479
20
-3.32598
11
5.13519
21
-3.33125
0
LINE
8
BLACK
6
CONTINUOUS
10
5.13519
20
-3.33125
11
5.13401
21
-3.33639
0
LINE
8
BLACK
6
CONTINUOUS
10
5.13401
20
-3.33639
11
5.13137
21
-3.34097
0
LINE
8
BLACK
6
CONTINUOUS
10
5.13137
20
-3.34097
11
5.1275
21
-3.34456
0
LINE
8
BLACK
6
CONTINUOUS
10
5.1275
20
-3.34456
11
5.12274
21
-3.34685
0
LINE
8
BLACK
6
CONTINUOUS
10
5.12274
20
-3.34685
11
5.11752
21
-3.34764
0
LINE
8
BLACK
6
CONTINUOUS
10
5.11752
20
-3.34764
11
5.07028
21
-3.34764
0
LINE
8
BLACK
6
CONTINUOUS
10
5.07028
20
-3.34764
11
5.06764
21
-3.34744
0
LINE
8
BLACK
6
CONTINUOUS
10
5.06764
20
-3.34744
11
5.06259
21
-3.34588
0
LINE
8
BLACK
6
CONTINUOUS
10
5.06259
20
-3.34588
11
5.05823
21
-3.34291
0
LINE
8
BLACK
6
CONTINUOUS
10
5.05823
20
-3.34291
11
5.05493
21
-3.33878
0
LINE
8
BLACK
6
CONTINUOUS
10
5.05493
20
-3.33878
11
5.053
21
-3.33386
0
LINE
8
BLACK
6
CONTINUOUS
10
5.053
20
-3.33386
11
5.05261
21
-3.3286
0
LINE
8
BLACK
6
CONTINUOUS
10
5.05261
20
-3.3286
11
5.05378
21
-3.32345
0
LINE
8
BLACK
6
CONTINUOUS
10
5.05378
20
-3.32345
11
5.05642
21
-3.31888
0
LINE
8
BLACK
6
CONTINUOUS
10
5.05642
20
-3.31888
11
5.0603
21
-3.31528
0
LINE
8
BLACK
6
CONTINUOUS
10
5.0603
20
-3.31528
11
5.06505
21
-3.31299
0
LINE
8
BLACK
6
CONTINUOUS
10
5.06505
20
-3.31299
11
5.07028
21
-3.3122
0
LINE
8
BLACK
6
CONTINUOUS
10
5.07028
20
-3.3122
11
5.11752
21
-3.3122
0
LINE
8
BLACK
6
CONTINUOUS
10
5.11752
20
-3.3122
11
5.12016
21
-3.3124
0
LINE
8
BLACK
6
CONTINUOUS
10
6.63213
20
-3.19924
11
6.64239
21
-3.20241
0
LINE
8
BLACK
6
CONTINUOUS
10
6.64239
20
-3.20241
11
6.65207
21
-3.20707
0
LINE
8
BLACK
6
CONTINUOUS
10
6.65207
20
-3.20707
11
6.66094
21
-3.21312
0
LINE
8
BLACK
6
CONTINUOUS
10
6.66094
20
-3.21312
11
6.66881
21
-3.22042
0
LINE
8
BLACK
6
CONTINUOUS
10
6.66881
20
-3.22042
11
6.67551
21
-3.22882
0
LINE
8
BLACK
6
CONTINUOUS
10
6.67551
20
-3.22882
11
6.68088
21
-3.23812
0
LINE
8
BLACK
6
CONTINUOUS
10
6.68088
20
-3.23812
11
6.6848
21
-3.24811
0
LINE
8
BLACK
6
CONTINUOUS
10
6.6848
20
-3.24811
11
6.68719
21
-3.25858
0
LINE
8
BLACK
6
CONTINUOUS
10
6.68719
20
-3.25858
11
6.68799
21
-3.26929
0
LINE
8
BLACK
6
CONTINUOUS
10
6.68799
20
-3.26929
11
6.68719
21
-3.28
0
LINE
8
BLACK
6
CONTINUOUS
10
6.68719
20
-3.28
11
6.6848
21
-3.29047
0
LINE
8
BLACK
6
CONTINUOUS
10
6.6848
20
-3.29047
11
6.68088
21
-3.30047
0
LINE
8
BLACK
6
CONTINUOUS
10
6.68088
20
-3.30047
11
6.67551
21
-3.30977
0
LINE
8
BLACK
6
CONTINUOUS
10
6.67551
20
-3.30977
11
6.66881
21
-3.31816
0
LINE
8
BLACK
6
CONTINUOUS
10
6.66881
20
-3.31816
11
6.66094
21
-3.32547
0
LINE
8
BLACK
6
CONTINUOUS
10
6.66094
20
-3.32547
11
6.65207
21
-3.33152
0
LINE
8
BLACK
6
CONTINUOUS
10
6.65207
20
-3.33152
11
6.64239
21
-3.33617
0
LINE
8
BLACK
6
CONTINUOUS
10
6.64239
20
-3.33617
11
6.63213
21
-3.33934
0
LINE
8
BLACK
6
CONTINUOUS
10
6.63213
20
-3.33934
11
6.62151
21
-3.34094
0
LINE
8
BLACK
6
CONTINUOUS
10
6.62151
20
-3.34094
11
6.61077
21
-3.34094
0
LINE
8
BLACK
6
CONTINUOUS
10
6.61077
20
-3.34094
11
6.60015
21
-3.33934
0
LINE
8
BLACK
6
CONTINUOUS
10
6.60015
20
-3.33934
11
6.58989
21
-3.33617
0
LINE
8
BLACK
6
CONTINUOUS
10
6.58989
20
-3.33617
11
6.58022
21
-3.33152
0
LINE
8
BLACK
6
CONTINUOUS
10
6.58022
20
-3.33152
11
6.57134
21
-3.32547
0
LINE
8
BLACK
6
CONTINUOUS
10
6.57134
20
-3.32547
11
6.56347
21
-3.31816
0
LINE
8
BLACK
6
CONTINUOUS
10
6.56347
20
-3.31816
11
6.55678
21
-3.30977
0
LINE
8
BLACK
6
CONTINUOUS
10
6.55678
20
-3.30977
11
6.55141
21
-3.30047
0
LINE
8
BLACK
6
CONTINUOUS
10
6.55141
20
-3.30047
11
6.54748
21
-3.29047
0
LINE
8
BLACK
6
CONTINUOUS
10
6.54748
20
-3.29047
11
6.54509
21
-3.28
0
LINE
8
BLACK
6
CONTINUOUS
10
6.54509
20
-3.28
11
6.54429
21
-3.26929
0
LINE
8
BLACK
6
CONTINUOUS
10
6.54429
20
-3.26929
11
6.54509
21
-3.25858
0
LINE
8
BLACK
6
CONTINUOUS
10
6.54509
20
-3.25858
11
6.54748
21
-3.24811
0
LINE
8
BLACK
6
CONTINUOUS
10
6.54748
20
-3.24811
11
6.55141
21
-3.23812
0
LINE
8
BLACK
6
CONTINUOUS
10
6.55141
20
-3.23812
11
6.55678
21
-3.22882
0
LINE
8
BLACK
6
CONTINUOUS
10
6.55678
20
-3.22882
11
6.56347
21
-3.22042
0
LINE
8
BLACK
6
CONTINUOUS
10
6.56347
20
-3.22042
11
6.57134
21
-3.21312
0
LINE
8
BLACK
6
CONTINUOUS
10
6.57134
20
-3.21312
11
6.58022
21
-3.20707
0
LINE
8
BLACK
6
CONTINUOUS
10
6.58022
20
-3.20707
11
6.58989
21
-3.20241
0
LINE
8
BLACK
6
CONTINUOUS
10
6.58989
20
-3.20241
11
6.60015
21
-3.19924
0
LINE
8
BLACK
6
CONTINUOUS
10
6.60015
20
-3.19924
11
6.61077
21
-3.19764
0
LINE
8
BLACK
6
CONTINUOUS
10
6.61077
20
-3.19764
11
6.62151
21
-3.19764
0
LINE
8
BLACK
6
CONTINUOUS
10
6.62151
20
-3.19764
11
6.63213
21
-3.19924
0
LINE
8
BLACK
6
CONTINUOUS
10
5.68012
20
-3.32382
11
5.61122
21
-3.32382
0
LINE
8
BLACK
6
CONTINUOUS
10
5.61122
20
-3.32382
11
5.61122
21
-3.3061
0
LINE
8
BLACK
6
CONTINUOUS
10
5.61122
20
-3.3061
11
5.68012
21
-3.3061
0
LINE
8
BLACK
6
CONTINUOUS
10
5.68012
20
-3.3061
11
5.68012
21
-3.32382
0
LINE
8
BLACK
6
CONTINUOUS
10
5.96358
20
-3.32382
11
5.89469
21
-3.32382
0
LINE
8
BLACK
6
CONTINUOUS
10
5.89469
20
-3.32382
11
5.89469
21
-3.3061
0
LINE
8
BLACK
6
CONTINUOUS
10
5.89469
20
-3.3061
11
5.96358
21
-3.3061
0
LINE
8
BLACK
6
CONTINUOUS
10
5.96358
20
-3.3061
11
5.96358
21
-3.32382
0
LINE
8
BLACK
6
CONTINUOUS
10
5.32938
20
-3.26262
11
5.33257
21
-3.26475
0
LINE
8
BLACK
6
CONTINUOUS
10
5.33257
20
-3.26475
11
5.3347
21
-3.26795
0
LINE
8
BLACK
6
CONTINUOUS
10
5.3347
20
-3.26795
11
5.33545
21
-3.27171
0
LINE
8
BLACK
6
CONTINUOUS
10
5.33545
20
-3.27171
11
5.33545
21
-3.29829
0
LINE
8
BLACK
6
CONTINUOUS
10
5.33545
20
-3.29829
11
5.3347
21
-3.30205
0
LINE
8
BLACK
6
CONTINUOUS
10
5.3347
20
-3.30205
11
5.33257
21
-3.30525
0
LINE
8
BLACK
6
CONTINUOUS
10
5.33257
20
-3.30525
11
5.32938
21
-3.30738
0
LINE
8
BLACK
6
CONTINUOUS
10
5.32938
20
-3.30738
11
5.32561
21
-3.30813
0
LINE
8
BLACK
6
CONTINUOUS
10
5.32561
20
-3.30813
11
5.28821
21
-3.30813
0
LINE
8
BLACK
6
CONTINUOUS
10
5.28821
20
-3.30813
11
5.28444
21
-3.30738
0
LINE
8
BLACK
6
CONTINUOUS
10
5.28444
20
-3.30738
11
5.28125
21
-3.30525
0
LINE
8
BLACK
6
CONTINUOUS
10
5.28125
20
-3.30525
11
5.27912
21
-3.30205
0
LINE
8
BLACK
6
CONTINUOUS
10
5.27912
20
-3.30205
11
5.27837
21
-3.29829
0
LINE
8
BLACK
6
CONTINUOUS
10
5.27837
20
-3.29829
11
5.27837
21
-3.27171
0
LINE
8
BLACK
6
CONTINUOUS
10
5.27837
20
-3.27171
11
5.27912
21
-3.26795
0
LINE
8
BLACK
6
CONTINUOUS
10
5.27912
20
-3.26795
11
5.28125
21
-3.26475
0
LINE
8
BLACK
6
CONTINUOUS
10
5.28125
20
-3.26475
11
5.28444
21
-3.26262
0
LINE
8
BLACK
6
CONTINUOUS
10
5.28444
20
-3.26262
11
5.28821
21
-3.26187
0
LINE
8
BLACK
6
CONTINUOUS
10
5.28821
20
-3.26187
11
5.32561
21
-3.26187
0
LINE
8
BLACK
6
CONTINUOUS
10
5.32561
20
-3.26187
11
5.32938
21
-3.26262
0
LINE
8
BLACK
6
CONTINUOUS
10
5.43247
20
-3.26262
11
5.43566
21
-3.26475
0
LINE
8
BLACK
6
CONTINUOUS
10
5.43566
20
-3.26475
11
5.43779
21
-3.26795
0
LINE
8
BLACK
6
CONTINUOUS
10
5.43779
20
-3.26795
11
5.43854
21
-3.27171
0
LINE
8
BLACK
6
CONTINUOUS
10
5.43854
20
-3.27171
11
5.43854
21
-3.29829
0
LINE
8
BLACK
6
CONTINUOUS
10
5.43854
20
-3.29829
11
5.43779
21
-3.30205
0
LINE
8
BLACK
6
CONTINUOUS
10
5.43779
20
-3.30205
11
5.43566
21
-3.30525
0
LINE
8
BLACK
6
CONTINUOUS
10
5.43566
20
-3.30525
11
5.43247
21
-3.30738
0
LINE
8
BLACK
6
CONTINUOUS
10
5.43247
20
-3.30738
11
5.4287
21
-3.30813
0
LINE
8
BLACK
6
CONTINUOUS
10
5.4287
20
-3.30813
11
5.3913
21
-3.30813
0
LINE
8
BLACK
6
CONTINUOUS
10
5.3913
20
-3.30813
11
5.38753
21
-3.30738
0
LINE
8
BLACK
6
CONTINUOUS
10
5.38753
20
-3.30738
11
5.38434
21
-3.30525
0
LINE
8
BLACK
6
CONTINUOUS
10
5.38434
20
-3.30525
11
5.38221
21
-3.30205
0
LINE
8
BLACK
6
CONTINUOUS
10
5.38221
20
-3.30205
11
5.38146
21
-3.29829
0
LINE
8
BLACK
6
CONTINUOUS
10
5.38146
20
-3.29829
11
5.38146
21
-3.27171
0
LINE
8
BLACK
6
CONTINUOUS
10
5.38146
20
-3.27171
11
5.38221
21
-3.26795
0
LINE
8
BLACK
6
CONTINUOUS
10
5.38221
20
-3.26795
11
5.38434
21
-3.26475
0
LINE
8
BLACK
6
CONTINUOUS
10
5.38434
20
-3.26475
11
5.38753
21
-3.26262
0
LINE
8
BLACK
6
CONTINUOUS
10
5.38753
20
-3.26262
11
5.3913
21
-3.26187
0
LINE
8
BLACK
6
CONTINUOUS
10
5.3913
20
-3.26187
11
5.4287
21
-3.26187
0
LINE
8
BLACK
6
CONTINUOUS
10
5.4287
20
-3.26187
11
5.43247
21
-3.26262
0
LINE
8
BLACK
6
CONTINUOUS
10
5.22648
20
-3.26065
11
5.22968
21
-3.26278
0
LINE
8
BLACK
6
CONTINUOUS
10
5.22968
20
-3.26278
11
5.23181
21
-3.26598
0
LINE
8
BLACK
6
CONTINUOUS
10
5.23181
20
-3.26598
11
5.23256
21
-3.26974
0
LINE
8
BLACK
6
CONTINUOUS
10
5.23256
20
-3.26974
11
5.23256
21
-3.2973
0
LINE
8
BLACK
6
CONTINUOUS
10
5.23256
20
-3.2973
11
5.23181
21
-3.30107
0
LINE
8
BLACK
6
CONTINUOUS
10
5.23181
20
-3.30107
11
5.22968
21
-3.30426
0
LINE
8
BLACK
6
CONTINUOUS
10
5.22968
20
-3.30426
11
5.22648
21
-3.3064
0
LINE
8
BLACK
6
CONTINUOUS
10
5.22648
20
-3.3064
11
5.22272
21
-3.30715
0
LINE
8
BLACK
6
CONTINUOUS
10
5.22272
20
-3.30715
11
5.18728
21
-3.30715
0
LINE
8
BLACK
6
CONTINUOUS
10
5.18728
20
-3.30715
11
5.18352
21
-3.3064
0
LINE
8
BLACK
6
CONTINUOUS
10
5.18352
20
-3.3064
11
5.18032
21
-3.30426
0
LINE
8
BLACK
6
CONTINUOUS
10
5.18032
20
-3.30426
11
5.17819
21
-3.30107
0
LINE
8
BLACK
6
CONTINUOUS
10
5.17819
20
-3.30107
11
5.17744
21
-3.2973
0
LINE
8
BLACK
6
CONTINUOUS
10
5.17744
20
-3.2973
11
5.17744
21
-3.26974
0
LINE
8
BLACK
6
CONTINUOUS
10
5.17744
20
-3.26974
11
5.17819
21
-3.26598
0
LINE
8
BLACK
6
CONTINUOUS
10
5.17819
20
-3.26598
11
5.18032
21
-3.26278
0
LINE
8
BLACK
6
CONTINUOUS
10
5.18032
20
-3.26278
11
5.18352
21
-3.26065
0
LINE
8
BLACK
6
CONTINUOUS
10
5.18352
20
-3.26065
11
5.18728
21
-3.2599
0
LINE
8
BLACK
6
CONTINUOUS
10
5.18728
20
-3.2599
11
5.22272
21
-3.2599
0
LINE
8
BLACK
6
CONTINUOUS
10
5.22272
20
-3.2599
11
5.22648
21
-3.26065
0
LINE
8
BLACK
6
CONTINUOUS
10
5.68012
20
-3.29823
11
5.61122
21
-3.29823
0
LINE
8
BLACK
6
CONTINUOUS
10
5.61122
20
-3.29823
11
5.61122
21
-3.28051
0
LINE
8
BLACK
6
CONTINUOUS
10
5.61122
20
-3.28051
11
5.68012
21
-3.28051
0
LINE
8
BLACK
6
CONTINUOUS
10
5.68012
20
-3.28051
11
5.68012
21
-3.29823
0
LINE
8
BLACK
6
CONTINUOUS
10
5.96358
20
-3.29823
11
5.89469
21
-3.29823
0
LINE
8
BLACK
6
CONTINUOUS
10
5.89469
20
-3.29823
11
5.89469
21
-3.28051
0
LINE
8
BLACK
6
CONTINUOUS
10
5.89469
20
-3.28051
11
5.96358
21
-3.28051
0
LINE
8
BLACK
6
CONTINUOUS
10
5.96358
20
-3.28051
11
5.96358
21
-3.29823
0
LINE
8
BLACK
6
CONTINUOUS
10
5.68012
20
-3.27264
11
5.61122
21
-3.27264
0
LINE
8
BLACK
6
CONTINUOUS
10
5.61122
20
-3.27264
11
5.61122
21
-3.25492
0
LINE
8
BLACK
6
CONTINUOUS
10
5.61122
20
-3.25492
11
5.68012
21
-3.25492
0
LINE
8
BLACK
6
CONTINUOUS
10
5.68012
20
-3.25492
11
5.68012
21
-3.27264
0
LINE
8
BLACK
6
CONTINUOUS
10
5.96358
20
-3.27264
11
5.89469
21
-3.27264
0
LINE
8
BLACK
6
CONTINUOUS
10
5.89469
20
-3.27264
11
5.89469
21
-3.25492
0
LINE
8
BLACK
6
CONTINUOUS
10
5.89469
20
-3.25492
11
5.96358
21
-3.25492
0
LINE
8
BLACK
6
CONTINUOUS
10
5.96358
20
-3.25492
11
5.96358
21
-3.27264
0
LINE
8
BLACK
6
CONTINUOUS
10
5.05819
20
-3.16315
11
5.06496
21
-3.16616
0
LINE
8
BLACK
6
CONTINUOUS
10
5.06496
20
-3.16616
11
5.07095
21
-3.17052
0
LINE
8
BLACK
6
CONTINUOUS
10
5.07095
20
-3.17052
11
5.07591
21
-3.17602
0
LINE
8
BLACK
6
CONTINUOUS
10
5.07591
20
-3.17602
11
5.07961
21
-3.18244
0
LINE
8
BLACK
6
CONTINUOUS
10
5.07961
20
-3.18244
11
5.0819
21
-3.18948
0
LINE
8
BLACK
6
CONTINUOUS
10
5.0819
20
-3.18948
11
5.08268
21
-3.19685
0
LINE
8
BLACK
6
CONTINUOUS
10
5.08268
20
-3.19685
11
5.08268
21
-3.22047
0
LINE
8
BLACK
6
CONTINUOUS
10
5.08268
20
-3.22047
11
5.0819
21
-3.22784
0
LINE
8
BLACK
6
CONTINUOUS
10
5.0819
20
-3.22784
11
5.07961
21
-3.23488
0
LINE
8
BLACK
6
CONTINUOUS
10
5.07961
20
-3.23488
11
5.07591
21
-3.2413
0
LINE
8
BLACK
6
CONTINUOUS
10
5.07591
20
-3.2413
11
5.07095
21
-3.2468
0
LINE
8
BLACK
6
CONTINUOUS
10
5.07095
20
-3.2468
11
5.06496
21
-3.25116
0
LINE
8
BLACK
6
CONTINUOUS
10
5.06496
20
-3.25116
11
5.05819
21
-3.25417
0
LINE
8
BLACK
6
CONTINUOUS
10
5.05819
20
-3.25417
11
5.05095
21
-3.25571
0
LINE
8
BLACK
6
CONTINUOUS
10
5.05095
20
-3.25571
11
5.04354
21
-3.25571
0
LINE
8
BLACK
6
CONTINUOUS
10
5.04354
20
-3.25571
11
5.03629
21
-3.25417
0
LINE
8
BLACK
6
CONTINUOUS
10
5.03629
20
-3.25417
11
5.02953
21
-3.25116
0
LINE
8
BLACK
6
CONTINUOUS
10
5.02953
20
-3.25116
11
5.02353
21
-3.2468
0
LINE
8
BLACK
6
CONTINUOUS
10
5.02353
20
-3.2468
11
5.01858
21
-3.2413
0
LINE
8
BLACK
6
CONTINUOUS
10
5.01858
20
-3.2413
11
5.01487
21
-3.23488
0
LINE
8
BLACK
6
CONTINUOUS
10
5.01487
20
-3.23488
11
5.01259
21
-3.22784
0
LINE
8
BLACK
6
CONTINUOUS
10
5.01259
20
-3.22784
11
5.01181
21
-3.22047
0
LINE
8
BLACK
6
CONTINUOUS
10
5.01181
20
-3.22047
11
5.01181
21
-3.19685
0
LINE
8
BLACK
6
CONTINUOUS
10
5.01181
20
-3.19685
11
5.01259
21
-3.18948
0
LINE
8
BLACK
6
CONTINUOUS
10
5.01259
20
-3.18948
11
5.01487
21
-3.18244
0
LINE
8
BLACK
6
CONTINUOUS
10
5.01487
20
-3.18244
11
5.01858
21
-3.17602
0
LINE
8
BLACK
6
CONTINUOUS
10
5.01858
20
-3.17602
11
5.02353
21
-3.17052
0
LINE
8
BLACK
6
CONTINUOUS
10
5.02353
20
-3.17052
11
5.02953
21
-3.16616
0
LINE
8
BLACK
6
CONTINUOUS
10
5.02953
20
-3.16616
11
5.03629
21
-3.16315
0
LINE
8
BLACK
6
CONTINUOUS
10
5.03629
20
-3.16315
11
5.04354
21
-3.16161
0
LINE
8
BLACK
6
CONTINUOUS
10
5.04354
20
-3.16161
11
5.05095
21
-3.16161
0
LINE
8
BLACK
6
CONTINUOUS
10
5.05095
20
-3.16161
11
5.05819
21
-3.16315
0
LINE
8
BLACK
6
CONTINUOUS
10
6.1015
20
-3.16315
11
6.10827
21
-3.16616
0
LINE
8
BLACK
6
CONTINUOUS
10
6.10827
20
-3.16616
11
6.11426
21
-3.17052
0
LINE
8
BLACK
6
CONTINUOUS
10
6.11426
20
-3.17052
11
6.11922
21
-3.17602
0
LINE
8
BLACK
6
CONTINUOUS
10
6.11922
20
-3.17602
11
6.12292
21
-3.18244
0
LINE
8
BLACK
6
CONTINUOUS
10
6.12292
20
-3.18244
11
6.12521
21
-3.18948
0
LINE
8
BLACK
6
CONTINUOUS
10
6.12521
20
-3.18948
11
6.12598
21
-3.19685
0
LINE
8
BLACK
6
CONTINUOUS
10
6.12598
20
-3.19685
11
6.12598
21
-3.22047
0
LINE
8
BLACK
6
CONTINUOUS
10
6.12598
20
-3.22047
11
6.12521
21
-3.22784
0
LINE
8
BLACK
6
CONTINUOUS
10
6.12521
20
-3.22784
11
6.12292
21
-3.23488
0
LINE
8
BLACK
6
CONTINUOUS
10
6.12292
20
-3.23488
11
6.11922
21
-3.2413
0
LINE
8
BLACK
6
CONTINUOUS
10
6.11922
20
-3.2413
11
6.11426
21
-3.2468
0
LINE
8
BLACK
6
CONTINUOUS
10
6.11426
20
-3.2468
11
6.10827
21
-3.25116
0
LINE
8
BLACK
6
CONTINUOUS
10
6.10827
20
-3.25116
11
6.1015
21
-3.25417
0
LINE
8
BLACK
6
CONTINUOUS
10
6.1015
20
-3.25417
11
6.09425
21
-3.25571
0
LINE
8
BLACK
6
CONTINUOUS
10
6.09425
20
-3.25571
11
6.08685
21
-3.25571
0
LINE
8
BLACK
6
CONTINUOUS
10
6.08685
20
-3.25571
11
6.0796
21
-3.25417
0
LINE
8
BLACK
6
CONTINUOUS
10
6.0796
20
-3.25417
11
6.07283
21
-3.25116
0
LINE
8
BLACK
6
CONTINUOUS
10
6.07283
20
-3.25116
11
6.06684
21
-3.2468
0
LINE
8
BLACK
6
CONTINUOUS
10
6.06684
20
-3.2468
11
6.06189
21
-3.2413
0
LINE
8
BLACK
6
CONTINUOUS
10
6.06189
20
-3.2413
11
6.05818
21
-3.23488
0
LINE
8
BLACK
6
CONTINUOUS
10
6.05818
20
-3.23488
11
6.05589
21
-3.22784
0
LINE
8
BLACK
6
CONTINUOUS
10
6.05589
20
-3.22784
11
6.05512
21
-3.22047
0
LINE
8
BLACK
6
CONTINUOUS
10
6.05512
20
-3.22047
11
6.05512
21
-3.19685
0
LINE
8
BLACK
6
CONTINUOUS
10
6.05512
20
-3.19685
11
6.05589
21
-3.18948
0
LINE
8
BLACK
6
CONTINUOUS
10
6.05589
20
-3.18948
11
6.05818
21
-3.18244
0
LINE
8
BLACK
6
CONTINUOUS
10
6.05818
20
-3.18244
11
6.06189
21
-3.17602
0
LINE
8
BLACK
6
CONTINUOUS
10
6.06189
20
-3.17602
11
6.06684
21
-3.17052
0
LINE
8
BLACK
6
CONTINUOUS
10
6.06684
20
-3.17052
11
6.07283
21
-3.16616
0
LINE
8
BLACK
6
CONTINUOUS
10
6.07283
20
-3.16616
11
6.0796
21
-3.16315
0
LINE
8
BLACK
6
CONTINUOUS
10
6.0796
20
-3.16315
11
6.08685
21
-3.16161
0
LINE
8
BLACK
6
CONTINUOUS
10
6.08685
20
-3.16161
11
6.09425
21
-3.16161
0
LINE
8
BLACK
6
CONTINUOUS
10
6.09425
20
-3.16161
11
6.1015
21
-3.16315
0
LINE
8
BLACK
6
CONTINUOUS
10
5.68012
20
-3.24705
11
5.61122
21
-3.24705
0
LINE
8
BLACK
6
CONTINUOUS
10
5.61122
20
-3.24705
11
5.61122
21
-3.22933
0
LINE
8
BLACK
6
CONTINUOUS
10
5.61122
20
-3.22933
11
5.68012
21
-3.22933
0
LINE
8
BLACK
6
CONTINUOUS
10
5.68012
20
-3.22933
11
5.68012
21
-3.24705
0
LINE
8
BLACK
6
CONTINUOUS
10
5.96358
20
-3.24705
11
5.89469
21
-3.24705
0
LINE
8
BLACK
6
CONTINUOUS
10
5.89469
20
-3.24705
11
5.89469
21
-3.22933
0
LINE
8
BLACK
6
CONTINUOUS
10
5.89469
20
-3.22933
11
5.96358
21
-3.22933
0
LINE
8
BLACK
6
CONTINUOUS
10
5.96358
20
-3.22933
11
5.96358
21
-3.24705
0
LINE
8
BLACK
6
CONTINUOUS
10
5.0003
20
-3.17478
11
5.00273
21
-3.1764
0
LINE
8
BLACK
6
CONTINUOUS
10
5.00273
20
-3.1764
11
5.00435
21
-3.17883
0
LINE
8
BLACK
6
CONTINUOUS
10
5.00435
20
-3.17883
11
5.00492
21
-3.18169
0
LINE
8
BLACK
6
CONTINUOUS
10
5.00492
20
-3.18169
11
5.00492
21
-3.23563
0
LINE
8
BLACK
6
CONTINUOUS
10
5.00492
20
-3.23563
11
5.00435
21
-3.23849
0
LINE
8
BLACK
6
CONTINUOUS
10
5.00435
20
-3.23849
11
5.00273
21
-3.24092
0
LINE
8
BLACK
6
CONTINUOUS
10
5.00273
20
-3.24092
11
5.0003
21
-3.24254
0
LINE
8
BLACK
6
CONTINUOUS
10
5.0003
20
-3.24254
11
4.99744
21
-3.24311
0
LINE
8
BLACK
6
CONTINUOUS
10
4.99744
20
-3.24311
11
4.975
21
-3.24311
0
LINE
8
BLACK
6
CONTINUOUS
10
4.975
20
-3.24311
11
4.97214
21
-3.24254
0
LINE
8
BLACK
6
CONTINUOUS
10
4.97214
20
-3.24254
11
4.96971
21
-3.24092
0
LINE
8
BLACK
6
CONTINUOUS
10
4.96971
20
-3.24092
11
4.96809
21
-3.23849
0
LINE
8
BLACK
6
CONTINUOUS
10
4.96809
20
-3.23849
11
4.96752
21
-3.23563
0
LINE
8
BLACK
6
CONTINUOUS
10
4.96752
20
-3.23563
11
4.96752
21
-3.18169
0
LINE
8
BLACK
6
CONTINUOUS
10
4.96752
20
-3.18169
11
4.96809
21
-3.17883
0
LINE
8
BLACK
6
CONTINUOUS
10
4.96809
20
-3.17883
11
4.96971
21
-3.1764
0
LINE
8
BLACK
6
CONTINUOUS
10
4.96971
20
-3.1764
11
4.97214
21
-3.17478
0
LINE
8
BLACK
6
CONTINUOUS
10
4.97214
20
-3.17478
11
4.975
21
-3.17421
0
LINE
8
BLACK
6
CONTINUOUS
10
4.975
20
-3.17421
11
4.99744
21
-3.17421
0
LINE
8
BLACK
6
CONTINUOUS
10
4.99744
20
-3.17421
11
5.0003
21
-3.17478
0
LINE
8
BLACK
6
CONTINUOUS
10
5.12235
20
-3.17478
11
5.12478
21
-3.1764
0
LINE
8
BLACK
6
CONTINUOUS
10
5.12478
20
-3.1764
11
5.1264
21
-3.17883
0
LINE
8
BLACK
6
CONTINUOUS
10
5.1264
20
-3.17883
11
5.12697
21
-3.18169
0
LINE
8
BLACK
6
CONTINUOUS
10
5.12697
20
-3.18169
11
5.12697
21
-3.23563
0
LINE
8
BLACK
6
CONTINUOUS
10
5.12697
20
-3.23563
11
5.1264
21
-3.23849
0
LINE
8
BLACK
6
CONTINUOUS
10
5.1264
20
-3.23849
11
5.12478
21
-3.24092
0
LINE
8
BLACK
6
CONTINUOUS
10
5.12478
20
-3.24092
11
5.12235
21
-3.24254
0
LINE
8
BLACK
6
CONTINUOUS
10
5.12235
20
-3.24254
11
5.11949
21
-3.24311
0
LINE
8
BLACK
6
CONTINUOUS
10
5.11949
20
-3.24311
11
5.09705
21
-3.24311
0
LINE
8
BLACK
6
CONTINUOUS
10
5.09705
20
-3.24311
11
5.09418
21
-3.24254
0
LINE
8
BLACK
6
CONTINUOUS
10
5.09418
20
-3.24254
11
5.09176
21
-3.24092
0
LINE
8
BLACK
6
CONTINUOUS
10
5.09176
20
-3.24092
11
5.09014
21
-3.23849
0
LINE
8
BLACK
6
CONTINUOUS
10
5.09014
20
-3.23849
11
5.08957
21
-3.23563
0
LINE
8
BLACK
6
CONTINUOUS
10
5.08957
20
-3.23563
11
5.08957
21
-3.18169
0
LINE
8
BLACK
6
CONTINUOUS
10
5.08957
20
-3.18169
11
5.09014
21
-3.17883
0
LINE
8
BLACK
6
CONTINUOUS
10
5.09014
20
-3.17883
11
5.09176
21
-3.1764
0
LINE
8
BLACK
6
CONTINUOUS
10
5.09176
20
-3.1764
11
5.09418
21
-3.17478
0
LINE
8
BLACK
6
CONTINUOUS
10
5.09418
20
-3.17478
11
5.09705
21
-3.17421
0
LINE
8
BLACK
6
CONTINUOUS
10
5.09705
20
-3.17421
11
5.11949
21
-3.17421
0
LINE
8
BLACK
6
CONTINUOUS
10
5.11949
20
-3.17421
11
5.12235
21
-3.17478
0
LINE
8
BLACK
6
CONTINUOUS
10
6.04361
20
-3.17478
11
6.04604
21
-3.1764
0
LINE
8
BLACK
6
CONTINUOUS
10
6.04604
20
-3.1764
11
6.04766
21
-3.17883
0
LINE
8
BLACK
6
CONTINUOUS
10
6.04766
20
-3.17883
11
6.04823
21
-3.18169
0
LINE
8
BLACK
6
CONTINUOUS
10
6.04823
20
-3.18169
11
6.04823
21
-3.23563
0
LINE
8
BLACK
6
CONTINUOUS
10
6.04823
20
-3.23563
11
6.04766
21
-3.23849
0
LINE
8
BLACK
6
CONTINUOUS
10
6.04766
20
-3.23849
11
6.04604
21
-3.24092
0
LINE
8
BLACK
6
CONTINUOUS
10
6.04604
20
-3.24092
11
6.04361
21
-3.24254
0
LINE
8
BLACK
6
CONTINUOUS
10
6.04361
20
-3.24254
11
6.04075
21
-3.24311
0
LINE
8
BLACK
6
CONTINUOUS
10
6.04075
20
-3.24311
11
6.01831
21
-3.24311
0
LINE
8
BLACK
6
CONTINUOUS
10
6.01831
20
-3.24311
11
6.01544
21
-3.24254
0
LINE
8
BLACK
6
CONTINUOUS
10
6.01544
20
-3.24254
11
6.01302
21
-3.24092
0
LINE
8
BLACK
6
CONTINUOUS
10
6.01302
20
-3.24092
11
6.0114
21
-3.23849
0
LINE
8
BLACK
6
CONTINUOUS
10
6.0114
20
-3.23849
11
6.01083
21
-3.23563
0
LINE
8
BLACK
6
CONTINUOUS
10
6.01083
20
-3.23563
11
6.01083
21
-3.18169
0
LINE
8
BLACK
6
CONTINUOUS
10
6.01083
20
-3.18169
11
6.0114
21
-3.17883
0
LINE
8
BLACK
6
CONTINUOUS
10
6.0114
20
-3.17883
11
6.01302
21
-3.1764
0
LINE
8
BLACK
6
CONTINUOUS
10
6.01302
20
-3.1764
11
6.01544
21
-3.17478
0
LINE
8
BLACK
6
CONTINUOUS
10
6.01544
20
-3.17478
11
6.01831
21
-3.17421
0
LINE
8
BLACK
6
CONTINUOUS
10
6.01831
20
-3.17421
11
6.04075
21
-3.17421
0
LINE
8
BLACK
6
CONTINUOUS
10
6.04075
20
-3.17421
11
6.04361
21
-3.17478
0
LINE
8
BLACK
6
CONTINUOUS
10
6.16566
20
-3.17478
11
6.16808
21
-3.1764
0
LINE
8
BLACK
6
CONTINUOUS
10
6.16808
20
-3.1764
11
6.16971
21
-3.17883
0
LINE
8
BLACK
6
CONTINUOUS
10
6.16971
20
-3.17883
11
6.17028
21
-3.18169
0
LINE
8
BLACK
6
CONTINUOUS
10
6.17028
20
-3.18169
11
6.17028
21
-3.23563
0
LINE
8
BLACK
6
CONTINUOUS
10
6.17028
20
-3.23563
11
6.16971
21
-3.23849
0
LINE
8
BLACK
6
CONTINUOUS
10
6.16971
20
-3.23849
11
6.16808
21
-3.24092
0
LINE
8
BLACK
6
CONTINUOUS
10
6.16808
20
-3.24092
11
6.16566
21
-3.24254
0
LINE
8
BLACK
6
CONTINUOUS
10
6.16566
20
-3.24254
11
6.1628
21
-3.24311
0
LINE
8
BLACK
6
CONTINUOUS
10
6.1628
20
-3.24311
11
6.14035
21
-3.24311
0
LINE
8
BLACK
6
CONTINUOUS
10
6.14035
20
-3.24311
11
6.13749
21
-3.24254
0
LINE
8
BLACK
6
CONTINUOUS
10
6.13749
20
-3.24254
11
6.13506
21
-3.24092
0
LINE
8
BLACK
6
CONTINUOUS
10
6.13506
20
-3.24092
11
6.13344
21
-3.23849
0
LINE
8
BLACK
6
CONTINUOUS
10
6.13344
20
-3.23849
11
6.13287
21
-3.23563
0
LINE
8
BLACK
6
CONTINUOUS
10
6.13287
20
-3.23563
11
6.13287
21
-3.18169
0
LINE
8
BLACK
6
CONTINUOUS
10
6.13287
20
-3.18169
11
6.13344
21
-3.17883
0
LINE
8
BLACK
6
CONTINUOUS
10
6.13344
20
-3.17883
11
6.13506
21
-3.1764
0
LINE
8
BLACK
6
CONTINUOUS
10
6.13506
20
-3.1764
11
6.13749
21
-3.17478
0
LINE
8
BLACK
6
CONTINUOUS
10
6.13749
20
-3.17478
11
6.14035
21
-3.17421
0
LINE
8
BLACK
6
CONTINUOUS
10
6.14035
20
-3.17421
11
6.1628
21
-3.17421
0
LINE
8
BLACK
6
CONTINUOUS
10
6.1628
20
-3.17421
11
6.16566
21
-3.17478
0
LINE
8
BLACK
6
CONTINUOUS
10
5.22648
20
-3.18191
11
5.22968
21
-3.18404
0
LINE
8
BLACK
6
CONTINUOUS
10
5.22968
20
-3.18404
11
5.23181
21
-3.18724
0
LINE
8
BLACK
6
CONTINUOUS
10
5.23181
20
-3.18724
11
5.23256
21
-3.191
0
LINE
8
BLACK
6
CONTINUOUS
10
5.23256
20
-3.191
11
5.23256
21
-3.21856
0
LINE
8
BLACK
6
CONTINUOUS
10
5.23256
20
-3.21856
11
5.23181
21
-3.22233
0
LINE
8
BLACK
6
CONTINUOUS
10
5.23181
20
-3.22233
11
5.22968
21
-3.22552
0
LINE
8
BLACK
6
CONTINUOUS
10
5.22968
20
-3.22552
11
5.22648
21
-3.22766
0
LINE
8
BLACK
6
CONTINUOUS
10
5.22648
20
-3.22766
11
5.22272
21
-3.22841
0
LINE
8
BLACK
6
CONTINUOUS
10
5.22272
20
-3.22841
11
5.18728
21
-3.22841
0
LINE
8
BLACK
6
CONTINUOUS
10
5.18728
20
-3.22841
11
5.18352
21
-3.22766
0
LINE
8
BLACK
6
CONTINUOUS
10
5.18352
20
-3.22766
11
5.18032
21
-3.22552
0
LINE
8
BLACK
6
CONTINUOUS
10
5.18032
20
-3.22552
11
5.17819
21
-3.22233
0
LINE
8
BLACK
6
CONTINUOUS
10
5.17819
20
-3.22233
11
5.17744
21
-3.21856
0
LINE
8
BLACK
6
CONTINUOUS
10
5.17744
20
-3.21856
11
5.17744
21
-3.191
0
LINE
8
BLACK
6
CONTINUOUS
10
5.17744
20
-3.191
11
5.17819
21
-3.18724
0
LINE
8
BLACK
6
CONTINUOUS
10
5.17819
20
-3.18724
11
5.18032
21
-3.18404
0
LINE
8
BLACK
6
CONTINUOUS
10
5.18032
20
-3.18404
11
5.18352
21
-3.18191
0
LINE
8
BLACK
6
CONTINUOUS
10
5.18352
20
-3.18191
11
5.18728
21
-3.18116
0
LINE
8
BLACK
6
CONTINUOUS
10
5.18728
20
-3.18116
11
5.22272
21
-3.18116
0
LINE
8
BLACK
6
CONTINUOUS
10
5.22272
20
-3.18116
11
5.22648
21
-3.18191
0
LINE
8
BLACK
6
CONTINUOUS
10
5.32938
20
-3.18093
11
5.33257
21
-3.18306
0
LINE
8
BLACK
6
CONTINUOUS
10
5.33257
20
-3.18306
11
5.3347
21
-3.18625
0
LINE
8
BLACK
6
CONTINUOUS
10
5.3347
20
-3.18625
11
5.33545
21
-3.19002
0
LINE
8
BLACK
6
CONTINUOUS
10
5.33545
20
-3.19002
11
5.33545
21
-3.21659
0
LINE
8
BLACK
6
CONTINUOUS
10
5.33545
20
-3.21659
11
5.3347
21
-3.22036
0
LINE
8
BLACK
6
CONTINUOUS
10
5.3347
20
-3.22036
11
5.33257
21
-3.22355
0
LINE
8
BLACK
6
CONTINUOUS
10
5.33257
20
-3.22355
11
5.32938
21
-3.22569
0
LINE
8
BLACK
6
CONTINUOUS
10
5.32938
20
-3.22569
11
5.32561
21
-3.22644
0
LINE
8
BLACK
6
CONTINUOUS
10
5.32561
20
-3.22644
11
5.28821
21
-3.22644
0
LINE
8
BLACK
6
CONTINUOUS
10
5.28821
20
-3.22644
11
5.28444
21
-3.22569
0
LINE
8
BLACK
6
CONTINUOUS
10
5.28444
20
-3.22569
11
5.28125
21
-3.22355
0
LINE
8
BLACK
6
CONTINUOUS
10
5.28125
20
-3.22355
11
5.27912
21
-3.22036
0
LINE
8
BLACK
6
CONTINUOUS
10
5.27912
20
-3.22036
11
5.27837
21
-3.21659
0
LINE
8
BLACK
6
CONTINUOUS
10
5.27837
20
-3.21659
11
5.27837
21
-3.19002
0
LINE
8
BLACK
6
CONTINUOUS
10
5.27837
20
-3.19002
11
5.27912
21
-3.18625
0
LINE
8
BLACK
6
CONTINUOUS
10
5.27912
20
-3.18625
11
5.28125
21
-3.18306
0
LINE
8
BLACK
6
CONTINUOUS
10
5.28125
20
-3.18306
11
5.28444
21
-3.18093
0
LINE
8
BLACK
6
CONTINUOUS
10
5.28444
20
-3.18093
11
5.28821
21
-3.18018
0
LINE
8
BLACK
6
CONTINUOUS
10
5.28821
20
-3.18018
11
5.32561
21
-3.18018
0
LINE
8
BLACK
6
CONTINUOUS
10
5.32561
20
-3.18018
11
5.32938
21
-3.18093
0
LINE
8
BLACK
6
CONTINUOUS
10
5.43247
20
-3.18093
11
5.43566
21
-3.18306
0
LINE
8
BLACK
6
CONTINUOUS
10
5.43566
20
-3.18306
11
5.43779
21
-3.18625
0
LINE
8
BLACK
6
CONTINUOUS
10
5.43779
20
-3.18625
11
5.43854
21
-3.19002
0
LINE
8
BLACK
6
CONTINUOUS
10
5.43854
20
-3.19002
11
5.43854
21
-3.21659
0
LINE
8
BLACK
6
CONTINUOUS
10
5.43854
20
-3.21659
11
5.43779
21
-3.22036
0
LINE
8
BLACK
6
CONTINUOUS
10
5.43779
20
-3.22036
11
5.43566
21
-3.22355
0
LINE
8
BLACK
6
CONTINUOUS
10
5.43566
20
-3.22355
11
5.43247
21
-3.22569
0
LINE
8
BLACK
6
CONTINUOUS
10
5.43247
20
-3.22569
11
5.4287
21
-3.22644
0
LINE
8
BLACK
6
CONTINUOUS
10
5.4287
20
-3.22644
11
5.3913
21
-3.22644
0
LINE
8
BLACK
6
CONTINUOUS
10
5.3913
20
-3.22644
11
5.38753
21
-3.22569
0
LINE
8
BLACK
6
CONTINUOUS
10
5.38753
20
-3.22569
11
5.38434
21
-3.22355
0
LINE
8
BLACK
6
CONTINUOUS
10
5.38434
20
-3.22355
11
5.38221
21
-3.22036
0
LINE
8
BLACK
6
CONTINUOUS
10
5.38221
20
-3.22036
11
5.38146
21
-3.21659
0
LINE
8
BLACK
6
CONTINUOUS
10
5.38146
20
-3.21659
11
5.38146
21
-3.19002
0
LINE
8
BLACK
6
CONTINUOUS
10
5.38146
20
-3.19002
11
5.38221
21
-3.18625
0
LINE
8
BLACK
6
CONTINUOUS
10
5.38221
20
-3.18625
11
5.38434
21
-3.18306
0
LINE
8
BLACK
6
CONTINUOUS
10
5.38434
20
-3.18306
11
5.38753
21
-3.18093
0
LINE
8
BLACK
6
CONTINUOUS
10
5.38753
20
-3.18093
11
5.3913
21
-3.18018
0
LINE
8
BLACK
6
CONTINUOUS
10
5.3913
20
-3.18018
11
5.4287
21
-3.18018
0
LINE
8
BLACK
6
CONTINUOUS
10
5.4287
20
-3.18018
11
5.43247
21
-3.18093
0
LINE
8
BLACK
6
CONTINUOUS
10
5.68012
20
-3.22146
11
5.61122
21
-3.22146
0
LINE
8
BLACK
6
CONTINUOUS
10
5.61122
20
-3.22146
11
5.61122
21
-3.20374
0
LINE
8
BLACK
6
CONTINUOUS
10
5.61122
20
-3.20374
11
5.68012
21
-3.20374
0
LINE
8
BLACK
6
CONTINUOUS
10
5.68012
20
-3.20374
11
5.68012
21
-3.22146
0
LINE
8
BLACK
6
CONTINUOUS
10
5.96358
20
-3.22146
11
5.89469
21
-3.22146
0
LINE
8
BLACK
6
CONTINUOUS
10
5.89469
20
-3.22146
11
5.89469
21
-3.20374
0
LINE
8
BLACK
6
CONTINUOUS
10
5.89469
20
-3.20374
11
5.96358
21
-3.20374
0
LINE
8
BLACK
6
CONTINUOUS
10
5.96358
20
-3.20374
11
5.96358
21
-3.22146
  0
ENDSEC
  0
EOF
