  0
SECTION
  2
HEADER
  9
$ANGBASE
  50
0.0
  9
$ANGDIR
  70
1
  9
$MEASUREMENT
  70
0
  0
ENDSEC
  0
SECTION
  2
TABLES
  0
TABLE
  2
LTYPE
  70
4
  0
LTYPE
  5
40F
  2
CONTINUOUS
  70
0
  3
Solid line
  72
65
  73
0
  40
0.0
  0
LTYPE
  5
410
  2
DASHDOT
 70
0
  3
Dash Dot ____ _ ____ _
 72
65
 73
4
 40
2.0
 49
1.25
 49
-0.25
 49
0.25
 49
-0.25
  0
LTYPE
  5
411
  2
DASHED
 70
0
  3
Dashed __ __ __ __ __
 72
65
 73
2
 40
0.75
 49
0.5
 49
-0.25
  0
LTYPE
  5
43B
  2
DOTTED
 70
0
  3
Dotted .  .  .  .
 72
65
 73
2
 40
0.2
 49
0.0
 49
-0.2
  0
ENDTAB
  0
TABLE
  2
STYLE
  70
4
  0
STYLE
  2
KICAD
  70
0
  40
0
  41
1
  42
1
  50
0
  71
0
  3
isocp.shx
  0
STYLE
  2
KICADB
  70
0
  40
0
  41
1
  42
1
  50
0
  71
0
  3
isocp.shx
  0
STYLE
  2
KICADI
  70
0
  40
0
  41
1
  42
1
  50
15
  71
0
  3
isocp.shx
  0
STYLE
  2
KICADBI
  70
0
  40
0
  41
1
  42
1
  50
15
  71
0
  3
isocp.shx
  0
ENDTAB
  0
TABLE
  2
LAYER
  70
1
  0
LAYER
  2
BLACK
  70
0
  62
7
  6
CONTINUOUS
  0
ENDTAB
  0
ENDSEC
  0
SECTION
  2
ENTITIES
0
LINE
8
BLACK
6
CONTINUOUS
10
5.62826
20
-3.76927
11
5.63068
21
-3.77089
0
LINE
8
BLACK
6
CONTINUOUS
10
5.63068
20
-3.77089
11
5.6323
21
-3.77332
0
LINE
8
BLACK
6
CONTINUOUS
10
5.6323
20
-3.77332
11
5.63287
21
-3.77618
0
LINE
8
BLACK
6
CONTINUOUS
10
5.63287
20
-3.77618
11
5.63287
21
-3.83012
0
LINE
8
BLACK
6
CONTINUOUS
10
5.63287
20
-3.83012
11
5.6323
21
-3.83298
0
LINE
8
BLACK
6
CONTINUOUS
10
5.6323
20
-3.83298
11
5.63068
21
-3.83541
0
LINE
8
BLACK
6
CONTINUOUS
10
5.63068
20
-3.83541
11
5.62826
21
-3.83703
0
LINE
8
BLACK
6
CONTINUOUS
10
5.62826
20
-3.83703
11
5.62539
21
-3.8376
0
LINE
8
BLACK
6
CONTINUOUS
10
5.62539
20
-3.8376
11
5.60295
21
-3.8376
0
LINE
8
BLACK
6
CONTINUOUS
10
5.60295
20
-3.8376
11
5.60009
21
-3.83703
0
LINE
8
BLACK
6
CONTINUOUS
10
5.60009
20
-3.83703
11
5.59766
21
-3.83541
0
LINE
8
BLACK
6
CONTINUOUS
10
5.59766
20
-3.83541
11
5.59604
21
-3.83298
0
LINE
8
BLACK
6
CONTINUOUS
10
5.59604
20
-3.83298
11
5.59547
21
-3.83012
0
LINE
8
BLACK
6
CONTINUOUS
10
5.59547
20
-3.83012
11
5.59547
21
-3.77618
0
LINE
8
BLACK
6
CONTINUOUS
10
5.59547
20
-3.77618
11
5.59604
21
-3.77332
0
LINE
8
BLACK
6
CONTINUOUS
10
5.59604
20
-3.77332
11
5.59766
21
-3.77089
0
LINE
8
BLACK
6
CONTINUOUS
10
5.59766
20
-3.77089
11
5.60009
21
-3.76927
0
LINE
8
BLACK
6
CONTINUOUS
10
5.60009
20
-3.76927
11
5.60295
21
-3.7687
0
LINE
8
BLACK
6
CONTINUOUS
10
5.60295
20
-3.7687
11
5.62539
21
-3.7687
0
LINE
8
BLACK
6
CONTINUOUS
10
5.62539
20
-3.7687
11
5.62826
21
-3.76927
0
LINE
8
BLACK
6
CONTINUOUS
10
5.7503
20
-3.76927
11
5.75273
21
-3.77089
0
LINE
8
BLACK
6
CONTINUOUS
10
5.75273
20
-3.77089
11
5.75435
21
-3.77332
0
LINE
8
BLACK
6
CONTINUOUS
10
5.75435
20
-3.77332
11
5.75492
21
-3.77618
0
LINE
8
BLACK
6
CONTINUOUS
10
5.75492
20
-3.77618
11
5.75492
21
-3.83012
0
LINE
8
BLACK
6
CONTINUOUS
10
5.75492
20
-3.83012
11
5.75435
21
-3.83298
0
LINE
8
BLACK
6
CONTINUOUS
10
5.75435
20
-3.83298
11
5.75273
21
-3.83541
0
LINE
8
BLACK
6
CONTINUOUS
10
5.75273
20
-3.83541
11
5.7503
21
-3.83703
0
LINE
8
BLACK
6
CONTINUOUS
10
5.7503
20
-3.83703
11
5.74744
21
-3.8376
0
LINE
8
BLACK
6
CONTINUOUS
10
5.74744
20
-3.8376
11
5.725
21
-3.8376
0
LINE
8
BLACK
6
CONTINUOUS
10
5.725
20
-3.8376
11
5.72214
21
-3.83703
0
LINE
8
BLACK
6
CONTINUOUS
10
5.72214
20
-3.83703
11
5.71971
21
-3.83541
0
LINE
8
BLACK
6
CONTINUOUS
10
5.71971
20
-3.83541
11
5.71809
21
-3.83298
0
LINE
8
BLACK
6
CONTINUOUS
10
5.71809
20
-3.83298
11
5.71752
21
-3.83012
0
LINE
8
BLACK
6
CONTINUOUS
10
5.71752
20
-3.83012
11
5.71752
21
-3.77618
0
LINE
8
BLACK
6
CONTINUOUS
10
5.71752
20
-3.77618
11
5.71809
21
-3.77332
0
LINE
8
BLACK
6
CONTINUOUS
10
5.71809
20
-3.77332
11
5.71971
21
-3.77089
0
LINE
8
BLACK
6
CONTINUOUS
10
5.71971
20
-3.77089
11
5.72214
21
-3.76927
0
LINE
8
BLACK
6
CONTINUOUS
10
5.72214
20
-3.76927
11
5.725
21
-3.7687
0
LINE
8
BLACK
6
CONTINUOUS
10
5.725
20
-3.7687
11
5.74744
21
-3.7687
0
LINE
8
BLACK
6
CONTINUOUS
10
5.74744
20
-3.7687
11
5.7503
21
-3.76927
0
LINE
8
BLACK
6
CONTINUOUS
10
5.05381
20
-3.77319
11
5.057
21
-3.77532
0
LINE
8
BLACK
6
CONTINUOUS
10
5.057
20
-3.77532
11
5.05913
21
-3.77852
0
LINE
8
BLACK
6
CONTINUOUS
10
5.05913
20
-3.77852
11
5.05988
21
-3.78228
0
LINE
8
BLACK
6
CONTINUOUS
10
5.05988
20
-3.78228
11
5.05988
21
-3.81772
0
LINE
8
BLACK
6
CONTINUOUS
10
5.05988
20
-3.81772
11
5.05913
21
-3.82148
0
LINE
8
BLACK
6
CONTINUOUS
10
5.05913
20
-3.82148
11
5.057
21
-3.82468
0
LINE
8
BLACK
6
CONTINUOUS
10
5.057
20
-3.82468
11
5.05381
21
-3.82681
0
LINE
8
BLACK
6
CONTINUOUS
10
5.05381
20
-3.82681
11
5.05004
21
-3.82756
0
LINE
8
BLACK
6
CONTINUOUS
10
5.05004
20
-3.82756
11
5.02248
21
-3.82756
0
LINE
8
BLACK
6
CONTINUOUS
10
5.02248
20
-3.82756
11
5.01871
21
-3.82681
0
LINE
8
BLACK
6
CONTINUOUS
10
5.01871
20
-3.82681
11
5.01552
21
-3.82468
0
LINE
8
BLACK
6
CONTINUOUS
10
5.01552
20
-3.82468
11
5.01339
21
-3.82148
0
LINE
8
BLACK
6
CONTINUOUS
10
5.01339
20
-3.82148
11
5.01264
21
-3.81772
0
LINE
8
BLACK
6
CONTINUOUS
10
5.01264
20
-3.81772
11
5.01264
21
-3.78228
0
LINE
8
BLACK
6
CONTINUOUS
10
5.01264
20
-3.78228
11
5.01339
21
-3.77852
0
LINE
8
BLACK
6
CONTINUOUS
10
5.01339
20
-3.77852
11
5.01552
21
-3.77532
0
LINE
8
BLACK
6
CONTINUOUS
10
5.01552
20
-3.77532
11
5.01871
21
-3.77319
0
LINE
8
BLACK
6
CONTINUOUS
10
5.01871
20
-3.77319
11
5.02248
21
-3.77244
0
LINE
8
BLACK
6
CONTINUOUS
10
5.02248
20
-3.77244
11
5.05004
21
-3.77244
0
LINE
8
BLACK
6
CONTINUOUS
10
5.05004
20
-3.77244
11
5.05381
21
-3.77319
0
LINE
8
BLACK
6
CONTINUOUS
10
5.13255
20
-3.77319
11
5.13574
21
-3.77532
0
LINE
8
BLACK
6
CONTINUOUS
10
5.13574
20
-3.77532
11
5.13787
21
-3.77852
0
LINE
8
BLACK
6
CONTINUOUS
10
5.13787
20
-3.77852
11
5.13862
21
-3.78228
0
LINE
8
BLACK
6
CONTINUOUS
10
5.13862
20
-3.78228
11
5.13862
21
-3.81772
0
LINE
8
BLACK
6
CONTINUOUS
10
5.13862
20
-3.81772
11
5.13787
21
-3.82148
0
LINE
8
BLACK
6
CONTINUOUS
10
5.13787
20
-3.82148
11
5.13574
21
-3.82468
0
LINE
8
BLACK
6
CONTINUOUS
10
5.13574
20
-3.82468
11
5.13255
21
-3.82681
0
LINE
8
BLACK
6
CONTINUOUS
10
5.13255
20
-3.82681
11
5.12878
21
-3.82756
0
LINE
8
BLACK
6
CONTINUOUS
10
5.12878
20
-3.82756
11
5.10122
21
-3.82756
0
LINE
8
BLACK
6
CONTINUOUS
10
5.10122
20
-3.82756
11
5.09745
21
-3.82681
0
LINE
8
BLACK
6
CONTINUOUS
10
5.09745
20
-3.82681
11
5.09426
21
-3.82468
0
LINE
8
BLACK
6
CONTINUOUS
10
5.09426
20
-3.82468
11
5.09213
21
-3.82148
0
LINE
8
BLACK
6
CONTINUOUS
10
5.09213
20
-3.82148
11
5.09138
21
-3.81772
0
LINE
8
BLACK
6
CONTINUOUS
10
5.09138
20
-3.81772
11
5.09138
21
-3.78228
0
LINE
8
BLACK
6
CONTINUOUS
10
5.09138
20
-3.78228
11
5.09213
21
-3.77852
0
LINE
8
BLACK
6
CONTINUOUS
10
5.09213
20
-3.77852
11
5.09426
21
-3.77532
0
LINE
8
BLACK
6
CONTINUOUS
10
5.09426
20
-3.77532
11
5.09745
21
-3.77319
0
LINE
8
BLACK
6
CONTINUOUS
10
5.09745
20
-3.77319
11
5.10122
21
-3.77244
0
LINE
8
BLACK
6
CONTINUOUS
10
5.10122
20
-3.77244
11
5.12878
21
-3.77244
0
LINE
8
BLACK
6
CONTINUOUS
10
5.12878
20
-3.77244
11
5.13255
21
-3.77319
0
LINE
8
BLACK
6
CONTINUOUS
10
5.21381
20
-3.77319
11
5.217
21
-3.77532
0
LINE
8
BLACK
6
CONTINUOUS
10
5.217
20
-3.77532
11
5.21913
21
-3.77852
0
LINE
8
BLACK
6
CONTINUOUS
10
5.21913
20
-3.77852
11
5.21988
21
-3.78228
0
LINE
8
BLACK
6
CONTINUOUS
10
5.21988
20
-3.78228
11
5.21988
21
-3.81772
0
LINE
8
BLACK
6
CONTINUOUS
10
5.21988
20
-3.81772
11
5.21913
21
-3.82148
0
LINE
8
BLACK
6
CONTINUOUS
10
5.21913
20
-3.82148
11
5.217
21
-3.82468
0
LINE
8
BLACK
6
CONTINUOUS
10
5.217
20
-3.82468
11
5.21381
21
-3.82681
0
LINE
8
BLACK
6
CONTINUOUS
10
5.21381
20
-3.82681
11
5.21004
21
-3.82756
0
LINE
8
BLACK
6
CONTINUOUS
10
5.21004
20
-3.82756
11
5.18248
21
-3.82756
0
LINE
8
BLACK
6
CONTINUOUS
10
5.18248
20
-3.82756
11
5.17871
21
-3.82681
0
LINE
8
BLACK
6
CONTINUOUS
10
5.17871
20
-3.82681
11
5.17552
21
-3.82468
0
LINE
8
BLACK
6
CONTINUOUS
10
5.17552
20
-3.82468
11
5.17339
21
-3.82148
0
LINE
8
BLACK
6
CONTINUOUS
10
5.17339
20
-3.82148
11
5.17264
21
-3.81772
0
LINE
8
BLACK
6
CONTINUOUS
10
5.17264
20
-3.81772
11
5.17264
21
-3.78228
0
LINE
8
BLACK
6
CONTINUOUS
10
5.17264
20
-3.78228
11
5.17339
21
-3.77852
0
LINE
8
BLACK
6
CONTINUOUS
10
5.17339
20
-3.77852
11
5.17552
21
-3.77532
0
LINE
8
BLACK
6
CONTINUOUS
10
5.17552
20
-3.77532
11
5.17871
21
-3.77319
0
LINE
8
BLACK
6
CONTINUOUS
10
5.17871
20
-3.77319
11
5.18248
21
-3.77244
0
LINE
8
BLACK
6
CONTINUOUS
10
5.18248
20
-3.77244
11
5.21004
21
-3.77244
0
LINE
8
BLACK
6
CONTINUOUS
10
5.21004
20
-3.77244
11
5.21381
21
-3.77319
0
LINE
8
BLACK
6
CONTINUOUS
10
5.29255
20
-3.77319
11
5.29574
21
-3.77532
0
LINE
8
BLACK
6
CONTINUOUS
10
5.29574
20
-3.77532
11
5.29787
21
-3.77852
0
LINE
8
BLACK
6
CONTINUOUS
10
5.29787
20
-3.77852
11
5.29862
21
-3.78228
0
LINE
8
BLACK
6
CONTINUOUS
10
5.29862
20
-3.78228
11
5.29862
21
-3.81772
0
LINE
8
BLACK
6
CONTINUOUS
10
5.29862
20
-3.81772
11
5.29787
21
-3.82148
0
LINE
8
BLACK
6
CONTINUOUS
10
5.29787
20
-3.82148
11
5.29574
21
-3.82468
0
LINE
8
BLACK
6
CONTINUOUS
10
5.29574
20
-3.82468
11
5.29255
21
-3.82681
0
LINE
8
BLACK
6
CONTINUOUS
10
5.29255
20
-3.82681
11
5.28878
21
-3.82756
0
LINE
8
BLACK
6
CONTINUOUS
10
5.28878
20
-3.82756
11
5.26122
21
-3.82756
0
LINE
8
BLACK
6
CONTINUOUS
10
5.26122
20
-3.82756
11
5.25745
21
-3.82681
0
LINE
8
BLACK
6
CONTINUOUS
10
5.25745
20
-3.82681
11
5.25426
21
-3.82468
0
LINE
8
BLACK
6
CONTINUOUS
10
5.25426
20
-3.82468
11
5.25213
21
-3.82148
0
LINE
8
BLACK
6
CONTINUOUS
10
5.25213
20
-3.82148
11
5.25138
21
-3.81772
0
LINE
8
BLACK
6
CONTINUOUS
10
5.25138
20
-3.81772
11
5.25138
21
-3.78228
0
LINE
8
BLACK
6
CONTINUOUS
10
5.25138
20
-3.78228
11
5.25213
21
-3.77852
0
LINE
8
BLACK
6
CONTINUOUS
10
5.25213
20
-3.77852
11
5.25426
21
-3.77532
0
LINE
8
BLACK
6
CONTINUOUS
10
5.25426
20
-3.77532
11
5.25745
21
-3.77319
0
LINE
8
BLACK
6
CONTINUOUS
10
5.25745
20
-3.77319
11
5.26122
21
-3.77244
0
LINE
8
BLACK
6
CONTINUOUS
10
5.26122
20
-3.77244
11
5.28878
21
-3.77244
0
LINE
8
BLACK
6
CONTINUOUS
10
5.28878
20
-3.77244
11
5.29255
21
-3.77319
0
LINE
8
BLACK
6
CONTINUOUS
10
5.84038
20
-3.76847
11
5.84357
21
-3.7706
0
LINE
8
BLACK
6
CONTINUOUS
10
5.84357
20
-3.7706
11
5.84571
21
-3.77379
0
LINE
8
BLACK
6
CONTINUOUS
10
5.84571
20
-3.77379
11
5.84646
21
-3.77756
0
LINE
8
BLACK
6
CONTINUOUS
10
5.84646
20
-3.77756
11
5.84646
21
-3.81299
0
LINE
8
BLACK
6
CONTINUOUS
10
5.84646
20
-3.81299
11
5.84571
21
-3.81676
0
LINE
8
BLACK
6
CONTINUOUS
10
5.84571
20
-3.81676
11
5.84357
21
-3.81995
0
LINE
8
BLACK
6
CONTINUOUS
10
5.84357
20
-3.81995
11
5.84038
21
-3.82209
0
LINE
8
BLACK
6
CONTINUOUS
10
5.84038
20
-3.82209
11
5.83661
21
-3.82283
0
LINE
8
BLACK
6
CONTINUOUS
10
5.83661
20
-3.82283
11
5.80906
21
-3.82283
0
LINE
8
BLACK
6
CONTINUOUS
10
5.80906
20
-3.82283
11
5.80529
21
-3.82209
0
LINE
8
BLACK
6
CONTINUOUS
10
5.80529
20
-3.82209
11
5.8021
21
-3.81995
0
LINE
8
BLACK
6
CONTINUOUS
10
5.8021
20
-3.81995
11
5.79996
21
-3.81676
0
LINE
8
BLACK
6
CONTINUOUS
10
5.79996
20
-3.81676
11
5.79921
21
-3.81299
0
LINE
8
BLACK
6
CONTINUOUS
10
5.79921
20
-3.81299
11
5.79921
21
-3.77756
0
LINE
8
BLACK
6
CONTINUOUS
10
5.79921
20
-3.77756
11
5.79996
21
-3.77379
0
LINE
8
BLACK
6
CONTINUOUS
10
5.79996
20
-3.77379
11
5.8021
21
-3.7706
0
LINE
8
BLACK
6
CONTINUOUS
10
5.8021
20
-3.7706
11
5.80529
21
-3.76847
0
LINE
8
BLACK
6
CONTINUOUS
10
5.80529
20
-3.76847
11
5.80906
21
-3.76772
0
LINE
8
BLACK
6
CONTINUOUS
10
5.80906
20
-3.76772
11
5.83661
21
-3.76772
0
LINE
8
BLACK
6
CONTINUOUS
10
5.83661
20
-3.76772
11
5.84038
21
-3.76847
0
LINE
8
BLACK
6
CONTINUOUS
10
5.91912
20
-3.76847
11
5.92231
21
-3.7706
0
LINE
8
BLACK
6
CONTINUOUS
10
5.92231
20
-3.7706
11
5.92445
21
-3.77379
0
LINE
8
BLACK
6
CONTINUOUS
10
5.92445
20
-3.77379
11
5.9252
21
-3.77756
0
LINE
8
BLACK
6
CONTINUOUS
10
5.9252
20
-3.77756
11
5.9252
21
-3.81299
0
LINE
8
BLACK
6
CONTINUOUS
10
5.9252
20
-3.81299
11
5.92445
21
-3.81676
0
LINE
8
BLACK
6
CONTINUOUS
10
5.92445
20
-3.81676
11
5.92231
21
-3.81995
0
LINE
8
BLACK
6
CONTINUOUS
10
5.92231
20
-3.81995
11
5.91912
21
-3.82209
0
LINE
8
BLACK
6
CONTINUOUS
10
5.91912
20
-3.82209
11
5.91535
21
-3.82283
0
LINE
8
BLACK
6
CONTINUOUS
10
5.91535
20
-3.82283
11
5.8878
21
-3.82283
0
LINE
8
BLACK
6
CONTINUOUS
10
5.8878
20
-3.82283
11
5.88403
21
-3.82209
0
LINE
8
BLACK
6
CONTINUOUS
10
5.88403
20
-3.82209
11
5.88084
21
-3.81995
0
LINE
8
BLACK
6
CONTINUOUS
10
5.88084
20
-3.81995
11
5.8787
21
-3.81676
0
LINE
8
BLACK
6
CONTINUOUS
10
5.8787
20
-3.81676
11
5.87795
21
-3.81299
0
LINE
8
BLACK
6
CONTINUOUS
10
5.87795
20
-3.81299
11
5.87795
21
-3.77756
0
LINE
8
BLACK
6
CONTINUOUS
10
5.87795
20
-3.77756
11
5.8787
21
-3.77379
0
LINE
8
BLACK
6
CONTINUOUS
10
5.8787
20
-3.77379
11
5.88084
21
-3.7706
0
LINE
8
BLACK
6
CONTINUOUS
10
5.88084
20
-3.7706
11
5.88403
21
-3.76847
0
LINE
8
BLACK
6
CONTINUOUS
10
5.88403
20
-3.76847
11
5.8878
21
-3.76772
0
LINE
8
BLACK
6
CONTINUOUS
10
5.8878
20
-3.76772
11
5.91535
21
-3.76772
0
LINE
8
BLACK
6
CONTINUOUS
10
5.91535
20
-3.76772
11
5.91912
21
-3.76847
0
LINE
8
BLACK
6
CONTINUOUS
10
5.7503
20
-3.64722
11
5.75273
21
-3.64884
0
LINE
8
BLACK
6
CONTINUOUS
10
5.75273
20
-3.64884
11
5.75435
21
-3.65127
0
LINE
8
BLACK
6
CONTINUOUS
10
5.75435
20
-3.65127
11
5.75492
21
-3.65413
0
LINE
8
BLACK
6
CONTINUOUS
10
5.75492
20
-3.65413
11
5.75492
21
-3.70807
0
LINE
8
BLACK
6
CONTINUOUS
10
5.75492
20
-3.70807
11
5.75435
21
-3.71093
0
LINE
8
BLACK
6
CONTINUOUS
10
5.75435
20
-3.71093
11
5.75273
21
-3.71336
0
LINE
8
BLACK
6
CONTINUOUS
10
5.75273
20
-3.71336
11
5.7503
21
-3.71498
0
LINE
8
BLACK
6
CONTINUOUS
10
5.7503
20
-3.71498
11
5.74744
21
-3.71555
0
LINE
8
BLACK
6
CONTINUOUS
10
5.74744
20
-3.71555
11
5.725
21
-3.71555
0
LINE
8
BLACK
6
CONTINUOUS
10
5.725
20
-3.71555
11
5.72214
21
-3.71498
0
LINE
8
BLACK
6
CONTINUOUS
10
5.72214
20
-3.71498
11
5.71971
21
-3.71336
0
LINE
8
BLACK
6
CONTINUOUS
10
5.71971
20
-3.71336
11
5.71809
21
-3.71093
0
LINE
8
BLACK
6
CONTINUOUS
10
5.71809
20
-3.71093
11
5.71752
21
-3.70807
0
LINE
8
BLACK
6
CONTINUOUS
10
5.71752
20
-3.70807
11
5.71752
21
-3.65413
0
LINE
8
BLACK
6
CONTINUOUS
10
5.71752
20
-3.65413
11
5.71809
21
-3.65127
0
LINE
8
BLACK
6
CONTINUOUS
10
5.71809
20
-3.65127
11
5.71971
21
-3.64884
0
LINE
8
BLACK
6
CONTINUOUS
10
5.71971
20
-3.64884
11
5.72214
21
-3.64722
0
LINE
8
BLACK
6
CONTINUOUS
10
5.72214
20
-3.64722
11
5.725
21
-3.64665
0
LINE
8
BLACK
6
CONTINUOUS
10
5.725
20
-3.64665
11
5.74744
21
-3.64665
0
LINE
8
BLACK
6
CONTINUOUS
10
5.74744
20
-3.64665
11
5.7503
21
-3.64722
0
LINE
8
BLACK
6
CONTINUOUS
10
5.62826
20
-3.64722
11
5.63068
21
-3.64884
0
LINE
8
BLACK
6
CONTINUOUS
10
5.63068
20
-3.64884
11
5.6323
21
-3.65127
0
LINE
8
BLACK
6
CONTINUOUS
10
5.6323
20
-3.65127
11
5.63287
21
-3.65413
0
LINE
8
BLACK
6
CONTINUOUS
10
5.63287
20
-3.65413
11
5.63287
21
-3.70807
0
LINE
8
BLACK
6
CONTINUOUS
10
5.63287
20
-3.70807
11
5.6323
21
-3.71093
0
LINE
8
BLACK
6
CONTINUOUS
10
5.6323
20
-3.71093
11
5.63068
21
-3.71336
0
LINE
8
BLACK
6
CONTINUOUS
10
5.63068
20
-3.71336
11
5.62826
21
-3.71498
0
LINE
8
BLACK
6
CONTINUOUS
10
5.62826
20
-3.71498
11
5.62539
21
-3.71555
0
LINE
8
BLACK
6
CONTINUOUS
10
5.62539
20
-3.71555
11
5.60295
21
-3.71555
0
LINE
8
BLACK
6
CONTINUOUS
10
5.60295
20
-3.71555
11
5.60009
21
-3.71498
0
LINE
8
BLACK
6
CONTINUOUS
10
5.60009
20
-3.71498
11
5.59766
21
-3.71336
0
LINE
8
BLACK
6
CONTINUOUS
10
5.59766
20
-3.71336
11
5.59604
21
-3.71093
0
LINE
8
BLACK
6
CONTINUOUS
10
5.59604
20
-3.71093
11
5.59547
21
-3.70807
0
LINE
8
BLACK
6
CONTINUOUS
10
5.59547
20
-3.70807
11
5.59547
21
-3.65413
0
LINE
8
BLACK
6
CONTINUOUS
10
5.59547
20
-3.65413
11
5.59604
21
-3.65127
0
LINE
8
BLACK
6
CONTINUOUS
10
5.59604
20
-3.65127
11
5.59766
21
-3.64884
0
LINE
8
BLACK
6
CONTINUOUS
10
5.59766
20
-3.64884
11
5.60009
21
-3.64722
0
LINE
8
BLACK
6
CONTINUOUS
10
5.60009
20
-3.64722
11
5.60295
21
-3.64665
0
LINE
8
BLACK
6
CONTINUOUS
10
5.60295
20
-3.64665
11
5.62539
21
-3.64665
0
LINE
8
BLACK
6
CONTINUOUS
10
5.62539
20
-3.64665
11
5.62826
21
-3.64722
0
LINE
8
BLACK
6
CONTINUOUS
10
5.91912
20
-3.65429
11
5.92231
21
-3.65643
0
LINE
8
BLACK
6
CONTINUOUS
10
5.92231
20
-3.65643
11
5.92445
21
-3.65962
0
LINE
8
BLACK
6
CONTINUOUS
10
5.92445
20
-3.65962
11
5.9252
21
-3.66339
0
LINE
8
BLACK
6
CONTINUOUS
10
5.9252
20
-3.66339
11
5.9252
21
-3.69882
0
LINE
8
BLACK
6
CONTINUOUS
10
5.9252
20
-3.69882
11
5.92445
21
-3.70259
0
LINE
8
BLACK
6
CONTINUOUS
10
5.92445
20
-3.70259
11
5.92231
21
-3.70578
0
LINE
8
BLACK
6
CONTINUOUS
10
5.92231
20
-3.70578
11
5.91912
21
-3.70791
0
LINE
8
BLACK
6
CONTINUOUS
10
5.91912
20
-3.70791
11
5.91535
21
-3.70866
0
LINE
8
BLACK
6
CONTINUOUS
10
5.91535
20
-3.70866
11
5.8878
21
-3.70866
0
LINE
8
BLACK
6
CONTINUOUS
10
5.8878
20
-3.70866
11
5.88403
21
-3.70791
0
LINE
8
BLACK
6
CONTINUOUS
10
5.88403
20
-3.70791
11
5.88084
21
-3.70578
0
LINE
8
BLACK
6
CONTINUOUS
10
5.88084
20
-3.70578
11
5.8787
21
-3.70259
0
LINE
8
BLACK
6
CONTINUOUS
10
5.8787
20
-3.70259
11
5.87795
21
-3.69882
0
LINE
8
BLACK
6
CONTINUOUS
10
5.87795
20
-3.69882
11
5.87795
21
-3.66339
0
LINE
8
BLACK
6
CONTINUOUS
10
5.87795
20
-3.66339
11
5.8787
21
-3.65962
0
LINE
8
BLACK
6
CONTINUOUS
10
5.8787
20
-3.65962
11
5.88084
21
-3.65643
0
LINE
8
BLACK
6
CONTINUOUS
10
5.88084
20
-3.65643
11
5.88403
21
-3.65429
0
LINE
8
BLACK
6
CONTINUOUS
10
5.88403
20
-3.65429
11
5.8878
21
-3.65354
0
LINE
8
BLACK
6
CONTINUOUS
10
5.8878
20
-3.65354
11
5.91535
21
-3.65354
0
LINE
8
BLACK
6
CONTINUOUS
10
5.91535
20
-3.65354
11
5.91912
21
-3.65429
0
LINE
8
BLACK
6
CONTINUOUS
10
5.84038
20
-3.65429
11
5.84357
21
-3.65643
0
LINE
8
BLACK
6
CONTINUOUS
10
5.84357
20
-3.65643
11
5.84571
21
-3.65962
0
LINE
8
BLACK
6
CONTINUOUS
10
5.84571
20
-3.65962
11
5.84646
21
-3.66339
0
LINE
8
BLACK
6
CONTINUOUS
10
5.84646
20
-3.66339
11
5.84646
21
-3.69882
0
LINE
8
BLACK
6
CONTINUOUS
10
5.84646
20
-3.69882
11
5.84571
21
-3.70259
0
LINE
8
BLACK
6
CONTINUOUS
10
5.84571
20
-3.70259
11
5.84357
21
-3.70578
0
LINE
8
BLACK
6
CONTINUOUS
10
5.84357
20
-3.70578
11
5.84038
21
-3.70791
0
LINE
8
BLACK
6
CONTINUOUS
10
5.84038
20
-3.70791
11
5.83661
21
-3.70866
0
LINE
8
BLACK
6
CONTINUOUS
10
5.83661
20
-3.70866
11
5.80906
21
-3.70866
0
LINE
8
BLACK
6
CONTINUOUS
10
5.80906
20
-3.70866
11
5.80529
21
-3.70791
0
LINE
8
BLACK
6
CONTINUOUS
10
5.80529
20
-3.70791
11
5.8021
21
-3.70578
0
LINE
8
BLACK
6
CONTINUOUS
10
5.8021
20
-3.70578
11
5.79996
21
-3.70259
0
LINE
8
BLACK
6
CONTINUOUS
10
5.79996
20
-3.70259
11
5.79921
21
-3.69882
0
LINE
8
BLACK
6
CONTINUOUS
10
5.79921
20
-3.69882
11
5.79921
21
-3.66339
0
LINE
8
BLACK
6
CONTINUOUS
10
5.79921
20
-3.66339
11
5.79996
21
-3.65962
0
LINE
8
BLACK
6
CONTINUOUS
10
5.79996
20
-3.65962
11
5.8021
21
-3.65643
0
LINE
8
BLACK
6
CONTINUOUS
10
5.8021
20
-3.65643
11
5.80529
21
-3.65429
0
LINE
8
BLACK
6
CONTINUOUS
10
5.80529
20
-3.65429
11
5.80906
21
-3.65354
0
LINE
8
BLACK
6
CONTINUOUS
10
5.80906
20
-3.65354
11
5.83661
21
-3.65354
0
LINE
8
BLACK
6
CONTINUOUS
10
5.83661
20
-3.65354
11
5.84038
21
-3.65429
0
LINE
8
BLACK
6
CONTINUOUS
10
5.32808
20
-3.61221
11
5.33127
21
-3.61434
0
LINE
8
BLACK
6
CONTINUOUS
10
5.33127
20
-3.61434
11
5.3334
21
-3.61753
0
LINE
8
BLACK
6
CONTINUOUS
10
5.3334
20
-3.61753
11
5.33415
21
-3.6213
0
LINE
8
BLACK
6
CONTINUOUS
10
5.33415
20
-3.6213
11
5.33415
21
-3.6587
0
LINE
8
BLACK
6
CONTINUOUS
10
5.33415
20
-3.6587
11
5.3334
21
-3.66247
0
LINE
8
BLACK
6
CONTINUOUS
10
5.3334
20
-3.66247
11
5.33127
21
-3.66566
0
LINE
8
BLACK
6
CONTINUOUS
10
5.33127
20
-3.66566
11
5.32808
21
-3.66779
0
LINE
8
BLACK
6
CONTINUOUS
10
5.32808
20
-3.66779
11
5.32431
21
-3.66854
0
LINE
8
BLACK
6
CONTINUOUS
10
5.32431
20
-3.66854
11
5.29774
21
-3.66854
0
LINE
8
BLACK
6
CONTINUOUS
10
5.29774
20
-3.66854
11
5.29397
21
-3.66779
0
LINE
8
BLACK
6
CONTINUOUS
10
5.29397
20
-3.66779
11
5.29078
21
-3.66566
0
LINE
8
BLACK
6
CONTINUOUS
10
5.29078
20
-3.66566
11
5.28864
21
-3.66247
0
LINE
8
BLACK
6
CONTINUOUS
10
5.28864
20
-3.66247
11
5.28789
21
-3.6587
0
LINE
8
BLACK
6
CONTINUOUS
10
5.28789
20
-3.6587
11
5.28789
21
-3.6213
0
LINE
8
BLACK
6
CONTINUOUS
10
5.28789
20
-3.6213
11
5.28864
21
-3.61753
0
LINE
8
BLACK
6
CONTINUOUS
10
5.28864
20
-3.61753
11
5.29078
21
-3.61434
0
LINE
8
BLACK
6
CONTINUOUS
10
5.29078
20
-3.61434
11
5.29397
21
-3.61221
0
LINE
8
BLACK
6
CONTINUOUS
10
5.29397
20
-3.61221
11
5.29774
21
-3.61146
0
LINE
8
BLACK
6
CONTINUOUS
10
5.29774
20
-3.61146
11
5.32431
21
-3.61146
0
LINE
8
BLACK
6
CONTINUOUS
10
5.32431
20
-3.61146
11
5.32808
21
-3.61221
0
LINE
8
BLACK
6
CONTINUOUS
10
5.40977
20
-3.61221
11
5.41296
21
-3.61434
0
LINE
8
BLACK
6
CONTINUOUS
10
5.41296
20
-3.61434
11
5.4151
21
-3.61753
0
LINE
8
BLACK
6
CONTINUOUS
10
5.4151
20
-3.61753
11
5.41585
21
-3.6213
0
LINE
8
BLACK
6
CONTINUOUS
10
5.41585
20
-3.6213
11
5.41585
21
-3.6587
0
LINE
8
BLACK
6
CONTINUOUS
10
5.41585
20
-3.6587
11
5.4151
21
-3.66247
0
LINE
8
BLACK
6
CONTINUOUS
10
5.4151
20
-3.66247
11
5.41296
21
-3.66566
0
LINE
8
BLACK
6
CONTINUOUS
10
5.41296
20
-3.66566
11
5.40977
21
-3.66779
0
LINE
8
BLACK
6
CONTINUOUS
10
5.40977
20
-3.66779
11
5.406
21
-3.66854
0
LINE
8
BLACK
6
CONTINUOUS
10
5.406
20
-3.66854
11
5.37943
21
-3.66854
0
LINE
8
BLACK
6
CONTINUOUS
10
5.37943
20
-3.66854
11
5.37566
21
-3.66779
0
LINE
8
BLACK
6
CONTINUOUS
10
5.37566
20
-3.66779
11
5.37247
21
-3.66566
0
LINE
8
BLACK
6
CONTINUOUS
10
5.37247
20
-3.66566
11
5.37034
21
-3.66247
0
LINE
8
BLACK
6
CONTINUOUS
10
5.37034
20
-3.66247
11
5.36959
21
-3.6587
0
LINE
8
BLACK
6
CONTINUOUS
10
5.36959
20
-3.6587
11
5.36959
21
-3.6213
0
LINE
8
BLACK
6
CONTINUOUS
10
5.36959
20
-3.6213
11
5.37034
21
-3.61753
0
LINE
8
BLACK
6
CONTINUOUS
10
5.37034
20
-3.61753
11
5.37247
21
-3.61434
0
LINE
8
BLACK
6
CONTINUOUS
10
5.37247
20
-3.61434
11
5.37566
21
-3.61221
0
LINE
8
BLACK
6
CONTINUOUS
10
5.37566
20
-3.61221
11
5.37943
21
-3.61146
0
LINE
8
BLACK
6
CONTINUOUS
10
5.37943
20
-3.61146
11
5.406
21
-3.61146
0
LINE
8
BLACK
6
CONTINUOUS
10
5.406
20
-3.61146
11
5.40977
21
-3.61221
0
LINE
8
BLACK
6
CONTINUOUS
10
5.13957
20
-3.6378
11
5.0939
21
-3.6378
0
LINE
8
BLACK
6
CONTINUOUS
10
5.0939
20
-3.6378
11
5.0939
21
-3.61417
0
LINE
8
BLACK
6
CONTINUOUS
10
5.0939
20
-3.61417
11
5.13957
21
-3.61417
0
LINE
8
BLACK
6
CONTINUOUS
10
5.13957
20
-3.61417
11
5.13957
21
-3.6378
0
LINE
8
BLACK
6
CONTINUOUS
10
5.13957
20
-3.6063
11
5.0939
21
-3.6063
0
LINE
8
BLACK
6
CONTINUOUS
10
5.0939
20
-3.6063
11
5.0939
21
-3.58268
0
LINE
8
BLACK
6
CONTINUOUS
10
5.0939
20
-3.58268
11
5.13957
21
-3.58268
0
LINE
8
BLACK
6
CONTINUOUS
10
5.13957
20
-3.58268
11
5.13957
21
-3.6063
0
LINE
8
BLACK
6
CONTINUOUS
10
5.13957
20
-3.5748
11
5.0939
21
-3.5748
0
LINE
8
BLACK
6
CONTINUOUS
10
5.0939
20
-3.5748
11
5.0939
21
-3.56299
0
LINE
8
BLACK
6
CONTINUOUS
10
5.0939
20
-3.56299
11
5.13957
21
-3.56299
0
LINE
8
BLACK
6
CONTINUOUS
10
5.13957
20
-3.56299
11
5.13957
21
-3.5748
0
LINE
8
BLACK
6
CONTINUOUS
10
5.13957
20
-3.55512
11
5.0939
21
-3.55512
0
LINE
8
BLACK
6
CONTINUOUS
10
5.0939
20
-3.55512
11
5.0939
21
-3.54331
0
LINE
8
BLACK
6
CONTINUOUS
10
5.0939
20
-3.54331
11
5.13957
21
-3.54331
0
LINE
8
BLACK
6
CONTINUOUS
10
5.13957
20
-3.54331
11
5.13957
21
-3.55512
0
LINE
8
BLACK
6
CONTINUOUS
10
5.68012
20
-3.55413
11
5.61122
21
-3.55413
0
LINE
8
BLACK
6
CONTINUOUS
10
5.61122
20
-3.55413
11
5.61122
21
-3.53642
0
LINE
8
BLACK
6
CONTINUOUS
10
5.61122
20
-3.53642
11
5.68012
21
-3.53642
0
LINE
8
BLACK
6
CONTINUOUS
10
5.68012
20
-3.53642
11
5.68012
21
-3.55413
0
LINE
8
BLACK
6
CONTINUOUS
10
5.96358
20
-3.55413
11
5.89469
21
-3.55413
0
LINE
8
BLACK
6
CONTINUOUS
10
5.89469
20
-3.55413
11
5.89469
21
-3.53642
0
LINE
8
BLACK
6
CONTINUOUS
10
5.89469
20
-3.53642
11
5.96358
21
-3.53642
0
LINE
8
BLACK
6
CONTINUOUS
10
5.96358
20
-3.53642
11
5.96358
21
-3.55413
0
LINE
8
BLACK
6
CONTINUOUS
10
5.32952
20
-3.51364
11
5.33144
21
-3.51492
0
LINE
8
BLACK
6
CONTINUOUS
10
5.33144
20
-3.51492
11
5.33272
21
-3.51683
0
LINE
8
BLACK
6
CONTINUOUS
10
5.33272
20
-3.51683
11
5.33317
21
-3.51909
0
LINE
8
BLACK
6
CONTINUOUS
10
5.33317
20
-3.51909
11
5.33317
21
-3.53091
0
LINE
8
BLACK
6
CONTINUOUS
10
5.33317
20
-3.53091
11
5.33272
21
-3.53317
0
LINE
8
BLACK
6
CONTINUOUS
10
5.33272
20
-3.53317
11
5.33144
21
-3.53508
0
LINE
8
BLACK
6
CONTINUOUS
10
5.33144
20
-3.53508
11
5.32952
21
-3.53636
0
LINE
8
BLACK
6
CONTINUOUS
10
5.32952
20
-3.53636
11
5.32726
21
-3.53681
0
LINE
8
BLACK
6
CONTINUOUS
10
5.32726
20
-3.53681
11
5.28691
21
-3.53681
0
LINE
8
BLACK
6
CONTINUOUS
10
5.28691
20
-3.53681
11
5.28465
21
-3.53636
0
LINE
8
BLACK
6
CONTINUOUS
10
5.28465
20
-3.53636
11
5.28273
21
-3.53508
0
LINE
8
BLACK
6
CONTINUOUS
10
5.28273
20
-3.53508
11
5.28145
21
-3.53317
0
LINE
8
BLACK
6
CONTINUOUS
10
5.28145
20
-3.53317
11
5.281
21
-3.53091
0
LINE
8
BLACK
6
CONTINUOUS
10
5.281
20
-3.53091
11
5.281
21
-3.51909
0
LINE
8
BLACK
6
CONTINUOUS
10
5.281
20
-3.51909
11
5.28145
21
-3.51683
0
LINE
8
BLACK
6
CONTINUOUS
10
5.28145
20
-3.51683
11
5.28273
21
-3.51492
0
LINE
8
BLACK
6
CONTINUOUS
10
5.28273
20
-3.51492
11
5.28465
21
-3.51364
0
LINE
8
BLACK
6
CONTINUOUS
10
5.28465
20
-3.51364
11
5.28691
21
-3.51319
0
LINE
8
BLACK
6
CONTINUOUS
10
5.28691
20
-3.51319
11
5.32726
21
-3.51319
0
LINE
8
BLACK
6
CONTINUOUS
10
5.32726
20
-3.51319
11
5.32952
21
-3.51364
0
LINE
8
BLACK
6
CONTINUOUS
10
5.41909
20
-3.51364
11
5.42101
21
-3.51492
0
LINE
8
BLACK
6
CONTINUOUS
10
5.42101
20
-3.51492
11
5.42229
21
-3.51683
0
LINE
8
BLACK
6
CONTINUOUS
10
5.42229
20
-3.51683
11
5.42274
21
-3.51909
0
LINE
8
BLACK
6
CONTINUOUS
10
5.42274
20
-3.51909
11
5.42274
21
-3.53091
0
LINE
8
BLACK
6
CONTINUOUS
10
5.42274
20
-3.53091
11
5.42229
21
-3.53317
0
LINE
8
BLACK
6
CONTINUOUS
10
5.42229
20
-3.53317
11
5.42101
21
-3.53508
0
LINE
8
BLACK
6
CONTINUOUS
10
5.42101
20
-3.53508
11
5.41909
21
-3.53636
0
LINE
8
BLACK
6
CONTINUOUS
10
5.41909
20
-3.53636
11
5.41683
21
-3.53681
0
LINE
8
BLACK
6
CONTINUOUS
10
5.41683
20
-3.53681
11
5.37648
21
-3.53681
0
LINE
8
BLACK
6
CONTINUOUS
10
5.37648
20
-3.53681
11
5.37422
21
-3.53636
0
LINE
8
BLACK
6
CONTINUOUS
10
5.37422
20
-3.53636
11
5.3723
21
-3.53508
0
LINE
8
BLACK
6
CONTINUOUS
10
5.3723
20
-3.53508
11
5.37102
21
-3.53317
0
LINE
8
BLACK
6
CONTINUOUS
10
5.37102
20
-3.53317
11
5.37057
21
-3.53091
0
LINE
8
BLACK
6
CONTINUOUS
10
5.37057
20
-3.53091
11
5.37057
21
-3.51909
0
LINE
8
BLACK
6
CONTINUOUS
10
5.37057
20
-3.51909
11
5.37102
21
-3.51683
0
LINE
8
BLACK
6
CONTINUOUS
10
5.37102
20
-3.51683
11
5.3723
21
-3.51492
0
LINE
8
BLACK
6
CONTINUOUS
10
5.3723
20
-3.51492
11
5.37422
21
-3.51364
0
LINE
8
BLACK
6
CONTINUOUS
10
5.37422
20
-3.51364
11
5.37648
21
-3.51319
0
LINE
8
BLACK
6
CONTINUOUS
10
5.37648
20
-3.51319
11
5.41683
21
-3.51319
0
LINE
8
BLACK
6
CONTINUOUS
10
5.41683
20
-3.51319
11
5.41909
21
-3.51364
0
LINE
8
BLACK
6
CONTINUOUS
10
5.13957
20
-3.53543
11
5.0939
21
-3.53543
0
LINE
8
BLACK
6
CONTINUOUS
10
5.0939
20
-3.53543
11
5.0939
21
-3.52362
0
LINE
8
BLACK
6
CONTINUOUS
10
5.0939
20
-3.52362
11
5.13957
21
-3.52362
0
LINE
8
BLACK
6
CONTINUOUS
10
5.13957
20
-3.52362
11
5.13957
21
-3.53543
0
LINE
8
BLACK
6
CONTINUOUS
10
5.96358
20
-3.52854
11
5.89469
21
-3.52854
0
LINE
8
BLACK
6
CONTINUOUS
10
5.89469
20
-3.52854
11
5.89469
21
-3.51083
0
LINE
8
BLACK
6
CONTINUOUS
10
5.89469
20
-3.51083
11
5.96358
21
-3.51083
0
LINE
8
BLACK
6
CONTINUOUS
10
5.96358
20
-3.51083
11
5.96358
21
-3.52854
0
LINE
8
BLACK
6
CONTINUOUS
10
5.68012
20
-3.52854
11
5.61122
21
-3.52854
0
LINE
8
BLACK
6
CONTINUOUS
10
5.61122
20
-3.52854
11
5.61122
21
-3.51083
0
LINE
8
BLACK
6
CONTINUOUS
10
5.61122
20
-3.51083
11
5.68012
21
-3.51083
0
LINE
8
BLACK
6
CONTINUOUS
10
5.68012
20
-3.51083
11
5.68012
21
-3.52854
0
LINE
8
BLACK
6
CONTINUOUS
10
5.13957
20
-3.51575
11
5.0939
21
-3.51575
0
LINE
8
BLACK
6
CONTINUOUS
10
5.0939
20
-3.51575
11
5.0939
21
-3.50394
0
LINE
8
BLACK
6
CONTINUOUS
10
5.0939
20
-3.50394
11
5.13957
21
-3.50394
0
LINE
8
BLACK
6
CONTINUOUS
10
5.13957
20
-3.50394
11
5.13957
21
-3.51575
0
LINE
8
BLACK
6
CONTINUOUS
10
5.96358
20
-3.50295
11
5.89469
21
-3.50295
0
LINE
8
BLACK
6
CONTINUOUS
10
5.89469
20
-3.50295
11
5.89469
21
-3.48524
0
LINE
8
BLACK
6
CONTINUOUS
10
5.89469
20
-3.48524
11
5.96358
21
-3.48524
0
LINE
8
BLACK
6
CONTINUOUS
10
5.96358
20
-3.48524
11
5.96358
21
-3.50295
0
LINE
8
BLACK
6
CONTINUOUS
10
5.68012
20
-3.50295
11
5.61122
21
-3.50295
0
LINE
8
BLACK
6
CONTINUOUS
10
5.61122
20
-3.50295
11
5.61122
21
-3.48524
0
LINE
8
BLACK
6
CONTINUOUS
10
5.61122
20
-3.48524
11
5.68012
21
-3.48524
0
LINE
8
BLACK
6
CONTINUOUS
10
5.68012
20
-3.48524
11
5.68012
21
-3.50295
0
LINE
8
BLACK
6
CONTINUOUS
10
5.41909
20
-3.47624
11
5.42101
21
-3.47752
0
LINE
8
BLACK
6
CONTINUOUS
10
5.42101
20
-3.47752
11
5.42229
21
-3.47943
0
LINE
8
BLACK
6
CONTINUOUS
10
5.42229
20
-3.47943
11
5.42274
21
-3.48169
0
LINE
8
BLACK
6
CONTINUOUS
10
5.42274
20
-3.48169
11
5.42274
21
-3.4935
0
LINE
8
BLACK
6
CONTINUOUS
10
5.42274
20
-3.4935
11
5.42229
21
-3.49576
0
LINE
8
BLACK
6
CONTINUOUS
10
5.42229
20
-3.49576
11
5.42101
21
-3.49768
0
LINE
8
BLACK
6
CONTINUOUS
10
5.42101
20
-3.49768
11
5.41909
21
-3.49896
0
LINE
8
BLACK
6
CONTINUOUS
10
5.41909
20
-3.49896
11
5.41683
21
-3.49941
0
LINE
8
BLACK
6
CONTINUOUS
10
5.41683
20
-3.49941
11
5.37648
21
-3.49941
0
LINE
8
BLACK
6
CONTINUOUS
10
5.37648
20
-3.49941
11
5.37422
21
-3.49896
0
LINE
8
BLACK
6
CONTINUOUS
10
5.37422
20
-3.49896
11
5.3723
21
-3.49768
0
LINE
8
BLACK
6
CONTINUOUS
10
5.3723
20
-3.49768
11
5.37102
21
-3.49576
0
LINE
8
BLACK
6
CONTINUOUS
10
5.37102
20
-3.49576
11
5.37057
21
-3.4935
0
LINE
8
BLACK
6
CONTINUOUS
10
5.37057
20
-3.4935
11
5.37057
21
-3.48169
0
LINE
8
BLACK
6
CONTINUOUS
10
5.37057
20
-3.48169
11
5.37102
21
-3.47943
0
LINE
8
BLACK
6
CONTINUOUS
10
5.37102
20
-3.47943
11
5.3723
21
-3.47752
0
LINE
8
BLACK
6
CONTINUOUS
10
5.3723
20
-3.47752
11
5.37422
21
-3.47624
0
LINE
8
BLACK
6
CONTINUOUS
10
5.37422
20
-3.47624
11
5.37648
21
-3.47579
0
LINE
8
BLACK
6
CONTINUOUS
10
5.37648
20
-3.47579
11
5.41683
21
-3.47579
0
LINE
8
BLACK
6
CONTINUOUS
10
5.41683
20
-3.47579
11
5.41909
21
-3.47624
0
LINE
8
BLACK
6
CONTINUOUS
10
5.32952
20
-3.47624
11
5.33144
21
-3.47752
0
LINE
8
BLACK
6
CONTINUOUS
10
5.33144
20
-3.47752
11
5.33272
21
-3.47943
0
LINE
8
BLACK
6
CONTINUOUS
10
5.33272
20
-3.47943
11
5.33317
21
-3.48169
0
LINE
8
BLACK
6
CONTINUOUS
10
5.33317
20
-3.48169
11
5.33317
21
-3.4935
0
LINE
8
BLACK
6
CONTINUOUS
10
5.33317
20
-3.4935
11
5.33272
21
-3.49576
0
LINE
8
BLACK
6
CONTINUOUS
10
5.33272
20
-3.49576
11
5.33144
21
-3.49768
0
LINE
8
BLACK
6
CONTINUOUS
10
5.33144
20
-3.49768
11
5.32952
21
-3.49896
0
LINE
8
BLACK
6
CONTINUOUS
10
5.32952
20
-3.49896
11
5.32726
21
-3.49941
0
LINE
8
BLACK
6
CONTINUOUS
10
5.32726
20
-3.49941
11
5.28691
21
-3.49941
0
LINE
8
BLACK
6
CONTINUOUS
10
5.28691
20
-3.49941
11
5.28465
21
-3.49896
0
LINE
8
BLACK
6
CONTINUOUS
10
5.28465
20
-3.49896
11
5.28273
21
-3.49768
0
LINE
8
BLACK
6
CONTINUOUS
10
5.28273
20
-3.49768
11
5.28145
21
-3.49576
0
LINE
8
BLACK
6
CONTINUOUS
10
5.28145
20
-3.49576
11
5.281
21
-3.4935
0
LINE
8
BLACK
6
CONTINUOUS
10
5.281
20
-3.4935
11
5.281
21
-3.48169
0
LINE
8
BLACK
6
CONTINUOUS
10
5.281
20
-3.48169
11
5.28145
21
-3.47943
0
LINE
8
BLACK
6
CONTINUOUS
10
5.28145
20
-3.47943
11
5.28273
21
-3.47752
0
LINE
8
BLACK
6
CONTINUOUS
10
5.28273
20
-3.47752
11
5.28465
21
-3.47624
0
LINE
8
BLACK
6
CONTINUOUS
10
5.28465
20
-3.47624
11
5.28691
21
-3.47579
0
LINE
8
BLACK
6
CONTINUOUS
10
5.28691
20
-3.47579
11
5.32726
21
-3.47579
0
LINE
8
BLACK
6
CONTINUOUS
10
5.32726
20
-3.47579
11
5.32952
21
-3.47624
0
LINE
8
BLACK
6
CONTINUOUS
10
5.13957
20
-3.49606
11
5.0939
21
-3.49606
0
LINE
8
BLACK
6
CONTINUOUS
10
5.0939
20
-3.49606
11
5.0939
21
-3.48425
0
LINE
8
BLACK
6
CONTINUOUS
10
5.0939
20
-3.48425
11
5.13957
21
-3.48425
0
LINE
8
BLACK
6
CONTINUOUS
10
5.13957
20
-3.48425
11
5.13957
21
-3.49606
0
LINE
8
BLACK
6
CONTINUOUS
10
5.68012
20
-3.47736
11
5.61122
21
-3.47736
0
LINE
8
BLACK
6
CONTINUOUS
10
5.61122
20
-3.47736
11
5.61122
21
-3.45965
0
LINE
8
BLACK
6
CONTINUOUS
10
5.61122
20
-3.45965
11
5.68012
21
-3.45965
0
LINE
8
BLACK
6
CONTINUOUS
10
5.68012
20
-3.45965
11
5.68012
21
-3.47736
0
LINE
8
BLACK
6
CONTINUOUS
10
5.96358
20
-3.47736
11
5.89469
21
-3.47736
0
LINE
8
BLACK
6
CONTINUOUS
10
5.89469
20
-3.47736
11
5.89469
21
-3.45965
0
LINE
8
BLACK
6
CONTINUOUS
10
5.89469
20
-3.45965
11
5.96358
21
-3.45965
0
LINE
8
BLACK
6
CONTINUOUS
10
5.96358
20
-3.45965
11
5.96358
21
-3.47736
0
LINE
8
BLACK
6
CONTINUOUS
10
5.13957
20
-3.47638
11
5.0939
21
-3.47638
0
LINE
8
BLACK
6
CONTINUOUS
10
5.0939
20
-3.47638
11
5.0939
21
-3.46457
0
LINE
8
BLACK
6
CONTINUOUS
10
5.0939
20
-3.46457
11
5.13957
21
-3.46457
0
LINE
8
BLACK
6
CONTINUOUS
10
5.13957
20
-3.46457
11
5.13957
21
-3.47638
0
LINE
8
BLACK
6
CONTINUOUS
10
5.41909
20
-3.43884
11
5.42101
21
-3.44012
0
LINE
8
BLACK
6
CONTINUOUS
10
5.42101
20
-3.44012
11
5.42229
21
-3.44203
0
LINE
8
BLACK
6
CONTINUOUS
10
5.42229
20
-3.44203
11
5.42274
21
-3.44429
0
LINE
8
BLACK
6
CONTINUOUS
10
5.42274
20
-3.44429
11
5.42274
21
-3.4561
0
LINE
8
BLACK
6
CONTINUOUS
10
5.42274
20
-3.4561
11
5.42229
21
-3.45836
0
LINE
8
BLACK
6
CONTINUOUS
10
5.42229
20
-3.45836
11
5.42101
21
-3.46028
0
LINE
8
BLACK
6
CONTINUOUS
10
5.42101
20
-3.46028
11
5.41909
21
-3.46156
0
LINE
8
BLACK
6
CONTINUOUS
10
5.41909
20
-3.46156
11
5.41683
21
-3.46201
0
LINE
8
BLACK
6
CONTINUOUS
10
5.41683
20
-3.46201
11
5.37648
21
-3.46201
0
LINE
8
BLACK
6
CONTINUOUS
10
5.37648
20
-3.46201
11
5.37422
21
-3.46156
0
LINE
8
BLACK
6
CONTINUOUS
10
5.37422
20
-3.46156
11
5.3723
21
-3.46028
0
LINE
8
BLACK
6
CONTINUOUS
10
5.3723
20
-3.46028
11
5.37102
21
-3.45836
0
LINE
8
BLACK
6
CONTINUOUS
10
5.37102
20
-3.45836
11
5.37057
21
-3.4561
0
LINE
8
BLACK
6
CONTINUOUS
10
5.37057
20
-3.4561
11
5.37057
21
-3.44429
0
LINE
8
BLACK
6
CONTINUOUS
10
5.37057
20
-3.44429
11
5.37102
21
-3.44203
0
LINE
8
BLACK
6
CONTINUOUS
10
5.37102
20
-3.44203
11
5.3723
21
-3.44012
0
LINE
8
BLACK
6
CONTINUOUS
10
5.3723
20
-3.44012
11
5.37422
21
-3.43884
0
LINE
8
BLACK
6
CONTINUOUS
10
5.37422
20
-3.43884
11
5.37648
21
-3.43839
0
LINE
8
BLACK
6
CONTINUOUS
10
5.37648
20
-3.43839
11
5.41683
21
-3.43839
0
LINE
8
BLACK
6
CONTINUOUS
10
5.41683
20
-3.43839
11
5.41909
21
-3.43884
0
LINE
8
BLACK
6
CONTINUOUS
10
5.32952
20
-3.43884
11
5.33144
21
-3.44012
0
LINE
8
BLACK
6
CONTINUOUS
10
5.33144
20
-3.44012
11
5.33272
21
-3.44203
0
LINE
8
BLACK
6
CONTINUOUS
10
5.33272
20
-3.44203
11
5.33317
21
-3.44429
0
LINE
8
BLACK
6
CONTINUOUS
10
5.33317
20
-3.44429
11
5.33317
21
-3.4561
0
LINE
8
BLACK
6
CONTINUOUS
10
5.33317
20
-3.4561
11
5.33272
21
-3.45836
0
LINE
8
BLACK
6
CONTINUOUS
10
5.33272
20
-3.45836
11
5.33144
21
-3.46028
0
LINE
8
BLACK
6
CONTINUOUS
10
5.33144
20
-3.46028
11
5.32952
21
-3.46156
0
LINE
8
BLACK
6
CONTINUOUS
10
5.32952
20
-3.46156
11
5.32726
21
-3.46201
0
LINE
8
BLACK
6
CONTINUOUS
10
5.32726
20
-3.46201
11
5.28691
21
-3.46201
0
LINE
8
BLACK
6
CONTINUOUS
10
5.28691
20
-3.46201
11
5.28465
21
-3.46156
0
LINE
8
BLACK
6
CONTINUOUS
10
5.28465
20
-3.46156
11
5.28273
21
-3.46028
0
LINE
8
BLACK
6
CONTINUOUS
10
5.28273
20
-3.46028
11
5.28145
21
-3.45836
0
LINE
8
BLACK
6
CONTINUOUS
10
5.28145
20
-3.45836
11
5.281
21
-3.4561
0
LINE
8
BLACK
6
CONTINUOUS
10
5.281
20
-3.4561
11
5.281
21
-3.44429
0
LINE
8
BLACK
6
CONTINUOUS
10
5.281
20
-3.44429
11
5.28145
21
-3.44203
0
LINE
8
BLACK
6
CONTINUOUS
10
5.28145
20
-3.44203
11
5.28273
21
-3.44012
0
LINE
8
BLACK
6
CONTINUOUS
10
5.28273
20
-3.44012
11
5.28465
21
-3.43884
0
LINE
8
BLACK
6
CONTINUOUS
10
5.28465
20
-3.43884
11
5.28691
21
-3.43839
0
LINE
8
BLACK
6
CONTINUOUS
10
5.28691
20
-3.43839
11
5.32726
21
-3.43839
0
LINE
8
BLACK
6
CONTINUOUS
10
5.32726
20
-3.43839
11
5.32952
21
-3.43884
0
LINE
8
BLACK
6
CONTINUOUS
10
5.13957
20
-3.45669
11
5.0939
21
-3.45669
0
LINE
8
BLACK
6
CONTINUOUS
10
5.0939
20
-3.45669
11
5.0939
21
-3.44488
0
LINE
8
BLACK
6
CONTINUOUS
10
5.0939
20
-3.44488
11
5.13957
21
-3.44488
0
LINE
8
BLACK
6
CONTINUOUS
10
5.13957
20
-3.44488
11
5.13957
21
-3.45669
0
LINE
8
BLACK
6
CONTINUOUS
10
5.96358
20
-3.45177
11
5.89469
21
-3.45177
0
LINE
8
BLACK
6
CONTINUOUS
10
5.89469
20
-3.45177
11
5.89469
21
-3.43406
0
LINE
8
BLACK
6
CONTINUOUS
10
5.89469
20
-3.43406
11
5.96358
21
-3.43406
0
LINE
8
BLACK
6
CONTINUOUS
10
5.96358
20
-3.43406
11
5.96358
21
-3.45177
0
LINE
8
BLACK
6
CONTINUOUS
10
5.68012
20
-3.45177
11
5.61122
21
-3.45177
0
LINE
8
BLACK
6
CONTINUOUS
10
5.61122
20
-3.45177
11
5.61122
21
-3.43406
0
LINE
8
BLACK
6
CONTINUOUS
10
5.61122
20
-3.43406
11
5.68012
21
-3.43406
0
LINE
8
BLACK
6
CONTINUOUS
10
5.68012
20
-3.43406
11
5.68012
21
-3.45177
0
LINE
8
BLACK
6
CONTINUOUS
10
5.13957
20
-3.43701
11
5.0939
21
-3.43701
0
LINE
8
BLACK
6
CONTINUOUS
10
5.0939
20
-3.43701
11
5.0939
21
-3.4252
0
LINE
8
BLACK
6
CONTINUOUS
10
5.0939
20
-3.4252
11
5.13957
21
-3.4252
0
LINE
8
BLACK
6
CONTINUOUS
10
5.13957
20
-3.4252
11
5.13957
21
-3.43701
0
LINE
8
BLACK
6
CONTINUOUS
10
5.96358
20
-3.42618
11
5.89469
21
-3.42618
0
LINE
8
BLACK
6
CONTINUOUS
10
5.89469
20
-3.42618
11
5.89469
21
-3.40846
0
LINE
8
BLACK
6
CONTINUOUS
10
5.89469
20
-3.40846
11
5.96358
21
-3.40846
0
LINE
8
BLACK
6
CONTINUOUS
10
5.96358
20
-3.40846
11
5.96358
21
-3.42618
0
LINE
8
BLACK
6
CONTINUOUS
10
5.68012
20
-3.42618
11
5.61122
21
-3.42618
0
LINE
8
BLACK
6
CONTINUOUS
10
5.61122
20
-3.42618
11
5.61122
21
-3.40846
0
LINE
8
BLACK
6
CONTINUOUS
10
5.61122
20
-3.40846
11
5.68012
21
-3.40846
0
LINE
8
BLACK
6
CONTINUOUS
10
5.68012
20
-3.40846
11
5.68012
21
-3.42618
0
LINE
8
BLACK
6
CONTINUOUS
10
5.13957
20
-3.41732
11
5.0939
21
-3.41732
0
LINE
8
BLACK
6
CONTINUOUS
10
5.0939
20
-3.41732
11
5.0939
21
-3.3937
0
LINE
8
BLACK
6
CONTINUOUS
10
5.0939
20
-3.3937
11
5.13957
21
-3.3937
0
LINE
8
BLACK
6
CONTINUOUS
10
5.13957
20
-3.3937
11
5.13957
21
-3.41732
0
LINE
8
BLACK
6
CONTINUOUS
10
5.96358
20
-3.40059
11
5.89469
21
-3.40059
0
LINE
8
BLACK
6
CONTINUOUS
10
5.89469
20
-3.40059
11
5.89469
21
-3.38287
0
LINE
8
BLACK
6
CONTINUOUS
10
5.89469
20
-3.38287
11
5.96358
21
-3.38287
0
LINE
8
BLACK
6
CONTINUOUS
10
5.96358
20
-3.38287
11
5.96358
21
-3.40059
0
LINE
8
BLACK
6
CONTINUOUS
10
5.68012
20
-3.40059
11
5.61122
21
-3.40059
0
LINE
8
BLACK
6
CONTINUOUS
10
5.61122
20
-3.40059
11
5.61122
21
-3.38287
0
LINE
8
BLACK
6
CONTINUOUS
10
5.61122
20
-3.38287
11
5.68012
21
-3.38287
0
LINE
8
BLACK
6
CONTINUOUS
10
5.68012
20
-3.38287
11
5.68012
21
-3.40059
0
LINE
8
BLACK
6
CONTINUOUS
10
5.13957
20
-3.38583
11
5.0939
21
-3.38583
0
LINE
8
BLACK
6
CONTINUOUS
10
5.0939
20
-3.38583
11
5.0939
21
-3.3622
0
LINE
8
BLACK
6
CONTINUOUS
10
5.0939
20
-3.3622
11
5.13957
21
-3.3622
0
LINE
8
BLACK
6
CONTINUOUS
10
5.13957
20
-3.3622
11
5.13957
21
-3.38583
0
LINE
8
BLACK
6
CONTINUOUS
10
5.96358
20
-3.375
11
5.89469
21
-3.375
0
LINE
8
BLACK
6
CONTINUOUS
10
5.89469
20
-3.375
11
5.89469
21
-3.35728
0
LINE
8
BLACK
6
CONTINUOUS
10
5.89469
20
-3.35728
11
5.96358
21
-3.35728
0
LINE
8
BLACK
6
CONTINUOUS
10
5.96358
20
-3.35728
11
5.96358
21
-3.375
0
LINE
8
BLACK
6
CONTINUOUS
10
5.68012
20
-3.375
11
5.61122
21
-3.375
0
LINE
8
BLACK
6
CONTINUOUS
10
5.61122
20
-3.375
11
5.61122
21
-3.35728
0
LINE
8
BLACK
6
CONTINUOUS
10
5.61122
20
-3.35728
11
5.68012
21
-3.35728
0
LINE
8
BLACK
6
CONTINUOUS
10
5.68012
20
-3.35728
11
5.68012
21
-3.375
0
LINE
8
BLACK
6
CONTINUOUS
10
6.16322
20
-3.29799
11
6.16641
21
-3.30013
0
LINE
8
BLACK
6
CONTINUOUS
10
6.16641
20
-3.30013
11
6.16854
21
-3.30332
0
LINE
8
BLACK
6
CONTINUOUS
10
6.16854
20
-3.30332
11
6.16929
21
-3.30709
0
LINE
8
BLACK
6
CONTINUOUS
10
6.16929
20
-3.30709
11
6.16929
21
-3.34252
0
LINE
8
BLACK
6
CONTINUOUS
10
6.16929
20
-3.34252
11
6.16854
21
-3.34629
0
LINE
8
BLACK
6
CONTINUOUS
10
6.16854
20
-3.34629
11
6.16641
21
-3.34948
0
LINE
8
BLACK
6
CONTINUOUS
10
6.16641
20
-3.34948
11
6.16322
21
-3.35161
0
LINE
8
BLACK
6
CONTINUOUS
10
6.16322
20
-3.35161
11
6.15945
21
-3.35236
0
LINE
8
BLACK
6
CONTINUOUS
10
6.15945
20
-3.35236
11
6.13189
21
-3.35236
0
LINE
8
BLACK
6
CONTINUOUS
10
6.13189
20
-3.35236
11
6.12812
21
-3.35161
0
LINE
8
BLACK
6
CONTINUOUS
10
6.12812
20
-3.35161
11
6.12493
21
-3.34948
0
LINE
8
BLACK
6
CONTINUOUS
10
6.12493
20
-3.34948
11
6.1228
21
-3.34629
0
LINE
8
BLACK
6
CONTINUOUS
10
6.1228
20
-3.34629
11
6.12205
21
-3.34252
0
LINE
8
BLACK
6
CONTINUOUS
10
6.12205
20
-3.34252
11
6.12205
21
-3.30709
0
LINE
8
BLACK
6
CONTINUOUS
10
6.12205
20
-3.30709
11
6.1228
21
-3.30332
0
LINE
8
BLACK
6
CONTINUOUS
10
6.1228
20
-3.30332
11
6.12493
21
-3.30013
0
LINE
8
BLACK
6
CONTINUOUS
10
6.12493
20
-3.30013
11
6.12812
21
-3.29799
0
LINE
8
BLACK
6
CONTINUOUS
10
6.12812
20
-3.29799
11
6.13189
21
-3.29724
0
LINE
8
BLACK
6
CONTINUOUS
10
6.13189
20
-3.29724
11
6.15945
21
-3.29724
0
LINE
8
BLACK
6
CONTINUOUS
10
6.15945
20
-3.29724
11
6.16322
21
-3.29799
0
LINE
8
BLACK
6
CONTINUOUS
10
6.08448
20
-3.29799
11
6.08767
21
-3.30013
0
LINE
8
BLACK
6
CONTINUOUS
10
6.08767
20
-3.30013
11
6.0898
21
-3.30332
0
LINE
8
BLACK
6
CONTINUOUS
10
6.0898
20
-3.30332
11
6.09055
21
-3.30709
0
LINE
8
BLACK
6
CONTINUOUS
10
6.09055
20
-3.30709
11
6.09055
21
-3.34252
0
LINE
8
BLACK
6
CONTINUOUS
10
6.09055
20
-3.34252
11
6.0898
21
-3.34629
0
LINE
8
BLACK
6
CONTINUOUS
10
6.0898
20
-3.34629
11
6.08767
21
-3.34948
0
LINE
8
BLACK
6
CONTINUOUS
10
6.08767
20
-3.34948
11
6.08448
21
-3.35161
0
LINE
8
BLACK
6
CONTINUOUS
10
6.08448
20
-3.35161
11
6.08071
21
-3.35236
0
LINE
8
BLACK
6
CONTINUOUS
10
6.08071
20
-3.35236
11
6.05315
21
-3.35236
0
LINE
8
BLACK
6
CONTINUOUS
10
6.05315
20
-3.35236
11
6.04938
21
-3.35161
0
LINE
8
BLACK
6
CONTINUOUS
10
6.04938
20
-3.35161
11
6.04619
21
-3.34948
0
LINE
8
BLACK
6
CONTINUOUS
10
6.04619
20
-3.34948
11
6.04406
21
-3.34629
0
LINE
8
BLACK
6
CONTINUOUS
10
6.04406
20
-3.34629
11
6.04331
21
-3.34252
0
LINE
8
BLACK
6
CONTINUOUS
10
6.04331
20
-3.34252
11
6.04331
21
-3.30709
0
LINE
8
BLACK
6
CONTINUOUS
10
6.04331
20
-3.30709
11
6.04406
21
-3.30332
0
LINE
8
BLACK
6
CONTINUOUS
10
6.04406
20
-3.30332
11
6.04619
21
-3.30013
0
LINE
8
BLACK
6
CONTINUOUS
10
6.04619
20
-3.30013
11
6.04938
21
-3.29799
0
LINE
8
BLACK
6
CONTINUOUS
10
6.04938
20
-3.29799
11
6.05315
21
-3.29724
0
LINE
8
BLACK
6
CONTINUOUS
10
6.05315
20
-3.29724
11
6.08071
21
-3.29724
0
LINE
8
BLACK
6
CONTINUOUS
10
6.08071
20
-3.29724
11
6.08448
21
-3.29799
0
LINE
8
BLACK
6
CONTINUOUS
10
5.96358
20
-3.34941
11
5.89469
21
-3.34941
0
LINE
8
BLACK
6
CONTINUOUS
10
5.89469
20
-3.34941
11
5.89469
21
-3.33169
0
LINE
8
BLACK
6
CONTINUOUS
10
5.89469
20
-3.33169
11
5.96358
21
-3.33169
0
LINE
8
BLACK
6
CONTINUOUS
10
5.96358
20
-3.33169
11
5.96358
21
-3.34941
0
LINE
8
BLACK
6
CONTINUOUS
10
5.68012
20
-3.34941
11
5.61122
21
-3.34941
0
LINE
8
BLACK
6
CONTINUOUS
10
5.61122
20
-3.34941
11
5.61122
21
-3.33169
0
LINE
8
BLACK
6
CONTINUOUS
10
5.61122
20
-3.33169
11
5.68012
21
-3.33169
0
LINE
8
BLACK
6
CONTINUOUS
10
5.68012
20
-3.33169
11
5.68012
21
-3.34941
0
LINE
8
BLACK
6
CONTINUOUS
10
5.68012
20
-3.32382
11
5.61122
21
-3.32382
0
LINE
8
BLACK
6
CONTINUOUS
10
5.61122
20
-3.32382
11
5.61122
21
-3.3061
0
LINE
8
BLACK
6
CONTINUOUS
10
5.61122
20
-3.3061
11
5.68012
21
-3.3061
0
LINE
8
BLACK
6
CONTINUOUS
10
5.68012
20
-3.3061
11
5.68012
21
-3.32382
0
LINE
8
BLACK
6
CONTINUOUS
10
5.96358
20
-3.32382
11
5.89469
21
-3.32382
0
LINE
8
BLACK
6
CONTINUOUS
10
5.89469
20
-3.32382
11
5.89469
21
-3.3061
0
LINE
8
BLACK
6
CONTINUOUS
10
5.89469
20
-3.3061
11
5.96358
21
-3.3061
0
LINE
8
BLACK
6
CONTINUOUS
10
5.96358
20
-3.3061
11
5.96358
21
-3.32382
0
LINE
8
BLACK
6
CONTINUOUS
10
5.32938
20
-3.26262
11
5.33257
21
-3.26475
0
LINE
8
BLACK
6
CONTINUOUS
10
5.33257
20
-3.26475
11
5.3347
21
-3.26795
0
LINE
8
BLACK
6
CONTINUOUS
10
5.3347
20
-3.26795
11
5.33545
21
-3.27171
0
LINE
8
BLACK
6
CONTINUOUS
10
5.33545
20
-3.27171
11
5.33545
21
-3.29829
0
LINE
8
BLACK
6
CONTINUOUS
10
5.33545
20
-3.29829
11
5.3347
21
-3.30205
0
LINE
8
BLACK
6
CONTINUOUS
10
5.3347
20
-3.30205
11
5.33257
21
-3.30525
0
LINE
8
BLACK
6
CONTINUOUS
10
5.33257
20
-3.30525
11
5.32938
21
-3.30738
0
LINE
8
BLACK
6
CONTINUOUS
10
5.32938
20
-3.30738
11
5.32561
21
-3.30813
0
LINE
8
BLACK
6
CONTINUOUS
10
5.32561
20
-3.30813
11
5.28821
21
-3.30813
0
LINE
8
BLACK
6
CONTINUOUS
10
5.28821
20
-3.30813
11
5.28444
21
-3.30738
0
LINE
8
BLACK
6
CONTINUOUS
10
5.28444
20
-3.30738
11
5.28125
21
-3.30525
0
LINE
8
BLACK
6
CONTINUOUS
10
5.28125
20
-3.30525
11
5.27912
21
-3.30205
0
LINE
8
BLACK
6
CONTINUOUS
10
5.27912
20
-3.30205
11
5.27837
21
-3.29829
0
LINE
8
BLACK
6
CONTINUOUS
10
5.27837
20
-3.29829
11
5.27837
21
-3.27171
0
LINE
8
BLACK
6
CONTINUOUS
10
5.27837
20
-3.27171
11
5.27912
21
-3.26795
0
LINE
8
BLACK
6
CONTINUOUS
10
5.27912
20
-3.26795
11
5.28125
21
-3.26475
0
LINE
8
BLACK
6
CONTINUOUS
10
5.28125
20
-3.26475
11
5.28444
21
-3.26262
0
LINE
8
BLACK
6
CONTINUOUS
10
5.28444
20
-3.26262
11
5.28821
21
-3.26187
0
LINE
8
BLACK
6
CONTINUOUS
10
5.28821
20
-3.26187
11
5.32561
21
-3.26187
0
LINE
8
BLACK
6
CONTINUOUS
10
5.32561
20
-3.26187
11
5.32938
21
-3.26262
0
LINE
8
BLACK
6
CONTINUOUS
10
5.43247
20
-3.26262
11
5.43566
21
-3.26475
0
LINE
8
BLACK
6
CONTINUOUS
10
5.43566
20
-3.26475
11
5.43779
21
-3.26795
0
LINE
8
BLACK
6
CONTINUOUS
10
5.43779
20
-3.26795
11
5.43854
21
-3.27171
0
LINE
8
BLACK
6
CONTINUOUS
10
5.43854
20
-3.27171
11
5.43854
21
-3.29829
0
LINE
8
BLACK
6
CONTINUOUS
10
5.43854
20
-3.29829
11
5.43779
21
-3.30205
0
LINE
8
BLACK
6
CONTINUOUS
10
5.43779
20
-3.30205
11
5.43566
21
-3.30525
0
LINE
8
BLACK
6
CONTINUOUS
10
5.43566
20
-3.30525
11
5.43247
21
-3.30738
0
LINE
8
BLACK
6
CONTINUOUS
10
5.43247
20
-3.30738
11
5.4287
21
-3.30813
0
LINE
8
BLACK
6
CONTINUOUS
10
5.4287
20
-3.30813
11
5.3913
21
-3.30813
0
LINE
8
BLACK
6
CONTINUOUS
10
5.3913
20
-3.30813
11
5.38753
21
-3.30738
0
LINE
8
BLACK
6
CONTINUOUS
10
5.38753
20
-3.30738
11
5.38434
21
-3.30525
0
LINE
8
BLACK
6
CONTINUOUS
10
5.38434
20
-3.30525
11
5.38221
21
-3.30205
0
LINE
8
BLACK
6
CONTINUOUS
10
5.38221
20
-3.30205
11
5.38146
21
-3.29829
0
LINE
8
BLACK
6
CONTINUOUS
10
5.38146
20
-3.29829
11
5.38146
21
-3.27171
0
LINE
8
BLACK
6
CONTINUOUS
10
5.38146
20
-3.27171
11
5.38221
21
-3.26795
0
LINE
8
BLACK
6
CONTINUOUS
10
5.38221
20
-3.26795
11
5.38434
21
-3.26475
0
LINE
8
BLACK
6
CONTINUOUS
10
5.38434
20
-3.26475
11
5.38753
21
-3.26262
0
LINE
8
BLACK
6
CONTINUOUS
10
5.38753
20
-3.26262
11
5.3913
21
-3.26187
0
LINE
8
BLACK
6
CONTINUOUS
10
5.3913
20
-3.26187
11
5.4287
21
-3.26187
0
LINE
8
BLACK
6
CONTINUOUS
10
5.4287
20
-3.26187
11
5.43247
21
-3.26262
0
LINE
8
BLACK
6
CONTINUOUS
10
5.22648
20
-3.26065
11
5.22968
21
-3.26278
0
LINE
8
BLACK
6
CONTINUOUS
10
5.22968
20
-3.26278
11
5.23181
21
-3.26598
0
LINE
8
BLACK
6
CONTINUOUS
10
5.23181
20
-3.26598
11
5.23256
21
-3.26974
0
LINE
8
BLACK
6
CONTINUOUS
10
5.23256
20
-3.26974
11
5.23256
21
-3.2973
0
LINE
8
BLACK
6
CONTINUOUS
10
5.23256
20
-3.2973
11
5.23181
21
-3.30107
0
LINE
8
BLACK
6
CONTINUOUS
10
5.23181
20
-3.30107
11
5.22968
21
-3.30426
0
LINE
8
BLACK
6
CONTINUOUS
10
5.22968
20
-3.30426
11
5.22648
21
-3.3064
0
LINE
8
BLACK
6
CONTINUOUS
10
5.22648
20
-3.3064
11
5.22272
21
-3.30715
0
LINE
8
BLACK
6
CONTINUOUS
10
5.22272
20
-3.30715
11
5.18728
21
-3.30715
0
LINE
8
BLACK
6
CONTINUOUS
10
5.18728
20
-3.30715
11
5.18352
21
-3.3064
0
LINE
8
BLACK
6
CONTINUOUS
10
5.18352
20
-3.3064
11
5.18032
21
-3.30426
0
LINE
8
BLACK
6
CONTINUOUS
10
5.18032
20
-3.30426
11
5.17819
21
-3.30107
0
LINE
8
BLACK
6
CONTINUOUS
10
5.17819
20
-3.30107
11
5.17744
21
-3.2973
0
LINE
8
BLACK
6
CONTINUOUS
10
5.17744
20
-3.2973
11
5.17744
21
-3.26974
0
LINE
8
BLACK
6
CONTINUOUS
10
5.17744
20
-3.26974
11
5.17819
21
-3.26598
0
LINE
8
BLACK
6
CONTINUOUS
10
5.17819
20
-3.26598
11
5.18032
21
-3.26278
0
LINE
8
BLACK
6
CONTINUOUS
10
5.18032
20
-3.26278
11
5.18352
21
-3.26065
0
LINE
8
BLACK
6
CONTINUOUS
10
5.18352
20
-3.26065
11
5.18728
21
-3.2599
0
LINE
8
BLACK
6
CONTINUOUS
10
5.18728
20
-3.2599
11
5.22272
21
-3.2599
0
LINE
8
BLACK
6
CONTINUOUS
10
5.22272
20
-3.2599
11
5.22648
21
-3.26065
0
LINE
8
BLACK
6
CONTINUOUS
10
5.68012
20
-3.29823
11
5.61122
21
-3.29823
0
LINE
8
BLACK
6
CONTINUOUS
10
5.61122
20
-3.29823
11
5.61122
21
-3.28051
0
LINE
8
BLACK
6
CONTINUOUS
10
5.61122
20
-3.28051
11
5.68012
21
-3.28051
0
LINE
8
BLACK
6
CONTINUOUS
10
5.68012
20
-3.28051
11
5.68012
21
-3.29823
0
LINE
8
BLACK
6
CONTINUOUS
10
5.96358
20
-3.29823
11
5.89469
21
-3.29823
0
LINE
8
BLACK
6
CONTINUOUS
10
5.89469
20
-3.29823
11
5.89469
21
-3.28051
0
LINE
8
BLACK
6
CONTINUOUS
10
5.89469
20
-3.28051
11
5.96358
21
-3.28051
0
LINE
8
BLACK
6
CONTINUOUS
10
5.96358
20
-3.28051
11
5.96358
21
-3.29823
0
LINE
8
BLACK
6
CONTINUOUS
10
5.68012
20
-3.27264
11
5.61122
21
-3.27264
0
LINE
8
BLACK
6
CONTINUOUS
10
5.61122
20
-3.27264
11
5.61122
21
-3.25492
0
LINE
8
BLACK
6
CONTINUOUS
10
5.61122
20
-3.25492
11
5.68012
21
-3.25492
0
LINE
8
BLACK
6
CONTINUOUS
10
5.68012
20
-3.25492
11
5.68012
21
-3.27264
0
LINE
8
BLACK
6
CONTINUOUS
10
5.96358
20
-3.27264
11
5.89469
21
-3.27264
0
LINE
8
BLACK
6
CONTINUOUS
10
5.89469
20
-3.27264
11
5.89469
21
-3.25492
0
LINE
8
BLACK
6
CONTINUOUS
10
5.89469
20
-3.25492
11
5.96358
21
-3.25492
0
LINE
8
BLACK
6
CONTINUOUS
10
5.96358
20
-3.25492
11
5.96358
21
-3.27264
0
LINE
8
BLACK
6
CONTINUOUS
10
5.96358
20
-3.24705
11
5.89469
21
-3.24705
0
LINE
8
BLACK
6
CONTINUOUS
10
5.89469
20
-3.24705
11
5.89469
21
-3.22933
0
LINE
8
BLACK
6
CONTINUOUS
10
5.89469
20
-3.22933
11
5.96358
21
-3.22933
0
LINE
8
BLACK
6
CONTINUOUS
10
5.96358
20
-3.22933
11
5.96358
21
-3.24705
0
LINE
8
BLACK
6
CONTINUOUS
10
5.68012
20
-3.24705
11
5.61122
21
-3.24705
0
LINE
8
BLACK
6
CONTINUOUS
10
5.61122
20
-3.24705
11
5.61122
21
-3.22933
0
LINE
8
BLACK
6
CONTINUOUS
10
5.61122
20
-3.22933
11
5.68012
21
-3.22933
0
LINE
8
BLACK
6
CONTINUOUS
10
5.68012
20
-3.22933
11
5.68012
21
-3.24705
0
LINE
8
BLACK
6
CONTINUOUS
10
6.16566
20
-3.17478
11
6.16808
21
-3.1764
0
LINE
8
BLACK
6
CONTINUOUS
10
6.16808
20
-3.1764
11
6.16971
21
-3.17883
0
LINE
8
BLACK
6
CONTINUOUS
10
6.16971
20
-3.17883
11
6.17028
21
-3.18169
0
LINE
8
BLACK
6
CONTINUOUS
10
6.17028
20
-3.18169
11
6.17028
21
-3.23563
0
LINE
8
BLACK
6
CONTINUOUS
10
6.17028
20
-3.23563
11
6.16971
21
-3.23849
0
LINE
8
BLACK
6
CONTINUOUS
10
6.16971
20
-3.23849
11
6.16808
21
-3.24092
0
LINE
8
BLACK
6
CONTINUOUS
10
6.16808
20
-3.24092
11
6.16566
21
-3.24254
0
LINE
8
BLACK
6
CONTINUOUS
10
6.16566
20
-3.24254
11
6.1628
21
-3.24311
0
LINE
8
BLACK
6
CONTINUOUS
10
6.1628
20
-3.24311
11
6.14035
21
-3.24311
0
LINE
8
BLACK
6
CONTINUOUS
10
6.14035
20
-3.24311
11
6.13749
21
-3.24254
0
LINE
8
BLACK
6
CONTINUOUS
10
6.13749
20
-3.24254
11
6.13506
21
-3.24092
0
LINE
8
BLACK
6
CONTINUOUS
10
6.13506
20
-3.24092
11
6.13344
21
-3.23849
0
LINE
8
BLACK
6
CONTINUOUS
10
6.13344
20
-3.23849
11
6.13287
21
-3.23563
0
LINE
8
BLACK
6
CONTINUOUS
10
6.13287
20
-3.23563
11
6.13287
21
-3.18169
0
LINE
8
BLACK
6
CONTINUOUS
10
6.13287
20
-3.18169
11
6.13344
21
-3.17883
0
LINE
8
BLACK
6
CONTINUOUS
10
6.13344
20
-3.17883
11
6.13506
21
-3.1764
0
LINE
8
BLACK
6
CONTINUOUS
10
6.13506
20
-3.1764
11
6.13749
21
-3.17478
0
LINE
8
BLACK
6
CONTINUOUS
10
6.13749
20
-3.17478
11
6.14035
21
-3.17421
0
LINE
8
BLACK
6
CONTINUOUS
10
6.14035
20
-3.17421
11
6.1628
21
-3.17421
0
LINE
8
BLACK
6
CONTINUOUS
10
6.1628
20
-3.17421
11
6.16566
21
-3.17478
0
LINE
8
BLACK
6
CONTINUOUS
10
6.04361
20
-3.17478
11
6.04604
21
-3.1764
0
LINE
8
BLACK
6
CONTINUOUS
10
6.04604
20
-3.1764
11
6.04766
21
-3.17883
0
LINE
8
BLACK
6
CONTINUOUS
10
6.04766
20
-3.17883
11
6.04823
21
-3.18169
0
LINE
8
BLACK
6
CONTINUOUS
10
6.04823
20
-3.18169
11
6.04823
21
-3.23563
0
LINE
8
BLACK
6
CONTINUOUS
10
6.04823
20
-3.23563
11
6.04766
21
-3.23849
0
LINE
8
BLACK
6
CONTINUOUS
10
6.04766
20
-3.23849
11
6.04604
21
-3.24092
0
LINE
8
BLACK
6
CONTINUOUS
10
6.04604
20
-3.24092
11
6.04361
21
-3.24254
0
LINE
8
BLACK
6
CONTINUOUS
10
6.04361
20
-3.24254
11
6.04075
21
-3.24311
0
LINE
8
BLACK
6
CONTINUOUS
10
6.04075
20
-3.24311
11
6.01831
21
-3.24311
0
LINE
8
BLACK
6
CONTINUOUS
10
6.01831
20
-3.24311
11
6.01544
21
-3.24254
0
LINE
8
BLACK
6
CONTINUOUS
10
6.01544
20
-3.24254
11
6.01302
21
-3.24092
0
LINE
8
BLACK
6
CONTINUOUS
10
6.01302
20
-3.24092
11
6.0114
21
-3.23849
0
LINE
8
BLACK
6
CONTINUOUS
10
6.0114
20
-3.23849
11
6.01083
21
-3.23563
0
LINE
8
BLACK
6
CONTINUOUS
10
6.01083
20
-3.23563
11
6.01083
21
-3.18169
0
LINE
8
BLACK
6
CONTINUOUS
10
6.01083
20
-3.18169
11
6.0114
21
-3.17883
0
LINE
8
BLACK
6
CONTINUOUS
10
6.0114
20
-3.17883
11
6.01302
21
-3.1764
0
LINE
8
BLACK
6
CONTINUOUS
10
6.01302
20
-3.1764
11
6.01544
21
-3.17478
0
LINE
8
BLACK
6
CONTINUOUS
10
6.01544
20
-3.17478
11
6.01831
21
-3.17421
0
LINE
8
BLACK
6
CONTINUOUS
10
6.01831
20
-3.17421
11
6.04075
21
-3.17421
0
LINE
8
BLACK
6
CONTINUOUS
10
6.04075
20
-3.17421
11
6.04361
21
-3.17478
0
LINE
8
BLACK
6
CONTINUOUS
10
5.12235
20
-3.17478
11
5.12478
21
-3.1764
0
LINE
8
BLACK
6
CONTINUOUS
10
5.12478
20
-3.1764
11
5.1264
21
-3.17883
0
LINE
8
BLACK
6
CONTINUOUS
10
5.1264
20
-3.17883
11
5.12697
21
-3.18169
0
LINE
8
BLACK
6
CONTINUOUS
10
5.12697
20
-3.18169
11
5.12697
21
-3.23563
0
LINE
8
BLACK
6
CONTINUOUS
10
5.12697
20
-3.23563
11
5.1264
21
-3.23849
0
LINE
8
BLACK
6
CONTINUOUS
10
5.1264
20
-3.23849
11
5.12478
21
-3.24092
0
LINE
8
BLACK
6
CONTINUOUS
10
5.12478
20
-3.24092
11
5.12235
21
-3.24254
0
LINE
8
BLACK
6
CONTINUOUS
10
5.12235
20
-3.24254
11
5.11949
21
-3.24311
0
LINE
8
BLACK
6
CONTINUOUS
10
5.11949
20
-3.24311
11
5.09705
21
-3.24311
0
LINE
8
BLACK
6
CONTINUOUS
10
5.09705
20
-3.24311
11
5.09418
21
-3.24254
0
LINE
8
BLACK
6
CONTINUOUS
10
5.09418
20
-3.24254
11
5.09176
21
-3.24092
0
LINE
8
BLACK
6
CONTINUOUS
10
5.09176
20
-3.24092
11
5.09014
21
-3.23849
0
LINE
8
BLACK
6
CONTINUOUS
10
5.09014
20
-3.23849
11
5.08957
21
-3.23563
0
LINE
8
BLACK
6
CONTINUOUS
10
5.08957
20
-3.23563
11
5.08957
21
-3.18169
0
LINE
8
BLACK
6
CONTINUOUS
10
5.08957
20
-3.18169
11
5.09014
21
-3.17883
0
LINE
8
BLACK
6
CONTINUOUS
10
5.09014
20
-3.17883
11
5.09176
21
-3.1764
0
LINE
8
BLACK
6
CONTINUOUS
10
5.09176
20
-3.1764
11
5.09418
21
-3.17478
0
LINE
8
BLACK
6
CONTINUOUS
10
5.09418
20
-3.17478
11
5.09705
21
-3.17421
0
LINE
8
BLACK
6
CONTINUOUS
10
5.09705
20
-3.17421
11
5.11949
21
-3.17421
0
LINE
8
BLACK
6
CONTINUOUS
10
5.11949
20
-3.17421
11
5.12235
21
-3.17478
0
LINE
8
BLACK
6
CONTINUOUS
10
5.0003
20
-3.17478
11
5.00273
21
-3.1764
0
LINE
8
BLACK
6
CONTINUOUS
10
5.00273
20
-3.1764
11
5.00435
21
-3.17883
0
LINE
8
BLACK
6
CONTINUOUS
10
5.00435
20
-3.17883
11
5.00492
21
-3.18169
0
LINE
8
BLACK
6
CONTINUOUS
10
5.00492
20
-3.18169
11
5.00492
21
-3.23563
0
LINE
8
BLACK
6
CONTINUOUS
10
5.00492
20
-3.23563
11
5.00435
21
-3.23849
0
LINE
8
BLACK
6
CONTINUOUS
10
5.00435
20
-3.23849
11
5.00273
21
-3.24092
0
LINE
8
BLACK
6
CONTINUOUS
10
5.00273
20
-3.24092
11
5.0003
21
-3.24254
0
LINE
8
BLACK
6
CONTINUOUS
10
5.0003
20
-3.24254
11
4.99744
21
-3.24311
0
LINE
8
BLACK
6
CONTINUOUS
10
4.99744
20
-3.24311
11
4.975
21
-3.24311
0
LINE
8
BLACK
6
CONTINUOUS
10
4.975
20
-3.24311
11
4.97214
21
-3.24254
0
LINE
8
BLACK
6
CONTINUOUS
10
4.97214
20
-3.24254
11
4.96971
21
-3.24092
0
LINE
8
BLACK
6
CONTINUOUS
10
4.96971
20
-3.24092
11
4.96809
21
-3.23849
0
LINE
8
BLACK
6
CONTINUOUS
10
4.96809
20
-3.23849
11
4.96752
21
-3.23563
0
LINE
8
BLACK
6
CONTINUOUS
10
4.96752
20
-3.23563
11
4.96752
21
-3.18169
0
LINE
8
BLACK
6
CONTINUOUS
10
4.96752
20
-3.18169
11
4.96809
21
-3.17883
0
LINE
8
BLACK
6
CONTINUOUS
10
4.96809
20
-3.17883
11
4.96971
21
-3.1764
0
LINE
8
BLACK
6
CONTINUOUS
10
4.96971
20
-3.1764
11
4.97214
21
-3.17478
0
LINE
8
BLACK
6
CONTINUOUS
10
4.97214
20
-3.17478
11
4.975
21
-3.17421
0
LINE
8
BLACK
6
CONTINUOUS
10
4.975
20
-3.17421
11
4.99744
21
-3.17421
0
LINE
8
BLACK
6
CONTINUOUS
10
4.99744
20
-3.17421
11
5.0003
21
-3.17478
0
LINE
8
BLACK
6
CONTINUOUS
10
5.22648
20
-3.18191
11
5.22968
21
-3.18404
0
LINE
8
BLACK
6
CONTINUOUS
10
5.22968
20
-3.18404
11
5.23181
21
-3.18724
0
LINE
8
BLACK
6
CONTINUOUS
10
5.23181
20
-3.18724
11
5.23256
21
-3.191
0
LINE
8
BLACK
6
CONTINUOUS
10
5.23256
20
-3.191
11
5.23256
21
-3.21856
0
LINE
8
BLACK
6
CONTINUOUS
10
5.23256
20
-3.21856
11
5.23181
21
-3.22233
0
LINE
8
BLACK
6
CONTINUOUS
10
5.23181
20
-3.22233
11
5.22968
21
-3.22552
0
LINE
8
BLACK
6
CONTINUOUS
10
5.22968
20
-3.22552
11
5.22648
21
-3.22766
0
LINE
8
BLACK
6
CONTINUOUS
10
5.22648
20
-3.22766
11
5.22272
21
-3.22841
0
LINE
8
BLACK
6
CONTINUOUS
10
5.22272
20
-3.22841
11
5.18728
21
-3.22841
0
LINE
8
BLACK
6
CONTINUOUS
10
5.18728
20
-3.22841
11
5.18352
21
-3.22766
0
LINE
8
BLACK
6
CONTINUOUS
10
5.18352
20
-3.22766
11
5.18032
21
-3.22552
0
LINE
8
BLACK
6
CONTINUOUS
10
5.18032
20
-3.22552
11
5.17819
21
-3.22233
0
LINE
8
BLACK
6
CONTINUOUS
10
5.17819
20
-3.22233
11
5.17744
21
-3.21856
0
LINE
8
BLACK
6
CONTINUOUS
10
5.17744
20
-3.21856
11
5.17744
21
-3.191
0
LINE
8
BLACK
6
CONTINUOUS
10
5.17744
20
-3.191
11
5.17819
21
-3.18724
0
LINE
8
BLACK
6
CONTINUOUS
10
5.17819
20
-3.18724
11
5.18032
21
-3.18404
0
LINE
8
BLACK
6
CONTINUOUS
10
5.18032
20
-3.18404
11
5.18352
21
-3.18191
0
LINE
8
BLACK
6
CONTINUOUS
10
5.18352
20
-3.18191
11
5.18728
21
-3.18116
0
LINE
8
BLACK
6
CONTINUOUS
10
5.18728
20
-3.18116
11
5.22272
21
-3.18116
0
LINE
8
BLACK
6
CONTINUOUS
10
5.22272
20
-3.18116
11
5.22648
21
-3.18191
0
LINE
8
BLACK
6
CONTINUOUS
10
5.32938
20
-3.18093
11
5.33257
21
-3.18306
0
LINE
8
BLACK
6
CONTINUOUS
10
5.33257
20
-3.18306
11
5.3347
21
-3.18625
0
LINE
8
BLACK
6
CONTINUOUS
10
5.3347
20
-3.18625
11
5.33545
21
-3.19002
0
LINE
8
BLACK
6
CONTINUOUS
10
5.33545
20
-3.19002
11
5.33545
21
-3.21659
0
LINE
8
BLACK
6
CONTINUOUS
10
5.33545
20
-3.21659
11
5.3347
21
-3.22036
0
LINE
8
BLACK
6
CONTINUOUS
10
5.3347
20
-3.22036
11
5.33257
21
-3.22355
0
LINE
8
BLACK
6
CONTINUOUS
10
5.33257
20
-3.22355
11
5.32938
21
-3.22569
0
LINE
8
BLACK
6
CONTINUOUS
10
5.32938
20
-3.22569
11
5.32561
21
-3.22644
0
LINE
8
BLACK
6
CONTINUOUS
10
5.32561
20
-3.22644
11
5.28821
21
-3.22644
0
LINE
8
BLACK
6
CONTINUOUS
10
5.28821
20
-3.22644
11
5.28444
21
-3.22569
0
LINE
8
BLACK
6
CONTINUOUS
10
5.28444
20
-3.22569
11
5.28125
21
-3.22355
0
LINE
8
BLACK
6
CONTINUOUS
10
5.28125
20
-3.22355
11
5.27912
21
-3.22036
0
LINE
8
BLACK
6
CONTINUOUS
10
5.27912
20
-3.22036
11
5.27837
21
-3.21659
0
LINE
8
BLACK
6
CONTINUOUS
10
5.27837
20
-3.21659
11
5.27837
21
-3.19002
0
LINE
8
BLACK
6
CONTINUOUS
10
5.27837
20
-3.19002
11
5.27912
21
-3.18625
0
LINE
8
BLACK
6
CONTINUOUS
10
5.27912
20
-3.18625
11
5.28125
21
-3.18306
0
LINE
8
BLACK
6
CONTINUOUS
10
5.28125
20
-3.18306
11
5.28444
21
-3.18093
0
LINE
8
BLACK
6
CONTINUOUS
10
5.28444
20
-3.18093
11
5.28821
21
-3.18018
0
LINE
8
BLACK
6
CONTINUOUS
10
5.28821
20
-3.18018
11
5.32561
21
-3.18018
0
LINE
8
BLACK
6
CONTINUOUS
10
5.32561
20
-3.18018
11
5.32938
21
-3.18093
0
LINE
8
BLACK
6
CONTINUOUS
10
5.43247
20
-3.18093
11
5.43566
21
-3.18306
0
LINE
8
BLACK
6
CONTINUOUS
10
5.43566
20
-3.18306
11
5.43779
21
-3.18625
0
LINE
8
BLACK
6
CONTINUOUS
10
5.43779
20
-3.18625
11
5.43854
21
-3.19002
0
LINE
8
BLACK
6
CONTINUOUS
10
5.43854
20
-3.19002
11
5.43854
21
-3.21659
0
LINE
8
BLACK
6
CONTINUOUS
10
5.43854
20
-3.21659
11
5.43779
21
-3.22036
0
LINE
8
BLACK
6
CONTINUOUS
10
5.43779
20
-3.22036
11
5.43566
21
-3.22355
0
LINE
8
BLACK
6
CONTINUOUS
10
5.43566
20
-3.22355
11
5.43247
21
-3.22569
0
LINE
8
BLACK
6
CONTINUOUS
10
5.43247
20
-3.22569
11
5.4287
21
-3.22644
0
LINE
8
BLACK
6
CONTINUOUS
10
5.4287
20
-3.22644
11
5.3913
21
-3.22644
0
LINE
8
BLACK
6
CONTINUOUS
10
5.3913
20
-3.22644
11
5.38753
21
-3.22569
0
LINE
8
BLACK
6
CONTINUOUS
10
5.38753
20
-3.22569
11
5.38434
21
-3.22355
0
LINE
8
BLACK
6
CONTINUOUS
10
5.38434
20
-3.22355
11
5.38221
21
-3.22036
0
LINE
8
BLACK
6
CONTINUOUS
10
5.38221
20
-3.22036
11
5.38146
21
-3.21659
0
LINE
8
BLACK
6
CONTINUOUS
10
5.38146
20
-3.21659
11
5.38146
21
-3.19002
0
LINE
8
BLACK
6
CONTINUOUS
10
5.38146
20
-3.19002
11
5.38221
21
-3.18625
0
LINE
8
BLACK
6
CONTINUOUS
10
5.38221
20
-3.18625
11
5.38434
21
-3.18306
0
LINE
8
BLACK
6
CONTINUOUS
10
5.38434
20
-3.18306
11
5.38753
21
-3.18093
0
LINE
8
BLACK
6
CONTINUOUS
10
5.38753
20
-3.18093
11
5.3913
21
-3.18018
0
LINE
8
BLACK
6
CONTINUOUS
10
5.3913
20
-3.18018
11
5.4287
21
-3.18018
0
LINE
8
BLACK
6
CONTINUOUS
10
5.4287
20
-3.18018
11
5.43247
21
-3.18093
0
LINE
8
BLACK
6
CONTINUOUS
10
5.96358
20
-3.22146
11
5.89469
21
-3.22146
0
LINE
8
BLACK
6
CONTINUOUS
10
5.89469
20
-3.22146
11
5.89469
21
-3.20374
0
LINE
8
BLACK
6
CONTINUOUS
10
5.89469
20
-3.20374
11
5.96358
21
-3.20374
0
LINE
8
BLACK
6
CONTINUOUS
10
5.96358
20
-3.20374
11
5.96358
21
-3.22146
0
LINE
8
BLACK
6
CONTINUOUS
10
5.68012
20
-3.22146
11
5.61122
21
-3.22146
0
LINE
8
BLACK
6
CONTINUOUS
10
5.61122
20
-3.22146
11
5.61122
21
-3.20374
0
LINE
8
BLACK
6
CONTINUOUS
10
5.61122
20
-3.20374
11
5.68012
21
-3.20374
0
LINE
8
BLACK
6
CONTINUOUS
10
5.68012
20
-3.20374
11
5.68012
21
-3.22146
  0
ENDSEC
  0
EOF
