  0
SECTION
  2
HEADER
  9
$ANGBASE
  50
0.0
  9
$ANGDIR
  70
1
  9
$MEASUREMENT
  70
0
  0
ENDSEC
  0
SECTION
  2
TABLES
  0
TABLE
  2
LTYPE
  70
4
  0
LTYPE
  5
40F
  2
CONTINUOUS
  70
0
  3
Solid line
  72
65
  73
0
  40
0.0
  0
LTYPE
  5
410
  2
DASHDOT
 70
0
  3
Dash Dot ____ _ ____ _
 72
65
 73
4
 40
2.0
 49
1.25
 49
-0.25
 49
0.25
 49
-0.25
  0
LTYPE
  5
411
  2
DASHED
 70
0
  3
Dashed __ __ __ __ __
 72
65
 73
2
 40
0.75
 49
0.5
 49
-0.25
  0
LTYPE
  5
43B
  2
DOTTED
 70
0
  3
Dotted .  .  .  .
 72
65
 73
2
 40
0.2
 49
0.0
 49
-0.2
  0
ENDTAB
  0
TABLE
  2
STYLE
  70
4
  0
STYLE
  2
KICAD
  70
0
  40
0
  41
1
  42
1
  50
0
  71
0
  3
isocp.shx
  0
STYLE
  2
KICADB
  70
0
  40
0
  41
1
  42
1
  50
0
  71
0
  3
isocp.shx
  0
STYLE
  2
KICADI
  70
0
  40
0
  41
1
  42
1
  50
15
  71
0
  3
isocp.shx
  0
STYLE
  2
KICADBI
  70
0
  40
0
  41
1
  42
1
  50
15
  71
0
  3
isocp.shx
  0
ENDTAB
  0
TABLE
  2
LAYER
  70
1
  0
LAYER
  2
BLACK
  70
0
  62
7
  6
CONTINUOUS
  0
ENDTAB
  0
ENDSEC
  0
SECTION
  2
ENTITIES
0
LINE
8
BLACK
6
CONTINUOUS
10
5.68615
20
-3.75764
11
5.69291
21
-3.76065
0
LINE
8
BLACK
6
CONTINUOUS
10
5.69291
20
-3.76065
11
5.69891
21
-3.76501
0
LINE
8
BLACK
6
CONTINUOUS
10
5.69891
20
-3.76501
11
5.70386
21
-3.77051
0
LINE
8
BLACK
6
CONTINUOUS
10
5.70386
20
-3.77051
11
5.70757
21
-3.77693
0
LINE
8
BLACK
6
CONTINUOUS
10
5.70757
20
-3.77693
11
5.70986
21
-3.78397
0
LINE
8
BLACK
6
CONTINUOUS
10
5.70986
20
-3.78397
11
5.71063
21
-3.79134
0
LINE
8
BLACK
6
CONTINUOUS
10
5.71063
20
-3.79134
11
5.71063
21
-3.81496
0
LINE
8
BLACK
6
CONTINUOUS
10
5.71063
20
-3.81496
11
5.70986
21
-3.82233
0
LINE
8
BLACK
6
CONTINUOUS
10
5.70986
20
-3.82233
11
5.70757
21
-3.82937
0
LINE
8
BLACK
6
CONTINUOUS
10
5.70757
20
-3.82937
11
5.70386
21
-3.83579
0
LINE
8
BLACK
6
CONTINUOUS
10
5.70386
20
-3.83579
11
5.69891
21
-3.84129
0
LINE
8
BLACK
6
CONTINUOUS
10
5.69891
20
-3.84129
11
5.69291
21
-3.84565
0
LINE
8
BLACK
6
CONTINUOUS
10
5.69291
20
-3.84565
11
5.68615
21
-3.84866
0
LINE
8
BLACK
6
CONTINUOUS
10
5.68615
20
-3.84866
11
5.6789
21
-3.8502
0
LINE
8
BLACK
6
CONTINUOUS
10
5.6789
20
-3.8502
11
5.67149
21
-3.8502
0
LINE
8
BLACK
6
CONTINUOUS
10
5.67149
20
-3.8502
11
5.66425
21
-3.84866
0
LINE
8
BLACK
6
CONTINUOUS
10
5.66425
20
-3.84866
11
5.65748
21
-3.84565
0
LINE
8
BLACK
6
CONTINUOUS
10
5.65748
20
-3.84565
11
5.65149
21
-3.84129
0
LINE
8
BLACK
6
CONTINUOUS
10
5.65149
20
-3.84129
11
5.64653
21
-3.83579
0
LINE
8
BLACK
6
CONTINUOUS
10
5.64653
20
-3.83579
11
5.64283
21
-3.82937
0
LINE
8
BLACK
6
CONTINUOUS
10
5.64283
20
-3.82937
11
5.64054
21
-3.82233
0
LINE
8
BLACK
6
CONTINUOUS
10
5.64054
20
-3.82233
11
5.63976
21
-3.81496
0
LINE
8
BLACK
6
CONTINUOUS
10
5.63976
20
-3.81496
11
5.63976
21
-3.79134
0
LINE
8
BLACK
6
CONTINUOUS
10
5.63976
20
-3.79134
11
5.64054
21
-3.78397
0
LINE
8
BLACK
6
CONTINUOUS
10
5.64054
20
-3.78397
11
5.64283
21
-3.77693
0
LINE
8
BLACK
6
CONTINUOUS
10
5.64283
20
-3.77693
11
5.64653
21
-3.77051
0
LINE
8
BLACK
6
CONTINUOUS
10
5.64653
20
-3.77051
11
5.65149
21
-3.76501
0
LINE
8
BLACK
6
CONTINUOUS
10
5.65149
20
-3.76501
11
5.65748
21
-3.76065
0
LINE
8
BLACK
6
CONTINUOUS
10
5.65748
20
-3.76065
11
5.66425
21
-3.75764
0
LINE
8
BLACK
6
CONTINUOUS
10
5.66425
20
-3.75764
11
5.67149
21
-3.7561
0
LINE
8
BLACK
6
CONTINUOUS
10
5.67149
20
-3.7561
11
5.6789
21
-3.7561
0
LINE
8
BLACK
6
CONTINUOUS
10
5.6789
20
-3.7561
11
5.68615
21
-3.75764
0
LINE
8
BLACK
6
CONTINUOUS
10
6.63213
20
-3.64924
11
6.64239
21
-3.65241
0
LINE
8
BLACK
6
CONTINUOUS
10
6.64239
20
-3.65241
11
6.65207
21
-3.65707
0
LINE
8
BLACK
6
CONTINUOUS
10
6.65207
20
-3.65707
11
6.66094
21
-3.66312
0
LINE
8
BLACK
6
CONTINUOUS
10
6.66094
20
-3.66312
11
6.66881
21
-3.67042
0
LINE
8
BLACK
6
CONTINUOUS
10
6.66881
20
-3.67042
11
6.67551
21
-3.67882
0
LINE
8
BLACK
6
CONTINUOUS
10
6.67551
20
-3.67882
11
6.68088
21
-3.68812
0
LINE
8
BLACK
6
CONTINUOUS
10
6.68088
20
-3.68812
11
6.6848
21
-3.69811
0
LINE
8
BLACK
6
CONTINUOUS
10
6.6848
20
-3.69811
11
6.68719
21
-3.70858
0
LINE
8
BLACK
6
CONTINUOUS
10
6.68719
20
-3.70858
11
6.68799
21
-3.71929
0
LINE
8
BLACK
6
CONTINUOUS
10
6.68799
20
-3.71929
11
6.68719
21
-3.73
0
LINE
8
BLACK
6
CONTINUOUS
10
6.68719
20
-3.73
11
6.6848
21
-3.74047
0
LINE
8
BLACK
6
CONTINUOUS
10
6.6848
20
-3.74047
11
6.68088
21
-3.75047
0
LINE
8
BLACK
6
CONTINUOUS
10
6.68088
20
-3.75047
11
6.67551
21
-3.75977
0
LINE
8
BLACK
6
CONTINUOUS
10
6.67551
20
-3.75977
11
6.66881
21
-3.76816
0
LINE
8
BLACK
6
CONTINUOUS
10
6.66881
20
-3.76816
11
6.66094
21
-3.77547
0
LINE
8
BLACK
6
CONTINUOUS
10
6.66094
20
-3.77547
11
6.65207
21
-3.78152
0
LINE
8
BLACK
6
CONTINUOUS
10
6.65207
20
-3.78152
11
6.64239
21
-3.78618
0
LINE
8
BLACK
6
CONTINUOUS
10
6.64239
20
-3.78618
11
6.63213
21
-3.78934
0
LINE
8
BLACK
6
CONTINUOUS
10
6.63213
20
-3.78934
11
6.62151
21
-3.79094
0
LINE
8
BLACK
6
CONTINUOUS
10
6.62151
20
-3.79094
11
6.61077
21
-3.79094
0
LINE
8
BLACK
6
CONTINUOUS
10
6.61077
20
-3.79094
11
6.60015
21
-3.78934
0
LINE
8
BLACK
6
CONTINUOUS
10
6.60015
20
-3.78934
11
6.58989
21
-3.78618
0
LINE
8
BLACK
6
CONTINUOUS
10
6.58989
20
-3.78618
11
6.58022
21
-3.78152
0
LINE
8
BLACK
6
CONTINUOUS
10
6.58022
20
-3.78152
11
6.57134
21
-3.77547
0
LINE
8
BLACK
6
CONTINUOUS
10
6.57134
20
-3.77547
11
6.56347
21
-3.76816
0
LINE
8
BLACK
6
CONTINUOUS
10
6.56347
20
-3.76816
11
6.55678
21
-3.75977
0
LINE
8
BLACK
6
CONTINUOUS
10
6.55678
20
-3.75977
11
6.55141
21
-3.75047
0
LINE
8
BLACK
6
CONTINUOUS
10
6.55141
20
-3.75047
11
6.54748
21
-3.74047
0
LINE
8
BLACK
6
CONTINUOUS
10
6.54748
20
-3.74047
11
6.54509
21
-3.73
0
LINE
8
BLACK
6
CONTINUOUS
10
6.54509
20
-3.73
11
6.54429
21
-3.71929
0
LINE
8
BLACK
6
CONTINUOUS
10
6.54429
20
-3.71929
11
6.54509
21
-3.70858
0
LINE
8
BLACK
6
CONTINUOUS
10
6.54509
20
-3.70858
11
6.54748
21
-3.69811
0
LINE
8
BLACK
6
CONTINUOUS
10
6.54748
20
-3.69811
11
6.55141
21
-3.68812
0
LINE
8
BLACK
6
CONTINUOUS
10
6.55141
20
-3.68812
11
6.55678
21
-3.67882
0
LINE
8
BLACK
6
CONTINUOUS
10
6.55678
20
-3.67882
11
6.56347
21
-3.67042
0
LINE
8
BLACK
6
CONTINUOUS
10
6.56347
20
-3.67042
11
6.57134
21
-3.66312
0
LINE
8
BLACK
6
CONTINUOUS
10
6.57134
20
-3.66312
11
6.58022
21
-3.65707
0
LINE
8
BLACK
6
CONTINUOUS
10
6.58022
20
-3.65707
11
6.58989
21
-3.65241
0
LINE
8
BLACK
6
CONTINUOUS
10
6.58989
20
-3.65241
11
6.60015
21
-3.64924
0
LINE
8
BLACK
6
CONTINUOUS
10
6.60015
20
-3.64924
11
6.61077
21
-3.64764
0
LINE
8
BLACK
6
CONTINUOUS
10
6.61077
20
-3.64764
11
6.62151
21
-3.64764
0
LINE
8
BLACK
6
CONTINUOUS
10
6.62151
20
-3.64764
11
6.63213
21
-3.64924
0
LINE
8
BLACK
6
CONTINUOUS
10
5.68615
20
-3.63559
11
5.69291
21
-3.63861
0
LINE
8
BLACK
6
CONTINUOUS
10
5.69291
20
-3.63861
11
5.69891
21
-3.64296
0
LINE
8
BLACK
6
CONTINUOUS
10
5.69891
20
-3.64296
11
5.70386
21
-3.64846
0
LINE
8
BLACK
6
CONTINUOUS
10
5.70386
20
-3.64846
11
5.70757
21
-3.65488
0
LINE
8
BLACK
6
CONTINUOUS
10
5.70757
20
-3.65488
11
5.70986
21
-3.66192
0
LINE
8
BLACK
6
CONTINUOUS
10
5.70986
20
-3.66192
11
5.71063
21
-3.66929
0
LINE
8
BLACK
6
CONTINUOUS
10
5.71063
20
-3.66929
11
5.71063
21
-3.69291
0
LINE
8
BLACK
6
CONTINUOUS
10
5.71063
20
-3.69291
11
5.70986
21
-3.70028
0
LINE
8
BLACK
6
CONTINUOUS
10
5.70986
20
-3.70028
11
5.70757
21
-3.70733
0
LINE
8
BLACK
6
CONTINUOUS
10
5.70757
20
-3.70733
11
5.70386
21
-3.71374
0
LINE
8
BLACK
6
CONTINUOUS
10
5.70386
20
-3.71374
11
5.69891
21
-3.71925
0
LINE
8
BLACK
6
CONTINUOUS
10
5.69891
20
-3.71925
11
5.69291
21
-3.7236
0
LINE
8
BLACK
6
CONTINUOUS
10
5.69291
20
-3.7236
11
5.68615
21
-3.72661
0
LINE
8
BLACK
6
CONTINUOUS
10
5.68615
20
-3.72661
11
5.6789
21
-3.72815
0
LINE
8
BLACK
6
CONTINUOUS
10
5.6789
20
-3.72815
11
5.67149
21
-3.72815
0
LINE
8
BLACK
6
CONTINUOUS
10
5.67149
20
-3.72815
11
5.66425
21
-3.72661
0
LINE
8
BLACK
6
CONTINUOUS
10
5.66425
20
-3.72661
11
5.65748
21
-3.7236
0
LINE
8
BLACK
6
CONTINUOUS
10
5.65748
20
-3.7236
11
5.65149
21
-3.71925
0
LINE
8
BLACK
6
CONTINUOUS
10
5.65149
20
-3.71925
11
5.64653
21
-3.71374
0
LINE
8
BLACK
6
CONTINUOUS
10
5.64653
20
-3.71374
11
5.64283
21
-3.70733
0
LINE
8
BLACK
6
CONTINUOUS
10
5.64283
20
-3.70733
11
5.64054
21
-3.70028
0
LINE
8
BLACK
6
CONTINUOUS
10
5.64054
20
-3.70028
11
5.63976
21
-3.69291
0
LINE
8
BLACK
6
CONTINUOUS
10
5.63976
20
-3.69291
11
5.63976
21
-3.66929
0
LINE
8
BLACK
6
CONTINUOUS
10
5.63976
20
-3.66929
11
5.64054
21
-3.66192
0
LINE
8
BLACK
6
CONTINUOUS
10
5.64054
20
-3.66192
11
5.64283
21
-3.65488
0
LINE
8
BLACK
6
CONTINUOUS
10
5.64283
20
-3.65488
11
5.64653
21
-3.64846
0
LINE
8
BLACK
6
CONTINUOUS
10
5.64653
20
-3.64846
11
5.65149
21
-3.64296
0
LINE
8
BLACK
6
CONTINUOUS
10
5.65149
20
-3.64296
11
5.65748
21
-3.63861
0
LINE
8
BLACK
6
CONTINUOUS
10
5.65748
20
-3.63861
11
5.66425
21
-3.63559
0
LINE
8
BLACK
6
CONTINUOUS
10
5.66425
20
-3.63559
11
5.67149
21
-3.63405
0
LINE
8
BLACK
6
CONTINUOUS
10
5.67149
20
-3.63405
11
5.6789
21
-3.63405
0
LINE
8
BLACK
6
CONTINUOUS
10
5.6789
20
-3.63405
11
5.68615
21
-3.63559
0
LINE
8
BLACK
6
CONTINUOUS
10
6.39567
20
-3.69882
11
6.33661
21
-3.69882
0
LINE
8
BLACK
6
CONTINUOUS
10
6.33661
20
-3.69882
11
6.33661
21
-3.63976
0
LINE
8
BLACK
6
CONTINUOUS
10
6.33661
20
-3.63976
11
6.39567
21
-3.63976
0
LINE
8
BLACK
6
CONTINUOUS
10
6.39567
20
-3.63976
11
6.39567
21
-3.69882
0
LINE
8
BLACK
6
CONTINUOUS
10
4.95402
20
-3.65256
11
4.95906
21
-3.65412
0
LINE
8
BLACK
6
CONTINUOUS
10
4.95906
20
-3.65412
11
4.96343
21
-3.65709
0
LINE
8
BLACK
6
CONTINUOUS
10
4.96343
20
-3.65709
11
4.96672
21
-3.66122
0
LINE
8
BLACK
6
CONTINUOUS
10
4.96672
20
-3.66122
11
4.96865
21
-3.66614
0
LINE
8
BLACK
6
CONTINUOUS
10
4.96865
20
-3.66614
11
4.96904
21
-3.6714
0
LINE
8
BLACK
6
CONTINUOUS
10
4.96904
20
-3.6714
11
4.96787
21
-3.67655
0
LINE
8
BLACK
6
CONTINUOUS
10
4.96787
20
-3.67655
11
4.96523
21
-3.68112
0
LINE
8
BLACK
6
CONTINUOUS
10
4.96523
20
-3.68112
11
4.96136
21
-3.68472
0
LINE
8
BLACK
6
CONTINUOUS
10
4.96136
20
-3.68472
11
4.9566
21
-3.68701
0
LINE
8
BLACK
6
CONTINUOUS
10
4.9566
20
-3.68701
11
4.95138
21
-3.6878
0
LINE
8
BLACK
6
CONTINUOUS
10
4.95138
20
-3.6878
11
4.90807
21
-3.6878
0
LINE
8
BLACK
6
CONTINUOUS
10
4.90807
20
-3.6878
11
4.90543
21
-3.6876
0
LINE
8
BLACK
6
CONTINUOUS
10
4.90543
20
-3.6876
11
4.90038
21
-3.68604
0
LINE
8
BLACK
6
CONTINUOUS
10
4.90038
20
-3.68604
11
4.89602
21
-3.68307
0
LINE
8
BLACK
6
CONTINUOUS
10
4.89602
20
-3.68307
11
4.89273
21
-3.67894
0
LINE
8
BLACK
6
CONTINUOUS
10
4.89273
20
-3.67894
11
4.8908
21
-3.67402
0
LINE
8
BLACK
6
CONTINUOUS
10
4.8908
20
-3.67402
11
4.8904
21
-3.66875
0
LINE
8
BLACK
6
CONTINUOUS
10
4.8904
20
-3.66875
11
4.89158
21
-3.66361
0
LINE
8
BLACK
6
CONTINUOUS
10
4.89158
20
-3.66361
11
4.89422
21
-3.65903
0
LINE
8
BLACK
6
CONTINUOUS
10
4.89422
20
-3.65903
11
4.89809
21
-3.65544
0
LINE
8
BLACK
6
CONTINUOUS
10
4.89809
20
-3.65544
11
4.90285
21
-3.65315
0
LINE
8
BLACK
6
CONTINUOUS
10
4.90285
20
-3.65315
11
4.90807
21
-3.65236
0
LINE
8
BLACK
6
CONTINUOUS
10
4.90807
20
-3.65236
11
4.95138
21
-3.65236
0
LINE
8
BLACK
6
CONTINUOUS
10
4.95138
20
-3.65236
11
4.95402
21
-3.65256
0
LINE
8
BLACK
6
CONTINUOUS
10
5.12016
20
-3.65256
11
5.12521
21
-3.65412
0
LINE
8
BLACK
6
CONTINUOUS
10
5.12521
20
-3.65412
11
5.12957
21
-3.65709
0
LINE
8
BLACK
6
CONTINUOUS
10
5.12957
20
-3.65709
11
5.13286
21
-3.66122
0
LINE
8
BLACK
6
CONTINUOUS
10
5.13286
20
-3.66122
11
5.13479
21
-3.66614
0
LINE
8
BLACK
6
CONTINUOUS
10
5.13479
20
-3.66614
11
5.13519
21
-3.6714
0
LINE
8
BLACK
6
CONTINUOUS
10
5.13519
20
-3.6714
11
5.13401
21
-3.67655
0
LINE
8
BLACK
6
CONTINUOUS
10
5.13401
20
-3.67655
11
5.13137
21
-3.68112
0
LINE
8
BLACK
6
CONTINUOUS
10
5.13137
20
-3.68112
11
5.1275
21
-3.68472
0
LINE
8
BLACK
6
CONTINUOUS
10
5.1275
20
-3.68472
11
5.12274
21
-3.68701
0
LINE
8
BLACK
6
CONTINUOUS
10
5.12274
20
-3.68701
11
5.11752
21
-3.6878
0
LINE
8
BLACK
6
CONTINUOUS
10
5.11752
20
-3.6878
11
5.07028
21
-3.6878
0
LINE
8
BLACK
6
CONTINUOUS
10
5.07028
20
-3.6878
11
5.06764
21
-3.6876
0
LINE
8
BLACK
6
CONTINUOUS
10
5.06764
20
-3.6876
11
5.06259
21
-3.68604
0
LINE
8
BLACK
6
CONTINUOUS
10
5.06259
20
-3.68604
11
5.05823
21
-3.68307
0
LINE
8
BLACK
6
CONTINUOUS
10
5.05823
20
-3.68307
11
5.05493
21
-3.67894
0
LINE
8
BLACK
6
CONTINUOUS
10
5.05493
20
-3.67894
11
5.053
21
-3.67402
0
LINE
8
BLACK
6
CONTINUOUS
10
5.053
20
-3.67402
11
5.05261
21
-3.66875
0
LINE
8
BLACK
6
CONTINUOUS
10
5.05261
20
-3.66875
11
5.05378
21
-3.66361
0
LINE
8
BLACK
6
CONTINUOUS
10
5.05378
20
-3.66361
11
5.05642
21
-3.65903
0
LINE
8
BLACK
6
CONTINUOUS
10
5.05642
20
-3.65903
11
5.0603
21
-3.65544
0
LINE
8
BLACK
6
CONTINUOUS
10
5.0603
20
-3.65544
11
5.06505
21
-3.65315
0
LINE
8
BLACK
6
CONTINUOUS
10
5.06505
20
-3.65315
11
5.07028
21
-3.65236
0
LINE
8
BLACK
6
CONTINUOUS
10
5.07028
20
-3.65236
11
5.11752
21
-3.65236
0
LINE
8
BLACK
6
CONTINUOUS
10
5.11752
20
-3.65236
11
5.12016
21
-3.65256
0
LINE
8
BLACK
6
CONTINUOUS
10
6.27271
20
-3.5905
11
6.27895
21
-3.59269
0
LINE
8
BLACK
6
CONTINUOUS
10
6.27895
20
-3.59269
11
6.28455
21
-3.59621
0
LINE
8
BLACK
6
CONTINUOUS
10
6.28455
20
-3.59621
11
6.28923
21
-3.60088
0
LINE
8
BLACK
6
CONTINUOUS
10
6.28923
20
-3.60088
11
6.29275
21
-3.60648
0
LINE
8
BLACK
6
CONTINUOUS
10
6.29275
20
-3.60648
11
6.29493
21
-3.61272
0
LINE
8
BLACK
6
CONTINUOUS
10
6.29493
20
-3.61272
11
6.29567
21
-3.61929
0
LINE
8
BLACK
6
CONTINUOUS
10
6.29567
20
-3.61929
11
6.29493
21
-3.62586
0
LINE
8
BLACK
6
CONTINUOUS
10
6.29493
20
-3.62586
11
6.29275
21
-3.6321
0
LINE
8
BLACK
6
CONTINUOUS
10
6.29275
20
-3.6321
11
6.28923
21
-3.6377
0
LINE
8
BLACK
6
CONTINUOUS
10
6.28923
20
-3.6377
11
6.28455
21
-3.64238
0
LINE
8
BLACK
6
CONTINUOUS
10
6.28455
20
-3.64238
11
6.27895
21
-3.64589
0
LINE
8
BLACK
6
CONTINUOUS
10
6.27895
20
-3.64589
11
6.27271
21
-3.64808
0
LINE
8
BLACK
6
CONTINUOUS
10
6.27271
20
-3.64808
11
6.26614
21
-3.64882
0
LINE
8
BLACK
6
CONTINUOUS
10
6.26614
20
-3.64882
11
6.25957
21
-3.64808
0
LINE
8
BLACK
6
CONTINUOUS
10
6.25957
20
-3.64808
11
6.25333
21
-3.64589
0
LINE
8
BLACK
6
CONTINUOUS
10
6.25333
20
-3.64589
11
6.24773
21
-3.64238
0
LINE
8
BLACK
6
CONTINUOUS
10
6.24773
20
-3.64238
11
6.24306
21
-3.6377
0
LINE
8
BLACK
6
CONTINUOUS
10
6.24306
20
-3.6377
11
6.23954
21
-3.6321
0
LINE
8
BLACK
6
CONTINUOUS
10
6.23954
20
-3.6321
11
6.23735
21
-3.62586
0
LINE
8
BLACK
6
CONTINUOUS
10
6.23735
20
-3.62586
11
6.23661
21
-3.61929
0
LINE
8
BLACK
6
CONTINUOUS
10
6.23661
20
-3.61929
11
6.23735
21
-3.61272
0
LINE
8
BLACK
6
CONTINUOUS
10
6.23735
20
-3.61272
11
6.23954
21
-3.60648
0
LINE
8
BLACK
6
CONTINUOUS
10
6.23954
20
-3.60648
11
6.24306
21
-3.60088
0
LINE
8
BLACK
6
CONTINUOUS
10
6.24306
20
-3.60088
11
6.24773
21
-3.59621
0
LINE
8
BLACK
6
CONTINUOUS
10
6.24773
20
-3.59621
11
6.25333
21
-3.59269
0
LINE
8
BLACK
6
CONTINUOUS
10
6.25333
20
-3.59269
11
6.25957
21
-3.5905
0
LINE
8
BLACK
6
CONTINUOUS
10
6.25957
20
-3.5905
11
6.26614
21
-3.58976
0
LINE
8
BLACK
6
CONTINUOUS
10
6.26614
20
-3.58976
11
6.27271
21
-3.5905
0
LINE
8
BLACK
6
CONTINUOUS
10
5.0814
20
-3.6027
11
5.0848
21
-3.60555
0
LINE
8
BLACK
6
CONTINUOUS
10
5.0848
20
-3.60555
11
5.08702
21
-3.6094
0
LINE
8
BLACK
6
CONTINUOUS
10
5.08702
20
-3.6094
11
5.0878
21
-3.61378
0
LINE
8
BLACK
6
CONTINUOUS
10
5.0878
20
-3.61378
11
5.08702
21
-3.61816
0
LINE
8
BLACK
6
CONTINUOUS
10
5.08702
20
-3.61816
11
5.0848
21
-3.622
0
LINE
8
BLACK
6
CONTINUOUS
10
5.0848
20
-3.622
11
5.0814
21
-3.62486
0
LINE
8
BLACK
6
CONTINUOUS
10
5.0814
20
-3.62486
11
5.07722
21
-3.62638
0
LINE
8
BLACK
6
CONTINUOUS
10
5.07722
20
-3.62638
11
5.07278
21
-3.62638
0
LINE
8
BLACK
6
CONTINUOUS
10
5.07278
20
-3.62638
11
5.0686
21
-3.62486
0
LINE
8
BLACK
6
CONTINUOUS
10
5.0686
20
-3.62486
11
5.0652
21
-3.622
0
LINE
8
BLACK
6
CONTINUOUS
10
5.0652
20
-3.622
11
5.06298
21
-3.61816
0
LINE
8
BLACK
6
CONTINUOUS
10
5.06298
20
-3.61816
11
5.0622
21
-3.61378
0
LINE
8
BLACK
6
CONTINUOUS
10
5.0622
20
-3.61378
11
5.06298
21
-3.6094
0
LINE
8
BLACK
6
CONTINUOUS
10
5.06298
20
-3.6094
11
5.0652
21
-3.60555
0
LINE
8
BLACK
6
CONTINUOUS
10
5.0652
20
-3.60555
11
5.0686
21
-3.6027
0
LINE
8
BLACK
6
CONTINUOUS
10
5.0686
20
-3.6027
11
5.07278
21
-3.60118
0
LINE
8
BLACK
6
CONTINUOUS
10
5.07278
20
-3.60118
11
5.07722
21
-3.60118
0
LINE
8
BLACK
6
CONTINUOUS
10
5.07722
20
-3.60118
11
5.0814
21
-3.6027
0
LINE
8
BLACK
6
CONTINUOUS
10
6.37271
20
-3.5405
11
6.37895
21
-3.54269
0
LINE
8
BLACK
6
CONTINUOUS
10
6.37895
20
-3.54269
11
6.38455
21
-3.54621
0
LINE
8
BLACK
6
CONTINUOUS
10
6.38455
20
-3.54621
11
6.38923
21
-3.55088
0
LINE
8
BLACK
6
CONTINUOUS
10
6.38923
20
-3.55088
11
6.39275
21
-3.55648
0
LINE
8
BLACK
6
CONTINUOUS
10
6.39275
20
-3.55648
11
6.39493
21
-3.56272
0
LINE
8
BLACK
6
CONTINUOUS
10
6.39493
20
-3.56272
11
6.39567
21
-3.56929
0
LINE
8
BLACK
6
CONTINUOUS
10
6.39567
20
-3.56929
11
6.39493
21
-3.57586
0
LINE
8
BLACK
6
CONTINUOUS
10
6.39493
20
-3.57586
11
6.39275
21
-3.5821
0
LINE
8
BLACK
6
CONTINUOUS
10
6.39275
20
-3.5821
11
6.38923
21
-3.5877
0
LINE
8
BLACK
6
CONTINUOUS
10
6.38923
20
-3.5877
11
6.38455
21
-3.59238
0
LINE
8
BLACK
6
CONTINUOUS
10
6.38455
20
-3.59238
11
6.37895
21
-3.59589
0
LINE
8
BLACK
6
CONTINUOUS
10
6.37895
20
-3.59589
11
6.37271
21
-3.59808
0
LINE
8
BLACK
6
CONTINUOUS
10
6.37271
20
-3.59808
11
6.36614
21
-3.59882
0
LINE
8
BLACK
6
CONTINUOUS
10
6.36614
20
-3.59882
11
6.35957
21
-3.59808
0
LINE
8
BLACK
6
CONTINUOUS
10
6.35957
20
-3.59808
11
6.35333
21
-3.59589
0
LINE
8
BLACK
6
CONTINUOUS
10
6.35333
20
-3.59589
11
6.34773
21
-3.59238
0
LINE
8
BLACK
6
CONTINUOUS
10
6.34773
20
-3.59238
11
6.34306
21
-3.5877
0
LINE
8
BLACK
6
CONTINUOUS
10
6.34306
20
-3.5877
11
6.33954
21
-3.5821
0
LINE
8
BLACK
6
CONTINUOUS
10
6.33954
20
-3.5821
11
6.33735
21
-3.57586
0
LINE
8
BLACK
6
CONTINUOUS
10
6.33735
20
-3.57586
11
6.33661
21
-3.56929
0
LINE
8
BLACK
6
CONTINUOUS
10
6.33661
20
-3.56929
11
6.33735
21
-3.56272
0
LINE
8
BLACK
6
CONTINUOUS
10
6.33735
20
-3.56272
11
6.33954
21
-3.55648
0
LINE
8
BLACK
6
CONTINUOUS
10
6.33954
20
-3.55648
11
6.34306
21
-3.55088
0
LINE
8
BLACK
6
CONTINUOUS
10
6.34306
20
-3.55088
11
6.34773
21
-3.54621
0
LINE
8
BLACK
6
CONTINUOUS
10
6.34773
20
-3.54621
11
6.35333
21
-3.54269
0
LINE
8
BLACK
6
CONTINUOUS
10
6.35333
20
-3.54269
11
6.35957
21
-3.5405
0
LINE
8
BLACK
6
CONTINUOUS
10
6.35957
20
-3.5405
11
6.36614
21
-3.53976
0
LINE
8
BLACK
6
CONTINUOUS
10
6.36614
20
-3.53976
11
6.37271
21
-3.5405
0
LINE
8
BLACK
6
CONTINUOUS
10
6.27271
20
-3.4905
11
6.27895
21
-3.49269
0
LINE
8
BLACK
6
CONTINUOUS
10
6.27895
20
-3.49269
11
6.28455
21
-3.49621
0
LINE
8
BLACK
6
CONTINUOUS
10
6.28455
20
-3.49621
11
6.28923
21
-3.50088
0
LINE
8
BLACK
6
CONTINUOUS
10
6.28923
20
-3.50088
11
6.29275
21
-3.50648
0
LINE
8
BLACK
6
CONTINUOUS
10
6.29275
20
-3.50648
11
6.29493
21
-3.51272
0
LINE
8
BLACK
6
CONTINUOUS
10
6.29493
20
-3.51272
11
6.29567
21
-3.51929
0
LINE
8
BLACK
6
CONTINUOUS
10
6.29567
20
-3.51929
11
6.29493
21
-3.52586
0
LINE
8
BLACK
6
CONTINUOUS
10
6.29493
20
-3.52586
11
6.29275
21
-3.5321
0
LINE
8
BLACK
6
CONTINUOUS
10
6.29275
20
-3.5321
11
6.28923
21
-3.5377
0
LINE
8
BLACK
6
CONTINUOUS
10
6.28923
20
-3.5377
11
6.28455
21
-3.54238
0
LINE
8
BLACK
6
CONTINUOUS
10
6.28455
20
-3.54238
11
6.27895
21
-3.54589
0
LINE
8
BLACK
6
CONTINUOUS
10
6.27895
20
-3.54589
11
6.27271
21
-3.54808
0
LINE
8
BLACK
6
CONTINUOUS
10
6.27271
20
-3.54808
11
6.26614
21
-3.54882
0
LINE
8
BLACK
6
CONTINUOUS
10
6.26614
20
-3.54882
11
6.25957
21
-3.54808
0
LINE
8
BLACK
6
CONTINUOUS
10
6.25957
20
-3.54808
11
6.25333
21
-3.54589
0
LINE
8
BLACK
6
CONTINUOUS
10
6.25333
20
-3.54589
11
6.24773
21
-3.54238
0
LINE
8
BLACK
6
CONTINUOUS
10
6.24773
20
-3.54238
11
6.24306
21
-3.5377
0
LINE
8
BLACK
6
CONTINUOUS
10
6.24306
20
-3.5377
11
6.23954
21
-3.5321
0
LINE
8
BLACK
6
CONTINUOUS
10
6.23954
20
-3.5321
11
6.23735
21
-3.52586
0
LINE
8
BLACK
6
CONTINUOUS
10
6.23735
20
-3.52586
11
6.23661
21
-3.51929
0
LINE
8
BLACK
6
CONTINUOUS
10
6.23661
20
-3.51929
11
6.23735
21
-3.51272
0
LINE
8
BLACK
6
CONTINUOUS
10
6.23735
20
-3.51272
11
6.23954
21
-3.50648
0
LINE
8
BLACK
6
CONTINUOUS
10
6.23954
20
-3.50648
11
6.24306
21
-3.50088
0
LINE
8
BLACK
6
CONTINUOUS
10
6.24306
20
-3.50088
11
6.24773
21
-3.49621
0
LINE
8
BLACK
6
CONTINUOUS
10
6.24773
20
-3.49621
11
6.25333
21
-3.49269
0
LINE
8
BLACK
6
CONTINUOUS
10
6.25333
20
-3.49269
11
6.25957
21
-3.4905
0
LINE
8
BLACK
6
CONTINUOUS
10
6.25957
20
-3.4905
11
6.26614
21
-3.48976
0
LINE
8
BLACK
6
CONTINUOUS
10
6.26614
20
-3.48976
11
6.27271
21
-3.4905
0
LINE
8
BLACK
6
CONTINUOUS
10
6.37271
20
-3.4405
11
6.37895
21
-3.44269
0
LINE
8
BLACK
6
CONTINUOUS
10
6.37895
20
-3.44269
11
6.38455
21
-3.44621
0
LINE
8
BLACK
6
CONTINUOUS
10
6.38455
20
-3.44621
11
6.38923
21
-3.45088
0
LINE
8
BLACK
6
CONTINUOUS
10
6.38923
20
-3.45088
11
6.39275
21
-3.45648
0
LINE
8
BLACK
6
CONTINUOUS
10
6.39275
20
-3.45648
11
6.39493
21
-3.46272
0
LINE
8
BLACK
6
CONTINUOUS
10
6.39493
20
-3.46272
11
6.39567
21
-3.46929
0
LINE
8
BLACK
6
CONTINUOUS
10
6.39567
20
-3.46929
11
6.39493
21
-3.47586
0
LINE
8
BLACK
6
CONTINUOUS
10
6.39493
20
-3.47586
11
6.39275
21
-3.4821
0
LINE
8
BLACK
6
CONTINUOUS
10
6.39275
20
-3.4821
11
6.38923
21
-3.4877
0
LINE
8
BLACK
6
CONTINUOUS
10
6.38923
20
-3.4877
11
6.38455
21
-3.49238
0
LINE
8
BLACK
6
CONTINUOUS
10
6.38455
20
-3.49238
11
6.37895
21
-3.49589
0
LINE
8
BLACK
6
CONTINUOUS
10
6.37895
20
-3.49589
11
6.37271
21
-3.49808
0
LINE
8
BLACK
6
CONTINUOUS
10
6.37271
20
-3.49808
11
6.36614
21
-3.49882
0
LINE
8
BLACK
6
CONTINUOUS
10
6.36614
20
-3.49882
11
6.35957
21
-3.49808
0
LINE
8
BLACK
6
CONTINUOUS
10
6.35957
20
-3.49808
11
6.35333
21
-3.49589
0
LINE
8
BLACK
6
CONTINUOUS
10
6.35333
20
-3.49589
11
6.34773
21
-3.49238
0
LINE
8
BLACK
6
CONTINUOUS
10
6.34773
20
-3.49238
11
6.34306
21
-3.4877
0
LINE
8
BLACK
6
CONTINUOUS
10
6.34306
20
-3.4877
11
6.33954
21
-3.4821
0
LINE
8
BLACK
6
CONTINUOUS
10
6.33954
20
-3.4821
11
6.33735
21
-3.47586
0
LINE
8
BLACK
6
CONTINUOUS
10
6.33735
20
-3.47586
11
6.33661
21
-3.46929
0
LINE
8
BLACK
6
CONTINUOUS
10
6.33661
20
-3.46929
11
6.33735
21
-3.46272
0
LINE
8
BLACK
6
CONTINUOUS
10
6.33735
20
-3.46272
11
6.33954
21
-3.45648
0
LINE
8
BLACK
6
CONTINUOUS
10
6.33954
20
-3.45648
11
6.34306
21
-3.45088
0
LINE
8
BLACK
6
CONTINUOUS
10
6.34306
20
-3.45088
11
6.34773
21
-3.44621
0
LINE
8
BLACK
6
CONTINUOUS
10
6.34773
20
-3.44621
11
6.35333
21
-3.44269
0
LINE
8
BLACK
6
CONTINUOUS
10
6.35333
20
-3.44269
11
6.35957
21
-3.4405
0
LINE
8
BLACK
6
CONTINUOUS
10
6.35957
20
-3.4405
11
6.36614
21
-3.43976
0
LINE
8
BLACK
6
CONTINUOUS
10
6.36614
20
-3.43976
11
6.37271
21
-3.4405
0
LINE
8
BLACK
6
CONTINUOUS
10
6.27271
20
-3.3905
11
6.27895
21
-3.39269
0
LINE
8
BLACK
6
CONTINUOUS
10
6.27895
20
-3.39269
11
6.28455
21
-3.39621
0
LINE
8
BLACK
6
CONTINUOUS
10
6.28455
20
-3.39621
11
6.28923
21
-3.40088
0
LINE
8
BLACK
6
CONTINUOUS
10
6.28923
20
-3.40088
11
6.29275
21
-3.40648
0
LINE
8
BLACK
6
CONTINUOUS
10
6.29275
20
-3.40648
11
6.29493
21
-3.41272
0
LINE
8
BLACK
6
CONTINUOUS
10
6.29493
20
-3.41272
11
6.29567
21
-3.41929
0
LINE
8
BLACK
6
CONTINUOUS
10
6.29567
20
-3.41929
11
6.29493
21
-3.42586
0
LINE
8
BLACK
6
CONTINUOUS
10
6.29493
20
-3.42586
11
6.29275
21
-3.4321
0
LINE
8
BLACK
6
CONTINUOUS
10
6.29275
20
-3.4321
11
6.28923
21
-3.4377
0
LINE
8
BLACK
6
CONTINUOUS
10
6.28923
20
-3.4377
11
6.28455
21
-3.44238
0
LINE
8
BLACK
6
CONTINUOUS
10
6.28455
20
-3.44238
11
6.27895
21
-3.44589
0
LINE
8
BLACK
6
CONTINUOUS
10
6.27895
20
-3.44589
11
6.27271
21
-3.44808
0
LINE
8
BLACK
6
CONTINUOUS
10
6.27271
20
-3.44808
11
6.26614
21
-3.44882
0
LINE
8
BLACK
6
CONTINUOUS
10
6.26614
20
-3.44882
11
6.25957
21
-3.44808
0
LINE
8
BLACK
6
CONTINUOUS
10
6.25957
20
-3.44808
11
6.25333
21
-3.44589
0
LINE
8
BLACK
6
CONTINUOUS
10
6.25333
20
-3.44589
11
6.24773
21
-3.44238
0
LINE
8
BLACK
6
CONTINUOUS
10
6.24773
20
-3.44238
11
6.24306
21
-3.4377
0
LINE
8
BLACK
6
CONTINUOUS
10
6.24306
20
-3.4377
11
6.23954
21
-3.4321
0
LINE
8
BLACK
6
CONTINUOUS
10
6.23954
20
-3.4321
11
6.23735
21
-3.42586
0
LINE
8
BLACK
6
CONTINUOUS
10
6.23735
20
-3.42586
11
6.23661
21
-3.41929
0
LINE
8
BLACK
6
CONTINUOUS
10
6.23661
20
-3.41929
11
6.23735
21
-3.41272
0
LINE
8
BLACK
6
CONTINUOUS
10
6.23735
20
-3.41272
11
6.23954
21
-3.40648
0
LINE
8
BLACK
6
CONTINUOUS
10
6.23954
20
-3.40648
11
6.24306
21
-3.40088
0
LINE
8
BLACK
6
CONTINUOUS
10
6.24306
20
-3.40088
11
6.24773
21
-3.39621
0
LINE
8
BLACK
6
CONTINUOUS
10
6.24773
20
-3.39621
11
6.25333
21
-3.39269
0
LINE
8
BLACK
6
CONTINUOUS
10
6.25333
20
-3.39269
11
6.25957
21
-3.3905
0
LINE
8
BLACK
6
CONTINUOUS
10
6.25957
20
-3.3905
11
6.26614
21
-3.38976
0
LINE
8
BLACK
6
CONTINUOUS
10
6.26614
20
-3.38976
11
6.27271
21
-3.3905
0
LINE
8
BLACK
6
CONTINUOUS
10
5.0814
20
-3.37514
11
5.0848
21
-3.378
0
LINE
8
BLACK
6
CONTINUOUS
10
5.0848
20
-3.378
11
5.08702
21
-3.38184
0
LINE
8
BLACK
6
CONTINUOUS
10
5.08702
20
-3.38184
11
5.0878
21
-3.38622
0
LINE
8
BLACK
6
CONTINUOUS
10
5.0878
20
-3.38622
11
5.08702
21
-3.3906
0
LINE
8
BLACK
6
CONTINUOUS
10
5.08702
20
-3.3906
11
5.0848
21
-3.39445
0
LINE
8
BLACK
6
CONTINUOUS
10
5.0848
20
-3.39445
11
5.0814
21
-3.3973
0
LINE
8
BLACK
6
CONTINUOUS
10
5.0814
20
-3.3973
11
5.07722
21
-3.39882
0
LINE
8
BLACK
6
CONTINUOUS
10
5.07722
20
-3.39882
11
5.07278
21
-3.39882
0
LINE
8
BLACK
6
CONTINUOUS
10
5.07278
20
-3.39882
11
5.0686
21
-3.3973
0
LINE
8
BLACK
6
CONTINUOUS
10
5.0686
20
-3.3973
11
5.0652
21
-3.39445
0
LINE
8
BLACK
6
CONTINUOUS
10
5.0652
20
-3.39445
11
5.06298
21
-3.3906
0
LINE
8
BLACK
6
CONTINUOUS
10
5.06298
20
-3.3906
11
5.0622
21
-3.38622
0
LINE
8
BLACK
6
CONTINUOUS
10
5.0622
20
-3.38622
11
5.06298
21
-3.38184
0
LINE
8
BLACK
6
CONTINUOUS
10
5.06298
20
-3.38184
11
5.0652
21
-3.378
0
LINE
8
BLACK
6
CONTINUOUS
10
5.0652
20
-3.378
11
5.0686
21
-3.37514
0
LINE
8
BLACK
6
CONTINUOUS
10
5.0686
20
-3.37514
11
5.07278
21
-3.37362
0
LINE
8
BLACK
6
CONTINUOUS
10
5.07278
20
-3.37362
11
5.07722
21
-3.37362
0
LINE
8
BLACK
6
CONTINUOUS
10
5.07722
20
-3.37362
11
5.0814
21
-3.37514
0
LINE
8
BLACK
6
CONTINUOUS
10
6.37271
20
-3.3405
11
6.37895
21
-3.34269
0
LINE
8
BLACK
6
CONTINUOUS
10
6.37895
20
-3.34269
11
6.38455
21
-3.34621
0
LINE
8
BLACK
6
CONTINUOUS
10
6.38455
20
-3.34621
11
6.38923
21
-3.35088
0
LINE
8
BLACK
6
CONTINUOUS
10
6.38923
20
-3.35088
11
6.39275
21
-3.35648
0
LINE
8
BLACK
6
CONTINUOUS
10
6.39275
20
-3.35648
11
6.39493
21
-3.36272
0
LINE
8
BLACK
6
CONTINUOUS
10
6.39493
20
-3.36272
11
6.39567
21
-3.36929
0
LINE
8
BLACK
6
CONTINUOUS
10
6.39567
20
-3.36929
11
6.39493
21
-3.37586
0
LINE
8
BLACK
6
CONTINUOUS
10
6.39493
20
-3.37586
11
6.39275
21
-3.3821
0
LINE
8
BLACK
6
CONTINUOUS
10
6.39275
20
-3.3821
11
6.38923
21
-3.3877
0
LINE
8
BLACK
6
CONTINUOUS
10
6.38923
20
-3.3877
11
6.38455
21
-3.39238
0
LINE
8
BLACK
6
CONTINUOUS
10
6.38455
20
-3.39238
11
6.37895
21
-3.39589
0
LINE
8
BLACK
6
CONTINUOUS
10
6.37895
20
-3.39589
11
6.37271
21
-3.39808
0
LINE
8
BLACK
6
CONTINUOUS
10
6.37271
20
-3.39808
11
6.36614
21
-3.39882
0
LINE
8
BLACK
6
CONTINUOUS
10
6.36614
20
-3.39882
11
6.35957
21
-3.39808
0
LINE
8
BLACK
6
CONTINUOUS
10
6.35957
20
-3.39808
11
6.35333
21
-3.39589
0
LINE
8
BLACK
6
CONTINUOUS
10
6.35333
20
-3.39589
11
6.34773
21
-3.39238
0
LINE
8
BLACK
6
CONTINUOUS
10
6.34773
20
-3.39238
11
6.34306
21
-3.3877
0
LINE
8
BLACK
6
CONTINUOUS
10
6.34306
20
-3.3877
11
6.33954
21
-3.3821
0
LINE
8
BLACK
6
CONTINUOUS
10
6.33954
20
-3.3821
11
6.33735
21
-3.37586
0
LINE
8
BLACK
6
CONTINUOUS
10
6.33735
20
-3.37586
11
6.33661
21
-3.36929
0
LINE
8
BLACK
6
CONTINUOUS
10
6.33661
20
-3.36929
11
6.33735
21
-3.36272
0
LINE
8
BLACK
6
CONTINUOUS
10
6.33735
20
-3.36272
11
6.33954
21
-3.35648
0
LINE
8
BLACK
6
CONTINUOUS
10
6.33954
20
-3.35648
11
6.34306
21
-3.35088
0
LINE
8
BLACK
6
CONTINUOUS
10
6.34306
20
-3.35088
11
6.34773
21
-3.34621
0
LINE
8
BLACK
6
CONTINUOUS
10
6.34773
20
-3.34621
11
6.35333
21
-3.34269
0
LINE
8
BLACK
6
CONTINUOUS
10
6.35333
20
-3.34269
11
6.35957
21
-3.3405
0
LINE
8
BLACK
6
CONTINUOUS
10
6.35957
20
-3.3405
11
6.36614
21
-3.33976
0
LINE
8
BLACK
6
CONTINUOUS
10
6.36614
20
-3.33976
11
6.37271
21
-3.3405
0
LINE
8
BLACK
6
CONTINUOUS
10
6.27271
20
-3.2905
11
6.27895
21
-3.29269
0
LINE
8
BLACK
6
CONTINUOUS
10
6.27895
20
-3.29269
11
6.28455
21
-3.29621
0
LINE
8
BLACK
6
CONTINUOUS
10
6.28455
20
-3.29621
11
6.28923
21
-3.30088
0
LINE
8
BLACK
6
CONTINUOUS
10
6.28923
20
-3.30088
11
6.29275
21
-3.30648
0
LINE
8
BLACK
6
CONTINUOUS
10
6.29275
20
-3.30648
11
6.29493
21
-3.31272
0
LINE
8
BLACK
6
CONTINUOUS
10
6.29493
20
-3.31272
11
6.29567
21
-3.31929
0
LINE
8
BLACK
6
CONTINUOUS
10
6.29567
20
-3.31929
11
6.29493
21
-3.32586
0
LINE
8
BLACK
6
CONTINUOUS
10
6.29493
20
-3.32586
11
6.29275
21
-3.3321
0
LINE
8
BLACK
6
CONTINUOUS
10
6.29275
20
-3.3321
11
6.28923
21
-3.3377
0
LINE
8
BLACK
6
CONTINUOUS
10
6.28923
20
-3.3377
11
6.28455
21
-3.34238
0
LINE
8
BLACK
6
CONTINUOUS
10
6.28455
20
-3.34238
11
6.27895
21
-3.34589
0
LINE
8
BLACK
6
CONTINUOUS
10
6.27895
20
-3.34589
11
6.27271
21
-3.34808
0
LINE
8
BLACK
6
CONTINUOUS
10
6.27271
20
-3.34808
11
6.26614
21
-3.34882
0
LINE
8
BLACK
6
CONTINUOUS
10
6.26614
20
-3.34882
11
6.25957
21
-3.34808
0
LINE
8
BLACK
6
CONTINUOUS
10
6.25957
20
-3.34808
11
6.25333
21
-3.34589
0
LINE
8
BLACK
6
CONTINUOUS
10
6.25333
20
-3.34589
11
6.24773
21
-3.34238
0
LINE
8
BLACK
6
CONTINUOUS
10
6.24773
20
-3.34238
11
6.24306
21
-3.3377
0
LINE
8
BLACK
6
CONTINUOUS
10
6.24306
20
-3.3377
11
6.23954
21
-3.3321
0
LINE
8
BLACK
6
CONTINUOUS
10
6.23954
20
-3.3321
11
6.23735
21
-3.32586
0
LINE
8
BLACK
6
CONTINUOUS
10
6.23735
20
-3.32586
11
6.23661
21
-3.31929
0
LINE
8
BLACK
6
CONTINUOUS
10
6.23661
20
-3.31929
11
6.23735
21
-3.31272
0
LINE
8
BLACK
6
CONTINUOUS
10
6.23735
20
-3.31272
11
6.23954
21
-3.30648
0
LINE
8
BLACK
6
CONTINUOUS
10
6.23954
20
-3.30648
11
6.24306
21
-3.30088
0
LINE
8
BLACK
6
CONTINUOUS
10
6.24306
20
-3.30088
11
6.24773
21
-3.29621
0
LINE
8
BLACK
6
CONTINUOUS
10
6.24773
20
-3.29621
11
6.25333
21
-3.29269
0
LINE
8
BLACK
6
CONTINUOUS
10
6.25333
20
-3.29269
11
6.25957
21
-3.2905
0
LINE
8
BLACK
6
CONTINUOUS
10
6.25957
20
-3.2905
11
6.26614
21
-3.28976
0
LINE
8
BLACK
6
CONTINUOUS
10
6.26614
20
-3.28976
11
6.27271
21
-3.2905
0
LINE
8
BLACK
6
CONTINUOUS
10
4.95402
20
-3.3124
11
4.95906
21
-3.31396
0
LINE
8
BLACK
6
CONTINUOUS
10
4.95906
20
-3.31396
11
4.96343
21
-3.31693
0
LINE
8
BLACK
6
CONTINUOUS
10
4.96343
20
-3.31693
11
4.96672
21
-3.32106
0
LINE
8
BLACK
6
CONTINUOUS
10
4.96672
20
-3.32106
11
4.96865
21
-3.32598
0
LINE
8
BLACK
6
CONTINUOUS
10
4.96865
20
-3.32598
11
4.96904
21
-3.33125
0
LINE
8
BLACK
6
CONTINUOUS
10
4.96904
20
-3.33125
11
4.96787
21
-3.33639
0
LINE
8
BLACK
6
CONTINUOUS
10
4.96787
20
-3.33639
11
4.96523
21
-3.34097
0
LINE
8
BLACK
6
CONTINUOUS
10
4.96523
20
-3.34097
11
4.96136
21
-3.34456
0
LINE
8
BLACK
6
CONTINUOUS
10
4.96136
20
-3.34456
11
4.9566
21
-3.34685
0
LINE
8
BLACK
6
CONTINUOUS
10
4.9566
20
-3.34685
11
4.95138
21
-3.34764
0
LINE
8
BLACK
6
CONTINUOUS
10
4.95138
20
-3.34764
11
4.90807
21
-3.34764
0
LINE
8
BLACK
6
CONTINUOUS
10
4.90807
20
-3.34764
11
4.90543
21
-3.34744
0
LINE
8
BLACK
6
CONTINUOUS
10
4.90543
20
-3.34744
11
4.90038
21
-3.34588
0
LINE
8
BLACK
6
CONTINUOUS
10
4.90038
20
-3.34588
11
4.89602
21
-3.34291
0
LINE
8
BLACK
6
CONTINUOUS
10
4.89602
20
-3.34291
11
4.89273
21
-3.33878
0
LINE
8
BLACK
6
CONTINUOUS
10
4.89273
20
-3.33878
11
4.8908
21
-3.33386
0
LINE
8
BLACK
6
CONTINUOUS
10
4.8908
20
-3.33386
11
4.8904
21
-3.3286
0
LINE
8
BLACK
6
CONTINUOUS
10
4.8904
20
-3.3286
11
4.89158
21
-3.32345
0
LINE
8
BLACK
6
CONTINUOUS
10
4.89158
20
-3.32345
11
4.89422
21
-3.31888
0
LINE
8
BLACK
6
CONTINUOUS
10
4.89422
20
-3.31888
11
4.89809
21
-3.31528
0
LINE
8
BLACK
6
CONTINUOUS
10
4.89809
20
-3.31528
11
4.90285
21
-3.31299
0
LINE
8
BLACK
6
CONTINUOUS
10
4.90285
20
-3.31299
11
4.90807
21
-3.3122
0
LINE
8
BLACK
6
CONTINUOUS
10
4.90807
20
-3.3122
11
4.95138
21
-3.3122
0
LINE
8
BLACK
6
CONTINUOUS
10
4.95138
20
-3.3122
11
4.95402
21
-3.3124
0
LINE
8
BLACK
6
CONTINUOUS
10
5.12016
20
-3.3124
11
5.12521
21
-3.31396
0
LINE
8
BLACK
6
CONTINUOUS
10
5.12521
20
-3.31396
11
5.12957
21
-3.31693
0
LINE
8
BLACK
6
CONTINUOUS
10
5.12957
20
-3.31693
11
5.13286
21
-3.32106
0
LINE
8
BLACK
6
CONTINUOUS
10
5.13286
20
-3.32106
11
5.13479
21
-3.32598
0
LINE
8
BLACK
6
CONTINUOUS
10
5.13479
20
-3.32598
11
5.13519
21
-3.33125
0
LINE
8
BLACK
6
CONTINUOUS
10
5.13519
20
-3.33125
11
5.13401
21
-3.33639
0
LINE
8
BLACK
6
CONTINUOUS
10
5.13401
20
-3.33639
11
5.13137
21
-3.34097
0
LINE
8
BLACK
6
CONTINUOUS
10
5.13137
20
-3.34097
11
5.1275
21
-3.34456
0
LINE
8
BLACK
6
CONTINUOUS
10
5.1275
20
-3.34456
11
5.12274
21
-3.34685
0
LINE
8
BLACK
6
CONTINUOUS
10
5.12274
20
-3.34685
11
5.11752
21
-3.34764
0
LINE
8
BLACK
6
CONTINUOUS
10
5.11752
20
-3.34764
11
5.07028
21
-3.34764
0
LINE
8
BLACK
6
CONTINUOUS
10
5.07028
20
-3.34764
11
5.06764
21
-3.34744
0
LINE
8
BLACK
6
CONTINUOUS
10
5.06764
20
-3.34744
11
5.06259
21
-3.34588
0
LINE
8
BLACK
6
CONTINUOUS
10
5.06259
20
-3.34588
11
5.05823
21
-3.34291
0
LINE
8
BLACK
6
CONTINUOUS
10
5.05823
20
-3.34291
11
5.05493
21
-3.33878
0
LINE
8
BLACK
6
CONTINUOUS
10
5.05493
20
-3.33878
11
5.053
21
-3.33386
0
LINE
8
BLACK
6
CONTINUOUS
10
5.053
20
-3.33386
11
5.05261
21
-3.3286
0
LINE
8
BLACK
6
CONTINUOUS
10
5.05261
20
-3.3286
11
5.05378
21
-3.32345
0
LINE
8
BLACK
6
CONTINUOUS
10
5.05378
20
-3.32345
11
5.05642
21
-3.31888
0
LINE
8
BLACK
6
CONTINUOUS
10
5.05642
20
-3.31888
11
5.0603
21
-3.31528
0
LINE
8
BLACK
6
CONTINUOUS
10
5.0603
20
-3.31528
11
5.06505
21
-3.31299
0
LINE
8
BLACK
6
CONTINUOUS
10
5.06505
20
-3.31299
11
5.07028
21
-3.3122
0
LINE
8
BLACK
6
CONTINUOUS
10
5.07028
20
-3.3122
11
5.11752
21
-3.3122
0
LINE
8
BLACK
6
CONTINUOUS
10
5.11752
20
-3.3122
11
5.12016
21
-3.3124
0
LINE
8
BLACK
6
CONTINUOUS
10
6.63213
20
-3.19924
11
6.64239
21
-3.20241
0
LINE
8
BLACK
6
CONTINUOUS
10
6.64239
20
-3.20241
11
6.65207
21
-3.20707
0
LINE
8
BLACK
6
CONTINUOUS
10
6.65207
20
-3.20707
11
6.66094
21
-3.21312
0
LINE
8
BLACK
6
CONTINUOUS
10
6.66094
20
-3.21312
11
6.66881
21
-3.22042
0
LINE
8
BLACK
6
CONTINUOUS
10
6.66881
20
-3.22042
11
6.67551
21
-3.22882
0
LINE
8
BLACK
6
CONTINUOUS
10
6.67551
20
-3.22882
11
6.68088
21
-3.23812
0
LINE
8
BLACK
6
CONTINUOUS
10
6.68088
20
-3.23812
11
6.6848
21
-3.24811
0
LINE
8
BLACK
6
CONTINUOUS
10
6.6848
20
-3.24811
11
6.68719
21
-3.25858
0
LINE
8
BLACK
6
CONTINUOUS
10
6.68719
20
-3.25858
11
6.68799
21
-3.26929
0
LINE
8
BLACK
6
CONTINUOUS
10
6.68799
20
-3.26929
11
6.68719
21
-3.28
0
LINE
8
BLACK
6
CONTINUOUS
10
6.68719
20
-3.28
11
6.6848
21
-3.29047
0
LINE
8
BLACK
6
CONTINUOUS
10
6.6848
20
-3.29047
11
6.68088
21
-3.30047
0
LINE
8
BLACK
6
CONTINUOUS
10
6.68088
20
-3.30047
11
6.67551
21
-3.30977
0
LINE
8
BLACK
6
CONTINUOUS
10
6.67551
20
-3.30977
11
6.66881
21
-3.31816
0
LINE
8
BLACK
6
CONTINUOUS
10
6.66881
20
-3.31816
11
6.66094
21
-3.32547
0
LINE
8
BLACK
6
CONTINUOUS
10
6.66094
20
-3.32547
11
6.65207
21
-3.33152
0
LINE
8
BLACK
6
CONTINUOUS
10
6.65207
20
-3.33152
11
6.64239
21
-3.33617
0
LINE
8
BLACK
6
CONTINUOUS
10
6.64239
20
-3.33617
11
6.63213
21
-3.33934
0
LINE
8
BLACK
6
CONTINUOUS
10
6.63213
20
-3.33934
11
6.62151
21
-3.34094
0
LINE
8
BLACK
6
CONTINUOUS
10
6.62151
20
-3.34094
11
6.61077
21
-3.34094
0
LINE
8
BLACK
6
CONTINUOUS
10
6.61077
20
-3.34094
11
6.60015
21
-3.33934
0
LINE
8
BLACK
6
CONTINUOUS
10
6.60015
20
-3.33934
11
6.58989
21
-3.33617
0
LINE
8
BLACK
6
CONTINUOUS
10
6.58989
20
-3.33617
11
6.58022
21
-3.33152
0
LINE
8
BLACK
6
CONTINUOUS
10
6.58022
20
-3.33152
11
6.57134
21
-3.32547
0
LINE
8
BLACK
6
CONTINUOUS
10
6.57134
20
-3.32547
11
6.56347
21
-3.31816
0
LINE
8
BLACK
6
CONTINUOUS
10
6.56347
20
-3.31816
11
6.55678
21
-3.30977
0
LINE
8
BLACK
6
CONTINUOUS
10
6.55678
20
-3.30977
11
6.55141
21
-3.30047
0
LINE
8
BLACK
6
CONTINUOUS
10
6.55141
20
-3.30047
11
6.54748
21
-3.29047
0
LINE
8
BLACK
6
CONTINUOUS
10
6.54748
20
-3.29047
11
6.54509
21
-3.28
0
LINE
8
BLACK
6
CONTINUOUS
10
6.54509
20
-3.28
11
6.54429
21
-3.26929
0
LINE
8
BLACK
6
CONTINUOUS
10
6.54429
20
-3.26929
11
6.54509
21
-3.25858
0
LINE
8
BLACK
6
CONTINUOUS
10
6.54509
20
-3.25858
11
6.54748
21
-3.24811
0
LINE
8
BLACK
6
CONTINUOUS
10
6.54748
20
-3.24811
11
6.55141
21
-3.23812
0
LINE
8
BLACK
6
CONTINUOUS
10
6.55141
20
-3.23812
11
6.55678
21
-3.22882
0
LINE
8
BLACK
6
CONTINUOUS
10
6.55678
20
-3.22882
11
6.56347
21
-3.22042
0
LINE
8
BLACK
6
CONTINUOUS
10
6.56347
20
-3.22042
11
6.57134
21
-3.21312
0
LINE
8
BLACK
6
CONTINUOUS
10
6.57134
20
-3.21312
11
6.58022
21
-3.20707
0
LINE
8
BLACK
6
CONTINUOUS
10
6.58022
20
-3.20707
11
6.58989
21
-3.20241
0
LINE
8
BLACK
6
CONTINUOUS
10
6.58989
20
-3.20241
11
6.60015
21
-3.19924
0
LINE
8
BLACK
6
CONTINUOUS
10
6.60015
20
-3.19924
11
6.61077
21
-3.19764
0
LINE
8
BLACK
6
CONTINUOUS
10
6.61077
20
-3.19764
11
6.62151
21
-3.19764
0
LINE
8
BLACK
6
CONTINUOUS
10
6.62151
20
-3.19764
11
6.63213
21
-3.19924
0
LINE
8
BLACK
6
CONTINUOUS
10
5.05819
20
-3.16315
11
5.06496
21
-3.16616
0
LINE
8
BLACK
6
CONTINUOUS
10
5.06496
20
-3.16616
11
5.07095
21
-3.17052
0
LINE
8
BLACK
6
CONTINUOUS
10
5.07095
20
-3.17052
11
5.07591
21
-3.17602
0
LINE
8
BLACK
6
CONTINUOUS
10
5.07591
20
-3.17602
11
5.07961
21
-3.18244
0
LINE
8
BLACK
6
CONTINUOUS
10
5.07961
20
-3.18244
11
5.0819
21
-3.18948
0
LINE
8
BLACK
6
CONTINUOUS
10
5.0819
20
-3.18948
11
5.08268
21
-3.19685
0
LINE
8
BLACK
6
CONTINUOUS
10
5.08268
20
-3.19685
11
5.08268
21
-3.22047
0
LINE
8
BLACK
6
CONTINUOUS
10
5.08268
20
-3.22047
11
5.0819
21
-3.22784
0
LINE
8
BLACK
6
CONTINUOUS
10
5.0819
20
-3.22784
11
5.07961
21
-3.23488
0
LINE
8
BLACK
6
CONTINUOUS
10
5.07961
20
-3.23488
11
5.07591
21
-3.2413
0
LINE
8
BLACK
6
CONTINUOUS
10
5.07591
20
-3.2413
11
5.07095
21
-3.2468
0
LINE
8
BLACK
6
CONTINUOUS
10
5.07095
20
-3.2468
11
5.06496
21
-3.25116
0
LINE
8
BLACK
6
CONTINUOUS
10
5.06496
20
-3.25116
11
5.05819
21
-3.25417
0
LINE
8
BLACK
6
CONTINUOUS
10
5.05819
20
-3.25417
11
5.05095
21
-3.25571
0
LINE
8
BLACK
6
CONTINUOUS
10
5.05095
20
-3.25571
11
5.04354
21
-3.25571
0
LINE
8
BLACK
6
CONTINUOUS
10
5.04354
20
-3.25571
11
5.03629
21
-3.25417
0
LINE
8
BLACK
6
CONTINUOUS
10
5.03629
20
-3.25417
11
5.02953
21
-3.25116
0
LINE
8
BLACK
6
CONTINUOUS
10
5.02953
20
-3.25116
11
5.02353
21
-3.2468
0
LINE
8
BLACK
6
CONTINUOUS
10
5.02353
20
-3.2468
11
5.01858
21
-3.2413
0
LINE
8
BLACK
6
CONTINUOUS
10
5.01858
20
-3.2413
11
5.01487
21
-3.23488
0
LINE
8
BLACK
6
CONTINUOUS
10
5.01487
20
-3.23488
11
5.01259
21
-3.22784
0
LINE
8
BLACK
6
CONTINUOUS
10
5.01259
20
-3.22784
11
5.01181
21
-3.22047
0
LINE
8
BLACK
6
CONTINUOUS
10
5.01181
20
-3.22047
11
5.01181
21
-3.19685
0
LINE
8
BLACK
6
CONTINUOUS
10
5.01181
20
-3.19685
11
5.01259
21
-3.18948
0
LINE
8
BLACK
6
CONTINUOUS
10
5.01259
20
-3.18948
11
5.01487
21
-3.18244
0
LINE
8
BLACK
6
CONTINUOUS
10
5.01487
20
-3.18244
11
5.01858
21
-3.17602
0
LINE
8
BLACK
6
CONTINUOUS
10
5.01858
20
-3.17602
11
5.02353
21
-3.17052
0
LINE
8
BLACK
6
CONTINUOUS
10
5.02353
20
-3.17052
11
5.02953
21
-3.16616
0
LINE
8
BLACK
6
CONTINUOUS
10
5.02953
20
-3.16616
11
5.03629
21
-3.16315
0
LINE
8
BLACK
6
CONTINUOUS
10
5.03629
20
-3.16315
11
5.04354
21
-3.16161
0
LINE
8
BLACK
6
CONTINUOUS
10
5.04354
20
-3.16161
11
5.05095
21
-3.16161
0
LINE
8
BLACK
6
CONTINUOUS
10
5.05095
20
-3.16161
11
5.05819
21
-3.16315
0
LINE
8
BLACK
6
CONTINUOUS
10
6.1015
20
-3.16315
11
6.10827
21
-3.16616
0
LINE
8
BLACK
6
CONTINUOUS
10
6.10827
20
-3.16616
11
6.11426
21
-3.17052
0
LINE
8
BLACK
6
CONTINUOUS
10
6.11426
20
-3.17052
11
6.11922
21
-3.17602
0
LINE
8
BLACK
6
CONTINUOUS
10
6.11922
20
-3.17602
11
6.12292
21
-3.18244
0
LINE
8
BLACK
6
CONTINUOUS
10
6.12292
20
-3.18244
11
6.12521
21
-3.18948
0
LINE
8
BLACK
6
CONTINUOUS
10
6.12521
20
-3.18948
11
6.12598
21
-3.19685
0
LINE
8
BLACK
6
CONTINUOUS
10
6.12598
20
-3.19685
11
6.12598
21
-3.22047
0
LINE
8
BLACK
6
CONTINUOUS
10
6.12598
20
-3.22047
11
6.12521
21
-3.22784
0
LINE
8
BLACK
6
CONTINUOUS
10
6.12521
20
-3.22784
11
6.12292
21
-3.23488
0
LINE
8
BLACK
6
CONTINUOUS
10
6.12292
20
-3.23488
11
6.11922
21
-3.2413
0
LINE
8
BLACK
6
CONTINUOUS
10
6.11922
20
-3.2413
11
6.11426
21
-3.2468
0
LINE
8
BLACK
6
CONTINUOUS
10
6.11426
20
-3.2468
11
6.10827
21
-3.25116
0
LINE
8
BLACK
6
CONTINUOUS
10
6.10827
20
-3.25116
11
6.1015
21
-3.25417
0
LINE
8
BLACK
6
CONTINUOUS
10
6.1015
20
-3.25417
11
6.09425
21
-3.25571
0
LINE
8
BLACK
6
CONTINUOUS
10
6.09425
20
-3.25571
11
6.08685
21
-3.25571
0
LINE
8
BLACK
6
CONTINUOUS
10
6.08685
20
-3.25571
11
6.0796
21
-3.25417
0
LINE
8
BLACK
6
CONTINUOUS
10
6.0796
20
-3.25417
11
6.07283
21
-3.25116
0
LINE
8
BLACK
6
CONTINUOUS
10
6.07283
20
-3.25116
11
6.06684
21
-3.2468
0
LINE
8
BLACK
6
CONTINUOUS
10
6.06684
20
-3.2468
11
6.06189
21
-3.2413
0
LINE
8
BLACK
6
CONTINUOUS
10
6.06189
20
-3.2413
11
6.05818
21
-3.23488
0
LINE
8
BLACK
6
CONTINUOUS
10
6.05818
20
-3.23488
11
6.05589
21
-3.22784
0
LINE
8
BLACK
6
CONTINUOUS
10
6.05589
20
-3.22784
11
6.05512
21
-3.22047
0
LINE
8
BLACK
6
CONTINUOUS
10
6.05512
20
-3.22047
11
6.05512
21
-3.19685
0
LINE
8
BLACK
6
CONTINUOUS
10
6.05512
20
-3.19685
11
6.05589
21
-3.18948
0
LINE
8
BLACK
6
CONTINUOUS
10
6.05589
20
-3.18948
11
6.05818
21
-3.18244
0
LINE
8
BLACK
6
CONTINUOUS
10
6.05818
20
-3.18244
11
6.06189
21
-3.17602
0
LINE
8
BLACK
6
CONTINUOUS
10
6.06189
20
-3.17602
11
6.06684
21
-3.17052
0
LINE
8
BLACK
6
CONTINUOUS
10
6.06684
20
-3.17052
11
6.07283
21
-3.16616
0
LINE
8
BLACK
6
CONTINUOUS
10
6.07283
20
-3.16616
11
6.0796
21
-3.16315
0
LINE
8
BLACK
6
CONTINUOUS
10
6.0796
20
-3.16315
11
6.08685
21
-3.16161
0
LINE
8
BLACK
6
CONTINUOUS
10
6.08685
20
-3.16161
11
6.09425
21
-3.16161
0
LINE
8
BLACK
6
CONTINUOUS
10
6.09425
20
-3.16161
11
6.1015
21
-3.16315
  0
ENDSEC
  0
EOF
