  0
SECTION
  2
HEADER
  9
$ANGBASE
  50
0.0
  9
$ANGDIR
  70
1
  9
$MEASUREMENT
  70
0
  0
ENDSEC
  0
SECTION
  2
TABLES
  0
TABLE
  2
LTYPE
  70
4
  0
LTYPE
  5
40F
  2
CONTINUOUS
  70
0
  3
Solid line
  72
65
  73
0
  40
0.0
  0
LTYPE
  5
410
  2
DASHDOT
 70
0
  3
Dash Dot ____ _ ____ _
 72
65
 73
4
 40
2.0
 49
1.25
 49
-0.25
 49
0.25
 49
-0.25
  0
LTYPE
  5
411
  2
DASHED
 70
0
  3
Dashed __ __ __ __ __
 72
65
 73
2
 40
0.75
 49
0.5
 49
-0.25
  0
LTYPE
  5
43B
  2
DOTTED
 70
0
  3
Dotted .  .  .  .
 72
65
 73
2
 40
0.2
 49
0.0
 49
-0.2
  0
ENDTAB
  0
TABLE
  2
STYLE
  70
4
  0
STYLE
  2
KICAD
  70
0
  40
0
  41
1
  42
1
  50
0
  71
0
  3
isocp.shx
  0
STYLE
  2
KICADB
  70
0
  40
0
  41
1
  42
1
  50
0
  71
0
  3
isocp.shx
  0
STYLE
  2
KICADI
  70
0
  40
0
  41
1
  42
1
  50
15
  71
0
  3
isocp.shx
  0
STYLE
  2
KICADBI
  70
0
  40
0
  41
1
  42
1
  50
15
  71
0
  3
isocp.shx
  0
ENDTAB
  0
TABLE
  2
LAYER
  70
1
  0
LAYER
  2
BLACK
  70
0
  62
7
  6
CONTINUOUS
  0
ENDTAB
  0
ENDSEC
  0
SECTION
  2
ENTITIES
0
LINE
8
BLACK
6
CONTINUOUS
10
5.58474
20
-3.86133
11
5.58445
21
-3.86063
0
LINE
8
BLACK
6
CONTINUOUS
10
5.58445
20
-3.86063
11
5.58445
21
-3.74567
0
LINE
8
BLACK
6
CONTINUOUS
10
5.58445
20
-3.74567
11
5.58474
21
-3.74497
0
LINE
8
BLACK
6
CONTINUOUS
10
5.58474
20
-3.74497
11
5.58543
21
-3.74469
0
LINE
8
BLACK
6
CONTINUOUS
10
5.58543
20
-3.74469
11
5.76496
21
-3.74469
0
LINE
8
BLACK
6
CONTINUOUS
10
5.76496
20
-3.74469
11
5.76566
21
-3.74497
0
LINE
8
BLACK
6
CONTINUOUS
10
5.76566
20
-3.74497
11
5.76594
21
-3.74567
0
LINE
8
BLACK
6
CONTINUOUS
10
5.76594
20
-3.74567
11
5.76594
21
-3.86063
0
LINE
8
BLACK
6
CONTINUOUS
10
5.76594
20
-3.86063
11
5.76566
21
-3.86133
0
LINE
8
BLACK
6
CONTINUOUS
10
5.76566
20
-3.86133
11
5.76496
21
-3.86161
0
LINE
8
BLACK
6
CONTINUOUS
10
5.76496
20
-3.86161
11
5.58543
21
-3.86161
0
LINE
8
BLACK
6
CONTINUOUS
10
5.58543
20
-3.86161
11
5.58474
21
-3.86133
0
LINE
8
BLACK
6
CONTINUOUS
10
5.58642
20
-3.74665
11
5.58642
21
-3.85965
0
LINE
8
BLACK
6
CONTINUOUS
10
5.58642
20
-3.85965
11
5.76398
21
-3.85965
0
LINE
8
BLACK
6
CONTINUOUS
10
5.76398
20
-3.85965
11
5.76398
21
-3.74665
0
LINE
8
BLACK
6
CONTINUOUS
10
5.76398
20
-3.74665
11
5.58642
21
-3.74665
0
LINE
8
BLACK
6
CONTINUOUS
10
5.0021
20
-3.8381
11
5.00181
21
-3.8374
0
LINE
8
BLACK
6
CONTINUOUS
10
5.00181
20
-3.8374
11
5.00181
21
-3.7626
0
LINE
8
BLACK
6
CONTINUOUS
10
5.00181
20
-3.7626
11
5.0021
21
-3.7619
0
LINE
8
BLACK
6
CONTINUOUS
10
5.0021
20
-3.7619
11
5.0028
21
-3.76161
0
LINE
8
BLACK
6
CONTINUOUS
10
5.0028
20
-3.76161
11
5.14846
21
-3.76161
0
LINE
8
BLACK
6
CONTINUOUS
10
5.14846
20
-3.76161
11
5.14916
21
-3.7619
0
LINE
8
BLACK
6
CONTINUOUS
10
5.14916
20
-3.7619
11
5.14945
21
-3.7626
0
LINE
8
BLACK
6
CONTINUOUS
10
5.14945
20
-3.7626
11
5.14945
21
-3.8374
0
LINE
8
BLACK
6
CONTINUOUS
10
5.14945
20
-3.8374
11
5.14916
21
-3.8381
0
LINE
8
BLACK
6
CONTINUOUS
10
5.14916
20
-3.8381
11
5.14846
21
-3.83839
0
LINE
8
BLACK
6
CONTINUOUS
10
5.14846
20
-3.83839
11
5.0028
21
-3.83839
0
LINE
8
BLACK
6
CONTINUOUS
10
5.0028
20
-3.83839
11
5.0021
21
-3.8381
0
LINE
8
BLACK
6
CONTINUOUS
10
5.00378
20
-3.76358
11
5.00378
21
-3.83642
0
LINE
8
BLACK
6
CONTINUOUS
10
5.00378
20
-3.83642
11
5.14748
21
-3.83642
0
LINE
8
BLACK
6
CONTINUOUS
10
5.14748
20
-3.83642
11
5.14748
21
-3.76358
0
LINE
8
BLACK
6
CONTINUOUS
10
5.14748
20
-3.76358
11
5.00378
21
-3.76358
0
LINE
8
BLACK
6
CONTINUOUS
10
5.1621
20
-3.8381
11
5.16181
21
-3.8374
0
LINE
8
BLACK
6
CONTINUOUS
10
5.16181
20
-3.8374
11
5.16181
21
-3.7626
0
LINE
8
BLACK
6
CONTINUOUS
10
5.16181
20
-3.7626
11
5.1621
21
-3.7619
0
LINE
8
BLACK
6
CONTINUOUS
10
5.1621
20
-3.7619
11
5.1628
21
-3.76161
0
LINE
8
BLACK
6
CONTINUOUS
10
5.1628
20
-3.76161
11
5.30846
21
-3.76161
0
LINE
8
BLACK
6
CONTINUOUS
10
5.30846
20
-3.76161
11
5.30916
21
-3.7619
0
LINE
8
BLACK
6
CONTINUOUS
10
5.30916
20
-3.7619
11
5.30945
21
-3.7626
0
LINE
8
BLACK
6
CONTINUOUS
10
5.30945
20
-3.7626
11
5.30945
21
-3.8374
0
LINE
8
BLACK
6
CONTINUOUS
10
5.30945
20
-3.8374
11
5.30916
21
-3.8381
0
LINE
8
BLACK
6
CONTINUOUS
10
5.30916
20
-3.8381
11
5.30846
21
-3.83839
0
LINE
8
BLACK
6
CONTINUOUS
10
5.30846
20
-3.83839
11
5.1628
21
-3.83839
0
LINE
8
BLACK
6
CONTINUOUS
10
5.1628
20
-3.83839
11
5.1621
21
-3.8381
0
LINE
8
BLACK
6
CONTINUOUS
10
5.16378
20
-3.76358
11
5.16378
21
-3.83642
0
LINE
8
BLACK
6
CONTINUOUS
10
5.16378
20
-3.83642
11
5.30748
21
-3.83642
0
LINE
8
BLACK
6
CONTINUOUS
10
5.30748
20
-3.83642
11
5.30748
21
-3.76358
0
LINE
8
BLACK
6
CONTINUOUS
10
5.30748
20
-3.76358
11
5.16378
21
-3.76358
0
LINE
8
BLACK
6
CONTINUOUS
10
5.78867
20
-3.83337
11
5.78839
21
-3.83268
0
LINE
8
BLACK
6
CONTINUOUS
10
5.78839
20
-3.83268
11
5.78839
21
-3.75787
0
LINE
8
BLACK
6
CONTINUOUS
10
5.78839
20
-3.75787
11
5.78867
21
-3.75718
0
LINE
8
BLACK
6
CONTINUOUS
10
5.78867
20
-3.75718
11
5.78937
21
-3.75689
0
LINE
8
BLACK
6
CONTINUOUS
10
5.78937
20
-3.75689
11
5.93504
21
-3.75689
0
LINE
8
BLACK
6
CONTINUOUS
10
5.93504
20
-3.75689
11
5.93574
21
-3.75718
0
LINE
8
BLACK
6
CONTINUOUS
10
5.93574
20
-3.75718
11
5.93602
21
-3.75787
0
LINE
8
BLACK
6
CONTINUOUS
10
5.93602
20
-3.75787
11
5.93602
21
-3.83268
0
LINE
8
BLACK
6
CONTINUOUS
10
5.93602
20
-3.83268
11
5.93574
21
-3.83337
0
LINE
8
BLACK
6
CONTINUOUS
10
5.93574
20
-3.83337
11
5.93504
21
-3.83366
0
LINE
8
BLACK
6
CONTINUOUS
10
5.93504
20
-3.83366
11
5.78937
21
-3.83366
0
LINE
8
BLACK
6
CONTINUOUS
10
5.78937
20
-3.83366
11
5.78867
21
-3.83337
0
LINE
8
BLACK
6
CONTINUOUS
10
5.79035
20
-3.75886
11
5.79035
21
-3.83169
0
LINE
8
BLACK
6
CONTINUOUS
10
5.79035
20
-3.83169
11
5.93406
21
-3.83169
0
LINE
8
BLACK
6
CONTINUOUS
10
5.93406
20
-3.83169
11
5.93406
21
-3.75886
0
LINE
8
BLACK
6
CONTINUOUS
10
5.93406
20
-3.75886
11
5.79035
21
-3.75886
0
LINE
8
BLACK
6
CONTINUOUS
10
5.956
20
-3.83337
11
5.95571
21
-3.83268
0
LINE
8
BLACK
6
CONTINUOUS
10
5.95571
20
-3.83268
11
5.95571
21
-3.73425
0
LINE
8
BLACK
6
CONTINUOUS
10
5.95571
20
-3.73425
11
5.956
21
-3.73356
0
LINE
8
BLACK
6
CONTINUOUS
10
5.956
20
-3.73356
11
5.95669
21
-3.73327
0
LINE
8
BLACK
6
CONTINUOUS
10
5.95669
20
-3.73327
11
6.1378
21
-3.73327
0
LINE
8
BLACK
6
CONTINUOUS
10
6.1378
20
-3.73327
11
6.13849
21
-3.73356
0
LINE
8
BLACK
6
CONTINUOUS
10
6.13849
20
-3.73356
11
6.13878
21
-3.73425
0
LINE
8
BLACK
6
CONTINUOUS
10
6.13878
20
-3.73425
11
6.13878
21
-3.83268
0
LINE
8
BLACK
6
CONTINUOUS
10
6.13878
20
-3.83268
11
6.13849
21
-3.83337
0
LINE
8
BLACK
6
CONTINUOUS
10
6.13849
20
-3.83337
11
6.1378
21
-3.83366
0
LINE
8
BLACK
6
CONTINUOUS
10
6.1378
20
-3.83366
11
5.95669
21
-3.83366
0
LINE
8
BLACK
6
CONTINUOUS
10
5.95669
20
-3.83366
11
5.956
21
-3.83337
0
LINE
8
BLACK
6
CONTINUOUS
10
5.95768
20
-3.73524
11
5.95768
21
-3.83169
0
LINE
8
BLACK
6
CONTINUOUS
10
5.95768
20
-3.83169
11
6.13681
21
-3.83169
0
LINE
8
BLACK
6
CONTINUOUS
10
6.13681
20
-3.83169
11
6.13681
21
-3.73524
0
LINE
8
BLACK
6
CONTINUOUS
10
6.13681
20
-3.73524
11
5.95768
21
-3.73524
0
LINE
8
BLACK
6
CONTINUOUS
10
6.20127
20
-3.81959
11
6.20098
21
-3.8189
0
LINE
8
BLACK
6
CONTINUOUS
10
6.20098
20
-3.8189
11
6.20098
21
-3.16969
0
LINE
8
BLACK
6
CONTINUOUS
10
6.20098
20
-3.16969
11
6.20127
21
-3.16899
0
LINE
8
BLACK
6
CONTINUOUS
10
6.20127
20
-3.16899
11
6.20197
21
-3.1687
0
LINE
8
BLACK
6
CONTINUOUS
10
6.20197
20
-3.1687
11
6.89094
21
-3.1687
0
LINE
8
BLACK
6
CONTINUOUS
10
6.89094
20
-3.1687
11
6.89164
21
-3.16899
0
LINE
8
BLACK
6
CONTINUOUS
10
6.89164
20
-3.16899
11
6.89193
21
-3.16969
0
LINE
8
BLACK
6
CONTINUOUS
10
6.89193
20
-3.16969
11
6.89193
21
-3.8189
0
LINE
8
BLACK
6
CONTINUOUS
10
6.89193
20
-3.8189
11
6.89164
21
-3.81959
0
LINE
8
BLACK
6
CONTINUOUS
10
6.89164
20
-3.81959
11
6.89094
21
-3.81988
0
LINE
8
BLACK
6
CONTINUOUS
10
6.89094
20
-3.81988
11
6.20197
21
-3.81988
0
LINE
8
BLACK
6
CONTINUOUS
10
6.20197
20
-3.81988
11
6.20127
21
-3.81959
0
LINE
8
BLACK
6
CONTINUOUS
10
6.20295
20
-3.17067
11
6.20295
21
-3.81791
0
LINE
8
BLACK
6
CONTINUOUS
10
6.20295
20
-3.81791
11
6.88996
21
-3.81791
0
LINE
8
BLACK
6
CONTINUOUS
10
6.88996
20
-3.81791
11
6.88996
21
-3.17067
0
LINE
8
BLACK
6
CONTINUOUS
10
6.88996
20
-3.17067
11
6.20295
21
-3.17067
0
LINE
8
BLACK
6
CONTINUOUS
10
5.58474
20
-3.73928
11
5.58445
21
-3.73858
0
LINE
8
BLACK
6
CONTINUOUS
10
5.58445
20
-3.73858
11
5.58445
21
-3.62362
0
LINE
8
BLACK
6
CONTINUOUS
10
5.58445
20
-3.62362
11
5.58474
21
-3.62293
0
LINE
8
BLACK
6
CONTINUOUS
10
5.58474
20
-3.62293
11
5.58543
21
-3.62264
0
LINE
8
BLACK
6
CONTINUOUS
10
5.58543
20
-3.62264
11
5.76496
21
-3.62264
0
LINE
8
BLACK
6
CONTINUOUS
10
5.76496
20
-3.62264
11
5.76566
21
-3.62293
0
LINE
8
BLACK
6
CONTINUOUS
10
5.76566
20
-3.62293
11
5.76594
21
-3.62362
0
LINE
8
BLACK
6
CONTINUOUS
10
5.76594
20
-3.62362
11
5.76594
21
-3.73858
0
LINE
8
BLACK
6
CONTINUOUS
10
5.76594
20
-3.73858
11
5.76566
21
-3.73928
0
LINE
8
BLACK
6
CONTINUOUS
10
5.76566
20
-3.73928
11
5.76496
21
-3.73957
0
LINE
8
BLACK
6
CONTINUOUS
10
5.76496
20
-3.73957
11
5.58543
21
-3.73957
0
LINE
8
BLACK
6
CONTINUOUS
10
5.58543
20
-3.73957
11
5.58474
21
-3.73928
0
LINE
8
BLACK
6
CONTINUOUS
10
5.58642
20
-3.62461
11
5.58642
21
-3.7376
0
LINE
8
BLACK
6
CONTINUOUS
10
5.58642
20
-3.7376
11
5.76398
21
-3.7376
0
LINE
8
BLACK
6
CONTINUOUS
10
5.76398
20
-3.7376
11
5.76398
21
-3.62461
0
LINE
8
BLACK
6
CONTINUOUS
10
5.76398
20
-3.62461
11
5.58642
21
-3.62461
0
LINE
8
BLACK
6
CONTINUOUS
10
5.78867
20
-3.7192
11
5.78839
21
-3.7185
0
LINE
8
BLACK
6
CONTINUOUS
10
5.78839
20
-3.7185
11
5.78839
21
-3.6437
0
LINE
8
BLACK
6
CONTINUOUS
10
5.78839
20
-3.6437
11
5.78867
21
-3.643
0
LINE
8
BLACK
6
CONTINUOUS
10
5.78867
20
-3.643
11
5.78937
21
-3.64272
0
LINE
8
BLACK
6
CONTINUOUS
10
5.78937
20
-3.64272
11
5.93504
21
-3.64272
0
LINE
8
BLACK
6
CONTINUOUS
10
5.93504
20
-3.64272
11
5.93574
21
-3.643
0
LINE
8
BLACK
6
CONTINUOUS
10
5.93574
20
-3.643
11
5.93602
21
-3.6437
0
LINE
8
BLACK
6
CONTINUOUS
10
5.93602
20
-3.6437
11
5.93602
21
-3.7185
0
LINE
8
BLACK
6
CONTINUOUS
10
5.93602
20
-3.7185
11
5.93574
21
-3.7192
0
LINE
8
BLACK
6
CONTINUOUS
10
5.93574
20
-3.7192
11
5.93504
21
-3.71949
0
LINE
8
BLACK
6
CONTINUOUS
10
5.93504
20
-3.71949
11
5.78937
21
-3.71949
0
LINE
8
BLACK
6
CONTINUOUS
10
5.78937
20
-3.71949
11
5.78867
21
-3.7192
0
LINE
8
BLACK
6
CONTINUOUS
10
5.79035
20
-3.64469
11
5.79035
21
-3.71752
0
LINE
8
BLACK
6
CONTINUOUS
10
5.79035
20
-3.71752
11
5.93406
21
-3.71752
0
LINE
8
BLACK
6
CONTINUOUS
10
5.93406
20
-3.71752
11
5.93406
21
-3.64469
0
LINE
8
BLACK
6
CONTINUOUS
10
5.93406
20
-3.64469
11
5.79035
21
-3.64469
0
LINE
8
BLACK
6
CONTINUOUS
10
4.80698
20
-3.70818
11
4.80669
21
-3.70748
0
LINE
8
BLACK
6
CONTINUOUS
10
4.80669
20
-3.70748
11
4.80669
21
-3.29252
0
LINE
8
BLACK
6
CONTINUOUS
10
4.80669
20
-3.29252
11
4.80698
21
-3.29182
0
LINE
8
BLACK
6
CONTINUOUS
10
4.80698
20
-3.29182
11
4.80768
21
-3.29154
0
LINE
8
BLACK
6
CONTINUOUS
10
4.80768
20
-3.29154
11
5.15925
21
-3.29154
0
LINE
8
BLACK
6
CONTINUOUS
10
5.15925
20
-3.29154
11
5.15995
21
-3.29182
0
LINE
8
BLACK
6
CONTINUOUS
10
5.15995
20
-3.29182
11
5.16024
21
-3.29252
0
LINE
8
BLACK
6
CONTINUOUS
10
5.16024
20
-3.29252
11
5.16024
21
-3.70748
0
LINE
8
BLACK
6
CONTINUOUS
10
5.16024
20
-3.70748
11
5.15995
21
-3.70818
0
LINE
8
BLACK
6
CONTINUOUS
10
5.15995
20
-3.70818
11
5.15925
21
-3.70846
0
LINE
8
BLACK
6
CONTINUOUS
10
5.15925
20
-3.70846
11
4.80768
21
-3.70846
0
LINE
8
BLACK
6
CONTINUOUS
10
4.80768
20
-3.70846
11
4.80698
21
-3.70818
0
LINE
8
BLACK
6
CONTINUOUS
10
4.80866
20
-3.2935
11
4.80866
21
-3.7065
0
LINE
8
BLACK
6
CONTINUOUS
10
4.80866
20
-3.7065
11
5.15827
21
-3.7065
0
LINE
8
BLACK
6
CONTINUOUS
10
5.15827
20
-3.7065
11
5.15827
21
-3.2935
0
LINE
8
BLACK
6
CONTINUOUS
10
5.15827
20
-3.2935
11
4.80866
21
-3.2935
0
LINE
8
BLACK
6
CONTINUOUS
10
5.27716
20
-3.67928
11
5.27687
21
-3.67858
0
LINE
8
BLACK
6
CONTINUOUS
10
5.27687
20
-3.67858
11
5.27687
21
-3.60142
0
LINE
8
BLACK
6
CONTINUOUS
10
5.27687
20
-3.60142
11
5.27716
21
-3.60072
0
LINE
8
BLACK
6
CONTINUOUS
10
5.27716
20
-3.60072
11
5.27785
21
-3.60043
0
LINE
8
BLACK
6
CONTINUOUS
10
5.27785
20
-3.60043
11
5.42589
21
-3.60043
0
LINE
8
BLACK
6
CONTINUOUS
10
5.42589
20
-3.60043
11
5.42658
21
-3.60072
0
LINE
8
BLACK
6
CONTINUOUS
10
5.42658
20
-3.60072
11
5.42687
21
-3.60142
0
LINE
8
BLACK
6
CONTINUOUS
10
5.42687
20
-3.60142
11
5.42687
21
-3.67858
0
LINE
8
BLACK
6
CONTINUOUS
10
5.42687
20
-3.67858
11
5.42658
21
-3.67928
0
LINE
8
BLACK
6
CONTINUOUS
10
5.42658
20
-3.67928
11
5.42589
21
-3.67957
0
LINE
8
BLACK
6
CONTINUOUS
10
5.42589
20
-3.67957
11
5.27785
21
-3.67957
0
LINE
8
BLACK
6
CONTINUOUS
10
5.27785
20
-3.67957
11
5.27716
21
-3.67928
0
LINE
8
BLACK
6
CONTINUOUS
10
5.27884
20
-3.6024
11
5.27884
21
-3.6776
0
LINE
8
BLACK
6
CONTINUOUS
10
5.27884
20
-3.6776
11
5.4249
21
-3.6776
0
LINE
8
BLACK
6
CONTINUOUS
10
5.4249
20
-3.6776
11
5.4249
21
-3.6024
0
LINE
8
BLACK
6
CONTINUOUS
10
5.4249
20
-3.6024
11
5.27884
21
-3.6024
0
LINE
8
BLACK
6
CONTINUOUS
10
5.5997
20
-3.59617
11
5.59941
21
-3.59547
0
LINE
8
BLACK
6
CONTINUOUS
10
5.59941
20
-3.59547
11
5.59941
21
-3.1624
0
LINE
8
BLACK
6
CONTINUOUS
10
5.59941
20
-3.1624
11
5.5997
21
-3.16171
0
LINE
8
BLACK
6
CONTINUOUS
10
5.5997
20
-3.16171
11
5.60039
21
-3.16142
0
LINE
8
BLACK
6
CONTINUOUS
10
5.60039
20
-3.16142
11
5.97441
21
-3.16142
0
LINE
8
BLACK
6
CONTINUOUS
10
5.97441
20
-3.16142
11
5.97511
21
-3.16171
0
LINE
8
BLACK
6
CONTINUOUS
10
5.97511
20
-3.16171
11
5.97539
21
-3.1624
0
LINE
8
BLACK
6
CONTINUOUS
10
5.97539
20
-3.1624
11
5.97539
21
-3.59547
0
LINE
8
BLACK
6
CONTINUOUS
10
5.97539
20
-3.59547
11
5.97511
21
-3.59617
0
LINE
8
BLACK
6
CONTINUOUS
10
5.97511
20
-3.59617
11
5.97441
21
-3.59646
0
LINE
8
BLACK
6
CONTINUOUS
10
5.97441
20
-3.59646
11
5.60039
21
-3.59646
0
LINE
8
BLACK
6
CONTINUOUS
10
5.60039
20
-3.59646
11
5.5997
21
-3.59617
0
LINE
8
BLACK
6
CONTINUOUS
10
5.60138
20
-3.16339
11
5.60138
21
-3.59449
0
LINE
8
BLACK
6
CONTINUOUS
10
5.60138
20
-3.59449
11
5.97343
21
-3.59449
0
LINE
8
BLACK
6
CONTINUOUS
10
5.97343
20
-3.59449
11
5.97343
21
-3.16339
0
LINE
8
BLACK
6
CONTINUOUS
10
5.97343
20
-3.16339
11
5.60138
21
-3.16339
0
LINE
8
BLACK
6
CONTINUOUS
10
5.27047
20
-3.55522
11
5.27018
21
-3.55453
0
LINE
8
BLACK
6
CONTINUOUS
10
5.27018
20
-3.55453
11
5.27018
21
-3.42067
0
LINE
8
BLACK
6
CONTINUOUS
10
5.27018
20
-3.42067
11
5.27047
21
-3.41997
0
LINE
8
BLACK
6
CONTINUOUS
10
5.27047
20
-3.41997
11
5.27116
21
-3.41969
0
LINE
8
BLACK
6
CONTINUOUS
10
5.27116
20
-3.41969
11
5.43258
21
-3.41969
0
LINE
8
BLACK
6
CONTINUOUS
10
5.43258
20
-3.41969
11
5.43327
21
-3.41997
0
LINE
8
BLACK
6
CONTINUOUS
10
5.43327
20
-3.41997
11
5.43356
21
-3.42067
0
LINE
8
BLACK
6
CONTINUOUS
10
5.43356
20
-3.42067
11
5.43356
21
-3.55453
0
LINE
8
BLACK
6
CONTINUOUS
10
5.43356
20
-3.55453
11
5.43327
21
-3.55522
0
LINE
8
BLACK
6
CONTINUOUS
10
5.43327
20
-3.55522
11
5.43258
21
-3.55551
0
LINE
8
BLACK
6
CONTINUOUS
10
5.43258
20
-3.55551
11
5.27116
21
-3.55551
0
LINE
8
BLACK
6
CONTINUOUS
10
5.27116
20
-3.55551
11
5.27047
21
-3.55522
0
LINE
8
BLACK
6
CONTINUOUS
10
5.27215
20
-3.42165
11
5.27215
21
-3.55354
0
LINE
8
BLACK
6
CONTINUOUS
10
5.27215
20
-3.55354
11
5.43159
21
-3.55354
0
LINE
8
BLACK
6
CONTINUOUS
10
5.43159
20
-3.55354
11
5.43159
21
-3.42165
0
LINE
8
BLACK
6
CONTINUOUS
10
5.43159
20
-3.42165
11
5.27215
21
-3.42165
0
LINE
8
BLACK
6
CONTINUOUS
10
6.03277
20
-3.3629
11
6.03248
21
-3.3622
0
LINE
8
BLACK
6
CONTINUOUS
10
6.03248
20
-3.3622
11
6.03248
21
-3.2874
0
LINE
8
BLACK
6
CONTINUOUS
10
6.03248
20
-3.2874
11
6.03277
21
-3.28671
0
LINE
8
BLACK
6
CONTINUOUS
10
6.03277
20
-3.28671
11
6.03346
21
-3.28642
0
LINE
8
BLACK
6
CONTINUOUS
10
6.03346
20
-3.28642
11
6.17913
21
-3.28642
0
LINE
8
BLACK
6
CONTINUOUS
10
6.17913
20
-3.28642
11
6.17983
21
-3.28671
0
LINE
8
BLACK
6
CONTINUOUS
10
6.17983
20
-3.28671
11
6.18012
21
-3.2874
0
LINE
8
BLACK
6
CONTINUOUS
10
6.18012
20
-3.2874
11
6.18012
21
-3.3622
0
LINE
8
BLACK
6
CONTINUOUS
10
6.18012
20
-3.3622
11
6.17983
21
-3.3629
0
LINE
8
BLACK
6
CONTINUOUS
10
6.17983
20
-3.3629
11
6.17913
21
-3.36319
0
LINE
8
BLACK
6
CONTINUOUS
10
6.17913
20
-3.36319
11
6.03346
21
-3.36319
0
LINE
8
BLACK
6
CONTINUOUS
10
6.03346
20
-3.36319
11
6.03277
21
-3.3629
0
LINE
8
BLACK
6
CONTINUOUS
10
6.03445
20
-3.28839
11
6.03445
21
-3.36122
0
LINE
8
BLACK
6
CONTINUOUS
10
6.03445
20
-3.36122
11
6.17815
21
-3.36122
0
LINE
8
BLACK
6
CONTINUOUS
10
6.17815
20
-3.36122
11
6.17815
21
-3.28839
0
LINE
8
BLACK
6
CONTINUOUS
10
6.17815
20
-3.28839
11
6.03445
21
-3.28839
0
LINE
8
BLACK
6
CONTINUOUS
10
5.37072
20
-3.31887
11
5.37043
21
-3.31817
0
LINE
8
BLACK
6
CONTINUOUS
10
5.37043
20
-3.31817
11
5.37043
21
-3.17014
0
LINE
8
BLACK
6
CONTINUOUS
10
5.37043
20
-3.17014
11
5.37072
21
-3.16944
0
LINE
8
BLACK
6
CONTINUOUS
10
5.37072
20
-3.16944
11
5.37142
21
-3.16915
0
LINE
8
BLACK
6
CONTINUOUS
10
5.37142
20
-3.16915
11
5.44858
21
-3.16915
0
LINE
8
BLACK
6
CONTINUOUS
10
5.44858
20
-3.16915
11
5.44928
21
-3.16944
0
LINE
8
BLACK
6
CONTINUOUS
10
5.44928
20
-3.16944
11
5.44957
21
-3.17014
0
LINE
8
BLACK
6
CONTINUOUS
10
5.44957
20
-3.17014
11
5.44957
21
-3.31817
0
LINE
8
BLACK
6
CONTINUOUS
10
5.44957
20
-3.31817
11
5.44928
21
-3.31887
0
LINE
8
BLACK
6
CONTINUOUS
10
5.44928
20
-3.31887
11
5.44858
21
-3.31915
0
LINE
8
BLACK
6
CONTINUOUS
10
5.44858
20
-3.31915
11
5.37142
21
-3.31915
0
LINE
8
BLACK
6
CONTINUOUS
10
5.37142
20
-3.31915
11
5.37072
21
-3.31887
0
LINE
8
BLACK
6
CONTINUOUS
10
5.3724
20
-3.17112
11
5.3724
21
-3.31719
0
LINE
8
BLACK
6
CONTINUOUS
10
5.3724
20
-3.31719
11
5.4476
21
-3.31719
0
LINE
8
BLACK
6
CONTINUOUS
10
5.4476
20
-3.31719
11
5.4476
21
-3.17112
0
LINE
8
BLACK
6
CONTINUOUS
10
5.4476
20
-3.17112
11
5.3724
21
-3.17112
0
LINE
8
BLACK
6
CONTINUOUS
10
5.26763
20
-3.31887
11
5.26734
21
-3.31817
0
LINE
8
BLACK
6
CONTINUOUS
10
5.26734
20
-3.31817
11
5.26734
21
-3.17014
0
LINE
8
BLACK
6
CONTINUOUS
10
5.26734
20
-3.17014
11
5.26763
21
-3.16944
0
LINE
8
BLACK
6
CONTINUOUS
10
5.26763
20
-3.16944
11
5.26833
21
-3.16915
0
LINE
8
BLACK
6
CONTINUOUS
10
5.26833
20
-3.16915
11
5.34549
21
-3.16915
0
LINE
8
BLACK
6
CONTINUOUS
10
5.34549
20
-3.16915
11
5.34619
21
-3.16944
0
LINE
8
BLACK
6
CONTINUOUS
10
5.34619
20
-3.16944
11
5.34648
21
-3.17014
0
LINE
8
BLACK
6
CONTINUOUS
10
5.34648
20
-3.17014
11
5.34648
21
-3.31817
0
LINE
8
BLACK
6
CONTINUOUS
10
5.34648
20
-3.31817
11
5.34619
21
-3.31887
0
LINE
8
BLACK
6
CONTINUOUS
10
5.34619
20
-3.31887
11
5.34549
21
-3.31915
0
LINE
8
BLACK
6
CONTINUOUS
10
5.34549
20
-3.31915
11
5.26833
21
-3.31915
0
LINE
8
BLACK
6
CONTINUOUS
10
5.26833
20
-3.31915
11
5.26763
21
-3.31887
0
LINE
8
BLACK
6
CONTINUOUS
10
5.26931
20
-3.17112
11
5.26931
21
-3.31719
0
LINE
8
BLACK
6
CONTINUOUS
10
5.26931
20
-3.31719
11
5.34451
21
-3.31719
0
LINE
8
BLACK
6
CONTINUOUS
10
5.34451
20
-3.31719
11
5.34451
21
-3.17112
0
LINE
8
BLACK
6
CONTINUOUS
10
5.34451
20
-3.17112
11
5.26931
21
-3.17112
0
LINE
8
BLACK
6
CONTINUOUS
10
5.1669
20
-3.31768
11
5.16661
21
-3.31699
0
LINE
8
BLACK
6
CONTINUOUS
10
5.16661
20
-3.31699
11
5.16661
21
-3.17132
0
LINE
8
BLACK
6
CONTINUOUS
10
5.16661
20
-3.17132
11
5.1669
21
-3.17062
0
LINE
8
BLACK
6
CONTINUOUS
10
5.1669
20
-3.17062
11
5.1676
21
-3.17033
0
LINE
8
BLACK
6
CONTINUOUS
10
5.1676
20
-3.17033
11
5.2424
21
-3.17033
0
LINE
8
BLACK
6
CONTINUOUS
10
5.2424
20
-3.17033
11
5.2431
21
-3.17062
0
LINE
8
BLACK
6
CONTINUOUS
10
5.2431
20
-3.17062
11
5.24339
21
-3.17132
0
LINE
8
BLACK
6
CONTINUOUS
10
5.24339
20
-3.17132
11
5.24339
21
-3.31699
0
LINE
8
BLACK
6
CONTINUOUS
10
5.24339
20
-3.31699
11
5.2431
21
-3.31768
0
LINE
8
BLACK
6
CONTINUOUS
10
5.2431
20
-3.31768
11
5.2424
21
-3.31797
0
LINE
8
BLACK
6
CONTINUOUS
10
5.2424
20
-3.31797
11
5.1676
21
-3.31797
0
LINE
8
BLACK
6
CONTINUOUS
10
5.1676
20
-3.31797
11
5.1669
21
-3.31768
0
LINE
8
BLACK
6
CONTINUOUS
10
5.16858
20
-3.1723
11
5.16858
21
-3.316
0
LINE
8
BLACK
6
CONTINUOUS
10
5.16858
20
-3.316
11
5.24142
21
-3.316
0
LINE
8
BLACK
6
CONTINUOUS
10
5.24142
20
-3.316
11
5.24142
21
-3.1723
0
LINE
8
BLACK
6
CONTINUOUS
10
5.24142
20
-3.1723
11
5.16858
21
-3.1723
0
LINE
8
BLACK
6
CONTINUOUS
10
6.00009
20
-3.26684
11
5.9998
21
-3.26614
0
LINE
8
BLACK
6
CONTINUOUS
10
5.9998
20
-3.26614
11
5.9998
21
-3.15118
0
LINE
8
BLACK
6
CONTINUOUS
10
5.9998
20
-3.15118
11
6.00009
21
-3.15049
0
LINE
8
BLACK
6
CONTINUOUS
10
6.00009
20
-3.15049
11
6.00079
21
-3.1502
0
LINE
8
BLACK
6
CONTINUOUS
10
6.00079
20
-3.1502
11
6.18031
21
-3.1502
0
LINE
8
BLACK
6
CONTINUOUS
10
6.18031
20
-3.1502
11
6.18101
21
-3.15049
0
LINE
8
BLACK
6
CONTINUOUS
10
6.18101
20
-3.15049
11
6.1813
21
-3.15118
0
LINE
8
BLACK
6
CONTINUOUS
10
6.1813
20
-3.15118
11
6.1813
21
-3.26614
0
LINE
8
BLACK
6
CONTINUOUS
10
6.1813
20
-3.26614
11
6.18101
21
-3.26684
0
LINE
8
BLACK
6
CONTINUOUS
10
6.18101
20
-3.26684
11
6.18031
21
-3.26713
0
LINE
8
BLACK
6
CONTINUOUS
10
6.18031
20
-3.26713
11
6.00079
21
-3.26713
0
LINE
8
BLACK
6
CONTINUOUS
10
6.00079
20
-3.26713
11
6.00009
21
-3.26684
0
LINE
8
BLACK
6
CONTINUOUS
10
6.00177
20
-3.15217
11
6.00177
21
-3.26516
0
LINE
8
BLACK
6
CONTINUOUS
10
6.00177
20
-3.26516
11
6.17933
21
-3.26516
0
LINE
8
BLACK
6
CONTINUOUS
10
6.17933
20
-3.26516
11
6.17933
21
-3.15217
0
LINE
8
BLACK
6
CONTINUOUS
10
6.17933
20
-3.15217
11
6.00177
21
-3.15217
0
LINE
8
BLACK
6
CONTINUOUS
10
4.95678
20
-3.26684
11
4.9565
21
-3.26614
0
LINE
8
BLACK
6
CONTINUOUS
10
4.9565
20
-3.26614
11
4.9565
21
-3.15118
0
LINE
8
BLACK
6
CONTINUOUS
10
4.9565
20
-3.15118
11
4.95678
21
-3.15049
0
LINE
8
BLACK
6
CONTINUOUS
10
4.95678
20
-3.15049
11
4.95748
21
-3.1502
0
LINE
8
BLACK
6
CONTINUOUS
10
4.95748
20
-3.1502
11
5.13701
21
-3.1502
0
LINE
8
BLACK
6
CONTINUOUS
10
5.13701
20
-3.1502
11
5.1377
21
-3.15049
0
LINE
8
BLACK
6
CONTINUOUS
10
5.1377
20
-3.15049
11
5.13799
21
-3.15118
0
LINE
8
BLACK
6
CONTINUOUS
10
5.13799
20
-3.15118
11
5.13799
21
-3.26614
0
LINE
8
BLACK
6
CONTINUOUS
10
5.13799
20
-3.26614
11
5.1377
21
-3.26684
0
LINE
8
BLACK
6
CONTINUOUS
10
5.1377
20
-3.26684
11
5.13701
21
-3.26713
0
LINE
8
BLACK
6
CONTINUOUS
10
5.13701
20
-3.26713
11
4.95748
21
-3.26713
0
LINE
8
BLACK
6
CONTINUOUS
10
4.95748
20
-3.26713
11
4.95678
21
-3.26684
0
LINE
8
BLACK
6
CONTINUOUS
10
4.95846
20
-3.15217
11
4.95846
21
-3.26516
0
LINE
8
BLACK
6
CONTINUOUS
10
4.95846
20
-3.26516
11
5.13602
21
-3.26516
0
LINE
8
BLACK
6
CONTINUOUS
10
5.13602
20
-3.26516
11
5.13602
21
-3.15217
0
LINE
8
BLACK
6
CONTINUOUS
10
5.13602
20
-3.15217
11
4.95846
21
-3.15217
  0
ENDSEC
  0
EOF
