  0
SECTION
  2
HEADER
  9
$ANGBASE
  50
0.0
  9
$ANGDIR
  70
1
  9
$MEASUREMENT
  70
0
  0
ENDSEC
  0
SECTION
  2
TABLES
  0
TABLE
  2
LTYPE
  70
4
  0
LTYPE
  5
40F
  2
CONTINUOUS
  70
0
  3
Solid line
  72
65
  73
0
  40
0.0
  0
LTYPE
  5
410
  2
DASHDOT
 70
0
  3
Dash Dot ____ _ ____ _
 72
65
 73
4
 40
2.0
 49
1.25
 49
-0.25
 49
0.25
 49
-0.25
  0
LTYPE
  5
411
  2
DASHED
 70
0
  3
Dashed __ __ __ __ __
 72
65
 73
2
 40
0.75
 49
0.5
 49
-0.25
  0
LTYPE
  5
43B
  2
DOTTED
 70
0
  3
Dotted .  .  .  .
 72
65
 73
2
 40
0.2
 49
0.0
 49
-0.2
  0
ENDTAB
  0
TABLE
  2
STYLE
  70
4
  0
STYLE
  2
KICAD
  70
0
  40
0
  41
1
  42
1
  50
0
  71
0
  3
isocp.shx
  0
STYLE
  2
KICADB
  70
0
  40
0
  41
1
  42
1
  50
0
  71
0
  3
isocp.shx
  0
STYLE
  2
KICADI
  70
0
  40
0
  41
1
  42
1
  50
15
  71
0
  3
isocp.shx
  0
STYLE
  2
KICADBI
  70
0
  40
0
  41
1
  42
1
  50
15
  71
0
  3
isocp.shx
  0
ENDTAB
  0
TABLE
  2
LAYER
  70
1
  0
LAYER
  2
BLACK
  70
0
  62
7
  6
CONTINUOUS
  0
ENDTAB
  0
ENDSEC
  0
SECTION
  2
ENTITIES
0
LINE
8
BLACK
6
CONTINUOUS
10
5.68615
20
-3.75764
11
5.69291
21
-3.76065
0
LINE
8
BLACK
6
CONTINUOUS
10
5.69291
20
-3.76065
11
5.69891
21
-3.76501
0
LINE
8
BLACK
6
CONTINUOUS
10
5.69891
20
-3.76501
11
5.70386
21
-3.77051
0
LINE
8
BLACK
6
CONTINUOUS
10
5.70386
20
-3.77051
11
5.70757
21
-3.77693
0
LINE
8
BLACK
6
CONTINUOUS
10
5.70757
20
-3.77693
11
5.70986
21
-3.78397
0
LINE
8
BLACK
6
CONTINUOUS
10
5.70986
20
-3.78397
11
5.71063
21
-3.79134
0
LINE
8
BLACK
6
CONTINUOUS
10
5.71063
20
-3.79134
11
5.71063
21
-3.81496
0
LINE
8
BLACK
6
CONTINUOUS
10
5.71063
20
-3.81496
11
5.70986
21
-3.82233
0
LINE
8
BLACK
6
CONTINUOUS
10
5.70986
20
-3.82233
11
5.70757
21
-3.82937
0
LINE
8
BLACK
6
CONTINUOUS
10
5.70757
20
-3.82937
11
5.70386
21
-3.83579
0
LINE
8
BLACK
6
CONTINUOUS
10
5.70386
20
-3.83579
11
5.69891
21
-3.84129
0
LINE
8
BLACK
6
CONTINUOUS
10
5.69891
20
-3.84129
11
5.69291
21
-3.84565
0
LINE
8
BLACK
6
CONTINUOUS
10
5.69291
20
-3.84565
11
5.68615
21
-3.84866
0
LINE
8
BLACK
6
CONTINUOUS
10
5.68615
20
-3.84866
11
5.6789
21
-3.8502
0
LINE
8
BLACK
6
CONTINUOUS
10
5.6789
20
-3.8502
11
5.67149
21
-3.8502
0
LINE
8
BLACK
6
CONTINUOUS
10
5.67149
20
-3.8502
11
5.66425
21
-3.84866
0
LINE
8
BLACK
6
CONTINUOUS
10
5.66425
20
-3.84866
11
5.65748
21
-3.84565
0
LINE
8
BLACK
6
CONTINUOUS
10
5.65748
20
-3.84565
11
5.65149
21
-3.84129
0
LINE
8
BLACK
6
CONTINUOUS
10
5.65149
20
-3.84129
11
5.64653
21
-3.83579
0
LINE
8
BLACK
6
CONTINUOUS
10
5.64653
20
-3.83579
11
5.64283
21
-3.82937
0
LINE
8
BLACK
6
CONTINUOUS
10
5.64283
20
-3.82937
11
5.64054
21
-3.82233
0
LINE
8
BLACK
6
CONTINUOUS
10
5.64054
20
-3.82233
11
5.63976
21
-3.81496
0
LINE
8
BLACK
6
CONTINUOUS
10
5.63976
20
-3.81496
11
5.63976
21
-3.79134
0
LINE
8
BLACK
6
CONTINUOUS
10
5.63976
20
-3.79134
11
5.64054
21
-3.78397
0
LINE
8
BLACK
6
CONTINUOUS
10
5.64054
20
-3.78397
11
5.64283
21
-3.77693
0
LINE
8
BLACK
6
CONTINUOUS
10
5.64283
20
-3.77693
11
5.64653
21
-3.77051
0
LINE
8
BLACK
6
CONTINUOUS
10
5.64653
20
-3.77051
11
5.65149
21
-3.76501
0
LINE
8
BLACK
6
CONTINUOUS
10
5.65149
20
-3.76501
11
5.65748
21
-3.76065
0
LINE
8
BLACK
6
CONTINUOUS
10
5.65748
20
-3.76065
11
5.66425
21
-3.75764
0
LINE
8
BLACK
6
CONTINUOUS
10
5.66425
20
-3.75764
11
5.67149
21
-3.7561
0
LINE
8
BLACK
6
CONTINUOUS
10
5.67149
20
-3.7561
11
5.6789
21
-3.7561
0
LINE
8
BLACK
6
CONTINUOUS
10
5.6789
20
-3.7561
11
5.68615
21
-3.75764
0
LINE
8
BLACK
6
CONTINUOUS
10
6.6224
20
-3.64771
11
6.63291
21
-3.64943
0
LINE
8
BLACK
6
CONTINUOUS
10
6.63291
20
-3.64943
11
6.64306
21
-3.65267
0
LINE
8
BLACK
6
CONTINUOUS
10
6.64306
20
-3.65267
11
6.65261
21
-3.65738
0
LINE
8
BLACK
6
CONTINUOUS
10
6.65261
20
-3.65738
11
6.66136
21
-3.66345
0
LINE
8
BLACK
6
CONTINUOUS
10
6.66136
20
-3.66345
11
6.66912
21
-3.67075
0
LINE
8
BLACK
6
CONTINUOUS
10
6.66912
20
-3.67075
11
6.67571
21
-3.67911
0
LINE
8
BLACK
6
CONTINUOUS
10
6.67571
20
-3.67911
11
6.68099
21
-3.68836
0
LINE
8
BLACK
6
CONTINUOUS
10
6.68099
20
-3.68836
11
6.68485
21
-3.69828
0
LINE
8
BLACK
6
CONTINUOUS
10
6.68485
20
-3.69828
11
6.6872
21
-3.70867
0
LINE
8
BLACK
6
CONTINUOUS
10
6.6872
20
-3.70867
11
6.68799
21
-3.71929
0
LINE
8
BLACK
6
CONTINUOUS
10
6.68799
20
-3.71929
11
6.68789
21
-3.72305
0
LINE
8
BLACK
6
CONTINUOUS
10
6.68789
20
-3.72305
11
6.68655
21
-3.73362
0
LINE
8
BLACK
6
CONTINUOUS
10
6.68655
20
-3.73362
11
6.68366
21
-3.74387
0
LINE
8
BLACK
6
CONTINUOUS
10
6.68366
20
-3.74387
11
6.67929
21
-3.75358
0
LINE
8
BLACK
6
CONTINUOUS
10
6.67929
20
-3.75358
11
6.67352
21
-3.76253
0
LINE
8
BLACK
6
CONTINUOUS
10
6.67352
20
-3.76253
11
6.6665
21
-3.77054
0
LINE
8
BLACK
6
CONTINUOUS
10
6.6665
20
-3.77054
11
6.65837
21
-3.77742
0
LINE
8
BLACK
6
CONTINUOUS
10
6.65837
20
-3.77742
11
6.64932
21
-3.78302
0
LINE
8
BLACK
6
CONTINUOUS
10
6.64932
20
-3.78302
11
6.63953
21
-3.78723
0
LINE
8
BLACK
6
CONTINUOUS
10
6.63953
20
-3.78723
11
6.62924
21
-3.78994
0
LINE
8
BLACK
6
CONTINUOUS
10
6.62924
20
-3.78994
11
6.61865
21
-3.7911
0
LINE
8
BLACK
6
CONTINUOUS
10
6.61865
20
-3.7911
11
6.60801
21
-3.79068
0
LINE
8
BLACK
6
CONTINUOUS
10
6.60801
20
-3.79068
11
6.59755
21
-3.78869
0
LINE
8
BLACK
6
CONTINUOUS
10
6.59755
20
-3.78869
11
6.58749
21
-3.78518
0
LINE
8
BLACK
6
CONTINUOUS
10
6.58749
20
-3.78518
11
6.57807
21
-3.78022
0
LINE
8
BLACK
6
CONTINUOUS
10
6.57807
20
-3.78022
11
6.56948
21
-3.77393
0
LINE
8
BLACK
6
CONTINUOUS
10
6.56948
20
-3.77393
11
6.56192
21
-3.76643
0
LINE
8
BLACK
6
CONTINUOUS
10
6.56192
20
-3.76643
11
6.55554
21
-3.7579
0
LINE
8
BLACK
6
CONTINUOUS
10
6.55554
20
-3.7579
11
6.5505
21
-3.74852
0
LINE
8
BLACK
6
CONTINUOUS
10
6.5505
20
-3.74852
11
6.5469
21
-3.73849
0
LINE
8
BLACK
6
CONTINUOUS
10
6.5469
20
-3.73849
11
6.54483
21
-3.72805
0
LINE
8
BLACK
6
CONTINUOUS
10
6.54483
20
-3.72805
11
6.54432
21
-3.71741
0
LINE
8
BLACK
6
CONTINUOUS
10
6.54432
20
-3.71741
11
6.54538
21
-3.70681
0
LINE
8
BLACK
6
CONTINUOUS
10
6.54538
20
-3.70681
11
6.548
21
-3.69649
0
LINE
8
BLACK
6
CONTINUOUS
10
6.548
20
-3.69649
11
6.55212
21
-3.68667
0
LINE
8
BLACK
6
CONTINUOUS
10
6.55212
20
-3.68667
11
6.55765
21
-3.67757
0
LINE
8
BLACK
6
CONTINUOUS
10
6.55765
20
-3.67757
11
6.56446
21
-3.66938
0
LINE
8
BLACK
6
CONTINUOUS
10
6.56446
20
-3.66938
11
6.5724
21
-3.66229
0
LINE
8
BLACK
6
CONTINUOUS
10
6.5724
20
-3.66229
11
6.58131
21
-3.65645
0
LINE
8
BLACK
6
CONTINUOUS
10
6.58131
20
-3.65645
11
6.59098
21
-3.65199
0
LINE
8
BLACK
6
CONTINUOUS
10
6.59098
20
-3.65199
11
6.6012
21
-3.64901
0
LINE
8
BLACK
6
CONTINUOUS
10
6.6012
20
-3.64901
11
6.61176
21
-3.64757
0
LINE
8
BLACK
6
CONTINUOUS
10
6.61176
20
-3.64757
11
6.6224
21
-3.64771
0
LINE
8
BLACK
6
CONTINUOUS
10
5.68615
20
-3.63559
11
5.69291
21
-3.63861
0
LINE
8
BLACK
6
CONTINUOUS
10
5.69291
20
-3.63861
11
5.69891
21
-3.64296
0
LINE
8
BLACK
6
CONTINUOUS
10
5.69891
20
-3.64296
11
5.70386
21
-3.64846
0
LINE
8
BLACK
6
CONTINUOUS
10
5.70386
20
-3.64846
11
5.70757
21
-3.65488
0
LINE
8
BLACK
6
CONTINUOUS
10
5.70757
20
-3.65488
11
5.70986
21
-3.66192
0
LINE
8
BLACK
6
CONTINUOUS
10
5.70986
20
-3.66192
11
5.71063
21
-3.66929
0
LINE
8
BLACK
6
CONTINUOUS
10
5.71063
20
-3.66929
11
5.71063
21
-3.69291
0
LINE
8
BLACK
6
CONTINUOUS
10
5.71063
20
-3.69291
11
5.70986
21
-3.70028
0
LINE
8
BLACK
6
CONTINUOUS
10
5.70986
20
-3.70028
11
5.70757
21
-3.70733
0
LINE
8
BLACK
6
CONTINUOUS
10
5.70757
20
-3.70733
11
5.70386
21
-3.71374
0
LINE
8
BLACK
6
CONTINUOUS
10
5.70386
20
-3.71374
11
5.69891
21
-3.71925
0
LINE
8
BLACK
6
CONTINUOUS
10
5.69891
20
-3.71925
11
5.69291
21
-3.7236
0
LINE
8
BLACK
6
CONTINUOUS
10
5.69291
20
-3.7236
11
5.68615
21
-3.72661
0
LINE
8
BLACK
6
CONTINUOUS
10
5.68615
20
-3.72661
11
5.6789
21
-3.72815
0
LINE
8
BLACK
6
CONTINUOUS
10
5.6789
20
-3.72815
11
5.67149
21
-3.72815
0
LINE
8
BLACK
6
CONTINUOUS
10
5.67149
20
-3.72815
11
5.66425
21
-3.72661
0
LINE
8
BLACK
6
CONTINUOUS
10
5.66425
20
-3.72661
11
5.65748
21
-3.7236
0
LINE
8
BLACK
6
CONTINUOUS
10
5.65748
20
-3.7236
11
5.65149
21
-3.71925
0
LINE
8
BLACK
6
CONTINUOUS
10
5.65149
20
-3.71925
11
5.64653
21
-3.71374
0
LINE
8
BLACK
6
CONTINUOUS
10
5.64653
20
-3.71374
11
5.64283
21
-3.70733
0
LINE
8
BLACK
6
CONTINUOUS
10
5.64283
20
-3.70733
11
5.64054
21
-3.70028
0
LINE
8
BLACK
6
CONTINUOUS
10
5.64054
20
-3.70028
11
5.63976
21
-3.69291
0
LINE
8
BLACK
6
CONTINUOUS
10
5.63976
20
-3.69291
11
5.63976
21
-3.66929
0
LINE
8
BLACK
6
CONTINUOUS
10
5.63976
20
-3.66929
11
5.64054
21
-3.66192
0
LINE
8
BLACK
6
CONTINUOUS
10
5.64054
20
-3.66192
11
5.64283
21
-3.65488
0
LINE
8
BLACK
6
CONTINUOUS
10
5.64283
20
-3.65488
11
5.64653
21
-3.64846
0
LINE
8
BLACK
6
CONTINUOUS
10
5.64653
20
-3.64846
11
5.65149
21
-3.64296
0
LINE
8
BLACK
6
CONTINUOUS
10
5.65149
20
-3.64296
11
5.65748
21
-3.63861
0
LINE
8
BLACK
6
CONTINUOUS
10
5.65748
20
-3.63861
11
5.66425
21
-3.63559
0
LINE
8
BLACK
6
CONTINUOUS
10
5.66425
20
-3.63559
11
5.67149
21
-3.63405
0
LINE
8
BLACK
6
CONTINUOUS
10
5.67149
20
-3.63405
11
5.6789
21
-3.63405
0
LINE
8
BLACK
6
CONTINUOUS
10
5.6789
20
-3.63405
11
5.68615
21
-3.63559
0
LINE
8
BLACK
6
CONTINUOUS
10
6.39567
20
-3.69882
11
6.33661
21
-3.69882
0
LINE
8
BLACK
6
CONTINUOUS
10
6.33661
20
-3.69882
11
6.33661
21
-3.63976
0
LINE
8
BLACK
6
CONTINUOUS
10
6.33661
20
-3.63976
11
6.39567
21
-3.63976
0
LINE
8
BLACK
6
CONTINUOUS
10
6.39567
20
-3.63976
11
6.39567
21
-3.69882
0
LINE
8
BLACK
6
CONTINUOUS
10
4.95415
20
-3.65258
11
4.95917
21
-3.65417
0
LINE
8
BLACK
6
CONTINUOUS
10
4.95917
20
-3.65417
11
4.96351
21
-3.65716
0
LINE
8
BLACK
6
CONTINUOUS
10
4.96351
20
-3.65716
11
4.96677
21
-3.6613
0
LINE
8
BLACK
6
CONTINUOUS
10
4.96677
20
-3.6613
11
4.96867
21
-3.66621
0
LINE
8
BLACK
6
CONTINUOUS
10
4.96867
20
-3.66621
11
4.96904
21
-3.67147
0
LINE
8
BLACK
6
CONTINUOUS
10
4.96904
20
-3.67147
11
4.96785
21
-3.6766
0
LINE
8
BLACK
6
CONTINUOUS
10
4.96785
20
-3.6766
11
4.9652
21
-3.68116
0
LINE
8
BLACK
6
CONTINUOUS
10
4.9652
20
-3.68116
11
4.96134
21
-3.68473
0
LINE
8
BLACK
6
CONTINUOUS
10
4.96134
20
-3.68473
11
4.95659
21
-3.68701
0
LINE
8
BLACK
6
CONTINUOUS
10
4.95659
20
-3.68701
11
4.95138
21
-3.6878
0
LINE
8
BLACK
6
CONTINUOUS
10
4.95138
20
-3.6878
11
4.90807
21
-3.6878
0
LINE
8
BLACK
6
CONTINUOUS
10
4.90807
20
-3.6878
11
4.9053
21
-3.68758
0
LINE
8
BLACK
6
CONTINUOUS
10
4.9053
20
-3.68758
11
4.90028
21
-3.68599
0
LINE
8
BLACK
6
CONTINUOUS
10
4.90028
20
-3.68599
11
4.89594
21
-3.68299
0
LINE
8
BLACK
6
CONTINUOUS
10
4.89594
20
-3.68299
11
4.89268
21
-3.67886
0
LINE
8
BLACK
6
CONTINUOUS
10
4.89268
20
-3.67886
11
4.89078
21
-3.67394
0
LINE
8
BLACK
6
CONTINUOUS
10
4.89078
20
-3.67394
11
4.89041
21
-3.66869
0
LINE
8
BLACK
6
CONTINUOUS
10
4.89041
20
-3.66869
11
4.8916
21
-3.66356
0
LINE
8
BLACK
6
CONTINUOUS
10
4.8916
20
-3.66356
11
4.89424
21
-3.659
0
LINE
8
BLACK
6
CONTINUOUS
10
4.89424
20
-3.659
11
4.89811
21
-3.65543
0
LINE
8
BLACK
6
CONTINUOUS
10
4.89811
20
-3.65543
11
4.90286
21
-3.65315
0
LINE
8
BLACK
6
CONTINUOUS
10
4.90286
20
-3.65315
11
4.90807
21
-3.65236
0
LINE
8
BLACK
6
CONTINUOUS
10
4.90807
20
-3.65236
11
4.95138
21
-3.65236
0
LINE
8
BLACK
6
CONTINUOUS
10
4.95138
20
-3.65236
11
4.95415
21
-3.65258
0
LINE
8
BLACK
6
CONTINUOUS
10
5.12029
20
-3.65258
11
5.12531
21
-3.65417
0
LINE
8
BLACK
6
CONTINUOUS
10
5.12531
20
-3.65417
11
5.12965
21
-3.65716
0
LINE
8
BLACK
6
CONTINUOUS
10
5.12965
20
-3.65716
11
5.13291
21
-3.6613
0
LINE
8
BLACK
6
CONTINUOUS
10
5.13291
20
-3.6613
11
5.13481
21
-3.66621
0
LINE
8
BLACK
6
CONTINUOUS
10
5.13481
20
-3.66621
11
5.13518
21
-3.67147
0
LINE
8
BLACK
6
CONTINUOUS
10
5.13518
20
-3.67147
11
5.13399
21
-3.6766
0
LINE
8
BLACK
6
CONTINUOUS
10
5.13399
20
-3.6766
11
5.13135
21
-3.68116
0
LINE
8
BLACK
6
CONTINUOUS
10
5.13135
20
-3.68116
11
5.12748
21
-3.68473
0
LINE
8
BLACK
6
CONTINUOUS
10
5.12748
20
-3.68473
11
5.12273
21
-3.68701
0
LINE
8
BLACK
6
CONTINUOUS
10
5.12273
20
-3.68701
11
5.11752
21
-3.6878
0
LINE
8
BLACK
6
CONTINUOUS
10
5.11752
20
-3.6878
11
5.07028
21
-3.6878
0
LINE
8
BLACK
6
CONTINUOUS
10
5.07028
20
-3.6878
11
5.0675
21
-3.68758
0
LINE
8
BLACK
6
CONTINUOUS
10
5.0675
20
-3.68758
11
5.06248
21
-3.68599
0
LINE
8
BLACK
6
CONTINUOUS
10
5.06248
20
-3.68599
11
5.05815
21
-3.68299
0
LINE
8
BLACK
6
CONTINUOUS
10
5.05815
20
-3.68299
11
5.05489
21
-3.67886
0
LINE
8
BLACK
6
CONTINUOUS
10
5.05489
20
-3.67886
11
5.05299
21
-3.67394
0
LINE
8
BLACK
6
CONTINUOUS
10
5.05299
20
-3.67394
11
5.05261
21
-3.66869
0
LINE
8
BLACK
6
CONTINUOUS
10
5.05261
20
-3.66869
11
5.0538
21
-3.66356
0
LINE
8
BLACK
6
CONTINUOUS
10
5.0538
20
-3.66356
11
5.05645
21
-3.659
0
LINE
8
BLACK
6
CONTINUOUS
10
5.05645
20
-3.659
11
5.06032
21
-3.65543
0
LINE
8
BLACK
6
CONTINUOUS
10
5.06032
20
-3.65543
11
5.06507
21
-3.65315
0
LINE
8
BLACK
6
CONTINUOUS
10
5.06507
20
-3.65315
11
5.07028
21
-3.65236
0
LINE
8
BLACK
6
CONTINUOUS
10
5.07028
20
-3.65236
11
5.11752
21
-3.65236
0
LINE
8
BLACK
6
CONTINUOUS
10
5.11752
20
-3.65236
11
5.12029
21
-3.65258
0
LINE
8
BLACK
6
CONTINUOUS
10
6.27288
20
-3.59054
11
6.27909
21
-3.59275
0
LINE
8
BLACK
6
CONTINUOUS
10
6.27909
20
-3.59275
11
6.28464
21
-3.59628
0
LINE
8
BLACK
6
CONTINUOUS
10
6.28464
20
-3.59628
11
6.28928
21
-3.60095
0
LINE
8
BLACK
6
CONTINUOUS
10
6.28928
20
-3.60095
11
6.29277
21
-3.60653
0
LINE
8
BLACK
6
CONTINUOUS
10
6.29277
20
-3.60653
11
6.29494
21
-3.61275
0
LINE
8
BLACK
6
CONTINUOUS
10
6.29494
20
-3.61275
11
6.29567
21
-3.61929
0
LINE
8
BLACK
6
CONTINUOUS
10
6.29567
20
-3.61929
11
6.29566
21
-3.62012
0
LINE
8
BLACK
6
CONTINUOUS
10
6.29566
20
-3.62012
11
6.29474
21
-3.62663
0
LINE
8
BLACK
6
CONTINUOUS
10
6.29474
20
-3.62663
11
6.2924
21
-3.63279
0
LINE
8
BLACK
6
CONTINUOUS
10
6.2924
20
-3.63279
11
6.28876
21
-3.63827
0
LINE
8
BLACK
6
CONTINUOUS
10
6.28876
20
-3.63827
11
6.28399
21
-3.64281
0
LINE
8
BLACK
6
CONTINUOUS
10
6.28399
20
-3.64281
11
6.27834
21
-3.64618
0
LINE
8
BLACK
6
CONTINUOUS
10
6.27834
20
-3.64618
11
6.27208
21
-3.64822
0
LINE
8
BLACK
6
CONTINUOUS
10
6.27208
20
-3.64822
11
6.26552
21
-3.64881
0
LINE
8
BLACK
6
CONTINUOUS
10
6.26552
20
-3.64881
11
6.259
21
-3.64794
0
LINE
8
BLACK
6
CONTINUOUS
10
6.259
20
-3.64794
11
6.25283
21
-3.64565
0
LINE
8
BLACK
6
CONTINUOUS
10
6.25283
20
-3.64565
11
6.24732
21
-3.64204
0
LINE
8
BLACK
6
CONTINUOUS
10
6.24732
20
-3.64204
11
6.24275
21
-3.63731
0
LINE
8
BLACK
6
CONTINUOUS
10
6.24275
20
-3.63731
11
6.23934
21
-3.63168
0
LINE
8
BLACK
6
CONTINUOUS
10
6.23934
20
-3.63168
11
6.23726
21
-3.62543
0
LINE
8
BLACK
6
CONTINUOUS
10
6.23726
20
-3.62543
11
6.23662
21
-3.61888
0
LINE
8
BLACK
6
CONTINUOUS
10
6.23662
20
-3.61888
11
6.23744
21
-3.61235
0
LINE
8
BLACK
6
CONTINUOUS
10
6.23744
20
-3.61235
11
6.23969
21
-3.60616
0
LINE
8
BLACK
6
CONTINUOUS
10
6.23969
20
-3.60616
11
6.24326
21
-3.60063
0
LINE
8
BLACK
6
CONTINUOUS
10
6.24326
20
-3.60063
11
6.24796
21
-3.59602
0
LINE
8
BLACK
6
CONTINUOUS
10
6.24796
20
-3.59602
11
6.25357
21
-3.59257
0
LINE
8
BLACK
6
CONTINUOUS
10
6.25357
20
-3.59257
11
6.2598
21
-3.59045
0
LINE
8
BLACK
6
CONTINUOUS
10
6.2598
20
-3.59045
11
6.26635
21
-3.58976
0
LINE
8
BLACK
6
CONTINUOUS
10
6.26635
20
-3.58976
11
6.27288
21
-3.59054
0
LINE
8
BLACK
6
CONTINUOUS
10
5.0814
20
-3.6027
11
5.0848
21
-3.60555
0
LINE
8
BLACK
6
CONTINUOUS
10
5.0848
20
-3.60555
11
5.08702
21
-3.6094
0
LINE
8
BLACK
6
CONTINUOUS
10
5.08702
20
-3.6094
11
5.0878
21
-3.61378
0
LINE
8
BLACK
6
CONTINUOUS
10
5.0878
20
-3.61378
11
5.08702
21
-3.61816
0
LINE
8
BLACK
6
CONTINUOUS
10
5.08702
20
-3.61816
11
5.0848
21
-3.622
0
LINE
8
BLACK
6
CONTINUOUS
10
5.0848
20
-3.622
11
5.0814
21
-3.62486
0
LINE
8
BLACK
6
CONTINUOUS
10
5.0814
20
-3.62486
11
5.07722
21
-3.62638
0
LINE
8
BLACK
6
CONTINUOUS
10
5.07722
20
-3.62638
11
5.07278
21
-3.62638
0
LINE
8
BLACK
6
CONTINUOUS
10
5.07278
20
-3.62638
11
5.0686
21
-3.62486
0
LINE
8
BLACK
6
CONTINUOUS
10
5.0686
20
-3.62486
11
5.0652
21
-3.622
0
LINE
8
BLACK
6
CONTINUOUS
10
5.0652
20
-3.622
11
5.06298
21
-3.61816
0
LINE
8
BLACK
6
CONTINUOUS
10
5.06298
20
-3.61816
11
5.0622
21
-3.61378
0
LINE
8
BLACK
6
CONTINUOUS
10
5.0622
20
-3.61378
11
5.06298
21
-3.6094
0
LINE
8
BLACK
6
CONTINUOUS
10
5.06298
20
-3.6094
11
5.0652
21
-3.60555
0
LINE
8
BLACK
6
CONTINUOUS
10
5.0652
20
-3.60555
11
5.0686
21
-3.6027
0
LINE
8
BLACK
6
CONTINUOUS
10
5.0686
20
-3.6027
11
5.07278
21
-3.60118
0
LINE
8
BLACK
6
CONTINUOUS
10
5.07278
20
-3.60118
11
5.07722
21
-3.60118
0
LINE
8
BLACK
6
CONTINUOUS
10
5.07722
20
-3.60118
11
5.0814
21
-3.6027
0
LINE
8
BLACK
6
CONTINUOUS
10
6.37288
20
-3.54054
11
6.37909
21
-3.54275
0
LINE
8
BLACK
6
CONTINUOUS
10
6.37909
20
-3.54275
11
6.38464
21
-3.54628
0
LINE
8
BLACK
6
CONTINUOUS
10
6.38464
20
-3.54628
11
6.38928
21
-3.55095
0
LINE
8
BLACK
6
CONTINUOUS
10
6.38928
20
-3.55095
11
6.39277
21
-3.55653
0
LINE
8
BLACK
6
CONTINUOUS
10
6.39277
20
-3.55653
11
6.39494
21
-3.56275
0
LINE
8
BLACK
6
CONTINUOUS
10
6.39494
20
-3.56275
11
6.39567
21
-3.56929
0
LINE
8
BLACK
6
CONTINUOUS
10
6.39567
20
-3.56929
11
6.39566
21
-3.57012
0
LINE
8
BLACK
6
CONTINUOUS
10
6.39566
20
-3.57012
11
6.39474
21
-3.57663
0
LINE
8
BLACK
6
CONTINUOUS
10
6.39474
20
-3.57663
11
6.3924
21
-3.58279
0
LINE
8
BLACK
6
CONTINUOUS
10
6.3924
20
-3.58279
11
6.38876
21
-3.58827
0
LINE
8
BLACK
6
CONTINUOUS
10
6.38876
20
-3.58827
11
6.38399
21
-3.59281
0
LINE
8
BLACK
6
CONTINUOUS
10
6.38399
20
-3.59281
11
6.37834
21
-3.59618
0
LINE
8
BLACK
6
CONTINUOUS
10
6.37834
20
-3.59618
11
6.37208
21
-3.59822
0
LINE
8
BLACK
6
CONTINUOUS
10
6.37208
20
-3.59822
11
6.36552
21
-3.59881
0
LINE
8
BLACK
6
CONTINUOUS
10
6.36552
20
-3.59881
11
6.359
21
-3.59794
0
LINE
8
BLACK
6
CONTINUOUS
10
6.359
20
-3.59794
11
6.35283
21
-3.59565
0
LINE
8
BLACK
6
CONTINUOUS
10
6.35283
20
-3.59565
11
6.34732
21
-3.59204
0
LINE
8
BLACK
6
CONTINUOUS
10
6.34732
20
-3.59204
11
6.34275
21
-3.58731
0
LINE
8
BLACK
6
CONTINUOUS
10
6.34275
20
-3.58731
11
6.33934
21
-3.58168
0
LINE
8
BLACK
6
CONTINUOUS
10
6.33934
20
-3.58168
11
6.33726
21
-3.57543
0
LINE
8
BLACK
6
CONTINUOUS
10
6.33726
20
-3.57543
11
6.33662
21
-3.56888
0
LINE
8
BLACK
6
CONTINUOUS
10
6.33662
20
-3.56888
11
6.33744
21
-3.56235
0
LINE
8
BLACK
6
CONTINUOUS
10
6.33744
20
-3.56235
11
6.33969
21
-3.55616
0
LINE
8
BLACK
6
CONTINUOUS
10
6.33969
20
-3.55616
11
6.34326
21
-3.55063
0
LINE
8
BLACK
6
CONTINUOUS
10
6.34326
20
-3.55063
11
6.34796
21
-3.54602
0
LINE
8
BLACK
6
CONTINUOUS
10
6.34796
20
-3.54602
11
6.35357
21
-3.54257
0
LINE
8
BLACK
6
CONTINUOUS
10
6.35357
20
-3.54257
11
6.3598
21
-3.54045
0
LINE
8
BLACK
6
CONTINUOUS
10
6.3598
20
-3.54045
11
6.36635
21
-3.53976
0
LINE
8
BLACK
6
CONTINUOUS
10
6.36635
20
-3.53976
11
6.37288
21
-3.54054
0
LINE
8
BLACK
6
CONTINUOUS
10
6.27288
20
-3.49054
11
6.27909
21
-3.49275
0
LINE
8
BLACK
6
CONTINUOUS
10
6.27909
20
-3.49275
11
6.28464
21
-3.49628
0
LINE
8
BLACK
6
CONTINUOUS
10
6.28464
20
-3.49628
11
6.28928
21
-3.50095
0
LINE
8
BLACK
6
CONTINUOUS
10
6.28928
20
-3.50095
11
6.29277
21
-3.50653
0
LINE
8
BLACK
6
CONTINUOUS
10
6.29277
20
-3.50653
11
6.29494
21
-3.51275
0
LINE
8
BLACK
6
CONTINUOUS
10
6.29494
20
-3.51275
11
6.29567
21
-3.51929
0
LINE
8
BLACK
6
CONTINUOUS
10
6.29567
20
-3.51929
11
6.29566
21
-3.52012
0
LINE
8
BLACK
6
CONTINUOUS
10
6.29566
20
-3.52012
11
6.29474
21
-3.52663
0
LINE
8
BLACK
6
CONTINUOUS
10
6.29474
20
-3.52663
11
6.2924
21
-3.53279
0
LINE
8
BLACK
6
CONTINUOUS
10
6.2924
20
-3.53279
11
6.28876
21
-3.53827
0
LINE
8
BLACK
6
CONTINUOUS
10
6.28876
20
-3.53827
11
6.28399
21
-3.54281
0
LINE
8
BLACK
6
CONTINUOUS
10
6.28399
20
-3.54281
11
6.27834
21
-3.54618
0
LINE
8
BLACK
6
CONTINUOUS
10
6.27834
20
-3.54618
11
6.27208
21
-3.54822
0
LINE
8
BLACK
6
CONTINUOUS
10
6.27208
20
-3.54822
11
6.26552
21
-3.54881
0
LINE
8
BLACK
6
CONTINUOUS
10
6.26552
20
-3.54881
11
6.259
21
-3.54794
0
LINE
8
BLACK
6
CONTINUOUS
10
6.259
20
-3.54794
11
6.25283
21
-3.54565
0
LINE
8
BLACK
6
CONTINUOUS
10
6.25283
20
-3.54565
11
6.24732
21
-3.54204
0
LINE
8
BLACK
6
CONTINUOUS
10
6.24732
20
-3.54204
11
6.24275
21
-3.53731
0
LINE
8
BLACK
6
CONTINUOUS
10
6.24275
20
-3.53731
11
6.23934
21
-3.53168
0
LINE
8
BLACK
6
CONTINUOUS
10
6.23934
20
-3.53168
11
6.23726
21
-3.52543
0
LINE
8
BLACK
6
CONTINUOUS
10
6.23726
20
-3.52543
11
6.23662
21
-3.51888
0
LINE
8
BLACK
6
CONTINUOUS
10
6.23662
20
-3.51888
11
6.23744
21
-3.51235
0
LINE
8
BLACK
6
CONTINUOUS
10
6.23744
20
-3.51235
11
6.23969
21
-3.50616
0
LINE
8
BLACK
6
CONTINUOUS
10
6.23969
20
-3.50616
11
6.24326
21
-3.50063
0
LINE
8
BLACK
6
CONTINUOUS
10
6.24326
20
-3.50063
11
6.24796
21
-3.49602
0
LINE
8
BLACK
6
CONTINUOUS
10
6.24796
20
-3.49602
11
6.25357
21
-3.49257
0
LINE
8
BLACK
6
CONTINUOUS
10
6.25357
20
-3.49257
11
6.2598
21
-3.49045
0
LINE
8
BLACK
6
CONTINUOUS
10
6.2598
20
-3.49045
11
6.26635
21
-3.48976
0
LINE
8
BLACK
6
CONTINUOUS
10
6.26635
20
-3.48976
11
6.27288
21
-3.49054
0
LINE
8
BLACK
6
CONTINUOUS
10
6.37288
20
-3.44054
11
6.37909
21
-3.44275
0
LINE
8
BLACK
6
CONTINUOUS
10
6.37909
20
-3.44275
11
6.38464
21
-3.44628
0
LINE
8
BLACK
6
CONTINUOUS
10
6.38464
20
-3.44628
11
6.38928
21
-3.45095
0
LINE
8
BLACK
6
CONTINUOUS
10
6.38928
20
-3.45095
11
6.39277
21
-3.45653
0
LINE
8
BLACK
6
CONTINUOUS
10
6.39277
20
-3.45653
11
6.39494
21
-3.46275
0
LINE
8
BLACK
6
CONTINUOUS
10
6.39494
20
-3.46275
11
6.39567
21
-3.46929
0
LINE
8
BLACK
6
CONTINUOUS
10
6.39567
20
-3.46929
11
6.39566
21
-3.47012
0
LINE
8
BLACK
6
CONTINUOUS
10
6.39566
20
-3.47012
11
6.39474
21
-3.47663
0
LINE
8
BLACK
6
CONTINUOUS
10
6.39474
20
-3.47663
11
6.3924
21
-3.48279
0
LINE
8
BLACK
6
CONTINUOUS
10
6.3924
20
-3.48279
11
6.38876
21
-3.48827
0
LINE
8
BLACK
6
CONTINUOUS
10
6.38876
20
-3.48827
11
6.38399
21
-3.49281
0
LINE
8
BLACK
6
CONTINUOUS
10
6.38399
20
-3.49281
11
6.37834
21
-3.49618
0
LINE
8
BLACK
6
CONTINUOUS
10
6.37834
20
-3.49618
11
6.37208
21
-3.49822
0
LINE
8
BLACK
6
CONTINUOUS
10
6.37208
20
-3.49822
11
6.36552
21
-3.49881
0
LINE
8
BLACK
6
CONTINUOUS
10
6.36552
20
-3.49881
11
6.359
21
-3.49794
0
LINE
8
BLACK
6
CONTINUOUS
10
6.359
20
-3.49794
11
6.35283
21
-3.49565
0
LINE
8
BLACK
6
CONTINUOUS
10
6.35283
20
-3.49565
11
6.34732
21
-3.49204
0
LINE
8
BLACK
6
CONTINUOUS
10
6.34732
20
-3.49204
11
6.34275
21
-3.48731
0
LINE
8
BLACK
6
CONTINUOUS
10
6.34275
20
-3.48731
11
6.33934
21
-3.48168
0
LINE
8
BLACK
6
CONTINUOUS
10
6.33934
20
-3.48168
11
6.33726
21
-3.47543
0
LINE
8
BLACK
6
CONTINUOUS
10
6.33726
20
-3.47543
11
6.33662
21
-3.46888
0
LINE
8
BLACK
6
CONTINUOUS
10
6.33662
20
-3.46888
11
6.33744
21
-3.46235
0
LINE
8
BLACK
6
CONTINUOUS
10
6.33744
20
-3.46235
11
6.33969
21
-3.45616
0
LINE
8
BLACK
6
CONTINUOUS
10
6.33969
20
-3.45616
11
6.34326
21
-3.45063
0
LINE
8
BLACK
6
CONTINUOUS
10
6.34326
20
-3.45063
11
6.34796
21
-3.44602
0
LINE
8
BLACK
6
CONTINUOUS
10
6.34796
20
-3.44602
11
6.35357
21
-3.44257
0
LINE
8
BLACK
6
CONTINUOUS
10
6.35357
20
-3.44257
11
6.3598
21
-3.44045
0
LINE
8
BLACK
6
CONTINUOUS
10
6.3598
20
-3.44045
11
6.36635
21
-3.43976
0
LINE
8
BLACK
6
CONTINUOUS
10
6.36635
20
-3.43976
11
6.37288
21
-3.44054
0
LINE
8
BLACK
6
CONTINUOUS
10
6.27288
20
-3.39054
11
6.27909
21
-3.39275
0
LINE
8
BLACK
6
CONTINUOUS
10
6.27909
20
-3.39275
11
6.28464
21
-3.39628
0
LINE
8
BLACK
6
CONTINUOUS
10
6.28464
20
-3.39628
11
6.28928
21
-3.40095
0
LINE
8
BLACK
6
CONTINUOUS
10
6.28928
20
-3.40095
11
6.29277
21
-3.40653
0
LINE
8
BLACK
6
CONTINUOUS
10
6.29277
20
-3.40653
11
6.29494
21
-3.41275
0
LINE
8
BLACK
6
CONTINUOUS
10
6.29494
20
-3.41275
11
6.29567
21
-3.41929
0
LINE
8
BLACK
6
CONTINUOUS
10
6.29567
20
-3.41929
11
6.29566
21
-3.42012
0
LINE
8
BLACK
6
CONTINUOUS
10
6.29566
20
-3.42012
11
6.29474
21
-3.42663
0
LINE
8
BLACK
6
CONTINUOUS
10
6.29474
20
-3.42663
11
6.2924
21
-3.43279
0
LINE
8
BLACK
6
CONTINUOUS
10
6.2924
20
-3.43279
11
6.28876
21
-3.43827
0
LINE
8
BLACK
6
CONTINUOUS
10
6.28876
20
-3.43827
11
6.28399
21
-3.44281
0
LINE
8
BLACK
6
CONTINUOUS
10
6.28399
20
-3.44281
11
6.27834
21
-3.44618
0
LINE
8
BLACK
6
CONTINUOUS
10
6.27834
20
-3.44618
11
6.27208
21
-3.44822
0
LINE
8
BLACK
6
CONTINUOUS
10
6.27208
20
-3.44822
11
6.26552
21
-3.44881
0
LINE
8
BLACK
6
CONTINUOUS
10
6.26552
20
-3.44881
11
6.259
21
-3.44794
0
LINE
8
BLACK
6
CONTINUOUS
10
6.259
20
-3.44794
11
6.25283
21
-3.44565
0
LINE
8
BLACK
6
CONTINUOUS
10
6.25283
20
-3.44565
11
6.24732
21
-3.44204
0
LINE
8
BLACK
6
CONTINUOUS
10
6.24732
20
-3.44204
11
6.24275
21
-3.43731
0
LINE
8
BLACK
6
CONTINUOUS
10
6.24275
20
-3.43731
11
6.23934
21
-3.43168
0
LINE
8
BLACK
6
CONTINUOUS
10
6.23934
20
-3.43168
11
6.23726
21
-3.42543
0
LINE
8
BLACK
6
CONTINUOUS
10
6.23726
20
-3.42543
11
6.23662
21
-3.41888
0
LINE
8
BLACK
6
CONTINUOUS
10
6.23662
20
-3.41888
11
6.23744
21
-3.41235
0
LINE
8
BLACK
6
CONTINUOUS
10
6.23744
20
-3.41235
11
6.23969
21
-3.40616
0
LINE
8
BLACK
6
CONTINUOUS
10
6.23969
20
-3.40616
11
6.24326
21
-3.40063
0
LINE
8
BLACK
6
CONTINUOUS
10
6.24326
20
-3.40063
11
6.24796
21
-3.39602
0
LINE
8
BLACK
6
CONTINUOUS
10
6.24796
20
-3.39602
11
6.25357
21
-3.39257
0
LINE
8
BLACK
6
CONTINUOUS
10
6.25357
20
-3.39257
11
6.2598
21
-3.39045
0
LINE
8
BLACK
6
CONTINUOUS
10
6.2598
20
-3.39045
11
6.26635
21
-3.38976
0
LINE
8
BLACK
6
CONTINUOUS
10
6.26635
20
-3.38976
11
6.27288
21
-3.39054
0
LINE
8
BLACK
6
CONTINUOUS
10
5.0814
20
-3.37514
11
5.0848
21
-3.378
0
LINE
8
BLACK
6
CONTINUOUS
10
5.0848
20
-3.378
11
5.08702
21
-3.38184
0
LINE
8
BLACK
6
CONTINUOUS
10
5.08702
20
-3.38184
11
5.0878
21
-3.38622
0
LINE
8
BLACK
6
CONTINUOUS
10
5.0878
20
-3.38622
11
5.08702
21
-3.3906
0
LINE
8
BLACK
6
CONTINUOUS
10
5.08702
20
-3.3906
11
5.0848
21
-3.39445
0
LINE
8
BLACK
6
CONTINUOUS
10
5.0848
20
-3.39445
11
5.0814
21
-3.3973
0
LINE
8
BLACK
6
CONTINUOUS
10
5.0814
20
-3.3973
11
5.07722
21
-3.39882
0
LINE
8
BLACK
6
CONTINUOUS
10
5.07722
20
-3.39882
11
5.07278
21
-3.39882
0
LINE
8
BLACK
6
CONTINUOUS
10
5.07278
20
-3.39882
11
5.0686
21
-3.3973
0
LINE
8
BLACK
6
CONTINUOUS
10
5.0686
20
-3.3973
11
5.0652
21
-3.39445
0
LINE
8
BLACK
6
CONTINUOUS
10
5.0652
20
-3.39445
11
5.06298
21
-3.3906
0
LINE
8
BLACK
6
CONTINUOUS
10
5.06298
20
-3.3906
11
5.0622
21
-3.38622
0
LINE
8
BLACK
6
CONTINUOUS
10
5.0622
20
-3.38622
11
5.06298
21
-3.38184
0
LINE
8
BLACK
6
CONTINUOUS
10
5.06298
20
-3.38184
11
5.0652
21
-3.378
0
LINE
8
BLACK
6
CONTINUOUS
10
5.0652
20
-3.378
11
5.0686
21
-3.37514
0
LINE
8
BLACK
6
CONTINUOUS
10
5.0686
20
-3.37514
11
5.07278
21
-3.37362
0
LINE
8
BLACK
6
CONTINUOUS
10
5.07278
20
-3.37362
11
5.07722
21
-3.37362
0
LINE
8
BLACK
6
CONTINUOUS
10
5.07722
20
-3.37362
11
5.0814
21
-3.37514
0
LINE
8
BLACK
6
CONTINUOUS
10
6.37288
20
-3.34054
11
6.37909
21
-3.34275
0
LINE
8
BLACK
6
CONTINUOUS
10
6.37909
20
-3.34275
11
6.38464
21
-3.34628
0
LINE
8
BLACK
6
CONTINUOUS
10
6.38464
20
-3.34628
11
6.38928
21
-3.35095
0
LINE
8
BLACK
6
CONTINUOUS
10
6.38928
20
-3.35095
11
6.39277
21
-3.35653
0
LINE
8
BLACK
6
CONTINUOUS
10
6.39277
20
-3.35653
11
6.39494
21
-3.36275
0
LINE
8
BLACK
6
CONTINUOUS
10
6.39494
20
-3.36275
11
6.39567
21
-3.36929
0
LINE
8
BLACK
6
CONTINUOUS
10
6.39567
20
-3.36929
11
6.39566
21
-3.37012
0
LINE
8
BLACK
6
CONTINUOUS
10
6.39566
20
-3.37012
11
6.39474
21
-3.37663
0
LINE
8
BLACK
6
CONTINUOUS
10
6.39474
20
-3.37663
11
6.3924
21
-3.38279
0
LINE
8
BLACK
6
CONTINUOUS
10
6.3924
20
-3.38279
11
6.38876
21
-3.38827
0
LINE
8
BLACK
6
CONTINUOUS
10
6.38876
20
-3.38827
11
6.38399
21
-3.39281
0
LINE
8
BLACK
6
CONTINUOUS
10
6.38399
20
-3.39281
11
6.37834
21
-3.39618
0
LINE
8
BLACK
6
CONTINUOUS
10
6.37834
20
-3.39618
11
6.37208
21
-3.39822
0
LINE
8
BLACK
6
CONTINUOUS
10
6.37208
20
-3.39822
11
6.36552
21
-3.39881
0
LINE
8
BLACK
6
CONTINUOUS
10
6.36552
20
-3.39881
11
6.359
21
-3.39794
0
LINE
8
BLACK
6
CONTINUOUS
10
6.359
20
-3.39794
11
6.35283
21
-3.39565
0
LINE
8
BLACK
6
CONTINUOUS
10
6.35283
20
-3.39565
11
6.34732
21
-3.39204
0
LINE
8
BLACK
6
CONTINUOUS
10
6.34732
20
-3.39204
11
6.34275
21
-3.38731
0
LINE
8
BLACK
6
CONTINUOUS
10
6.34275
20
-3.38731
11
6.33934
21
-3.38168
0
LINE
8
BLACK
6
CONTINUOUS
10
6.33934
20
-3.38168
11
6.33726
21
-3.37543
0
LINE
8
BLACK
6
CONTINUOUS
10
6.33726
20
-3.37543
11
6.33662
21
-3.36888
0
LINE
8
BLACK
6
CONTINUOUS
10
6.33662
20
-3.36888
11
6.33744
21
-3.36235
0
LINE
8
BLACK
6
CONTINUOUS
10
6.33744
20
-3.36235
11
6.33969
21
-3.35616
0
LINE
8
BLACK
6
CONTINUOUS
10
6.33969
20
-3.35616
11
6.34326
21
-3.35063
0
LINE
8
BLACK
6
CONTINUOUS
10
6.34326
20
-3.35063
11
6.34796
21
-3.34602
0
LINE
8
BLACK
6
CONTINUOUS
10
6.34796
20
-3.34602
11
6.35357
21
-3.34257
0
LINE
8
BLACK
6
CONTINUOUS
10
6.35357
20
-3.34257
11
6.3598
21
-3.34045
0
LINE
8
BLACK
6
CONTINUOUS
10
6.3598
20
-3.34045
11
6.36635
21
-3.33976
0
LINE
8
BLACK
6
CONTINUOUS
10
6.36635
20
-3.33976
11
6.37288
21
-3.34054
0
LINE
8
BLACK
6
CONTINUOUS
10
6.27288
20
-3.29054
11
6.27909
21
-3.29275
0
LINE
8
BLACK
6
CONTINUOUS
10
6.27909
20
-3.29275
11
6.28464
21
-3.29628
0
LINE
8
BLACK
6
CONTINUOUS
10
6.28464
20
-3.29628
11
6.28928
21
-3.30095
0
LINE
8
BLACK
6
CONTINUOUS
10
6.28928
20
-3.30095
11
6.29277
21
-3.30653
0
LINE
8
BLACK
6
CONTINUOUS
10
6.29277
20
-3.30653
11
6.29494
21
-3.31275
0
LINE
8
BLACK
6
CONTINUOUS
10
6.29494
20
-3.31275
11
6.29567
21
-3.31929
0
LINE
8
BLACK
6
CONTINUOUS
10
6.29567
20
-3.31929
11
6.29566
21
-3.32012
0
LINE
8
BLACK
6
CONTINUOUS
10
6.29566
20
-3.32012
11
6.29474
21
-3.32663
0
LINE
8
BLACK
6
CONTINUOUS
10
6.29474
20
-3.32663
11
6.2924
21
-3.33279
0
LINE
8
BLACK
6
CONTINUOUS
10
6.2924
20
-3.33279
11
6.28876
21
-3.33827
0
LINE
8
BLACK
6
CONTINUOUS
10
6.28876
20
-3.33827
11
6.28399
21
-3.34281
0
LINE
8
BLACK
6
CONTINUOUS
10
6.28399
20
-3.34281
11
6.27834
21
-3.34618
0
LINE
8
BLACK
6
CONTINUOUS
10
6.27834
20
-3.34618
11
6.27208
21
-3.34822
0
LINE
8
BLACK
6
CONTINUOUS
10
6.27208
20
-3.34822
11
6.26552
21
-3.34881
0
LINE
8
BLACK
6
CONTINUOUS
10
6.26552
20
-3.34881
11
6.259
21
-3.34794
0
LINE
8
BLACK
6
CONTINUOUS
10
6.259
20
-3.34794
11
6.25283
21
-3.34565
0
LINE
8
BLACK
6
CONTINUOUS
10
6.25283
20
-3.34565
11
6.24732
21
-3.34204
0
LINE
8
BLACK
6
CONTINUOUS
10
6.24732
20
-3.34204
11
6.24275
21
-3.33731
0
LINE
8
BLACK
6
CONTINUOUS
10
6.24275
20
-3.33731
11
6.23934
21
-3.33168
0
LINE
8
BLACK
6
CONTINUOUS
10
6.23934
20
-3.33168
11
6.23726
21
-3.32543
0
LINE
8
BLACK
6
CONTINUOUS
10
6.23726
20
-3.32543
11
6.23662
21
-3.31888
0
LINE
8
BLACK
6
CONTINUOUS
10
6.23662
20
-3.31888
11
6.23744
21
-3.31235
0
LINE
8
BLACK
6
CONTINUOUS
10
6.23744
20
-3.31235
11
6.23969
21
-3.30616
0
LINE
8
BLACK
6
CONTINUOUS
10
6.23969
20
-3.30616
11
6.24326
21
-3.30063
0
LINE
8
BLACK
6
CONTINUOUS
10
6.24326
20
-3.30063
11
6.24796
21
-3.29602
0
LINE
8
BLACK
6
CONTINUOUS
10
6.24796
20
-3.29602
11
6.25357
21
-3.29257
0
LINE
8
BLACK
6
CONTINUOUS
10
6.25357
20
-3.29257
11
6.2598
21
-3.29045
0
LINE
8
BLACK
6
CONTINUOUS
10
6.2598
20
-3.29045
11
6.26635
21
-3.28976
0
LINE
8
BLACK
6
CONTINUOUS
10
6.26635
20
-3.28976
11
6.27288
21
-3.29054
0
LINE
8
BLACK
6
CONTINUOUS
10
4.95415
20
-3.31242
11
4.95917
21
-3.31401
0
LINE
8
BLACK
6
CONTINUOUS
10
4.95917
20
-3.31401
11
4.96351
21
-3.31701
0
LINE
8
BLACK
6
CONTINUOUS
10
4.96351
20
-3.31701
11
4.96677
21
-3.32114
0
LINE
8
BLACK
6
CONTINUOUS
10
4.96677
20
-3.32114
11
4.96867
21
-3.32606
0
LINE
8
BLACK
6
CONTINUOUS
10
4.96867
20
-3.32606
11
4.96904
21
-3.33131
0
LINE
8
BLACK
6
CONTINUOUS
10
4.96904
20
-3.33131
11
4.96785
21
-3.33644
0
LINE
8
BLACK
6
CONTINUOUS
10
4.96785
20
-3.33644
11
4.9652
21
-3.341
0
LINE
8
BLACK
6
CONTINUOUS
10
4.9652
20
-3.341
11
4.96134
21
-3.34457
0
LINE
8
BLACK
6
CONTINUOUS
10
4.96134
20
-3.34457
11
4.95659
21
-3.34685
0
LINE
8
BLACK
6
CONTINUOUS
10
4.95659
20
-3.34685
11
4.95138
21
-3.34764
0
LINE
8
BLACK
6
CONTINUOUS
10
4.95138
20
-3.34764
11
4.90807
21
-3.34764
0
LINE
8
BLACK
6
CONTINUOUS
10
4.90807
20
-3.34764
11
4.9053
21
-3.34742
0
LINE
8
BLACK
6
CONTINUOUS
10
4.9053
20
-3.34742
11
4.90028
21
-3.34583
0
LINE
8
BLACK
6
CONTINUOUS
10
4.90028
20
-3.34583
11
4.89594
21
-3.34284
0
LINE
8
BLACK
6
CONTINUOUS
10
4.89594
20
-3.34284
11
4.89268
21
-3.3387
0
LINE
8
BLACK
6
CONTINUOUS
10
4.89268
20
-3.3387
11
4.89078
21
-3.33379
0
LINE
8
BLACK
6
CONTINUOUS
10
4.89078
20
-3.33379
11
4.89041
21
-3.32853
0
LINE
8
BLACK
6
CONTINUOUS
10
4.89041
20
-3.32853
11
4.8916
21
-3.3234
0
LINE
8
BLACK
6
CONTINUOUS
10
4.8916
20
-3.3234
11
4.89424
21
-3.31884
0
LINE
8
BLACK
6
CONTINUOUS
10
4.89424
20
-3.31884
11
4.89811
21
-3.31527
0
LINE
8
BLACK
6
CONTINUOUS
10
4.89811
20
-3.31527
11
4.90286
21
-3.31299
0
LINE
8
BLACK
6
CONTINUOUS
10
4.90286
20
-3.31299
11
4.90807
21
-3.3122
0
LINE
8
BLACK
6
CONTINUOUS
10
4.90807
20
-3.3122
11
4.95138
21
-3.3122
0
LINE
8
BLACK
6
CONTINUOUS
10
4.95138
20
-3.3122
11
4.95415
21
-3.31242
0
LINE
8
BLACK
6
CONTINUOUS
10
5.12029
20
-3.31242
11
5.12531
21
-3.31401
0
LINE
8
BLACK
6
CONTINUOUS
10
5.12531
20
-3.31401
11
5.12965
21
-3.31701
0
LINE
8
BLACK
6
CONTINUOUS
10
5.12965
20
-3.31701
11
5.13291
21
-3.32114
0
LINE
8
BLACK
6
CONTINUOUS
10
5.13291
20
-3.32114
11
5.13481
21
-3.32606
0
LINE
8
BLACK
6
CONTINUOUS
10
5.13481
20
-3.32606
11
5.13518
21
-3.33131
0
LINE
8
BLACK
6
CONTINUOUS
10
5.13518
20
-3.33131
11
5.13399
21
-3.33644
0
LINE
8
BLACK
6
CONTINUOUS
10
5.13399
20
-3.33644
11
5.13135
21
-3.341
0
LINE
8
BLACK
6
CONTINUOUS
10
5.13135
20
-3.341
11
5.12748
21
-3.34457
0
LINE
8
BLACK
6
CONTINUOUS
10
5.12748
20
-3.34457
11
5.12273
21
-3.34685
0
LINE
8
BLACK
6
CONTINUOUS
10
5.12273
20
-3.34685
11
5.11752
21
-3.34764
0
LINE
8
BLACK
6
CONTINUOUS
10
5.11752
20
-3.34764
11
5.07028
21
-3.34764
0
LINE
8
BLACK
6
CONTINUOUS
10
5.07028
20
-3.34764
11
5.0675
21
-3.34742
0
LINE
8
BLACK
6
CONTINUOUS
10
5.0675
20
-3.34742
11
5.06248
21
-3.34583
0
LINE
8
BLACK
6
CONTINUOUS
10
5.06248
20
-3.34583
11
5.05815
21
-3.34284
0
LINE
8
BLACK
6
CONTINUOUS
10
5.05815
20
-3.34284
11
5.05489
21
-3.3387
0
LINE
8
BLACK
6
CONTINUOUS
10
5.05489
20
-3.3387
11
5.05299
21
-3.33379
0
LINE
8
BLACK
6
CONTINUOUS
10
5.05299
20
-3.33379
11
5.05261
21
-3.32853
0
LINE
8
BLACK
6
CONTINUOUS
10
5.05261
20
-3.32853
11
5.0538
21
-3.3234
0
LINE
8
BLACK
6
CONTINUOUS
10
5.0538
20
-3.3234
11
5.05645
21
-3.31884
0
LINE
8
BLACK
6
CONTINUOUS
10
5.05645
20
-3.31884
11
5.06032
21
-3.31527
0
LINE
8
BLACK
6
CONTINUOUS
10
5.06032
20
-3.31527
11
5.06507
21
-3.31299
0
LINE
8
BLACK
6
CONTINUOUS
10
5.06507
20
-3.31299
11
5.07028
21
-3.3122
0
LINE
8
BLACK
6
CONTINUOUS
10
5.07028
20
-3.3122
11
5.11752
21
-3.3122
0
LINE
8
BLACK
6
CONTINUOUS
10
5.11752
20
-3.3122
11
5.12029
21
-3.31242
0
LINE
8
BLACK
6
CONTINUOUS
10
6.6224
20
-3.19771
11
6.63291
21
-3.19943
0
LINE
8
BLACK
6
CONTINUOUS
10
6.63291
20
-3.19943
11
6.64306
21
-3.20267
0
LINE
8
BLACK
6
CONTINUOUS
10
6.64306
20
-3.20267
11
6.65261
21
-3.20738
0
LINE
8
BLACK
6
CONTINUOUS
10
6.65261
20
-3.20738
11
6.66136
21
-3.21345
0
LINE
8
BLACK
6
CONTINUOUS
10
6.66136
20
-3.21345
11
6.66912
21
-3.22075
0
LINE
8
BLACK
6
CONTINUOUS
10
6.66912
20
-3.22075
11
6.67571
21
-3.22911
0
LINE
8
BLACK
6
CONTINUOUS
10
6.67571
20
-3.22911
11
6.68099
21
-3.23836
0
LINE
8
BLACK
6
CONTINUOUS
10
6.68099
20
-3.23836
11
6.68485
21
-3.24828
0
LINE
8
BLACK
6
CONTINUOUS
10
6.68485
20
-3.24828
11
6.6872
21
-3.25867
0
LINE
8
BLACK
6
CONTINUOUS
10
6.6872
20
-3.25867
11
6.68799
21
-3.26929
0
LINE
8
BLACK
6
CONTINUOUS
10
6.68799
20
-3.26929
11
6.68789
21
-3.27305
0
LINE
8
BLACK
6
CONTINUOUS
10
6.68789
20
-3.27305
11
6.68655
21
-3.28362
0
LINE
8
BLACK
6
CONTINUOUS
10
6.68655
20
-3.28362
11
6.68366
21
-3.29387
0
LINE
8
BLACK
6
CONTINUOUS
10
6.68366
20
-3.29387
11
6.67929
21
-3.30358
0
LINE
8
BLACK
6
CONTINUOUS
10
6.67929
20
-3.30358
11
6.67352
21
-3.31253
0
LINE
8
BLACK
6
CONTINUOUS
10
6.67352
20
-3.31253
11
6.6665
21
-3.32054
0
LINE
8
BLACK
6
CONTINUOUS
10
6.6665
20
-3.32054
11
6.65837
21
-3.32742
0
LINE
8
BLACK
6
CONTINUOUS
10
6.65837
20
-3.32742
11
6.64932
21
-3.33302
0
LINE
8
BLACK
6
CONTINUOUS
10
6.64932
20
-3.33302
11
6.63953
21
-3.33723
0
LINE
8
BLACK
6
CONTINUOUS
10
6.63953
20
-3.33723
11
6.62924
21
-3.33994
0
LINE
8
BLACK
6
CONTINUOUS
10
6.62924
20
-3.33994
11
6.61865
21
-3.3411
0
LINE
8
BLACK
6
CONTINUOUS
10
6.61865
20
-3.3411
11
6.60801
21
-3.34068
0
LINE
8
BLACK
6
CONTINUOUS
10
6.60801
20
-3.34068
11
6.59755
21
-3.33869
0
LINE
8
BLACK
6
CONTINUOUS
10
6.59755
20
-3.33869
11
6.58749
21
-3.33518
0
LINE
8
BLACK
6
CONTINUOUS
10
6.58749
20
-3.33518
11
6.57807
21
-3.33022
0
LINE
8
BLACK
6
CONTINUOUS
10
6.57807
20
-3.33022
11
6.56948
21
-3.32393
0
LINE
8
BLACK
6
CONTINUOUS
10
6.56948
20
-3.32393
11
6.56192
21
-3.31643
0
LINE
8
BLACK
6
CONTINUOUS
10
6.56192
20
-3.31643
11
6.55554
21
-3.3079
0
LINE
8
BLACK
6
CONTINUOUS
10
6.55554
20
-3.3079
11
6.5505
21
-3.29852
0
LINE
8
BLACK
6
CONTINUOUS
10
6.5505
20
-3.29852
11
6.5469
21
-3.28849
0
LINE
8
BLACK
6
CONTINUOUS
10
6.5469
20
-3.28849
11
6.54483
21
-3.27805
0
LINE
8
BLACK
6
CONTINUOUS
10
6.54483
20
-3.27805
11
6.54432
21
-3.26741
0
LINE
8
BLACK
6
CONTINUOUS
10
6.54432
20
-3.26741
11
6.54538
21
-3.25681
0
LINE
8
BLACK
6
CONTINUOUS
10
6.54538
20
-3.25681
11
6.548
21
-3.24649
0
LINE
8
BLACK
6
CONTINUOUS
10
6.548
20
-3.24649
11
6.55212
21
-3.23667
0
LINE
8
BLACK
6
CONTINUOUS
10
6.55212
20
-3.23667
11
6.55765
21
-3.22757
0
LINE
8
BLACK
6
CONTINUOUS
10
6.55765
20
-3.22757
11
6.56446
21
-3.21938
0
LINE
8
BLACK
6
CONTINUOUS
10
6.56446
20
-3.21938
11
6.5724
21
-3.21229
0
LINE
8
BLACK
6
CONTINUOUS
10
6.5724
20
-3.21229
11
6.58131
21
-3.20645
0
LINE
8
BLACK
6
CONTINUOUS
10
6.58131
20
-3.20645
11
6.59098
21
-3.20199
0
LINE
8
BLACK
6
CONTINUOUS
10
6.59098
20
-3.20199
11
6.6012
21
-3.19901
0
LINE
8
BLACK
6
CONTINUOUS
10
6.6012
20
-3.19901
11
6.61176
21
-3.19757
0
LINE
8
BLACK
6
CONTINUOUS
10
6.61176
20
-3.19757
11
6.6224
21
-3.19771
0
LINE
8
BLACK
6
CONTINUOUS
10
6.1015
20
-3.16315
11
6.10827
21
-3.16616
0
LINE
8
BLACK
6
CONTINUOUS
10
6.10827
20
-3.16616
11
6.11426
21
-3.17052
0
LINE
8
BLACK
6
CONTINUOUS
10
6.11426
20
-3.17052
11
6.11922
21
-3.17602
0
LINE
8
BLACK
6
CONTINUOUS
10
6.11922
20
-3.17602
11
6.12292
21
-3.18244
0
LINE
8
BLACK
6
CONTINUOUS
10
6.12292
20
-3.18244
11
6.12521
21
-3.18948
0
LINE
8
BLACK
6
CONTINUOUS
10
6.12521
20
-3.18948
11
6.12598
21
-3.19685
0
LINE
8
BLACK
6
CONTINUOUS
10
6.12598
20
-3.19685
11
6.12598
21
-3.22047
0
LINE
8
BLACK
6
CONTINUOUS
10
6.12598
20
-3.22047
11
6.12521
21
-3.22784
0
LINE
8
BLACK
6
CONTINUOUS
10
6.12521
20
-3.22784
11
6.12292
21
-3.23488
0
LINE
8
BLACK
6
CONTINUOUS
10
6.12292
20
-3.23488
11
6.11922
21
-3.2413
0
LINE
8
BLACK
6
CONTINUOUS
10
6.11922
20
-3.2413
11
6.11426
21
-3.2468
0
LINE
8
BLACK
6
CONTINUOUS
10
6.11426
20
-3.2468
11
6.10827
21
-3.25116
0
LINE
8
BLACK
6
CONTINUOUS
10
6.10827
20
-3.25116
11
6.1015
21
-3.25417
0
LINE
8
BLACK
6
CONTINUOUS
10
6.1015
20
-3.25417
11
6.09425
21
-3.25571
0
LINE
8
BLACK
6
CONTINUOUS
10
6.09425
20
-3.25571
11
6.08685
21
-3.25571
0
LINE
8
BLACK
6
CONTINUOUS
10
6.08685
20
-3.25571
11
6.0796
21
-3.25417
0
LINE
8
BLACK
6
CONTINUOUS
10
6.0796
20
-3.25417
11
6.07283
21
-3.25116
0
LINE
8
BLACK
6
CONTINUOUS
10
6.07283
20
-3.25116
11
6.06684
21
-3.2468
0
LINE
8
BLACK
6
CONTINUOUS
10
6.06684
20
-3.2468
11
6.06189
21
-3.2413
0
LINE
8
BLACK
6
CONTINUOUS
10
6.06189
20
-3.2413
11
6.05818
21
-3.23488
0
LINE
8
BLACK
6
CONTINUOUS
10
6.05818
20
-3.23488
11
6.05589
21
-3.22784
0
LINE
8
BLACK
6
CONTINUOUS
10
6.05589
20
-3.22784
11
6.05512
21
-3.22047
0
LINE
8
BLACK
6
CONTINUOUS
10
6.05512
20
-3.22047
11
6.05512
21
-3.19685
0
LINE
8
BLACK
6
CONTINUOUS
10
6.05512
20
-3.19685
11
6.05589
21
-3.18948
0
LINE
8
BLACK
6
CONTINUOUS
10
6.05589
20
-3.18948
11
6.05818
21
-3.18244
0
LINE
8
BLACK
6
CONTINUOUS
10
6.05818
20
-3.18244
11
6.06189
21
-3.17602
0
LINE
8
BLACK
6
CONTINUOUS
10
6.06189
20
-3.17602
11
6.06684
21
-3.17052
0
LINE
8
BLACK
6
CONTINUOUS
10
6.06684
20
-3.17052
11
6.07283
21
-3.16616
0
LINE
8
BLACK
6
CONTINUOUS
10
6.07283
20
-3.16616
11
6.0796
21
-3.16315
0
LINE
8
BLACK
6
CONTINUOUS
10
6.0796
20
-3.16315
11
6.08685
21
-3.16161
0
LINE
8
BLACK
6
CONTINUOUS
10
6.08685
20
-3.16161
11
6.09425
21
-3.16161
0
LINE
8
BLACK
6
CONTINUOUS
10
6.09425
20
-3.16161
11
6.1015
21
-3.16315
0
LINE
8
BLACK
6
CONTINUOUS
10
5.05819
20
-3.16315
11
5.06496
21
-3.16616
0
LINE
8
BLACK
6
CONTINUOUS
10
5.06496
20
-3.16616
11
5.07095
21
-3.17052
0
LINE
8
BLACK
6
CONTINUOUS
10
5.07095
20
-3.17052
11
5.07591
21
-3.17602
0
LINE
8
BLACK
6
CONTINUOUS
10
5.07591
20
-3.17602
11
5.07961
21
-3.18244
0
LINE
8
BLACK
6
CONTINUOUS
10
5.07961
20
-3.18244
11
5.0819
21
-3.18948
0
LINE
8
BLACK
6
CONTINUOUS
10
5.0819
20
-3.18948
11
5.08268
21
-3.19685
0
LINE
8
BLACK
6
CONTINUOUS
10
5.08268
20
-3.19685
11
5.08268
21
-3.22047
0
LINE
8
BLACK
6
CONTINUOUS
10
5.08268
20
-3.22047
11
5.0819
21
-3.22784
0
LINE
8
BLACK
6
CONTINUOUS
10
5.0819
20
-3.22784
11
5.07961
21
-3.23488
0
LINE
8
BLACK
6
CONTINUOUS
10
5.07961
20
-3.23488
11
5.07591
21
-3.2413
0
LINE
8
BLACK
6
CONTINUOUS
10
5.07591
20
-3.2413
11
5.07095
21
-3.2468
0
LINE
8
BLACK
6
CONTINUOUS
10
5.07095
20
-3.2468
11
5.06496
21
-3.25116
0
LINE
8
BLACK
6
CONTINUOUS
10
5.06496
20
-3.25116
11
5.05819
21
-3.25417
0
LINE
8
BLACK
6
CONTINUOUS
10
5.05819
20
-3.25417
11
5.05095
21
-3.25571
0
LINE
8
BLACK
6
CONTINUOUS
10
5.05095
20
-3.25571
11
5.04354
21
-3.25571
0
LINE
8
BLACK
6
CONTINUOUS
10
5.04354
20
-3.25571
11
5.03629
21
-3.25417
0
LINE
8
BLACK
6
CONTINUOUS
10
5.03629
20
-3.25417
11
5.02953
21
-3.25116
0
LINE
8
BLACK
6
CONTINUOUS
10
5.02953
20
-3.25116
11
5.02353
21
-3.2468
0
LINE
8
BLACK
6
CONTINUOUS
10
5.02353
20
-3.2468
11
5.01858
21
-3.2413
0
LINE
8
BLACK
6
CONTINUOUS
10
5.01858
20
-3.2413
11
5.01487
21
-3.23488
0
LINE
8
BLACK
6
CONTINUOUS
10
5.01487
20
-3.23488
11
5.01259
21
-3.22784
0
LINE
8
BLACK
6
CONTINUOUS
10
5.01259
20
-3.22784
11
5.01181
21
-3.22047
0
LINE
8
BLACK
6
CONTINUOUS
10
5.01181
20
-3.22047
11
5.01181
21
-3.19685
0
LINE
8
BLACK
6
CONTINUOUS
10
5.01181
20
-3.19685
11
5.01259
21
-3.18948
0
LINE
8
BLACK
6
CONTINUOUS
10
5.01259
20
-3.18948
11
5.01487
21
-3.18244
0
LINE
8
BLACK
6
CONTINUOUS
10
5.01487
20
-3.18244
11
5.01858
21
-3.17602
0
LINE
8
BLACK
6
CONTINUOUS
10
5.01858
20
-3.17602
11
5.02353
21
-3.17052
0
LINE
8
BLACK
6
CONTINUOUS
10
5.02353
20
-3.17052
11
5.02953
21
-3.16616
0
LINE
8
BLACK
6
CONTINUOUS
10
5.02953
20
-3.16616
11
5.03629
21
-3.16315
0
LINE
8
BLACK
6
CONTINUOUS
10
5.03629
20
-3.16315
11
5.04354
21
-3.16161
0
LINE
8
BLACK
6
CONTINUOUS
10
5.04354
20
-3.16161
11
5.05095
21
-3.16161
0
LINE
8
BLACK
6
CONTINUOUS
10
5.05095
20
-3.16161
11
5.05819
21
-3.16315
  0
ENDSEC
  0
EOF
